M48
; DRILL file {KiCad 9.0.2} date 2025-07-24T17:01:52+0200
; FORMAT={-:-/ absolute / inch / decimal}
; #@! TF.CreationDate,2025-07-24T17:01:52+02:00
; #@! TF.GenerationSoftware,Kicad,Pcbnew,9.0.2
; #@! TF.FileFunction,Plated,1,2,PTH
FMAT,2
INCH
; #@! TA.AperFunction,Plated,PTH,ViaDrill
T1C0.0118
; #@! TA.AperFunction,Plated,PTH,ComponentDrill
T2C0.0394
%
G90
G05
T1
X1.8035Y-5.711
X1.8201Y-6.0189
X1.8524Y-5.5799
X3.1539Y-5.8421
X3.3362Y-5.8421
X3.3457Y-5.4327
X3.3925Y-5.4555
X3.6437Y-5.4329
X3.7437Y-5.4555
X3.9839Y-5.6882
X3.9858Y-5.8421
X4.7047Y-6.0217
X4.7559Y-5.5787
T2
X2.3437Y-5.9449
X2.424Y-5.5872
X2.424Y-5.6872
X2.4437Y-5.9449
X2.524Y-5.5872
X2.524Y-5.6872
X2.5437Y-5.9449
X2.624Y-5.5872
X2.624Y-5.6872
X2.6437Y-5.9449
X2.7437Y-5.9449
X2.8437Y-5.9449
X2.9437Y-5.9449
X3.0437Y-5.9449
X3.2457Y-5.5872
X3.2457Y-5.6872
X3.3457Y-5.5872
X3.3457Y-5.6872
X3.4437Y-5.9449
X3.4457Y-5.5872
X3.4457Y-5.6872
X3.5437Y-5.9449
X3.6437Y-5.9449
X3.7437Y-5.9449
X3.8437Y-5.9449
X3.9437Y-5.9449
X4.0437Y-5.9449
X4.0673Y-5.5872
X4.0673Y-5.6872
X4.1437Y-5.9449
X4.1673Y-5.5872
X4.1673Y-5.6872
X4.2437Y-5.9449
X4.2673Y-5.5872
X4.2673Y-5.6872
X4.3437Y-5.9449
M30
