%TF.GenerationSoftware,KiCad,Pcbnew,9.0.2*%
%TF.CreationDate,2025-07-24T17:01:52+02:00*%
%TF.ProjectId,SAO_V2,53414f5f-5632-42e6-9b69-6361645f7063,rev?*%
%TF.SameCoordinates,Original*%
%TF.FileFunction,Copper,L2,Bot*%
%TF.FilePolarity,Positive*%
%FSLAX46Y46*%
G04 Gerber Fmt 4.6, Leading zero omitted, Abs format (unit mm)*
G04 Created by KiCad (PCBNEW 9.0.2) date 2025-07-24 17:01:52*
%MOMM*%
%LPD*%
G01*
G04 APERTURE LIST*
%TA.AperFunction,ComponentPad*%
%ADD10R,1.700000X1.700000*%
%TD*%
%TA.AperFunction,ComponentPad*%
%ADD11C,1.700000*%
%TD*%
%TA.AperFunction,ViaPad*%
%ADD12C,0.600000*%
%TD*%
%TA.AperFunction,Conductor*%
%ADD13C,0.500000*%
%TD*%
%TA.AperFunction,Conductor*%
%ADD14C,0.150000*%
%TD*%
G04 APERTURE END LIST*
D10*
%TO.P,J3,1,VCC*%
%TO.N,+3.3V*%
X103310000Y-144455000D03*
D11*
%TO.P,J3,2,GND*%
%TO.N,GND*%
X103310000Y-141915000D03*
%TO.P,J3,3,SDA*%
%TO.N,I2C2.SDA*%
X105850000Y-144455000D03*
%TO.P,J3,4,SCL*%
%TO.N,I2C2.SCL*%
X105850000Y-141915000D03*
%TO.P,J3,5,GPIO1*%
%TO.N,GPIO3*%
X108390000Y-144455000D03*
%TO.P,J3,6,GPIO2*%
%TO.N,GPIO8*%
X108390000Y-141915000D03*
%TD*%
D10*
%TO.P,J1,1,VCC*%
%TO.N,+3.3V*%
X61570000Y-144455000D03*
D11*
%TO.P,J1,2,GND*%
%TO.N,GND*%
X61570000Y-141915000D03*
%TO.P,J1,3,SDA*%
%TO.N,I2C2.SDA*%
X64110000Y-144455000D03*
%TO.P,J1,4,SCL*%
%TO.N,I2C2.SCL*%
X64110000Y-141915000D03*
%TO.P,J1,5,GPIO1*%
%TO.N,GPIO7*%
X66650000Y-144455000D03*
%TO.P,J1,6,GPIO2*%
%TO.N,GPIO5*%
X66650000Y-141915000D03*
%TD*%
D10*
%TO.P,J5,1,Pin_1*%
%TO.N,+3.3V*%
X110330000Y-151000000D03*
D11*
%TO.P,J5,2,Pin_2*%
%TO.N,unconnected-(J5-Pin_2-Pad2)*%
X107790000Y-151000000D03*
%TO.P,J5,3,Pin_3*%
%TO.N,GND*%
X105250000Y-151000000D03*
%TO.P,J5,4,Pin_4*%
%TO.N,unconnected-(J5-Pin_4-Pad4)*%
X102710000Y-151000000D03*
%TO.P,J5,5,Pin_5*%
%TO.N,unconnected-(J5-Pin_5-Pad5)*%
X100170000Y-151000000D03*
%TO.P,J5,6,Pin_6*%
%TO.N,unconnected-(J5-Pin_6-Pad6)*%
X97630000Y-151000000D03*
%TO.P,J5,7,Pin_7*%
%TO.N,I2C2.SDA*%
X95090000Y-151000000D03*
%TO.P,J5,8,Pin_8*%
%TO.N,I2C2.SCL*%
X92550000Y-151000000D03*
%TO.P,J5,9,Pin_9*%
%TO.N,unconnected-(J5-Pin_9-Pad9)*%
X90010000Y-151000000D03*
%TO.P,J5,10,Pin_10*%
%TO.N,GND*%
X87470000Y-151000000D03*
%TD*%
D10*
%TO.P,J6,1,Pin_1*%
%TO.N,+5V*%
X77310000Y-151000000D03*
D11*
%TO.P,J6,2,Pin_2*%
%TO.N,unconnected-(J6-Pin_2-Pad2)*%
X74770000Y-151000000D03*
%TO.P,J6,3,Pin_3*%
%TO.N,GPIO7*%
X72230000Y-151000000D03*
%TO.P,J6,4,Pin_4*%
%TO.N,GPIO5*%
X69690000Y-151000000D03*
%TO.P,J6,5,Pin_5*%
%TO.N,GPIO3*%
X67150000Y-151000000D03*
%TO.P,J6,6,Pin_6*%
%TO.N,GPIO8*%
X64610000Y-151000000D03*
%TO.P,J6,7,Pin_7*%
%TO.N,GPIO10*%
X62070000Y-151000000D03*
%TO.P,J6,8,Pin_8*%
%TO.N,GND*%
X59530000Y-151000000D03*
%TD*%
D10*
%TO.P,J2,1,VCC*%
%TO.N,+3.3V*%
X82440000Y-144455000D03*
D11*
%TO.P,J2,2,GND*%
%TO.N,GND*%
X82440000Y-141915000D03*
%TO.P,J2,3,SDA*%
%TO.N,I2C2.SDA*%
X84980000Y-144455000D03*
%TO.P,J2,4,SCL*%
%TO.N,I2C2.SCL*%
X84980000Y-141915000D03*
%TO.P,J2,5,GPIO1*%
%TO.N,GPIO7*%
X87520000Y-144455000D03*
%TO.P,J2,6,GPIO2*%
%TO.N,GPIO5*%
X87520000Y-141915000D03*
%TD*%
D12*
%TO.N,+3.3V*%
X84740000Y-148390000D03*
X101240000Y-148390000D03*
X101190000Y-144480000D03*
X80110000Y-148390000D03*
%TO.N,+5V*%
X119500000Y-152950000D03*
X46230000Y-152880000D03*
%TO.N,I2C2.SCL*%
X92550000Y-137995000D03*
X84980000Y-137990000D03*
%TO.N,I2C2.SDA*%
X86170000Y-138570000D03*
X95090000Y-138570000D03*
%TO.N,GPIO10*%
X47050000Y-141730000D03*
%TO.N,Net-(D2-DOUT)*%
X45810000Y-145060000D03*
X120800000Y-141700000D03*
%TD*%
D13*
%TO.N,+3.3V*%
X110330000Y-151000000D02*
X107720000Y-148390000D01*
X80110000Y-148390000D02*
X84740000Y-148390000D01*
X101215000Y-144455000D02*
X101190000Y-144480000D01*
X104290000Y-147080000D02*
X103310000Y-146100000D01*
X106420000Y-147090000D02*
X104290000Y-147090000D01*
X107720000Y-148390000D02*
X101240000Y-148390000D01*
X104290000Y-147090000D02*
X104290000Y-147080000D01*
X103310000Y-144455000D02*
X101215000Y-144455000D01*
X103310000Y-146100000D02*
X103310000Y-144455000D01*
X110330000Y-151000000D02*
X106420000Y-147090000D01*
%TO.N,+5V*%
X46700000Y-153350000D02*
X59460000Y-153350000D01*
X77600000Y-153350000D02*
X119100000Y-153350000D01*
X46230000Y-152880000D02*
X46700000Y-153350000D01*
X77310000Y-151000000D02*
X77310000Y-153050000D01*
X77310000Y-153050000D02*
X77600000Y-153340000D01*
X59460000Y-153350000D02*
X77010000Y-153350000D01*
X77310000Y-153050000D02*
X77010000Y-153350000D01*
X119100000Y-153350000D02*
X119500000Y-152950000D01*
X77600000Y-153340000D02*
X77600000Y-153350000D01*
X77010000Y-153350000D02*
X77600000Y-153350000D01*
D14*
%TO.N,I2C2.SCL*%
X84980000Y-141915000D02*
X84980000Y-137990000D01*
X92550000Y-151000000D02*
X92550000Y-137995000D01*
%TO.N,I2C2.SDA*%
X86170000Y-143265000D02*
X86170000Y-138570000D01*
X84980000Y-144455000D02*
X86170000Y-143265000D01*
X95090000Y-151000000D02*
X95090000Y-138570000D01*
%TO.N,GPIO7*%
X72230000Y-151000000D02*
X66650000Y-145420000D01*
X66650000Y-145420000D02*
X66650000Y-144455000D01*
%TO.N,GPIO5*%
X65524000Y-143041000D02*
X66650000Y-141915000D01*
X69690000Y-151000000D02*
X69690000Y-149550000D01*
X65524000Y-145384000D02*
X65524000Y-143041000D01*
X69690000Y-149550000D02*
X65524000Y-145384000D01*
%TO.N,GPIO10*%
X62070000Y-152360000D02*
X61690000Y-152740000D01*
X62070000Y-151000000D02*
X62070000Y-152360000D01*
X47050000Y-151630000D02*
X47050000Y-141730000D01*
X48160000Y-152740000D02*
X47050000Y-151630000D01*
X61690000Y-152740000D02*
X48160000Y-152740000D01*
%TO.N,Net-(D2-DOUT)*%
X119260000Y-137160000D02*
X50805412Y-137160000D01*
X120800000Y-138700000D02*
X119260000Y-137160000D01*
X50805412Y-137160000D02*
X45810000Y-142155412D01*
X45810000Y-142155412D02*
X45810000Y-145060000D01*
X120800000Y-141700000D02*
X120800000Y-138700000D01*
%TD*%
%TA.AperFunction,Conductor*%
%TO.N,GND*%
G36*
X49936508Y-137002386D02*
G01*
X49982263Y-137055190D01*
X49992207Y-137124348D01*
X49963182Y-137187904D01*
X49957150Y-137194382D01*
X45349487Y-141802044D01*
X45349485Y-141802047D01*
X45273719Y-141933275D01*
X45234500Y-142079646D01*
X45234500Y-144452059D01*
X45214815Y-144519098D01*
X45198181Y-144539740D01*
X45188213Y-144549707D01*
X45188210Y-144549711D01*
X45100609Y-144680814D01*
X45100602Y-144680827D01*
X45040264Y-144826498D01*
X45040261Y-144826510D01*
X45009500Y-144981153D01*
X45009500Y-145138846D01*
X45040261Y-145293489D01*
X45040264Y-145293501D01*
X45100602Y-145439172D01*
X45100609Y-145439185D01*
X45188210Y-145570288D01*
X45188213Y-145570292D01*
X45299707Y-145681786D01*
X45299711Y-145681789D01*
X45430814Y-145769390D01*
X45430827Y-145769397D01*
X45517989Y-145805500D01*
X45576503Y-145829737D01*
X45718761Y-145858034D01*
X45731153Y-145860499D01*
X45731156Y-145860500D01*
X45731158Y-145860500D01*
X45888844Y-145860500D01*
X45888845Y-145860499D01*
X46043497Y-145829737D01*
X46189179Y-145769394D01*
X46281609Y-145707633D01*
X46348286Y-145686756D01*
X46415666Y-145705240D01*
X46462357Y-145757219D01*
X46474500Y-145810736D01*
X46474500Y-151554234D01*
X46474500Y-151705766D01*
X46475050Y-151707820D01*
X46513720Y-151852137D01*
X46513720Y-151852138D01*
X46551763Y-151918030D01*
X46568236Y-151985930D01*
X46545384Y-152051957D01*
X46490462Y-152095148D01*
X46420909Y-152101789D01*
X46420185Y-152101647D01*
X46308845Y-152079500D01*
X46308842Y-152079500D01*
X46151158Y-152079500D01*
X46151155Y-152079500D01*
X45996510Y-152110261D01*
X45996498Y-152110264D01*
X45850827Y-152170602D01*
X45850814Y-152170609D01*
X45719711Y-152258210D01*
X45719707Y-152258213D01*
X45608213Y-152369707D01*
X45608210Y-152369711D01*
X45520609Y-152500814D01*
X45520602Y-152500827D01*
X45460264Y-152646498D01*
X45460261Y-152646510D01*
X45429500Y-152801153D01*
X45429500Y-152958846D01*
X45460261Y-153113489D01*
X45460264Y-153113501D01*
X45520602Y-153259172D01*
X45520609Y-153259185D01*
X45608210Y-153390288D01*
X45608213Y-153390292D01*
X45719710Y-153501789D01*
X45807315Y-153560324D01*
X45850821Y-153589394D01*
X45850826Y-153589396D01*
X45850828Y-153589397D01*
X45874473Y-153599191D01*
X45914705Y-153626072D01*
X46221580Y-153932948D01*
X46221584Y-153932951D01*
X46344498Y-154015080D01*
X46344511Y-154015087D01*
X46481082Y-154071656D01*
X46481087Y-154071658D01*
X46481091Y-154071658D01*
X46481092Y-154071659D01*
X46626079Y-154100500D01*
X46626082Y-154100500D01*
X119173920Y-154100500D01*
X119271462Y-154081096D01*
X119318913Y-154071658D01*
X119455495Y-154015084D01*
X119504729Y-153982186D01*
X119578416Y-153932952D01*
X119815297Y-153696068D01*
X119855525Y-153669190D01*
X119879179Y-153659394D01*
X120010289Y-153571789D01*
X120121789Y-153460289D01*
X120209394Y-153329179D01*
X120269737Y-153183497D01*
X120300500Y-153028842D01*
X120300500Y-152871158D01*
X120300500Y-152871155D01*
X120300499Y-152871153D01*
X120269738Y-152716510D01*
X120269737Y-152716503D01*
X120240745Y-152646510D01*
X120209397Y-152570827D01*
X120209390Y-152570814D01*
X120121789Y-152439711D01*
X120121786Y-152439707D01*
X120010292Y-152328213D01*
X120010288Y-152328210D01*
X119879185Y-152240609D01*
X119879172Y-152240602D01*
X119733501Y-152180264D01*
X119733489Y-152180261D01*
X119578845Y-152149500D01*
X119578842Y-152149500D01*
X119421158Y-152149500D01*
X119421155Y-152149500D01*
X119266510Y-152180261D01*
X119266498Y-152180264D01*
X119120827Y-152240602D01*
X119120814Y-152240609D01*
X118989711Y-152328210D01*
X118989707Y-152328213D01*
X118878210Y-152439710D01*
X118808266Y-152544391D01*
X118754654Y-152589196D01*
X118705164Y-152599500D01*
X78184500Y-152599500D01*
X78175814Y-152596949D01*
X78166853Y-152598238D01*
X78142812Y-152587259D01*
X78117461Y-152579815D01*
X78111533Y-152572974D01*
X78103297Y-152569213D01*
X78089007Y-152546978D01*
X78071706Y-152527011D01*
X78069418Y-152516496D01*
X78065523Y-152510435D01*
X78060500Y-152475500D01*
X78060500Y-152474499D01*
X78080185Y-152407460D01*
X78132989Y-152361705D01*
X78184500Y-152350499D01*
X78207871Y-152350499D01*
X78207872Y-152350499D01*
X78267483Y-152344091D01*
X78402331Y-152293796D01*
X78517546Y-152207546D01*
X78603796Y-152092331D01*
X78654091Y-151957483D01*
X78660500Y-151897873D01*
X78660499Y-150102128D01*
X78654091Y-150042517D01*
X78617617Y-149944726D01*
X78603798Y-149907673D01*
X78603793Y-149907664D01*
X78517547Y-149792455D01*
X78517544Y-149792452D01*
X78402335Y-149706206D01*
X78402328Y-149706202D01*
X78267482Y-149655908D01*
X78267483Y-149655908D01*
X78207883Y-149649501D01*
X78207881Y-149649500D01*
X78207873Y-149649500D01*
X78207864Y-149649500D01*
X76412129Y-149649500D01*
X76412123Y-149649501D01*
X76352516Y-149655908D01*
X76217671Y-149706202D01*
X76217664Y-149706206D01*
X76102455Y-149792452D01*
X76102452Y-149792455D01*
X76016206Y-149907664D01*
X76016203Y-149907669D01*
X75967189Y-150039083D01*
X75925317Y-150095016D01*
X75859853Y-150119433D01*
X75791580Y-150104581D01*
X75763326Y-150083430D01*
X75649786Y-149969890D01*
X75477820Y-149844951D01*
X75288414Y-149748444D01*
X75288413Y-149748443D01*
X75288412Y-149748443D01*
X75086243Y-149682754D01*
X75086241Y-149682753D01*
X75086240Y-149682753D01*
X74924957Y-149657208D01*
X74876287Y-149649500D01*
X74663713Y-149649500D01*
X74615042Y-149657208D01*
X74453760Y-149682753D01*
X74251585Y-149748444D01*
X74062179Y-149844951D01*
X73890213Y-149969890D01*
X73739890Y-150120213D01*
X73614949Y-150292182D01*
X73610484Y-150300946D01*
X73562509Y-150351742D01*
X73494688Y-150368536D01*
X73428553Y-150345998D01*
X73389516Y-150300946D01*
X73385050Y-150292182D01*
X73260109Y-150120213D01*
X73109786Y-149969890D01*
X72937820Y-149844951D01*
X72748414Y-149748444D01*
X72748413Y-149748443D01*
X72748412Y-149748443D01*
X72546243Y-149682754D01*
X72546241Y-149682753D01*
X72546240Y-149682753D01*
X72384957Y-149657208D01*
X72336287Y-149649500D01*
X72123713Y-149649500D01*
X72097757Y-149653611D01*
X71913757Y-149682753D01*
X71844788Y-149705162D01*
X71774947Y-149707156D01*
X71718791Y-149674911D01*
X70355033Y-148311153D01*
X79309500Y-148311153D01*
X79309500Y-148468846D01*
X79340261Y-148623489D01*
X79340264Y-148623501D01*
X79400602Y-148769172D01*
X79400609Y-148769185D01*
X79488210Y-148900288D01*
X79488213Y-148900292D01*
X79599707Y-149011786D01*
X79599711Y-149011789D01*
X79730814Y-149099390D01*
X79730827Y-149099397D01*
X79830060Y-149140500D01*
X79876503Y-149159737D01*
X80031153Y-149190499D01*
X80031156Y-149190500D01*
X80031158Y-149190500D01*
X80188844Y-149190500D01*
X80188845Y-149190499D01*
X80265152Y-149175320D01*
X80343488Y-149159739D01*
X80343489Y-149159738D01*
X80343497Y-149159737D01*
X80367155Y-149149937D01*
X80414604Y-149140500D01*
X84435396Y-149140500D01*
X84482844Y-149149937D01*
X84506503Y-149159737D01*
X84506508Y-149159738D01*
X84506511Y-149159739D01*
X84661153Y-149190499D01*
X84661156Y-149190500D01*
X84661158Y-149190500D01*
X84818844Y-149190500D01*
X84818845Y-149190499D01*
X84973497Y-149159737D01*
X85119179Y-149099394D01*
X85250289Y-149011789D01*
X85361789Y-148900289D01*
X85449394Y-148769179D01*
X85509737Y-148623497D01*
X85540500Y-148468842D01*
X85540500Y-148311158D01*
X85540500Y-148311155D01*
X85540499Y-148311153D01*
X85509738Y-148156510D01*
X85509737Y-148156503D01*
X85509735Y-148156498D01*
X85449397Y-148010827D01*
X85449390Y-148010814D01*
X85361789Y-147879711D01*
X85361786Y-147879707D01*
X85250292Y-147768213D01*
X85250288Y-147768210D01*
X85119185Y-147680609D01*
X85119172Y-147680602D01*
X84973501Y-147620264D01*
X84973489Y-147620261D01*
X84818845Y-147589500D01*
X84818842Y-147589500D01*
X84661158Y-147589500D01*
X84661155Y-147589500D01*
X84506511Y-147620260D01*
X84506506Y-147620262D01*
X84506504Y-147620262D01*
X84506503Y-147620263D01*
X84482844Y-147630062D01*
X84435396Y-147639500D01*
X80414604Y-147639500D01*
X80367155Y-147630062D01*
X80343497Y-147620263D01*
X80343493Y-147620262D01*
X80343488Y-147620260D01*
X80188845Y-147589500D01*
X80188842Y-147589500D01*
X80031158Y-147589500D01*
X80031155Y-147589500D01*
X79876510Y-147620261D01*
X79876498Y-147620264D01*
X79730827Y-147680602D01*
X79730814Y-147680609D01*
X79599711Y-147768210D01*
X79599707Y-147768213D01*
X79488213Y-147879707D01*
X79488210Y-147879711D01*
X79400609Y-148010814D01*
X79400602Y-148010827D01*
X79340264Y-148156498D01*
X79340261Y-148156510D01*
X79309500Y-148311153D01*
X70355033Y-148311153D01*
X67617069Y-145573189D01*
X67583584Y-145511866D01*
X67588568Y-145442174D01*
X67617069Y-145397827D01*
X67643327Y-145371569D01*
X67680104Y-145334792D01*
X67680106Y-145334788D01*
X67680109Y-145334786D01*
X67805048Y-145162820D01*
X67805047Y-145162820D01*
X67805051Y-145162816D01*
X67901557Y-144973412D01*
X67967246Y-144771243D01*
X68000500Y-144561287D01*
X68000500Y-144348713D01*
X67967246Y-144138757D01*
X67901557Y-143936588D01*
X67805051Y-143747184D01*
X67805049Y-143747181D01*
X67805048Y-143747179D01*
X67680109Y-143575213D01*
X67529786Y-143424890D01*
X67357820Y-143299951D01*
X67357115Y-143299591D01*
X67349054Y-143295485D01*
X67298259Y-143247512D01*
X67281463Y-143179692D01*
X67303999Y-143113556D01*
X67349054Y-143074515D01*
X67357816Y-143070051D01*
X67424501Y-143021602D01*
X67529786Y-142945109D01*
X67529788Y-142945106D01*
X67529792Y-142945104D01*
X67680104Y-142794792D01*
X67680106Y-142794788D01*
X67680109Y-142794786D01*
X67805048Y-142622820D01*
X67805050Y-142622817D01*
X67805051Y-142622816D01*
X67901557Y-142433412D01*
X67967246Y-142231243D01*
X68000500Y-142021287D01*
X68000500Y-141808713D01*
X67967246Y-141598757D01*
X67901557Y-141396588D01*
X67805051Y-141207184D01*
X67805049Y-141207181D01*
X67805048Y-141207179D01*
X67680109Y-141035213D01*
X67529786Y-140884890D01*
X67357820Y-140759951D01*
X67168414Y-140663444D01*
X67168413Y-140663443D01*
X67168412Y-140663443D01*
X66966243Y-140597754D01*
X66966241Y-140597753D01*
X66966240Y-140597753D01*
X66804957Y-140572208D01*
X66756287Y-140564500D01*
X66543713Y-140564500D01*
X66495042Y-140572208D01*
X66333760Y-140597753D01*
X66131585Y-140663444D01*
X65942179Y-140759951D01*
X65770213Y-140884890D01*
X65619890Y-141035213D01*
X65494949Y-141207182D01*
X65490484Y-141215946D01*
X65442509Y-141266742D01*
X65374688Y-141283536D01*
X65308553Y-141260998D01*
X65269516Y-141215946D01*
X65265050Y-141207182D01*
X65140109Y-141035213D01*
X64989786Y-140884890D01*
X64817820Y-140759951D01*
X64628414Y-140663444D01*
X64628413Y-140663443D01*
X64628412Y-140663443D01*
X64426243Y-140597754D01*
X64426241Y-140597753D01*
X64426240Y-140597753D01*
X64264957Y-140572208D01*
X64216287Y-140564500D01*
X64003713Y-140564500D01*
X63955042Y-140572208D01*
X63793760Y-140597753D01*
X63591585Y-140663444D01*
X63402179Y-140759951D01*
X63230213Y-140884890D01*
X63079890Y-141035213D01*
X62954949Y-141207182D01*
X62950202Y-141216499D01*
X62902227Y-141267293D01*
X62834405Y-141284087D01*
X62768271Y-141261548D01*
X62729234Y-141216495D01*
X62724626Y-141207452D01*
X62685270Y-141153282D01*
X62685269Y-141153282D01*
X62052962Y-141785590D01*
X62035925Y-141722007D01*
X61970099Y-141607993D01*
X61877007Y-141514901D01*
X61762993Y-141449075D01*
X61699409Y-141432037D01*
X62331716Y-140799728D01*
X62277550Y-140760375D01*
X62088217Y-140663904D01*
X61886129Y-140598242D01*
X61676246Y-140565000D01*
X61463754Y-140565000D01*
X61253872Y-140598242D01*
X61253869Y-140598242D01*
X61051782Y-140663904D01*
X60862439Y-140760380D01*
X60808282Y-140799727D01*
X60808282Y-140799728D01*
X61440591Y-141432037D01*
X61377007Y-141449075D01*
X61262993Y-141514901D01*
X61169901Y-141607993D01*
X61104075Y-141722007D01*
X61087037Y-141785591D01*
X60454728Y-141153282D01*
X60454727Y-141153282D01*
X60415380Y-141207439D01*
X60318904Y-141396782D01*
X60253242Y-141598869D01*
X60253242Y-141598872D01*
X60220000Y-141808753D01*
X60220000Y-142021246D01*
X60253242Y-142231127D01*
X60253242Y-142231130D01*
X60318904Y-142433217D01*
X60415375Y-142622550D01*
X60454728Y-142676716D01*
X61087037Y-142044408D01*
X61104075Y-142107993D01*
X61169901Y-142222007D01*
X61262993Y-142315099D01*
X61377007Y-142380925D01*
X61440590Y-142397962D01*
X60770370Y-143068181D01*
X60709047Y-143101666D01*
X60682698Y-143104500D01*
X60672134Y-143104500D01*
X60672123Y-143104501D01*
X60612516Y-143110908D01*
X60477671Y-143161202D01*
X60477664Y-143161206D01*
X60362455Y-143247452D01*
X60362452Y-143247455D01*
X60276206Y-143362664D01*
X60276202Y-143362671D01*
X60225908Y-143497517D01*
X60219501Y-143557116D01*
X60219500Y-143557135D01*
X60219500Y-145352870D01*
X60219501Y-145352876D01*
X60225908Y-145412483D01*
X60276202Y-145547328D01*
X60276206Y-145547335D01*
X60362452Y-145662544D01*
X60362455Y-145662547D01*
X60477664Y-145748793D01*
X60477671Y-145748797D01*
X60612517Y-145799091D01*
X60612516Y-145799091D01*
X60619444Y-145799835D01*
X60672127Y-145805500D01*
X62467872Y-145805499D01*
X62527483Y-145799091D01*
X62662331Y-145748796D01*
X62777546Y-145662546D01*
X62863796Y-145547331D01*
X62912810Y-145415916D01*
X62954681Y-145359984D01*
X63020145Y-145335566D01*
X63088418Y-145350417D01*
X63116673Y-145371569D01*
X63230213Y-145485109D01*
X63402179Y-145610048D01*
X63402181Y-145610049D01*
X63402184Y-145610051D01*
X63591588Y-145706557D01*
X63793757Y-145772246D01*
X64003713Y-145805500D01*
X64003714Y-145805500D01*
X64216286Y-145805500D01*
X64216287Y-145805500D01*
X64426243Y-145772246D01*
X64628412Y-145706557D01*
X64817816Y-145610051D01*
X64827686Y-145602880D01*
X64893492Y-145579398D01*
X64961546Y-145595222D01*
X65007960Y-145641194D01*
X65063485Y-145737365D01*
X65063487Y-145737367D01*
X68988922Y-149662802D01*
X69022407Y-149724125D01*
X69017423Y-149793817D01*
X68975551Y-149849750D01*
X68974127Y-149850801D01*
X68810209Y-149969894D01*
X68659890Y-150120213D01*
X68534949Y-150292182D01*
X68530484Y-150300946D01*
X68482509Y-150351742D01*
X68414688Y-150368536D01*
X68348553Y-150345998D01*
X68309516Y-150300946D01*
X68305050Y-150292182D01*
X68180109Y-150120213D01*
X68029786Y-149969890D01*
X67857820Y-149844951D01*
X67668414Y-149748444D01*
X67668413Y-149748443D01*
X67668412Y-149748443D01*
X67466243Y-149682754D01*
X67466241Y-149682753D01*
X67466240Y-149682753D01*
X67304957Y-149657208D01*
X67256287Y-149649500D01*
X67043713Y-149649500D01*
X66995042Y-149657208D01*
X66833760Y-149682753D01*
X66631585Y-149748444D01*
X66442179Y-149844951D01*
X66270213Y-149969890D01*
X66119890Y-150120213D01*
X65994949Y-150292182D01*
X65990484Y-150300946D01*
X65942509Y-150351742D01*
X65874688Y-150368536D01*
X65808553Y-150345998D01*
X65769516Y-150300946D01*
X65765050Y-150292182D01*
X65640109Y-150120213D01*
X65489786Y-149969890D01*
X65317820Y-149844951D01*
X65128414Y-149748444D01*
X65128413Y-149748443D01*
X65128412Y-149748443D01*
X64926243Y-149682754D01*
X64926241Y-149682753D01*
X64926240Y-149682753D01*
X64764957Y-149657208D01*
X64716287Y-149649500D01*
X64503713Y-149649500D01*
X64455042Y-149657208D01*
X64293760Y-149682753D01*
X64091585Y-149748444D01*
X63902179Y-149844951D01*
X63730213Y-149969890D01*
X63579890Y-150120213D01*
X63454949Y-150292182D01*
X63450484Y-150300946D01*
X63402509Y-150351742D01*
X63334688Y-150368536D01*
X63268553Y-150345998D01*
X63229516Y-150300946D01*
X63225050Y-150292182D01*
X63100109Y-150120213D01*
X62949786Y-149969890D01*
X62777820Y-149844951D01*
X62588414Y-149748444D01*
X62588413Y-149748443D01*
X62588412Y-149748443D01*
X62386243Y-149682754D01*
X62386241Y-149682753D01*
X62386240Y-149682753D01*
X62224957Y-149657208D01*
X62176287Y-149649500D01*
X61963713Y-149649500D01*
X61915042Y-149657208D01*
X61753760Y-149682753D01*
X61551585Y-149748444D01*
X61362179Y-149844951D01*
X61190213Y-149969890D01*
X61039890Y-150120213D01*
X60914949Y-150292182D01*
X60910202Y-150301499D01*
X60862227Y-150352293D01*
X60794405Y-150369087D01*
X60728271Y-150346548D01*
X60689234Y-150301495D01*
X60684626Y-150292452D01*
X60645270Y-150238282D01*
X60645269Y-150238282D01*
X60012962Y-150870590D01*
X59995925Y-150807007D01*
X59930099Y-150692993D01*
X59837007Y-150599901D01*
X59722993Y-150534075D01*
X59659409Y-150517037D01*
X60291716Y-149884728D01*
X60237550Y-149845375D01*
X60048217Y-149748904D01*
X59846129Y-149683242D01*
X59636246Y-149650000D01*
X59423754Y-149650000D01*
X59213872Y-149683242D01*
X59213869Y-149683242D01*
X59011782Y-149748904D01*
X58822439Y-149845380D01*
X58768282Y-149884727D01*
X58768282Y-149884728D01*
X59400591Y-150517037D01*
X59337007Y-150534075D01*
X59222993Y-150599901D01*
X59129901Y-150692993D01*
X59064075Y-150807007D01*
X59047037Y-150870591D01*
X58414728Y-150238282D01*
X58414727Y-150238282D01*
X58375380Y-150292439D01*
X58278904Y-150481782D01*
X58213242Y-150683869D01*
X58213242Y-150683872D01*
X58180000Y-150893753D01*
X58180000Y-151106246D01*
X58213242Y-151316127D01*
X58213242Y-151316130D01*
X58278904Y-151518217D01*
X58375375Y-151707550D01*
X58414728Y-151761716D01*
X59047037Y-151129408D01*
X59064075Y-151192993D01*
X59129901Y-151307007D01*
X59222993Y-151400099D01*
X59337007Y-151465925D01*
X59400591Y-151482962D01*
X58755371Y-152128181D01*
X58694048Y-152161666D01*
X58667690Y-152164500D01*
X48449742Y-152164500D01*
X48382703Y-152144815D01*
X48362061Y-152128181D01*
X47661819Y-151427939D01*
X47628334Y-151366616D01*
X47625500Y-151340258D01*
X47625500Y-142337940D01*
X47645185Y-142270901D01*
X47661822Y-142250256D01*
X47671787Y-142240291D01*
X47671789Y-142240289D01*
X47759394Y-142109179D01*
X47819737Y-141963497D01*
X47850500Y-141808842D01*
X47850500Y-141651158D01*
X47850500Y-141651155D01*
X47850499Y-141651153D01*
X47841914Y-141607993D01*
X47819737Y-141496503D01*
X47778432Y-141396782D01*
X47759397Y-141350827D01*
X47759390Y-141350814D01*
X47683382Y-141237060D01*
X47662504Y-141170382D01*
X47680989Y-141103002D01*
X47698799Y-141080492D01*
X51007473Y-137771819D01*
X51068796Y-137738334D01*
X51095154Y-137735500D01*
X84063346Y-137735500D01*
X84130385Y-137755185D01*
X84176140Y-137807989D01*
X84186084Y-137877147D01*
X84184963Y-137883692D01*
X84179500Y-137911155D01*
X84179500Y-138068846D01*
X84210261Y-138223489D01*
X84210264Y-138223501D01*
X84270602Y-138369172D01*
X84270609Y-138369185D01*
X84358210Y-138500288D01*
X84358212Y-138500291D01*
X84368178Y-138510256D01*
X84401665Y-138571578D01*
X84404500Y-138597940D01*
X84404500Y-140616542D01*
X84384815Y-140683581D01*
X84336796Y-140727026D01*
X84272182Y-140759949D01*
X84100213Y-140884890D01*
X83949890Y-141035213D01*
X83824949Y-141207182D01*
X83820202Y-141216499D01*
X83772227Y-141267293D01*
X83704405Y-141284087D01*
X83638271Y-141261548D01*
X83599234Y-141216495D01*
X83594626Y-141207452D01*
X83555270Y-141153282D01*
X83555269Y-141153282D01*
X82922962Y-141785590D01*
X82905925Y-141722007D01*
X82840099Y-141607993D01*
X82747007Y-141514901D01*
X82632993Y-141449075D01*
X82569409Y-141432037D01*
X83201716Y-140799728D01*
X83147550Y-140760375D01*
X82958217Y-140663904D01*
X82756129Y-140598242D01*
X82546246Y-140565000D01*
X82333754Y-140565000D01*
X82123872Y-140598242D01*
X82123869Y-140598242D01*
X81921782Y-140663904D01*
X81732439Y-140760380D01*
X81678282Y-140799727D01*
X81678282Y-140799728D01*
X82310591Y-141432037D01*
X82247007Y-141449075D01*
X82132993Y-141514901D01*
X82039901Y-141607993D01*
X81974075Y-141722007D01*
X81957037Y-141785591D01*
X81324728Y-141153282D01*
X81324727Y-141153282D01*
X81285380Y-141207439D01*
X81188904Y-141396782D01*
X81123242Y-141598869D01*
X81123242Y-141598872D01*
X81090000Y-141808753D01*
X81090000Y-142021246D01*
X81123242Y-142231127D01*
X81123242Y-142231130D01*
X81188904Y-142433217D01*
X81285375Y-142622550D01*
X81324728Y-142676716D01*
X81957037Y-142044408D01*
X81974075Y-142107993D01*
X82039901Y-142222007D01*
X82132993Y-142315099D01*
X82247007Y-142380925D01*
X82310590Y-142397962D01*
X81640370Y-143068181D01*
X81579047Y-143101666D01*
X81552698Y-143104500D01*
X81542134Y-143104500D01*
X81542123Y-143104501D01*
X81482516Y-143110908D01*
X81347671Y-143161202D01*
X81347664Y-143161206D01*
X81232455Y-143247452D01*
X81232452Y-143247455D01*
X81146206Y-143362664D01*
X81146202Y-143362671D01*
X81095908Y-143497517D01*
X81089501Y-143557116D01*
X81089500Y-143557135D01*
X81089500Y-145352870D01*
X81089501Y-145352876D01*
X81095908Y-145412483D01*
X81146202Y-145547328D01*
X81146206Y-145547335D01*
X81232452Y-145662544D01*
X81232455Y-145662547D01*
X81347664Y-145748793D01*
X81347671Y-145748797D01*
X81482517Y-145799091D01*
X81482516Y-145799091D01*
X81489444Y-145799835D01*
X81542127Y-145805500D01*
X83337872Y-145805499D01*
X83397483Y-145799091D01*
X83532331Y-145748796D01*
X83647546Y-145662546D01*
X83733796Y-145547331D01*
X83782810Y-145415916D01*
X83824681Y-145359984D01*
X83890145Y-145335566D01*
X83958418Y-145350417D01*
X83986673Y-145371569D01*
X84100213Y-145485109D01*
X84272179Y-145610048D01*
X84272181Y-145610049D01*
X84272184Y-145610051D01*
X84461588Y-145706557D01*
X84663757Y-145772246D01*
X84873713Y-145805500D01*
X84873714Y-145805500D01*
X85086286Y-145805500D01*
X85086287Y-145805500D01*
X85296243Y-145772246D01*
X85498412Y-145706557D01*
X85687816Y-145610051D01*
X85742544Y-145570289D01*
X85859786Y-145485109D01*
X85859788Y-145485106D01*
X85859792Y-145485104D01*
X86010104Y-145334792D01*
X86010106Y-145334788D01*
X86010109Y-145334786D01*
X86135048Y-145162820D01*
X86135047Y-145162820D01*
X86135051Y-145162816D01*
X86139514Y-145154054D01*
X86187488Y-145103259D01*
X86255308Y-145086463D01*
X86321444Y-145108999D01*
X86360486Y-145154056D01*
X86364951Y-145162820D01*
X86489890Y-145334786D01*
X86640213Y-145485109D01*
X86812179Y-145610048D01*
X86812181Y-145610049D01*
X86812184Y-145610051D01*
X87001588Y-145706557D01*
X87203757Y-145772246D01*
X87413713Y-145805500D01*
X87413714Y-145805500D01*
X87626286Y-145805500D01*
X87626287Y-145805500D01*
X87836243Y-145772246D01*
X88038412Y-145706557D01*
X88227816Y-145610051D01*
X88282544Y-145570289D01*
X88399786Y-145485109D01*
X88399788Y-145485106D01*
X88399792Y-145485104D01*
X88550104Y-145334792D01*
X88550106Y-145334788D01*
X88550109Y-145334786D01*
X88675048Y-145162820D01*
X88675047Y-145162820D01*
X88675051Y-145162816D01*
X88771557Y-144973412D01*
X88837246Y-144771243D01*
X88870500Y-144561287D01*
X88870500Y-144348713D01*
X88837246Y-144138757D01*
X88771557Y-143936588D01*
X88675051Y-143747184D01*
X88675049Y-143747181D01*
X88675048Y-143747179D01*
X88550109Y-143575213D01*
X88399786Y-143424890D01*
X88227820Y-143299951D01*
X88227115Y-143299591D01*
X88219054Y-143295485D01*
X88168259Y-143247512D01*
X88151463Y-143179692D01*
X88173999Y-143113556D01*
X88219054Y-143074515D01*
X88227816Y-143070051D01*
X88294501Y-143021602D01*
X88399786Y-142945109D01*
X88399788Y-142945106D01*
X88399792Y-142945104D01*
X88550104Y-142794792D01*
X88550106Y-142794788D01*
X88550109Y-142794786D01*
X88675048Y-142622820D01*
X88675050Y-142622817D01*
X88675051Y-142622816D01*
X88771557Y-142433412D01*
X88837246Y-142231243D01*
X88870500Y-142021287D01*
X88870500Y-141808713D01*
X88837246Y-141598757D01*
X88771557Y-141396588D01*
X88675051Y-141207184D01*
X88675049Y-141207181D01*
X88675048Y-141207179D01*
X88550109Y-141035213D01*
X88399786Y-140884890D01*
X88227820Y-140759951D01*
X88038414Y-140663444D01*
X88038413Y-140663443D01*
X88038412Y-140663443D01*
X87836243Y-140597754D01*
X87836241Y-140597753D01*
X87836240Y-140597753D01*
X87674957Y-140572208D01*
X87626287Y-140564500D01*
X87413713Y-140564500D01*
X87365042Y-140572208D01*
X87203760Y-140597753D01*
X87001582Y-140663445D01*
X86925794Y-140702061D01*
X86857125Y-140714957D01*
X86792385Y-140688680D01*
X86752128Y-140631574D01*
X86745500Y-140591576D01*
X86745500Y-139177940D01*
X86765185Y-139110901D01*
X86781822Y-139090256D01*
X86791787Y-139080291D01*
X86791789Y-139080289D01*
X86879394Y-138949179D01*
X86939737Y-138803497D01*
X86970500Y-138648842D01*
X86970500Y-138491158D01*
X86970500Y-138491155D01*
X86970499Y-138491153D01*
X86966441Y-138470751D01*
X86939737Y-138336503D01*
X86939735Y-138336498D01*
X86879397Y-138190827D01*
X86879390Y-138190814D01*
X86791789Y-138059711D01*
X86791786Y-138059707D01*
X86679260Y-137947181D01*
X86645775Y-137885858D01*
X86650759Y-137816166D01*
X86692631Y-137760233D01*
X86758095Y-137735816D01*
X86766941Y-137735500D01*
X91634340Y-137735500D01*
X91701379Y-137755185D01*
X91747134Y-137807989D01*
X91757078Y-137877147D01*
X91755958Y-137883690D01*
X91749500Y-137916158D01*
X91749500Y-138073846D01*
X91780261Y-138228489D01*
X91780264Y-138228501D01*
X91840602Y-138374172D01*
X91840609Y-138374185D01*
X91928210Y-138505288D01*
X91928212Y-138505291D01*
X91938178Y-138515256D01*
X91971665Y-138576578D01*
X91974500Y-138602940D01*
X91974500Y-149701542D01*
X91954815Y-149768581D01*
X91906796Y-149812026D01*
X91842182Y-149844949D01*
X91670213Y-149969890D01*
X91519890Y-150120213D01*
X91394949Y-150292182D01*
X91390484Y-150300946D01*
X91342509Y-150351742D01*
X91274688Y-150368536D01*
X91208553Y-150345998D01*
X91169516Y-150300946D01*
X91165050Y-150292182D01*
X91040109Y-150120213D01*
X90889786Y-149969890D01*
X90717820Y-149844951D01*
X90528414Y-149748444D01*
X90528413Y-149748443D01*
X90528412Y-149748443D01*
X90326243Y-149682754D01*
X90326241Y-149682753D01*
X90326240Y-149682753D01*
X90164957Y-149657208D01*
X90116287Y-149649500D01*
X89903713Y-149649500D01*
X89855042Y-149657208D01*
X89693760Y-149682753D01*
X89491585Y-149748444D01*
X89302179Y-149844951D01*
X89130213Y-149969890D01*
X88979890Y-150120213D01*
X88854949Y-150292182D01*
X88850202Y-150301499D01*
X88802227Y-150352293D01*
X88734405Y-150369087D01*
X88668271Y-150346548D01*
X88629234Y-150301495D01*
X88624626Y-150292452D01*
X88585270Y-150238282D01*
X88585269Y-150238282D01*
X87952962Y-150870590D01*
X87935925Y-150807007D01*
X87870099Y-150692993D01*
X87777007Y-150599901D01*
X87662993Y-150534075D01*
X87599409Y-150517037D01*
X88231716Y-149884728D01*
X88177550Y-149845375D01*
X87988217Y-149748904D01*
X87786129Y-149683242D01*
X87576246Y-149650000D01*
X87363754Y-149650000D01*
X87153872Y-149683242D01*
X87153869Y-149683242D01*
X86951782Y-149748904D01*
X86762439Y-149845380D01*
X86708282Y-149884727D01*
X86708282Y-149884728D01*
X87340591Y-150517037D01*
X87277007Y-150534075D01*
X87162993Y-150599901D01*
X87069901Y-150692993D01*
X87004075Y-150807007D01*
X86987037Y-150870591D01*
X86354728Y-150238282D01*
X86354727Y-150238282D01*
X86315380Y-150292439D01*
X86218904Y-150481782D01*
X86153242Y-150683869D01*
X86153242Y-150683872D01*
X86120000Y-150893753D01*
X86120000Y-151106246D01*
X86153242Y-151316127D01*
X86153242Y-151316130D01*
X86218904Y-151518217D01*
X86315375Y-151707550D01*
X86354728Y-151761716D01*
X86987037Y-151129408D01*
X87004075Y-151192993D01*
X87069901Y-151307007D01*
X87162993Y-151400099D01*
X87277007Y-151465925D01*
X87340590Y-151482962D01*
X86708282Y-152115269D01*
X86708282Y-152115270D01*
X86762449Y-152154624D01*
X86951782Y-152251095D01*
X87153870Y-152316757D01*
X87363754Y-152350000D01*
X87576246Y-152350000D01*
X87786127Y-152316757D01*
X87786130Y-152316757D01*
X87988217Y-152251095D01*
X88177554Y-152154622D01*
X88231716Y-152115270D01*
X88231717Y-152115270D01*
X87599408Y-151482962D01*
X87662993Y-151465925D01*
X87777007Y-151400099D01*
X87870099Y-151307007D01*
X87935925Y-151192993D01*
X87952962Y-151129409D01*
X88585270Y-151761717D01*
X88585270Y-151761716D01*
X88624622Y-151707555D01*
X88629232Y-151698507D01*
X88677205Y-151647709D01*
X88745025Y-151630912D01*
X88811161Y-151653447D01*
X88850204Y-151698504D01*
X88854949Y-151707817D01*
X88979890Y-151879786D01*
X89130213Y-152030109D01*
X89302179Y-152155048D01*
X89302181Y-152155049D01*
X89302184Y-152155051D01*
X89491588Y-152251557D01*
X89693757Y-152317246D01*
X89903713Y-152350500D01*
X89903714Y-152350500D01*
X90116286Y-152350500D01*
X90116287Y-152350500D01*
X90326243Y-152317246D01*
X90528412Y-152251557D01*
X90717816Y-152155051D01*
X90772572Y-152115269D01*
X90889786Y-152030109D01*
X90889788Y-152030106D01*
X90889792Y-152030104D01*
X91040104Y-151879792D01*
X91040106Y-151879788D01*
X91040109Y-151879786D01*
X91165048Y-151707820D01*
X91165047Y-151707820D01*
X91165051Y-151707816D01*
X91169514Y-151699054D01*
X91217488Y-151648259D01*
X91285308Y-151631463D01*
X91351444Y-151653999D01*
X91390484Y-151699054D01*
X91394591Y-151707115D01*
X91394951Y-151707820D01*
X91519890Y-151879786D01*
X91670213Y-152030109D01*
X91842179Y-152155048D01*
X91842181Y-152155049D01*
X91842184Y-152155051D01*
X92031588Y-152251557D01*
X92233757Y-152317246D01*
X92443713Y-152350500D01*
X92443714Y-152350500D01*
X92656286Y-152350500D01*
X92656287Y-152350500D01*
X92866243Y-152317246D01*
X93068412Y-152251557D01*
X93257816Y-152155051D01*
X93312572Y-152115269D01*
X93429786Y-152030109D01*
X93429788Y-152030106D01*
X93429792Y-152030104D01*
X93580104Y-151879792D01*
X93580106Y-151879788D01*
X93580109Y-151879786D01*
X93705048Y-151707820D01*
X93705047Y-151707820D01*
X93705051Y-151707816D01*
X93709514Y-151699054D01*
X93757488Y-151648259D01*
X93825308Y-151631463D01*
X93891444Y-151653999D01*
X93930484Y-151699054D01*
X93934591Y-151707115D01*
X93934951Y-151707820D01*
X94059890Y-151879786D01*
X94210213Y-152030109D01*
X94382179Y-152155048D01*
X94382181Y-152155049D01*
X94382184Y-152155051D01*
X94571588Y-152251557D01*
X94773757Y-152317246D01*
X94983713Y-152350500D01*
X94983714Y-152350500D01*
X95196286Y-152350500D01*
X95196287Y-152350500D01*
X95406243Y-152317246D01*
X95608412Y-152251557D01*
X95797816Y-152155051D01*
X95852572Y-152115269D01*
X95969786Y-152030109D01*
X95969788Y-152030106D01*
X95969792Y-152030104D01*
X96120104Y-151879792D01*
X96120106Y-151879788D01*
X96120109Y-151879786D01*
X96245048Y-151707820D01*
X96245047Y-151707820D01*
X96245051Y-151707816D01*
X96249514Y-151699054D01*
X96297488Y-151648259D01*
X96365308Y-151631463D01*
X96431444Y-151653999D01*
X96470484Y-151699054D01*
X96474591Y-151707115D01*
X96474951Y-151707820D01*
X96599890Y-151879786D01*
X96750213Y-152030109D01*
X96922179Y-152155048D01*
X96922181Y-152155049D01*
X96922184Y-152155051D01*
X97111588Y-152251557D01*
X97313757Y-152317246D01*
X97523713Y-152350500D01*
X97523714Y-152350500D01*
X97736286Y-152350500D01*
X97736287Y-152350500D01*
X97946243Y-152317246D01*
X98148412Y-152251557D01*
X98337816Y-152155051D01*
X98392572Y-152115269D01*
X98509786Y-152030109D01*
X98509788Y-152030106D01*
X98509792Y-152030104D01*
X98660104Y-151879792D01*
X98660106Y-151879788D01*
X98660109Y-151879786D01*
X98785048Y-151707820D01*
X98785047Y-151707820D01*
X98785051Y-151707816D01*
X98789514Y-151699054D01*
X98837488Y-151648259D01*
X98905308Y-151631463D01*
X98971444Y-151653999D01*
X99010484Y-151699054D01*
X99014591Y-151707115D01*
X99014951Y-151707820D01*
X99139890Y-151879786D01*
X99290213Y-152030109D01*
X99462179Y-152155048D01*
X99462181Y-152155049D01*
X99462184Y-152155051D01*
X99651588Y-152251557D01*
X99853757Y-152317246D01*
X100063713Y-152350500D01*
X100063714Y-152350500D01*
X100276286Y-152350500D01*
X100276287Y-152350500D01*
X100486243Y-152317246D01*
X100688412Y-152251557D01*
X100877816Y-152155051D01*
X100932572Y-152115269D01*
X101049786Y-152030109D01*
X101049788Y-152030106D01*
X101049792Y-152030104D01*
X101200104Y-151879792D01*
X101200106Y-151879788D01*
X101200109Y-151879786D01*
X101325048Y-151707820D01*
X101325047Y-151707820D01*
X101325051Y-151707816D01*
X101329514Y-151699054D01*
X101377488Y-151648259D01*
X101445308Y-151631463D01*
X101511444Y-151653999D01*
X101550484Y-151699054D01*
X101554591Y-151707115D01*
X101554951Y-151707820D01*
X101679890Y-151879786D01*
X101830213Y-152030109D01*
X102002179Y-152155048D01*
X102002181Y-152155049D01*
X102002184Y-152155051D01*
X102191588Y-152251557D01*
X102393757Y-152317246D01*
X102603713Y-152350500D01*
X102603714Y-152350500D01*
X102816286Y-152350500D01*
X102816287Y-152350500D01*
X103026243Y-152317246D01*
X103228412Y-152251557D01*
X103417816Y-152155051D01*
X103472572Y-152115269D01*
X103589786Y-152030109D01*
X103589788Y-152030106D01*
X103589792Y-152030104D01*
X103740104Y-151879792D01*
X103740106Y-151879788D01*
X103740109Y-151879786D01*
X103825890Y-151761717D01*
X103865051Y-151707816D01*
X103869793Y-151698508D01*
X103917763Y-151647711D01*
X103985583Y-151630911D01*
X104051719Y-151653445D01*
X104090763Y-151698500D01*
X104095373Y-151707547D01*
X104134728Y-151761716D01*
X104767037Y-151129408D01*
X104784075Y-151192993D01*
X104849901Y-151307007D01*
X104942993Y-151400099D01*
X105057007Y-151465925D01*
X105120590Y-151482962D01*
X104488282Y-152115269D01*
X104488282Y-152115270D01*
X104542449Y-152154624D01*
X104731782Y-152251095D01*
X104933870Y-152316757D01*
X105143754Y-152350000D01*
X105356246Y-152350000D01*
X105566127Y-152316757D01*
X105566130Y-152316757D01*
X105768217Y-152251095D01*
X105957554Y-152154622D01*
X106011716Y-152115270D01*
X106011717Y-152115270D01*
X105379408Y-151482962D01*
X105442993Y-151465925D01*
X105557007Y-151400099D01*
X105650099Y-151307007D01*
X105715925Y-151192993D01*
X105732962Y-151129408D01*
X106365270Y-151761717D01*
X106365270Y-151761716D01*
X106404622Y-151707555D01*
X106409232Y-151698507D01*
X106457205Y-151647709D01*
X106525025Y-151630912D01*
X106591161Y-151653447D01*
X106630204Y-151698504D01*
X106634949Y-151707817D01*
X106759890Y-151879786D01*
X106910213Y-152030109D01*
X107082179Y-152155048D01*
X107082181Y-152155049D01*
X107082184Y-152155051D01*
X107271588Y-152251557D01*
X107473757Y-152317246D01*
X107683713Y-152350500D01*
X107683714Y-152350500D01*
X107896286Y-152350500D01*
X107896287Y-152350500D01*
X108106243Y-152317246D01*
X108308412Y-152251557D01*
X108497816Y-152155051D01*
X108584147Y-152092328D01*
X108669784Y-152030110D01*
X108669784Y-152030109D01*
X108669792Y-152030104D01*
X108783329Y-151916566D01*
X108844648Y-151883084D01*
X108914340Y-151888068D01*
X108970274Y-151929939D01*
X108987189Y-151960917D01*
X109036202Y-152092328D01*
X109036206Y-152092335D01*
X109122452Y-152207544D01*
X109122455Y-152207547D01*
X109237664Y-152293793D01*
X109237671Y-152293797D01*
X109372517Y-152344091D01*
X109372516Y-152344091D01*
X109379444Y-152344835D01*
X109432127Y-152350500D01*
X111227872Y-152350499D01*
X111287483Y-152344091D01*
X111422331Y-152293796D01*
X111537546Y-152207546D01*
X111623796Y-152092331D01*
X111674091Y-151957483D01*
X111680500Y-151897873D01*
X111680499Y-150102128D01*
X111674091Y-150042517D01*
X111672810Y-150039083D01*
X111623797Y-149907671D01*
X111623793Y-149907664D01*
X111537547Y-149792455D01*
X111537544Y-149792452D01*
X111422335Y-149706206D01*
X111422328Y-149706202D01*
X111287482Y-149655908D01*
X111287483Y-149655908D01*
X111227883Y-149649501D01*
X111227881Y-149649500D01*
X111227873Y-149649500D01*
X111227865Y-149649500D01*
X110092230Y-149649500D01*
X110025191Y-149629815D01*
X110004549Y-149613181D01*
X106898413Y-146507045D01*
X106852121Y-146476115D01*
X106821258Y-146455494D01*
X106821257Y-146455493D01*
X106775503Y-146424920D01*
X106775488Y-146424912D01*
X106638917Y-146368343D01*
X106638907Y-146368340D01*
X106493920Y-146339500D01*
X106493918Y-146339500D01*
X104662229Y-146339500D01*
X104595190Y-146319815D01*
X104574548Y-146303181D01*
X104260416Y-145989049D01*
X104226931Y-145927726D01*
X104231915Y-145858034D01*
X104273787Y-145802101D01*
X104304764Y-145785186D01*
X104347105Y-145769394D01*
X104402331Y-145748796D01*
X104517546Y-145662546D01*
X104603796Y-145547331D01*
X104652810Y-145415916D01*
X104694681Y-145359984D01*
X104760145Y-145335566D01*
X104828418Y-145350417D01*
X104856673Y-145371569D01*
X104970213Y-145485109D01*
X105142179Y-145610048D01*
X105142181Y-145610049D01*
X105142184Y-145610051D01*
X105331588Y-145706557D01*
X105533757Y-145772246D01*
X105743713Y-145805500D01*
X105743714Y-145805500D01*
X105956286Y-145805500D01*
X105956287Y-145805500D01*
X106166243Y-145772246D01*
X106368412Y-145706557D01*
X106557816Y-145610051D01*
X106612544Y-145570289D01*
X106729786Y-145485109D01*
X106729788Y-145485106D01*
X106729792Y-145485104D01*
X106880104Y-145334792D01*
X106880106Y-145334788D01*
X106880109Y-145334786D01*
X107005048Y-145162820D01*
X107005047Y-145162820D01*
X107005051Y-145162816D01*
X107009514Y-145154054D01*
X107057488Y-145103259D01*
X107125308Y-145086463D01*
X107191444Y-145108999D01*
X107230486Y-145154056D01*
X107234951Y-145162820D01*
X107359890Y-145334786D01*
X107510213Y-145485109D01*
X107682179Y-145610048D01*
X107682181Y-145610049D01*
X107682184Y-145610051D01*
X107871588Y-145706557D01*
X108073757Y-145772246D01*
X108283713Y-145805500D01*
X108283714Y-145805500D01*
X108496286Y-145805500D01*
X108496287Y-145805500D01*
X108706243Y-145772246D01*
X108908412Y-145706557D01*
X109097816Y-145610051D01*
X109152544Y-145570289D01*
X109269786Y-145485109D01*
X109269788Y-145485106D01*
X109269792Y-145485104D01*
X109420104Y-145334792D01*
X109420106Y-145334788D01*
X109420109Y-145334786D01*
X109545048Y-145162820D01*
X109545047Y-145162820D01*
X109545051Y-145162816D01*
X109641557Y-144973412D01*
X109707246Y-144771243D01*
X109740500Y-144561287D01*
X109740500Y-144348713D01*
X109707246Y-144138757D01*
X109641557Y-143936588D01*
X109545051Y-143747184D01*
X109545049Y-143747181D01*
X109545048Y-143747179D01*
X109420109Y-143575213D01*
X109269786Y-143424890D01*
X109097820Y-143299951D01*
X109097115Y-143299591D01*
X109089054Y-143295485D01*
X109038259Y-143247512D01*
X109021463Y-143179692D01*
X109043999Y-143113556D01*
X109089054Y-143074515D01*
X109097816Y-143070051D01*
X109164501Y-143021602D01*
X109269786Y-142945109D01*
X109269788Y-142945106D01*
X109269792Y-142945104D01*
X109420104Y-142794792D01*
X109420106Y-142794788D01*
X109420109Y-142794786D01*
X109545048Y-142622820D01*
X109545050Y-142622817D01*
X109545051Y-142622816D01*
X109641557Y-142433412D01*
X109707246Y-142231243D01*
X109740500Y-142021287D01*
X109740500Y-141808713D01*
X109707246Y-141598757D01*
X109641557Y-141396588D01*
X109545051Y-141207184D01*
X109545049Y-141207181D01*
X109545048Y-141207179D01*
X109420109Y-141035213D01*
X109269786Y-140884890D01*
X109097820Y-140759951D01*
X108908414Y-140663444D01*
X108908413Y-140663443D01*
X108908412Y-140663443D01*
X108706243Y-140597754D01*
X108706241Y-140597753D01*
X108706240Y-140597753D01*
X108544957Y-140572208D01*
X108496287Y-140564500D01*
X108283713Y-140564500D01*
X108235042Y-140572208D01*
X108073760Y-140597753D01*
X107871585Y-140663444D01*
X107682179Y-140759951D01*
X107510213Y-140884890D01*
X107359890Y-141035213D01*
X107234949Y-141207182D01*
X107230484Y-141215946D01*
X107182509Y-141266742D01*
X107114688Y-141283536D01*
X107048553Y-141260998D01*
X107009516Y-141215946D01*
X107005050Y-141207182D01*
X106880109Y-141035213D01*
X106729786Y-140884890D01*
X106557820Y-140759951D01*
X106368414Y-140663444D01*
X106368413Y-140663443D01*
X106368412Y-140663443D01*
X106166243Y-140597754D01*
X106166241Y-140597753D01*
X106166240Y-140597753D01*
X106004957Y-140572208D01*
X105956287Y-140564500D01*
X105743713Y-140564500D01*
X105695042Y-140572208D01*
X105533760Y-140597753D01*
X105331585Y-140663444D01*
X105142179Y-140759951D01*
X104970213Y-140884890D01*
X104819890Y-141035213D01*
X104694949Y-141207182D01*
X104690202Y-141216499D01*
X104642227Y-141267293D01*
X104574405Y-141284087D01*
X104508271Y-141261548D01*
X104469234Y-141216495D01*
X104464626Y-141207452D01*
X104425270Y-141153282D01*
X104425269Y-141153282D01*
X103792962Y-141785590D01*
X103775925Y-141722007D01*
X103710099Y-141607993D01*
X103617007Y-141514901D01*
X103502993Y-141449075D01*
X103439409Y-141432037D01*
X104071716Y-140799728D01*
X104017550Y-140760375D01*
X103828217Y-140663904D01*
X103626129Y-140598242D01*
X103416246Y-140565000D01*
X103203754Y-140565000D01*
X102993872Y-140598242D01*
X102993869Y-140598242D01*
X102791782Y-140663904D01*
X102602439Y-140760380D01*
X102548282Y-140799727D01*
X102548282Y-140799728D01*
X103180591Y-141432037D01*
X103117007Y-141449075D01*
X103002993Y-141514901D01*
X102909901Y-141607993D01*
X102844075Y-141722007D01*
X102827037Y-141785591D01*
X102194728Y-141153282D01*
X102194727Y-141153282D01*
X102155380Y-141207439D01*
X102058904Y-141396782D01*
X101993242Y-141598869D01*
X101993242Y-141598872D01*
X101960000Y-141808753D01*
X101960000Y-142021246D01*
X101993242Y-142231127D01*
X101993242Y-142231130D01*
X102058904Y-142433217D01*
X102155375Y-142622550D01*
X102194728Y-142676716D01*
X102827037Y-142044408D01*
X102844075Y-142107993D01*
X102909901Y-142222007D01*
X103002993Y-142315099D01*
X103117007Y-142380925D01*
X103180590Y-142397962D01*
X102510370Y-143068181D01*
X102449047Y-143101666D01*
X102422698Y-143104500D01*
X102412134Y-143104500D01*
X102412123Y-143104501D01*
X102352516Y-143110908D01*
X102217671Y-143161202D01*
X102217664Y-143161206D01*
X102102455Y-143247452D01*
X102102452Y-143247455D01*
X102016206Y-143362664D01*
X102016202Y-143362671D01*
X101965908Y-143497517D01*
X101959501Y-143557116D01*
X101959500Y-143557135D01*
X101959500Y-143580500D01*
X101939815Y-143647539D01*
X101887011Y-143693294D01*
X101835500Y-143704500D01*
X101406736Y-143704500D01*
X101382545Y-143702117D01*
X101338189Y-143693294D01*
X101268844Y-143679500D01*
X101268842Y-143679500D01*
X101111158Y-143679500D01*
X101111155Y-143679500D01*
X100956510Y-143710261D01*
X100956498Y-143710264D01*
X100810827Y-143770602D01*
X100810814Y-143770609D01*
X100679711Y-143858210D01*
X100679707Y-143858213D01*
X100568213Y-143969707D01*
X100568210Y-143969711D01*
X100480609Y-144100814D01*
X100480602Y-144100827D01*
X100420264Y-144246498D01*
X100420261Y-144246510D01*
X100389500Y-144401153D01*
X100389500Y-144558846D01*
X100420261Y-144713489D01*
X100420264Y-144713501D01*
X100480602Y-144859172D01*
X100480609Y-144859185D01*
X100568210Y-144990288D01*
X100568213Y-144990292D01*
X100679707Y-145101786D01*
X100679711Y-145101789D01*
X100810814Y-145189390D01*
X100810827Y-145189397D01*
X100956498Y-145249735D01*
X100956503Y-145249737D01*
X101111153Y-145280499D01*
X101111156Y-145280500D01*
X101111158Y-145280500D01*
X101268844Y-145280500D01*
X101268845Y-145280499D01*
X101423497Y-145249737D01*
X101482771Y-145225185D01*
X101507508Y-145214939D01*
X101554960Y-145205500D01*
X101835501Y-145205500D01*
X101902540Y-145225185D01*
X101948295Y-145277989D01*
X101959501Y-145329500D01*
X101959501Y-145352876D01*
X101965908Y-145412483D01*
X102016202Y-145547328D01*
X102016206Y-145547335D01*
X102102452Y-145662544D01*
X102102455Y-145662547D01*
X102217664Y-145748793D01*
X102217671Y-145748797D01*
X102240252Y-145757219D01*
X102352517Y-145799091D01*
X102412127Y-145805500D01*
X102435497Y-145805499D01*
X102502536Y-145825181D01*
X102548292Y-145877983D01*
X102559500Y-145929499D01*
X102559500Y-146173918D01*
X102559500Y-146173920D01*
X102559499Y-146173920D01*
X102588340Y-146318907D01*
X102588343Y-146318917D01*
X102644914Y-146455492D01*
X102677812Y-146504727D01*
X102677813Y-146504730D01*
X102727046Y-146578414D01*
X102727052Y-146578421D01*
X103576452Y-147427819D01*
X103609937Y-147489142D01*
X103604953Y-147558833D01*
X103563082Y-147614767D01*
X103497617Y-147639184D01*
X103488771Y-147639500D01*
X101544604Y-147639500D01*
X101497155Y-147630062D01*
X101473497Y-147620263D01*
X101473493Y-147620262D01*
X101473488Y-147620260D01*
X101318845Y-147589500D01*
X101318842Y-147589500D01*
X101161158Y-147589500D01*
X101161155Y-147589500D01*
X101006510Y-147620261D01*
X101006498Y-147620264D01*
X100860827Y-147680602D01*
X100860814Y-147680609D01*
X100729711Y-147768210D01*
X100729707Y-147768213D01*
X100618213Y-147879707D01*
X100618210Y-147879711D01*
X100530609Y-148010814D01*
X100530602Y-148010827D01*
X100470264Y-148156498D01*
X100470261Y-148156510D01*
X100439500Y-148311153D01*
X100439500Y-148468846D01*
X100470261Y-148623489D01*
X100470264Y-148623501D01*
X100530602Y-148769172D01*
X100530609Y-148769185D01*
X100618210Y-148900288D01*
X100618213Y-148900292D01*
X100729707Y-149011786D01*
X100729711Y-149011789D01*
X100860814Y-149099390D01*
X100860827Y-149099397D01*
X100960060Y-149140500D01*
X101006503Y-149159737D01*
X101161153Y-149190499D01*
X101161156Y-149190500D01*
X101161158Y-149190500D01*
X101318844Y-149190500D01*
X101318845Y-149190499D01*
X101395152Y-149175320D01*
X101473488Y-149159739D01*
X101473489Y-149159738D01*
X101473497Y-149159737D01*
X101497155Y-149149937D01*
X101544604Y-149140500D01*
X107357770Y-149140500D01*
X107424809Y-149160185D01*
X107445451Y-149176819D01*
X107713996Y-149445364D01*
X107747481Y-149506687D01*
X107742497Y-149576379D01*
X107700625Y-149632312D01*
X107645713Y-149655518D01*
X107473760Y-149682753D01*
X107271585Y-149748444D01*
X107082179Y-149844951D01*
X106910213Y-149969890D01*
X106759890Y-150120213D01*
X106634949Y-150292182D01*
X106630202Y-150301499D01*
X106582227Y-150352293D01*
X106514405Y-150369087D01*
X106448271Y-150346548D01*
X106409234Y-150301495D01*
X106404626Y-150292452D01*
X106365270Y-150238282D01*
X106365269Y-150238282D01*
X105732962Y-150870590D01*
X105715925Y-150807007D01*
X105650099Y-150692993D01*
X105557007Y-150599901D01*
X105442993Y-150534075D01*
X105379409Y-150517037D01*
X106011716Y-149884728D01*
X105957550Y-149845375D01*
X105768217Y-149748904D01*
X105566129Y-149683242D01*
X105356246Y-149650000D01*
X105143754Y-149650000D01*
X104933872Y-149683242D01*
X104933869Y-149683242D01*
X104731782Y-149748904D01*
X104542439Y-149845380D01*
X104488282Y-149884727D01*
X104488282Y-149884728D01*
X105120591Y-150517037D01*
X105057007Y-150534075D01*
X104942993Y-150599901D01*
X104849901Y-150692993D01*
X104784075Y-150807007D01*
X104767037Y-150870591D01*
X104134728Y-150238282D01*
X104134727Y-150238282D01*
X104095380Y-150292440D01*
X104095376Y-150292446D01*
X104090760Y-150301505D01*
X104042781Y-150352297D01*
X103974959Y-150369087D01*
X103908826Y-150346543D01*
X103869794Y-150301493D01*
X103865051Y-150292184D01*
X103865049Y-150292181D01*
X103865048Y-150292179D01*
X103740109Y-150120213D01*
X103589786Y-149969890D01*
X103417820Y-149844951D01*
X103228414Y-149748444D01*
X103228413Y-149748443D01*
X103228412Y-149748443D01*
X103026243Y-149682754D01*
X103026241Y-149682753D01*
X103026240Y-149682753D01*
X102864957Y-149657208D01*
X102816287Y-149649500D01*
X102603713Y-149649500D01*
X102555042Y-149657208D01*
X102393760Y-149682753D01*
X102191585Y-149748444D01*
X102002179Y-149844951D01*
X101830213Y-149969890D01*
X101679890Y-150120213D01*
X101554949Y-150292182D01*
X101550484Y-150300946D01*
X101502509Y-150351742D01*
X101434688Y-150368536D01*
X101368553Y-150345998D01*
X101329516Y-150300946D01*
X101325050Y-150292182D01*
X101200109Y-150120213D01*
X101049786Y-149969890D01*
X100877820Y-149844951D01*
X100688414Y-149748444D01*
X100688413Y-149748443D01*
X100688412Y-149748443D01*
X100486243Y-149682754D01*
X100486241Y-149682753D01*
X100486240Y-149682753D01*
X100324957Y-149657208D01*
X100276287Y-149649500D01*
X100063713Y-149649500D01*
X100015042Y-149657208D01*
X99853760Y-149682753D01*
X99651585Y-149748444D01*
X99462179Y-149844951D01*
X99290213Y-149969890D01*
X99139890Y-150120213D01*
X99014949Y-150292182D01*
X99010484Y-150300946D01*
X98962509Y-150351742D01*
X98894688Y-150368536D01*
X98828553Y-150345998D01*
X98789516Y-150300946D01*
X98785050Y-150292182D01*
X98660109Y-150120213D01*
X98509786Y-149969890D01*
X98337820Y-149844951D01*
X98148414Y-149748444D01*
X98148413Y-149748443D01*
X98148412Y-149748443D01*
X97946243Y-149682754D01*
X97946241Y-149682753D01*
X97946240Y-149682753D01*
X97784957Y-149657208D01*
X97736287Y-149649500D01*
X97523713Y-149649500D01*
X97475042Y-149657208D01*
X97313760Y-149682753D01*
X97111585Y-149748444D01*
X96922179Y-149844951D01*
X96750213Y-149969890D01*
X96599890Y-150120213D01*
X96474949Y-150292182D01*
X96470484Y-150300946D01*
X96422509Y-150351742D01*
X96354688Y-150368536D01*
X96288553Y-150345998D01*
X96249516Y-150300946D01*
X96245050Y-150292182D01*
X96120109Y-150120213D01*
X95969786Y-149969890D01*
X95797817Y-149844949D01*
X95733204Y-149812026D01*
X95682408Y-149764051D01*
X95665500Y-149701542D01*
X95665500Y-139177940D01*
X95685185Y-139110901D01*
X95701822Y-139090256D01*
X95711787Y-139080291D01*
X95711789Y-139080289D01*
X95799394Y-138949179D01*
X95859737Y-138803497D01*
X95890500Y-138648842D01*
X95890500Y-138491158D01*
X95890500Y-138491155D01*
X95890499Y-138491153D01*
X95886441Y-138470751D01*
X95859737Y-138336503D01*
X95859735Y-138336498D01*
X95799397Y-138190827D01*
X95799390Y-138190814D01*
X95711789Y-138059711D01*
X95711786Y-138059707D01*
X95599260Y-137947181D01*
X95565775Y-137885858D01*
X95570759Y-137816166D01*
X95612631Y-137760233D01*
X95678095Y-137735816D01*
X95686941Y-137735500D01*
X118970258Y-137735500D01*
X119037297Y-137755185D01*
X119057939Y-137771819D01*
X120188181Y-138902061D01*
X120221666Y-138963384D01*
X120224500Y-138989742D01*
X120224500Y-141092059D01*
X120204815Y-141159098D01*
X120188181Y-141179740D01*
X120178213Y-141189707D01*
X120178210Y-141189711D01*
X120090609Y-141320814D01*
X120090602Y-141320827D01*
X120030264Y-141466498D01*
X120030261Y-141466510D01*
X119999500Y-141621153D01*
X119999500Y-141778846D01*
X120030261Y-141933489D01*
X120030264Y-141933501D01*
X120090602Y-142079172D01*
X120090609Y-142079185D01*
X120178210Y-142210288D01*
X120178213Y-142210292D01*
X120289707Y-142321786D01*
X120289711Y-142321789D01*
X120420814Y-142409390D01*
X120420827Y-142409397D01*
X120566498Y-142469735D01*
X120566503Y-142469737D01*
X120721153Y-142500499D01*
X120721156Y-142500500D01*
X120721158Y-142500500D01*
X120878844Y-142500500D01*
X120878845Y-142500499D01*
X121033497Y-142469737D01*
X121179179Y-142409394D01*
X121310289Y-142321789D01*
X121421789Y-142210289D01*
X121509394Y-142079179D01*
X121569737Y-141933497D01*
X121600500Y-141778842D01*
X121600500Y-141621158D01*
X121600500Y-141621155D01*
X121600499Y-141621153D01*
X121579364Y-141514901D01*
X121569737Y-141466503D01*
X121569735Y-141466498D01*
X121509397Y-141320827D01*
X121509390Y-141320814D01*
X121421789Y-141189711D01*
X121421786Y-141189707D01*
X121411819Y-141179740D01*
X121378334Y-141118417D01*
X121375500Y-141092059D01*
X121375500Y-138624236D01*
X121375500Y-138624234D01*
X121336281Y-138477865D01*
X121260515Y-138346635D01*
X121153365Y-138239485D01*
X120108262Y-137194382D01*
X120074777Y-137133059D01*
X120079761Y-137063367D01*
X120121633Y-137007434D01*
X120187097Y-136983017D01*
X120195943Y-136982701D01*
X127523336Y-136982701D01*
X127531446Y-136982967D01*
X127586769Y-136986593D01*
X127747494Y-136997128D01*
X127763572Y-136999245D01*
X128004947Y-137047258D01*
X128020613Y-137051455D01*
X128253658Y-137130564D01*
X128268640Y-137136770D01*
X128385465Y-137194382D01*
X128489363Y-137245619D01*
X128503410Y-137253729D01*
X128708040Y-137390459D01*
X128720904Y-137400330D01*
X128905933Y-137562597D01*
X128917402Y-137574066D01*
X129016562Y-137687136D01*
X129078203Y-137757424D01*
X129079669Y-137759095D01*
X129089543Y-137771963D01*
X129226270Y-137976589D01*
X129234380Y-137990636D01*
X129343228Y-138211358D01*
X129349435Y-138226343D01*
X129428543Y-138459384D01*
X129432741Y-138475052D01*
X129480754Y-138716427D01*
X129482871Y-138732507D01*
X129499233Y-138982115D01*
X129499499Y-138990226D01*
X129499499Y-155210534D01*
X129479814Y-155277573D01*
X129427010Y-155323328D01*
X129357852Y-155333272D01*
X129302614Y-155310852D01*
X129136433Y-155190115D01*
X129136428Y-155190112D01*
X128864075Y-155032869D01*
X128864068Y-155032866D01*
X128576759Y-154904947D01*
X128576754Y-154904945D01*
X128576751Y-154904944D01*
X128277649Y-154807761D01*
X128277647Y-154807760D01*
X128012415Y-154751384D01*
X127970026Y-154742374D01*
X127657250Y-154709500D01*
X127565892Y-154709500D01*
X42565892Y-154709500D01*
X42500000Y-154709500D01*
X42342750Y-154709500D01*
X42029974Y-154742374D01*
X42029970Y-154742374D01*
X42029968Y-154742375D01*
X41722352Y-154807760D01*
X41722350Y-154807761D01*
X41423248Y-154904944D01*
X41135931Y-155032866D01*
X41135924Y-155032869D01*
X40863571Y-155190112D01*
X40863566Y-155190115D01*
X40697385Y-155310853D01*
X40631579Y-155334333D01*
X40563525Y-155318507D01*
X40514830Y-155268401D01*
X40500500Y-155210535D01*
X40500500Y-138984057D01*
X40500766Y-138975943D01*
X40504821Y-138914108D01*
X40517074Y-138727265D01*
X40519190Y-138711192D01*
X40567046Y-138470745D01*
X40571248Y-138455076D01*
X40598724Y-138374185D01*
X40650089Y-138222955D01*
X40656302Y-138207968D01*
X40764782Y-137988133D01*
X40772891Y-137974097D01*
X40909168Y-137770289D01*
X40919036Y-137757439D01*
X41080761Y-137573175D01*
X41092228Y-137561720D01*
X41276618Y-137400170D01*
X41289493Y-137390300D01*
X41493399Y-137254216D01*
X41507457Y-137246112D01*
X41727394Y-137137820D01*
X41742371Y-137131628D01*
X41974580Y-137052983D01*
X41990234Y-137048801D01*
X42230731Y-137001155D01*
X42246798Y-136999053D01*
X42494994Y-136982995D01*
X42502932Y-136982737D01*
X42502949Y-136982736D01*
X42565444Y-136982792D01*
X42565769Y-136982705D01*
X42574145Y-136982701D01*
X42574156Y-136982704D01*
X42574208Y-136982701D01*
X49869469Y-136982701D01*
X49936508Y-137002386D01*
G37*
%TD.AperFunction*%
%TA.AperFunction,Conductor*%
G36*
X60645270Y-151761717D02*
G01*
X60645270Y-151761716D01*
X60684622Y-151707555D01*
X60689232Y-151698507D01*
X60737205Y-151647709D01*
X60805025Y-151630912D01*
X60871161Y-151653447D01*
X60910204Y-151698504D01*
X60914949Y-151707817D01*
X61039890Y-151879786D01*
X61112923Y-151952819D01*
X61146408Y-152014142D01*
X61141424Y-152083834D01*
X61099552Y-152139767D01*
X61034088Y-152164184D01*
X61025242Y-152164500D01*
X60392309Y-152164500D01*
X60325270Y-152144815D01*
X60304628Y-152128181D01*
X59659408Y-151482962D01*
X59722993Y-151465925D01*
X59837007Y-151400099D01*
X59930099Y-151307007D01*
X59995925Y-151192993D01*
X60012962Y-151129408D01*
X60645270Y-151761717D01*
G37*
%TD.AperFunction*%
%TA.AperFunction,Conductor*%
G36*
X62685270Y-142676717D02*
G01*
X62685270Y-142676716D01*
X62724622Y-142622555D01*
X62729232Y-142613507D01*
X62777205Y-142562709D01*
X62845025Y-142545912D01*
X62911161Y-142568447D01*
X62950204Y-142613504D01*
X62954949Y-142622817D01*
X63079890Y-142794786D01*
X63230213Y-142945109D01*
X63402182Y-143070050D01*
X63410946Y-143074516D01*
X63461742Y-143122491D01*
X63478536Y-143190312D01*
X63455998Y-143256447D01*
X63410946Y-143295484D01*
X63402182Y-143299949D01*
X63230215Y-143424889D01*
X63116673Y-143538431D01*
X63055350Y-143571915D01*
X62985658Y-143566931D01*
X62929725Y-143525059D01*
X62912810Y-143494082D01*
X62863797Y-143362671D01*
X62863793Y-143362664D01*
X62777547Y-143247455D01*
X62777544Y-143247452D01*
X62662335Y-143161206D01*
X62662328Y-143161202D01*
X62527482Y-143110908D01*
X62527483Y-143110908D01*
X62467883Y-143104501D01*
X62467881Y-143104500D01*
X62467873Y-143104500D01*
X62467865Y-143104500D01*
X62457309Y-143104500D01*
X62390270Y-143084815D01*
X62369628Y-143068181D01*
X61699408Y-142397962D01*
X61762993Y-142380925D01*
X61877007Y-142315099D01*
X61970099Y-142222007D01*
X62035925Y-142107993D01*
X62052962Y-142044408D01*
X62685270Y-142676717D01*
G37*
%TD.AperFunction*%
%TA.AperFunction,Conductor*%
G36*
X83555270Y-142676717D02*
G01*
X83555270Y-142676716D01*
X83594622Y-142622555D01*
X83599232Y-142613507D01*
X83647205Y-142562709D01*
X83715025Y-142545912D01*
X83781161Y-142568447D01*
X83820204Y-142613504D01*
X83824949Y-142622817D01*
X83949890Y-142794786D01*
X84100213Y-142945109D01*
X84272182Y-143070050D01*
X84280946Y-143074516D01*
X84331742Y-143122491D01*
X84348536Y-143190312D01*
X84325998Y-143256447D01*
X84280946Y-143295484D01*
X84272182Y-143299949D01*
X84100215Y-143424889D01*
X83986673Y-143538431D01*
X83925350Y-143571915D01*
X83855658Y-143566931D01*
X83799725Y-143525059D01*
X83782810Y-143494082D01*
X83733797Y-143362671D01*
X83733793Y-143362664D01*
X83647547Y-143247455D01*
X83647544Y-143247452D01*
X83532335Y-143161206D01*
X83532328Y-143161202D01*
X83397482Y-143110908D01*
X83397483Y-143110908D01*
X83337883Y-143104501D01*
X83337881Y-143104500D01*
X83337873Y-143104500D01*
X83337865Y-143104500D01*
X83327309Y-143104500D01*
X83260270Y-143084815D01*
X83239628Y-143068181D01*
X82569408Y-142397962D01*
X82632993Y-142380925D01*
X82747007Y-142315099D01*
X82840099Y-142222007D01*
X82905925Y-142107993D01*
X82922962Y-142044408D01*
X83555270Y-142676717D01*
G37*
%TD.AperFunction*%
%TA.AperFunction,Conductor*%
G36*
X104425270Y-142676717D02*
G01*
X104425270Y-142676716D01*
X104464622Y-142622555D01*
X104469232Y-142613507D01*
X104517205Y-142562709D01*
X104585025Y-142545912D01*
X104651161Y-142568447D01*
X104690204Y-142613504D01*
X104694949Y-142622817D01*
X104819890Y-142794786D01*
X104970213Y-142945109D01*
X105142182Y-143070050D01*
X105150946Y-143074516D01*
X105201742Y-143122491D01*
X105218536Y-143190312D01*
X105195998Y-143256447D01*
X105150946Y-143295484D01*
X105142182Y-143299949D01*
X104970215Y-143424889D01*
X104856673Y-143538431D01*
X104795350Y-143571915D01*
X104725658Y-143566931D01*
X104669725Y-143525059D01*
X104652810Y-143494082D01*
X104603797Y-143362671D01*
X104603793Y-143362664D01*
X104517547Y-143247455D01*
X104517544Y-143247452D01*
X104402335Y-143161206D01*
X104402328Y-143161202D01*
X104267482Y-143110908D01*
X104267483Y-143110908D01*
X104207883Y-143104501D01*
X104207881Y-143104500D01*
X104207873Y-143104500D01*
X104207865Y-143104500D01*
X104197309Y-143104500D01*
X104130270Y-143084815D01*
X104109628Y-143068181D01*
X103439408Y-142397962D01*
X103502993Y-142380925D01*
X103617007Y-142315099D01*
X103710099Y-142222007D01*
X103775925Y-142107993D01*
X103792962Y-142044409D01*
X104425270Y-142676717D01*
G37*
%TD.AperFunction*%
%TD*%
M02*
