M48
; DRILL file {KiCad 9.0.2} date 2025-07-25T11:54:52+0200
; FORMAT={-:-/ absolute / inch / decimal}
; #@! TF.CreationDate,2025-07-25T11:54:52+02:00
; #@! TF.GenerationSoftware,Kicad,Pcbnew,9.0.2
; #@! TF.FileFunction,Plated,1,2,PTH
FMAT,2
INCH
; #@! TA.AperFunction,Plated,PTH,ViaDrill
T1C0.0079
; #@! TA.AperFunction,Plated,PTH,ViaDrill
T2C0.0098
; #@! TA.AperFunction,Plated,PTH,ComponentDrill
T3C0.0394
%
G90
G05
T1
X1.6343Y-6.0433
X1.6752Y-5.8921
X1.7039Y-5.0516
X1.7154Y-5.8941
X1.726Y-5.6051
X1.7276Y-5.3693
X1.733Y-6.0343
X1.7378Y-5.3118
X1.7378Y-5.5449
X1.7386Y-5.6252
X1.7399Y-5.4614
X1.7424Y-5.4087
X1.7431Y-5.4377
X1.7461Y-5.5831
X1.751Y-5.6454
X1.7533Y-5.3317
X1.7548Y-5.3885
X1.759Y-5.4802
X1.761Y-6.0358
X1.7671Y-5.5198
X1.7671Y-5.5459
X1.7839Y-5.9228
X1.7846Y-5.9764
X1.7951Y-5.8892
X1.8094Y-5.9913
X1.811Y-5.9335
X1.8331Y-6.0059
X1.8358Y-5.9377
X1.8531Y-5.265
X1.8571Y-6.0177
X1.8573Y-5.9276
X1.8848Y-5.9128
X1.8848Y-6.0287
X1.9337Y-5.1487
X1.9343Y-5.1724
X1.9394Y-5.711
X1.9528Y-5.9699
X1.9557Y-5.8044
X1.9563Y-5.8518
X1.9563Y-5.8281
X1.9573Y-5.8755
X1.9575Y-5.8992
X1.9583Y-5.9244
X2.0359Y-5.5715
X2.0359Y-5.5952
X2.0359Y-5.6189
X2.0359Y-5.6426
X2.0359Y-5.6663
X2.0744Y-5.2646
X2.0868Y-5.8136
X2.0874Y-5.3728
X2.0874Y-5.4043
X2.0874Y-5.4358
X2.0874Y-5.4673
X2.0898Y-5.7551
X2.0898Y-5.787
X2.0913Y-5.7244
X2.1252Y-5.5697
X2.1252Y-5.5934
X2.1252Y-5.6181
X2.1252Y-5.6421
X2.1252Y-5.6663
X2.1827Y-5.8741
X2.1909Y-5.9419
X2.2441Y-5.9689
X2.2456Y-5.9217
X2.3017Y-5.8803
X2.4198Y-5.8803
X2.5154Y-5.9866
X2.5453Y-5.8803
X2.6618Y-5.8803
X2.6917Y-5.9193
X2.7783Y-5.8803
X2.7949Y-5.9846
X2.8922Y-5.8803
X2.9882Y-5.9228
X3.0124Y-6.0525
X3.0136Y-5.8803
X3.0437Y-6.0505
X3.1315Y-5.8843
X3.1339Y-6.0398
X3.1925Y-6.0324
X3.2165Y-5.9673
X3.2466Y-5.8803
X3.3102Y-6.0151
X3.3681Y-5.8803
X3.3854Y-6.0042
X3.4409Y-6.0398
X3.4409Y-6.0398
X3.4882Y-5.8803
X3.4937Y-5.987
X3.6026Y-5.8803
X3.6638Y-5.8753
X3.719Y-5.8803
X3.7823Y-5.8643
X3.8371Y-5.8803
X3.9004Y-5.8643
X3.9552Y-5.8803
X4.0172Y-5.8592
X4.0733Y-5.8803
X4.1353Y-5.8592
X4.1437Y-6.0398
X4.1914Y-5.8803
X4.2534Y-5.8592
X4.3095Y-5.8803
X4.372Y-5.8592
X4.4305Y-5.9927
X4.4319Y-5.8484
X4.4995Y-5.8154
X4.5433Y-5.0437
T2
X1.7236Y-5.2902
X2.2473Y-5.0638
X2.2473Y-5.2055
X2.2473Y-5.3465
X2.2473Y-5.489
X2.2473Y-5.7717
X2.2476Y-5.6303
X2.3637Y-5.6303
X2.3654Y-5.0638
X2.3654Y-5.2055
X2.3654Y-5.3465
X2.3654Y-5.489
X2.3654Y-5.7717
X2.4818Y-5.6303
X2.4835Y-5.0638
X2.4835Y-5.2055
X2.4835Y-5.3465
X2.4835Y-5.489
X2.4835Y-5.7717
X2.5999Y-5.6303
X2.6016Y-5.0638
X2.6016Y-5.2055
X2.6016Y-5.3465
X2.6016Y-5.489
X2.6016Y-5.7717
X2.718Y-5.6303
X2.7197Y-5.0638
X2.7197Y-5.2055
X2.7197Y-5.3465
X2.7197Y-5.489
X2.7197Y-5.7717
X2.8361Y-5.6303
X2.8378Y-5.0638
X2.8378Y-5.2055
X2.8378Y-5.3465
X2.8378Y-5.489
X2.8378Y-5.7717
X2.9542Y-5.6303
X2.9559Y-5.0638
X2.9559Y-5.2055
X2.9559Y-5.3465
X2.9559Y-5.489
X2.9559Y-5.7717
X3.072Y-5.7717
X3.074Y-5.0638
X3.074Y-5.2055
X3.074Y-5.3465
X3.074Y-5.489
X3.0744Y-5.6303
X3.1905Y-5.7717
X3.1921Y-5.0638
X3.1921Y-5.2055
X3.1921Y-5.3465
X3.1921Y-5.489
X3.1925Y-5.6303
X3.3102Y-5.0638
X3.3102Y-5.2055
X3.3102Y-5.3465
X3.3102Y-5.489
X3.3102Y-5.7717
X3.3106Y-5.6303
X3.4284Y-5.0638
X3.4284Y-5.2055
X3.4284Y-5.3465
X3.4284Y-5.489
X3.4284Y-5.7717
X3.4287Y-5.6303
X3.5465Y-5.0638
X3.5465Y-5.2055
X3.5465Y-5.3465
X3.5465Y-5.489
X3.5465Y-5.7717
X3.5469Y-5.6303
X3.6629Y-5.6303
X3.6646Y-5.0638
X3.6646Y-5.2055
X3.6646Y-5.3465
X3.6646Y-5.489
X3.6646Y-5.7717
X3.7827Y-5.0638
X3.7827Y-5.2055
X3.7827Y-5.3465
X3.7827Y-5.489
X3.7827Y-5.7717
X3.7831Y-5.6303
X3.9008Y-5.0638
X3.9008Y-5.2055
X3.9008Y-5.3465
X3.9008Y-5.489
X3.9008Y-5.7717
X3.9012Y-5.6303
X4.0189Y-5.0638
X4.0189Y-5.2055
X4.0189Y-5.3465
X4.0189Y-5.489
X4.0189Y-5.7713
X4.0193Y-5.6303
X4.1353Y-5.0638
X4.1353Y-5.2055
X4.1353Y-5.3465
X4.1353Y-5.489
X4.1353Y-5.6303
X4.1353Y-5.7717
X4.2534Y-5.7717
X4.2546Y-5.0638
X4.2546Y-5.2055
X4.2551Y-5.3465
X4.2551Y-5.489
X4.2555Y-5.6303
T3
X2.3437Y-5.9449
X2.4437Y-5.9449
X2.5437Y-5.9449
X2.6437Y-5.9449
X2.7437Y-5.9449
X2.8437Y-5.9449
X2.9437Y-5.9449
X3.0437Y-5.9449
X3.4437Y-5.9449
X3.5437Y-5.9449
X3.6437Y-5.9449
X3.7437Y-5.9449
X3.8437Y-5.9449
X3.9437Y-5.9449
X4.0437Y-5.9449
X4.1437Y-5.9449
X4.2437Y-5.9449
X4.3437Y-5.9449
M30
