%TF.GenerationSoftware,KiCad,Pcbnew,9.0.4*%
%TF.CreationDate,2025-09-18T15:00:00+02:00*%
%TF.ProjectId,blackpants,626c6163-6b70-4616-9e74-732e6b696361,V2.5*%
%TF.SameCoordinates,Original*%
%TF.FileFunction,AssemblyDrawing,Top*%
%FSLAX46Y46*%
G04 Gerber Fmt 4.6, Leading zero omitted, Abs format (unit mm)*
G04 Created by KiCad (PCBNEW 9.0.4) date 2025-09-18 15:00:00*
%MOMM*%
%LPD*%
G01*
G04 APERTURE LIST*
%ADD10C,0.125000*%
%ADD11C,0.070000*%
%ADD12C,0.100000*%
G04 APERTURE END LIST*
D10*
X116619047Y-30224809D02*
X116619047Y-29724809D01*
X116619047Y-29962904D02*
X116904761Y-29962904D01*
X116904761Y-30224809D02*
X116904761Y-29724809D01*
X117119048Y-29772428D02*
X117142857Y-29748619D01*
X117142857Y-29748619D02*
X117190476Y-29724809D01*
X117190476Y-29724809D02*
X117309524Y-29724809D01*
X117309524Y-29724809D02*
X117357143Y-29748619D01*
X117357143Y-29748619D02*
X117380952Y-29772428D01*
X117380952Y-29772428D02*
X117404762Y-29820047D01*
X117404762Y-29820047D02*
X117404762Y-29867666D01*
X117404762Y-29867666D02*
X117380952Y-29939095D01*
X117380952Y-29939095D02*
X117095238Y-30224809D01*
X117095238Y-30224809D02*
X117404762Y-30224809D01*
X32619047Y-42224809D02*
X32619047Y-41724809D01*
X32619047Y-41962904D02*
X32904761Y-41962904D01*
X32904761Y-42224809D02*
X32904761Y-41724809D01*
X33404762Y-42224809D02*
X33119048Y-42224809D01*
X33261905Y-42224809D02*
X33261905Y-41724809D01*
X33261905Y-41724809D02*
X33214286Y-41796238D01*
X33214286Y-41796238D02*
X33166667Y-41843857D01*
X33166667Y-41843857D02*
X33119048Y-41867666D01*
X116619047Y-108224809D02*
X116619047Y-107724809D01*
X116619047Y-107962904D02*
X116904761Y-107962904D01*
X116904761Y-108224809D02*
X116904761Y-107724809D01*
X117095238Y-107724809D02*
X117428571Y-107724809D01*
X117428571Y-107724809D02*
X117214286Y-108224809D01*
X32619047Y-108224809D02*
X32619047Y-107724809D01*
X32619047Y-107962904D02*
X32904761Y-107962904D01*
X32904761Y-108224809D02*
X32904761Y-107724809D01*
X33357143Y-107724809D02*
X33261905Y-107724809D01*
X33261905Y-107724809D02*
X33214286Y-107748619D01*
X33214286Y-107748619D02*
X33190476Y-107772428D01*
X33190476Y-107772428D02*
X33142857Y-107843857D01*
X33142857Y-107843857D02*
X33119048Y-107939095D01*
X33119048Y-107939095D02*
X33119048Y-108129571D01*
X33119048Y-108129571D02*
X33142857Y-108177190D01*
X33142857Y-108177190D02*
X33166667Y-108201000D01*
X33166667Y-108201000D02*
X33214286Y-108224809D01*
X33214286Y-108224809D02*
X33309524Y-108224809D01*
X33309524Y-108224809D02*
X33357143Y-108201000D01*
X33357143Y-108201000D02*
X33380952Y-108177190D01*
X33380952Y-108177190D02*
X33404762Y-108129571D01*
X33404762Y-108129571D02*
X33404762Y-108010523D01*
X33404762Y-108010523D02*
X33380952Y-107962904D01*
X33380952Y-107962904D02*
X33357143Y-107939095D01*
X33357143Y-107939095D02*
X33309524Y-107915285D01*
X33309524Y-107915285D02*
X33214286Y-107915285D01*
X33214286Y-107915285D02*
X33166667Y-107939095D01*
X33166667Y-107939095D02*
X33142857Y-107962904D01*
X33142857Y-107962904D02*
X33119048Y-108010523D01*
X75619047Y-138962468D02*
X75619047Y-138557706D01*
X75619047Y-138557706D02*
X75595237Y-138510087D01*
X75595237Y-138510087D02*
X75571428Y-138486278D01*
X75571428Y-138486278D02*
X75523809Y-138462468D01*
X75523809Y-138462468D02*
X75428571Y-138462468D01*
X75428571Y-138462468D02*
X75380952Y-138486278D01*
X75380952Y-138486278D02*
X75357142Y-138510087D01*
X75357142Y-138510087D02*
X75333333Y-138557706D01*
X75333333Y-138557706D02*
X75333333Y-138962468D01*
X74833332Y-138462468D02*
X75119046Y-138462468D01*
X74976189Y-138462468D02*
X74976189Y-138962468D01*
X74976189Y-138962468D02*
X75023808Y-138891039D01*
X75023808Y-138891039D02*
X75071427Y-138843420D01*
X75071427Y-138843420D02*
X75119046Y-138819611D01*
X74404761Y-138795801D02*
X74404761Y-138462468D01*
X74523809Y-138986278D02*
X74642856Y-138629135D01*
X74642856Y-138629135D02*
X74333333Y-138629135D01*
X75806547Y-138725594D02*
X74150591Y-138725594D01*
X32619047Y-177224809D02*
X32619047Y-176724809D01*
X32619047Y-176962904D02*
X32904761Y-176962904D01*
X32904761Y-177224809D02*
X32904761Y-176724809D01*
X33357143Y-176891476D02*
X33357143Y-177224809D01*
X33238095Y-176701000D02*
X33119048Y-177058142D01*
X33119048Y-177058142D02*
X33428571Y-177058142D01*
X116619047Y-177224809D02*
X116619047Y-176724809D01*
X116619047Y-176962904D02*
X116904761Y-176962904D01*
X116904761Y-177224809D02*
X116904761Y-176724809D01*
X117095238Y-176724809D02*
X117404762Y-176724809D01*
X117404762Y-176724809D02*
X117238095Y-176915285D01*
X117238095Y-176915285D02*
X117309524Y-176915285D01*
X117309524Y-176915285D02*
X117357143Y-176939095D01*
X117357143Y-176939095D02*
X117380952Y-176962904D01*
X117380952Y-176962904D02*
X117404762Y-177010523D01*
X117404762Y-177010523D02*
X117404762Y-177129571D01*
X117404762Y-177129571D02*
X117380952Y-177177190D01*
X117380952Y-177177190D02*
X117357143Y-177201000D01*
X117357143Y-177201000D02*
X117309524Y-177224809D01*
X117309524Y-177224809D02*
X117166667Y-177224809D01*
X117166667Y-177224809D02*
X117119048Y-177201000D01*
X117119048Y-177201000D02*
X117095238Y-177177190D01*
D11*
%TO.C,D15*%
X45156202Y-164959999D02*
X48956202Y-164959999D01*
X45156202Y-165859999D02*
X45156202Y-164959999D01*
X48956202Y-164959999D02*
X48956202Y-165859999D01*
X48956202Y-165859999D02*
X45156202Y-165859999D01*
%TO.C,D16*%
X59165002Y-164959999D02*
X62965002Y-164959999D01*
X59165002Y-165859999D02*
X59165002Y-164959999D01*
X62965002Y-164959999D02*
X62965002Y-165859999D01*
X62965002Y-165859999D02*
X59165002Y-165859999D01*
%TO.C,D18*%
X101015002Y-164959999D02*
X104815002Y-164959999D01*
X101015002Y-165859999D02*
X101015002Y-164959999D01*
X104815002Y-164959999D02*
X104815002Y-165859999D01*
X104815002Y-165859999D02*
X101015002Y-165859999D01*
%TO.C,D22*%
X102315002Y-111489999D02*
X106115002Y-111489999D01*
X102315002Y-112389999D02*
X102315002Y-111489999D01*
X106115002Y-111489999D02*
X106115002Y-112389999D01*
X106115002Y-112389999D02*
X102315002Y-112389999D01*
%TO.C,D21*%
X87700002Y-111484999D02*
X91500002Y-111484999D01*
X87700002Y-112384999D02*
X87700002Y-111484999D01*
X91500002Y-111484999D02*
X91500002Y-112384999D01*
X91500002Y-112384999D02*
X87700002Y-112384999D01*
D12*
%TO.C,U14*%
X75750000Y-138687278D02*
G75*
G02*
X74250000Y-138687278I-750000J0D01*
G01*
X74250000Y-138687278D02*
G75*
G02*
X75750000Y-138687278I750000J0D01*
G01*
X75750000Y-138687278D02*
G75*
G02*
X74250000Y-138687278I-750000J0D01*
G01*
X74250000Y-138687278D02*
G75*
G02*
X75750000Y-138687278I750000J0D01*
G01*
D11*
%TO.C,D20*%
X58500002Y-111489999D02*
X62300002Y-111489999D01*
X58500002Y-112389999D02*
X58500002Y-111489999D01*
X62300002Y-111489999D02*
X62300002Y-112389999D01*
X62300002Y-112389999D02*
X58500002Y-112389999D01*
%TO.C,D19*%
X43909754Y-111487538D02*
X47709754Y-111487538D01*
X43909754Y-112387538D02*
X43909754Y-111487538D01*
X47709754Y-111487538D02*
X47709754Y-112387538D01*
X47709754Y-112387538D02*
X43909754Y-112387538D01*
%TO.C,D17*%
X87165002Y-164959999D02*
X90965002Y-164959999D01*
X87165002Y-165859999D02*
X87165002Y-164959999D01*
X90965002Y-164959999D02*
X90965002Y-165859999D01*
X90965002Y-165859999D02*
X87165002Y-165859999D01*
%TD*%
D12*
X73952447Y-137641005D02*
X76044998Y-139733550D01*
X73952447Y-139733550D02*
X76044998Y-137641005D01*
M02*
