%TF.GenerationSoftware,KiCad,Pcbnew,9.0.4*%
%TF.CreationDate,2025-09-18T14:59:59+02:00*%
%TF.ProjectId,blackpants,626c6163-6b70-4616-9e74-732e6b696361,V2.5*%
%TF.SameCoordinates,Original*%
%TF.FileFunction,Legend,Bot*%
%TF.FilePolarity,Positive*%
%FSLAX46Y46*%
G04 Gerber Fmt 4.6, Leading zero omitted, Abs format (unit mm)*
G04 Created by KiCad (PCBNEW 9.0.4) date 2025-09-18 14:59:59*
%MOMM*%
%LPD*%
G01*
G04 APERTURE LIST*
%ADD10C,0.800000*%
%ADD11C,0.100000*%
%ADD12C,0.125000*%
%ADD13C,0.160000*%
%ADD14C,0.150000*%
%ADD15C,0.120000*%
%ADD16C,0.127000*%
%ADD17C,0.200000*%
G04 APERTURE END LIST*
D10*
X36404761Y-148566733D02*
X32595238Y-148566733D01*
X34499999Y-150471495D02*
X34499999Y-146661971D01*
D11*
X70200000Y-90700000D02*
X70900000Y-91400000D01*
D12*
X107880952Y-66098619D02*
X107928571Y-66074809D01*
X107928571Y-66074809D02*
X108000000Y-66074809D01*
X108000000Y-66074809D02*
X108071428Y-66098619D01*
X108071428Y-66098619D02*
X108119047Y-66146238D01*
X108119047Y-66146238D02*
X108142857Y-66193857D01*
X108142857Y-66193857D02*
X108166666Y-66289095D01*
X108166666Y-66289095D02*
X108166666Y-66360523D01*
X108166666Y-66360523D02*
X108142857Y-66455761D01*
X108142857Y-66455761D02*
X108119047Y-66503380D01*
X108119047Y-66503380D02*
X108071428Y-66551000D01*
X108071428Y-66551000D02*
X108000000Y-66574809D01*
X108000000Y-66574809D02*
X107952381Y-66574809D01*
X107952381Y-66574809D02*
X107880952Y-66551000D01*
X107880952Y-66551000D02*
X107857143Y-66527190D01*
X107857143Y-66527190D02*
X107857143Y-66360523D01*
X107857143Y-66360523D02*
X107952381Y-66360523D01*
X107642857Y-66574809D02*
X107642857Y-66074809D01*
X107642857Y-66074809D02*
X107357143Y-66574809D01*
X107357143Y-66574809D02*
X107357143Y-66074809D01*
X107119047Y-66574809D02*
X107119047Y-66074809D01*
X107119047Y-66074809D02*
X106999999Y-66074809D01*
X106999999Y-66074809D02*
X106928571Y-66098619D01*
X106928571Y-66098619D02*
X106880952Y-66146238D01*
X106880952Y-66146238D02*
X106857142Y-66193857D01*
X106857142Y-66193857D02*
X106833333Y-66289095D01*
X106833333Y-66289095D02*
X106833333Y-66360523D01*
X106833333Y-66360523D02*
X106857142Y-66455761D01*
X106857142Y-66455761D02*
X106880952Y-66503380D01*
X106880952Y-66503380D02*
X106928571Y-66551000D01*
X106928571Y-66551000D02*
X106999999Y-66574809D01*
X106999999Y-66574809D02*
X107119047Y-66574809D01*
D13*
X117855820Y-56714786D02*
X117855820Y-56257643D01*
X117855820Y-56486215D02*
X117055820Y-56486215D01*
X117055820Y-56486215D02*
X117170105Y-56410024D01*
X117170105Y-56410024D02*
X117246296Y-56333834D01*
X117246296Y-56333834D02*
X117284391Y-56257643D01*
X117322486Y-57133834D02*
X117779629Y-57590977D01*
X117322486Y-57590977D02*
X117779629Y-57133834D01*
X117551058Y-58657644D02*
X117551058Y-59267168D01*
X117703439Y-59114787D02*
X117551058Y-59267168D01*
X117551058Y-59267168D02*
X117398677Y-59114787D01*
X117055820Y-60410025D02*
X117055820Y-60562406D01*
X117055820Y-60562406D02*
X117093915Y-60638596D01*
X117093915Y-60638596D02*
X117170105Y-60714787D01*
X117170105Y-60714787D02*
X117322486Y-60752882D01*
X117322486Y-60752882D02*
X117589153Y-60752882D01*
X117589153Y-60752882D02*
X117741534Y-60714787D01*
X117741534Y-60714787D02*
X117817725Y-60638596D01*
X117817725Y-60638596D02*
X117855820Y-60562406D01*
X117855820Y-60562406D02*
X117855820Y-60410025D01*
X117855820Y-60410025D02*
X117817725Y-60333834D01*
X117817725Y-60333834D02*
X117741534Y-60257644D01*
X117741534Y-60257644D02*
X117589153Y-60219548D01*
X117589153Y-60219548D02*
X117322486Y-60219548D01*
X117322486Y-60219548D02*
X117170105Y-60257644D01*
X117170105Y-60257644D02*
X117093915Y-60333834D01*
X117093915Y-60333834D02*
X117055820Y-60410025D01*
X117855820Y-61095739D02*
X117055820Y-61095739D01*
X117055820Y-61095739D02*
X117855820Y-61552882D01*
X117855820Y-61552882D02*
X117055820Y-61552882D01*
X118419965Y-56257643D02*
X118381870Y-56295739D01*
X118381870Y-56295739D02*
X118343775Y-56371929D01*
X118343775Y-56371929D02*
X118343775Y-56562405D01*
X118343775Y-56562405D02*
X118381870Y-56638596D01*
X118381870Y-56638596D02*
X118419965Y-56676691D01*
X118419965Y-56676691D02*
X118496156Y-56714786D01*
X118496156Y-56714786D02*
X118572346Y-56714786D01*
X118572346Y-56714786D02*
X118686632Y-56676691D01*
X118686632Y-56676691D02*
X119143775Y-56219548D01*
X119143775Y-56219548D02*
X119143775Y-56714786D01*
X118610441Y-57133834D02*
X119067584Y-57590977D01*
X118610441Y-57590977D02*
X119067584Y-57133834D01*
X118839013Y-58657644D02*
X118839013Y-59267168D01*
X118991394Y-59114787D02*
X118839013Y-59267168D01*
X118839013Y-59267168D02*
X118686632Y-59114787D01*
X118343775Y-60410025D02*
X118343775Y-60562406D01*
X118343775Y-60562406D02*
X118381870Y-60638596D01*
X118381870Y-60638596D02*
X118458060Y-60714787D01*
X118458060Y-60714787D02*
X118610441Y-60752882D01*
X118610441Y-60752882D02*
X118877108Y-60752882D01*
X118877108Y-60752882D02*
X119029489Y-60714787D01*
X119029489Y-60714787D02*
X119105680Y-60638596D01*
X119105680Y-60638596D02*
X119143775Y-60562406D01*
X119143775Y-60562406D02*
X119143775Y-60410025D01*
X119143775Y-60410025D02*
X119105680Y-60333834D01*
X119105680Y-60333834D02*
X119029489Y-60257644D01*
X119029489Y-60257644D02*
X118877108Y-60219548D01*
X118877108Y-60219548D02*
X118610441Y-60219548D01*
X118610441Y-60219548D02*
X118458060Y-60257644D01*
X118458060Y-60257644D02*
X118381870Y-60333834D01*
X118381870Y-60333834D02*
X118343775Y-60410025D01*
X118724727Y-61362405D02*
X118724727Y-61095739D01*
X119143775Y-61095739D02*
X118343775Y-61095739D01*
X118343775Y-61095739D02*
X118343775Y-61476691D01*
X118724727Y-62048119D02*
X118724727Y-61781453D01*
X119143775Y-61781453D02*
X118343775Y-61781453D01*
X118343775Y-61781453D02*
X118343775Y-62162405D01*
D12*
X107940476Y-62074809D02*
X107940476Y-61574809D01*
X107940476Y-61574809D02*
X107821428Y-61574809D01*
X107821428Y-61574809D02*
X107750000Y-61598619D01*
X107750000Y-61598619D02*
X107702381Y-61646238D01*
X107702381Y-61646238D02*
X107678571Y-61693857D01*
X107678571Y-61693857D02*
X107654762Y-61789095D01*
X107654762Y-61789095D02*
X107654762Y-61860523D01*
X107654762Y-61860523D02*
X107678571Y-61955761D01*
X107678571Y-61955761D02*
X107702381Y-62003380D01*
X107702381Y-62003380D02*
X107750000Y-62051000D01*
X107750000Y-62051000D02*
X107821428Y-62074809D01*
X107821428Y-62074809D02*
X107940476Y-62074809D01*
X107440476Y-61884333D02*
X107059524Y-61884333D01*
X108142856Y-59384333D02*
X107761904Y-59384333D01*
X107952380Y-59574809D02*
X107952380Y-59193857D01*
X107285713Y-59074809D02*
X107523808Y-59074809D01*
X107523808Y-59074809D02*
X107547617Y-59312904D01*
X107547617Y-59312904D02*
X107523808Y-59289095D01*
X107523808Y-59289095D02*
X107476189Y-59265285D01*
X107476189Y-59265285D02*
X107357141Y-59265285D01*
X107357141Y-59265285D02*
X107309522Y-59289095D01*
X107309522Y-59289095D02*
X107285713Y-59312904D01*
X107285713Y-59312904D02*
X107261903Y-59360523D01*
X107261903Y-59360523D02*
X107261903Y-59479571D01*
X107261903Y-59479571D02*
X107285713Y-59527190D01*
X107285713Y-59527190D02*
X107309522Y-59551000D01*
X107309522Y-59551000D02*
X107357141Y-59574809D01*
X107357141Y-59574809D02*
X107476189Y-59574809D01*
X107476189Y-59574809D02*
X107523808Y-59551000D01*
X107523808Y-59551000D02*
X107547617Y-59527190D01*
X107119046Y-59074809D02*
X106952380Y-59574809D01*
X106952380Y-59574809D02*
X106785713Y-59074809D01*
X107940476Y-64074809D02*
X107940476Y-63574809D01*
X107940476Y-63574809D02*
X107821428Y-63574809D01*
X107821428Y-63574809D02*
X107750000Y-63598619D01*
X107750000Y-63598619D02*
X107702381Y-63646238D01*
X107702381Y-63646238D02*
X107678571Y-63693857D01*
X107678571Y-63693857D02*
X107654762Y-63789095D01*
X107654762Y-63789095D02*
X107654762Y-63860523D01*
X107654762Y-63860523D02*
X107678571Y-63955761D01*
X107678571Y-63955761D02*
X107702381Y-64003380D01*
X107702381Y-64003380D02*
X107750000Y-64051000D01*
X107750000Y-64051000D02*
X107821428Y-64074809D01*
X107821428Y-64074809D02*
X107940476Y-64074809D01*
X107440476Y-63884333D02*
X107059524Y-63884333D01*
X107250000Y-64074809D02*
X107250000Y-63693857D01*
X69321428Y-96424809D02*
X69488094Y-96186714D01*
X69607142Y-96424809D02*
X69607142Y-95924809D01*
X69607142Y-95924809D02*
X69416666Y-95924809D01*
X69416666Y-95924809D02*
X69369047Y-95948619D01*
X69369047Y-95948619D02*
X69345237Y-95972428D01*
X69345237Y-95972428D02*
X69321428Y-96020047D01*
X69321428Y-96020047D02*
X69321428Y-96091476D01*
X69321428Y-96091476D02*
X69345237Y-96139095D01*
X69345237Y-96139095D02*
X69369047Y-96162904D01*
X69369047Y-96162904D02*
X69416666Y-96186714D01*
X69416666Y-96186714D02*
X69607142Y-96186714D01*
X69130951Y-95972428D02*
X69107142Y-95948619D01*
X69107142Y-95948619D02*
X69059523Y-95924809D01*
X69059523Y-95924809D02*
X68940475Y-95924809D01*
X68940475Y-95924809D02*
X68892856Y-95948619D01*
X68892856Y-95948619D02*
X68869047Y-95972428D01*
X68869047Y-95972428D02*
X68845237Y-96020047D01*
X68845237Y-96020047D02*
X68845237Y-96067666D01*
X68845237Y-96067666D02*
X68869047Y-96139095D01*
X68869047Y-96139095D02*
X69154761Y-96424809D01*
X69154761Y-96424809D02*
X68845237Y-96424809D01*
X68559523Y-96139095D02*
X68607142Y-96115285D01*
X68607142Y-96115285D02*
X68630952Y-96091476D01*
X68630952Y-96091476D02*
X68654761Y-96043857D01*
X68654761Y-96043857D02*
X68654761Y-96020047D01*
X68654761Y-96020047D02*
X68630952Y-95972428D01*
X68630952Y-95972428D02*
X68607142Y-95948619D01*
X68607142Y-95948619D02*
X68559523Y-95924809D01*
X68559523Y-95924809D02*
X68464285Y-95924809D01*
X68464285Y-95924809D02*
X68416666Y-95948619D01*
X68416666Y-95948619D02*
X68392857Y-95972428D01*
X68392857Y-95972428D02*
X68369047Y-96020047D01*
X68369047Y-96020047D02*
X68369047Y-96043857D01*
X68369047Y-96043857D02*
X68392857Y-96091476D01*
X68392857Y-96091476D02*
X68416666Y-96115285D01*
X68416666Y-96115285D02*
X68464285Y-96139095D01*
X68464285Y-96139095D02*
X68559523Y-96139095D01*
X68559523Y-96139095D02*
X68607142Y-96162904D01*
X68607142Y-96162904D02*
X68630952Y-96186714D01*
X68630952Y-96186714D02*
X68654761Y-96234333D01*
X68654761Y-96234333D02*
X68654761Y-96329571D01*
X68654761Y-96329571D02*
X68630952Y-96377190D01*
X68630952Y-96377190D02*
X68607142Y-96401000D01*
X68607142Y-96401000D02*
X68559523Y-96424809D01*
X68559523Y-96424809D02*
X68464285Y-96424809D01*
X68464285Y-96424809D02*
X68416666Y-96401000D01*
X68416666Y-96401000D02*
X68392857Y-96377190D01*
X68392857Y-96377190D02*
X68369047Y-96329571D01*
X68369047Y-96329571D02*
X68369047Y-96234333D01*
X68369047Y-96234333D02*
X68392857Y-96186714D01*
X68392857Y-96186714D02*
X68416666Y-96162904D01*
X68416666Y-96162904D02*
X68464285Y-96139095D01*
X64621428Y-98324809D02*
X64788094Y-98086714D01*
X64907142Y-98324809D02*
X64907142Y-97824809D01*
X64907142Y-97824809D02*
X64716666Y-97824809D01*
X64716666Y-97824809D02*
X64669047Y-97848619D01*
X64669047Y-97848619D02*
X64645237Y-97872428D01*
X64645237Y-97872428D02*
X64621428Y-97920047D01*
X64621428Y-97920047D02*
X64621428Y-97991476D01*
X64621428Y-97991476D02*
X64645237Y-98039095D01*
X64645237Y-98039095D02*
X64669047Y-98062904D01*
X64669047Y-98062904D02*
X64716666Y-98086714D01*
X64716666Y-98086714D02*
X64907142Y-98086714D01*
X64430951Y-97872428D02*
X64407142Y-97848619D01*
X64407142Y-97848619D02*
X64359523Y-97824809D01*
X64359523Y-97824809D02*
X64240475Y-97824809D01*
X64240475Y-97824809D02*
X64192856Y-97848619D01*
X64192856Y-97848619D02*
X64169047Y-97872428D01*
X64169047Y-97872428D02*
X64145237Y-97920047D01*
X64145237Y-97920047D02*
X64145237Y-97967666D01*
X64145237Y-97967666D02*
X64169047Y-98039095D01*
X64169047Y-98039095D02*
X64454761Y-98324809D01*
X64454761Y-98324809D02*
X64145237Y-98324809D01*
X63978571Y-97824809D02*
X63645238Y-97824809D01*
X63645238Y-97824809D02*
X63859523Y-98324809D01*
X108878571Y-44822809D02*
X108854762Y-44799000D01*
X108854762Y-44799000D02*
X108783333Y-44775190D01*
X108783333Y-44775190D02*
X108735714Y-44775190D01*
X108735714Y-44775190D02*
X108664286Y-44799000D01*
X108664286Y-44799000D02*
X108616667Y-44846619D01*
X108616667Y-44846619D02*
X108592857Y-44894238D01*
X108592857Y-44894238D02*
X108569048Y-44989476D01*
X108569048Y-44989476D02*
X108569048Y-45060904D01*
X108569048Y-45060904D02*
X108592857Y-45156142D01*
X108592857Y-45156142D02*
X108616667Y-45203761D01*
X108616667Y-45203761D02*
X108664286Y-45251380D01*
X108664286Y-45251380D02*
X108735714Y-45275190D01*
X108735714Y-45275190D02*
X108783333Y-45275190D01*
X108783333Y-45275190D02*
X108854762Y-45251380D01*
X108854762Y-45251380D02*
X108878571Y-45227571D01*
X109307143Y-45108523D02*
X109307143Y-44775190D01*
X109188095Y-45299000D02*
X109069048Y-44941857D01*
X109069048Y-44941857D02*
X109378571Y-44941857D01*
X109521428Y-45275190D02*
X109854761Y-45275190D01*
X109854761Y-45275190D02*
X109640476Y-44775190D01*
X103821428Y-42077190D02*
X103845237Y-42101000D01*
X103845237Y-42101000D02*
X103916666Y-42124809D01*
X103916666Y-42124809D02*
X103964285Y-42124809D01*
X103964285Y-42124809D02*
X104035713Y-42101000D01*
X104035713Y-42101000D02*
X104083332Y-42053380D01*
X104083332Y-42053380D02*
X104107142Y-42005761D01*
X104107142Y-42005761D02*
X104130951Y-41910523D01*
X104130951Y-41910523D02*
X104130951Y-41839095D01*
X104130951Y-41839095D02*
X104107142Y-41743857D01*
X104107142Y-41743857D02*
X104083332Y-41696238D01*
X104083332Y-41696238D02*
X104035713Y-41648619D01*
X104035713Y-41648619D02*
X103964285Y-41624809D01*
X103964285Y-41624809D02*
X103916666Y-41624809D01*
X103916666Y-41624809D02*
X103845237Y-41648619D01*
X103845237Y-41648619D02*
X103821428Y-41672428D01*
X103345237Y-42124809D02*
X103630951Y-42124809D01*
X103488094Y-42124809D02*
X103488094Y-41624809D01*
X103488094Y-41624809D02*
X103535713Y-41696238D01*
X103535713Y-41696238D02*
X103583332Y-41743857D01*
X103583332Y-41743857D02*
X103630951Y-41767666D01*
X103107142Y-42124809D02*
X103011904Y-42124809D01*
X103011904Y-42124809D02*
X102964285Y-42101000D01*
X102964285Y-42101000D02*
X102940476Y-42077190D01*
X102940476Y-42077190D02*
X102892857Y-42005761D01*
X102892857Y-42005761D02*
X102869047Y-41910523D01*
X102869047Y-41910523D02*
X102869047Y-41720047D01*
X102869047Y-41720047D02*
X102892857Y-41672428D01*
X102892857Y-41672428D02*
X102916666Y-41648619D01*
X102916666Y-41648619D02*
X102964285Y-41624809D01*
X102964285Y-41624809D02*
X103059523Y-41624809D01*
X103059523Y-41624809D02*
X103107142Y-41648619D01*
X103107142Y-41648619D02*
X103130952Y-41672428D01*
X103130952Y-41672428D02*
X103154761Y-41720047D01*
X103154761Y-41720047D02*
X103154761Y-41839095D01*
X103154761Y-41839095D02*
X103130952Y-41886714D01*
X103130952Y-41886714D02*
X103107142Y-41910523D01*
X103107142Y-41910523D02*
X103059523Y-41934333D01*
X103059523Y-41934333D02*
X102964285Y-41934333D01*
X102964285Y-41934333D02*
X102916666Y-41910523D01*
X102916666Y-41910523D02*
X102892857Y-41886714D01*
X102892857Y-41886714D02*
X102869047Y-41839095D01*
X96077190Y-42178571D02*
X96101000Y-42154762D01*
X96101000Y-42154762D02*
X96124809Y-42083333D01*
X96124809Y-42083333D02*
X96124809Y-42035714D01*
X96124809Y-42035714D02*
X96101000Y-41964286D01*
X96101000Y-41964286D02*
X96053380Y-41916667D01*
X96053380Y-41916667D02*
X96005761Y-41892857D01*
X96005761Y-41892857D02*
X95910523Y-41869048D01*
X95910523Y-41869048D02*
X95839095Y-41869048D01*
X95839095Y-41869048D02*
X95743857Y-41892857D01*
X95743857Y-41892857D02*
X95696238Y-41916667D01*
X95696238Y-41916667D02*
X95648619Y-41964286D01*
X95648619Y-41964286D02*
X95624809Y-42035714D01*
X95624809Y-42035714D02*
X95624809Y-42083333D01*
X95624809Y-42083333D02*
X95648619Y-42154762D01*
X95648619Y-42154762D02*
X95672428Y-42178571D01*
X96124809Y-42654762D02*
X96124809Y-42369048D01*
X96124809Y-42511905D02*
X95624809Y-42511905D01*
X95624809Y-42511905D02*
X95696238Y-42464286D01*
X95696238Y-42464286D02*
X95743857Y-42416667D01*
X95743857Y-42416667D02*
X95767666Y-42369048D01*
X95624809Y-42821428D02*
X95624809Y-43154761D01*
X95624809Y-43154761D02*
X96124809Y-42940476D01*
X70577190Y-109816666D02*
X70601000Y-109792857D01*
X70601000Y-109792857D02*
X70624809Y-109721428D01*
X70624809Y-109721428D02*
X70624809Y-109673809D01*
X70624809Y-109673809D02*
X70601000Y-109602381D01*
X70601000Y-109602381D02*
X70553380Y-109554762D01*
X70553380Y-109554762D02*
X70505761Y-109530952D01*
X70505761Y-109530952D02*
X70410523Y-109507143D01*
X70410523Y-109507143D02*
X70339095Y-109507143D01*
X70339095Y-109507143D02*
X70243857Y-109530952D01*
X70243857Y-109530952D02*
X70196238Y-109554762D01*
X70196238Y-109554762D02*
X70148619Y-109602381D01*
X70148619Y-109602381D02*
X70124809Y-109673809D01*
X70124809Y-109673809D02*
X70124809Y-109721428D01*
X70124809Y-109721428D02*
X70148619Y-109792857D01*
X70148619Y-109792857D02*
X70172428Y-109816666D01*
X70124809Y-109983333D02*
X70124809Y-110316666D01*
X70124809Y-110316666D02*
X70624809Y-110102381D01*
D11*
X105526109Y-63683333D02*
X105883252Y-63683333D01*
X105883252Y-63683333D02*
X105954680Y-63659524D01*
X105954680Y-63659524D02*
X106002300Y-63611905D01*
X106002300Y-63611905D02*
X106026109Y-63540476D01*
X106026109Y-63540476D02*
X106026109Y-63492857D01*
X106026109Y-63945238D02*
X106026109Y-64040476D01*
X106026109Y-64040476D02*
X106002300Y-64088095D01*
X106002300Y-64088095D02*
X105978490Y-64111904D01*
X105978490Y-64111904D02*
X105907061Y-64159523D01*
X105907061Y-64159523D02*
X105811823Y-64183333D01*
X105811823Y-64183333D02*
X105621347Y-64183333D01*
X105621347Y-64183333D02*
X105573728Y-64159523D01*
X105573728Y-64159523D02*
X105549919Y-64135714D01*
X105549919Y-64135714D02*
X105526109Y-64088095D01*
X105526109Y-64088095D02*
X105526109Y-63992857D01*
X105526109Y-63992857D02*
X105549919Y-63945238D01*
X105549919Y-63945238D02*
X105573728Y-63921428D01*
X105573728Y-63921428D02*
X105621347Y-63897619D01*
X105621347Y-63897619D02*
X105740395Y-63897619D01*
X105740395Y-63897619D02*
X105788014Y-63921428D01*
X105788014Y-63921428D02*
X105811823Y-63945238D01*
X105811823Y-63945238D02*
X105835633Y-63992857D01*
X105835633Y-63992857D02*
X105835633Y-64088095D01*
X105835633Y-64088095D02*
X105811823Y-64135714D01*
X105811823Y-64135714D02*
X105788014Y-64159523D01*
X105788014Y-64159523D02*
X105740395Y-64183333D01*
D12*
X109924809Y-54433333D02*
X110281952Y-54433333D01*
X110281952Y-54433333D02*
X110353380Y-54409524D01*
X110353380Y-54409524D02*
X110401000Y-54361905D01*
X110401000Y-54361905D02*
X110424809Y-54290476D01*
X110424809Y-54290476D02*
X110424809Y-54242857D01*
X110139095Y-54742857D02*
X110115285Y-54695238D01*
X110115285Y-54695238D02*
X110091476Y-54671428D01*
X110091476Y-54671428D02*
X110043857Y-54647619D01*
X110043857Y-54647619D02*
X110020047Y-54647619D01*
X110020047Y-54647619D02*
X109972428Y-54671428D01*
X109972428Y-54671428D02*
X109948619Y-54695238D01*
X109948619Y-54695238D02*
X109924809Y-54742857D01*
X109924809Y-54742857D02*
X109924809Y-54838095D01*
X109924809Y-54838095D02*
X109948619Y-54885714D01*
X109948619Y-54885714D02*
X109972428Y-54909523D01*
X109972428Y-54909523D02*
X110020047Y-54933333D01*
X110020047Y-54933333D02*
X110043857Y-54933333D01*
X110043857Y-54933333D02*
X110091476Y-54909523D01*
X110091476Y-54909523D02*
X110115285Y-54885714D01*
X110115285Y-54885714D02*
X110139095Y-54838095D01*
X110139095Y-54838095D02*
X110139095Y-54742857D01*
X110139095Y-54742857D02*
X110162904Y-54695238D01*
X110162904Y-54695238D02*
X110186714Y-54671428D01*
X110186714Y-54671428D02*
X110234333Y-54647619D01*
X110234333Y-54647619D02*
X110329571Y-54647619D01*
X110329571Y-54647619D02*
X110377190Y-54671428D01*
X110377190Y-54671428D02*
X110401000Y-54695238D01*
X110401000Y-54695238D02*
X110424809Y-54742857D01*
X110424809Y-54742857D02*
X110424809Y-54838095D01*
X110424809Y-54838095D02*
X110401000Y-54885714D01*
X110401000Y-54885714D02*
X110377190Y-54909523D01*
X110377190Y-54909523D02*
X110329571Y-54933333D01*
X110329571Y-54933333D02*
X110234333Y-54933333D01*
X110234333Y-54933333D02*
X110186714Y-54909523D01*
X110186714Y-54909523D02*
X110162904Y-54885714D01*
X110162904Y-54885714D02*
X110139095Y-54838095D01*
D11*
X105526109Y-65895238D02*
X105883252Y-65895238D01*
X105883252Y-65895238D02*
X105954680Y-65871429D01*
X105954680Y-65871429D02*
X106002300Y-65823810D01*
X106002300Y-65823810D02*
X106026109Y-65752381D01*
X106026109Y-65752381D02*
X106026109Y-65704762D01*
X106026109Y-66395238D02*
X106026109Y-66109524D01*
X106026109Y-66252381D02*
X105526109Y-66252381D01*
X105526109Y-66252381D02*
X105597538Y-66204762D01*
X105597538Y-66204762D02*
X105645157Y-66157143D01*
X105645157Y-66157143D02*
X105668966Y-66109524D01*
X105526109Y-66704761D02*
X105526109Y-66752380D01*
X105526109Y-66752380D02*
X105549919Y-66799999D01*
X105549919Y-66799999D02*
X105573728Y-66823809D01*
X105573728Y-66823809D02*
X105621347Y-66847618D01*
X105621347Y-66847618D02*
X105716585Y-66871428D01*
X105716585Y-66871428D02*
X105835633Y-66871428D01*
X105835633Y-66871428D02*
X105930871Y-66847618D01*
X105930871Y-66847618D02*
X105978490Y-66823809D01*
X105978490Y-66823809D02*
X106002300Y-66799999D01*
X106002300Y-66799999D02*
X106026109Y-66752380D01*
X106026109Y-66752380D02*
X106026109Y-66704761D01*
X106026109Y-66704761D02*
X106002300Y-66657142D01*
X106002300Y-66657142D02*
X105978490Y-66633333D01*
X105978490Y-66633333D02*
X105930871Y-66609523D01*
X105930871Y-66609523D02*
X105835633Y-66585714D01*
X105835633Y-66585714D02*
X105716585Y-66585714D01*
X105716585Y-66585714D02*
X105621347Y-66609523D01*
X105621347Y-66609523D02*
X105573728Y-66633333D01*
X105573728Y-66633333D02*
X105549919Y-66657142D01*
X105549919Y-66657142D02*
X105526109Y-66704761D01*
D12*
X77477190Y-86978571D02*
X77501000Y-86954762D01*
X77501000Y-86954762D02*
X77524809Y-86883333D01*
X77524809Y-86883333D02*
X77524809Y-86835714D01*
X77524809Y-86835714D02*
X77501000Y-86764286D01*
X77501000Y-86764286D02*
X77453380Y-86716667D01*
X77453380Y-86716667D02*
X77405761Y-86692857D01*
X77405761Y-86692857D02*
X77310523Y-86669048D01*
X77310523Y-86669048D02*
X77239095Y-86669048D01*
X77239095Y-86669048D02*
X77143857Y-86692857D01*
X77143857Y-86692857D02*
X77096238Y-86716667D01*
X77096238Y-86716667D02*
X77048619Y-86764286D01*
X77048619Y-86764286D02*
X77024809Y-86835714D01*
X77024809Y-86835714D02*
X77024809Y-86883333D01*
X77024809Y-86883333D02*
X77048619Y-86954762D01*
X77048619Y-86954762D02*
X77072428Y-86978571D01*
X77024809Y-87145238D02*
X77024809Y-87454762D01*
X77024809Y-87454762D02*
X77215285Y-87288095D01*
X77215285Y-87288095D02*
X77215285Y-87359524D01*
X77215285Y-87359524D02*
X77239095Y-87407143D01*
X77239095Y-87407143D02*
X77262904Y-87430952D01*
X77262904Y-87430952D02*
X77310523Y-87454762D01*
X77310523Y-87454762D02*
X77429571Y-87454762D01*
X77429571Y-87454762D02*
X77477190Y-87430952D01*
X77477190Y-87430952D02*
X77501000Y-87407143D01*
X77501000Y-87407143D02*
X77524809Y-87359524D01*
X77524809Y-87359524D02*
X77524809Y-87216667D01*
X77524809Y-87216667D02*
X77501000Y-87169048D01*
X77501000Y-87169048D02*
X77477190Y-87145238D01*
X77024809Y-87764285D02*
X77024809Y-87811904D01*
X77024809Y-87811904D02*
X77048619Y-87859523D01*
X77048619Y-87859523D02*
X77072428Y-87883333D01*
X77072428Y-87883333D02*
X77120047Y-87907142D01*
X77120047Y-87907142D02*
X77215285Y-87930952D01*
X77215285Y-87930952D02*
X77334333Y-87930952D01*
X77334333Y-87930952D02*
X77429571Y-87907142D01*
X77429571Y-87907142D02*
X77477190Y-87883333D01*
X77477190Y-87883333D02*
X77501000Y-87859523D01*
X77501000Y-87859523D02*
X77524809Y-87811904D01*
X77524809Y-87811904D02*
X77524809Y-87764285D01*
X77524809Y-87764285D02*
X77501000Y-87716666D01*
X77501000Y-87716666D02*
X77477190Y-87692857D01*
X77477190Y-87692857D02*
X77429571Y-87669047D01*
X77429571Y-87669047D02*
X77334333Y-87645238D01*
X77334333Y-87645238D02*
X77215285Y-87645238D01*
X77215285Y-87645238D02*
X77120047Y-87669047D01*
X77120047Y-87669047D02*
X77072428Y-87692857D01*
X77072428Y-87692857D02*
X77048619Y-87716666D01*
X77048619Y-87716666D02*
X77024809Y-87764285D01*
X103580952Y-100524809D02*
X103580952Y-100929571D01*
X103580952Y-100929571D02*
X103557142Y-100977190D01*
X103557142Y-100977190D02*
X103533333Y-101001000D01*
X103533333Y-101001000D02*
X103485714Y-101024809D01*
X103485714Y-101024809D02*
X103390476Y-101024809D01*
X103390476Y-101024809D02*
X103342857Y-101001000D01*
X103342857Y-101001000D02*
X103319047Y-100977190D01*
X103319047Y-100977190D02*
X103295238Y-100929571D01*
X103295238Y-100929571D02*
X103295238Y-100524809D01*
X102842856Y-100524809D02*
X102938094Y-100524809D01*
X102938094Y-100524809D02*
X102985713Y-100548619D01*
X102985713Y-100548619D02*
X103009523Y-100572428D01*
X103009523Y-100572428D02*
X103057142Y-100643857D01*
X103057142Y-100643857D02*
X103080951Y-100739095D01*
X103080951Y-100739095D02*
X103080951Y-100929571D01*
X103080951Y-100929571D02*
X103057142Y-100977190D01*
X103057142Y-100977190D02*
X103033332Y-101001000D01*
X103033332Y-101001000D02*
X102985713Y-101024809D01*
X102985713Y-101024809D02*
X102890475Y-101024809D01*
X102890475Y-101024809D02*
X102842856Y-101001000D01*
X102842856Y-101001000D02*
X102819047Y-100977190D01*
X102819047Y-100977190D02*
X102795237Y-100929571D01*
X102795237Y-100929571D02*
X102795237Y-100810523D01*
X102795237Y-100810523D02*
X102819047Y-100762904D01*
X102819047Y-100762904D02*
X102842856Y-100739095D01*
X102842856Y-100739095D02*
X102890475Y-100715285D01*
X102890475Y-100715285D02*
X102985713Y-100715285D01*
X102985713Y-100715285D02*
X103033332Y-100739095D01*
X103033332Y-100739095D02*
X103057142Y-100762904D01*
X103057142Y-100762904D02*
X103080951Y-100810523D01*
X78321428Y-104677190D02*
X78345237Y-104701000D01*
X78345237Y-104701000D02*
X78416666Y-104724809D01*
X78416666Y-104724809D02*
X78464285Y-104724809D01*
X78464285Y-104724809D02*
X78535713Y-104701000D01*
X78535713Y-104701000D02*
X78583332Y-104653380D01*
X78583332Y-104653380D02*
X78607142Y-104605761D01*
X78607142Y-104605761D02*
X78630951Y-104510523D01*
X78630951Y-104510523D02*
X78630951Y-104439095D01*
X78630951Y-104439095D02*
X78607142Y-104343857D01*
X78607142Y-104343857D02*
X78583332Y-104296238D01*
X78583332Y-104296238D02*
X78535713Y-104248619D01*
X78535713Y-104248619D02*
X78464285Y-104224809D01*
X78464285Y-104224809D02*
X78416666Y-104224809D01*
X78416666Y-104224809D02*
X78345237Y-104248619D01*
X78345237Y-104248619D02*
X78321428Y-104272428D01*
X77845237Y-104724809D02*
X78130951Y-104724809D01*
X77988094Y-104724809D02*
X77988094Y-104224809D01*
X77988094Y-104224809D02*
X78035713Y-104296238D01*
X78035713Y-104296238D02*
X78083332Y-104343857D01*
X78083332Y-104343857D02*
X78130951Y-104367666D01*
X77678571Y-104224809D02*
X77369047Y-104224809D01*
X77369047Y-104224809D02*
X77535714Y-104415285D01*
X77535714Y-104415285D02*
X77464285Y-104415285D01*
X77464285Y-104415285D02*
X77416666Y-104439095D01*
X77416666Y-104439095D02*
X77392857Y-104462904D01*
X77392857Y-104462904D02*
X77369047Y-104510523D01*
X77369047Y-104510523D02*
X77369047Y-104629571D01*
X77369047Y-104629571D02*
X77392857Y-104677190D01*
X77392857Y-104677190D02*
X77416666Y-104701000D01*
X77416666Y-104701000D02*
X77464285Y-104724809D01*
X77464285Y-104724809D02*
X77607142Y-104724809D01*
X77607142Y-104724809D02*
X77654761Y-104701000D01*
X77654761Y-104701000D02*
X77678571Y-104677190D01*
X41137095Y-178266665D02*
X41137095Y-178433332D01*
X40875190Y-178433332D02*
X41375190Y-178433332D01*
X41375190Y-178433332D02*
X41375190Y-178195237D01*
X40875190Y-177742856D02*
X40875190Y-178028570D01*
X40875190Y-177885713D02*
X41375190Y-177885713D01*
X41375190Y-177885713D02*
X41303761Y-177933332D01*
X41303761Y-177933332D02*
X41256142Y-177980951D01*
X41256142Y-177980951D02*
X41232333Y-178028570D01*
X59952380Y-174827571D02*
X59904761Y-174851380D01*
X59904761Y-174851380D02*
X59857142Y-174899000D01*
X59857142Y-174899000D02*
X59785714Y-174970428D01*
X59785714Y-174970428D02*
X59738095Y-174994238D01*
X59738095Y-174994238D02*
X59690476Y-174994238D01*
X59714285Y-174875190D02*
X59666666Y-174899000D01*
X59666666Y-174899000D02*
X59619047Y-174946619D01*
X59619047Y-174946619D02*
X59595238Y-175041857D01*
X59595238Y-175041857D02*
X59595238Y-175208523D01*
X59595238Y-175208523D02*
X59619047Y-175303761D01*
X59619047Y-175303761D02*
X59666666Y-175351380D01*
X59666666Y-175351380D02*
X59714285Y-175375190D01*
X59714285Y-175375190D02*
X59809523Y-175375190D01*
X59809523Y-175375190D02*
X59857142Y-175351380D01*
X59857142Y-175351380D02*
X59904761Y-175303761D01*
X59904761Y-175303761D02*
X59928571Y-175208523D01*
X59928571Y-175208523D02*
X59928571Y-175041857D01*
X59928571Y-175041857D02*
X59904761Y-174946619D01*
X59904761Y-174946619D02*
X59857142Y-174899000D01*
X59857142Y-174899000D02*
X59809523Y-174875190D01*
X59809523Y-174875190D02*
X59714285Y-174875190D01*
X60404762Y-174875190D02*
X60119048Y-174875190D01*
X60261905Y-174875190D02*
X60261905Y-175375190D01*
X60261905Y-175375190D02*
X60214286Y-175303761D01*
X60214286Y-175303761D02*
X60166667Y-175256142D01*
X60166667Y-175256142D02*
X60119048Y-175232333D01*
X81978094Y-101686714D02*
X81978094Y-101924809D01*
X82144760Y-101424809D02*
X81978094Y-101686714D01*
X81978094Y-101686714D02*
X81811427Y-101424809D01*
X81382856Y-101924809D02*
X81668570Y-101924809D01*
X81525713Y-101924809D02*
X81525713Y-101424809D01*
X81525713Y-101424809D02*
X81573332Y-101496238D01*
X81573332Y-101496238D02*
X81620951Y-101543857D01*
X81620951Y-101543857D02*
X81668570Y-101567666D01*
X81177190Y-116758830D02*
X81201000Y-116735021D01*
X81201000Y-116735021D02*
X81224809Y-116663592D01*
X81224809Y-116663592D02*
X81224809Y-116615973D01*
X81224809Y-116615973D02*
X81201000Y-116544545D01*
X81201000Y-116544545D02*
X81153380Y-116496926D01*
X81153380Y-116496926D02*
X81105761Y-116473116D01*
X81105761Y-116473116D02*
X81010523Y-116449307D01*
X81010523Y-116449307D02*
X80939095Y-116449307D01*
X80939095Y-116449307D02*
X80843857Y-116473116D01*
X80843857Y-116473116D02*
X80796238Y-116496926D01*
X80796238Y-116496926D02*
X80748619Y-116544545D01*
X80748619Y-116544545D02*
X80724809Y-116615973D01*
X80724809Y-116615973D02*
X80724809Y-116663592D01*
X80724809Y-116663592D02*
X80748619Y-116735021D01*
X80748619Y-116735021D02*
X80772428Y-116758830D01*
X81224809Y-116996926D02*
X81224809Y-117092164D01*
X81224809Y-117092164D02*
X81201000Y-117139783D01*
X81201000Y-117139783D02*
X81177190Y-117163592D01*
X81177190Y-117163592D02*
X81105761Y-117211211D01*
X81105761Y-117211211D02*
X81010523Y-117235021D01*
X81010523Y-117235021D02*
X80820047Y-117235021D01*
X80820047Y-117235021D02*
X80772428Y-117211211D01*
X80772428Y-117211211D02*
X80748619Y-117187402D01*
X80748619Y-117187402D02*
X80724809Y-117139783D01*
X80724809Y-117139783D02*
X80724809Y-117044545D01*
X80724809Y-117044545D02*
X80748619Y-116996926D01*
X80748619Y-116996926D02*
X80772428Y-116973116D01*
X80772428Y-116973116D02*
X80820047Y-116949307D01*
X80820047Y-116949307D02*
X80939095Y-116949307D01*
X80939095Y-116949307D02*
X80986714Y-116973116D01*
X80986714Y-116973116D02*
X81010523Y-116996926D01*
X81010523Y-116996926D02*
X81034333Y-117044545D01*
X81034333Y-117044545D02*
X81034333Y-117139783D01*
X81034333Y-117139783D02*
X81010523Y-117187402D01*
X81010523Y-117187402D02*
X80986714Y-117211211D01*
X80986714Y-117211211D02*
X80939095Y-117235021D01*
X83689216Y-108400038D02*
X83436678Y-108652576D01*
X83436678Y-108652576D02*
X83403006Y-108719920D01*
X83403006Y-108719920D02*
X83403006Y-108787263D01*
X83403006Y-108787263D02*
X83436678Y-108854607D01*
X83436678Y-108854607D02*
X83470350Y-108888278D01*
X83167304Y-108585233D02*
X83520858Y-108231679D01*
X83520858Y-108231679D02*
X83386171Y-108096992D01*
X83386171Y-108096992D02*
X83335663Y-108080157D01*
X83335663Y-108080157D02*
X83301991Y-108080157D01*
X83301991Y-108080157D02*
X83251484Y-108096992D01*
X83251484Y-108096992D02*
X83200976Y-108147500D01*
X83200976Y-108147500D02*
X83184140Y-108198008D01*
X83184140Y-108198008D02*
X83184140Y-108231679D01*
X83184140Y-108231679D02*
X83200976Y-108282187D01*
X83200976Y-108282187D02*
X83335663Y-108416874D01*
X82628556Y-108046485D02*
X82830587Y-108248515D01*
X82729571Y-108147500D02*
X83083125Y-107793947D01*
X83083125Y-107793947D02*
X83066289Y-107878126D01*
X83066289Y-107878126D02*
X83066289Y-107945470D01*
X83066289Y-107945470D02*
X83083125Y-107995977D01*
X78180952Y-119124809D02*
X78180952Y-119529571D01*
X78180952Y-119529571D02*
X78157142Y-119577190D01*
X78157142Y-119577190D02*
X78133333Y-119601000D01*
X78133333Y-119601000D02*
X78085714Y-119624809D01*
X78085714Y-119624809D02*
X77990476Y-119624809D01*
X77990476Y-119624809D02*
X77942857Y-119601000D01*
X77942857Y-119601000D02*
X77919047Y-119577190D01*
X77919047Y-119577190D02*
X77895238Y-119529571D01*
X77895238Y-119529571D02*
X77895238Y-119124809D01*
X77395237Y-119624809D02*
X77680951Y-119624809D01*
X77538094Y-119624809D02*
X77538094Y-119124809D01*
X77538094Y-119124809D02*
X77585713Y-119196238D01*
X77585713Y-119196238D02*
X77633332Y-119243857D01*
X77633332Y-119243857D02*
X77680951Y-119267666D01*
X101824809Y-38219047D02*
X102229571Y-38219047D01*
X102229571Y-38219047D02*
X102277190Y-38242857D01*
X102277190Y-38242857D02*
X102301000Y-38266666D01*
X102301000Y-38266666D02*
X102324809Y-38314285D01*
X102324809Y-38314285D02*
X102324809Y-38409523D01*
X102324809Y-38409523D02*
X102301000Y-38457142D01*
X102301000Y-38457142D02*
X102277190Y-38480952D01*
X102277190Y-38480952D02*
X102229571Y-38504761D01*
X102229571Y-38504761D02*
X101824809Y-38504761D01*
X101872428Y-38719048D02*
X101848619Y-38742857D01*
X101848619Y-38742857D02*
X101824809Y-38790476D01*
X101824809Y-38790476D02*
X101824809Y-38909524D01*
X101824809Y-38909524D02*
X101848619Y-38957143D01*
X101848619Y-38957143D02*
X101872428Y-38980952D01*
X101872428Y-38980952D02*
X101920047Y-39004762D01*
X101920047Y-39004762D02*
X101967666Y-39004762D01*
X101967666Y-39004762D02*
X102039095Y-38980952D01*
X102039095Y-38980952D02*
X102324809Y-38695238D01*
X102324809Y-38695238D02*
X102324809Y-39004762D01*
X78321428Y-103277190D02*
X78345237Y-103301000D01*
X78345237Y-103301000D02*
X78416666Y-103324809D01*
X78416666Y-103324809D02*
X78464285Y-103324809D01*
X78464285Y-103324809D02*
X78535713Y-103301000D01*
X78535713Y-103301000D02*
X78583332Y-103253380D01*
X78583332Y-103253380D02*
X78607142Y-103205761D01*
X78607142Y-103205761D02*
X78630951Y-103110523D01*
X78630951Y-103110523D02*
X78630951Y-103039095D01*
X78630951Y-103039095D02*
X78607142Y-102943857D01*
X78607142Y-102943857D02*
X78583332Y-102896238D01*
X78583332Y-102896238D02*
X78535713Y-102848619D01*
X78535713Y-102848619D02*
X78464285Y-102824809D01*
X78464285Y-102824809D02*
X78416666Y-102824809D01*
X78416666Y-102824809D02*
X78345237Y-102848619D01*
X78345237Y-102848619D02*
X78321428Y-102872428D01*
X78130951Y-102872428D02*
X78107142Y-102848619D01*
X78107142Y-102848619D02*
X78059523Y-102824809D01*
X78059523Y-102824809D02*
X77940475Y-102824809D01*
X77940475Y-102824809D02*
X77892856Y-102848619D01*
X77892856Y-102848619D02*
X77869047Y-102872428D01*
X77869047Y-102872428D02*
X77845237Y-102920047D01*
X77845237Y-102920047D02*
X77845237Y-102967666D01*
X77845237Y-102967666D02*
X77869047Y-103039095D01*
X77869047Y-103039095D02*
X78154761Y-103324809D01*
X78154761Y-103324809D02*
X77845237Y-103324809D01*
X77678571Y-102824809D02*
X77369047Y-102824809D01*
X77369047Y-102824809D02*
X77535714Y-103015285D01*
X77535714Y-103015285D02*
X77464285Y-103015285D01*
X77464285Y-103015285D02*
X77416666Y-103039095D01*
X77416666Y-103039095D02*
X77392857Y-103062904D01*
X77392857Y-103062904D02*
X77369047Y-103110523D01*
X77369047Y-103110523D02*
X77369047Y-103229571D01*
X77369047Y-103229571D02*
X77392857Y-103277190D01*
X77392857Y-103277190D02*
X77416666Y-103301000D01*
X77416666Y-103301000D02*
X77464285Y-103324809D01*
X77464285Y-103324809D02*
X77607142Y-103324809D01*
X77607142Y-103324809D02*
X77654761Y-103301000D01*
X77654761Y-103301000D02*
X77678571Y-103277190D01*
X112028571Y-38872809D02*
X112004762Y-38849000D01*
X112004762Y-38849000D02*
X111933333Y-38825190D01*
X111933333Y-38825190D02*
X111885714Y-38825190D01*
X111885714Y-38825190D02*
X111814286Y-38849000D01*
X111814286Y-38849000D02*
X111766667Y-38896619D01*
X111766667Y-38896619D02*
X111742857Y-38944238D01*
X111742857Y-38944238D02*
X111719048Y-39039476D01*
X111719048Y-39039476D02*
X111719048Y-39110904D01*
X111719048Y-39110904D02*
X111742857Y-39206142D01*
X111742857Y-39206142D02*
X111766667Y-39253761D01*
X111766667Y-39253761D02*
X111814286Y-39301380D01*
X111814286Y-39301380D02*
X111885714Y-39325190D01*
X111885714Y-39325190D02*
X111933333Y-39325190D01*
X111933333Y-39325190D02*
X112004762Y-39301380D01*
X112004762Y-39301380D02*
X112028571Y-39277571D01*
X112219048Y-39277571D02*
X112242857Y-39301380D01*
X112242857Y-39301380D02*
X112290476Y-39325190D01*
X112290476Y-39325190D02*
X112409524Y-39325190D01*
X112409524Y-39325190D02*
X112457143Y-39301380D01*
X112457143Y-39301380D02*
X112480952Y-39277571D01*
X112480952Y-39277571D02*
X112504762Y-39229952D01*
X112504762Y-39229952D02*
X112504762Y-39182333D01*
X112504762Y-39182333D02*
X112480952Y-39110904D01*
X112480952Y-39110904D02*
X112195238Y-38825190D01*
X112195238Y-38825190D02*
X112504762Y-38825190D01*
X112957142Y-39325190D02*
X112719047Y-39325190D01*
X112719047Y-39325190D02*
X112695238Y-39087095D01*
X112695238Y-39087095D02*
X112719047Y-39110904D01*
X112719047Y-39110904D02*
X112766666Y-39134714D01*
X112766666Y-39134714D02*
X112885714Y-39134714D01*
X112885714Y-39134714D02*
X112933333Y-39110904D01*
X112933333Y-39110904D02*
X112957142Y-39087095D01*
X112957142Y-39087095D02*
X112980952Y-39039476D01*
X112980952Y-39039476D02*
X112980952Y-38920428D01*
X112980952Y-38920428D02*
X112957142Y-38872809D01*
X112957142Y-38872809D02*
X112933333Y-38849000D01*
X112933333Y-38849000D02*
X112885714Y-38825190D01*
X112885714Y-38825190D02*
X112766666Y-38825190D01*
X112766666Y-38825190D02*
X112719047Y-38849000D01*
X112719047Y-38849000D02*
X112695238Y-38872809D01*
X96821428Y-114824809D02*
X96988094Y-114586714D01*
X97107142Y-114824809D02*
X97107142Y-114324809D01*
X97107142Y-114324809D02*
X96916666Y-114324809D01*
X96916666Y-114324809D02*
X96869047Y-114348619D01*
X96869047Y-114348619D02*
X96845237Y-114372428D01*
X96845237Y-114372428D02*
X96821428Y-114420047D01*
X96821428Y-114420047D02*
X96821428Y-114491476D01*
X96821428Y-114491476D02*
X96845237Y-114539095D01*
X96845237Y-114539095D02*
X96869047Y-114562904D01*
X96869047Y-114562904D02*
X96916666Y-114586714D01*
X96916666Y-114586714D02*
X97107142Y-114586714D01*
X96345237Y-114824809D02*
X96630951Y-114824809D01*
X96488094Y-114824809D02*
X96488094Y-114324809D01*
X96488094Y-114324809D02*
X96535713Y-114396238D01*
X96535713Y-114396238D02*
X96583332Y-114443857D01*
X96583332Y-114443857D02*
X96630951Y-114467666D01*
X95916666Y-114324809D02*
X96011904Y-114324809D01*
X96011904Y-114324809D02*
X96059523Y-114348619D01*
X96059523Y-114348619D02*
X96083333Y-114372428D01*
X96083333Y-114372428D02*
X96130952Y-114443857D01*
X96130952Y-114443857D02*
X96154761Y-114539095D01*
X96154761Y-114539095D02*
X96154761Y-114729571D01*
X96154761Y-114729571D02*
X96130952Y-114777190D01*
X96130952Y-114777190D02*
X96107142Y-114801000D01*
X96107142Y-114801000D02*
X96059523Y-114824809D01*
X96059523Y-114824809D02*
X95964285Y-114824809D01*
X95964285Y-114824809D02*
X95916666Y-114801000D01*
X95916666Y-114801000D02*
X95892857Y-114777190D01*
X95892857Y-114777190D02*
X95869047Y-114729571D01*
X95869047Y-114729571D02*
X95869047Y-114610523D01*
X95869047Y-114610523D02*
X95892857Y-114562904D01*
X95892857Y-114562904D02*
X95916666Y-114539095D01*
X95916666Y-114539095D02*
X95964285Y-114515285D01*
X95964285Y-114515285D02*
X96059523Y-114515285D01*
X96059523Y-114515285D02*
X96107142Y-114539095D01*
X96107142Y-114539095D02*
X96130952Y-114562904D01*
X96130952Y-114562904D02*
X96154761Y-114610523D01*
X63894809Y-177378571D02*
X63656714Y-177211905D01*
X63894809Y-177092857D02*
X63394809Y-177092857D01*
X63394809Y-177092857D02*
X63394809Y-177283333D01*
X63394809Y-177283333D02*
X63418619Y-177330952D01*
X63418619Y-177330952D02*
X63442428Y-177354762D01*
X63442428Y-177354762D02*
X63490047Y-177378571D01*
X63490047Y-177378571D02*
X63561476Y-177378571D01*
X63561476Y-177378571D02*
X63609095Y-177354762D01*
X63609095Y-177354762D02*
X63632904Y-177330952D01*
X63632904Y-177330952D02*
X63656714Y-177283333D01*
X63656714Y-177283333D02*
X63656714Y-177092857D01*
X63394809Y-177545238D02*
X63394809Y-177854762D01*
X63394809Y-177854762D02*
X63585285Y-177688095D01*
X63585285Y-177688095D02*
X63585285Y-177759524D01*
X63585285Y-177759524D02*
X63609095Y-177807143D01*
X63609095Y-177807143D02*
X63632904Y-177830952D01*
X63632904Y-177830952D02*
X63680523Y-177854762D01*
X63680523Y-177854762D02*
X63799571Y-177854762D01*
X63799571Y-177854762D02*
X63847190Y-177830952D01*
X63847190Y-177830952D02*
X63871000Y-177807143D01*
X63871000Y-177807143D02*
X63894809Y-177759524D01*
X63894809Y-177759524D02*
X63894809Y-177616667D01*
X63894809Y-177616667D02*
X63871000Y-177569048D01*
X63871000Y-177569048D02*
X63847190Y-177545238D01*
X63609095Y-178140476D02*
X63585285Y-178092857D01*
X63585285Y-178092857D02*
X63561476Y-178069047D01*
X63561476Y-178069047D02*
X63513857Y-178045238D01*
X63513857Y-178045238D02*
X63490047Y-178045238D01*
X63490047Y-178045238D02*
X63442428Y-178069047D01*
X63442428Y-178069047D02*
X63418619Y-178092857D01*
X63418619Y-178092857D02*
X63394809Y-178140476D01*
X63394809Y-178140476D02*
X63394809Y-178235714D01*
X63394809Y-178235714D02*
X63418619Y-178283333D01*
X63418619Y-178283333D02*
X63442428Y-178307142D01*
X63442428Y-178307142D02*
X63490047Y-178330952D01*
X63490047Y-178330952D02*
X63513857Y-178330952D01*
X63513857Y-178330952D02*
X63561476Y-178307142D01*
X63561476Y-178307142D02*
X63585285Y-178283333D01*
X63585285Y-178283333D02*
X63609095Y-178235714D01*
X63609095Y-178235714D02*
X63609095Y-178140476D01*
X63609095Y-178140476D02*
X63632904Y-178092857D01*
X63632904Y-178092857D02*
X63656714Y-178069047D01*
X63656714Y-178069047D02*
X63704333Y-178045238D01*
X63704333Y-178045238D02*
X63799571Y-178045238D01*
X63799571Y-178045238D02*
X63847190Y-178069047D01*
X63847190Y-178069047D02*
X63871000Y-178092857D01*
X63871000Y-178092857D02*
X63894809Y-178140476D01*
X63894809Y-178140476D02*
X63894809Y-178235714D01*
X63894809Y-178235714D02*
X63871000Y-178283333D01*
X63871000Y-178283333D02*
X63847190Y-178307142D01*
X63847190Y-178307142D02*
X63799571Y-178330952D01*
X63799571Y-178330952D02*
X63704333Y-178330952D01*
X63704333Y-178330952D02*
X63656714Y-178307142D01*
X63656714Y-178307142D02*
X63632904Y-178283333D01*
X63632904Y-178283333D02*
X63609095Y-178235714D01*
X102181547Y-103324809D02*
X102181547Y-103729571D01*
X102181547Y-103729571D02*
X102157737Y-103777190D01*
X102157737Y-103777190D02*
X102133928Y-103801000D01*
X102133928Y-103801000D02*
X102086309Y-103824809D01*
X102086309Y-103824809D02*
X101991071Y-103824809D01*
X101991071Y-103824809D02*
X101943452Y-103801000D01*
X101943452Y-103801000D02*
X101919642Y-103777190D01*
X101919642Y-103777190D02*
X101895833Y-103729571D01*
X101895833Y-103729571D02*
X101895833Y-103324809D01*
X101395832Y-103824809D02*
X101681546Y-103824809D01*
X101538689Y-103824809D02*
X101538689Y-103324809D01*
X101538689Y-103324809D02*
X101586308Y-103396238D01*
X101586308Y-103396238D02*
X101633927Y-103443857D01*
X101633927Y-103443857D02*
X101681546Y-103467666D01*
X100919642Y-103824809D02*
X101205356Y-103824809D01*
X101062499Y-103824809D02*
X101062499Y-103324809D01*
X101062499Y-103324809D02*
X101110118Y-103396238D01*
X101110118Y-103396238D02*
X101157737Y-103443857D01*
X101157737Y-103443857D02*
X101205356Y-103467666D01*
X70131428Y-105424809D02*
X70298094Y-105186714D01*
X70417142Y-105424809D02*
X70417142Y-104924809D01*
X70417142Y-104924809D02*
X70226666Y-104924809D01*
X70226666Y-104924809D02*
X70179047Y-104948619D01*
X70179047Y-104948619D02*
X70155237Y-104972428D01*
X70155237Y-104972428D02*
X70131428Y-105020047D01*
X70131428Y-105020047D02*
X70131428Y-105091476D01*
X70131428Y-105091476D02*
X70155237Y-105139095D01*
X70155237Y-105139095D02*
X70179047Y-105162904D01*
X70179047Y-105162904D02*
X70226666Y-105186714D01*
X70226666Y-105186714D02*
X70417142Y-105186714D01*
X69940951Y-104972428D02*
X69917142Y-104948619D01*
X69917142Y-104948619D02*
X69869523Y-104924809D01*
X69869523Y-104924809D02*
X69750475Y-104924809D01*
X69750475Y-104924809D02*
X69702856Y-104948619D01*
X69702856Y-104948619D02*
X69679047Y-104972428D01*
X69679047Y-104972428D02*
X69655237Y-105020047D01*
X69655237Y-105020047D02*
X69655237Y-105067666D01*
X69655237Y-105067666D02*
X69679047Y-105139095D01*
X69679047Y-105139095D02*
X69964761Y-105424809D01*
X69964761Y-105424809D02*
X69655237Y-105424809D01*
X69179047Y-105424809D02*
X69464761Y-105424809D01*
X69321904Y-105424809D02*
X69321904Y-104924809D01*
X69321904Y-104924809D02*
X69369523Y-104996238D01*
X69369523Y-104996238D02*
X69417142Y-105043857D01*
X69417142Y-105043857D02*
X69464761Y-105067666D01*
X108278571Y-31575190D02*
X108111905Y-31813285D01*
X107992857Y-31575190D02*
X107992857Y-32075190D01*
X107992857Y-32075190D02*
X108183333Y-32075190D01*
X108183333Y-32075190D02*
X108230952Y-32051380D01*
X108230952Y-32051380D02*
X108254762Y-32027571D01*
X108254762Y-32027571D02*
X108278571Y-31979952D01*
X108278571Y-31979952D02*
X108278571Y-31908523D01*
X108278571Y-31908523D02*
X108254762Y-31860904D01*
X108254762Y-31860904D02*
X108230952Y-31837095D01*
X108230952Y-31837095D02*
X108183333Y-31813285D01*
X108183333Y-31813285D02*
X107992857Y-31813285D01*
X108754762Y-31575190D02*
X108469048Y-31575190D01*
X108611905Y-31575190D02*
X108611905Y-32075190D01*
X108611905Y-32075190D02*
X108564286Y-32003761D01*
X108564286Y-32003761D02*
X108516667Y-31956142D01*
X108516667Y-31956142D02*
X108469048Y-31932333D01*
X108921428Y-32075190D02*
X109254761Y-32075190D01*
X109254761Y-32075190D02*
X109040476Y-31575190D01*
X46659047Y-117224809D02*
X46659047Y-117629571D01*
X46659047Y-117629571D02*
X46635237Y-117677190D01*
X46635237Y-117677190D02*
X46611428Y-117701000D01*
X46611428Y-117701000D02*
X46563809Y-117724809D01*
X46563809Y-117724809D02*
X46468571Y-117724809D01*
X46468571Y-117724809D02*
X46420952Y-117701000D01*
X46420952Y-117701000D02*
X46397142Y-117677190D01*
X46397142Y-117677190D02*
X46373333Y-117629571D01*
X46373333Y-117629571D02*
X46373333Y-117224809D01*
X45873332Y-117724809D02*
X46159046Y-117724809D01*
X46016189Y-117724809D02*
X46016189Y-117224809D01*
X46016189Y-117224809D02*
X46063808Y-117296238D01*
X46063808Y-117296238D02*
X46111427Y-117343857D01*
X46111427Y-117343857D02*
X46159046Y-117367666D01*
X45420952Y-117224809D02*
X45659047Y-117224809D01*
X45659047Y-117224809D02*
X45682856Y-117462904D01*
X45682856Y-117462904D02*
X45659047Y-117439095D01*
X45659047Y-117439095D02*
X45611428Y-117415285D01*
X45611428Y-117415285D02*
X45492380Y-117415285D01*
X45492380Y-117415285D02*
X45444761Y-117439095D01*
X45444761Y-117439095D02*
X45420952Y-117462904D01*
X45420952Y-117462904D02*
X45397142Y-117510523D01*
X45397142Y-117510523D02*
X45397142Y-117629571D01*
X45397142Y-117629571D02*
X45420952Y-117677190D01*
X45420952Y-117677190D02*
X45444761Y-117701000D01*
X45444761Y-117701000D02*
X45492380Y-117724809D01*
X45492380Y-117724809D02*
X45611428Y-117724809D01*
X45611428Y-117724809D02*
X45659047Y-117701000D01*
X45659047Y-117701000D02*
X45682856Y-117677190D01*
X64580952Y-91124809D02*
X64580952Y-91529571D01*
X64580952Y-91529571D02*
X64557142Y-91577190D01*
X64557142Y-91577190D02*
X64533333Y-91601000D01*
X64533333Y-91601000D02*
X64485714Y-91624809D01*
X64485714Y-91624809D02*
X64390476Y-91624809D01*
X64390476Y-91624809D02*
X64342857Y-91601000D01*
X64342857Y-91601000D02*
X64319047Y-91577190D01*
X64319047Y-91577190D02*
X64295238Y-91529571D01*
X64295238Y-91529571D02*
X64295238Y-91124809D01*
X63842856Y-91291476D02*
X63842856Y-91624809D01*
X63961904Y-91101000D02*
X64080951Y-91458142D01*
X64080951Y-91458142D02*
X63771428Y-91458142D01*
X42577190Y-116978571D02*
X42601000Y-116954762D01*
X42601000Y-116954762D02*
X42624809Y-116883333D01*
X42624809Y-116883333D02*
X42624809Y-116835714D01*
X42624809Y-116835714D02*
X42601000Y-116764286D01*
X42601000Y-116764286D02*
X42553380Y-116716667D01*
X42553380Y-116716667D02*
X42505761Y-116692857D01*
X42505761Y-116692857D02*
X42410523Y-116669048D01*
X42410523Y-116669048D02*
X42339095Y-116669048D01*
X42339095Y-116669048D02*
X42243857Y-116692857D01*
X42243857Y-116692857D02*
X42196238Y-116716667D01*
X42196238Y-116716667D02*
X42148619Y-116764286D01*
X42148619Y-116764286D02*
X42124809Y-116835714D01*
X42124809Y-116835714D02*
X42124809Y-116883333D01*
X42124809Y-116883333D02*
X42148619Y-116954762D01*
X42148619Y-116954762D02*
X42172428Y-116978571D01*
X42124809Y-117145238D02*
X42124809Y-117454762D01*
X42124809Y-117454762D02*
X42315285Y-117288095D01*
X42315285Y-117288095D02*
X42315285Y-117359524D01*
X42315285Y-117359524D02*
X42339095Y-117407143D01*
X42339095Y-117407143D02*
X42362904Y-117430952D01*
X42362904Y-117430952D02*
X42410523Y-117454762D01*
X42410523Y-117454762D02*
X42529571Y-117454762D01*
X42529571Y-117454762D02*
X42577190Y-117430952D01*
X42577190Y-117430952D02*
X42601000Y-117407143D01*
X42601000Y-117407143D02*
X42624809Y-117359524D01*
X42624809Y-117359524D02*
X42624809Y-117216667D01*
X42624809Y-117216667D02*
X42601000Y-117169048D01*
X42601000Y-117169048D02*
X42577190Y-117145238D01*
X42172428Y-117645238D02*
X42148619Y-117669047D01*
X42148619Y-117669047D02*
X42124809Y-117716666D01*
X42124809Y-117716666D02*
X42124809Y-117835714D01*
X42124809Y-117835714D02*
X42148619Y-117883333D01*
X42148619Y-117883333D02*
X42172428Y-117907142D01*
X42172428Y-117907142D02*
X42220047Y-117930952D01*
X42220047Y-117930952D02*
X42267666Y-117930952D01*
X42267666Y-117930952D02*
X42339095Y-117907142D01*
X42339095Y-117907142D02*
X42624809Y-117621428D01*
X42624809Y-117621428D02*
X42624809Y-117930952D01*
X112078571Y-41622809D02*
X112054762Y-41599000D01*
X112054762Y-41599000D02*
X111983333Y-41575190D01*
X111983333Y-41575190D02*
X111935714Y-41575190D01*
X111935714Y-41575190D02*
X111864286Y-41599000D01*
X111864286Y-41599000D02*
X111816667Y-41646619D01*
X111816667Y-41646619D02*
X111792857Y-41694238D01*
X111792857Y-41694238D02*
X111769048Y-41789476D01*
X111769048Y-41789476D02*
X111769048Y-41860904D01*
X111769048Y-41860904D02*
X111792857Y-41956142D01*
X111792857Y-41956142D02*
X111816667Y-42003761D01*
X111816667Y-42003761D02*
X111864286Y-42051380D01*
X111864286Y-42051380D02*
X111935714Y-42075190D01*
X111935714Y-42075190D02*
X111983333Y-42075190D01*
X111983333Y-42075190D02*
X112054762Y-42051380D01*
X112054762Y-42051380D02*
X112078571Y-42027571D01*
X112269048Y-42027571D02*
X112292857Y-42051380D01*
X112292857Y-42051380D02*
X112340476Y-42075190D01*
X112340476Y-42075190D02*
X112459524Y-42075190D01*
X112459524Y-42075190D02*
X112507143Y-42051380D01*
X112507143Y-42051380D02*
X112530952Y-42027571D01*
X112530952Y-42027571D02*
X112554762Y-41979952D01*
X112554762Y-41979952D02*
X112554762Y-41932333D01*
X112554762Y-41932333D02*
X112530952Y-41860904D01*
X112530952Y-41860904D02*
X112245238Y-41575190D01*
X112245238Y-41575190D02*
X112554762Y-41575190D01*
X112983333Y-42075190D02*
X112888095Y-42075190D01*
X112888095Y-42075190D02*
X112840476Y-42051380D01*
X112840476Y-42051380D02*
X112816666Y-42027571D01*
X112816666Y-42027571D02*
X112769047Y-41956142D01*
X112769047Y-41956142D02*
X112745238Y-41860904D01*
X112745238Y-41860904D02*
X112745238Y-41670428D01*
X112745238Y-41670428D02*
X112769047Y-41622809D01*
X112769047Y-41622809D02*
X112792857Y-41599000D01*
X112792857Y-41599000D02*
X112840476Y-41575190D01*
X112840476Y-41575190D02*
X112935714Y-41575190D01*
X112935714Y-41575190D02*
X112983333Y-41599000D01*
X112983333Y-41599000D02*
X113007142Y-41622809D01*
X113007142Y-41622809D02*
X113030952Y-41670428D01*
X113030952Y-41670428D02*
X113030952Y-41789476D01*
X113030952Y-41789476D02*
X113007142Y-41837095D01*
X113007142Y-41837095D02*
X112983333Y-41860904D01*
X112983333Y-41860904D02*
X112935714Y-41884714D01*
X112935714Y-41884714D02*
X112840476Y-41884714D01*
X112840476Y-41884714D02*
X112792857Y-41860904D01*
X112792857Y-41860904D02*
X112769047Y-41837095D01*
X112769047Y-41837095D02*
X112745238Y-41789476D01*
D11*
X105526109Y-61683333D02*
X105883252Y-61683333D01*
X105883252Y-61683333D02*
X105954680Y-61659524D01*
X105954680Y-61659524D02*
X106002300Y-61611905D01*
X106002300Y-61611905D02*
X106026109Y-61540476D01*
X106026109Y-61540476D02*
X106026109Y-61492857D01*
X105526109Y-61873809D02*
X105526109Y-62207142D01*
X105526109Y-62207142D02*
X106026109Y-61992857D01*
D12*
X68277190Y-100978571D02*
X68301000Y-100954762D01*
X68301000Y-100954762D02*
X68324809Y-100883333D01*
X68324809Y-100883333D02*
X68324809Y-100835714D01*
X68324809Y-100835714D02*
X68301000Y-100764286D01*
X68301000Y-100764286D02*
X68253380Y-100716667D01*
X68253380Y-100716667D02*
X68205761Y-100692857D01*
X68205761Y-100692857D02*
X68110523Y-100669048D01*
X68110523Y-100669048D02*
X68039095Y-100669048D01*
X68039095Y-100669048D02*
X67943857Y-100692857D01*
X67943857Y-100692857D02*
X67896238Y-100716667D01*
X67896238Y-100716667D02*
X67848619Y-100764286D01*
X67848619Y-100764286D02*
X67824809Y-100835714D01*
X67824809Y-100835714D02*
X67824809Y-100883333D01*
X67824809Y-100883333D02*
X67848619Y-100954762D01*
X67848619Y-100954762D02*
X67872428Y-100978571D01*
X68324809Y-101454762D02*
X68324809Y-101169048D01*
X68324809Y-101311905D02*
X67824809Y-101311905D01*
X67824809Y-101311905D02*
X67896238Y-101264286D01*
X67896238Y-101264286D02*
X67943857Y-101216667D01*
X67943857Y-101216667D02*
X67967666Y-101169048D01*
X67824809Y-101907142D02*
X67824809Y-101669047D01*
X67824809Y-101669047D02*
X68062904Y-101645238D01*
X68062904Y-101645238D02*
X68039095Y-101669047D01*
X68039095Y-101669047D02*
X68015285Y-101716666D01*
X68015285Y-101716666D02*
X68015285Y-101835714D01*
X68015285Y-101835714D02*
X68039095Y-101883333D01*
X68039095Y-101883333D02*
X68062904Y-101907142D01*
X68062904Y-101907142D02*
X68110523Y-101930952D01*
X68110523Y-101930952D02*
X68229571Y-101930952D01*
X68229571Y-101930952D02*
X68277190Y-101907142D01*
X68277190Y-101907142D02*
X68301000Y-101883333D01*
X68301000Y-101883333D02*
X68324809Y-101835714D01*
X68324809Y-101835714D02*
X68324809Y-101716666D01*
X68324809Y-101716666D02*
X68301000Y-101669047D01*
X68301000Y-101669047D02*
X68277190Y-101645238D01*
X59016666Y-94074809D02*
X59016666Y-94431952D01*
X59016666Y-94431952D02*
X59040475Y-94503380D01*
X59040475Y-94503380D02*
X59088094Y-94551000D01*
X59088094Y-94551000D02*
X59159523Y-94574809D01*
X59159523Y-94574809D02*
X59207142Y-94574809D01*
X58778571Y-94574809D02*
X58778571Y-94074809D01*
X58778571Y-94074809D02*
X58588095Y-94074809D01*
X58588095Y-94074809D02*
X58540476Y-94098619D01*
X58540476Y-94098619D02*
X58516666Y-94122428D01*
X58516666Y-94122428D02*
X58492857Y-94170047D01*
X58492857Y-94170047D02*
X58492857Y-94241476D01*
X58492857Y-94241476D02*
X58516666Y-94289095D01*
X58516666Y-94289095D02*
X58540476Y-94312904D01*
X58540476Y-94312904D02*
X58588095Y-94336714D01*
X58588095Y-94336714D02*
X58778571Y-94336714D01*
X58302380Y-94122428D02*
X58278571Y-94098619D01*
X58278571Y-94098619D02*
X58230952Y-94074809D01*
X58230952Y-94074809D02*
X58111904Y-94074809D01*
X58111904Y-94074809D02*
X58064285Y-94098619D01*
X58064285Y-94098619D02*
X58040476Y-94122428D01*
X58040476Y-94122428D02*
X58016666Y-94170047D01*
X58016666Y-94170047D02*
X58016666Y-94217666D01*
X58016666Y-94217666D02*
X58040476Y-94289095D01*
X58040476Y-94289095D02*
X58326190Y-94574809D01*
X58326190Y-94574809D02*
X58016666Y-94574809D01*
X85111428Y-96917190D02*
X85135237Y-96941000D01*
X85135237Y-96941000D02*
X85206666Y-96964809D01*
X85206666Y-96964809D02*
X85254285Y-96964809D01*
X85254285Y-96964809D02*
X85325713Y-96941000D01*
X85325713Y-96941000D02*
X85373332Y-96893380D01*
X85373332Y-96893380D02*
X85397142Y-96845761D01*
X85397142Y-96845761D02*
X85420951Y-96750523D01*
X85420951Y-96750523D02*
X85420951Y-96679095D01*
X85420951Y-96679095D02*
X85397142Y-96583857D01*
X85397142Y-96583857D02*
X85373332Y-96536238D01*
X85373332Y-96536238D02*
X85325713Y-96488619D01*
X85325713Y-96488619D02*
X85254285Y-96464809D01*
X85254285Y-96464809D02*
X85206666Y-96464809D01*
X85206666Y-96464809D02*
X85135237Y-96488619D01*
X85135237Y-96488619D02*
X85111428Y-96512428D01*
X84920951Y-96512428D02*
X84897142Y-96488619D01*
X84897142Y-96488619D02*
X84849523Y-96464809D01*
X84849523Y-96464809D02*
X84730475Y-96464809D01*
X84730475Y-96464809D02*
X84682856Y-96488619D01*
X84682856Y-96488619D02*
X84659047Y-96512428D01*
X84659047Y-96512428D02*
X84635237Y-96560047D01*
X84635237Y-96560047D02*
X84635237Y-96607666D01*
X84635237Y-96607666D02*
X84659047Y-96679095D01*
X84659047Y-96679095D02*
X84944761Y-96964809D01*
X84944761Y-96964809D02*
X84635237Y-96964809D01*
X84397142Y-96964809D02*
X84301904Y-96964809D01*
X84301904Y-96964809D02*
X84254285Y-96941000D01*
X84254285Y-96941000D02*
X84230476Y-96917190D01*
X84230476Y-96917190D02*
X84182857Y-96845761D01*
X84182857Y-96845761D02*
X84159047Y-96750523D01*
X84159047Y-96750523D02*
X84159047Y-96560047D01*
X84159047Y-96560047D02*
X84182857Y-96512428D01*
X84182857Y-96512428D02*
X84206666Y-96488619D01*
X84206666Y-96488619D02*
X84254285Y-96464809D01*
X84254285Y-96464809D02*
X84349523Y-96464809D01*
X84349523Y-96464809D02*
X84397142Y-96488619D01*
X84397142Y-96488619D02*
X84420952Y-96512428D01*
X84420952Y-96512428D02*
X84444761Y-96560047D01*
X84444761Y-96560047D02*
X84444761Y-96679095D01*
X84444761Y-96679095D02*
X84420952Y-96726714D01*
X84420952Y-96726714D02*
X84397142Y-96750523D01*
X84397142Y-96750523D02*
X84349523Y-96774333D01*
X84349523Y-96774333D02*
X84254285Y-96774333D01*
X84254285Y-96774333D02*
X84206666Y-96750523D01*
X84206666Y-96750523D02*
X84182857Y-96726714D01*
X84182857Y-96726714D02*
X84159047Y-96679095D01*
X40774809Y-176380952D02*
X40274809Y-176380952D01*
X40274809Y-176380952D02*
X40274809Y-176500000D01*
X40274809Y-176500000D02*
X40298619Y-176571428D01*
X40298619Y-176571428D02*
X40346238Y-176619047D01*
X40346238Y-176619047D02*
X40393857Y-176642857D01*
X40393857Y-176642857D02*
X40489095Y-176666666D01*
X40489095Y-176666666D02*
X40560523Y-176666666D01*
X40560523Y-176666666D02*
X40655761Y-176642857D01*
X40655761Y-176642857D02*
X40703380Y-176619047D01*
X40703380Y-176619047D02*
X40751000Y-176571428D01*
X40751000Y-176571428D02*
X40774809Y-176500000D01*
X40774809Y-176500000D02*
X40774809Y-176380952D01*
X40274809Y-176833333D02*
X40274809Y-177166666D01*
X40274809Y-177166666D02*
X40774809Y-176952381D01*
X113877190Y-30678571D02*
X113901000Y-30654762D01*
X113901000Y-30654762D02*
X113924809Y-30583333D01*
X113924809Y-30583333D02*
X113924809Y-30535714D01*
X113924809Y-30535714D02*
X113901000Y-30464286D01*
X113901000Y-30464286D02*
X113853380Y-30416667D01*
X113853380Y-30416667D02*
X113805761Y-30392857D01*
X113805761Y-30392857D02*
X113710523Y-30369048D01*
X113710523Y-30369048D02*
X113639095Y-30369048D01*
X113639095Y-30369048D02*
X113543857Y-30392857D01*
X113543857Y-30392857D02*
X113496238Y-30416667D01*
X113496238Y-30416667D02*
X113448619Y-30464286D01*
X113448619Y-30464286D02*
X113424809Y-30535714D01*
X113424809Y-30535714D02*
X113424809Y-30583333D01*
X113424809Y-30583333D02*
X113448619Y-30654762D01*
X113448619Y-30654762D02*
X113472428Y-30678571D01*
X113472428Y-30869048D02*
X113448619Y-30892857D01*
X113448619Y-30892857D02*
X113424809Y-30940476D01*
X113424809Y-30940476D02*
X113424809Y-31059524D01*
X113424809Y-31059524D02*
X113448619Y-31107143D01*
X113448619Y-31107143D02*
X113472428Y-31130952D01*
X113472428Y-31130952D02*
X113520047Y-31154762D01*
X113520047Y-31154762D02*
X113567666Y-31154762D01*
X113567666Y-31154762D02*
X113639095Y-31130952D01*
X113639095Y-31130952D02*
X113924809Y-30845238D01*
X113924809Y-30845238D02*
X113924809Y-31154762D01*
X113924809Y-31630952D02*
X113924809Y-31345238D01*
X113924809Y-31488095D02*
X113424809Y-31488095D01*
X113424809Y-31488095D02*
X113496238Y-31440476D01*
X113496238Y-31440476D02*
X113543857Y-31392857D01*
X113543857Y-31392857D02*
X113567666Y-31345238D01*
X56280952Y-175075190D02*
X56280952Y-174670428D01*
X56280952Y-174670428D02*
X56304762Y-174622809D01*
X56304762Y-174622809D02*
X56328571Y-174599000D01*
X56328571Y-174599000D02*
X56376190Y-174575190D01*
X56376190Y-174575190D02*
X56471428Y-174575190D01*
X56471428Y-174575190D02*
X56519047Y-174599000D01*
X56519047Y-174599000D02*
X56542857Y-174622809D01*
X56542857Y-174622809D02*
X56566666Y-174670428D01*
X56566666Y-174670428D02*
X56566666Y-175075190D01*
X57066667Y-174575190D02*
X56780953Y-174575190D01*
X56923810Y-174575190D02*
X56923810Y-175075190D01*
X56923810Y-175075190D02*
X56876191Y-175003761D01*
X56876191Y-175003761D02*
X56828572Y-174956142D01*
X56828572Y-174956142D02*
X56780953Y-174932333D01*
X57376190Y-175075190D02*
X57423809Y-175075190D01*
X57423809Y-175075190D02*
X57471428Y-175051380D01*
X57471428Y-175051380D02*
X57495238Y-175027571D01*
X57495238Y-175027571D02*
X57519047Y-174979952D01*
X57519047Y-174979952D02*
X57542857Y-174884714D01*
X57542857Y-174884714D02*
X57542857Y-174765666D01*
X57542857Y-174765666D02*
X57519047Y-174670428D01*
X57519047Y-174670428D02*
X57495238Y-174622809D01*
X57495238Y-174622809D02*
X57471428Y-174599000D01*
X57471428Y-174599000D02*
X57423809Y-174575190D01*
X57423809Y-174575190D02*
X57376190Y-174575190D01*
X57376190Y-174575190D02*
X57328571Y-174599000D01*
X57328571Y-174599000D02*
X57304762Y-174622809D01*
X57304762Y-174622809D02*
X57280952Y-174670428D01*
X57280952Y-174670428D02*
X57257143Y-174765666D01*
X57257143Y-174765666D02*
X57257143Y-174884714D01*
X57257143Y-174884714D02*
X57280952Y-174979952D01*
X57280952Y-174979952D02*
X57304762Y-175027571D01*
X57304762Y-175027571D02*
X57328571Y-175051380D01*
X57328571Y-175051380D02*
X57376190Y-175075190D01*
X79303333Y-109527190D02*
X79327142Y-109551000D01*
X79327142Y-109551000D02*
X79398571Y-109574809D01*
X79398571Y-109574809D02*
X79446190Y-109574809D01*
X79446190Y-109574809D02*
X79517618Y-109551000D01*
X79517618Y-109551000D02*
X79565237Y-109503380D01*
X79565237Y-109503380D02*
X79589047Y-109455761D01*
X79589047Y-109455761D02*
X79612856Y-109360523D01*
X79612856Y-109360523D02*
X79612856Y-109289095D01*
X79612856Y-109289095D02*
X79589047Y-109193857D01*
X79589047Y-109193857D02*
X79565237Y-109146238D01*
X79565237Y-109146238D02*
X79517618Y-109098619D01*
X79517618Y-109098619D02*
X79446190Y-109074809D01*
X79446190Y-109074809D02*
X79398571Y-109074809D01*
X79398571Y-109074809D02*
X79327142Y-109098619D01*
X79327142Y-109098619D02*
X79303333Y-109122428D01*
X79017618Y-109289095D02*
X79065237Y-109265285D01*
X79065237Y-109265285D02*
X79089047Y-109241476D01*
X79089047Y-109241476D02*
X79112856Y-109193857D01*
X79112856Y-109193857D02*
X79112856Y-109170047D01*
X79112856Y-109170047D02*
X79089047Y-109122428D01*
X79089047Y-109122428D02*
X79065237Y-109098619D01*
X79065237Y-109098619D02*
X79017618Y-109074809D01*
X79017618Y-109074809D02*
X78922380Y-109074809D01*
X78922380Y-109074809D02*
X78874761Y-109098619D01*
X78874761Y-109098619D02*
X78850952Y-109122428D01*
X78850952Y-109122428D02*
X78827142Y-109170047D01*
X78827142Y-109170047D02*
X78827142Y-109193857D01*
X78827142Y-109193857D02*
X78850952Y-109241476D01*
X78850952Y-109241476D02*
X78874761Y-109265285D01*
X78874761Y-109265285D02*
X78922380Y-109289095D01*
X78922380Y-109289095D02*
X79017618Y-109289095D01*
X79017618Y-109289095D02*
X79065237Y-109312904D01*
X79065237Y-109312904D02*
X79089047Y-109336714D01*
X79089047Y-109336714D02*
X79112856Y-109384333D01*
X79112856Y-109384333D02*
X79112856Y-109479571D01*
X79112856Y-109479571D02*
X79089047Y-109527190D01*
X79089047Y-109527190D02*
X79065237Y-109551000D01*
X79065237Y-109551000D02*
X79017618Y-109574809D01*
X79017618Y-109574809D02*
X78922380Y-109574809D01*
X78922380Y-109574809D02*
X78874761Y-109551000D01*
X78874761Y-109551000D02*
X78850952Y-109527190D01*
X78850952Y-109527190D02*
X78827142Y-109479571D01*
X78827142Y-109479571D02*
X78827142Y-109384333D01*
X78827142Y-109384333D02*
X78850952Y-109336714D01*
X78850952Y-109336714D02*
X78874761Y-109312904D01*
X78874761Y-109312904D02*
X78922380Y-109289095D01*
X71321428Y-120077190D02*
X71345237Y-120101000D01*
X71345237Y-120101000D02*
X71416666Y-120124809D01*
X71416666Y-120124809D02*
X71464285Y-120124809D01*
X71464285Y-120124809D02*
X71535713Y-120101000D01*
X71535713Y-120101000D02*
X71583332Y-120053380D01*
X71583332Y-120053380D02*
X71607142Y-120005761D01*
X71607142Y-120005761D02*
X71630951Y-119910523D01*
X71630951Y-119910523D02*
X71630951Y-119839095D01*
X71630951Y-119839095D02*
X71607142Y-119743857D01*
X71607142Y-119743857D02*
X71583332Y-119696238D01*
X71583332Y-119696238D02*
X71535713Y-119648619D01*
X71535713Y-119648619D02*
X71464285Y-119624809D01*
X71464285Y-119624809D02*
X71416666Y-119624809D01*
X71416666Y-119624809D02*
X71345237Y-119648619D01*
X71345237Y-119648619D02*
X71321428Y-119672428D01*
X70845237Y-120124809D02*
X71130951Y-120124809D01*
X70988094Y-120124809D02*
X70988094Y-119624809D01*
X70988094Y-119624809D02*
X71035713Y-119696238D01*
X71035713Y-119696238D02*
X71083332Y-119743857D01*
X71083332Y-119743857D02*
X71130951Y-119767666D01*
X70535714Y-119624809D02*
X70488095Y-119624809D01*
X70488095Y-119624809D02*
X70440476Y-119648619D01*
X70440476Y-119648619D02*
X70416666Y-119672428D01*
X70416666Y-119672428D02*
X70392857Y-119720047D01*
X70392857Y-119720047D02*
X70369047Y-119815285D01*
X70369047Y-119815285D02*
X70369047Y-119934333D01*
X70369047Y-119934333D02*
X70392857Y-120029571D01*
X70392857Y-120029571D02*
X70416666Y-120077190D01*
X70416666Y-120077190D02*
X70440476Y-120101000D01*
X70440476Y-120101000D02*
X70488095Y-120124809D01*
X70488095Y-120124809D02*
X70535714Y-120124809D01*
X70535714Y-120124809D02*
X70583333Y-120101000D01*
X70583333Y-120101000D02*
X70607142Y-120077190D01*
X70607142Y-120077190D02*
X70630952Y-120029571D01*
X70630952Y-120029571D02*
X70654761Y-119934333D01*
X70654761Y-119934333D02*
X70654761Y-119815285D01*
X70654761Y-119815285D02*
X70630952Y-119720047D01*
X70630952Y-119720047D02*
X70607142Y-119672428D01*
X70607142Y-119672428D02*
X70583333Y-119648619D01*
X70583333Y-119648619D02*
X70535714Y-119624809D01*
X114024809Y-35316666D02*
X114024809Y-35078571D01*
X114024809Y-35078571D02*
X113524809Y-35078571D01*
X114024809Y-35745238D02*
X114024809Y-35459524D01*
X114024809Y-35602381D02*
X113524809Y-35602381D01*
X113524809Y-35602381D02*
X113596238Y-35554762D01*
X113596238Y-35554762D02*
X113643857Y-35507143D01*
X113643857Y-35507143D02*
X113667666Y-35459524D01*
X75524809Y-91016666D02*
X75286714Y-90850000D01*
X75524809Y-90730952D02*
X75024809Y-90730952D01*
X75024809Y-90730952D02*
X75024809Y-90921428D01*
X75024809Y-90921428D02*
X75048619Y-90969047D01*
X75048619Y-90969047D02*
X75072428Y-90992857D01*
X75072428Y-90992857D02*
X75120047Y-91016666D01*
X75120047Y-91016666D02*
X75191476Y-91016666D01*
X75191476Y-91016666D02*
X75239095Y-90992857D01*
X75239095Y-90992857D02*
X75262904Y-90969047D01*
X75262904Y-90969047D02*
X75286714Y-90921428D01*
X75286714Y-90921428D02*
X75286714Y-90730952D01*
X75024809Y-91183333D02*
X75024809Y-91516666D01*
X75024809Y-91516666D02*
X75524809Y-91302381D01*
X97921428Y-107924809D02*
X98088094Y-107686714D01*
X98207142Y-107924809D02*
X98207142Y-107424809D01*
X98207142Y-107424809D02*
X98016666Y-107424809D01*
X98016666Y-107424809D02*
X97969047Y-107448619D01*
X97969047Y-107448619D02*
X97945237Y-107472428D01*
X97945237Y-107472428D02*
X97921428Y-107520047D01*
X97921428Y-107520047D02*
X97921428Y-107591476D01*
X97921428Y-107591476D02*
X97945237Y-107639095D01*
X97945237Y-107639095D02*
X97969047Y-107662904D01*
X97969047Y-107662904D02*
X98016666Y-107686714D01*
X98016666Y-107686714D02*
X98207142Y-107686714D01*
X97730951Y-107472428D02*
X97707142Y-107448619D01*
X97707142Y-107448619D02*
X97659523Y-107424809D01*
X97659523Y-107424809D02*
X97540475Y-107424809D01*
X97540475Y-107424809D02*
X97492856Y-107448619D01*
X97492856Y-107448619D02*
X97469047Y-107472428D01*
X97469047Y-107472428D02*
X97445237Y-107520047D01*
X97445237Y-107520047D02*
X97445237Y-107567666D01*
X97445237Y-107567666D02*
X97469047Y-107639095D01*
X97469047Y-107639095D02*
X97754761Y-107924809D01*
X97754761Y-107924809D02*
X97445237Y-107924809D01*
X97016666Y-107424809D02*
X97111904Y-107424809D01*
X97111904Y-107424809D02*
X97159523Y-107448619D01*
X97159523Y-107448619D02*
X97183333Y-107472428D01*
X97183333Y-107472428D02*
X97230952Y-107543857D01*
X97230952Y-107543857D02*
X97254761Y-107639095D01*
X97254761Y-107639095D02*
X97254761Y-107829571D01*
X97254761Y-107829571D02*
X97230952Y-107877190D01*
X97230952Y-107877190D02*
X97207142Y-107901000D01*
X97207142Y-107901000D02*
X97159523Y-107924809D01*
X97159523Y-107924809D02*
X97064285Y-107924809D01*
X97064285Y-107924809D02*
X97016666Y-107901000D01*
X97016666Y-107901000D02*
X96992857Y-107877190D01*
X96992857Y-107877190D02*
X96969047Y-107829571D01*
X96969047Y-107829571D02*
X96969047Y-107710523D01*
X96969047Y-107710523D02*
X96992857Y-107662904D01*
X96992857Y-107662904D02*
X97016666Y-107639095D01*
X97016666Y-107639095D02*
X97064285Y-107615285D01*
X97064285Y-107615285D02*
X97159523Y-107615285D01*
X97159523Y-107615285D02*
X97207142Y-107639095D01*
X97207142Y-107639095D02*
X97230952Y-107662904D01*
X97230952Y-107662904D02*
X97254761Y-107710523D01*
X99580952Y-60124809D02*
X99580952Y-60529571D01*
X99580952Y-60529571D02*
X99557142Y-60577190D01*
X99557142Y-60577190D02*
X99533333Y-60601000D01*
X99533333Y-60601000D02*
X99485714Y-60624809D01*
X99485714Y-60624809D02*
X99390476Y-60624809D01*
X99390476Y-60624809D02*
X99342857Y-60601000D01*
X99342857Y-60601000D02*
X99319047Y-60577190D01*
X99319047Y-60577190D02*
X99295238Y-60529571D01*
X99295238Y-60529571D02*
X99295238Y-60124809D01*
X98985713Y-60339095D02*
X99033332Y-60315285D01*
X99033332Y-60315285D02*
X99057142Y-60291476D01*
X99057142Y-60291476D02*
X99080951Y-60243857D01*
X99080951Y-60243857D02*
X99080951Y-60220047D01*
X99080951Y-60220047D02*
X99057142Y-60172428D01*
X99057142Y-60172428D02*
X99033332Y-60148619D01*
X99033332Y-60148619D02*
X98985713Y-60124809D01*
X98985713Y-60124809D02*
X98890475Y-60124809D01*
X98890475Y-60124809D02*
X98842856Y-60148619D01*
X98842856Y-60148619D02*
X98819047Y-60172428D01*
X98819047Y-60172428D02*
X98795237Y-60220047D01*
X98795237Y-60220047D02*
X98795237Y-60243857D01*
X98795237Y-60243857D02*
X98819047Y-60291476D01*
X98819047Y-60291476D02*
X98842856Y-60315285D01*
X98842856Y-60315285D02*
X98890475Y-60339095D01*
X98890475Y-60339095D02*
X98985713Y-60339095D01*
X98985713Y-60339095D02*
X99033332Y-60362904D01*
X99033332Y-60362904D02*
X99057142Y-60386714D01*
X99057142Y-60386714D02*
X99080951Y-60434333D01*
X99080951Y-60434333D02*
X99080951Y-60529571D01*
X99080951Y-60529571D02*
X99057142Y-60577190D01*
X99057142Y-60577190D02*
X99033332Y-60601000D01*
X99033332Y-60601000D02*
X98985713Y-60624809D01*
X98985713Y-60624809D02*
X98890475Y-60624809D01*
X98890475Y-60624809D02*
X98842856Y-60601000D01*
X98842856Y-60601000D02*
X98819047Y-60577190D01*
X98819047Y-60577190D02*
X98795237Y-60529571D01*
X98795237Y-60529571D02*
X98795237Y-60434333D01*
X98795237Y-60434333D02*
X98819047Y-60386714D01*
X98819047Y-60386714D02*
X98842856Y-60362904D01*
X98842856Y-60362904D02*
X98890475Y-60339095D01*
D14*
X95954819Y-30261905D02*
X94954819Y-30261905D01*
X94954819Y-30261905D02*
X94954819Y-30500000D01*
X94954819Y-30500000D02*
X95002438Y-30642857D01*
X95002438Y-30642857D02*
X95097676Y-30738095D01*
X95097676Y-30738095D02*
X95192914Y-30785714D01*
X95192914Y-30785714D02*
X95383390Y-30833333D01*
X95383390Y-30833333D02*
X95526247Y-30833333D01*
X95526247Y-30833333D02*
X95716723Y-30785714D01*
X95716723Y-30785714D02*
X95811961Y-30738095D01*
X95811961Y-30738095D02*
X95907200Y-30642857D01*
X95907200Y-30642857D02*
X95954819Y-30500000D01*
X95954819Y-30500000D02*
X95954819Y-30261905D01*
X94954819Y-31166667D02*
X94954819Y-31785714D01*
X94954819Y-31785714D02*
X95335771Y-31452381D01*
X95335771Y-31452381D02*
X95335771Y-31595238D01*
X95335771Y-31595238D02*
X95383390Y-31690476D01*
X95383390Y-31690476D02*
X95431009Y-31738095D01*
X95431009Y-31738095D02*
X95526247Y-31785714D01*
X95526247Y-31785714D02*
X95764342Y-31785714D01*
X95764342Y-31785714D02*
X95859580Y-31738095D01*
X95859580Y-31738095D02*
X95907200Y-31690476D01*
X95907200Y-31690476D02*
X95954819Y-31595238D01*
X95954819Y-31595238D02*
X95954819Y-31309524D01*
X95954819Y-31309524D02*
X95907200Y-31214286D01*
X95907200Y-31214286D02*
X95859580Y-31166667D01*
D12*
X75769047Y-107524809D02*
X75769047Y-107024809D01*
X75769047Y-107024809D02*
X75649999Y-107024809D01*
X75649999Y-107024809D02*
X75578571Y-107048619D01*
X75578571Y-107048619D02*
X75530952Y-107096238D01*
X75530952Y-107096238D02*
X75507142Y-107143857D01*
X75507142Y-107143857D02*
X75483333Y-107239095D01*
X75483333Y-107239095D02*
X75483333Y-107310523D01*
X75483333Y-107310523D02*
X75507142Y-107405761D01*
X75507142Y-107405761D02*
X75530952Y-107453380D01*
X75530952Y-107453380D02*
X75578571Y-107501000D01*
X75578571Y-107501000D02*
X75649999Y-107524809D01*
X75649999Y-107524809D02*
X75769047Y-107524809D01*
X75054761Y-107024809D02*
X75149999Y-107024809D01*
X75149999Y-107024809D02*
X75197618Y-107048619D01*
X75197618Y-107048619D02*
X75221428Y-107072428D01*
X75221428Y-107072428D02*
X75269047Y-107143857D01*
X75269047Y-107143857D02*
X75292856Y-107239095D01*
X75292856Y-107239095D02*
X75292856Y-107429571D01*
X75292856Y-107429571D02*
X75269047Y-107477190D01*
X75269047Y-107477190D02*
X75245237Y-107501000D01*
X75245237Y-107501000D02*
X75197618Y-107524809D01*
X75197618Y-107524809D02*
X75102380Y-107524809D01*
X75102380Y-107524809D02*
X75054761Y-107501000D01*
X75054761Y-107501000D02*
X75030952Y-107477190D01*
X75030952Y-107477190D02*
X75007142Y-107429571D01*
X75007142Y-107429571D02*
X75007142Y-107310523D01*
X75007142Y-107310523D02*
X75030952Y-107262904D01*
X75030952Y-107262904D02*
X75054761Y-107239095D01*
X75054761Y-107239095D02*
X75102380Y-107215285D01*
X75102380Y-107215285D02*
X75197618Y-107215285D01*
X75197618Y-107215285D02*
X75245237Y-107239095D01*
X75245237Y-107239095D02*
X75269047Y-107262904D01*
X75269047Y-107262904D02*
X75292856Y-107310523D01*
X56416666Y-94074809D02*
X56416666Y-94431952D01*
X56416666Y-94431952D02*
X56440475Y-94503380D01*
X56440475Y-94503380D02*
X56488094Y-94551000D01*
X56488094Y-94551000D02*
X56559523Y-94574809D01*
X56559523Y-94574809D02*
X56607142Y-94574809D01*
X56178571Y-94574809D02*
X56178571Y-94074809D01*
X56178571Y-94074809D02*
X55988095Y-94074809D01*
X55988095Y-94074809D02*
X55940476Y-94098619D01*
X55940476Y-94098619D02*
X55916666Y-94122428D01*
X55916666Y-94122428D02*
X55892857Y-94170047D01*
X55892857Y-94170047D02*
X55892857Y-94241476D01*
X55892857Y-94241476D02*
X55916666Y-94289095D01*
X55916666Y-94289095D02*
X55940476Y-94312904D01*
X55940476Y-94312904D02*
X55988095Y-94336714D01*
X55988095Y-94336714D02*
X56178571Y-94336714D01*
X55726190Y-94074809D02*
X55416666Y-94074809D01*
X55416666Y-94074809D02*
X55583333Y-94265285D01*
X55583333Y-94265285D02*
X55511904Y-94265285D01*
X55511904Y-94265285D02*
X55464285Y-94289095D01*
X55464285Y-94289095D02*
X55440476Y-94312904D01*
X55440476Y-94312904D02*
X55416666Y-94360523D01*
X55416666Y-94360523D02*
X55416666Y-94479571D01*
X55416666Y-94479571D02*
X55440476Y-94527190D01*
X55440476Y-94527190D02*
X55464285Y-94551000D01*
X55464285Y-94551000D02*
X55511904Y-94574809D01*
X55511904Y-94574809D02*
X55654761Y-94574809D01*
X55654761Y-94574809D02*
X55702380Y-94551000D01*
X55702380Y-94551000D02*
X55726190Y-94527190D01*
X74877190Y-92178571D02*
X74901000Y-92154762D01*
X74901000Y-92154762D02*
X74924809Y-92083333D01*
X74924809Y-92083333D02*
X74924809Y-92035714D01*
X74924809Y-92035714D02*
X74901000Y-91964286D01*
X74901000Y-91964286D02*
X74853380Y-91916667D01*
X74853380Y-91916667D02*
X74805761Y-91892857D01*
X74805761Y-91892857D02*
X74710523Y-91869048D01*
X74710523Y-91869048D02*
X74639095Y-91869048D01*
X74639095Y-91869048D02*
X74543857Y-91892857D01*
X74543857Y-91892857D02*
X74496238Y-91916667D01*
X74496238Y-91916667D02*
X74448619Y-91964286D01*
X74448619Y-91964286D02*
X74424809Y-92035714D01*
X74424809Y-92035714D02*
X74424809Y-92083333D01*
X74424809Y-92083333D02*
X74448619Y-92154762D01*
X74448619Y-92154762D02*
X74472428Y-92178571D01*
X74424809Y-92345238D02*
X74424809Y-92654762D01*
X74424809Y-92654762D02*
X74615285Y-92488095D01*
X74615285Y-92488095D02*
X74615285Y-92559524D01*
X74615285Y-92559524D02*
X74639095Y-92607143D01*
X74639095Y-92607143D02*
X74662904Y-92630952D01*
X74662904Y-92630952D02*
X74710523Y-92654762D01*
X74710523Y-92654762D02*
X74829571Y-92654762D01*
X74829571Y-92654762D02*
X74877190Y-92630952D01*
X74877190Y-92630952D02*
X74901000Y-92607143D01*
X74901000Y-92607143D02*
X74924809Y-92559524D01*
X74924809Y-92559524D02*
X74924809Y-92416667D01*
X74924809Y-92416667D02*
X74901000Y-92369048D01*
X74901000Y-92369048D02*
X74877190Y-92345238D01*
X74924809Y-93130952D02*
X74924809Y-92845238D01*
X74924809Y-92988095D02*
X74424809Y-92988095D01*
X74424809Y-92988095D02*
X74496238Y-92940476D01*
X74496238Y-92940476D02*
X74543857Y-92892857D01*
X74543857Y-92892857D02*
X74567666Y-92845238D01*
X85121428Y-101877190D02*
X85145237Y-101901000D01*
X85145237Y-101901000D02*
X85216666Y-101924809D01*
X85216666Y-101924809D02*
X85264285Y-101924809D01*
X85264285Y-101924809D02*
X85335713Y-101901000D01*
X85335713Y-101901000D02*
X85383332Y-101853380D01*
X85383332Y-101853380D02*
X85407142Y-101805761D01*
X85407142Y-101805761D02*
X85430951Y-101710523D01*
X85430951Y-101710523D02*
X85430951Y-101639095D01*
X85430951Y-101639095D02*
X85407142Y-101543857D01*
X85407142Y-101543857D02*
X85383332Y-101496238D01*
X85383332Y-101496238D02*
X85335713Y-101448619D01*
X85335713Y-101448619D02*
X85264285Y-101424809D01*
X85264285Y-101424809D02*
X85216666Y-101424809D01*
X85216666Y-101424809D02*
X85145237Y-101448619D01*
X85145237Y-101448619D02*
X85121428Y-101472428D01*
X84930951Y-101472428D02*
X84907142Y-101448619D01*
X84907142Y-101448619D02*
X84859523Y-101424809D01*
X84859523Y-101424809D02*
X84740475Y-101424809D01*
X84740475Y-101424809D02*
X84692856Y-101448619D01*
X84692856Y-101448619D02*
X84669047Y-101472428D01*
X84669047Y-101472428D02*
X84645237Y-101520047D01*
X84645237Y-101520047D02*
X84645237Y-101567666D01*
X84645237Y-101567666D02*
X84669047Y-101639095D01*
X84669047Y-101639095D02*
X84954761Y-101924809D01*
X84954761Y-101924809D02*
X84645237Y-101924809D01*
X84359523Y-101639095D02*
X84407142Y-101615285D01*
X84407142Y-101615285D02*
X84430952Y-101591476D01*
X84430952Y-101591476D02*
X84454761Y-101543857D01*
X84454761Y-101543857D02*
X84454761Y-101520047D01*
X84454761Y-101520047D02*
X84430952Y-101472428D01*
X84430952Y-101472428D02*
X84407142Y-101448619D01*
X84407142Y-101448619D02*
X84359523Y-101424809D01*
X84359523Y-101424809D02*
X84264285Y-101424809D01*
X84264285Y-101424809D02*
X84216666Y-101448619D01*
X84216666Y-101448619D02*
X84192857Y-101472428D01*
X84192857Y-101472428D02*
X84169047Y-101520047D01*
X84169047Y-101520047D02*
X84169047Y-101543857D01*
X84169047Y-101543857D02*
X84192857Y-101591476D01*
X84192857Y-101591476D02*
X84216666Y-101615285D01*
X84216666Y-101615285D02*
X84264285Y-101639095D01*
X84264285Y-101639095D02*
X84359523Y-101639095D01*
X84359523Y-101639095D02*
X84407142Y-101662904D01*
X84407142Y-101662904D02*
X84430952Y-101686714D01*
X84430952Y-101686714D02*
X84454761Y-101734333D01*
X84454761Y-101734333D02*
X84454761Y-101829571D01*
X84454761Y-101829571D02*
X84430952Y-101877190D01*
X84430952Y-101877190D02*
X84407142Y-101901000D01*
X84407142Y-101901000D02*
X84359523Y-101924809D01*
X84359523Y-101924809D02*
X84264285Y-101924809D01*
X84264285Y-101924809D02*
X84216666Y-101901000D01*
X84216666Y-101901000D02*
X84192857Y-101877190D01*
X84192857Y-101877190D02*
X84169047Y-101829571D01*
X84169047Y-101829571D02*
X84169047Y-101734333D01*
X84169047Y-101734333D02*
X84192857Y-101686714D01*
X84192857Y-101686714D02*
X84216666Y-101662904D01*
X84216666Y-101662904D02*
X84264285Y-101639095D01*
X108958571Y-52875190D02*
X108791905Y-53113285D01*
X108672857Y-52875190D02*
X108672857Y-53375190D01*
X108672857Y-53375190D02*
X108863333Y-53375190D01*
X108863333Y-53375190D02*
X108910952Y-53351380D01*
X108910952Y-53351380D02*
X108934762Y-53327571D01*
X108934762Y-53327571D02*
X108958571Y-53279952D01*
X108958571Y-53279952D02*
X108958571Y-53208523D01*
X108958571Y-53208523D02*
X108934762Y-53160904D01*
X108934762Y-53160904D02*
X108910952Y-53137095D01*
X108910952Y-53137095D02*
X108863333Y-53113285D01*
X108863333Y-53113285D02*
X108672857Y-53113285D01*
X109434762Y-52875190D02*
X109149048Y-52875190D01*
X109291905Y-52875190D02*
X109291905Y-53375190D01*
X109291905Y-53375190D02*
X109244286Y-53303761D01*
X109244286Y-53303761D02*
X109196667Y-53256142D01*
X109196667Y-53256142D02*
X109149048Y-53232333D01*
X109910952Y-52875190D02*
X109625238Y-52875190D01*
X109768095Y-52875190D02*
X109768095Y-53375190D01*
X109768095Y-53375190D02*
X109720476Y-53303761D01*
X109720476Y-53303761D02*
X109672857Y-53256142D01*
X109672857Y-53256142D02*
X109625238Y-53232333D01*
D14*
X94154819Y-30261905D02*
X93154819Y-30261905D01*
X93154819Y-30261905D02*
X93154819Y-30500000D01*
X93154819Y-30500000D02*
X93202438Y-30642857D01*
X93202438Y-30642857D02*
X93297676Y-30738095D01*
X93297676Y-30738095D02*
X93392914Y-30785714D01*
X93392914Y-30785714D02*
X93583390Y-30833333D01*
X93583390Y-30833333D02*
X93726247Y-30833333D01*
X93726247Y-30833333D02*
X93916723Y-30785714D01*
X93916723Y-30785714D02*
X94011961Y-30738095D01*
X94011961Y-30738095D02*
X94107200Y-30642857D01*
X94107200Y-30642857D02*
X94154819Y-30500000D01*
X94154819Y-30500000D02*
X94154819Y-30261905D01*
X93250057Y-31214286D02*
X93202438Y-31261905D01*
X93202438Y-31261905D02*
X93154819Y-31357143D01*
X93154819Y-31357143D02*
X93154819Y-31595238D01*
X93154819Y-31595238D02*
X93202438Y-31690476D01*
X93202438Y-31690476D02*
X93250057Y-31738095D01*
X93250057Y-31738095D02*
X93345295Y-31785714D01*
X93345295Y-31785714D02*
X93440533Y-31785714D01*
X93440533Y-31785714D02*
X93583390Y-31738095D01*
X93583390Y-31738095D02*
X94154819Y-31166667D01*
X94154819Y-31166667D02*
X94154819Y-31785714D01*
D12*
X49924809Y-115278571D02*
X49686714Y-115111905D01*
X49924809Y-114992857D02*
X49424809Y-114992857D01*
X49424809Y-114992857D02*
X49424809Y-115183333D01*
X49424809Y-115183333D02*
X49448619Y-115230952D01*
X49448619Y-115230952D02*
X49472428Y-115254762D01*
X49472428Y-115254762D02*
X49520047Y-115278571D01*
X49520047Y-115278571D02*
X49591476Y-115278571D01*
X49591476Y-115278571D02*
X49639095Y-115254762D01*
X49639095Y-115254762D02*
X49662904Y-115230952D01*
X49662904Y-115230952D02*
X49686714Y-115183333D01*
X49686714Y-115183333D02*
X49686714Y-114992857D01*
X49472428Y-115469048D02*
X49448619Y-115492857D01*
X49448619Y-115492857D02*
X49424809Y-115540476D01*
X49424809Y-115540476D02*
X49424809Y-115659524D01*
X49424809Y-115659524D02*
X49448619Y-115707143D01*
X49448619Y-115707143D02*
X49472428Y-115730952D01*
X49472428Y-115730952D02*
X49520047Y-115754762D01*
X49520047Y-115754762D02*
X49567666Y-115754762D01*
X49567666Y-115754762D02*
X49639095Y-115730952D01*
X49639095Y-115730952D02*
X49924809Y-115445238D01*
X49924809Y-115445238D02*
X49924809Y-115754762D01*
X49424809Y-115921428D02*
X49424809Y-116230952D01*
X49424809Y-116230952D02*
X49615285Y-116064285D01*
X49615285Y-116064285D02*
X49615285Y-116135714D01*
X49615285Y-116135714D02*
X49639095Y-116183333D01*
X49639095Y-116183333D02*
X49662904Y-116207142D01*
X49662904Y-116207142D02*
X49710523Y-116230952D01*
X49710523Y-116230952D02*
X49829571Y-116230952D01*
X49829571Y-116230952D02*
X49877190Y-116207142D01*
X49877190Y-116207142D02*
X49901000Y-116183333D01*
X49901000Y-116183333D02*
X49924809Y-116135714D01*
X49924809Y-116135714D02*
X49924809Y-115992857D01*
X49924809Y-115992857D02*
X49901000Y-115945238D01*
X49901000Y-115945238D02*
X49877190Y-115921428D01*
X105101428Y-52257190D02*
X105125237Y-52281000D01*
X105125237Y-52281000D02*
X105196666Y-52304809D01*
X105196666Y-52304809D02*
X105244285Y-52304809D01*
X105244285Y-52304809D02*
X105315713Y-52281000D01*
X105315713Y-52281000D02*
X105363332Y-52233380D01*
X105363332Y-52233380D02*
X105387142Y-52185761D01*
X105387142Y-52185761D02*
X105410951Y-52090523D01*
X105410951Y-52090523D02*
X105410951Y-52019095D01*
X105410951Y-52019095D02*
X105387142Y-51923857D01*
X105387142Y-51923857D02*
X105363332Y-51876238D01*
X105363332Y-51876238D02*
X105315713Y-51828619D01*
X105315713Y-51828619D02*
X105244285Y-51804809D01*
X105244285Y-51804809D02*
X105196666Y-51804809D01*
X105196666Y-51804809D02*
X105125237Y-51828619D01*
X105125237Y-51828619D02*
X105101428Y-51852428D01*
X104672856Y-51971476D02*
X104672856Y-52304809D01*
X104791904Y-51781000D02*
X104910951Y-52138142D01*
X104910951Y-52138142D02*
X104601428Y-52138142D01*
X104387142Y-52304809D02*
X104291904Y-52304809D01*
X104291904Y-52304809D02*
X104244285Y-52281000D01*
X104244285Y-52281000D02*
X104220476Y-52257190D01*
X104220476Y-52257190D02*
X104172857Y-52185761D01*
X104172857Y-52185761D02*
X104149047Y-52090523D01*
X104149047Y-52090523D02*
X104149047Y-51900047D01*
X104149047Y-51900047D02*
X104172857Y-51852428D01*
X104172857Y-51852428D02*
X104196666Y-51828619D01*
X104196666Y-51828619D02*
X104244285Y-51804809D01*
X104244285Y-51804809D02*
X104339523Y-51804809D01*
X104339523Y-51804809D02*
X104387142Y-51828619D01*
X104387142Y-51828619D02*
X104410952Y-51852428D01*
X104410952Y-51852428D02*
X104434761Y-51900047D01*
X104434761Y-51900047D02*
X104434761Y-52019095D01*
X104434761Y-52019095D02*
X104410952Y-52066714D01*
X104410952Y-52066714D02*
X104387142Y-52090523D01*
X104387142Y-52090523D02*
X104339523Y-52114333D01*
X104339523Y-52114333D02*
X104244285Y-52114333D01*
X104244285Y-52114333D02*
X104196666Y-52090523D01*
X104196666Y-52090523D02*
X104172857Y-52066714D01*
X104172857Y-52066714D02*
X104149047Y-52019095D01*
X81277190Y-114108830D02*
X81301000Y-114085021D01*
X81301000Y-114085021D02*
X81324809Y-114013592D01*
X81324809Y-114013592D02*
X81324809Y-113965973D01*
X81324809Y-113965973D02*
X81301000Y-113894545D01*
X81301000Y-113894545D02*
X81253380Y-113846926D01*
X81253380Y-113846926D02*
X81205761Y-113823116D01*
X81205761Y-113823116D02*
X81110523Y-113799307D01*
X81110523Y-113799307D02*
X81039095Y-113799307D01*
X81039095Y-113799307D02*
X80943857Y-113823116D01*
X80943857Y-113823116D02*
X80896238Y-113846926D01*
X80896238Y-113846926D02*
X80848619Y-113894545D01*
X80848619Y-113894545D02*
X80824809Y-113965973D01*
X80824809Y-113965973D02*
X80824809Y-114013592D01*
X80824809Y-114013592D02*
X80848619Y-114085021D01*
X80848619Y-114085021D02*
X80872428Y-114108830D01*
X80824809Y-114537402D02*
X80824809Y-114442164D01*
X80824809Y-114442164D02*
X80848619Y-114394545D01*
X80848619Y-114394545D02*
X80872428Y-114370735D01*
X80872428Y-114370735D02*
X80943857Y-114323116D01*
X80943857Y-114323116D02*
X81039095Y-114299307D01*
X81039095Y-114299307D02*
X81229571Y-114299307D01*
X81229571Y-114299307D02*
X81277190Y-114323116D01*
X81277190Y-114323116D02*
X81301000Y-114346926D01*
X81301000Y-114346926D02*
X81324809Y-114394545D01*
X81324809Y-114394545D02*
X81324809Y-114489783D01*
X81324809Y-114489783D02*
X81301000Y-114537402D01*
X81301000Y-114537402D02*
X81277190Y-114561211D01*
X81277190Y-114561211D02*
X81229571Y-114585021D01*
X81229571Y-114585021D02*
X81110523Y-114585021D01*
X81110523Y-114585021D02*
X81062904Y-114561211D01*
X81062904Y-114561211D02*
X81039095Y-114537402D01*
X81039095Y-114537402D02*
X81015285Y-114489783D01*
X81015285Y-114489783D02*
X81015285Y-114394545D01*
X81015285Y-114394545D02*
X81039095Y-114346926D01*
X81039095Y-114346926D02*
X81062904Y-114323116D01*
X81062904Y-114323116D02*
X81110523Y-114299307D01*
X108221428Y-43877190D02*
X108245237Y-43901000D01*
X108245237Y-43901000D02*
X108316666Y-43924809D01*
X108316666Y-43924809D02*
X108364285Y-43924809D01*
X108364285Y-43924809D02*
X108435713Y-43901000D01*
X108435713Y-43901000D02*
X108483332Y-43853380D01*
X108483332Y-43853380D02*
X108507142Y-43805761D01*
X108507142Y-43805761D02*
X108530951Y-43710523D01*
X108530951Y-43710523D02*
X108530951Y-43639095D01*
X108530951Y-43639095D02*
X108507142Y-43543857D01*
X108507142Y-43543857D02*
X108483332Y-43496238D01*
X108483332Y-43496238D02*
X108435713Y-43448619D01*
X108435713Y-43448619D02*
X108364285Y-43424809D01*
X108364285Y-43424809D02*
X108316666Y-43424809D01*
X108316666Y-43424809D02*
X108245237Y-43448619D01*
X108245237Y-43448619D02*
X108221428Y-43472428D01*
X107792856Y-43591476D02*
X107792856Y-43924809D01*
X107911904Y-43401000D02*
X108030951Y-43758142D01*
X108030951Y-43758142D02*
X107721428Y-43758142D01*
X107292857Y-43424809D02*
X107530952Y-43424809D01*
X107530952Y-43424809D02*
X107554761Y-43662904D01*
X107554761Y-43662904D02*
X107530952Y-43639095D01*
X107530952Y-43639095D02*
X107483333Y-43615285D01*
X107483333Y-43615285D02*
X107364285Y-43615285D01*
X107364285Y-43615285D02*
X107316666Y-43639095D01*
X107316666Y-43639095D02*
X107292857Y-43662904D01*
X107292857Y-43662904D02*
X107269047Y-43710523D01*
X107269047Y-43710523D02*
X107269047Y-43829571D01*
X107269047Y-43829571D02*
X107292857Y-43877190D01*
X107292857Y-43877190D02*
X107316666Y-43901000D01*
X107316666Y-43901000D02*
X107364285Y-43924809D01*
X107364285Y-43924809D02*
X107483333Y-43924809D01*
X107483333Y-43924809D02*
X107530952Y-43901000D01*
X107530952Y-43901000D02*
X107554761Y-43877190D01*
X75444809Y-109026666D02*
X75206714Y-108860000D01*
X75444809Y-108740952D02*
X74944809Y-108740952D01*
X74944809Y-108740952D02*
X74944809Y-108931428D01*
X74944809Y-108931428D02*
X74968619Y-108979047D01*
X74968619Y-108979047D02*
X74992428Y-109002857D01*
X74992428Y-109002857D02*
X75040047Y-109026666D01*
X75040047Y-109026666D02*
X75111476Y-109026666D01*
X75111476Y-109026666D02*
X75159095Y-109002857D01*
X75159095Y-109002857D02*
X75182904Y-108979047D01*
X75182904Y-108979047D02*
X75206714Y-108931428D01*
X75206714Y-108931428D02*
X75206714Y-108740952D01*
X74992428Y-109217143D02*
X74968619Y-109240952D01*
X74968619Y-109240952D02*
X74944809Y-109288571D01*
X74944809Y-109288571D02*
X74944809Y-109407619D01*
X74944809Y-109407619D02*
X74968619Y-109455238D01*
X74968619Y-109455238D02*
X74992428Y-109479047D01*
X74992428Y-109479047D02*
X75040047Y-109502857D01*
X75040047Y-109502857D02*
X75087666Y-109502857D01*
X75087666Y-109502857D02*
X75159095Y-109479047D01*
X75159095Y-109479047D02*
X75444809Y-109193333D01*
X75444809Y-109193333D02*
X75444809Y-109502857D01*
X104624809Y-105133333D02*
X104981952Y-105133333D01*
X104981952Y-105133333D02*
X105053380Y-105109524D01*
X105053380Y-105109524D02*
X105101000Y-105061905D01*
X105101000Y-105061905D02*
X105124809Y-104990476D01*
X105124809Y-104990476D02*
X105124809Y-104942857D01*
X104791476Y-105585714D02*
X105124809Y-105585714D01*
X104601000Y-105466666D02*
X104958142Y-105347619D01*
X104958142Y-105347619D02*
X104958142Y-105657142D01*
X99177190Y-40016666D02*
X99201000Y-39992857D01*
X99201000Y-39992857D02*
X99224809Y-39921428D01*
X99224809Y-39921428D02*
X99224809Y-39873809D01*
X99224809Y-39873809D02*
X99201000Y-39802381D01*
X99201000Y-39802381D02*
X99153380Y-39754762D01*
X99153380Y-39754762D02*
X99105761Y-39730952D01*
X99105761Y-39730952D02*
X99010523Y-39707143D01*
X99010523Y-39707143D02*
X98939095Y-39707143D01*
X98939095Y-39707143D02*
X98843857Y-39730952D01*
X98843857Y-39730952D02*
X98796238Y-39754762D01*
X98796238Y-39754762D02*
X98748619Y-39802381D01*
X98748619Y-39802381D02*
X98724809Y-39873809D01*
X98724809Y-39873809D02*
X98724809Y-39921428D01*
X98724809Y-39921428D02*
X98748619Y-39992857D01*
X98748619Y-39992857D02*
X98772428Y-40016666D01*
X98724809Y-40183333D02*
X98724809Y-40492857D01*
X98724809Y-40492857D02*
X98915285Y-40326190D01*
X98915285Y-40326190D02*
X98915285Y-40397619D01*
X98915285Y-40397619D02*
X98939095Y-40445238D01*
X98939095Y-40445238D02*
X98962904Y-40469047D01*
X98962904Y-40469047D02*
X99010523Y-40492857D01*
X99010523Y-40492857D02*
X99129571Y-40492857D01*
X99129571Y-40492857D02*
X99177190Y-40469047D01*
X99177190Y-40469047D02*
X99201000Y-40445238D01*
X99201000Y-40445238D02*
X99224809Y-40397619D01*
X99224809Y-40397619D02*
X99224809Y-40254762D01*
X99224809Y-40254762D02*
X99201000Y-40207143D01*
X99201000Y-40207143D02*
X99177190Y-40183333D01*
X70024809Y-90478571D02*
X69786714Y-90311905D01*
X70024809Y-90192857D02*
X69524809Y-90192857D01*
X69524809Y-90192857D02*
X69524809Y-90383333D01*
X69524809Y-90383333D02*
X69548619Y-90430952D01*
X69548619Y-90430952D02*
X69572428Y-90454762D01*
X69572428Y-90454762D02*
X69620047Y-90478571D01*
X69620047Y-90478571D02*
X69691476Y-90478571D01*
X69691476Y-90478571D02*
X69739095Y-90454762D01*
X69739095Y-90454762D02*
X69762904Y-90430952D01*
X69762904Y-90430952D02*
X69786714Y-90383333D01*
X69786714Y-90383333D02*
X69786714Y-90192857D01*
X70024809Y-90954762D02*
X70024809Y-90669048D01*
X70024809Y-90811905D02*
X69524809Y-90811905D01*
X69524809Y-90811905D02*
X69596238Y-90764286D01*
X69596238Y-90764286D02*
X69643857Y-90716667D01*
X69643857Y-90716667D02*
X69667666Y-90669048D01*
X69524809Y-91264285D02*
X69524809Y-91311904D01*
X69524809Y-91311904D02*
X69548619Y-91359523D01*
X69548619Y-91359523D02*
X69572428Y-91383333D01*
X69572428Y-91383333D02*
X69620047Y-91407142D01*
X69620047Y-91407142D02*
X69715285Y-91430952D01*
X69715285Y-91430952D02*
X69834333Y-91430952D01*
X69834333Y-91430952D02*
X69929571Y-91407142D01*
X69929571Y-91407142D02*
X69977190Y-91383333D01*
X69977190Y-91383333D02*
X70001000Y-91359523D01*
X70001000Y-91359523D02*
X70024809Y-91311904D01*
X70024809Y-91311904D02*
X70024809Y-91264285D01*
X70024809Y-91264285D02*
X70001000Y-91216666D01*
X70001000Y-91216666D02*
X69977190Y-91192857D01*
X69977190Y-91192857D02*
X69929571Y-91169047D01*
X69929571Y-91169047D02*
X69834333Y-91145238D01*
X69834333Y-91145238D02*
X69715285Y-91145238D01*
X69715285Y-91145238D02*
X69620047Y-91169047D01*
X69620047Y-91169047D02*
X69572428Y-91192857D01*
X69572428Y-91192857D02*
X69548619Y-91216666D01*
X69548619Y-91216666D02*
X69524809Y-91264285D01*
X41141000Y-82433334D02*
X41164809Y-82504762D01*
X41164809Y-82504762D02*
X41164809Y-82623810D01*
X41164809Y-82623810D02*
X41141000Y-82671429D01*
X41141000Y-82671429D02*
X41117190Y-82695238D01*
X41117190Y-82695238D02*
X41069571Y-82719048D01*
X41069571Y-82719048D02*
X41021952Y-82719048D01*
X41021952Y-82719048D02*
X40974333Y-82695238D01*
X40974333Y-82695238D02*
X40950523Y-82671429D01*
X40950523Y-82671429D02*
X40926714Y-82623810D01*
X40926714Y-82623810D02*
X40902904Y-82528572D01*
X40902904Y-82528572D02*
X40879095Y-82480953D01*
X40879095Y-82480953D02*
X40855285Y-82457143D01*
X40855285Y-82457143D02*
X40807666Y-82433334D01*
X40807666Y-82433334D02*
X40760047Y-82433334D01*
X40760047Y-82433334D02*
X40712428Y-82457143D01*
X40712428Y-82457143D02*
X40688619Y-82480953D01*
X40688619Y-82480953D02*
X40664809Y-82528572D01*
X40664809Y-82528572D02*
X40664809Y-82647619D01*
X40664809Y-82647619D02*
X40688619Y-82719048D01*
X40664809Y-82885714D02*
X41164809Y-83004762D01*
X41164809Y-83004762D02*
X40807666Y-83100000D01*
X40807666Y-83100000D02*
X41164809Y-83195238D01*
X41164809Y-83195238D02*
X40664809Y-83314286D01*
X41164809Y-83766667D02*
X41164809Y-83480953D01*
X41164809Y-83623810D02*
X40664809Y-83623810D01*
X40664809Y-83623810D02*
X40736238Y-83576191D01*
X40736238Y-83576191D02*
X40783857Y-83528572D01*
X40783857Y-83528572D02*
X40807666Y-83480953D01*
X107124809Y-29378571D02*
X106886714Y-29211905D01*
X107124809Y-29092857D02*
X106624809Y-29092857D01*
X106624809Y-29092857D02*
X106624809Y-29283333D01*
X106624809Y-29283333D02*
X106648619Y-29330952D01*
X106648619Y-29330952D02*
X106672428Y-29354762D01*
X106672428Y-29354762D02*
X106720047Y-29378571D01*
X106720047Y-29378571D02*
X106791476Y-29378571D01*
X106791476Y-29378571D02*
X106839095Y-29354762D01*
X106839095Y-29354762D02*
X106862904Y-29330952D01*
X106862904Y-29330952D02*
X106886714Y-29283333D01*
X106886714Y-29283333D02*
X106886714Y-29092857D01*
X107124809Y-29854762D02*
X107124809Y-29569048D01*
X107124809Y-29711905D02*
X106624809Y-29711905D01*
X106624809Y-29711905D02*
X106696238Y-29664286D01*
X106696238Y-29664286D02*
X106743857Y-29616667D01*
X106743857Y-29616667D02*
X106767666Y-29569048D01*
X106624809Y-30307142D02*
X106624809Y-30069047D01*
X106624809Y-30069047D02*
X106862904Y-30045238D01*
X106862904Y-30045238D02*
X106839095Y-30069047D01*
X106839095Y-30069047D02*
X106815285Y-30116666D01*
X106815285Y-30116666D02*
X106815285Y-30235714D01*
X106815285Y-30235714D02*
X106839095Y-30283333D01*
X106839095Y-30283333D02*
X106862904Y-30307142D01*
X106862904Y-30307142D02*
X106910523Y-30330952D01*
X106910523Y-30330952D02*
X107029571Y-30330952D01*
X107029571Y-30330952D02*
X107077190Y-30307142D01*
X107077190Y-30307142D02*
X107101000Y-30283333D01*
X107101000Y-30283333D02*
X107124809Y-30235714D01*
X107124809Y-30235714D02*
X107124809Y-30116666D01*
X107124809Y-30116666D02*
X107101000Y-30069047D01*
X107101000Y-30069047D02*
X107077190Y-30045238D01*
X107278571Y-46275190D02*
X107111905Y-46513285D01*
X106992857Y-46275190D02*
X106992857Y-46775190D01*
X106992857Y-46775190D02*
X107183333Y-46775190D01*
X107183333Y-46775190D02*
X107230952Y-46751380D01*
X107230952Y-46751380D02*
X107254762Y-46727571D01*
X107254762Y-46727571D02*
X107278571Y-46679952D01*
X107278571Y-46679952D02*
X107278571Y-46608523D01*
X107278571Y-46608523D02*
X107254762Y-46560904D01*
X107254762Y-46560904D02*
X107230952Y-46537095D01*
X107230952Y-46537095D02*
X107183333Y-46513285D01*
X107183333Y-46513285D02*
X106992857Y-46513285D01*
X107754762Y-46275190D02*
X107469048Y-46275190D01*
X107611905Y-46275190D02*
X107611905Y-46775190D01*
X107611905Y-46775190D02*
X107564286Y-46703761D01*
X107564286Y-46703761D02*
X107516667Y-46656142D01*
X107516667Y-46656142D02*
X107469048Y-46632333D01*
X107945238Y-46727571D02*
X107969047Y-46751380D01*
X107969047Y-46751380D02*
X108016666Y-46775190D01*
X108016666Y-46775190D02*
X108135714Y-46775190D01*
X108135714Y-46775190D02*
X108183333Y-46751380D01*
X108183333Y-46751380D02*
X108207142Y-46727571D01*
X108207142Y-46727571D02*
X108230952Y-46679952D01*
X108230952Y-46679952D02*
X108230952Y-46632333D01*
X108230952Y-46632333D02*
X108207142Y-46560904D01*
X108207142Y-46560904D02*
X107921428Y-46275190D01*
X107921428Y-46275190D02*
X108230952Y-46275190D01*
X72377190Y-93998571D02*
X72401000Y-93974762D01*
X72401000Y-93974762D02*
X72424809Y-93903333D01*
X72424809Y-93903333D02*
X72424809Y-93855714D01*
X72424809Y-93855714D02*
X72401000Y-93784286D01*
X72401000Y-93784286D02*
X72353380Y-93736667D01*
X72353380Y-93736667D02*
X72305761Y-93712857D01*
X72305761Y-93712857D02*
X72210523Y-93689048D01*
X72210523Y-93689048D02*
X72139095Y-93689048D01*
X72139095Y-93689048D02*
X72043857Y-93712857D01*
X72043857Y-93712857D02*
X71996238Y-93736667D01*
X71996238Y-93736667D02*
X71948619Y-93784286D01*
X71948619Y-93784286D02*
X71924809Y-93855714D01*
X71924809Y-93855714D02*
X71924809Y-93903333D01*
X71924809Y-93903333D02*
X71948619Y-93974762D01*
X71948619Y-93974762D02*
X71972428Y-93998571D01*
X72424809Y-94474762D02*
X72424809Y-94189048D01*
X72424809Y-94331905D02*
X71924809Y-94331905D01*
X71924809Y-94331905D02*
X71996238Y-94284286D01*
X71996238Y-94284286D02*
X72043857Y-94236667D01*
X72043857Y-94236667D02*
X72067666Y-94189048D01*
X71972428Y-94665238D02*
X71948619Y-94689047D01*
X71948619Y-94689047D02*
X71924809Y-94736666D01*
X71924809Y-94736666D02*
X71924809Y-94855714D01*
X71924809Y-94855714D02*
X71948619Y-94903333D01*
X71948619Y-94903333D02*
X71972428Y-94927142D01*
X71972428Y-94927142D02*
X72020047Y-94950952D01*
X72020047Y-94950952D02*
X72067666Y-94950952D01*
X72067666Y-94950952D02*
X72139095Y-94927142D01*
X72139095Y-94927142D02*
X72424809Y-94641428D01*
X72424809Y-94641428D02*
X72424809Y-94950952D01*
X106679809Y-83313333D02*
X107036952Y-83313333D01*
X107036952Y-83313333D02*
X107108380Y-83289524D01*
X107108380Y-83289524D02*
X107156000Y-83241905D01*
X107156000Y-83241905D02*
X107179809Y-83170476D01*
X107179809Y-83170476D02*
X107179809Y-83122857D01*
X107179809Y-83813333D02*
X107179809Y-83527619D01*
X107179809Y-83670476D02*
X106679809Y-83670476D01*
X106679809Y-83670476D02*
X106751238Y-83622857D01*
X106751238Y-83622857D02*
X106798857Y-83575238D01*
X106798857Y-83575238D02*
X106822666Y-83527619D01*
X73616666Y-87224809D02*
X73616666Y-87581952D01*
X73616666Y-87581952D02*
X73640475Y-87653380D01*
X73640475Y-87653380D02*
X73688094Y-87701000D01*
X73688094Y-87701000D02*
X73759523Y-87724809D01*
X73759523Y-87724809D02*
X73807142Y-87724809D01*
X73378571Y-87724809D02*
X73378571Y-87224809D01*
X73378571Y-87224809D02*
X73188095Y-87224809D01*
X73188095Y-87224809D02*
X73140476Y-87248619D01*
X73140476Y-87248619D02*
X73116666Y-87272428D01*
X73116666Y-87272428D02*
X73092857Y-87320047D01*
X73092857Y-87320047D02*
X73092857Y-87391476D01*
X73092857Y-87391476D02*
X73116666Y-87439095D01*
X73116666Y-87439095D02*
X73140476Y-87462904D01*
X73140476Y-87462904D02*
X73188095Y-87486714D01*
X73188095Y-87486714D02*
X73378571Y-87486714D01*
X72640476Y-87224809D02*
X72878571Y-87224809D01*
X72878571Y-87224809D02*
X72902380Y-87462904D01*
X72902380Y-87462904D02*
X72878571Y-87439095D01*
X72878571Y-87439095D02*
X72830952Y-87415285D01*
X72830952Y-87415285D02*
X72711904Y-87415285D01*
X72711904Y-87415285D02*
X72664285Y-87439095D01*
X72664285Y-87439095D02*
X72640476Y-87462904D01*
X72640476Y-87462904D02*
X72616666Y-87510523D01*
X72616666Y-87510523D02*
X72616666Y-87629571D01*
X72616666Y-87629571D02*
X72640476Y-87677190D01*
X72640476Y-87677190D02*
X72664285Y-87701000D01*
X72664285Y-87701000D02*
X72711904Y-87724809D01*
X72711904Y-87724809D02*
X72830952Y-87724809D01*
X72830952Y-87724809D02*
X72878571Y-87701000D01*
X72878571Y-87701000D02*
X72902380Y-87677190D01*
X70849809Y-83313333D02*
X71206952Y-83313333D01*
X71206952Y-83313333D02*
X71278380Y-83289524D01*
X71278380Y-83289524D02*
X71326000Y-83241905D01*
X71326000Y-83241905D02*
X71349809Y-83170476D01*
X71349809Y-83170476D02*
X71349809Y-83122857D01*
X70897428Y-83527619D02*
X70873619Y-83551428D01*
X70873619Y-83551428D02*
X70849809Y-83599047D01*
X70849809Y-83599047D02*
X70849809Y-83718095D01*
X70849809Y-83718095D02*
X70873619Y-83765714D01*
X70873619Y-83765714D02*
X70897428Y-83789523D01*
X70897428Y-83789523D02*
X70945047Y-83813333D01*
X70945047Y-83813333D02*
X70992666Y-83813333D01*
X70992666Y-83813333D02*
X71064095Y-83789523D01*
X71064095Y-83789523D02*
X71349809Y-83503809D01*
X71349809Y-83503809D02*
X71349809Y-83813333D01*
X68624809Y-90716666D02*
X68386714Y-90550000D01*
X68624809Y-90430952D02*
X68124809Y-90430952D01*
X68124809Y-90430952D02*
X68124809Y-90621428D01*
X68124809Y-90621428D02*
X68148619Y-90669047D01*
X68148619Y-90669047D02*
X68172428Y-90692857D01*
X68172428Y-90692857D02*
X68220047Y-90716666D01*
X68220047Y-90716666D02*
X68291476Y-90716666D01*
X68291476Y-90716666D02*
X68339095Y-90692857D01*
X68339095Y-90692857D02*
X68362904Y-90669047D01*
X68362904Y-90669047D02*
X68386714Y-90621428D01*
X68386714Y-90621428D02*
X68386714Y-90430952D01*
X68291476Y-91145238D02*
X68624809Y-91145238D01*
X68101000Y-91026190D02*
X68458142Y-90907143D01*
X68458142Y-90907143D02*
X68458142Y-91216666D01*
X72477190Y-104078571D02*
X72501000Y-104054762D01*
X72501000Y-104054762D02*
X72524809Y-103983333D01*
X72524809Y-103983333D02*
X72524809Y-103935714D01*
X72524809Y-103935714D02*
X72501000Y-103864286D01*
X72501000Y-103864286D02*
X72453380Y-103816667D01*
X72453380Y-103816667D02*
X72405761Y-103792857D01*
X72405761Y-103792857D02*
X72310523Y-103769048D01*
X72310523Y-103769048D02*
X72239095Y-103769048D01*
X72239095Y-103769048D02*
X72143857Y-103792857D01*
X72143857Y-103792857D02*
X72096238Y-103816667D01*
X72096238Y-103816667D02*
X72048619Y-103864286D01*
X72048619Y-103864286D02*
X72024809Y-103935714D01*
X72024809Y-103935714D02*
X72024809Y-103983333D01*
X72024809Y-103983333D02*
X72048619Y-104054762D01*
X72048619Y-104054762D02*
X72072428Y-104078571D01*
X72524809Y-104554762D02*
X72524809Y-104269048D01*
X72524809Y-104411905D02*
X72024809Y-104411905D01*
X72024809Y-104411905D02*
X72096238Y-104364286D01*
X72096238Y-104364286D02*
X72143857Y-104316667D01*
X72143857Y-104316667D02*
X72167666Y-104269048D01*
X72024809Y-104983333D02*
X72024809Y-104888095D01*
X72024809Y-104888095D02*
X72048619Y-104840476D01*
X72048619Y-104840476D02*
X72072428Y-104816666D01*
X72072428Y-104816666D02*
X72143857Y-104769047D01*
X72143857Y-104769047D02*
X72239095Y-104745238D01*
X72239095Y-104745238D02*
X72429571Y-104745238D01*
X72429571Y-104745238D02*
X72477190Y-104769047D01*
X72477190Y-104769047D02*
X72501000Y-104792857D01*
X72501000Y-104792857D02*
X72524809Y-104840476D01*
X72524809Y-104840476D02*
X72524809Y-104935714D01*
X72524809Y-104935714D02*
X72501000Y-104983333D01*
X72501000Y-104983333D02*
X72477190Y-105007142D01*
X72477190Y-105007142D02*
X72429571Y-105030952D01*
X72429571Y-105030952D02*
X72310523Y-105030952D01*
X72310523Y-105030952D02*
X72262904Y-105007142D01*
X72262904Y-105007142D02*
X72239095Y-104983333D01*
X72239095Y-104983333D02*
X72215285Y-104935714D01*
X72215285Y-104935714D02*
X72215285Y-104840476D01*
X72215285Y-104840476D02*
X72239095Y-104792857D01*
X72239095Y-104792857D02*
X72262904Y-104769047D01*
X72262904Y-104769047D02*
X72310523Y-104745238D01*
D14*
X99454819Y-30261905D02*
X98454819Y-30261905D01*
X98454819Y-30261905D02*
X98454819Y-30500000D01*
X98454819Y-30500000D02*
X98502438Y-30642857D01*
X98502438Y-30642857D02*
X98597676Y-30738095D01*
X98597676Y-30738095D02*
X98692914Y-30785714D01*
X98692914Y-30785714D02*
X98883390Y-30833333D01*
X98883390Y-30833333D02*
X99026247Y-30833333D01*
X99026247Y-30833333D02*
X99216723Y-30785714D01*
X99216723Y-30785714D02*
X99311961Y-30738095D01*
X99311961Y-30738095D02*
X99407200Y-30642857D01*
X99407200Y-30642857D02*
X99454819Y-30500000D01*
X99454819Y-30500000D02*
X99454819Y-30261905D01*
X98454819Y-31738095D02*
X98454819Y-31261905D01*
X98454819Y-31261905D02*
X98931009Y-31214286D01*
X98931009Y-31214286D02*
X98883390Y-31261905D01*
X98883390Y-31261905D02*
X98835771Y-31357143D01*
X98835771Y-31357143D02*
X98835771Y-31595238D01*
X98835771Y-31595238D02*
X98883390Y-31690476D01*
X98883390Y-31690476D02*
X98931009Y-31738095D01*
X98931009Y-31738095D02*
X99026247Y-31785714D01*
X99026247Y-31785714D02*
X99264342Y-31785714D01*
X99264342Y-31785714D02*
X99359580Y-31738095D01*
X99359580Y-31738095D02*
X99407200Y-31690476D01*
X99407200Y-31690476D02*
X99454819Y-31595238D01*
X99454819Y-31595238D02*
X99454819Y-31357143D01*
X99454819Y-31357143D02*
X99407200Y-31261905D01*
X99407200Y-31261905D02*
X99359580Y-31214286D01*
D12*
X80651428Y-112777190D02*
X80675237Y-112801000D01*
X80675237Y-112801000D02*
X80746666Y-112824809D01*
X80746666Y-112824809D02*
X80794285Y-112824809D01*
X80794285Y-112824809D02*
X80865713Y-112801000D01*
X80865713Y-112801000D02*
X80913332Y-112753380D01*
X80913332Y-112753380D02*
X80937142Y-112705761D01*
X80937142Y-112705761D02*
X80960951Y-112610523D01*
X80960951Y-112610523D02*
X80960951Y-112539095D01*
X80960951Y-112539095D02*
X80937142Y-112443857D01*
X80937142Y-112443857D02*
X80913332Y-112396238D01*
X80913332Y-112396238D02*
X80865713Y-112348619D01*
X80865713Y-112348619D02*
X80794285Y-112324809D01*
X80794285Y-112324809D02*
X80746666Y-112324809D01*
X80746666Y-112324809D02*
X80675237Y-112348619D01*
X80675237Y-112348619D02*
X80651428Y-112372428D01*
X80175237Y-112824809D02*
X80460951Y-112824809D01*
X80318094Y-112824809D02*
X80318094Y-112324809D01*
X80318094Y-112324809D02*
X80365713Y-112396238D01*
X80365713Y-112396238D02*
X80413332Y-112443857D01*
X80413332Y-112443857D02*
X80460951Y-112467666D01*
X79699047Y-112824809D02*
X79984761Y-112824809D01*
X79841904Y-112824809D02*
X79841904Y-112324809D01*
X79841904Y-112324809D02*
X79889523Y-112396238D01*
X79889523Y-112396238D02*
X79937142Y-112443857D01*
X79937142Y-112443857D02*
X79984761Y-112467666D01*
X97283333Y-109377190D02*
X97307142Y-109401000D01*
X97307142Y-109401000D02*
X97378571Y-109424809D01*
X97378571Y-109424809D02*
X97426190Y-109424809D01*
X97426190Y-109424809D02*
X97497618Y-109401000D01*
X97497618Y-109401000D02*
X97545237Y-109353380D01*
X97545237Y-109353380D02*
X97569047Y-109305761D01*
X97569047Y-109305761D02*
X97592856Y-109210523D01*
X97592856Y-109210523D02*
X97592856Y-109139095D01*
X97592856Y-109139095D02*
X97569047Y-109043857D01*
X97569047Y-109043857D02*
X97545237Y-108996238D01*
X97545237Y-108996238D02*
X97497618Y-108948619D01*
X97497618Y-108948619D02*
X97426190Y-108924809D01*
X97426190Y-108924809D02*
X97378571Y-108924809D01*
X97378571Y-108924809D02*
X97307142Y-108948619D01*
X97307142Y-108948619D02*
X97283333Y-108972428D01*
X96807142Y-109424809D02*
X97092856Y-109424809D01*
X96949999Y-109424809D02*
X96949999Y-108924809D01*
X96949999Y-108924809D02*
X96997618Y-108996238D01*
X96997618Y-108996238D02*
X97045237Y-109043857D01*
X97045237Y-109043857D02*
X97092856Y-109067666D01*
X66921428Y-99277190D02*
X66945237Y-99301000D01*
X66945237Y-99301000D02*
X67016666Y-99324809D01*
X67016666Y-99324809D02*
X67064285Y-99324809D01*
X67064285Y-99324809D02*
X67135713Y-99301000D01*
X67135713Y-99301000D02*
X67183332Y-99253380D01*
X67183332Y-99253380D02*
X67207142Y-99205761D01*
X67207142Y-99205761D02*
X67230951Y-99110523D01*
X67230951Y-99110523D02*
X67230951Y-99039095D01*
X67230951Y-99039095D02*
X67207142Y-98943857D01*
X67207142Y-98943857D02*
X67183332Y-98896238D01*
X67183332Y-98896238D02*
X67135713Y-98848619D01*
X67135713Y-98848619D02*
X67064285Y-98824809D01*
X67064285Y-98824809D02*
X67016666Y-98824809D01*
X67016666Y-98824809D02*
X66945237Y-98848619D01*
X66945237Y-98848619D02*
X66921428Y-98872428D01*
X66730951Y-98872428D02*
X66707142Y-98848619D01*
X66707142Y-98848619D02*
X66659523Y-98824809D01*
X66659523Y-98824809D02*
X66540475Y-98824809D01*
X66540475Y-98824809D02*
X66492856Y-98848619D01*
X66492856Y-98848619D02*
X66469047Y-98872428D01*
X66469047Y-98872428D02*
X66445237Y-98920047D01*
X66445237Y-98920047D02*
X66445237Y-98967666D01*
X66445237Y-98967666D02*
X66469047Y-99039095D01*
X66469047Y-99039095D02*
X66754761Y-99324809D01*
X66754761Y-99324809D02*
X66445237Y-99324809D01*
X66278571Y-98824809D02*
X65945238Y-98824809D01*
X65945238Y-98824809D02*
X66159523Y-99324809D01*
D11*
X105526109Y-59183333D02*
X105883252Y-59183333D01*
X105883252Y-59183333D02*
X105954680Y-59159524D01*
X105954680Y-59159524D02*
X106002300Y-59111905D01*
X106002300Y-59111905D02*
X106026109Y-59040476D01*
X106026109Y-59040476D02*
X106026109Y-58992857D01*
X105526109Y-59635714D02*
X105526109Y-59540476D01*
X105526109Y-59540476D02*
X105549919Y-59492857D01*
X105549919Y-59492857D02*
X105573728Y-59469047D01*
X105573728Y-59469047D02*
X105645157Y-59421428D01*
X105645157Y-59421428D02*
X105740395Y-59397619D01*
X105740395Y-59397619D02*
X105930871Y-59397619D01*
X105930871Y-59397619D02*
X105978490Y-59421428D01*
X105978490Y-59421428D02*
X106002300Y-59445238D01*
X106002300Y-59445238D02*
X106026109Y-59492857D01*
X106026109Y-59492857D02*
X106026109Y-59588095D01*
X106026109Y-59588095D02*
X106002300Y-59635714D01*
X106002300Y-59635714D02*
X105978490Y-59659523D01*
X105978490Y-59659523D02*
X105930871Y-59683333D01*
X105930871Y-59683333D02*
X105811823Y-59683333D01*
X105811823Y-59683333D02*
X105764204Y-59659523D01*
X105764204Y-59659523D02*
X105740395Y-59635714D01*
X105740395Y-59635714D02*
X105716585Y-59588095D01*
X105716585Y-59588095D02*
X105716585Y-59492857D01*
X105716585Y-59492857D02*
X105740395Y-59445238D01*
X105740395Y-59445238D02*
X105764204Y-59421428D01*
X105764204Y-59421428D02*
X105811823Y-59397619D01*
D12*
X92983333Y-111724809D02*
X93221428Y-111724809D01*
X93221428Y-111724809D02*
X93221428Y-111224809D01*
X92840475Y-111272428D02*
X92816666Y-111248619D01*
X92816666Y-111248619D02*
X92769047Y-111224809D01*
X92769047Y-111224809D02*
X92649999Y-111224809D01*
X92649999Y-111224809D02*
X92602380Y-111248619D01*
X92602380Y-111248619D02*
X92578571Y-111272428D01*
X92578571Y-111272428D02*
X92554761Y-111320047D01*
X92554761Y-111320047D02*
X92554761Y-111367666D01*
X92554761Y-111367666D02*
X92578571Y-111439095D01*
X92578571Y-111439095D02*
X92864285Y-111724809D01*
X92864285Y-111724809D02*
X92554761Y-111724809D01*
X77124809Y-93978571D02*
X76886714Y-93811905D01*
X77124809Y-93692857D02*
X76624809Y-93692857D01*
X76624809Y-93692857D02*
X76624809Y-93883333D01*
X76624809Y-93883333D02*
X76648619Y-93930952D01*
X76648619Y-93930952D02*
X76672428Y-93954762D01*
X76672428Y-93954762D02*
X76720047Y-93978571D01*
X76720047Y-93978571D02*
X76791476Y-93978571D01*
X76791476Y-93978571D02*
X76839095Y-93954762D01*
X76839095Y-93954762D02*
X76862904Y-93930952D01*
X76862904Y-93930952D02*
X76886714Y-93883333D01*
X76886714Y-93883333D02*
X76886714Y-93692857D01*
X77124809Y-94454762D02*
X77124809Y-94169048D01*
X77124809Y-94311905D02*
X76624809Y-94311905D01*
X76624809Y-94311905D02*
X76696238Y-94264286D01*
X76696238Y-94264286D02*
X76743857Y-94216667D01*
X76743857Y-94216667D02*
X76767666Y-94169048D01*
X77124809Y-94692857D02*
X77124809Y-94788095D01*
X77124809Y-94788095D02*
X77101000Y-94835714D01*
X77101000Y-94835714D02*
X77077190Y-94859523D01*
X77077190Y-94859523D02*
X77005761Y-94907142D01*
X77005761Y-94907142D02*
X76910523Y-94930952D01*
X76910523Y-94930952D02*
X76720047Y-94930952D01*
X76720047Y-94930952D02*
X76672428Y-94907142D01*
X76672428Y-94907142D02*
X76648619Y-94883333D01*
X76648619Y-94883333D02*
X76624809Y-94835714D01*
X76624809Y-94835714D02*
X76624809Y-94740476D01*
X76624809Y-94740476D02*
X76648619Y-94692857D01*
X76648619Y-94692857D02*
X76672428Y-94669047D01*
X76672428Y-94669047D02*
X76720047Y-94645238D01*
X76720047Y-94645238D02*
X76839095Y-94645238D01*
X76839095Y-94645238D02*
X76886714Y-94669047D01*
X76886714Y-94669047D02*
X76910523Y-94692857D01*
X76910523Y-94692857D02*
X76934333Y-94740476D01*
X76934333Y-94740476D02*
X76934333Y-94835714D01*
X76934333Y-94835714D02*
X76910523Y-94883333D01*
X76910523Y-94883333D02*
X76886714Y-94907142D01*
X76886714Y-94907142D02*
X76839095Y-94930952D01*
X94331428Y-60454809D02*
X94498094Y-60216714D01*
X94617142Y-60454809D02*
X94617142Y-59954809D01*
X94617142Y-59954809D02*
X94426666Y-59954809D01*
X94426666Y-59954809D02*
X94379047Y-59978619D01*
X94379047Y-59978619D02*
X94355237Y-60002428D01*
X94355237Y-60002428D02*
X94331428Y-60050047D01*
X94331428Y-60050047D02*
X94331428Y-60121476D01*
X94331428Y-60121476D02*
X94355237Y-60169095D01*
X94355237Y-60169095D02*
X94379047Y-60192904D01*
X94379047Y-60192904D02*
X94426666Y-60216714D01*
X94426666Y-60216714D02*
X94617142Y-60216714D01*
X94140951Y-60002428D02*
X94117142Y-59978619D01*
X94117142Y-59978619D02*
X94069523Y-59954809D01*
X94069523Y-59954809D02*
X93950475Y-59954809D01*
X93950475Y-59954809D02*
X93902856Y-59978619D01*
X93902856Y-59978619D02*
X93879047Y-60002428D01*
X93879047Y-60002428D02*
X93855237Y-60050047D01*
X93855237Y-60050047D02*
X93855237Y-60097666D01*
X93855237Y-60097666D02*
X93879047Y-60169095D01*
X93879047Y-60169095D02*
X94164761Y-60454809D01*
X94164761Y-60454809D02*
X93855237Y-60454809D01*
X93426666Y-60121476D02*
X93426666Y-60454809D01*
X93545714Y-59931000D02*
X93664761Y-60288142D01*
X93664761Y-60288142D02*
X93355238Y-60288142D01*
X75924809Y-92516666D02*
X75686714Y-92350000D01*
X75924809Y-92230952D02*
X75424809Y-92230952D01*
X75424809Y-92230952D02*
X75424809Y-92421428D01*
X75424809Y-92421428D02*
X75448619Y-92469047D01*
X75448619Y-92469047D02*
X75472428Y-92492857D01*
X75472428Y-92492857D02*
X75520047Y-92516666D01*
X75520047Y-92516666D02*
X75591476Y-92516666D01*
X75591476Y-92516666D02*
X75639095Y-92492857D01*
X75639095Y-92492857D02*
X75662904Y-92469047D01*
X75662904Y-92469047D02*
X75686714Y-92421428D01*
X75686714Y-92421428D02*
X75686714Y-92230952D01*
X75924809Y-92754762D02*
X75924809Y-92850000D01*
X75924809Y-92850000D02*
X75901000Y-92897619D01*
X75901000Y-92897619D02*
X75877190Y-92921428D01*
X75877190Y-92921428D02*
X75805761Y-92969047D01*
X75805761Y-92969047D02*
X75710523Y-92992857D01*
X75710523Y-92992857D02*
X75520047Y-92992857D01*
X75520047Y-92992857D02*
X75472428Y-92969047D01*
X75472428Y-92969047D02*
X75448619Y-92945238D01*
X75448619Y-92945238D02*
X75424809Y-92897619D01*
X75424809Y-92897619D02*
X75424809Y-92802381D01*
X75424809Y-92802381D02*
X75448619Y-92754762D01*
X75448619Y-92754762D02*
X75472428Y-92730952D01*
X75472428Y-92730952D02*
X75520047Y-92707143D01*
X75520047Y-92707143D02*
X75639095Y-92707143D01*
X75639095Y-92707143D02*
X75686714Y-92730952D01*
X75686714Y-92730952D02*
X75710523Y-92754762D01*
X75710523Y-92754762D02*
X75734333Y-92802381D01*
X75734333Y-92802381D02*
X75734333Y-92897619D01*
X75734333Y-92897619D02*
X75710523Y-92945238D01*
X75710523Y-92945238D02*
X75686714Y-92969047D01*
X75686714Y-92969047D02*
X75639095Y-92992857D01*
X53007142Y-113724809D02*
X53007142Y-113224809D01*
X53007142Y-113224809D02*
X52888094Y-113224809D01*
X52888094Y-113224809D02*
X52816666Y-113248619D01*
X52816666Y-113248619D02*
X52769047Y-113296238D01*
X52769047Y-113296238D02*
X52745237Y-113343857D01*
X52745237Y-113343857D02*
X52721428Y-113439095D01*
X52721428Y-113439095D02*
X52721428Y-113510523D01*
X52721428Y-113510523D02*
X52745237Y-113605761D01*
X52745237Y-113605761D02*
X52769047Y-113653380D01*
X52769047Y-113653380D02*
X52816666Y-113701000D01*
X52816666Y-113701000D02*
X52888094Y-113724809D01*
X52888094Y-113724809D02*
X53007142Y-113724809D01*
X52245237Y-113724809D02*
X52530951Y-113724809D01*
X52388094Y-113724809D02*
X52388094Y-113224809D01*
X52388094Y-113224809D02*
X52435713Y-113296238D01*
X52435713Y-113296238D02*
X52483332Y-113343857D01*
X52483332Y-113343857D02*
X52530951Y-113367666D01*
X52078571Y-113224809D02*
X51769047Y-113224809D01*
X51769047Y-113224809D02*
X51935714Y-113415285D01*
X51935714Y-113415285D02*
X51864285Y-113415285D01*
X51864285Y-113415285D02*
X51816666Y-113439095D01*
X51816666Y-113439095D02*
X51792857Y-113462904D01*
X51792857Y-113462904D02*
X51769047Y-113510523D01*
X51769047Y-113510523D02*
X51769047Y-113629571D01*
X51769047Y-113629571D02*
X51792857Y-113677190D01*
X51792857Y-113677190D02*
X51816666Y-113701000D01*
X51816666Y-113701000D02*
X51864285Y-113724809D01*
X51864285Y-113724809D02*
X52007142Y-113724809D01*
X52007142Y-113724809D02*
X52054761Y-113701000D01*
X52054761Y-113701000D02*
X52078571Y-113677190D01*
X70121428Y-106224809D02*
X70288094Y-105986714D01*
X70407142Y-106224809D02*
X70407142Y-105724809D01*
X70407142Y-105724809D02*
X70216666Y-105724809D01*
X70216666Y-105724809D02*
X70169047Y-105748619D01*
X70169047Y-105748619D02*
X70145237Y-105772428D01*
X70145237Y-105772428D02*
X70121428Y-105820047D01*
X70121428Y-105820047D02*
X70121428Y-105891476D01*
X70121428Y-105891476D02*
X70145237Y-105939095D01*
X70145237Y-105939095D02*
X70169047Y-105962904D01*
X70169047Y-105962904D02*
X70216666Y-105986714D01*
X70216666Y-105986714D02*
X70407142Y-105986714D01*
X69930951Y-105772428D02*
X69907142Y-105748619D01*
X69907142Y-105748619D02*
X69859523Y-105724809D01*
X69859523Y-105724809D02*
X69740475Y-105724809D01*
X69740475Y-105724809D02*
X69692856Y-105748619D01*
X69692856Y-105748619D02*
X69669047Y-105772428D01*
X69669047Y-105772428D02*
X69645237Y-105820047D01*
X69645237Y-105820047D02*
X69645237Y-105867666D01*
X69645237Y-105867666D02*
X69669047Y-105939095D01*
X69669047Y-105939095D02*
X69954761Y-106224809D01*
X69954761Y-106224809D02*
X69645237Y-106224809D01*
X69335714Y-105724809D02*
X69288095Y-105724809D01*
X69288095Y-105724809D02*
X69240476Y-105748619D01*
X69240476Y-105748619D02*
X69216666Y-105772428D01*
X69216666Y-105772428D02*
X69192857Y-105820047D01*
X69192857Y-105820047D02*
X69169047Y-105915285D01*
X69169047Y-105915285D02*
X69169047Y-106034333D01*
X69169047Y-106034333D02*
X69192857Y-106129571D01*
X69192857Y-106129571D02*
X69216666Y-106177190D01*
X69216666Y-106177190D02*
X69240476Y-106201000D01*
X69240476Y-106201000D02*
X69288095Y-106224809D01*
X69288095Y-106224809D02*
X69335714Y-106224809D01*
X69335714Y-106224809D02*
X69383333Y-106201000D01*
X69383333Y-106201000D02*
X69407142Y-106177190D01*
X69407142Y-106177190D02*
X69430952Y-106129571D01*
X69430952Y-106129571D02*
X69454761Y-106034333D01*
X69454761Y-106034333D02*
X69454761Y-105915285D01*
X69454761Y-105915285D02*
X69430952Y-105820047D01*
X69430952Y-105820047D02*
X69407142Y-105772428D01*
X69407142Y-105772428D02*
X69383333Y-105748619D01*
X69383333Y-105748619D02*
X69335714Y-105724809D01*
X90524809Y-109016666D02*
X90286714Y-108850000D01*
X90524809Y-108730952D02*
X90024809Y-108730952D01*
X90024809Y-108730952D02*
X90024809Y-108921428D01*
X90024809Y-108921428D02*
X90048619Y-108969047D01*
X90048619Y-108969047D02*
X90072428Y-108992857D01*
X90072428Y-108992857D02*
X90120047Y-109016666D01*
X90120047Y-109016666D02*
X90191476Y-109016666D01*
X90191476Y-109016666D02*
X90239095Y-108992857D01*
X90239095Y-108992857D02*
X90262904Y-108969047D01*
X90262904Y-108969047D02*
X90286714Y-108921428D01*
X90286714Y-108921428D02*
X90286714Y-108730952D01*
X90524809Y-109492857D02*
X90524809Y-109207143D01*
X90524809Y-109350000D02*
X90024809Y-109350000D01*
X90024809Y-109350000D02*
X90096238Y-109302381D01*
X90096238Y-109302381D02*
X90143857Y-109254762D01*
X90143857Y-109254762D02*
X90167666Y-109207143D01*
X101080952Y-113624809D02*
X101080952Y-114029571D01*
X101080952Y-114029571D02*
X101057142Y-114077190D01*
X101057142Y-114077190D02*
X101033333Y-114101000D01*
X101033333Y-114101000D02*
X100985714Y-114124809D01*
X100985714Y-114124809D02*
X100890476Y-114124809D01*
X100890476Y-114124809D02*
X100842857Y-114101000D01*
X100842857Y-114101000D02*
X100819047Y-114077190D01*
X100819047Y-114077190D02*
X100795238Y-114029571D01*
X100795238Y-114029571D02*
X100795238Y-113624809D01*
X100604761Y-113624809D02*
X100271428Y-113624809D01*
X100271428Y-113624809D02*
X100485713Y-114124809D01*
X40021428Y-114124809D02*
X40188094Y-113886714D01*
X40307142Y-114124809D02*
X40307142Y-113624809D01*
X40307142Y-113624809D02*
X40116666Y-113624809D01*
X40116666Y-113624809D02*
X40069047Y-113648619D01*
X40069047Y-113648619D02*
X40045237Y-113672428D01*
X40045237Y-113672428D02*
X40021428Y-113720047D01*
X40021428Y-113720047D02*
X40021428Y-113791476D01*
X40021428Y-113791476D02*
X40045237Y-113839095D01*
X40045237Y-113839095D02*
X40069047Y-113862904D01*
X40069047Y-113862904D02*
X40116666Y-113886714D01*
X40116666Y-113886714D02*
X40307142Y-113886714D01*
X39830951Y-113672428D02*
X39807142Y-113648619D01*
X39807142Y-113648619D02*
X39759523Y-113624809D01*
X39759523Y-113624809D02*
X39640475Y-113624809D01*
X39640475Y-113624809D02*
X39592856Y-113648619D01*
X39592856Y-113648619D02*
X39569047Y-113672428D01*
X39569047Y-113672428D02*
X39545237Y-113720047D01*
X39545237Y-113720047D02*
X39545237Y-113767666D01*
X39545237Y-113767666D02*
X39569047Y-113839095D01*
X39569047Y-113839095D02*
X39854761Y-114124809D01*
X39854761Y-114124809D02*
X39545237Y-114124809D01*
X39354761Y-113672428D02*
X39330952Y-113648619D01*
X39330952Y-113648619D02*
X39283333Y-113624809D01*
X39283333Y-113624809D02*
X39164285Y-113624809D01*
X39164285Y-113624809D02*
X39116666Y-113648619D01*
X39116666Y-113648619D02*
X39092857Y-113672428D01*
X39092857Y-113672428D02*
X39069047Y-113720047D01*
X39069047Y-113720047D02*
X39069047Y-113767666D01*
X39069047Y-113767666D02*
X39092857Y-113839095D01*
X39092857Y-113839095D02*
X39378571Y-114124809D01*
X39378571Y-114124809D02*
X39069047Y-114124809D01*
X67816666Y-91324809D02*
X67816666Y-91681952D01*
X67816666Y-91681952D02*
X67840475Y-91753380D01*
X67840475Y-91753380D02*
X67888094Y-91801000D01*
X67888094Y-91801000D02*
X67959523Y-91824809D01*
X67959523Y-91824809D02*
X68007142Y-91824809D01*
X67578571Y-91824809D02*
X67578571Y-91324809D01*
X67578571Y-91324809D02*
X67388095Y-91324809D01*
X67388095Y-91324809D02*
X67340476Y-91348619D01*
X67340476Y-91348619D02*
X67316666Y-91372428D01*
X67316666Y-91372428D02*
X67292857Y-91420047D01*
X67292857Y-91420047D02*
X67292857Y-91491476D01*
X67292857Y-91491476D02*
X67316666Y-91539095D01*
X67316666Y-91539095D02*
X67340476Y-91562904D01*
X67340476Y-91562904D02*
X67388095Y-91586714D01*
X67388095Y-91586714D02*
X67578571Y-91586714D01*
X66864285Y-91324809D02*
X66959523Y-91324809D01*
X66959523Y-91324809D02*
X67007142Y-91348619D01*
X67007142Y-91348619D02*
X67030952Y-91372428D01*
X67030952Y-91372428D02*
X67078571Y-91443857D01*
X67078571Y-91443857D02*
X67102380Y-91539095D01*
X67102380Y-91539095D02*
X67102380Y-91729571D01*
X67102380Y-91729571D02*
X67078571Y-91777190D01*
X67078571Y-91777190D02*
X67054761Y-91801000D01*
X67054761Y-91801000D02*
X67007142Y-91824809D01*
X67007142Y-91824809D02*
X66911904Y-91824809D01*
X66911904Y-91824809D02*
X66864285Y-91801000D01*
X66864285Y-91801000D02*
X66840476Y-91777190D01*
X66840476Y-91777190D02*
X66816666Y-91729571D01*
X66816666Y-91729571D02*
X66816666Y-91610523D01*
X66816666Y-91610523D02*
X66840476Y-91562904D01*
X66840476Y-91562904D02*
X66864285Y-91539095D01*
X66864285Y-91539095D02*
X66911904Y-91515285D01*
X66911904Y-91515285D02*
X67007142Y-91515285D01*
X67007142Y-91515285D02*
X67054761Y-91539095D01*
X67054761Y-91539095D02*
X67078571Y-91562904D01*
X67078571Y-91562904D02*
X67102380Y-91610523D01*
X97677190Y-40016666D02*
X97701000Y-39992857D01*
X97701000Y-39992857D02*
X97724809Y-39921428D01*
X97724809Y-39921428D02*
X97724809Y-39873809D01*
X97724809Y-39873809D02*
X97701000Y-39802381D01*
X97701000Y-39802381D02*
X97653380Y-39754762D01*
X97653380Y-39754762D02*
X97605761Y-39730952D01*
X97605761Y-39730952D02*
X97510523Y-39707143D01*
X97510523Y-39707143D02*
X97439095Y-39707143D01*
X97439095Y-39707143D02*
X97343857Y-39730952D01*
X97343857Y-39730952D02*
X97296238Y-39754762D01*
X97296238Y-39754762D02*
X97248619Y-39802381D01*
X97248619Y-39802381D02*
X97224809Y-39873809D01*
X97224809Y-39873809D02*
X97224809Y-39921428D01*
X97224809Y-39921428D02*
X97248619Y-39992857D01*
X97248619Y-39992857D02*
X97272428Y-40016666D01*
X97272428Y-40207143D02*
X97248619Y-40230952D01*
X97248619Y-40230952D02*
X97224809Y-40278571D01*
X97224809Y-40278571D02*
X97224809Y-40397619D01*
X97224809Y-40397619D02*
X97248619Y-40445238D01*
X97248619Y-40445238D02*
X97272428Y-40469047D01*
X97272428Y-40469047D02*
X97320047Y-40492857D01*
X97320047Y-40492857D02*
X97367666Y-40492857D01*
X97367666Y-40492857D02*
X97439095Y-40469047D01*
X97439095Y-40469047D02*
X97724809Y-40183333D01*
X97724809Y-40183333D02*
X97724809Y-40492857D01*
X78537190Y-96278571D02*
X78561000Y-96254762D01*
X78561000Y-96254762D02*
X78584809Y-96183333D01*
X78584809Y-96183333D02*
X78584809Y-96135714D01*
X78584809Y-96135714D02*
X78561000Y-96064286D01*
X78561000Y-96064286D02*
X78513380Y-96016667D01*
X78513380Y-96016667D02*
X78465761Y-95992857D01*
X78465761Y-95992857D02*
X78370523Y-95969048D01*
X78370523Y-95969048D02*
X78299095Y-95969048D01*
X78299095Y-95969048D02*
X78203857Y-95992857D01*
X78203857Y-95992857D02*
X78156238Y-96016667D01*
X78156238Y-96016667D02*
X78108619Y-96064286D01*
X78108619Y-96064286D02*
X78084809Y-96135714D01*
X78084809Y-96135714D02*
X78084809Y-96183333D01*
X78084809Y-96183333D02*
X78108619Y-96254762D01*
X78108619Y-96254762D02*
X78132428Y-96278571D01*
X78584809Y-96754762D02*
X78584809Y-96469048D01*
X78584809Y-96611905D02*
X78084809Y-96611905D01*
X78084809Y-96611905D02*
X78156238Y-96564286D01*
X78156238Y-96564286D02*
X78203857Y-96516667D01*
X78203857Y-96516667D02*
X78227666Y-96469048D01*
X78251476Y-97183333D02*
X78584809Y-97183333D01*
X78061000Y-97064285D02*
X78418142Y-96945238D01*
X78418142Y-96945238D02*
X78418142Y-97254761D01*
X85764809Y-99226666D02*
X85526714Y-99060000D01*
X85764809Y-98940952D02*
X85264809Y-98940952D01*
X85264809Y-98940952D02*
X85264809Y-99131428D01*
X85264809Y-99131428D02*
X85288619Y-99179047D01*
X85288619Y-99179047D02*
X85312428Y-99202857D01*
X85312428Y-99202857D02*
X85360047Y-99226666D01*
X85360047Y-99226666D02*
X85431476Y-99226666D01*
X85431476Y-99226666D02*
X85479095Y-99202857D01*
X85479095Y-99202857D02*
X85502904Y-99179047D01*
X85502904Y-99179047D02*
X85526714Y-99131428D01*
X85526714Y-99131428D02*
X85526714Y-98940952D01*
X85264809Y-99679047D02*
X85264809Y-99440952D01*
X85264809Y-99440952D02*
X85502904Y-99417143D01*
X85502904Y-99417143D02*
X85479095Y-99440952D01*
X85479095Y-99440952D02*
X85455285Y-99488571D01*
X85455285Y-99488571D02*
X85455285Y-99607619D01*
X85455285Y-99607619D02*
X85479095Y-99655238D01*
X85479095Y-99655238D02*
X85502904Y-99679047D01*
X85502904Y-99679047D02*
X85550523Y-99702857D01*
X85550523Y-99702857D02*
X85669571Y-99702857D01*
X85669571Y-99702857D02*
X85717190Y-99679047D01*
X85717190Y-99679047D02*
X85741000Y-99655238D01*
X85741000Y-99655238D02*
X85764809Y-99607619D01*
X85764809Y-99607619D02*
X85764809Y-99488571D01*
X85764809Y-99488571D02*
X85741000Y-99440952D01*
X85741000Y-99440952D02*
X85717190Y-99417143D01*
X112078571Y-40322809D02*
X112054762Y-40299000D01*
X112054762Y-40299000D02*
X111983333Y-40275190D01*
X111983333Y-40275190D02*
X111935714Y-40275190D01*
X111935714Y-40275190D02*
X111864286Y-40299000D01*
X111864286Y-40299000D02*
X111816667Y-40346619D01*
X111816667Y-40346619D02*
X111792857Y-40394238D01*
X111792857Y-40394238D02*
X111769048Y-40489476D01*
X111769048Y-40489476D02*
X111769048Y-40560904D01*
X111769048Y-40560904D02*
X111792857Y-40656142D01*
X111792857Y-40656142D02*
X111816667Y-40703761D01*
X111816667Y-40703761D02*
X111864286Y-40751380D01*
X111864286Y-40751380D02*
X111935714Y-40775190D01*
X111935714Y-40775190D02*
X111983333Y-40775190D01*
X111983333Y-40775190D02*
X112054762Y-40751380D01*
X112054762Y-40751380D02*
X112078571Y-40727571D01*
X112269048Y-40727571D02*
X112292857Y-40751380D01*
X112292857Y-40751380D02*
X112340476Y-40775190D01*
X112340476Y-40775190D02*
X112459524Y-40775190D01*
X112459524Y-40775190D02*
X112507143Y-40751380D01*
X112507143Y-40751380D02*
X112530952Y-40727571D01*
X112530952Y-40727571D02*
X112554762Y-40679952D01*
X112554762Y-40679952D02*
X112554762Y-40632333D01*
X112554762Y-40632333D02*
X112530952Y-40560904D01*
X112530952Y-40560904D02*
X112245238Y-40275190D01*
X112245238Y-40275190D02*
X112554762Y-40275190D01*
X112983333Y-40608523D02*
X112983333Y-40275190D01*
X112864285Y-40799000D02*
X112745238Y-40441857D01*
X112745238Y-40441857D02*
X113054761Y-40441857D01*
X105141428Y-47697190D02*
X105165237Y-47721000D01*
X105165237Y-47721000D02*
X105236666Y-47744809D01*
X105236666Y-47744809D02*
X105284285Y-47744809D01*
X105284285Y-47744809D02*
X105355713Y-47721000D01*
X105355713Y-47721000D02*
X105403332Y-47673380D01*
X105403332Y-47673380D02*
X105427142Y-47625761D01*
X105427142Y-47625761D02*
X105450951Y-47530523D01*
X105450951Y-47530523D02*
X105450951Y-47459095D01*
X105450951Y-47459095D02*
X105427142Y-47363857D01*
X105427142Y-47363857D02*
X105403332Y-47316238D01*
X105403332Y-47316238D02*
X105355713Y-47268619D01*
X105355713Y-47268619D02*
X105284285Y-47244809D01*
X105284285Y-47244809D02*
X105236666Y-47244809D01*
X105236666Y-47244809D02*
X105165237Y-47268619D01*
X105165237Y-47268619D02*
X105141428Y-47292428D01*
X104689047Y-47244809D02*
X104927142Y-47244809D01*
X104927142Y-47244809D02*
X104950951Y-47482904D01*
X104950951Y-47482904D02*
X104927142Y-47459095D01*
X104927142Y-47459095D02*
X104879523Y-47435285D01*
X104879523Y-47435285D02*
X104760475Y-47435285D01*
X104760475Y-47435285D02*
X104712856Y-47459095D01*
X104712856Y-47459095D02*
X104689047Y-47482904D01*
X104689047Y-47482904D02*
X104665237Y-47530523D01*
X104665237Y-47530523D02*
X104665237Y-47649571D01*
X104665237Y-47649571D02*
X104689047Y-47697190D01*
X104689047Y-47697190D02*
X104712856Y-47721000D01*
X104712856Y-47721000D02*
X104760475Y-47744809D01*
X104760475Y-47744809D02*
X104879523Y-47744809D01*
X104879523Y-47744809D02*
X104927142Y-47721000D01*
X104927142Y-47721000D02*
X104950951Y-47697190D01*
X104355714Y-47244809D02*
X104308095Y-47244809D01*
X104308095Y-47244809D02*
X104260476Y-47268619D01*
X104260476Y-47268619D02*
X104236666Y-47292428D01*
X104236666Y-47292428D02*
X104212857Y-47340047D01*
X104212857Y-47340047D02*
X104189047Y-47435285D01*
X104189047Y-47435285D02*
X104189047Y-47554333D01*
X104189047Y-47554333D02*
X104212857Y-47649571D01*
X104212857Y-47649571D02*
X104236666Y-47697190D01*
X104236666Y-47697190D02*
X104260476Y-47721000D01*
X104260476Y-47721000D02*
X104308095Y-47744809D01*
X104308095Y-47744809D02*
X104355714Y-47744809D01*
X104355714Y-47744809D02*
X104403333Y-47721000D01*
X104403333Y-47721000D02*
X104427142Y-47697190D01*
X104427142Y-47697190D02*
X104450952Y-47649571D01*
X104450952Y-47649571D02*
X104474761Y-47554333D01*
X104474761Y-47554333D02*
X104474761Y-47435285D01*
X104474761Y-47435285D02*
X104450952Y-47340047D01*
X104450952Y-47340047D02*
X104427142Y-47292428D01*
X104427142Y-47292428D02*
X104403333Y-47268619D01*
X104403333Y-47268619D02*
X104355714Y-47244809D01*
X50821428Y-111277190D02*
X50845237Y-111301000D01*
X50845237Y-111301000D02*
X50916666Y-111324809D01*
X50916666Y-111324809D02*
X50964285Y-111324809D01*
X50964285Y-111324809D02*
X51035713Y-111301000D01*
X51035713Y-111301000D02*
X51083332Y-111253380D01*
X51083332Y-111253380D02*
X51107142Y-111205761D01*
X51107142Y-111205761D02*
X51130951Y-111110523D01*
X51130951Y-111110523D02*
X51130951Y-111039095D01*
X51130951Y-111039095D02*
X51107142Y-110943857D01*
X51107142Y-110943857D02*
X51083332Y-110896238D01*
X51083332Y-110896238D02*
X51035713Y-110848619D01*
X51035713Y-110848619D02*
X50964285Y-110824809D01*
X50964285Y-110824809D02*
X50916666Y-110824809D01*
X50916666Y-110824809D02*
X50845237Y-110848619D01*
X50845237Y-110848619D02*
X50821428Y-110872428D01*
X50392856Y-110991476D02*
X50392856Y-111324809D01*
X50511904Y-110801000D02*
X50630951Y-111158142D01*
X50630951Y-111158142D02*
X50321428Y-111158142D01*
X49916666Y-110991476D02*
X49916666Y-111324809D01*
X50035714Y-110801000D02*
X50154761Y-111158142D01*
X50154761Y-111158142D02*
X49845238Y-111158142D01*
X79924809Y-93968571D02*
X79686714Y-93801905D01*
X79924809Y-93682857D02*
X79424809Y-93682857D01*
X79424809Y-93682857D02*
X79424809Y-93873333D01*
X79424809Y-93873333D02*
X79448619Y-93920952D01*
X79448619Y-93920952D02*
X79472428Y-93944762D01*
X79472428Y-93944762D02*
X79520047Y-93968571D01*
X79520047Y-93968571D02*
X79591476Y-93968571D01*
X79591476Y-93968571D02*
X79639095Y-93944762D01*
X79639095Y-93944762D02*
X79662904Y-93920952D01*
X79662904Y-93920952D02*
X79686714Y-93873333D01*
X79686714Y-93873333D02*
X79686714Y-93682857D01*
X79924809Y-94444762D02*
X79924809Y-94159048D01*
X79924809Y-94301905D02*
X79424809Y-94301905D01*
X79424809Y-94301905D02*
X79496238Y-94254286D01*
X79496238Y-94254286D02*
X79543857Y-94206667D01*
X79543857Y-94206667D02*
X79567666Y-94159048D01*
X79424809Y-94611428D02*
X79424809Y-94920952D01*
X79424809Y-94920952D02*
X79615285Y-94754285D01*
X79615285Y-94754285D02*
X79615285Y-94825714D01*
X79615285Y-94825714D02*
X79639095Y-94873333D01*
X79639095Y-94873333D02*
X79662904Y-94897142D01*
X79662904Y-94897142D02*
X79710523Y-94920952D01*
X79710523Y-94920952D02*
X79829571Y-94920952D01*
X79829571Y-94920952D02*
X79877190Y-94897142D01*
X79877190Y-94897142D02*
X79901000Y-94873333D01*
X79901000Y-94873333D02*
X79924809Y-94825714D01*
X79924809Y-94825714D02*
X79924809Y-94682857D01*
X79924809Y-94682857D02*
X79901000Y-94635238D01*
X79901000Y-94635238D02*
X79877190Y-94611428D01*
X113916665Y-43662904D02*
X114083332Y-43662904D01*
X114083332Y-43924809D02*
X114083332Y-43424809D01*
X114083332Y-43424809D02*
X113845237Y-43424809D01*
X113488094Y-43662904D02*
X113416666Y-43686714D01*
X113416666Y-43686714D02*
X113392856Y-43710523D01*
X113392856Y-43710523D02*
X113369047Y-43758142D01*
X113369047Y-43758142D02*
X113369047Y-43829571D01*
X113369047Y-43829571D02*
X113392856Y-43877190D01*
X113392856Y-43877190D02*
X113416666Y-43901000D01*
X113416666Y-43901000D02*
X113464285Y-43924809D01*
X113464285Y-43924809D02*
X113654761Y-43924809D01*
X113654761Y-43924809D02*
X113654761Y-43424809D01*
X113654761Y-43424809D02*
X113488094Y-43424809D01*
X113488094Y-43424809D02*
X113440475Y-43448619D01*
X113440475Y-43448619D02*
X113416666Y-43472428D01*
X113416666Y-43472428D02*
X113392856Y-43520047D01*
X113392856Y-43520047D02*
X113392856Y-43567666D01*
X113392856Y-43567666D02*
X113416666Y-43615285D01*
X113416666Y-43615285D02*
X113440475Y-43639095D01*
X113440475Y-43639095D02*
X113488094Y-43662904D01*
X113488094Y-43662904D02*
X113654761Y-43662904D01*
X113178570Y-43472428D02*
X113154761Y-43448619D01*
X113154761Y-43448619D02*
X113107142Y-43424809D01*
X113107142Y-43424809D02*
X112988094Y-43424809D01*
X112988094Y-43424809D02*
X112940475Y-43448619D01*
X112940475Y-43448619D02*
X112916666Y-43472428D01*
X112916666Y-43472428D02*
X112892856Y-43520047D01*
X112892856Y-43520047D02*
X112892856Y-43567666D01*
X112892856Y-43567666D02*
X112916666Y-43639095D01*
X112916666Y-43639095D02*
X113202380Y-43924809D01*
X113202380Y-43924809D02*
X112892856Y-43924809D01*
X79324809Y-91330952D02*
X78824809Y-91330952D01*
X78824809Y-91330952D02*
X78824809Y-91450000D01*
X78824809Y-91450000D02*
X78848619Y-91521428D01*
X78848619Y-91521428D02*
X78896238Y-91569047D01*
X78896238Y-91569047D02*
X78943857Y-91592857D01*
X78943857Y-91592857D02*
X79039095Y-91616666D01*
X79039095Y-91616666D02*
X79110523Y-91616666D01*
X79110523Y-91616666D02*
X79205761Y-91592857D01*
X79205761Y-91592857D02*
X79253380Y-91569047D01*
X79253380Y-91569047D02*
X79301000Y-91521428D01*
X79301000Y-91521428D02*
X79324809Y-91450000D01*
X79324809Y-91450000D02*
X79324809Y-91330952D01*
X79039095Y-91902381D02*
X79015285Y-91854762D01*
X79015285Y-91854762D02*
X78991476Y-91830952D01*
X78991476Y-91830952D02*
X78943857Y-91807143D01*
X78943857Y-91807143D02*
X78920047Y-91807143D01*
X78920047Y-91807143D02*
X78872428Y-91830952D01*
X78872428Y-91830952D02*
X78848619Y-91854762D01*
X78848619Y-91854762D02*
X78824809Y-91902381D01*
X78824809Y-91902381D02*
X78824809Y-91997619D01*
X78824809Y-91997619D02*
X78848619Y-92045238D01*
X78848619Y-92045238D02*
X78872428Y-92069047D01*
X78872428Y-92069047D02*
X78920047Y-92092857D01*
X78920047Y-92092857D02*
X78943857Y-92092857D01*
X78943857Y-92092857D02*
X78991476Y-92069047D01*
X78991476Y-92069047D02*
X79015285Y-92045238D01*
X79015285Y-92045238D02*
X79039095Y-91997619D01*
X79039095Y-91997619D02*
X79039095Y-91902381D01*
X79039095Y-91902381D02*
X79062904Y-91854762D01*
X79062904Y-91854762D02*
X79086714Y-91830952D01*
X79086714Y-91830952D02*
X79134333Y-91807143D01*
X79134333Y-91807143D02*
X79229571Y-91807143D01*
X79229571Y-91807143D02*
X79277190Y-91830952D01*
X79277190Y-91830952D02*
X79301000Y-91854762D01*
X79301000Y-91854762D02*
X79324809Y-91902381D01*
X79324809Y-91902381D02*
X79324809Y-91997619D01*
X79324809Y-91997619D02*
X79301000Y-92045238D01*
X79301000Y-92045238D02*
X79277190Y-92069047D01*
X79277190Y-92069047D02*
X79229571Y-92092857D01*
X79229571Y-92092857D02*
X79134333Y-92092857D01*
X79134333Y-92092857D02*
X79086714Y-92069047D01*
X79086714Y-92069047D02*
X79062904Y-92045238D01*
X79062904Y-92045238D02*
X79039095Y-91997619D01*
X94581547Y-105974809D02*
X94581547Y-105474809D01*
X94581547Y-105474809D02*
X94462499Y-105474809D01*
X94462499Y-105474809D02*
X94391071Y-105498619D01*
X94391071Y-105498619D02*
X94343452Y-105546238D01*
X94343452Y-105546238D02*
X94319642Y-105593857D01*
X94319642Y-105593857D02*
X94295833Y-105689095D01*
X94295833Y-105689095D02*
X94295833Y-105760523D01*
X94295833Y-105760523D02*
X94319642Y-105855761D01*
X94319642Y-105855761D02*
X94343452Y-105903380D01*
X94343452Y-105903380D02*
X94391071Y-105951000D01*
X94391071Y-105951000D02*
X94462499Y-105974809D01*
X94462499Y-105974809D02*
X94581547Y-105974809D01*
X93819642Y-105974809D02*
X94105356Y-105974809D01*
X93962499Y-105974809D02*
X93962499Y-105474809D01*
X93962499Y-105474809D02*
X94010118Y-105546238D01*
X94010118Y-105546238D02*
X94057737Y-105593857D01*
X94057737Y-105593857D02*
X94105356Y-105617666D01*
X76924809Y-98419047D02*
X77329571Y-98419047D01*
X77329571Y-98419047D02*
X77377190Y-98442857D01*
X77377190Y-98442857D02*
X77401000Y-98466666D01*
X77401000Y-98466666D02*
X77424809Y-98514285D01*
X77424809Y-98514285D02*
X77424809Y-98609523D01*
X77424809Y-98609523D02*
X77401000Y-98657142D01*
X77401000Y-98657142D02*
X77377190Y-98680952D01*
X77377190Y-98680952D02*
X77329571Y-98704761D01*
X77329571Y-98704761D02*
X76924809Y-98704761D01*
X76924809Y-98895238D02*
X76924809Y-99204762D01*
X76924809Y-99204762D02*
X77115285Y-99038095D01*
X77115285Y-99038095D02*
X77115285Y-99109524D01*
X77115285Y-99109524D02*
X77139095Y-99157143D01*
X77139095Y-99157143D02*
X77162904Y-99180952D01*
X77162904Y-99180952D02*
X77210523Y-99204762D01*
X77210523Y-99204762D02*
X77329571Y-99204762D01*
X77329571Y-99204762D02*
X77377190Y-99180952D01*
X77377190Y-99180952D02*
X77401000Y-99157143D01*
X77401000Y-99157143D02*
X77424809Y-99109524D01*
X77424809Y-99109524D02*
X77424809Y-98966667D01*
X77424809Y-98966667D02*
X77401000Y-98919048D01*
X77401000Y-98919048D02*
X77377190Y-98895238D01*
X95324809Y-37978571D02*
X95086714Y-37811905D01*
X95324809Y-37692857D02*
X94824809Y-37692857D01*
X94824809Y-37692857D02*
X94824809Y-37883333D01*
X94824809Y-37883333D02*
X94848619Y-37930952D01*
X94848619Y-37930952D02*
X94872428Y-37954762D01*
X94872428Y-37954762D02*
X94920047Y-37978571D01*
X94920047Y-37978571D02*
X94991476Y-37978571D01*
X94991476Y-37978571D02*
X95039095Y-37954762D01*
X95039095Y-37954762D02*
X95062904Y-37930952D01*
X95062904Y-37930952D02*
X95086714Y-37883333D01*
X95086714Y-37883333D02*
X95086714Y-37692857D01*
X95324809Y-38454762D02*
X95324809Y-38169048D01*
X95324809Y-38311905D02*
X94824809Y-38311905D01*
X94824809Y-38311905D02*
X94896238Y-38264286D01*
X94896238Y-38264286D02*
X94943857Y-38216667D01*
X94943857Y-38216667D02*
X94967666Y-38169048D01*
X94991476Y-38883333D02*
X95324809Y-38883333D01*
X94801000Y-38764285D02*
X95158142Y-38645238D01*
X95158142Y-38645238D02*
X95158142Y-38954761D01*
X62866666Y-102824809D02*
X62866666Y-103181952D01*
X62866666Y-103181952D02*
X62890475Y-103253380D01*
X62890475Y-103253380D02*
X62938094Y-103301000D01*
X62938094Y-103301000D02*
X63009523Y-103324809D01*
X63009523Y-103324809D02*
X63057142Y-103324809D01*
X62628571Y-103324809D02*
X62628571Y-102824809D01*
X62628571Y-102824809D02*
X62438095Y-102824809D01*
X62438095Y-102824809D02*
X62390476Y-102848619D01*
X62390476Y-102848619D02*
X62366666Y-102872428D01*
X62366666Y-102872428D02*
X62342857Y-102920047D01*
X62342857Y-102920047D02*
X62342857Y-102991476D01*
X62342857Y-102991476D02*
X62366666Y-103039095D01*
X62366666Y-103039095D02*
X62390476Y-103062904D01*
X62390476Y-103062904D02*
X62438095Y-103086714D01*
X62438095Y-103086714D02*
X62628571Y-103086714D01*
X61914285Y-102991476D02*
X61914285Y-103324809D01*
X62033333Y-102801000D02*
X62152380Y-103158142D01*
X62152380Y-103158142D02*
X61842857Y-103158142D01*
X63589809Y-110363333D02*
X63946952Y-110363333D01*
X63946952Y-110363333D02*
X64018380Y-110339524D01*
X64018380Y-110339524D02*
X64066000Y-110291905D01*
X64066000Y-110291905D02*
X64089809Y-110220476D01*
X64089809Y-110220476D02*
X64089809Y-110172857D01*
X63589809Y-110553809D02*
X63589809Y-110863333D01*
X63589809Y-110863333D02*
X63780285Y-110696666D01*
X63780285Y-110696666D02*
X63780285Y-110768095D01*
X63780285Y-110768095D02*
X63804095Y-110815714D01*
X63804095Y-110815714D02*
X63827904Y-110839523D01*
X63827904Y-110839523D02*
X63875523Y-110863333D01*
X63875523Y-110863333D02*
X63994571Y-110863333D01*
X63994571Y-110863333D02*
X64042190Y-110839523D01*
X64042190Y-110839523D02*
X64066000Y-110815714D01*
X64066000Y-110815714D02*
X64089809Y-110768095D01*
X64089809Y-110768095D02*
X64089809Y-110625238D01*
X64089809Y-110625238D02*
X64066000Y-110577619D01*
X64066000Y-110577619D02*
X64042190Y-110553809D01*
X103028571Y-40122809D02*
X103004762Y-40099000D01*
X103004762Y-40099000D02*
X102933333Y-40075190D01*
X102933333Y-40075190D02*
X102885714Y-40075190D01*
X102885714Y-40075190D02*
X102814286Y-40099000D01*
X102814286Y-40099000D02*
X102766667Y-40146619D01*
X102766667Y-40146619D02*
X102742857Y-40194238D01*
X102742857Y-40194238D02*
X102719048Y-40289476D01*
X102719048Y-40289476D02*
X102719048Y-40360904D01*
X102719048Y-40360904D02*
X102742857Y-40456142D01*
X102742857Y-40456142D02*
X102766667Y-40503761D01*
X102766667Y-40503761D02*
X102814286Y-40551380D01*
X102814286Y-40551380D02*
X102885714Y-40575190D01*
X102885714Y-40575190D02*
X102933333Y-40575190D01*
X102933333Y-40575190D02*
X103004762Y-40551380D01*
X103004762Y-40551380D02*
X103028571Y-40527571D01*
X103504762Y-40075190D02*
X103219048Y-40075190D01*
X103361905Y-40075190D02*
X103361905Y-40575190D01*
X103361905Y-40575190D02*
X103314286Y-40503761D01*
X103314286Y-40503761D02*
X103266667Y-40456142D01*
X103266667Y-40456142D02*
X103219048Y-40432333D01*
X103790476Y-40360904D02*
X103742857Y-40384714D01*
X103742857Y-40384714D02*
X103719047Y-40408523D01*
X103719047Y-40408523D02*
X103695238Y-40456142D01*
X103695238Y-40456142D02*
X103695238Y-40479952D01*
X103695238Y-40479952D02*
X103719047Y-40527571D01*
X103719047Y-40527571D02*
X103742857Y-40551380D01*
X103742857Y-40551380D02*
X103790476Y-40575190D01*
X103790476Y-40575190D02*
X103885714Y-40575190D01*
X103885714Y-40575190D02*
X103933333Y-40551380D01*
X103933333Y-40551380D02*
X103957142Y-40527571D01*
X103957142Y-40527571D02*
X103980952Y-40479952D01*
X103980952Y-40479952D02*
X103980952Y-40456142D01*
X103980952Y-40456142D02*
X103957142Y-40408523D01*
X103957142Y-40408523D02*
X103933333Y-40384714D01*
X103933333Y-40384714D02*
X103885714Y-40360904D01*
X103885714Y-40360904D02*
X103790476Y-40360904D01*
X103790476Y-40360904D02*
X103742857Y-40337095D01*
X103742857Y-40337095D02*
X103719047Y-40313285D01*
X103719047Y-40313285D02*
X103695238Y-40265666D01*
X103695238Y-40265666D02*
X103695238Y-40170428D01*
X103695238Y-40170428D02*
X103719047Y-40122809D01*
X103719047Y-40122809D02*
X103742857Y-40099000D01*
X103742857Y-40099000D02*
X103790476Y-40075190D01*
X103790476Y-40075190D02*
X103885714Y-40075190D01*
X103885714Y-40075190D02*
X103933333Y-40099000D01*
X103933333Y-40099000D02*
X103957142Y-40122809D01*
X103957142Y-40122809D02*
X103980952Y-40170428D01*
X103980952Y-40170428D02*
X103980952Y-40265666D01*
X103980952Y-40265666D02*
X103957142Y-40313285D01*
X103957142Y-40313285D02*
X103933333Y-40337095D01*
X103933333Y-40337095D02*
X103885714Y-40360904D01*
X44824809Y-91133333D02*
X45181952Y-91133333D01*
X45181952Y-91133333D02*
X45253380Y-91109524D01*
X45253380Y-91109524D02*
X45301000Y-91061905D01*
X45301000Y-91061905D02*
X45324809Y-90990476D01*
X45324809Y-90990476D02*
X45324809Y-90942857D01*
X44824809Y-91609523D02*
X44824809Y-91371428D01*
X44824809Y-91371428D02*
X45062904Y-91347619D01*
X45062904Y-91347619D02*
X45039095Y-91371428D01*
X45039095Y-91371428D02*
X45015285Y-91419047D01*
X45015285Y-91419047D02*
X45015285Y-91538095D01*
X45015285Y-91538095D02*
X45039095Y-91585714D01*
X45039095Y-91585714D02*
X45062904Y-91609523D01*
X45062904Y-91609523D02*
X45110523Y-91633333D01*
X45110523Y-91633333D02*
X45229571Y-91633333D01*
X45229571Y-91633333D02*
X45277190Y-91609523D01*
X45277190Y-91609523D02*
X45301000Y-91585714D01*
X45301000Y-91585714D02*
X45324809Y-91538095D01*
X45324809Y-91538095D02*
X45324809Y-91419047D01*
X45324809Y-91419047D02*
X45301000Y-91371428D01*
X45301000Y-91371428D02*
X45277190Y-91347619D01*
X78083333Y-104024809D02*
X78249999Y-103786714D01*
X78369047Y-104024809D02*
X78369047Y-103524809D01*
X78369047Y-103524809D02*
X78178571Y-103524809D01*
X78178571Y-103524809D02*
X78130952Y-103548619D01*
X78130952Y-103548619D02*
X78107142Y-103572428D01*
X78107142Y-103572428D02*
X78083333Y-103620047D01*
X78083333Y-103620047D02*
X78083333Y-103691476D01*
X78083333Y-103691476D02*
X78107142Y-103739095D01*
X78107142Y-103739095D02*
X78130952Y-103762904D01*
X78130952Y-103762904D02*
X78178571Y-103786714D01*
X78178571Y-103786714D02*
X78369047Y-103786714D01*
X77797618Y-103739095D02*
X77845237Y-103715285D01*
X77845237Y-103715285D02*
X77869047Y-103691476D01*
X77869047Y-103691476D02*
X77892856Y-103643857D01*
X77892856Y-103643857D02*
X77892856Y-103620047D01*
X77892856Y-103620047D02*
X77869047Y-103572428D01*
X77869047Y-103572428D02*
X77845237Y-103548619D01*
X77845237Y-103548619D02*
X77797618Y-103524809D01*
X77797618Y-103524809D02*
X77702380Y-103524809D01*
X77702380Y-103524809D02*
X77654761Y-103548619D01*
X77654761Y-103548619D02*
X77630952Y-103572428D01*
X77630952Y-103572428D02*
X77607142Y-103620047D01*
X77607142Y-103620047D02*
X77607142Y-103643857D01*
X77607142Y-103643857D02*
X77630952Y-103691476D01*
X77630952Y-103691476D02*
X77654761Y-103715285D01*
X77654761Y-103715285D02*
X77702380Y-103739095D01*
X77702380Y-103739095D02*
X77797618Y-103739095D01*
X77797618Y-103739095D02*
X77845237Y-103762904D01*
X77845237Y-103762904D02*
X77869047Y-103786714D01*
X77869047Y-103786714D02*
X77892856Y-103834333D01*
X77892856Y-103834333D02*
X77892856Y-103929571D01*
X77892856Y-103929571D02*
X77869047Y-103977190D01*
X77869047Y-103977190D02*
X77845237Y-104001000D01*
X77845237Y-104001000D02*
X77797618Y-104024809D01*
X77797618Y-104024809D02*
X77702380Y-104024809D01*
X77702380Y-104024809D02*
X77654761Y-104001000D01*
X77654761Y-104001000D02*
X77630952Y-103977190D01*
X77630952Y-103977190D02*
X77607142Y-103929571D01*
X77607142Y-103929571D02*
X77607142Y-103834333D01*
X77607142Y-103834333D02*
X77630952Y-103786714D01*
X77630952Y-103786714D02*
X77654761Y-103762904D01*
X77654761Y-103762904D02*
X77702380Y-103739095D01*
X89524809Y-108578571D02*
X89286714Y-108411905D01*
X89524809Y-108292857D02*
X89024809Y-108292857D01*
X89024809Y-108292857D02*
X89024809Y-108483333D01*
X89024809Y-108483333D02*
X89048619Y-108530952D01*
X89048619Y-108530952D02*
X89072428Y-108554762D01*
X89072428Y-108554762D02*
X89120047Y-108578571D01*
X89120047Y-108578571D02*
X89191476Y-108578571D01*
X89191476Y-108578571D02*
X89239095Y-108554762D01*
X89239095Y-108554762D02*
X89262904Y-108530952D01*
X89262904Y-108530952D02*
X89286714Y-108483333D01*
X89286714Y-108483333D02*
X89286714Y-108292857D01*
X89524809Y-109054762D02*
X89524809Y-108769048D01*
X89524809Y-108911905D02*
X89024809Y-108911905D01*
X89024809Y-108911905D02*
X89096238Y-108864286D01*
X89096238Y-108864286D02*
X89143857Y-108816667D01*
X89143857Y-108816667D02*
X89167666Y-108769048D01*
X89239095Y-109340476D02*
X89215285Y-109292857D01*
X89215285Y-109292857D02*
X89191476Y-109269047D01*
X89191476Y-109269047D02*
X89143857Y-109245238D01*
X89143857Y-109245238D02*
X89120047Y-109245238D01*
X89120047Y-109245238D02*
X89072428Y-109269047D01*
X89072428Y-109269047D02*
X89048619Y-109292857D01*
X89048619Y-109292857D02*
X89024809Y-109340476D01*
X89024809Y-109340476D02*
X89024809Y-109435714D01*
X89024809Y-109435714D02*
X89048619Y-109483333D01*
X89048619Y-109483333D02*
X89072428Y-109507142D01*
X89072428Y-109507142D02*
X89120047Y-109530952D01*
X89120047Y-109530952D02*
X89143857Y-109530952D01*
X89143857Y-109530952D02*
X89191476Y-109507142D01*
X89191476Y-109507142D02*
X89215285Y-109483333D01*
X89215285Y-109483333D02*
X89239095Y-109435714D01*
X89239095Y-109435714D02*
X89239095Y-109340476D01*
X89239095Y-109340476D02*
X89262904Y-109292857D01*
X89262904Y-109292857D02*
X89286714Y-109269047D01*
X89286714Y-109269047D02*
X89334333Y-109245238D01*
X89334333Y-109245238D02*
X89429571Y-109245238D01*
X89429571Y-109245238D02*
X89477190Y-109269047D01*
X89477190Y-109269047D02*
X89501000Y-109292857D01*
X89501000Y-109292857D02*
X89524809Y-109340476D01*
X89524809Y-109340476D02*
X89524809Y-109435714D01*
X89524809Y-109435714D02*
X89501000Y-109483333D01*
X89501000Y-109483333D02*
X89477190Y-109507142D01*
X89477190Y-109507142D02*
X89429571Y-109530952D01*
X89429571Y-109530952D02*
X89334333Y-109530952D01*
X89334333Y-109530952D02*
X89286714Y-109507142D01*
X89286714Y-109507142D02*
X89262904Y-109483333D01*
X89262904Y-109483333D02*
X89239095Y-109435714D01*
X45723333Y-108324809D02*
X45961428Y-108324809D01*
X45961428Y-108324809D02*
X45961428Y-107824809D01*
X45604285Y-107824809D02*
X45294761Y-107824809D01*
X45294761Y-107824809D02*
X45461428Y-108015285D01*
X45461428Y-108015285D02*
X45389999Y-108015285D01*
X45389999Y-108015285D02*
X45342380Y-108039095D01*
X45342380Y-108039095D02*
X45318571Y-108062904D01*
X45318571Y-108062904D02*
X45294761Y-108110523D01*
X45294761Y-108110523D02*
X45294761Y-108229571D01*
X45294761Y-108229571D02*
X45318571Y-108277190D01*
X45318571Y-108277190D02*
X45342380Y-108301000D01*
X45342380Y-108301000D02*
X45389999Y-108324809D01*
X45389999Y-108324809D02*
X45532856Y-108324809D01*
X45532856Y-108324809D02*
X45580475Y-108301000D01*
X45580475Y-108301000D02*
X45604285Y-108277190D01*
X103028571Y-38622809D02*
X103004762Y-38599000D01*
X103004762Y-38599000D02*
X102933333Y-38575190D01*
X102933333Y-38575190D02*
X102885714Y-38575190D01*
X102885714Y-38575190D02*
X102814286Y-38599000D01*
X102814286Y-38599000D02*
X102766667Y-38646619D01*
X102766667Y-38646619D02*
X102742857Y-38694238D01*
X102742857Y-38694238D02*
X102719048Y-38789476D01*
X102719048Y-38789476D02*
X102719048Y-38860904D01*
X102719048Y-38860904D02*
X102742857Y-38956142D01*
X102742857Y-38956142D02*
X102766667Y-39003761D01*
X102766667Y-39003761D02*
X102814286Y-39051380D01*
X102814286Y-39051380D02*
X102885714Y-39075190D01*
X102885714Y-39075190D02*
X102933333Y-39075190D01*
X102933333Y-39075190D02*
X103004762Y-39051380D01*
X103004762Y-39051380D02*
X103028571Y-39027571D01*
X103219048Y-39027571D02*
X103242857Y-39051380D01*
X103242857Y-39051380D02*
X103290476Y-39075190D01*
X103290476Y-39075190D02*
X103409524Y-39075190D01*
X103409524Y-39075190D02*
X103457143Y-39051380D01*
X103457143Y-39051380D02*
X103480952Y-39027571D01*
X103480952Y-39027571D02*
X103504762Y-38979952D01*
X103504762Y-38979952D02*
X103504762Y-38932333D01*
X103504762Y-38932333D02*
X103480952Y-38860904D01*
X103480952Y-38860904D02*
X103195238Y-38575190D01*
X103195238Y-38575190D02*
X103504762Y-38575190D01*
X103814285Y-39075190D02*
X103861904Y-39075190D01*
X103861904Y-39075190D02*
X103909523Y-39051380D01*
X103909523Y-39051380D02*
X103933333Y-39027571D01*
X103933333Y-39027571D02*
X103957142Y-38979952D01*
X103957142Y-38979952D02*
X103980952Y-38884714D01*
X103980952Y-38884714D02*
X103980952Y-38765666D01*
X103980952Y-38765666D02*
X103957142Y-38670428D01*
X103957142Y-38670428D02*
X103933333Y-38622809D01*
X103933333Y-38622809D02*
X103909523Y-38599000D01*
X103909523Y-38599000D02*
X103861904Y-38575190D01*
X103861904Y-38575190D02*
X103814285Y-38575190D01*
X103814285Y-38575190D02*
X103766666Y-38599000D01*
X103766666Y-38599000D02*
X103742857Y-38622809D01*
X103742857Y-38622809D02*
X103719047Y-38670428D01*
X103719047Y-38670428D02*
X103695238Y-38765666D01*
X103695238Y-38765666D02*
X103695238Y-38884714D01*
X103695238Y-38884714D02*
X103719047Y-38979952D01*
X103719047Y-38979952D02*
X103742857Y-39027571D01*
X103742857Y-39027571D02*
X103766666Y-39051380D01*
X103766666Y-39051380D02*
X103814285Y-39075190D01*
X109878571Y-28822809D02*
X109854762Y-28799000D01*
X109854762Y-28799000D02*
X109783333Y-28775190D01*
X109783333Y-28775190D02*
X109735714Y-28775190D01*
X109735714Y-28775190D02*
X109664286Y-28799000D01*
X109664286Y-28799000D02*
X109616667Y-28846619D01*
X109616667Y-28846619D02*
X109592857Y-28894238D01*
X109592857Y-28894238D02*
X109569048Y-28989476D01*
X109569048Y-28989476D02*
X109569048Y-29060904D01*
X109569048Y-29060904D02*
X109592857Y-29156142D01*
X109592857Y-29156142D02*
X109616667Y-29203761D01*
X109616667Y-29203761D02*
X109664286Y-29251380D01*
X109664286Y-29251380D02*
X109735714Y-29275190D01*
X109735714Y-29275190D02*
X109783333Y-29275190D01*
X109783333Y-29275190D02*
X109854762Y-29251380D01*
X109854762Y-29251380D02*
X109878571Y-29227571D01*
X110069048Y-29227571D02*
X110092857Y-29251380D01*
X110092857Y-29251380D02*
X110140476Y-29275190D01*
X110140476Y-29275190D02*
X110259524Y-29275190D01*
X110259524Y-29275190D02*
X110307143Y-29251380D01*
X110307143Y-29251380D02*
X110330952Y-29227571D01*
X110330952Y-29227571D02*
X110354762Y-29179952D01*
X110354762Y-29179952D02*
X110354762Y-29132333D01*
X110354762Y-29132333D02*
X110330952Y-29060904D01*
X110330952Y-29060904D02*
X110045238Y-28775190D01*
X110045238Y-28775190D02*
X110354762Y-28775190D01*
X110545238Y-29227571D02*
X110569047Y-29251380D01*
X110569047Y-29251380D02*
X110616666Y-29275190D01*
X110616666Y-29275190D02*
X110735714Y-29275190D01*
X110735714Y-29275190D02*
X110783333Y-29251380D01*
X110783333Y-29251380D02*
X110807142Y-29227571D01*
X110807142Y-29227571D02*
X110830952Y-29179952D01*
X110830952Y-29179952D02*
X110830952Y-29132333D01*
X110830952Y-29132333D02*
X110807142Y-29060904D01*
X110807142Y-29060904D02*
X110521428Y-28775190D01*
X110521428Y-28775190D02*
X110830952Y-28775190D01*
X91877190Y-108616666D02*
X91901000Y-108592857D01*
X91901000Y-108592857D02*
X91924809Y-108521428D01*
X91924809Y-108521428D02*
X91924809Y-108473809D01*
X91924809Y-108473809D02*
X91901000Y-108402381D01*
X91901000Y-108402381D02*
X91853380Y-108354762D01*
X91853380Y-108354762D02*
X91805761Y-108330952D01*
X91805761Y-108330952D02*
X91710523Y-108307143D01*
X91710523Y-108307143D02*
X91639095Y-108307143D01*
X91639095Y-108307143D02*
X91543857Y-108330952D01*
X91543857Y-108330952D02*
X91496238Y-108354762D01*
X91496238Y-108354762D02*
X91448619Y-108402381D01*
X91448619Y-108402381D02*
X91424809Y-108473809D01*
X91424809Y-108473809D02*
X91424809Y-108521428D01*
X91424809Y-108521428D02*
X91448619Y-108592857D01*
X91448619Y-108592857D02*
X91472428Y-108616666D01*
X91424809Y-109069047D02*
X91424809Y-108830952D01*
X91424809Y-108830952D02*
X91662904Y-108807143D01*
X91662904Y-108807143D02*
X91639095Y-108830952D01*
X91639095Y-108830952D02*
X91615285Y-108878571D01*
X91615285Y-108878571D02*
X91615285Y-108997619D01*
X91615285Y-108997619D02*
X91639095Y-109045238D01*
X91639095Y-109045238D02*
X91662904Y-109069047D01*
X91662904Y-109069047D02*
X91710523Y-109092857D01*
X91710523Y-109092857D02*
X91829571Y-109092857D01*
X91829571Y-109092857D02*
X91877190Y-109069047D01*
X91877190Y-109069047D02*
X91901000Y-109045238D01*
X91901000Y-109045238D02*
X91924809Y-108997619D01*
X91924809Y-108997619D02*
X91924809Y-108878571D01*
X91924809Y-108878571D02*
X91901000Y-108830952D01*
X91901000Y-108830952D02*
X91877190Y-108807143D01*
X94483333Y-113377190D02*
X94507142Y-113401000D01*
X94507142Y-113401000D02*
X94578571Y-113424809D01*
X94578571Y-113424809D02*
X94626190Y-113424809D01*
X94626190Y-113424809D02*
X94697618Y-113401000D01*
X94697618Y-113401000D02*
X94745237Y-113353380D01*
X94745237Y-113353380D02*
X94769047Y-113305761D01*
X94769047Y-113305761D02*
X94792856Y-113210523D01*
X94792856Y-113210523D02*
X94792856Y-113139095D01*
X94792856Y-113139095D02*
X94769047Y-113043857D01*
X94769047Y-113043857D02*
X94745237Y-112996238D01*
X94745237Y-112996238D02*
X94697618Y-112948619D01*
X94697618Y-112948619D02*
X94626190Y-112924809D01*
X94626190Y-112924809D02*
X94578571Y-112924809D01*
X94578571Y-112924809D02*
X94507142Y-112948619D01*
X94507142Y-112948619D02*
X94483333Y-112972428D01*
X94054761Y-113091476D02*
X94054761Y-113424809D01*
X94173809Y-112901000D02*
X94292856Y-113258142D01*
X94292856Y-113258142D02*
X93983333Y-113258142D01*
X40521428Y-175624809D02*
X40688094Y-175386714D01*
X40807142Y-175624809D02*
X40807142Y-175124809D01*
X40807142Y-175124809D02*
X40616666Y-175124809D01*
X40616666Y-175124809D02*
X40569047Y-175148619D01*
X40569047Y-175148619D02*
X40545237Y-175172428D01*
X40545237Y-175172428D02*
X40521428Y-175220047D01*
X40521428Y-175220047D02*
X40521428Y-175291476D01*
X40521428Y-175291476D02*
X40545237Y-175339095D01*
X40545237Y-175339095D02*
X40569047Y-175362904D01*
X40569047Y-175362904D02*
X40616666Y-175386714D01*
X40616666Y-175386714D02*
X40807142Y-175386714D01*
X40092856Y-175291476D02*
X40092856Y-175624809D01*
X40211904Y-175101000D02*
X40330951Y-175458142D01*
X40330951Y-175458142D02*
X40021428Y-175458142D01*
X39878571Y-175124809D02*
X39569047Y-175124809D01*
X39569047Y-175124809D02*
X39735714Y-175315285D01*
X39735714Y-175315285D02*
X39664285Y-175315285D01*
X39664285Y-175315285D02*
X39616666Y-175339095D01*
X39616666Y-175339095D02*
X39592857Y-175362904D01*
X39592857Y-175362904D02*
X39569047Y-175410523D01*
X39569047Y-175410523D02*
X39569047Y-175529571D01*
X39569047Y-175529571D02*
X39592857Y-175577190D01*
X39592857Y-175577190D02*
X39616666Y-175601000D01*
X39616666Y-175601000D02*
X39664285Y-175624809D01*
X39664285Y-175624809D02*
X39807142Y-175624809D01*
X39807142Y-175624809D02*
X39854761Y-175601000D01*
X39854761Y-175601000D02*
X39878571Y-175577190D01*
D14*
X97554819Y-30261905D02*
X96554819Y-30261905D01*
X96554819Y-30261905D02*
X96554819Y-30500000D01*
X96554819Y-30500000D02*
X96602438Y-30642857D01*
X96602438Y-30642857D02*
X96697676Y-30738095D01*
X96697676Y-30738095D02*
X96792914Y-30785714D01*
X96792914Y-30785714D02*
X96983390Y-30833333D01*
X96983390Y-30833333D02*
X97126247Y-30833333D01*
X97126247Y-30833333D02*
X97316723Y-30785714D01*
X97316723Y-30785714D02*
X97411961Y-30738095D01*
X97411961Y-30738095D02*
X97507200Y-30642857D01*
X97507200Y-30642857D02*
X97554819Y-30500000D01*
X97554819Y-30500000D02*
X97554819Y-30261905D01*
X96888152Y-31690476D02*
X97554819Y-31690476D01*
X96507200Y-31452381D02*
X97221485Y-31214286D01*
X97221485Y-31214286D02*
X97221485Y-31833333D01*
D12*
X56574809Y-49845238D02*
X56931952Y-49845238D01*
X56931952Y-49845238D02*
X57003380Y-49821429D01*
X57003380Y-49821429D02*
X57051000Y-49773810D01*
X57051000Y-49773810D02*
X57074809Y-49702381D01*
X57074809Y-49702381D02*
X57074809Y-49654762D01*
X57074809Y-50345238D02*
X57074809Y-50059524D01*
X57074809Y-50202381D02*
X56574809Y-50202381D01*
X56574809Y-50202381D02*
X56646238Y-50154762D01*
X56646238Y-50154762D02*
X56693857Y-50107143D01*
X56693857Y-50107143D02*
X56717666Y-50059524D01*
X56622428Y-50535714D02*
X56598619Y-50559523D01*
X56598619Y-50559523D02*
X56574809Y-50607142D01*
X56574809Y-50607142D02*
X56574809Y-50726190D01*
X56574809Y-50726190D02*
X56598619Y-50773809D01*
X56598619Y-50773809D02*
X56622428Y-50797618D01*
X56622428Y-50797618D02*
X56670047Y-50821428D01*
X56670047Y-50821428D02*
X56717666Y-50821428D01*
X56717666Y-50821428D02*
X56789095Y-50797618D01*
X56789095Y-50797618D02*
X57074809Y-50511904D01*
X57074809Y-50511904D02*
X57074809Y-50821428D01*
X104121428Y-107777190D02*
X104145237Y-107801000D01*
X104145237Y-107801000D02*
X104216666Y-107824809D01*
X104216666Y-107824809D02*
X104264285Y-107824809D01*
X104264285Y-107824809D02*
X104335713Y-107801000D01*
X104335713Y-107801000D02*
X104383332Y-107753380D01*
X104383332Y-107753380D02*
X104407142Y-107705761D01*
X104407142Y-107705761D02*
X104430951Y-107610523D01*
X104430951Y-107610523D02*
X104430951Y-107539095D01*
X104430951Y-107539095D02*
X104407142Y-107443857D01*
X104407142Y-107443857D02*
X104383332Y-107396238D01*
X104383332Y-107396238D02*
X104335713Y-107348619D01*
X104335713Y-107348619D02*
X104264285Y-107324809D01*
X104264285Y-107324809D02*
X104216666Y-107324809D01*
X104216666Y-107324809D02*
X104145237Y-107348619D01*
X104145237Y-107348619D02*
X104121428Y-107372428D01*
X103954761Y-107324809D02*
X103645237Y-107324809D01*
X103645237Y-107324809D02*
X103811904Y-107515285D01*
X103811904Y-107515285D02*
X103740475Y-107515285D01*
X103740475Y-107515285D02*
X103692856Y-107539095D01*
X103692856Y-107539095D02*
X103669047Y-107562904D01*
X103669047Y-107562904D02*
X103645237Y-107610523D01*
X103645237Y-107610523D02*
X103645237Y-107729571D01*
X103645237Y-107729571D02*
X103669047Y-107777190D01*
X103669047Y-107777190D02*
X103692856Y-107801000D01*
X103692856Y-107801000D02*
X103740475Y-107824809D01*
X103740475Y-107824809D02*
X103883332Y-107824809D01*
X103883332Y-107824809D02*
X103930951Y-107801000D01*
X103930951Y-107801000D02*
X103954761Y-107777190D01*
X103478571Y-107324809D02*
X103169047Y-107324809D01*
X103169047Y-107324809D02*
X103335714Y-107515285D01*
X103335714Y-107515285D02*
X103264285Y-107515285D01*
X103264285Y-107515285D02*
X103216666Y-107539095D01*
X103216666Y-107539095D02*
X103192857Y-107562904D01*
X103192857Y-107562904D02*
X103169047Y-107610523D01*
X103169047Y-107610523D02*
X103169047Y-107729571D01*
X103169047Y-107729571D02*
X103192857Y-107777190D01*
X103192857Y-107777190D02*
X103216666Y-107801000D01*
X103216666Y-107801000D02*
X103264285Y-107824809D01*
X103264285Y-107824809D02*
X103407142Y-107824809D01*
X103407142Y-107824809D02*
X103454761Y-107801000D01*
X103454761Y-107801000D02*
X103478571Y-107777190D01*
X61121428Y-176624809D02*
X61288094Y-176386714D01*
X61407142Y-176624809D02*
X61407142Y-176124809D01*
X61407142Y-176124809D02*
X61216666Y-176124809D01*
X61216666Y-176124809D02*
X61169047Y-176148619D01*
X61169047Y-176148619D02*
X61145237Y-176172428D01*
X61145237Y-176172428D02*
X61121428Y-176220047D01*
X61121428Y-176220047D02*
X61121428Y-176291476D01*
X61121428Y-176291476D02*
X61145237Y-176339095D01*
X61145237Y-176339095D02*
X61169047Y-176362904D01*
X61169047Y-176362904D02*
X61216666Y-176386714D01*
X61216666Y-176386714D02*
X61407142Y-176386714D01*
X60669047Y-176124809D02*
X60907142Y-176124809D01*
X60907142Y-176124809D02*
X60930951Y-176362904D01*
X60930951Y-176362904D02*
X60907142Y-176339095D01*
X60907142Y-176339095D02*
X60859523Y-176315285D01*
X60859523Y-176315285D02*
X60740475Y-176315285D01*
X60740475Y-176315285D02*
X60692856Y-176339095D01*
X60692856Y-176339095D02*
X60669047Y-176362904D01*
X60669047Y-176362904D02*
X60645237Y-176410523D01*
X60645237Y-176410523D02*
X60645237Y-176529571D01*
X60645237Y-176529571D02*
X60669047Y-176577190D01*
X60669047Y-176577190D02*
X60692856Y-176601000D01*
X60692856Y-176601000D02*
X60740475Y-176624809D01*
X60740475Y-176624809D02*
X60859523Y-176624809D01*
X60859523Y-176624809D02*
X60907142Y-176601000D01*
X60907142Y-176601000D02*
X60930951Y-176577190D01*
X60335714Y-176124809D02*
X60288095Y-176124809D01*
X60288095Y-176124809D02*
X60240476Y-176148619D01*
X60240476Y-176148619D02*
X60216666Y-176172428D01*
X60216666Y-176172428D02*
X60192857Y-176220047D01*
X60192857Y-176220047D02*
X60169047Y-176315285D01*
X60169047Y-176315285D02*
X60169047Y-176434333D01*
X60169047Y-176434333D02*
X60192857Y-176529571D01*
X60192857Y-176529571D02*
X60216666Y-176577190D01*
X60216666Y-176577190D02*
X60240476Y-176601000D01*
X60240476Y-176601000D02*
X60288095Y-176624809D01*
X60288095Y-176624809D02*
X60335714Y-176624809D01*
X60335714Y-176624809D02*
X60383333Y-176601000D01*
X60383333Y-176601000D02*
X60407142Y-176577190D01*
X60407142Y-176577190D02*
X60430952Y-176529571D01*
X60430952Y-176529571D02*
X60454761Y-176434333D01*
X60454761Y-176434333D02*
X60454761Y-176315285D01*
X60454761Y-176315285D02*
X60430952Y-176220047D01*
X60430952Y-176220047D02*
X60407142Y-176172428D01*
X60407142Y-176172428D02*
X60383333Y-176148619D01*
X60383333Y-176148619D02*
X60335714Y-176124809D01*
D14*
X75774523Y-60329819D02*
X75774523Y-61044104D01*
X75774523Y-61044104D02*
X75822142Y-61186961D01*
X75822142Y-61186961D02*
X75917380Y-61282200D01*
X75917380Y-61282200D02*
X76060237Y-61329819D01*
X76060237Y-61329819D02*
X76155475Y-61329819D01*
X74774523Y-61329819D02*
X75345951Y-61329819D01*
X75060237Y-61329819D02*
X75060237Y-60329819D01*
X75060237Y-60329819D02*
X75155475Y-60472676D01*
X75155475Y-60472676D02*
X75250713Y-60567914D01*
X75250713Y-60567914D02*
X75345951Y-60615533D01*
X73822142Y-61329819D02*
X74393570Y-61329819D01*
X74107856Y-61329819D02*
X74107856Y-60329819D01*
X74107856Y-60329819D02*
X74203094Y-60472676D01*
X74203094Y-60472676D02*
X74298332Y-60567914D01*
X74298332Y-60567914D02*
X74393570Y-60615533D01*
D12*
X69324809Y-90716666D02*
X69086714Y-90550000D01*
X69324809Y-90430952D02*
X68824809Y-90430952D01*
X68824809Y-90430952D02*
X68824809Y-90621428D01*
X68824809Y-90621428D02*
X68848619Y-90669047D01*
X68848619Y-90669047D02*
X68872428Y-90692857D01*
X68872428Y-90692857D02*
X68920047Y-90716666D01*
X68920047Y-90716666D02*
X68991476Y-90716666D01*
X68991476Y-90716666D02*
X69039095Y-90692857D01*
X69039095Y-90692857D02*
X69062904Y-90669047D01*
X69062904Y-90669047D02*
X69086714Y-90621428D01*
X69086714Y-90621428D02*
X69086714Y-90430952D01*
X68824809Y-90883333D02*
X68824809Y-91192857D01*
X68824809Y-91192857D02*
X69015285Y-91026190D01*
X69015285Y-91026190D02*
X69015285Y-91097619D01*
X69015285Y-91097619D02*
X69039095Y-91145238D01*
X69039095Y-91145238D02*
X69062904Y-91169047D01*
X69062904Y-91169047D02*
X69110523Y-91192857D01*
X69110523Y-91192857D02*
X69229571Y-91192857D01*
X69229571Y-91192857D02*
X69277190Y-91169047D01*
X69277190Y-91169047D02*
X69301000Y-91145238D01*
X69301000Y-91145238D02*
X69324809Y-91097619D01*
X69324809Y-91097619D02*
X69324809Y-90954762D01*
X69324809Y-90954762D02*
X69301000Y-90907143D01*
X69301000Y-90907143D02*
X69277190Y-90883333D01*
X76524809Y-87416666D02*
X76286714Y-87250000D01*
X76524809Y-87130952D02*
X76024809Y-87130952D01*
X76024809Y-87130952D02*
X76024809Y-87321428D01*
X76024809Y-87321428D02*
X76048619Y-87369047D01*
X76048619Y-87369047D02*
X76072428Y-87392857D01*
X76072428Y-87392857D02*
X76120047Y-87416666D01*
X76120047Y-87416666D02*
X76191476Y-87416666D01*
X76191476Y-87416666D02*
X76239095Y-87392857D01*
X76239095Y-87392857D02*
X76262904Y-87369047D01*
X76262904Y-87369047D02*
X76286714Y-87321428D01*
X76286714Y-87321428D02*
X76286714Y-87130952D01*
X76024809Y-87845238D02*
X76024809Y-87750000D01*
X76024809Y-87750000D02*
X76048619Y-87702381D01*
X76048619Y-87702381D02*
X76072428Y-87678571D01*
X76072428Y-87678571D02*
X76143857Y-87630952D01*
X76143857Y-87630952D02*
X76239095Y-87607143D01*
X76239095Y-87607143D02*
X76429571Y-87607143D01*
X76429571Y-87607143D02*
X76477190Y-87630952D01*
X76477190Y-87630952D02*
X76501000Y-87654762D01*
X76501000Y-87654762D02*
X76524809Y-87702381D01*
X76524809Y-87702381D02*
X76524809Y-87797619D01*
X76524809Y-87797619D02*
X76501000Y-87845238D01*
X76501000Y-87845238D02*
X76477190Y-87869047D01*
X76477190Y-87869047D02*
X76429571Y-87892857D01*
X76429571Y-87892857D02*
X76310523Y-87892857D01*
X76310523Y-87892857D02*
X76262904Y-87869047D01*
X76262904Y-87869047D02*
X76239095Y-87845238D01*
X76239095Y-87845238D02*
X76215285Y-87797619D01*
X76215285Y-87797619D02*
X76215285Y-87702381D01*
X76215285Y-87702381D02*
X76239095Y-87654762D01*
X76239095Y-87654762D02*
X76262904Y-87630952D01*
X76262904Y-87630952D02*
X76310523Y-87607143D01*
X47380952Y-95524809D02*
X47380952Y-95929571D01*
X47380952Y-95929571D02*
X47357142Y-95977190D01*
X47357142Y-95977190D02*
X47333333Y-96001000D01*
X47333333Y-96001000D02*
X47285714Y-96024809D01*
X47285714Y-96024809D02*
X47190476Y-96024809D01*
X47190476Y-96024809D02*
X47142857Y-96001000D01*
X47142857Y-96001000D02*
X47119047Y-95977190D01*
X47119047Y-95977190D02*
X47095238Y-95929571D01*
X47095238Y-95929571D02*
X47095238Y-95524809D01*
X46619047Y-95524809D02*
X46857142Y-95524809D01*
X46857142Y-95524809D02*
X46880951Y-95762904D01*
X46880951Y-95762904D02*
X46857142Y-95739095D01*
X46857142Y-95739095D02*
X46809523Y-95715285D01*
X46809523Y-95715285D02*
X46690475Y-95715285D01*
X46690475Y-95715285D02*
X46642856Y-95739095D01*
X46642856Y-95739095D02*
X46619047Y-95762904D01*
X46619047Y-95762904D02*
X46595237Y-95810523D01*
X46595237Y-95810523D02*
X46595237Y-95929571D01*
X46595237Y-95929571D02*
X46619047Y-95977190D01*
X46619047Y-95977190D02*
X46642856Y-96001000D01*
X46642856Y-96001000D02*
X46690475Y-96024809D01*
X46690475Y-96024809D02*
X46809523Y-96024809D01*
X46809523Y-96024809D02*
X46857142Y-96001000D01*
X46857142Y-96001000D02*
X46880951Y-95977190D01*
X92311428Y-60454809D02*
X92478094Y-60216714D01*
X92597142Y-60454809D02*
X92597142Y-59954809D01*
X92597142Y-59954809D02*
X92406666Y-59954809D01*
X92406666Y-59954809D02*
X92359047Y-59978619D01*
X92359047Y-59978619D02*
X92335237Y-60002428D01*
X92335237Y-60002428D02*
X92311428Y-60050047D01*
X92311428Y-60050047D02*
X92311428Y-60121476D01*
X92311428Y-60121476D02*
X92335237Y-60169095D01*
X92335237Y-60169095D02*
X92359047Y-60192904D01*
X92359047Y-60192904D02*
X92406666Y-60216714D01*
X92406666Y-60216714D02*
X92597142Y-60216714D01*
X92120951Y-60002428D02*
X92097142Y-59978619D01*
X92097142Y-59978619D02*
X92049523Y-59954809D01*
X92049523Y-59954809D02*
X91930475Y-59954809D01*
X91930475Y-59954809D02*
X91882856Y-59978619D01*
X91882856Y-59978619D02*
X91859047Y-60002428D01*
X91859047Y-60002428D02*
X91835237Y-60050047D01*
X91835237Y-60050047D02*
X91835237Y-60097666D01*
X91835237Y-60097666D02*
X91859047Y-60169095D01*
X91859047Y-60169095D02*
X92144761Y-60454809D01*
X92144761Y-60454809D02*
X91835237Y-60454809D01*
X91382857Y-59954809D02*
X91620952Y-59954809D01*
X91620952Y-59954809D02*
X91644761Y-60192904D01*
X91644761Y-60192904D02*
X91620952Y-60169095D01*
X91620952Y-60169095D02*
X91573333Y-60145285D01*
X91573333Y-60145285D02*
X91454285Y-60145285D01*
X91454285Y-60145285D02*
X91406666Y-60169095D01*
X91406666Y-60169095D02*
X91382857Y-60192904D01*
X91382857Y-60192904D02*
X91359047Y-60240523D01*
X91359047Y-60240523D02*
X91359047Y-60359571D01*
X91359047Y-60359571D02*
X91382857Y-60407190D01*
X91382857Y-60407190D02*
X91406666Y-60431000D01*
X91406666Y-60431000D02*
X91454285Y-60454809D01*
X91454285Y-60454809D02*
X91573333Y-60454809D01*
X91573333Y-60454809D02*
X91620952Y-60431000D01*
X91620952Y-60431000D02*
X91644761Y-60407190D01*
X105775190Y-50419047D02*
X105370428Y-50419047D01*
X105370428Y-50419047D02*
X105322809Y-50395237D01*
X105322809Y-50395237D02*
X105299000Y-50371428D01*
X105299000Y-50371428D02*
X105275190Y-50323809D01*
X105275190Y-50323809D02*
X105275190Y-50228571D01*
X105275190Y-50228571D02*
X105299000Y-50180952D01*
X105299000Y-50180952D02*
X105322809Y-50157142D01*
X105322809Y-50157142D02*
X105370428Y-50133333D01*
X105370428Y-50133333D02*
X105775190Y-50133333D01*
X105275190Y-49633332D02*
X105275190Y-49919046D01*
X105275190Y-49776189D02*
X105775190Y-49776189D01*
X105775190Y-49776189D02*
X105703761Y-49823808D01*
X105703761Y-49823808D02*
X105656142Y-49871427D01*
X105656142Y-49871427D02*
X105632333Y-49919046D01*
X105727571Y-49442856D02*
X105751380Y-49419047D01*
X105751380Y-49419047D02*
X105775190Y-49371428D01*
X105775190Y-49371428D02*
X105775190Y-49252380D01*
X105775190Y-49252380D02*
X105751380Y-49204761D01*
X105751380Y-49204761D02*
X105727571Y-49180952D01*
X105727571Y-49180952D02*
X105679952Y-49157142D01*
X105679952Y-49157142D02*
X105632333Y-49157142D01*
X105632333Y-49157142D02*
X105560904Y-49180952D01*
X105560904Y-49180952D02*
X105275190Y-49466666D01*
X105275190Y-49466666D02*
X105275190Y-49157142D01*
D15*
%TO.C,R28*%
X69243641Y-94920000D02*
X68936359Y-94920000D01*
X69243641Y-95680000D02*
X68936359Y-95680000D01*
%TO.C,R27*%
X66143641Y-97720000D02*
X65836359Y-97720000D01*
X66143641Y-98480000D02*
X65836359Y-98480000D01*
%TO.C,C47*%
X109202164Y-45600000D02*
X109417836Y-45600000D01*
X109202164Y-46320000D02*
X109417836Y-46320000D01*
%TO.C,C19*%
X106040580Y-41390000D02*
X105759420Y-41390000D01*
X106040580Y-42410000D02*
X105759420Y-42410000D01*
%TO.C,C17*%
X95490000Y-40159420D02*
X95490000Y-40440580D01*
X96510000Y-40159420D02*
X96510000Y-40440580D01*
%TO.C,C7*%
X69990000Y-111487836D02*
X69990000Y-111272164D01*
X70710000Y-111487836D02*
X70710000Y-111272164D01*
D11*
%TO.C,J9*%
X102070000Y-62850000D02*
X105070000Y-62850000D01*
X102070000Y-64850000D02*
X102070000Y-62850000D01*
X105070000Y-62850000D02*
X105070000Y-64850000D01*
X105070000Y-64850000D02*
X102070000Y-64850000D01*
D15*
%TO.C,J8*%
X114010000Y-45060000D02*
X116010000Y-45060000D01*
X114010000Y-54460000D02*
X116010000Y-54460000D01*
X117910000Y-45060000D02*
X119810000Y-45060000D01*
X117910000Y-54460000D02*
X119810000Y-54460000D01*
X119810000Y-45060000D02*
X119810000Y-54460000D01*
D11*
%TO.C,J10*%
X102070000Y-65350000D02*
X105070000Y-65350000D01*
X102070000Y-67350000D02*
X102070000Y-65350000D01*
X105070000Y-65350000D02*
X105070000Y-67350000D01*
X105070000Y-67350000D02*
X102070000Y-67350000D01*
D15*
%TO.C,C30*%
X76940000Y-89207836D02*
X76940000Y-88992164D01*
X77660000Y-89207836D02*
X77660000Y-88992164D01*
%TO.C,U6*%
X103200000Y-96840000D02*
X102400000Y-96840000D01*
X103200000Y-96840000D02*
X104000000Y-96840000D01*
X103200000Y-99960000D02*
X102400000Y-99960000D01*
X103200000Y-99960000D02*
X104000000Y-99960000D01*
X102140000Y-100240000D02*
X101660000Y-100240000D01*
X101900000Y-99910000D01*
X102140000Y-100240000D01*
G36*
X102140000Y-100240000D02*
G01*
X101660000Y-100240000D01*
X101900000Y-99910000D01*
X102140000Y-100240000D01*
G37*
%TO.C,C13*%
X77882164Y-101840000D02*
X78097836Y-101840000D01*
X77882164Y-102560000D02*
X78097836Y-102560000D01*
%TO.C,F1*%
X41790000Y-177602064D02*
X41790000Y-176397936D01*
X43610000Y-177602064D02*
X43610000Y-176397936D01*
%TO.C,Q1*%
X58500000Y-175690000D02*
X57850000Y-175690000D01*
X58500000Y-175690000D02*
X59150000Y-175690000D01*
X58500000Y-178810000D02*
X57850000Y-178810000D01*
X58500000Y-178810000D02*
X59150000Y-178810000D01*
X57577500Y-179090000D02*
X57097500Y-179090000D01*
X57337500Y-178760000D01*
X57577500Y-179090000D01*
G36*
X57577500Y-179090000D02*
G01*
X57097500Y-179090000D01*
X57337500Y-178760000D01*
X57577500Y-179090000D01*
G37*
%TO.C,Y1*%
X79680000Y-97490000D02*
X83800000Y-97490000D01*
X79680000Y-101010000D02*
X79680000Y-97490000D01*
%TO.C,C9*%
X79690000Y-116842164D02*
X79690000Y-117057836D01*
X80410000Y-116842164D02*
X80410000Y-117057836D01*
%TO.C,JP1*%
X80462563Y-109076776D02*
X82442462Y-111056675D01*
X81876776Y-107662563D02*
X80462563Y-109076776D01*
X82442462Y-111056675D02*
X83856675Y-109642462D01*
X83856675Y-109642462D02*
X81876776Y-107662563D01*
%TO.C,U1*%
X71490000Y-111090000D02*
X71490000Y-111565000D01*
X71490000Y-118310000D02*
X71490000Y-117835000D01*
X71965000Y-111090000D02*
X71490000Y-111090000D01*
X71965000Y-118310000D02*
X71490000Y-118310000D01*
X78235000Y-111090000D02*
X78410000Y-111090000D01*
X78235000Y-118310000D02*
X78710000Y-118310000D01*
X78710000Y-111565000D02*
X78710000Y-111330000D01*
X78710000Y-118310000D02*
X78710000Y-117835000D01*
X78710000Y-111090000D02*
X78470000Y-110760000D01*
X78950000Y-110760000D01*
X78710000Y-111090000D01*
G36*
X78710000Y-111090000D02*
G01*
X78470000Y-110760000D01*
X78950000Y-110760000D01*
X78710000Y-111090000D01*
G37*
%TO.C,U2*%
X103700000Y-32740000D02*
X101750000Y-32740000D01*
X103700000Y-32740000D02*
X105650000Y-32740000D01*
X103700000Y-37860000D02*
X101750000Y-37860000D01*
X103700000Y-37860000D02*
X105650000Y-37860000D01*
X101240000Y-38095000D02*
X100760000Y-38095000D01*
X101000000Y-37765000D01*
X101240000Y-38095000D01*
G36*
X101240000Y-38095000D02*
G01*
X100760000Y-38095000D01*
X101000000Y-37765000D01*
X101240000Y-38095000D01*
G37*
%TO.C,C23*%
X77882164Y-99840000D02*
X78097836Y-99840000D01*
X77882164Y-100560000D02*
X78097836Y-100560000D01*
%TO.C,C25*%
X109859420Y-38490000D02*
X110140580Y-38490000D01*
X109859420Y-39510000D02*
X110140580Y-39510000D01*
%TO.C,R16*%
X96346359Y-113220000D02*
X96653641Y-113220000D01*
X96346359Y-113980000D02*
X96653641Y-113980000D01*
%TO.C,R38*%
X62120000Y-177853641D02*
X62120000Y-177546359D01*
X62880000Y-177853641D02*
X62880000Y-177546359D01*
%TO.C,U11*%
X100562500Y-106060000D02*
X100562500Y-106270000D01*
X100752500Y-104490000D02*
X100752500Y-104940000D01*
X102372500Y-104490000D02*
X102372500Y-104940000D01*
X102372500Y-106510000D02*
X102372500Y-106060000D01*
X100802500Y-106840000D02*
X100322500Y-106840000D01*
X100562500Y-106510000D01*
X100802500Y-106840000D01*
G36*
X100802500Y-106840000D02*
G01*
X100322500Y-106840000D01*
X100562500Y-106510000D01*
X100802500Y-106840000D01*
G37*
%TO.C,R21*%
X69963641Y-102920000D02*
X69656359Y-102920000D01*
X69963641Y-103680000D02*
X69656359Y-103680000D01*
%TO.C,R17*%
X110246359Y-31420000D02*
X110553641Y-31420000D01*
X110246359Y-32180000D02*
X110553641Y-32180000D01*
%TO.C,U15*%
X45640000Y-113465000D02*
X44840000Y-113465000D01*
X45640000Y-113465000D02*
X46440000Y-113465000D01*
X46640000Y-116685000D02*
X44840000Y-116685000D01*
X46940000Y-113515000D02*
X46700000Y-113185000D01*
X47180000Y-113185000D01*
X46940000Y-113515000D01*
G36*
X46940000Y-113515000D02*
G01*
X46700000Y-113185000D01*
X47180000Y-113185000D01*
X46940000Y-113515000D01*
G37*
%TO.C,U4*%
X64200000Y-92240000D02*
X62250000Y-92240000D01*
X64200000Y-92240000D02*
X66150000Y-92240000D01*
X64200000Y-97360000D02*
X62250000Y-97360000D01*
X64200000Y-97360000D02*
X66150000Y-97360000D01*
X66900000Y-92335000D02*
X66660000Y-92005000D01*
X67140000Y-92005000D01*
X66900000Y-92335000D01*
G36*
X66900000Y-92335000D02*
G01*
X66660000Y-92005000D01*
X67140000Y-92005000D01*
X66900000Y-92335000D01*
G37*
D16*
%TO.C,BT1*%
X32245000Y-167700000D02*
X32245000Y-168700000D01*
X32745000Y-168200000D02*
X31745000Y-168200000D01*
X36470000Y-153375000D02*
X36470000Y-160150000D01*
X36470000Y-167250000D02*
X36470000Y-174025000D01*
X36470000Y-174025000D02*
X113520000Y-174025000D01*
X113520000Y-153375000D02*
X36470000Y-153375000D01*
X113520000Y-160150000D02*
X113520000Y-153375000D01*
X113520000Y-174025000D02*
X113520000Y-167250000D01*
X118245000Y-167700000D02*
X117245000Y-167700000D01*
D15*
%TO.C,C32*%
X41890000Y-114849420D02*
X41890000Y-115130580D01*
X42910000Y-114849420D02*
X42910000Y-115130580D01*
%TO.C,C26*%
X109859420Y-41490000D02*
X110140580Y-41490000D01*
X109859420Y-42510000D02*
X110140580Y-42510000D01*
D11*
%TO.C,J7*%
X102070000Y-60850000D02*
X105070000Y-60850000D01*
X102070000Y-62850000D02*
X102070000Y-60850000D01*
X105070000Y-60850000D02*
X105070000Y-62850000D01*
X105070000Y-62850000D02*
X102070000Y-62850000D01*
D15*
%TO.C,C15*%
X68630000Y-101427836D02*
X68630000Y-101212164D01*
X69350000Y-101427836D02*
X69350000Y-101212164D01*
%TO.C,JP2*%
X57600000Y-90650000D02*
X57600000Y-93450000D01*
X57600000Y-93450000D02*
X59600000Y-93450000D01*
X59600000Y-90650000D02*
X57600000Y-90650000D01*
X59600000Y-93450000D02*
X59600000Y-90650000D01*
%TO.C,C29*%
X84897836Y-97540000D02*
X84682164Y-97540000D01*
X84897836Y-98260000D02*
X84682164Y-98260000D01*
%TO.C,D7*%
X37450000Y-176015000D02*
X39735000Y-176015000D01*
X39735000Y-176015000D02*
X39735000Y-177485000D01*
X39735000Y-177485000D02*
X37450000Y-177485000D01*
%TO.C,C21*%
X111990000Y-31140580D02*
X111990000Y-30859420D01*
X113010000Y-31140580D02*
X113010000Y-30859420D01*
D16*
%TO.C,U10*%
X46850000Y-179690000D02*
X53650000Y-179690000D01*
X53650000Y-174810000D02*
X46850000Y-174810000D01*
D17*
X44100000Y-178500000D02*
G75*
G02*
X43900000Y-178500000I-100000J0D01*
G01*
X43900000Y-178500000D02*
G75*
G02*
X44100000Y-178500000I100000J0D01*
G01*
D15*
%TO.C,C8*%
X79112164Y-109840000D02*
X79327836Y-109840000D01*
X79112164Y-110560000D02*
X79327836Y-110560000D01*
%TO.C,C10*%
X71107836Y-118640000D02*
X70892164Y-118640000D01*
X71107836Y-119360000D02*
X70892164Y-119360000D01*
%TO.C,L1*%
X108340000Y-33215000D02*
X109190000Y-33215000D01*
X108340000Y-37585000D02*
X108340000Y-33215000D01*
X108340000Y-37585000D02*
X109190000Y-37585000D01*
X113060000Y-33215000D02*
X112210000Y-33215000D01*
X113060000Y-37585000D02*
X112210000Y-37585000D01*
X113060000Y-37585000D02*
X113060000Y-33215000D01*
%TO.C,R7*%
X75920000Y-90946359D02*
X75920000Y-91253641D01*
X76680000Y-90946359D02*
X76680000Y-91253641D01*
%TO.C,R26*%
X99136359Y-107320000D02*
X99443641Y-107320000D01*
X99136359Y-108080000D02*
X99443641Y-108080000D01*
%TO.C,U8*%
X99200000Y-61240000D02*
X98400000Y-61240000D01*
X99200000Y-61240000D02*
X100000000Y-61240000D01*
X99200000Y-64360000D02*
X98400000Y-64360000D01*
X99200000Y-64360000D02*
X100000000Y-64360000D01*
X100500000Y-61290000D02*
X100260000Y-60960000D01*
X100740000Y-60960000D01*
X100500000Y-61290000D01*
G36*
X100500000Y-61290000D02*
G01*
X100260000Y-60960000D01*
X100740000Y-60960000D01*
X100500000Y-61290000D01*
G37*
%TO.C,D3*%
X94665000Y-35485000D02*
X94665000Y-33200000D01*
X96135000Y-33200000D02*
X96135000Y-35485000D01*
X96135000Y-35485000D02*
X94665000Y-35485000D01*
%TO.C,D6*%
X71802500Y-106565000D02*
X74087500Y-106565000D01*
X71802500Y-108035000D02*
X71802500Y-106565000D01*
X74087500Y-108035000D02*
X71802500Y-108035000D01*
%TO.C,JP3*%
X55000000Y-90650000D02*
X55000000Y-93450000D01*
X55000000Y-93450000D02*
X57000000Y-93450000D01*
X57000000Y-90650000D02*
X55000000Y-90650000D01*
X57000000Y-93450000D02*
X57000000Y-90650000D01*
%TO.C,C31*%
X74340000Y-94092164D02*
X74340000Y-94307836D01*
X75060000Y-94092164D02*
X75060000Y-94307836D01*
%TO.C,C28*%
X84897836Y-100340000D02*
X84682164Y-100340000D01*
X84897836Y-101060000D02*
X84682164Y-101060000D01*
%TO.C,R11*%
X109433641Y-51710000D02*
X109126359Y-51710000D01*
X109433641Y-52470000D02*
X109126359Y-52470000D01*
%TO.C,D2*%
X92965000Y-32515000D02*
X94435000Y-32515000D01*
X92965000Y-34800000D02*
X92965000Y-32515000D01*
X94435000Y-32515000D02*
X94435000Y-34800000D01*
%TO.C,R23*%
X48420000Y-115743641D02*
X48420000Y-115436359D01*
X49180000Y-115743641D02*
X49180000Y-115436359D01*
%TO.C,C49*%
X106472164Y-51720000D02*
X106687836Y-51720000D01*
X106472164Y-52440000D02*
X106687836Y-52440000D01*
%TO.C,C6*%
X79790000Y-114192164D02*
X79790000Y-114407836D01*
X80510000Y-114192164D02*
X80510000Y-114407836D01*
D16*
%TO.C,PWR_BUTTON1*%
X117682500Y-68759611D02*
X118337500Y-68759611D01*
X118337500Y-63959611D02*
X117682500Y-63959611D01*
D17*
X116387500Y-65055000D02*
G75*
G02*
X116187500Y-65055000I-100000J0D01*
G01*
X116187500Y-65055000D02*
G75*
G02*
X116387500Y-65055000I100000J0D01*
G01*
D15*
%TO.C,C45*%
X109802836Y-43340000D02*
X109587164Y-43340000D01*
X109802836Y-44060000D02*
X109587164Y-44060000D01*
%TO.C,R2*%
X73670000Y-109263641D02*
X73670000Y-108956359D01*
X74430000Y-109263641D02*
X74430000Y-108956359D01*
%TO.C,J4*%
X107690000Y-91720000D02*
X109340000Y-91720000D01*
X107690000Y-93890000D02*
X105850000Y-93890000D01*
X107690000Y-93890000D02*
X107690000Y-91720000D01*
X107690000Y-102710000D02*
X107690000Y-104880000D01*
X107690000Y-104880000D02*
X109340000Y-104880000D01*
X112760000Y-91720000D02*
X119850000Y-91720000D01*
X112760000Y-104880000D02*
X119850000Y-104880000D01*
%TO.C,C3*%
X98500000Y-38159420D02*
X98500000Y-38440580D01*
X99520000Y-38159420D02*
X99520000Y-38440580D01*
%TO.C,R10*%
X72920000Y-91546359D02*
X72920000Y-91853641D01*
X73680000Y-91546359D02*
X73680000Y-91853641D01*
%TO.C,SW1*%
X33490000Y-79890000D02*
X33900000Y-79890000D01*
X33490000Y-86310000D02*
X33490000Y-79890000D01*
X33900000Y-86310000D02*
X33490000Y-86310000D01*
X35500000Y-79890000D02*
X37900000Y-79890000D01*
X37900000Y-86310000D02*
X35500000Y-86310000D01*
X39500000Y-79890000D02*
X39910000Y-79890000D01*
X39910000Y-79890000D02*
X39910000Y-86310000D01*
X39910000Y-86310000D02*
X39630000Y-86310000D01*
%TO.C,R15*%
X106520000Y-31653641D02*
X106520000Y-31346359D01*
X107280000Y-31653641D02*
X107280000Y-31346359D01*
%TO.C,R12*%
X109443641Y-47120000D02*
X109136359Y-47120000D01*
X109443641Y-47880000D02*
X109136359Y-47880000D01*
%TO.C,C12*%
X72730000Y-94427836D02*
X72730000Y-94212164D01*
X73450000Y-94427836D02*
X73450000Y-94212164D01*
%TO.C,J1*%
X85315000Y-77000000D02*
X85315000Y-84845000D01*
X85315000Y-84845000D02*
X105875000Y-84845000D01*
X86265000Y-86955000D02*
X86265000Y-84845000D01*
X87145000Y-86955000D02*
X87145000Y-84845000D01*
X88805000Y-86955000D02*
X88805000Y-84845000D01*
X89685000Y-86955000D02*
X89685000Y-84845000D01*
X91345000Y-86955000D02*
X91345000Y-84845000D01*
X92225000Y-86955000D02*
X92225000Y-84845000D01*
X93885000Y-86955000D02*
X93885000Y-84845000D01*
X94765000Y-86955000D02*
X94765000Y-84845000D01*
X96425000Y-86955000D02*
X96425000Y-84845000D01*
X97305000Y-86955000D02*
X97305000Y-84845000D01*
X98965000Y-86955000D02*
X98965000Y-84845000D01*
X99845000Y-86955000D02*
X99845000Y-84845000D01*
X101505000Y-86955000D02*
X101505000Y-84845000D01*
X102385000Y-86955000D02*
X102385000Y-84845000D01*
X104045000Y-86955000D02*
X104045000Y-84845000D01*
X104925000Y-86955000D02*
X104925000Y-84845000D01*
X105875000Y-77000000D02*
X85315000Y-77000000D01*
X105875000Y-84845000D02*
X105875000Y-77000000D01*
X106035000Y-83000000D02*
X105155000Y-83000000D01*
X105155000Y-77000000D01*
X106035000Y-77000000D01*
X106035000Y-83000000D01*
G36*
X106035000Y-83000000D02*
G01*
X105155000Y-83000000D01*
X105155000Y-77000000D01*
X106035000Y-77000000D01*
X106035000Y-83000000D01*
G37*
X105775000Y-88865000D02*
X105305000Y-88525000D01*
X105775000Y-88185000D01*
X105775000Y-88865000D01*
G36*
X105775000Y-88865000D02*
G01*
X105305000Y-88525000D01*
X105775000Y-88185000D01*
X105775000Y-88865000D01*
G37*
%TO.C,JP5*%
X71150000Y-88942500D02*
X71150000Y-89542500D01*
X71700000Y-87742500D02*
X72300000Y-87742500D01*
X71800000Y-90242500D02*
X74600000Y-90242500D01*
X72000000Y-88042500D02*
X71700000Y-87742500D01*
X72000000Y-88042500D02*
X72300000Y-87742500D01*
X74600000Y-88242500D02*
X71800000Y-88242500D01*
X75250000Y-89542500D02*
X75250000Y-88942500D01*
X71150000Y-88942500D02*
G75*
G02*
X71850000Y-88242500I699999J1D01*
G01*
X71850000Y-90242500D02*
G75*
G02*
X71150000Y-89542500I-1J699999D01*
G01*
X74550000Y-88242500D02*
G75*
G02*
X75250000Y-88942500I0J-700000D01*
G01*
X75250000Y-89542500D02*
G75*
G02*
X74550000Y-90242500I-700000J0D01*
G01*
%TO.C,J2*%
X44405000Y-77000000D02*
X44405000Y-84845000D01*
X44405000Y-84845000D02*
X70045000Y-84845000D01*
X45355000Y-86955000D02*
X45355000Y-84845000D01*
X46235000Y-86955000D02*
X46235000Y-84845000D01*
X47895000Y-86955000D02*
X47895000Y-84845000D01*
X48775000Y-86955000D02*
X48775000Y-84845000D01*
X50435000Y-86955000D02*
X50435000Y-84845000D01*
X51315000Y-86955000D02*
X51315000Y-84845000D01*
X52975000Y-86955000D02*
X52975000Y-84845000D01*
X53855000Y-86955000D02*
X53855000Y-84845000D01*
X55515000Y-86955000D02*
X55515000Y-84845000D01*
X56395000Y-86955000D02*
X56395000Y-84845000D01*
X58055000Y-86955000D02*
X58055000Y-84845000D01*
X58935000Y-86955000D02*
X58935000Y-84845000D01*
X60595000Y-86955000D02*
X60595000Y-84845000D01*
X61475000Y-86955000D02*
X61475000Y-84845000D01*
X63135000Y-86955000D02*
X63135000Y-84845000D01*
X64015000Y-86955000D02*
X64015000Y-84845000D01*
X65675000Y-86955000D02*
X65675000Y-84845000D01*
X66555000Y-86955000D02*
X66555000Y-84845000D01*
X68215000Y-86955000D02*
X68215000Y-84845000D01*
X69095000Y-86955000D02*
X69095000Y-84845000D01*
X70045000Y-77000000D02*
X44405000Y-77000000D01*
X70045000Y-84845000D02*
X70045000Y-77000000D01*
X70225000Y-82000000D02*
X69345000Y-82000000D01*
X69345000Y-77000000D01*
X70225000Y-77000000D01*
X70225000Y-82000000D01*
G36*
X70225000Y-82000000D02*
G01*
X69345000Y-82000000D01*
X69345000Y-77000000D01*
X70225000Y-77000000D01*
X70225000Y-82000000D01*
G37*
X69945000Y-88865000D02*
X69475000Y-88525000D01*
X69945000Y-88185000D01*
X69945000Y-88865000D01*
G36*
X69945000Y-88865000D02*
G01*
X69475000Y-88525000D01*
X69945000Y-88185000D01*
X69945000Y-88865000D01*
G37*
%TO.C,R4*%
X70920000Y-91546359D02*
X70920000Y-91853641D01*
X71680000Y-91546359D02*
X71680000Y-91853641D01*
%TO.C,C16*%
X72840000Y-104292164D02*
X72840000Y-104507836D01*
X73560000Y-104292164D02*
X73560000Y-104507836D01*
%TO.C,D5*%
X98065000Y-35485000D02*
X98065000Y-33200000D01*
X99535000Y-33200000D02*
X99535000Y-35485000D01*
X99535000Y-35485000D02*
X98065000Y-35485000D01*
%TO.C,C11*%
X80222164Y-111402500D02*
X80437836Y-111402500D01*
X80222164Y-112122500D02*
X80437836Y-112122500D01*
%TO.C,C1*%
X98745336Y-108840000D02*
X98529664Y-108840000D01*
X98745336Y-109560000D02*
X98529664Y-109560000D01*
%TO.C,C27*%
X68397836Y-98740000D02*
X68182164Y-98740000D01*
X68397836Y-99460000D02*
X68182164Y-99460000D01*
D11*
%TO.C,J6*%
X102070000Y-58350000D02*
X105070000Y-58350000D01*
X102070000Y-60350000D02*
X102070000Y-58350000D01*
X105070000Y-58350000D02*
X105070000Y-60350000D01*
X105070000Y-60350000D02*
X102070000Y-60350000D01*
D15*
%TO.C,L2*%
X94773752Y-108590000D02*
X94251248Y-108590000D01*
X94773752Y-110810000D02*
X94251248Y-110810000D01*
%TO.C,R19*%
X77420000Y-94146359D02*
X77420000Y-94453641D01*
X78180000Y-94146359D02*
X78180000Y-94453641D01*
%TO.C,R24*%
X94163641Y-61020000D02*
X93856359Y-61020000D01*
X94163641Y-61780000D02*
X93856359Y-61780000D01*
%TO.C,R9*%
X75320000Y-94046359D02*
X75320000Y-94353641D01*
X76080000Y-94046359D02*
X76080000Y-94353641D01*
%TO.C,D13*%
X51510000Y-112640000D02*
X48850000Y-112640000D01*
X51510000Y-112640000D02*
X51510000Y-114340000D01*
X51510000Y-114340000D02*
X48850000Y-114340000D01*
%TO.C,R20*%
X69963641Y-103920000D02*
X69656359Y-103920000D01*
X69963641Y-104680000D02*
X69656359Y-104680000D01*
%TO.C,R1*%
X89932500Y-110853641D02*
X89932500Y-110546359D01*
X90692500Y-110853641D02*
X90692500Y-110546359D01*
%TO.C,U7*%
X98637500Y-109940000D02*
X97837500Y-109940000D01*
X98637500Y-109940000D02*
X99437500Y-109940000D01*
X98637500Y-113060000D02*
X97837500Y-113060000D01*
X98637500Y-113060000D02*
X99437500Y-113060000D01*
X99937500Y-109990000D02*
X99697500Y-109660000D01*
X100177500Y-109660000D01*
X99937500Y-109990000D01*
G36*
X99937500Y-109990000D02*
G01*
X99697500Y-109660000D01*
X100177500Y-109660000D01*
X99937500Y-109990000D01*
G37*
%TO.C,R22*%
X39843641Y-114520000D02*
X39536359Y-114520000D01*
X39843641Y-115280000D02*
X39536359Y-115280000D01*
%TO.C,JP6*%
X68400000Y-91700000D02*
X68400000Y-94500000D01*
X68400000Y-94500000D02*
X70400000Y-94500000D01*
X70400000Y-91700000D02*
X68400000Y-91700000D01*
X70400000Y-94500000D02*
X70400000Y-91700000D01*
%TO.C,C2*%
X96990000Y-38159420D02*
X96990000Y-38440580D01*
X98010000Y-38159420D02*
X98010000Y-38440580D01*
%TO.C,C14*%
X76840000Y-96707836D02*
X76840000Y-96492164D01*
X77560000Y-96707836D02*
X77560000Y-96492164D01*
%TO.C,R5*%
X83990000Y-99463641D02*
X83990000Y-99156359D01*
X84750000Y-99463641D02*
X84750000Y-99156359D01*
%TO.C,C24*%
X109859420Y-39990000D02*
X110140580Y-39990000D01*
X109859420Y-41010000D02*
X110140580Y-41010000D01*
%TO.C,C50*%
X106512164Y-47160000D02*
X106727836Y-47160000D01*
X106512164Y-47880000D02*
X106727836Y-47880000D01*
%TO.C,C44*%
X50587836Y-111640000D02*
X50372164Y-111640000D01*
X50587836Y-112360000D02*
X50372164Y-112360000D01*
%TO.C,R13*%
X78420000Y-94443641D02*
X78420000Y-94136359D01*
X79180000Y-94443641D02*
X79180000Y-94136359D01*
%TO.C,D8*%
X77065000Y-90215000D02*
X78535000Y-90215000D01*
X77065000Y-92500000D02*
X77065000Y-90215000D01*
X78535000Y-90215000D02*
X78535000Y-92500000D01*
%TO.C,D1*%
X96352500Y-106490000D02*
X93112500Y-106490000D01*
X96352500Y-106490000D02*
X96352500Y-108110000D01*
X96352500Y-108110000D02*
X93112500Y-108110000D01*
%TO.C,U3*%
X70017500Y-96010000D02*
X70742500Y-96010000D01*
X70017500Y-96735000D02*
X70017500Y-96010000D01*
X70017500Y-101505000D02*
X70017500Y-102230000D01*
X70017500Y-102230000D02*
X70742500Y-102230000D01*
X75512500Y-102230000D02*
X75997500Y-102230000D01*
X76237500Y-96010000D02*
X75512500Y-96010000D01*
X76237500Y-96735000D02*
X76237500Y-96010000D01*
X76237500Y-101505000D02*
X76237500Y-101930000D01*
X76567500Y-102470000D02*
X76237500Y-102230000D01*
X76567500Y-101990000D01*
X76567500Y-102470000D01*
G36*
X76567500Y-102470000D02*
G01*
X76237500Y-102230000D01*
X76567500Y-101990000D01*
X76567500Y-102470000D01*
G37*
%TO.C,R14*%
X95820000Y-37646359D02*
X95820000Y-37953641D01*
X96580000Y-37646359D02*
X96580000Y-37953641D01*
%TO.C,JP4*%
X61050000Y-100300000D02*
X61050000Y-102300000D01*
X61050000Y-102300000D02*
X63850000Y-102300000D01*
X63850000Y-100300000D02*
X61050000Y-100300000D01*
X63850000Y-102300000D02*
X63850000Y-100300000D01*
%TO.C,J3*%
X65295000Y-111800000D02*
X65295000Y-112435000D01*
X65295000Y-112435000D02*
X65930000Y-112435000D01*
%TO.C,C18*%
X106040580Y-39890000D02*
X105759420Y-39890000D01*
X106040580Y-40910000D02*
X105759420Y-40910000D01*
%TO.C,J5*%
X37240000Y-91720000D02*
X30150000Y-91720000D01*
X37240000Y-104880000D02*
X30150000Y-104880000D01*
X42310000Y-91720000D02*
X40660000Y-91720000D01*
X42310000Y-93890000D02*
X42310000Y-91720000D01*
X42310000Y-102710000D02*
X42310000Y-104880000D01*
X42310000Y-102710000D02*
X44150000Y-102710000D01*
X42310000Y-104880000D02*
X40660000Y-104880000D01*
%TO.C,R8*%
X77836359Y-100820000D02*
X78143641Y-100820000D01*
X77836359Y-101580000D02*
X78143641Y-101580000D01*
%TO.C,R18*%
X88932500Y-110546359D02*
X88932500Y-110853641D01*
X89692500Y-110546359D02*
X89692500Y-110853641D01*
%TO.C,L3*%
X43700000Y-113000000D02*
X47700000Y-113000000D01*
X47700000Y-108780000D02*
X43700000Y-108780000D01*
%TO.C,C20*%
X106040580Y-38390000D02*
X105759420Y-38390000D01*
X106040580Y-39410000D02*
X105759420Y-39410000D01*
%TO.C,C22*%
X110059420Y-29690000D02*
X110340580Y-29690000D01*
X110059420Y-30710000D02*
X110340580Y-30710000D01*
%TO.C,C5*%
X91152500Y-111040580D02*
X91152500Y-110759420D01*
X92172500Y-111040580D02*
X92172500Y-110759420D01*
%TO.C,C4*%
X94871920Y-111390000D02*
X95153080Y-111390000D01*
X94871920Y-112410000D02*
X95153080Y-112410000D01*
%TO.C,R43*%
X38346359Y-175120000D02*
X38653641Y-175120000D01*
X38346359Y-175880000D02*
X38653641Y-175880000D01*
%TO.C,D4*%
X96365000Y-32515000D02*
X97835000Y-32515000D01*
X96365000Y-34800000D02*
X96365000Y-32515000D01*
X97835000Y-32515000D02*
X97835000Y-34800000D01*
%TO.C,J12*%
X48650000Y-43600000D02*
X50390000Y-43600000D01*
X48650000Y-56900000D02*
X48650000Y-43600000D01*
X50390000Y-56900000D02*
X48650000Y-56900000D01*
X54450000Y-43600000D02*
X53110000Y-43600000D01*
X54450000Y-45090000D02*
X54450000Y-43600000D01*
X54450000Y-55410000D02*
X54450000Y-56900000D01*
X54450000Y-55410000D02*
X55650000Y-55410000D01*
X54450000Y-56900000D02*
X53110000Y-56900000D01*
%TO.C,C33*%
X101872164Y-107240000D02*
X102087836Y-107240000D01*
X101872164Y-107960000D02*
X102087836Y-107960000D01*
%TO.C,R50*%
X60620000Y-177853641D02*
X60620000Y-177546359D01*
X61380000Y-177853641D02*
X61380000Y-177546359D01*
%TO.C,J11*%
X66205000Y-53865000D02*
X66205000Y-55585000D01*
X66205000Y-55585000D02*
X66655000Y-55585000D01*
X66655000Y-55585000D02*
X66655000Y-59235000D01*
X66655000Y-59235000D02*
X68805000Y-59235000D01*
X80125000Y-59235000D02*
X83275000Y-59235000D01*
X83275000Y-55585000D02*
X83725000Y-55585000D01*
X83275000Y-59235000D02*
X83275000Y-55585000D01*
X83725000Y-53865000D02*
X66205000Y-53865000D01*
X83725000Y-55585000D02*
X83725000Y-53865000D01*
X69745000Y-59125000D02*
X69415000Y-59365000D01*
X69415000Y-58885000D01*
X69745000Y-59125000D01*
G36*
X69745000Y-59125000D02*
G01*
X69415000Y-59365000D01*
X69415000Y-58885000D01*
X69745000Y-59125000D01*
G37*
%TO.C,R3*%
X71920000Y-91546359D02*
X71920000Y-91853641D01*
X72680000Y-91546359D02*
X72680000Y-91853641D01*
%TO.C,R6*%
X75920000Y-88946359D02*
X75920000Y-89253641D01*
X76680000Y-88946359D02*
X76680000Y-89253641D01*
%TO.C,U5*%
X47000000Y-96640000D02*
X46200000Y-96640000D01*
X47000000Y-96640000D02*
X47800000Y-96640000D01*
X47000000Y-99760000D02*
X46200000Y-99760000D01*
X47000000Y-99760000D02*
X47800000Y-99760000D01*
X48300000Y-96690000D02*
X48060000Y-96360000D01*
X48540000Y-96360000D01*
X48300000Y-96690000D01*
G36*
X48300000Y-96690000D02*
G01*
X48060000Y-96360000D01*
X48540000Y-96360000D01*
X48300000Y-96690000D01*
G37*
%TO.C,R25*%
X92143641Y-61020000D02*
X91836359Y-61020000D01*
X92143641Y-61780000D02*
X91836359Y-61780000D01*
%TO.C,U12*%
X108137500Y-48240000D02*
X107337500Y-48240000D01*
X108137500Y-48240000D02*
X108937500Y-48240000D01*
X108137500Y-51360000D02*
X107337500Y-51360000D01*
X108137500Y-51360000D02*
X108937500Y-51360000D01*
X109437500Y-48290000D02*
X109197500Y-47960000D01*
X109677500Y-47960000D01*
X109437500Y-48290000D01*
G36*
X109437500Y-48290000D02*
G01*
X109197500Y-47960000D01*
X109677500Y-47960000D01*
X109437500Y-48290000D01*
G37*
%TD*%
M02*
