%TF.GenerationSoftware,KiCad,Pcbnew,9.0.2*%
%TF.CreationDate,2025-07-24T16:43:20+02:00*%
%TF.ProjectId,VGA_PS2,5647415f-5053-4322-9e6b-696361645f70,rev?*%
%TF.SameCoordinates,Original*%
%TF.FileFunction,Copper,L2,Bot*%
%TF.FilePolarity,Positive*%
%FSLAX46Y46*%
G04 Gerber Fmt 4.6, Leading zero omitted, Abs format (unit mm)*
G04 Created by KiCad (PCBNEW 9.0.2) date 2025-07-24 16:43:20*
%MOMM*%
%LPD*%
G01*
G04 APERTURE LIST*
%ADD10C,0.200000*%
%TA.AperFunction,NonConductor*%
%ADD11C,0.200000*%
%TD*%
%TA.AperFunction,ComponentPad*%
%ADD12R,1.695000X1.695000*%
%TD*%
%TA.AperFunction,ComponentPad*%
%ADD13C,1.695000*%
%TD*%
%TA.AperFunction,ComponentPad*%
%ADD14C,4.246000*%
%TD*%
%TA.AperFunction,ComponentPad*%
%ADD15R,1.509000X1.509000*%
%TD*%
%TA.AperFunction,ComponentPad*%
%ADD16C,1.509000*%
%TD*%
%TA.AperFunction,ComponentPad*%
%ADD17C,3.555000*%
%TD*%
%TA.AperFunction,ComponentPad*%
%ADD18R,1.700000X1.700000*%
%TD*%
%TA.AperFunction,ComponentPad*%
%ADD19C,1.700000*%
%TD*%
%TA.AperFunction,ViaPad*%
%ADD20C,0.600000*%
%TD*%
%TA.AperFunction,Conductor*%
%ADD21C,0.500000*%
%TD*%
G04 APERTURE END LIST*
D10*
D11*
X43102780Y-138854612D02*
X42388495Y-138854612D01*
X42388495Y-138854612D02*
X42245638Y-138902231D01*
X42245638Y-138902231D02*
X42150400Y-138997469D01*
X42150400Y-138997469D02*
X42102780Y-139140326D01*
X42102780Y-139140326D02*
X42102780Y-139235564D01*
X42102780Y-137902231D02*
X42102780Y-138378421D01*
X42102780Y-138378421D02*
X43102780Y-138378421D01*
X42198019Y-136997469D02*
X42150400Y-137045088D01*
X42150400Y-137045088D02*
X42102780Y-137187945D01*
X42102780Y-137187945D02*
X42102780Y-137283183D01*
X42102780Y-137283183D02*
X42150400Y-137426040D01*
X42150400Y-137426040D02*
X42245638Y-137521278D01*
X42245638Y-137521278D02*
X42340876Y-137568897D01*
X42340876Y-137568897D02*
X42531352Y-137616516D01*
X42531352Y-137616516D02*
X42674209Y-137616516D01*
X42674209Y-137616516D02*
X42864685Y-137568897D01*
X42864685Y-137568897D02*
X42959923Y-137521278D01*
X42959923Y-137521278D02*
X43055161Y-137426040D01*
X43055161Y-137426040D02*
X43102780Y-137283183D01*
X43102780Y-137283183D02*
X43102780Y-137187945D01*
X43102780Y-137187945D02*
X43055161Y-137045088D01*
X43055161Y-137045088D02*
X43007542Y-136997469D01*
X43102780Y-136283183D02*
X42388495Y-136283183D01*
X42388495Y-136283183D02*
X42245638Y-136330802D01*
X42245638Y-136330802D02*
X42150400Y-136426040D01*
X42150400Y-136426040D02*
X42102780Y-136568897D01*
X42102780Y-136568897D02*
X42102780Y-136664135D01*
X42102780Y-135330802D02*
X42102780Y-135806992D01*
X42102780Y-135806992D02*
X43102780Y-135806992D01*
X42198019Y-134426040D02*
X42150400Y-134473659D01*
X42150400Y-134473659D02*
X42102780Y-134616516D01*
X42102780Y-134616516D02*
X42102780Y-134711754D01*
X42102780Y-134711754D02*
X42150400Y-134854611D01*
X42150400Y-134854611D02*
X42245638Y-134949849D01*
X42245638Y-134949849D02*
X42340876Y-134997468D01*
X42340876Y-134997468D02*
X42531352Y-135045087D01*
X42531352Y-135045087D02*
X42674209Y-135045087D01*
X42674209Y-135045087D02*
X42864685Y-134997468D01*
X42864685Y-134997468D02*
X42959923Y-134949849D01*
X42959923Y-134949849D02*
X43055161Y-134854611D01*
X43055161Y-134854611D02*
X43102780Y-134711754D01*
X43102780Y-134711754D02*
X43102780Y-134616516D01*
X43102780Y-134616516D02*
X43055161Y-134473659D01*
X43055161Y-134473659D02*
X43007542Y-134426040D01*
X43102780Y-133711754D02*
X42388495Y-133711754D01*
X42388495Y-133711754D02*
X42245638Y-133759373D01*
X42245638Y-133759373D02*
X42150400Y-133854611D01*
X42150400Y-133854611D02*
X42102780Y-133997468D01*
X42102780Y-133997468D02*
X42102780Y-134092706D01*
X42102780Y-132759373D02*
X42102780Y-133235563D01*
X42102780Y-133235563D02*
X43102780Y-133235563D01*
X42198019Y-131854611D02*
X42150400Y-131902230D01*
X42150400Y-131902230D02*
X42102780Y-132045087D01*
X42102780Y-132045087D02*
X42102780Y-132140325D01*
X42102780Y-132140325D02*
X42150400Y-132283182D01*
X42150400Y-132283182D02*
X42245638Y-132378420D01*
X42245638Y-132378420D02*
X42340876Y-132426039D01*
X42340876Y-132426039D02*
X42531352Y-132473658D01*
X42531352Y-132473658D02*
X42674209Y-132473658D01*
X42674209Y-132473658D02*
X42864685Y-132426039D01*
X42864685Y-132426039D02*
X42959923Y-132378420D01*
X42959923Y-132378420D02*
X43055161Y-132283182D01*
X43055161Y-132283182D02*
X43102780Y-132140325D01*
X43102780Y-132140325D02*
X43102780Y-132045087D01*
X43102780Y-132045087D02*
X43055161Y-131902230D01*
X43055161Y-131902230D02*
X43007542Y-131854611D01*
X43102780Y-131140325D02*
X42388495Y-131140325D01*
X42388495Y-131140325D02*
X42245638Y-131187944D01*
X42245638Y-131187944D02*
X42150400Y-131283182D01*
X42150400Y-131283182D02*
X42102780Y-131426039D01*
X42102780Y-131426039D02*
X42102780Y-131521277D01*
X42102780Y-130187944D02*
X42102780Y-130664134D01*
X42102780Y-130664134D02*
X43102780Y-130664134D01*
X42198019Y-129283182D02*
X42150400Y-129330801D01*
X42150400Y-129330801D02*
X42102780Y-129473658D01*
X42102780Y-129473658D02*
X42102780Y-129568896D01*
X42102780Y-129568896D02*
X42150400Y-129711753D01*
X42150400Y-129711753D02*
X42245638Y-129806991D01*
X42245638Y-129806991D02*
X42340876Y-129854610D01*
X42340876Y-129854610D02*
X42531352Y-129902229D01*
X42531352Y-129902229D02*
X42674209Y-129902229D01*
X42674209Y-129902229D02*
X42864685Y-129854610D01*
X42864685Y-129854610D02*
X42959923Y-129806991D01*
X42959923Y-129806991D02*
X43055161Y-129711753D01*
X43055161Y-129711753D02*
X43102780Y-129568896D01*
X43102780Y-129568896D02*
X43102780Y-129473658D01*
X43102780Y-129473658D02*
X43055161Y-129330801D01*
X43055161Y-129330801D02*
X43007542Y-129283182D01*
D12*
%TO.P,J1,1,1*%
%TO.N,Net-(J1-Pad1)*%
X57440000Y-140880000D03*
D13*
%TO.P,J1,2,2*%
%TO.N,Net-(J1-Pad2)*%
X59730000Y-140880000D03*
%TO.P,J1,3,3*%
%TO.N,Net-(J1-Pad3)*%
X62020000Y-140880000D03*
%TO.P,J1,4,4*%
%TO.N,unconnected-(J1-Pad4)*%
X64310000Y-140880000D03*
%TO.P,J1,5,5*%
%TO.N,Net-(J1-Pad5)*%
X66600000Y-140880000D03*
%TO.P,J1,6,6*%
%TO.N,Net-(J1-Pad6)*%
X56295000Y-138340000D03*
%TO.P,J1,7,7*%
%TO.N,Net-(J1-Pad7)*%
X58585000Y-138340000D03*
%TO.P,J1,8,8*%
%TO.N,GND*%
X60875000Y-138340000D03*
%TO.P,J1,9,9*%
X63165000Y-138340000D03*
%TO.P,J1,10,10*%
X65455000Y-138340000D03*
%TO.P,J1,11,11*%
X57440000Y-135800000D03*
%TO.P,J1,12,12*%
X59730000Y-135800000D03*
%TO.P,J1,13,13*%
X62020000Y-135800000D03*
%TO.P,J1,14,14*%
X64310000Y-135800000D03*
%TO.P,J1,15,15*%
X66600000Y-135800000D03*
D14*
%TO.P,J1,SH1,SHIELD*%
X74265000Y-138340000D03*
%TO.P,J1,SH2,SHIELD*%
X49275000Y-138340000D03*
%TD*%
D15*
%TO.P,J2,1,1*%
%TO.N,Net-(J2-Pad1)*%
X114920000Y-135470000D03*
D16*
%TO.P,J2,2,2*%
%TO.N,unconnected-(J2-Pad2)*%
X117520000Y-135470000D03*
%TO.P,J2,3,3*%
%TO.N,GND*%
X112870000Y-135470000D03*
%TO.P,J2,4,4*%
%TO.N,+5V*%
X119570000Y-135470000D03*
%TO.P,J2,5,5*%
%TO.N,Net-(J2-Pad5)*%
X112870000Y-137960000D03*
%TO.P,J2,6,6*%
%TO.N,unconnected-(J2-Pad6)*%
X119570000Y-137960000D03*
D17*
%TO.P,J2,MH1,MH1*%
%TO.N,GND*%
X116220000Y-131660000D03*
%TO.P,J2,MH2,MH2*%
X122980000Y-132470000D03*
%TO.P,J2,MH3,MH3*%
X109460000Y-132470000D03*
%TD*%
D15*
%TO.P,J3,1,1*%
%TO.N,Net-(J3-Pad1)*%
X93040000Y-135470000D03*
D16*
%TO.P,J3,2,2*%
%TO.N,unconnected-(J3-Pad2)*%
X95640000Y-135470000D03*
%TO.P,J3,3,3*%
%TO.N,GND*%
X90990000Y-135470000D03*
%TO.P,J3,4,4*%
%TO.N,+5V*%
X97690000Y-135470000D03*
%TO.P,J3,5,5*%
%TO.N,Net-(J3-Pad5)*%
X90990000Y-137960000D03*
%TO.P,J3,6,6*%
%TO.N,unconnected-(J3-Pad6)*%
X97690000Y-137960000D03*
D17*
%TO.P,J3,MH1,MH1*%
%TO.N,GND*%
X94340000Y-131660000D03*
%TO.P,J3,MH2,MH2*%
X101100000Y-132470000D03*
%TO.P,J3,MH3,MH3*%
X87580000Y-132470000D03*
%TD*%
D18*
%TO.P,J4,1,Pin_1*%
%TO.N,+3.3V*%
X110330000Y-151000000D03*
D19*
%TO.P,J4,2,Pin_2*%
%TO.N,unconnected-(J4-Pin_2-Pad2)*%
X107790000Y-151000000D03*
%TO.P,J4,3,Pin_3*%
%TO.N,GND*%
X105250000Y-151000000D03*
%TO.P,J4,4,Pin_4*%
%TO.N,unconnected-(J4-Pin_4-Pad4)*%
X102710000Y-151000000D03*
%TO.P,J4,5,Pin_5*%
%TO.N,unconnected-(J4-Pin_5-Pad5)*%
X100170000Y-151000000D03*
%TO.P,J4,6,Pin_6*%
%TO.N,unconnected-(J4-Pin_6-Pad6)*%
X97630000Y-151000000D03*
%TO.P,J4,7,Pin_7*%
%TO.N,I2C2.SDA*%
X95090000Y-151000000D03*
%TO.P,J4,8,Pin_8*%
%TO.N,I2C2.SCL*%
X92550000Y-151000000D03*
%TO.P,J4,9,Pin_9*%
%TO.N,unconnected-(J4-Pin_9-Pad9)*%
X90010000Y-151000000D03*
%TO.P,J4,10,Pin_10*%
%TO.N,GND*%
X87470000Y-151000000D03*
%TD*%
D18*
%TO.P,J5,1,Pin_1*%
%TO.N,+5V*%
X77310000Y-151000000D03*
D19*
%TO.P,J5,2,Pin_2*%
%TO.N,unconnected-(J5-Pin_2-Pad2)*%
X74770000Y-151000000D03*
%TO.P,J5,3,Pin_3*%
%TO.N,HSYNC*%
X72230000Y-151000000D03*
%TO.P,J5,4,Pin_4*%
%TO.N,BLUE*%
X69690000Y-151000000D03*
%TO.P,J5,5,Pin_5*%
%TO.N,GREEN*%
X67150000Y-151000000D03*
%TO.P,J5,6,Pin_6*%
%TO.N,RED*%
X64610000Y-151000000D03*
%TO.P,J5,7,Pin_7*%
%TO.N,VSYNC*%
X62070000Y-151000000D03*
%TO.P,J5,8,Pin_8*%
%TO.N,GND*%
X59530000Y-151000000D03*
%TD*%
D20*
%TO.N,GND*%
X88500000Y-154710000D03*
X40500000Y-129710000D03*
X76500000Y-154710000D03*
X129500000Y-145387770D03*
X112499991Y-127390000D03*
X80500000Y-154710000D03*
X42500000Y-154710000D03*
X62499991Y-127390000D03*
X96500000Y-154710000D03*
X104499991Y-127390000D03*
X120499991Y-127390000D03*
X129500000Y-135387770D03*
X82500000Y-154710000D03*
X74499991Y-127390000D03*
X54499991Y-127390000D03*
X46499991Y-127390000D03*
X66499991Y-127390000D03*
X48499991Y-127390000D03*
X68499991Y-127390000D03*
X92500000Y-154710000D03*
X82499991Y-127390000D03*
X62500000Y-154710000D03*
X40500000Y-153710000D03*
X40500000Y-131710000D03*
X124500000Y-154710000D03*
X60499991Y-127390000D03*
X129500000Y-151387770D03*
X118499991Y-127390000D03*
X50500000Y-154710000D03*
X58500000Y-154710000D03*
X78500000Y-154710000D03*
X122560000Y-147830000D03*
X52500000Y-154710000D03*
X104500000Y-154710000D03*
X129500000Y-139387770D03*
X102500000Y-154710000D03*
X129500000Y-129387770D03*
X86500000Y-154710000D03*
X110499991Y-127390000D03*
X64499991Y-127390000D03*
X118500000Y-154710000D03*
X90499991Y-127390000D03*
X44500000Y-154710000D03*
X48500000Y-154710000D03*
X50499991Y-127390000D03*
X129500000Y-133387770D03*
X129500000Y-143387770D03*
X94500000Y-154710000D03*
X84500000Y-154710000D03*
X68500000Y-154710000D03*
X52499991Y-127390000D03*
X70500000Y-154710000D03*
X40500000Y-147710000D03*
X114500000Y-154710000D03*
X40500000Y-143710000D03*
X116499991Y-127390000D03*
X129500000Y-141387770D03*
X114650000Y-149400000D03*
X94499991Y-127390000D03*
X42499991Y-127390000D03*
X70499991Y-127390000D03*
X126499991Y-127390000D03*
X108499991Y-127390000D03*
X40500000Y-149710000D03*
X40500000Y-141710000D03*
X122500000Y-154710000D03*
X44499991Y-127390000D03*
X78499991Y-127390000D03*
X56500000Y-154710000D03*
X56499991Y-127390000D03*
X100499991Y-127390000D03*
X129500000Y-155387770D03*
X58499991Y-127390000D03*
X40500000Y-133710000D03*
X76499991Y-127390000D03*
X64500000Y-154710000D03*
X86499991Y-127390000D03*
X84499991Y-127390000D03*
X40500000Y-137710000D03*
X40500000Y-139710000D03*
X90500000Y-154710000D03*
X129500000Y-137387770D03*
X54500000Y-154710000D03*
X40500000Y-151710000D03*
X40500000Y-135710000D03*
X96499991Y-127390000D03*
X106499991Y-127390000D03*
X92499991Y-127390000D03*
X114499991Y-127390000D03*
X74500000Y-154710000D03*
X102499991Y-127390000D03*
X66500000Y-154710000D03*
X60500000Y-154710000D03*
X129500000Y-149387770D03*
X80499991Y-127390000D03*
X72500000Y-154710000D03*
X129500000Y-147387770D03*
X72499991Y-127390000D03*
X40500000Y-145710000D03*
X100500000Y-154710000D03*
X120500000Y-154710000D03*
X46500000Y-154710000D03*
X98499991Y-127390000D03*
X126500000Y-154710000D03*
X129500000Y-131387770D03*
X108500000Y-154710000D03*
X116500000Y-154710000D03*
X124499991Y-127390000D03*
X88499991Y-127390000D03*
X129500000Y-153387770D03*
X110500000Y-154710000D03*
X122499991Y-127390000D03*
X106500000Y-154710000D03*
X98500000Y-154710000D03*
X112500000Y-154710000D03*
%TO.N,+5V*%
X126550000Y-153540000D03*
X126540000Y-147890000D03*
X119740000Y-144560000D03*
X115700000Y-144550000D03*
%TD*%
D21*
%TO.N,+5V*%
X126550000Y-153540000D02*
X126550000Y-147900000D01*
X119740000Y-144560000D02*
X115710000Y-144560000D01*
X126550000Y-147900000D02*
X126540000Y-147890000D01*
X115710000Y-144560000D02*
X115700000Y-144550000D01*
X126540000Y-147890000D02*
X123210000Y-144560000D01*
X123210000Y-144560000D02*
X119740000Y-144560000D01*
%TD*%
%TA.AperFunction,Conductor*%
%TO.N,GND*%
G36*
X60348504Y-138558082D02*
G01*
X60422888Y-138686918D01*
X60528082Y-138792112D01*
X60656918Y-138866496D01*
X60692517Y-138876034D01*
X60103170Y-139465380D01*
X60098145Y-139489305D01*
X60049093Y-139539061D01*
X59980928Y-139554400D01*
X59969493Y-139553129D01*
X59868216Y-139537088D01*
X59836090Y-139532000D01*
X59623910Y-139532000D01*
X59615210Y-139533377D01*
X59587352Y-139529776D01*
X59559264Y-139529394D01*
X59553168Y-139525358D01*
X59545919Y-139524421D01*
X59524430Y-139506330D01*
X59501006Y-139490822D01*
X59498060Y-139484131D01*
X59492468Y-139479424D01*
X59484171Y-139452588D01*
X59472850Y-139426877D01*
X59473988Y-139419655D01*
X59471830Y-139412672D01*
X59479358Y-139385610D01*
X59483735Y-139357860D01*
X59489260Y-139350016D01*
X59490556Y-139345359D01*
X59503220Y-139328432D01*
X59505598Y-139325761D01*
X59613197Y-139218163D01*
X59665282Y-139146472D01*
X59669378Y-139141875D01*
X59694001Y-139126520D01*
X59716985Y-139108797D01*
X59724107Y-139107746D01*
X59728665Y-139104905D01*
X59742136Y-139105088D01*
X59758817Y-139102629D01*
X60338964Y-138522481D01*
X60348504Y-138558082D01*
G37*
%TD.AperFunction*%
%TA.AperFunction,Conductor*%
G36*
X62638504Y-138558082D02*
G01*
X62712888Y-138686918D01*
X62818082Y-138792112D01*
X62946918Y-138866496D01*
X62982517Y-138876034D01*
X62393170Y-139465380D01*
X62388145Y-139489305D01*
X62339093Y-139539061D01*
X62270928Y-139554400D01*
X62259493Y-139553129D01*
X62158216Y-139537088D01*
X62126090Y-139532000D01*
X61913910Y-139532000D01*
X61905210Y-139533378D01*
X61780505Y-139553129D01*
X61711211Y-139544174D01*
X61657759Y-139499178D01*
X61647524Y-139466077D01*
X61057482Y-138876035D01*
X61093082Y-138866496D01*
X61221918Y-138792112D01*
X61327112Y-138686918D01*
X61401496Y-138558082D01*
X61411034Y-138522482D01*
X61988479Y-139099927D01*
X62010269Y-139098213D01*
X62029727Y-139098213D01*
X62051518Y-139099928D01*
X62628964Y-138522481D01*
X62638504Y-138558082D01*
G37*
%TD.AperFunction*%
%TA.AperFunction,Conductor*%
G36*
X64928504Y-138558082D02*
G01*
X65002888Y-138686918D01*
X65108082Y-138792112D01*
X65236918Y-138866496D01*
X65272517Y-138876034D01*
X64683170Y-139465380D01*
X64678145Y-139489305D01*
X64629093Y-139539061D01*
X64560928Y-139554400D01*
X64549493Y-139553129D01*
X64448216Y-139537088D01*
X64416090Y-139532000D01*
X64203910Y-139532000D01*
X64195210Y-139533378D01*
X64070505Y-139553129D01*
X64001211Y-139544174D01*
X63947759Y-139499178D01*
X63937524Y-139466077D01*
X63347482Y-138876035D01*
X63383082Y-138866496D01*
X63511918Y-138792112D01*
X63617112Y-138686918D01*
X63691496Y-138558082D01*
X63701034Y-138522482D01*
X64278479Y-139099927D01*
X64300269Y-139098213D01*
X64319727Y-139098213D01*
X64341518Y-139099928D01*
X64918964Y-138522481D01*
X64928504Y-138558082D01*
G37*
%TD.AperFunction*%
%TA.AperFunction,Conductor*%
G36*
X60038826Y-137135312D02*
G01*
X60092278Y-137180309D01*
X60102759Y-137214207D01*
X60692517Y-137803965D01*
X60656918Y-137813504D01*
X60528082Y-137887888D01*
X60422888Y-137993082D01*
X60348504Y-138121918D01*
X60338965Y-138157517D01*
X59757795Y-137576347D01*
X59703326Y-137564904D01*
X59661657Y-137528537D01*
X59613197Y-137461837D01*
X59507535Y-137356175D01*
X59474050Y-137294852D01*
X59479034Y-137225160D01*
X59520906Y-137169227D01*
X59586370Y-137144810D01*
X59614617Y-137146021D01*
X59623954Y-137147500D01*
X59836050Y-137147500D01*
X59969533Y-137126358D01*
X60038826Y-137135312D01*
G37*
%TD.AperFunction*%
%TA.AperFunction,Conductor*%
G36*
X61780465Y-137126358D02*
G01*
X61913950Y-137147500D01*
X62126050Y-137147500D01*
X62259533Y-137126358D01*
X62328826Y-137135312D01*
X62382278Y-137180309D01*
X62392759Y-137214207D01*
X62982517Y-137803965D01*
X62946918Y-137813504D01*
X62818082Y-137887888D01*
X62712888Y-137993082D01*
X62638504Y-138121918D01*
X62628965Y-138157517D01*
X62051518Y-137580070D01*
X62029724Y-137581786D01*
X62010268Y-137581786D01*
X61988480Y-137580071D01*
X61411034Y-138157516D01*
X61401496Y-138121918D01*
X61327112Y-137993082D01*
X61221918Y-137887888D01*
X61093082Y-137813504D01*
X61057480Y-137803964D01*
X61646640Y-137214806D01*
X61651812Y-137190185D01*
X61700862Y-137140427D01*
X61769027Y-137125087D01*
X61780465Y-137126358D01*
G37*
%TD.AperFunction*%
%TA.AperFunction,Conductor*%
G36*
X64070465Y-137126358D02*
G01*
X64203950Y-137147500D01*
X64416050Y-137147500D01*
X64549533Y-137126358D01*
X64618826Y-137135312D01*
X64672278Y-137180309D01*
X64682759Y-137214207D01*
X65272517Y-137803965D01*
X65236918Y-137813504D01*
X65108082Y-137887888D01*
X65002888Y-137993082D01*
X64928504Y-138121918D01*
X64918965Y-138157517D01*
X64341518Y-137580070D01*
X64319724Y-137581786D01*
X64300268Y-137581786D01*
X64278480Y-137580071D01*
X63701034Y-138157516D01*
X63691496Y-138121918D01*
X63617112Y-137993082D01*
X63511918Y-137887888D01*
X63383082Y-137813504D01*
X63347480Y-137803964D01*
X63936640Y-137214806D01*
X63941812Y-137190185D01*
X63990862Y-137140427D01*
X64059027Y-137125087D01*
X64070465Y-137126358D01*
G37*
%TD.AperFunction*%
%TA.AperFunction,Conductor*%
G36*
X61493504Y-136018082D02*
G01*
X61567888Y-136146918D01*
X61673082Y-136252112D01*
X61801918Y-136326496D01*
X61837517Y-136336034D01*
X61248356Y-136925194D01*
X61243184Y-136949817D01*
X61194132Y-136999573D01*
X61125967Y-137014911D01*
X61114534Y-137013640D01*
X60981058Y-136992500D01*
X60768944Y-136992500D01*
X60635464Y-137013641D01*
X60566170Y-137004686D01*
X60512718Y-136959690D01*
X60502236Y-136925789D01*
X59912482Y-136336035D01*
X59948082Y-136326496D01*
X60076918Y-136252112D01*
X60182112Y-136146918D01*
X60256496Y-136018082D01*
X60266034Y-135982482D01*
X60843479Y-136559927D01*
X60865269Y-136558213D01*
X60884727Y-136558213D01*
X60906518Y-136559928D01*
X61483964Y-135982481D01*
X61493504Y-136018082D01*
G37*
%TD.AperFunction*%
%TA.AperFunction,Conductor*%
G36*
X63783504Y-136018082D02*
G01*
X63857888Y-136146918D01*
X63963082Y-136252112D01*
X64091918Y-136326496D01*
X64127517Y-136336034D01*
X63538356Y-136925194D01*
X63533184Y-136949817D01*
X63484132Y-136999573D01*
X63415967Y-137014911D01*
X63404534Y-137013640D01*
X63271058Y-136992500D01*
X63058944Y-136992500D01*
X62925464Y-137013641D01*
X62856170Y-137004686D01*
X62802718Y-136959690D01*
X62792236Y-136925789D01*
X62202482Y-136336035D01*
X62238082Y-136326496D01*
X62366918Y-136252112D01*
X62472112Y-136146918D01*
X62546496Y-136018082D01*
X62556034Y-135982482D01*
X63133479Y-136559927D01*
X63155269Y-136558213D01*
X63174727Y-136558213D01*
X63196518Y-136559928D01*
X63773964Y-135982481D01*
X63783504Y-136018082D01*
G37*
%TD.AperFunction*%
%TA.AperFunction,Conductor*%
G36*
X66073504Y-136018082D02*
G01*
X66147888Y-136146918D01*
X66253082Y-136252112D01*
X66381918Y-136326496D01*
X66417517Y-136336034D01*
X65828356Y-136925194D01*
X65823184Y-136949817D01*
X65774132Y-136999573D01*
X65705967Y-137014911D01*
X65694534Y-137013640D01*
X65561058Y-136992500D01*
X65348944Y-136992500D01*
X65215464Y-137013641D01*
X65146170Y-137004686D01*
X65092718Y-136959690D01*
X65082236Y-136925789D01*
X64492482Y-136336035D01*
X64528082Y-136326496D01*
X64656918Y-136252112D01*
X64762112Y-136146918D01*
X64836496Y-136018082D01*
X64846034Y-135982482D01*
X65423479Y-136559927D01*
X65445269Y-136558213D01*
X65464727Y-136558213D01*
X65486518Y-136559928D01*
X66063964Y-135982481D01*
X66073504Y-136018082D01*
G37*
%TD.AperFunction*%
%TA.AperFunction,Conductor*%
G36*
X59203504Y-136018082D02*
G01*
X59277888Y-136146918D01*
X59383082Y-136252112D01*
X59511918Y-136326496D01*
X59547517Y-136336034D01*
X58958170Y-136925380D01*
X58953145Y-136949305D01*
X58904093Y-136999061D01*
X58835928Y-137014400D01*
X58824493Y-137013129D01*
X58723216Y-136997088D01*
X58691090Y-136992000D01*
X58478910Y-136992000D01*
X58457227Y-136995434D01*
X58345505Y-137013129D01*
X58276211Y-137004174D01*
X58222759Y-136959178D01*
X58212524Y-136926077D01*
X57622482Y-136336035D01*
X57658082Y-136326496D01*
X57786918Y-136252112D01*
X57892112Y-136146918D01*
X57966496Y-136018082D01*
X57976034Y-135982482D01*
X58553479Y-136559927D01*
X58575269Y-136558213D01*
X58594727Y-136558213D01*
X58616518Y-136559928D01*
X59193964Y-135982481D01*
X59203504Y-136018082D01*
G37*
%TD.AperFunction*%
%TA.AperFunction,Conductor*%
G36*
X127506283Y-127390765D02*
G01*
X127754809Y-127407058D01*
X127770889Y-127409175D01*
X127846810Y-127424277D01*
X128011190Y-127456976D01*
X128026845Y-127461171D01*
X128258846Y-127539926D01*
X128273831Y-127546133D01*
X128493570Y-127654498D01*
X128507614Y-127662606D01*
X128711329Y-127798725D01*
X128724193Y-127808596D01*
X128908393Y-127970137D01*
X128919862Y-127981606D01*
X129081403Y-128165806D01*
X129091277Y-128178674D01*
X129227391Y-128382382D01*
X129235501Y-128396429D01*
X129343866Y-128616168D01*
X129350073Y-128631153D01*
X129428826Y-128863147D01*
X129433024Y-128878814D01*
X129480824Y-129119110D01*
X129482941Y-129135190D01*
X129499234Y-129383709D01*
X129499500Y-129391821D01*
X129499500Y-155210535D01*
X129479815Y-155277574D01*
X129427011Y-155323329D01*
X129357853Y-155333273D01*
X129302615Y-155310853D01*
X129136433Y-155190115D01*
X129136428Y-155190112D01*
X128864075Y-155032869D01*
X128864068Y-155032866D01*
X128576759Y-154904947D01*
X128576754Y-154904945D01*
X128576751Y-154904944D01*
X128277649Y-154807761D01*
X128277647Y-154807760D01*
X128012415Y-154751384D01*
X127970026Y-154742374D01*
X127657250Y-154709500D01*
X127565892Y-154709500D01*
X42565892Y-154709500D01*
X42500000Y-154709500D01*
X42342750Y-154709500D01*
X42029974Y-154742374D01*
X42029970Y-154742374D01*
X42029968Y-154742375D01*
X41722352Y-154807760D01*
X41722350Y-154807761D01*
X41423248Y-154904944D01*
X41135931Y-155032866D01*
X41135924Y-155032869D01*
X40863571Y-155190112D01*
X40863566Y-155190115D01*
X40697385Y-155310853D01*
X40631579Y-155334333D01*
X40563525Y-155318507D01*
X40514830Y-155268401D01*
X40500500Y-155210535D01*
X40500500Y-150893753D01*
X58180000Y-150893753D01*
X58180000Y-151106246D01*
X58213242Y-151316127D01*
X58213242Y-151316130D01*
X58278904Y-151518217D01*
X58375375Y-151707550D01*
X58414728Y-151761716D01*
X59047037Y-151129408D01*
X59064075Y-151192993D01*
X59129901Y-151307007D01*
X59222993Y-151400099D01*
X59337007Y-151465925D01*
X59400590Y-151482962D01*
X58768282Y-152115269D01*
X58768282Y-152115270D01*
X58822449Y-152154624D01*
X59011782Y-152251095D01*
X59213870Y-152316757D01*
X59423754Y-152350000D01*
X59636246Y-152350000D01*
X59846127Y-152316757D01*
X59846130Y-152316757D01*
X60048217Y-152251095D01*
X60237554Y-152154622D01*
X60291716Y-152115270D01*
X60291717Y-152115270D01*
X59659408Y-151482962D01*
X59722993Y-151465925D01*
X59837007Y-151400099D01*
X59930099Y-151307007D01*
X59995925Y-151192993D01*
X60012962Y-151129408D01*
X60645270Y-151761717D01*
X60645270Y-151761716D01*
X60684622Y-151707555D01*
X60689232Y-151698507D01*
X60737205Y-151647709D01*
X60805025Y-151630912D01*
X60871161Y-151653447D01*
X60910204Y-151698504D01*
X60914949Y-151707817D01*
X61039890Y-151879786D01*
X61190213Y-152030109D01*
X61362179Y-152155048D01*
X61362181Y-152155049D01*
X61362184Y-152155051D01*
X61551588Y-152251557D01*
X61753757Y-152317246D01*
X61963713Y-152350500D01*
X61963714Y-152350500D01*
X62176286Y-152350500D01*
X62176287Y-152350500D01*
X62386243Y-152317246D01*
X62588412Y-152251557D01*
X62777816Y-152155051D01*
X62864138Y-152092335D01*
X62949786Y-152030109D01*
X62949788Y-152030106D01*
X62949792Y-152030104D01*
X63100104Y-151879792D01*
X63100106Y-151879788D01*
X63100109Y-151879786D01*
X63225048Y-151707820D01*
X63225047Y-151707820D01*
X63225051Y-151707816D01*
X63229514Y-151699054D01*
X63277488Y-151648259D01*
X63345308Y-151631463D01*
X63411444Y-151653999D01*
X63450486Y-151699056D01*
X63454951Y-151707820D01*
X63579890Y-151879786D01*
X63730213Y-152030109D01*
X63902179Y-152155048D01*
X63902181Y-152155049D01*
X63902184Y-152155051D01*
X64091588Y-152251557D01*
X64293757Y-152317246D01*
X64503713Y-152350500D01*
X64503714Y-152350500D01*
X64716286Y-152350500D01*
X64716287Y-152350500D01*
X64926243Y-152317246D01*
X65128412Y-152251557D01*
X65317816Y-152155051D01*
X65404138Y-152092335D01*
X65489786Y-152030109D01*
X65489788Y-152030106D01*
X65489792Y-152030104D01*
X65640104Y-151879792D01*
X65640106Y-151879788D01*
X65640109Y-151879786D01*
X65765048Y-151707820D01*
X65765047Y-151707820D01*
X65765051Y-151707816D01*
X65769514Y-151699054D01*
X65817488Y-151648259D01*
X65885308Y-151631463D01*
X65951444Y-151653999D01*
X65990486Y-151699056D01*
X65994951Y-151707820D01*
X66119890Y-151879786D01*
X66270213Y-152030109D01*
X66442179Y-152155048D01*
X66442181Y-152155049D01*
X66442184Y-152155051D01*
X66631588Y-152251557D01*
X66833757Y-152317246D01*
X67043713Y-152350500D01*
X67043714Y-152350500D01*
X67256286Y-152350500D01*
X67256287Y-152350500D01*
X67466243Y-152317246D01*
X67668412Y-152251557D01*
X67857816Y-152155051D01*
X67944138Y-152092335D01*
X68029786Y-152030109D01*
X68029788Y-152030106D01*
X68029792Y-152030104D01*
X68180104Y-151879792D01*
X68180106Y-151879788D01*
X68180109Y-151879786D01*
X68305048Y-151707820D01*
X68305047Y-151707820D01*
X68305051Y-151707816D01*
X68309514Y-151699054D01*
X68357488Y-151648259D01*
X68425308Y-151631463D01*
X68491444Y-151653999D01*
X68530486Y-151699056D01*
X68534951Y-151707820D01*
X68659890Y-151879786D01*
X68810213Y-152030109D01*
X68982179Y-152155048D01*
X68982181Y-152155049D01*
X68982184Y-152155051D01*
X69171588Y-152251557D01*
X69373757Y-152317246D01*
X69583713Y-152350500D01*
X69583714Y-152350500D01*
X69796286Y-152350500D01*
X69796287Y-152350500D01*
X70006243Y-152317246D01*
X70208412Y-152251557D01*
X70397816Y-152155051D01*
X70484138Y-152092335D01*
X70569786Y-152030109D01*
X70569788Y-152030106D01*
X70569792Y-152030104D01*
X70720104Y-151879792D01*
X70720106Y-151879788D01*
X70720109Y-151879786D01*
X70845048Y-151707820D01*
X70845047Y-151707820D01*
X70845051Y-151707816D01*
X70849514Y-151699054D01*
X70897488Y-151648259D01*
X70965308Y-151631463D01*
X71031444Y-151653999D01*
X71070486Y-151699056D01*
X71074951Y-151707820D01*
X71199890Y-151879786D01*
X71350213Y-152030109D01*
X71522179Y-152155048D01*
X71522181Y-152155049D01*
X71522184Y-152155051D01*
X71711588Y-152251557D01*
X71913757Y-152317246D01*
X72123713Y-152350500D01*
X72123714Y-152350500D01*
X72336286Y-152350500D01*
X72336287Y-152350500D01*
X72546243Y-152317246D01*
X72748412Y-152251557D01*
X72937816Y-152155051D01*
X73024138Y-152092335D01*
X73109786Y-152030109D01*
X73109788Y-152030106D01*
X73109792Y-152030104D01*
X73260104Y-151879792D01*
X73260106Y-151879788D01*
X73260109Y-151879786D01*
X73385048Y-151707820D01*
X73385047Y-151707820D01*
X73385051Y-151707816D01*
X73389514Y-151699054D01*
X73437488Y-151648259D01*
X73505308Y-151631463D01*
X73571444Y-151653999D01*
X73610486Y-151699056D01*
X73614951Y-151707820D01*
X73739890Y-151879786D01*
X73890213Y-152030109D01*
X74062179Y-152155048D01*
X74062181Y-152155049D01*
X74062184Y-152155051D01*
X74251588Y-152251557D01*
X74453757Y-152317246D01*
X74663713Y-152350500D01*
X74663714Y-152350500D01*
X74876286Y-152350500D01*
X74876287Y-152350500D01*
X75086243Y-152317246D01*
X75288412Y-152251557D01*
X75477816Y-152155051D01*
X75649792Y-152030104D01*
X75763329Y-151916566D01*
X75824648Y-151883084D01*
X75894340Y-151888068D01*
X75950274Y-151929939D01*
X75967189Y-151960917D01*
X76016202Y-152092328D01*
X76016206Y-152092335D01*
X76102452Y-152207544D01*
X76102455Y-152207547D01*
X76217664Y-152293793D01*
X76217671Y-152293797D01*
X76352517Y-152344091D01*
X76352516Y-152344091D01*
X76359444Y-152344835D01*
X76412127Y-152350500D01*
X78207872Y-152350499D01*
X78267483Y-152344091D01*
X78402331Y-152293796D01*
X78517546Y-152207546D01*
X78603796Y-152092331D01*
X78654091Y-151957483D01*
X78660500Y-151897873D01*
X78660499Y-150893753D01*
X86120000Y-150893753D01*
X86120000Y-151106246D01*
X86153242Y-151316127D01*
X86153242Y-151316130D01*
X86218904Y-151518217D01*
X86315375Y-151707550D01*
X86354728Y-151761716D01*
X86987037Y-151129408D01*
X87004075Y-151192993D01*
X87069901Y-151307007D01*
X87162993Y-151400099D01*
X87277007Y-151465925D01*
X87340590Y-151482962D01*
X86708282Y-152115269D01*
X86708282Y-152115270D01*
X86762449Y-152154624D01*
X86951782Y-152251095D01*
X87153870Y-152316757D01*
X87363754Y-152350000D01*
X87576246Y-152350000D01*
X87786127Y-152316757D01*
X87786130Y-152316757D01*
X87988217Y-152251095D01*
X88177554Y-152154622D01*
X88231716Y-152115270D01*
X88231717Y-152115270D01*
X87599408Y-151482962D01*
X87662993Y-151465925D01*
X87777007Y-151400099D01*
X87870099Y-151307007D01*
X87935925Y-151192993D01*
X87952962Y-151129409D01*
X88585270Y-151761717D01*
X88585270Y-151761716D01*
X88624622Y-151707555D01*
X88629232Y-151698507D01*
X88677205Y-151647709D01*
X88745025Y-151630912D01*
X88811161Y-151653447D01*
X88850204Y-151698504D01*
X88854949Y-151707817D01*
X88979890Y-151879786D01*
X89130213Y-152030109D01*
X89302179Y-152155048D01*
X89302181Y-152155049D01*
X89302184Y-152155051D01*
X89491588Y-152251557D01*
X89693757Y-152317246D01*
X89903713Y-152350500D01*
X89903714Y-152350500D01*
X90116286Y-152350500D01*
X90116287Y-152350500D01*
X90326243Y-152317246D01*
X90528412Y-152251557D01*
X90717816Y-152155051D01*
X90804138Y-152092335D01*
X90889786Y-152030109D01*
X90889788Y-152030106D01*
X90889792Y-152030104D01*
X91040104Y-151879792D01*
X91040106Y-151879788D01*
X91040109Y-151879786D01*
X91165048Y-151707820D01*
X91165047Y-151707820D01*
X91165051Y-151707816D01*
X91169514Y-151699054D01*
X91217488Y-151648259D01*
X91285308Y-151631463D01*
X91351444Y-151653999D01*
X91390486Y-151699056D01*
X91394951Y-151707820D01*
X91519890Y-151879786D01*
X91670213Y-152030109D01*
X91842179Y-152155048D01*
X91842181Y-152155049D01*
X91842184Y-152155051D01*
X92031588Y-152251557D01*
X92233757Y-152317246D01*
X92443713Y-152350500D01*
X92443714Y-152350500D01*
X92656286Y-152350500D01*
X92656287Y-152350500D01*
X92866243Y-152317246D01*
X93068412Y-152251557D01*
X93257816Y-152155051D01*
X93344138Y-152092335D01*
X93429786Y-152030109D01*
X93429788Y-152030106D01*
X93429792Y-152030104D01*
X93580104Y-151879792D01*
X93580106Y-151879788D01*
X93580109Y-151879786D01*
X93705048Y-151707820D01*
X93705047Y-151707820D01*
X93705051Y-151707816D01*
X93709514Y-151699054D01*
X93757488Y-151648259D01*
X93825308Y-151631463D01*
X93891444Y-151653999D01*
X93930486Y-151699056D01*
X93934951Y-151707820D01*
X94059890Y-151879786D01*
X94210213Y-152030109D01*
X94382179Y-152155048D01*
X94382181Y-152155049D01*
X94382184Y-152155051D01*
X94571588Y-152251557D01*
X94773757Y-152317246D01*
X94983713Y-152350500D01*
X94983714Y-152350500D01*
X95196286Y-152350500D01*
X95196287Y-152350500D01*
X95406243Y-152317246D01*
X95608412Y-152251557D01*
X95797816Y-152155051D01*
X95884138Y-152092335D01*
X95969786Y-152030109D01*
X95969788Y-152030106D01*
X95969792Y-152030104D01*
X96120104Y-151879792D01*
X96120106Y-151879788D01*
X96120109Y-151879786D01*
X96245048Y-151707820D01*
X96245047Y-151707820D01*
X96245051Y-151707816D01*
X96249514Y-151699054D01*
X96297488Y-151648259D01*
X96365308Y-151631463D01*
X96431444Y-151653999D01*
X96470486Y-151699056D01*
X96474951Y-151707820D01*
X96599890Y-151879786D01*
X96750213Y-152030109D01*
X96922179Y-152155048D01*
X96922181Y-152155049D01*
X96922184Y-152155051D01*
X97111588Y-152251557D01*
X97313757Y-152317246D01*
X97523713Y-152350500D01*
X97523714Y-152350500D01*
X97736286Y-152350500D01*
X97736287Y-152350500D01*
X97946243Y-152317246D01*
X98148412Y-152251557D01*
X98337816Y-152155051D01*
X98424138Y-152092335D01*
X98509786Y-152030109D01*
X98509788Y-152030106D01*
X98509792Y-152030104D01*
X98660104Y-151879792D01*
X98660106Y-151879788D01*
X98660109Y-151879786D01*
X98785048Y-151707820D01*
X98785047Y-151707820D01*
X98785051Y-151707816D01*
X98789514Y-151699054D01*
X98837488Y-151648259D01*
X98905308Y-151631463D01*
X98971444Y-151653999D01*
X99010486Y-151699056D01*
X99014951Y-151707820D01*
X99139890Y-151879786D01*
X99290213Y-152030109D01*
X99462179Y-152155048D01*
X99462181Y-152155049D01*
X99462184Y-152155051D01*
X99651588Y-152251557D01*
X99853757Y-152317246D01*
X100063713Y-152350500D01*
X100063714Y-152350500D01*
X100276286Y-152350500D01*
X100276287Y-152350500D01*
X100486243Y-152317246D01*
X100688412Y-152251557D01*
X100877816Y-152155051D01*
X100964138Y-152092335D01*
X101049786Y-152030109D01*
X101049788Y-152030106D01*
X101049792Y-152030104D01*
X101200104Y-151879792D01*
X101200106Y-151879788D01*
X101200109Y-151879786D01*
X101325048Y-151707820D01*
X101325047Y-151707820D01*
X101325051Y-151707816D01*
X101329514Y-151699054D01*
X101377488Y-151648259D01*
X101445308Y-151631463D01*
X101511444Y-151653999D01*
X101550486Y-151699056D01*
X101554951Y-151707820D01*
X101679890Y-151879786D01*
X101830213Y-152030109D01*
X102002179Y-152155048D01*
X102002181Y-152155049D01*
X102002184Y-152155051D01*
X102191588Y-152251557D01*
X102393757Y-152317246D01*
X102603713Y-152350500D01*
X102603714Y-152350500D01*
X102816286Y-152350500D01*
X102816287Y-152350500D01*
X103026243Y-152317246D01*
X103228412Y-152251557D01*
X103417816Y-152155051D01*
X103504138Y-152092335D01*
X103589786Y-152030109D01*
X103589788Y-152030106D01*
X103589792Y-152030104D01*
X103740104Y-151879792D01*
X103740106Y-151879788D01*
X103740109Y-151879786D01*
X103825890Y-151761717D01*
X103865051Y-151707816D01*
X103869793Y-151698508D01*
X103917763Y-151647711D01*
X103985583Y-151630911D01*
X104051719Y-151653445D01*
X104090763Y-151698500D01*
X104095373Y-151707547D01*
X104134728Y-151761716D01*
X104767037Y-151129408D01*
X104784075Y-151192993D01*
X104849901Y-151307007D01*
X104942993Y-151400099D01*
X105057007Y-151465925D01*
X105120590Y-151482962D01*
X104488282Y-152115269D01*
X104488282Y-152115270D01*
X104542449Y-152154624D01*
X104731782Y-152251095D01*
X104933870Y-152316757D01*
X105143754Y-152350000D01*
X105356246Y-152350000D01*
X105566127Y-152316757D01*
X105566130Y-152316757D01*
X105768217Y-152251095D01*
X105957554Y-152154622D01*
X106011716Y-152115270D01*
X106011717Y-152115270D01*
X105379408Y-151482962D01*
X105442993Y-151465925D01*
X105557007Y-151400099D01*
X105650099Y-151307007D01*
X105715925Y-151192993D01*
X105732962Y-151129408D01*
X106365270Y-151761717D01*
X106365270Y-151761716D01*
X106404622Y-151707555D01*
X106409232Y-151698507D01*
X106457205Y-151647709D01*
X106525025Y-151630912D01*
X106591161Y-151653447D01*
X106630204Y-151698504D01*
X106634949Y-151707817D01*
X106759890Y-151879786D01*
X106910213Y-152030109D01*
X107082179Y-152155048D01*
X107082181Y-152155049D01*
X107082184Y-152155051D01*
X107271588Y-152251557D01*
X107473757Y-152317246D01*
X107683713Y-152350500D01*
X107683714Y-152350500D01*
X107896286Y-152350500D01*
X107896287Y-152350500D01*
X108106243Y-152317246D01*
X108308412Y-152251557D01*
X108497816Y-152155051D01*
X108669792Y-152030104D01*
X108783329Y-151916566D01*
X108844648Y-151883084D01*
X108914340Y-151888068D01*
X108970274Y-151929939D01*
X108987189Y-151960917D01*
X109036202Y-152092328D01*
X109036206Y-152092335D01*
X109122452Y-152207544D01*
X109122455Y-152207547D01*
X109237664Y-152293793D01*
X109237671Y-152293797D01*
X109372517Y-152344091D01*
X109372516Y-152344091D01*
X109379444Y-152344835D01*
X109432127Y-152350500D01*
X111227872Y-152350499D01*
X111287483Y-152344091D01*
X111422331Y-152293796D01*
X111537546Y-152207546D01*
X111623796Y-152092331D01*
X111674091Y-151957483D01*
X111680500Y-151897873D01*
X111680499Y-150102128D01*
X111674091Y-150042517D01*
X111672810Y-150039083D01*
X111623797Y-149907671D01*
X111623793Y-149907664D01*
X111537547Y-149792455D01*
X111537544Y-149792452D01*
X111422335Y-149706206D01*
X111422328Y-149706202D01*
X111287482Y-149655908D01*
X111287483Y-149655908D01*
X111227883Y-149649501D01*
X111227881Y-149649500D01*
X111227873Y-149649500D01*
X111227864Y-149649500D01*
X109432129Y-149649500D01*
X109432123Y-149649501D01*
X109372516Y-149655908D01*
X109237671Y-149706202D01*
X109237664Y-149706206D01*
X109122455Y-149792452D01*
X109122452Y-149792455D01*
X109036206Y-149907664D01*
X109036203Y-149907669D01*
X108987189Y-150039083D01*
X108945317Y-150095016D01*
X108879853Y-150119433D01*
X108811580Y-150104581D01*
X108783326Y-150083430D01*
X108669786Y-149969890D01*
X108497820Y-149844951D01*
X108308414Y-149748444D01*
X108308413Y-149748443D01*
X108308412Y-149748443D01*
X108106243Y-149682754D01*
X108106241Y-149682753D01*
X108106240Y-149682753D01*
X107944957Y-149657208D01*
X107896287Y-149649500D01*
X107683713Y-149649500D01*
X107635042Y-149657208D01*
X107473760Y-149682753D01*
X107271585Y-149748444D01*
X107082179Y-149844951D01*
X106910213Y-149969890D01*
X106759890Y-150120213D01*
X106634949Y-150292182D01*
X106630202Y-150301499D01*
X106582227Y-150352293D01*
X106514405Y-150369087D01*
X106448271Y-150346548D01*
X106409234Y-150301495D01*
X106404626Y-150292452D01*
X106365270Y-150238282D01*
X106365269Y-150238282D01*
X105732962Y-150870590D01*
X105715925Y-150807007D01*
X105650099Y-150692993D01*
X105557007Y-150599901D01*
X105442993Y-150534075D01*
X105379409Y-150517037D01*
X106011716Y-149884728D01*
X105957550Y-149845375D01*
X105768217Y-149748904D01*
X105566129Y-149683242D01*
X105356246Y-149650000D01*
X105143754Y-149650000D01*
X104933872Y-149683242D01*
X104933869Y-149683242D01*
X104731782Y-149748904D01*
X104542439Y-149845380D01*
X104488282Y-149884727D01*
X104488282Y-149884728D01*
X105120591Y-150517037D01*
X105057007Y-150534075D01*
X104942993Y-150599901D01*
X104849901Y-150692993D01*
X104784075Y-150807007D01*
X104767037Y-150870591D01*
X104134728Y-150238282D01*
X104134727Y-150238282D01*
X104095380Y-150292440D01*
X104095376Y-150292446D01*
X104090760Y-150301505D01*
X104042781Y-150352297D01*
X103974959Y-150369087D01*
X103908826Y-150346543D01*
X103869794Y-150301493D01*
X103865051Y-150292184D01*
X103865049Y-150292181D01*
X103865048Y-150292179D01*
X103740109Y-150120213D01*
X103589786Y-149969890D01*
X103417820Y-149844951D01*
X103228414Y-149748444D01*
X103228413Y-149748443D01*
X103228412Y-149748443D01*
X103026243Y-149682754D01*
X103026241Y-149682753D01*
X103026240Y-149682753D01*
X102864957Y-149657208D01*
X102816287Y-149649500D01*
X102603713Y-149649500D01*
X102555042Y-149657208D01*
X102393760Y-149682753D01*
X102191585Y-149748444D01*
X102002179Y-149844951D01*
X101830213Y-149969890D01*
X101679890Y-150120213D01*
X101554949Y-150292182D01*
X101550484Y-150300946D01*
X101502509Y-150351742D01*
X101434688Y-150368536D01*
X101368553Y-150345998D01*
X101329516Y-150300946D01*
X101325050Y-150292182D01*
X101200109Y-150120213D01*
X101049786Y-149969890D01*
X100877820Y-149844951D01*
X100688414Y-149748444D01*
X100688413Y-149748443D01*
X100688412Y-149748443D01*
X100486243Y-149682754D01*
X100486241Y-149682753D01*
X100486240Y-149682753D01*
X100324957Y-149657208D01*
X100276287Y-149649500D01*
X100063713Y-149649500D01*
X100015042Y-149657208D01*
X99853760Y-149682753D01*
X99651585Y-149748444D01*
X99462179Y-149844951D01*
X99290213Y-149969890D01*
X99139890Y-150120213D01*
X99014949Y-150292182D01*
X99010484Y-150300946D01*
X98962509Y-150351742D01*
X98894688Y-150368536D01*
X98828553Y-150345998D01*
X98789516Y-150300946D01*
X98785050Y-150292182D01*
X98660109Y-150120213D01*
X98509786Y-149969890D01*
X98337820Y-149844951D01*
X98148414Y-149748444D01*
X98148413Y-149748443D01*
X98148412Y-149748443D01*
X97946243Y-149682754D01*
X97946241Y-149682753D01*
X97946240Y-149682753D01*
X97784957Y-149657208D01*
X97736287Y-149649500D01*
X97523713Y-149649500D01*
X97475042Y-149657208D01*
X97313760Y-149682753D01*
X97111585Y-149748444D01*
X96922179Y-149844951D01*
X96750213Y-149969890D01*
X96599890Y-150120213D01*
X96474949Y-150292182D01*
X96470484Y-150300946D01*
X96422509Y-150351742D01*
X96354688Y-150368536D01*
X96288553Y-150345998D01*
X96249516Y-150300946D01*
X96245050Y-150292182D01*
X96120109Y-150120213D01*
X95969786Y-149969890D01*
X95797820Y-149844951D01*
X95608414Y-149748444D01*
X95608413Y-149748443D01*
X95608412Y-149748443D01*
X95406243Y-149682754D01*
X95406241Y-149682753D01*
X95406240Y-149682753D01*
X95244957Y-149657208D01*
X95196287Y-149649500D01*
X94983713Y-149649500D01*
X94935042Y-149657208D01*
X94773760Y-149682753D01*
X94571585Y-149748444D01*
X94382179Y-149844951D01*
X94210213Y-149969890D01*
X94059890Y-150120213D01*
X93934949Y-150292182D01*
X93930484Y-150300946D01*
X93882509Y-150351742D01*
X93814688Y-150368536D01*
X93748553Y-150345998D01*
X93709516Y-150300946D01*
X93705050Y-150292182D01*
X93580109Y-150120213D01*
X93429786Y-149969890D01*
X93257820Y-149844951D01*
X93068414Y-149748444D01*
X93068413Y-149748443D01*
X93068412Y-149748443D01*
X92866243Y-149682754D01*
X92866241Y-149682753D01*
X92866240Y-149682753D01*
X92704957Y-149657208D01*
X92656287Y-149649500D01*
X92443713Y-149649500D01*
X92395042Y-149657208D01*
X92233760Y-149682753D01*
X92031585Y-149748444D01*
X91842179Y-149844951D01*
X91670213Y-149969890D01*
X91519890Y-150120213D01*
X91394949Y-150292182D01*
X91390484Y-150300946D01*
X91342509Y-150351742D01*
X91274688Y-150368536D01*
X91208553Y-150345998D01*
X91169516Y-150300946D01*
X91165050Y-150292182D01*
X91040109Y-150120213D01*
X90889786Y-149969890D01*
X90717820Y-149844951D01*
X90528414Y-149748444D01*
X90528413Y-149748443D01*
X90528412Y-149748443D01*
X90326243Y-149682754D01*
X90326241Y-149682753D01*
X90326240Y-149682753D01*
X90164957Y-149657208D01*
X90116287Y-149649500D01*
X89903713Y-149649500D01*
X89855042Y-149657208D01*
X89693760Y-149682753D01*
X89491585Y-149748444D01*
X89302179Y-149844951D01*
X89130213Y-149969890D01*
X88979890Y-150120213D01*
X88854949Y-150292182D01*
X88850202Y-150301499D01*
X88802227Y-150352293D01*
X88734405Y-150369087D01*
X88668271Y-150346548D01*
X88629234Y-150301495D01*
X88624626Y-150292452D01*
X88585270Y-150238282D01*
X88585269Y-150238282D01*
X87952962Y-150870590D01*
X87935925Y-150807007D01*
X87870099Y-150692993D01*
X87777007Y-150599901D01*
X87662993Y-150534075D01*
X87599409Y-150517037D01*
X88231716Y-149884728D01*
X88177550Y-149845375D01*
X87988217Y-149748904D01*
X87786129Y-149683242D01*
X87576246Y-149650000D01*
X87363754Y-149650000D01*
X87153872Y-149683242D01*
X87153869Y-149683242D01*
X86951782Y-149748904D01*
X86762439Y-149845380D01*
X86708282Y-149884727D01*
X86708282Y-149884728D01*
X87340591Y-150517037D01*
X87277007Y-150534075D01*
X87162993Y-150599901D01*
X87069901Y-150692993D01*
X87004075Y-150807007D01*
X86987037Y-150870591D01*
X86354728Y-150238282D01*
X86354727Y-150238282D01*
X86315380Y-150292439D01*
X86218904Y-150481782D01*
X86153242Y-150683869D01*
X86153242Y-150683872D01*
X86120000Y-150893753D01*
X78660499Y-150893753D01*
X78660499Y-150102128D01*
X78654091Y-150042517D01*
X78617617Y-149944726D01*
X78603798Y-149907673D01*
X78603793Y-149907664D01*
X78517547Y-149792455D01*
X78517544Y-149792452D01*
X78402335Y-149706206D01*
X78402328Y-149706202D01*
X78267482Y-149655908D01*
X78267483Y-149655908D01*
X78207883Y-149649501D01*
X78207881Y-149649500D01*
X78207873Y-149649500D01*
X78207864Y-149649500D01*
X76412129Y-149649500D01*
X76412123Y-149649501D01*
X76352516Y-149655908D01*
X76217671Y-149706202D01*
X76217664Y-149706206D01*
X76102455Y-149792452D01*
X76102452Y-149792455D01*
X76016206Y-149907664D01*
X76016203Y-149907669D01*
X75967189Y-150039083D01*
X75925317Y-150095016D01*
X75859853Y-150119433D01*
X75791580Y-150104581D01*
X75763326Y-150083430D01*
X75649786Y-149969890D01*
X75477820Y-149844951D01*
X75288414Y-149748444D01*
X75288413Y-149748443D01*
X75288412Y-149748443D01*
X75086243Y-149682754D01*
X75086241Y-149682753D01*
X75086240Y-149682753D01*
X74924957Y-149657208D01*
X74876287Y-149649500D01*
X74663713Y-149649500D01*
X74615042Y-149657208D01*
X74453760Y-149682753D01*
X74251585Y-149748444D01*
X74062179Y-149844951D01*
X73890213Y-149969890D01*
X73739890Y-150120213D01*
X73614949Y-150292182D01*
X73610484Y-150300946D01*
X73562509Y-150351742D01*
X73494688Y-150368536D01*
X73428553Y-150345998D01*
X73389516Y-150300946D01*
X73385050Y-150292182D01*
X73260109Y-150120213D01*
X73109786Y-149969890D01*
X72937820Y-149844951D01*
X72748414Y-149748444D01*
X72748413Y-149748443D01*
X72748412Y-149748443D01*
X72546243Y-149682754D01*
X72546241Y-149682753D01*
X72546240Y-149682753D01*
X72384957Y-149657208D01*
X72336287Y-149649500D01*
X72123713Y-149649500D01*
X72075042Y-149657208D01*
X71913760Y-149682753D01*
X71711585Y-149748444D01*
X71522179Y-149844951D01*
X71350213Y-149969890D01*
X71199890Y-150120213D01*
X71074949Y-150292182D01*
X71070484Y-150300946D01*
X71022509Y-150351742D01*
X70954688Y-150368536D01*
X70888553Y-150345998D01*
X70849516Y-150300946D01*
X70845050Y-150292182D01*
X70720109Y-150120213D01*
X70569786Y-149969890D01*
X70397820Y-149844951D01*
X70208414Y-149748444D01*
X70208413Y-149748443D01*
X70208412Y-149748443D01*
X70006243Y-149682754D01*
X70006241Y-149682753D01*
X70006240Y-149682753D01*
X69844957Y-149657208D01*
X69796287Y-149649500D01*
X69583713Y-149649500D01*
X69535042Y-149657208D01*
X69373760Y-149682753D01*
X69171585Y-149748444D01*
X68982179Y-149844951D01*
X68810213Y-149969890D01*
X68659890Y-150120213D01*
X68534949Y-150292182D01*
X68530484Y-150300946D01*
X68482509Y-150351742D01*
X68414688Y-150368536D01*
X68348553Y-150345998D01*
X68309516Y-150300946D01*
X68305050Y-150292182D01*
X68180109Y-150120213D01*
X68029786Y-149969890D01*
X67857820Y-149844951D01*
X67668414Y-149748444D01*
X67668413Y-149748443D01*
X67668412Y-149748443D01*
X67466243Y-149682754D01*
X67466241Y-149682753D01*
X67466240Y-149682753D01*
X67304957Y-149657208D01*
X67256287Y-149649500D01*
X67043713Y-149649500D01*
X66995042Y-149657208D01*
X66833760Y-149682753D01*
X66631585Y-149748444D01*
X66442179Y-149844951D01*
X66270213Y-149969890D01*
X66119890Y-150120213D01*
X65994949Y-150292182D01*
X65990484Y-150300946D01*
X65942509Y-150351742D01*
X65874688Y-150368536D01*
X65808553Y-150345998D01*
X65769516Y-150300946D01*
X65765050Y-150292182D01*
X65640109Y-150120213D01*
X65489786Y-149969890D01*
X65317820Y-149844951D01*
X65128414Y-149748444D01*
X65128413Y-149748443D01*
X65128412Y-149748443D01*
X64926243Y-149682754D01*
X64926241Y-149682753D01*
X64926240Y-149682753D01*
X64764957Y-149657208D01*
X64716287Y-149649500D01*
X64503713Y-149649500D01*
X64455042Y-149657208D01*
X64293760Y-149682753D01*
X64091585Y-149748444D01*
X63902179Y-149844951D01*
X63730213Y-149969890D01*
X63579890Y-150120213D01*
X63454949Y-150292182D01*
X63450484Y-150300946D01*
X63402509Y-150351742D01*
X63334688Y-150368536D01*
X63268553Y-150345998D01*
X63229516Y-150300946D01*
X63225050Y-150292182D01*
X63100109Y-150120213D01*
X62949786Y-149969890D01*
X62777820Y-149844951D01*
X62588414Y-149748444D01*
X62588413Y-149748443D01*
X62588412Y-149748443D01*
X62386243Y-149682754D01*
X62386241Y-149682753D01*
X62386240Y-149682753D01*
X62224957Y-149657208D01*
X62176287Y-149649500D01*
X61963713Y-149649500D01*
X61915042Y-149657208D01*
X61753760Y-149682753D01*
X61551585Y-149748444D01*
X61362179Y-149844951D01*
X61190213Y-149969890D01*
X61039890Y-150120213D01*
X60914949Y-150292182D01*
X60910202Y-150301499D01*
X60862227Y-150352293D01*
X60794405Y-150369087D01*
X60728271Y-150346548D01*
X60689234Y-150301495D01*
X60684626Y-150292452D01*
X60645270Y-150238282D01*
X60645269Y-150238282D01*
X60012962Y-150870590D01*
X59995925Y-150807007D01*
X59930099Y-150692993D01*
X59837007Y-150599901D01*
X59722993Y-150534075D01*
X59659409Y-150517037D01*
X60291716Y-149884728D01*
X60237550Y-149845375D01*
X60048217Y-149748904D01*
X59846129Y-149683242D01*
X59636246Y-149650000D01*
X59423754Y-149650000D01*
X59213872Y-149683242D01*
X59213869Y-149683242D01*
X59011782Y-149748904D01*
X58822439Y-149845380D01*
X58768282Y-149884727D01*
X58768282Y-149884728D01*
X59400591Y-150517037D01*
X59337007Y-150534075D01*
X59222993Y-150599901D01*
X59129901Y-150692993D01*
X59064075Y-150807007D01*
X59047037Y-150870591D01*
X58414728Y-150238282D01*
X58414727Y-150238282D01*
X58375380Y-150292439D01*
X58278904Y-150481782D01*
X58213242Y-150683869D01*
X58213242Y-150683872D01*
X58180000Y-150893753D01*
X40500500Y-150893753D01*
X40500500Y-144471153D01*
X114899500Y-144471153D01*
X114899500Y-144628846D01*
X114930261Y-144783489D01*
X114930264Y-144783501D01*
X114990602Y-144929172D01*
X114990609Y-144929185D01*
X115078210Y-145060288D01*
X115078213Y-145060292D01*
X115189707Y-145171786D01*
X115189711Y-145171789D01*
X115320814Y-145259390D01*
X115320827Y-145259397D01*
X115463857Y-145318641D01*
X115466503Y-145319737D01*
X115621153Y-145350499D01*
X115621156Y-145350500D01*
X115621158Y-145350500D01*
X115778844Y-145350500D01*
X115778845Y-145350499D01*
X115933497Y-145319737D01*
X115933509Y-145319731D01*
X115939324Y-145317969D01*
X115939528Y-145318641D01*
X115980462Y-145310500D01*
X119435396Y-145310500D01*
X119482844Y-145319937D01*
X119506503Y-145329737D01*
X119506508Y-145329738D01*
X119506511Y-145329739D01*
X119661153Y-145360499D01*
X119661156Y-145360500D01*
X119661158Y-145360500D01*
X119818844Y-145360500D01*
X119818845Y-145360499D01*
X119895152Y-145345320D01*
X119973488Y-145329739D01*
X119973489Y-145329738D01*
X119973497Y-145329737D01*
X119997155Y-145319937D01*
X120044604Y-145310500D01*
X122847770Y-145310500D01*
X122914809Y-145330185D01*
X122935451Y-145346819D01*
X125763181Y-148174548D01*
X125796666Y-148235871D01*
X125799500Y-148262229D01*
X125799500Y-153235396D01*
X125790062Y-153282844D01*
X125780263Y-153306503D01*
X125780262Y-153306506D01*
X125780260Y-153306511D01*
X125749500Y-153461153D01*
X125749500Y-153618846D01*
X125780261Y-153773489D01*
X125780264Y-153773501D01*
X125840602Y-153919172D01*
X125840609Y-153919185D01*
X125928210Y-154050288D01*
X125928213Y-154050292D01*
X126039707Y-154161786D01*
X126039711Y-154161789D01*
X126170814Y-154249390D01*
X126170827Y-154249397D01*
X126316498Y-154309735D01*
X126316503Y-154309737D01*
X126471153Y-154340499D01*
X126471156Y-154340500D01*
X126471158Y-154340500D01*
X126628844Y-154340500D01*
X126628845Y-154340499D01*
X126783497Y-154309737D01*
X126929179Y-154249394D01*
X127060289Y-154161789D01*
X127171789Y-154050289D01*
X127259394Y-153919179D01*
X127319737Y-153773497D01*
X127350500Y-153618842D01*
X127350500Y-153461158D01*
X127350500Y-153461155D01*
X127350499Y-153461153D01*
X127319739Y-153306511D01*
X127319738Y-153306508D01*
X127319737Y-153306503D01*
X127309937Y-153282844D01*
X127300500Y-153235396D01*
X127300500Y-148170461D01*
X127308643Y-148129528D01*
X127307969Y-148129324D01*
X127309731Y-148123509D01*
X127309737Y-148123497D01*
X127340500Y-147968842D01*
X127340500Y-147811158D01*
X127340500Y-147811155D01*
X127340499Y-147811153D01*
X127309738Y-147656510D01*
X127309737Y-147656503D01*
X127309735Y-147656498D01*
X127249397Y-147510827D01*
X127249390Y-147510814D01*
X127161789Y-147379711D01*
X127161786Y-147379707D01*
X127050292Y-147268213D01*
X127050288Y-147268210D01*
X126919185Y-147180609D01*
X126919180Y-147180607D01*
X126919179Y-147180606D01*
X126895519Y-147170805D01*
X126855293Y-147143926D01*
X123688421Y-143977052D01*
X123688420Y-143977051D01*
X123615327Y-143928213D01*
X123609769Y-143924499D01*
X123609768Y-143924498D01*
X123565500Y-143894919D01*
X123565488Y-143894912D01*
X123428917Y-143838343D01*
X123428907Y-143838340D01*
X123283920Y-143809500D01*
X123283918Y-143809500D01*
X120044604Y-143809500D01*
X119997155Y-143800062D01*
X119973497Y-143790263D01*
X119973493Y-143790262D01*
X119973488Y-143790260D01*
X119818845Y-143759500D01*
X119818842Y-143759500D01*
X119661158Y-143759500D01*
X119661155Y-143759500D01*
X119506511Y-143790260D01*
X119506506Y-143790262D01*
X119506504Y-143790262D01*
X119506503Y-143790263D01*
X119482844Y-143800062D01*
X119435396Y-143809500D01*
X116028746Y-143809500D01*
X115981294Y-143800061D01*
X115933498Y-143780263D01*
X115933488Y-143780260D01*
X115778845Y-143749500D01*
X115778842Y-143749500D01*
X115621158Y-143749500D01*
X115621155Y-143749500D01*
X115466510Y-143780261D01*
X115466498Y-143780264D01*
X115320827Y-143840602D01*
X115320814Y-143840609D01*
X115189711Y-143928210D01*
X115189707Y-143928213D01*
X115078213Y-144039707D01*
X115078210Y-144039711D01*
X114990609Y-144170814D01*
X114990602Y-144170827D01*
X114930264Y-144316498D01*
X114930261Y-144316510D01*
X114899500Y-144471153D01*
X40500500Y-144471153D01*
X40500500Y-139841064D01*
X41496135Y-139841064D01*
X43709425Y-139841064D01*
X43709425Y-138192690D01*
X46652000Y-138192690D01*
X46652000Y-138487309D01*
X46684984Y-138780048D01*
X46684986Y-138780064D01*
X46750541Y-139067283D01*
X46750545Y-139067295D01*
X46847843Y-139345353D01*
X46847852Y-139345375D01*
X46975668Y-139610788D01*
X47132414Y-139860248D01*
X47132417Y-139860252D01*
X47251662Y-140009782D01*
X47970008Y-139291436D01*
X48043147Y-139392102D01*
X48222898Y-139571853D01*
X48323562Y-139644990D01*
X47605217Y-140363335D01*
X47754761Y-140482591D01*
X48004211Y-140639331D01*
X48269624Y-140767147D01*
X48269646Y-140767156D01*
X48547704Y-140864454D01*
X48547716Y-140864458D01*
X48834935Y-140930013D01*
X48834951Y-140930015D01*
X49127690Y-140962999D01*
X49127692Y-140963000D01*
X49422308Y-140963000D01*
X49422309Y-140962999D01*
X49715048Y-140930015D01*
X49715064Y-140930013D01*
X50002283Y-140864458D01*
X50002295Y-140864454D01*
X50280353Y-140767156D01*
X50280375Y-140767147D01*
X50545788Y-140639331D01*
X50795244Y-140482587D01*
X50944782Y-140363336D01*
X50226436Y-139644990D01*
X50327102Y-139571853D01*
X50506853Y-139392102D01*
X50579990Y-139291436D01*
X51298336Y-140009782D01*
X51417587Y-139860244D01*
X51574331Y-139610788D01*
X51702147Y-139345375D01*
X51702156Y-139345353D01*
X51799454Y-139067295D01*
X51799458Y-139067283D01*
X51865013Y-138780064D01*
X51865015Y-138780048D01*
X51897999Y-138487309D01*
X51898000Y-138487307D01*
X51898000Y-138233910D01*
X54947000Y-138233910D01*
X54947000Y-138446089D01*
X54980193Y-138655658D01*
X54980193Y-138655661D01*
X55045758Y-138857449D01*
X55045760Y-138857452D01*
X55142087Y-139046506D01*
X55266803Y-139218163D01*
X55416837Y-139368197D01*
X55588494Y-139492913D01*
X55777548Y-139589240D01*
X55777550Y-139589241D01*
X55965771Y-139650397D01*
X55979343Y-139654807D01*
X56021480Y-139661481D01*
X56037149Y-139663963D01*
X56100284Y-139693893D01*
X56137215Y-139753204D01*
X56136217Y-139823067D01*
X56133933Y-139829768D01*
X56098408Y-139925015D01*
X56092001Y-139984616D01*
X56092000Y-139984635D01*
X56092000Y-141775370D01*
X56092001Y-141775376D01*
X56098408Y-141834983D01*
X56148702Y-141969828D01*
X56148706Y-141969835D01*
X56234952Y-142085044D01*
X56234955Y-142085047D01*
X56350164Y-142171293D01*
X56350171Y-142171297D01*
X56485017Y-142221591D01*
X56485016Y-142221591D01*
X56491944Y-142222335D01*
X56544627Y-142228000D01*
X58335372Y-142227999D01*
X58394983Y-142221591D01*
X58529831Y-142171296D01*
X58645046Y-142085046D01*
X58730391Y-141971039D01*
X58786322Y-141929171D01*
X58856013Y-141924187D01*
X58902538Y-141945034D01*
X59023494Y-142032913D01*
X59212548Y-142129240D01*
X59212550Y-142129241D01*
X59341974Y-142171293D01*
X59414343Y-142194807D01*
X59623910Y-142228000D01*
X59623911Y-142228000D01*
X59836089Y-142228000D01*
X59836090Y-142228000D01*
X60045657Y-142194807D01*
X60045660Y-142194806D01*
X60045661Y-142194806D01*
X60247449Y-142129241D01*
X60247449Y-142129240D01*
X60247452Y-142129240D01*
X60436506Y-142032913D01*
X60608163Y-141908197D01*
X60758197Y-141758163D01*
X60774681Y-141735475D01*
X60830010Y-141692808D01*
X60899624Y-141686828D01*
X60961419Y-141719433D01*
X60975319Y-141735475D01*
X60991799Y-141758159D01*
X60991803Y-141758163D01*
X61141837Y-141908197D01*
X61313494Y-142032913D01*
X61502548Y-142129240D01*
X61502550Y-142129241D01*
X61631974Y-142171293D01*
X61704343Y-142194807D01*
X61913910Y-142228000D01*
X61913911Y-142228000D01*
X62126089Y-142228000D01*
X62126090Y-142228000D01*
X62335657Y-142194807D01*
X62335660Y-142194806D01*
X62335661Y-142194806D01*
X62537449Y-142129241D01*
X62537449Y-142129240D01*
X62537452Y-142129240D01*
X62726506Y-142032913D01*
X62898163Y-141908197D01*
X63048197Y-141758163D01*
X63064681Y-141735475D01*
X63120010Y-141692808D01*
X63189624Y-141686828D01*
X63251419Y-141719433D01*
X63265319Y-141735475D01*
X63281799Y-141758159D01*
X63281803Y-141758163D01*
X63431837Y-141908197D01*
X63603494Y-142032913D01*
X63792548Y-142129240D01*
X63792550Y-142129241D01*
X63921974Y-142171293D01*
X63994343Y-142194807D01*
X64203910Y-142228000D01*
X64203911Y-142228000D01*
X64416089Y-142228000D01*
X64416090Y-142228000D01*
X64625657Y-142194807D01*
X64625660Y-142194806D01*
X64625661Y-142194806D01*
X64827449Y-142129241D01*
X64827449Y-142129240D01*
X64827452Y-142129240D01*
X65016506Y-142032913D01*
X65188163Y-141908197D01*
X65338197Y-141758163D01*
X65354681Y-141735475D01*
X65410010Y-141692808D01*
X65479624Y-141686828D01*
X65541419Y-141719433D01*
X65555319Y-141735475D01*
X65571799Y-141758159D01*
X65571803Y-141758163D01*
X65721837Y-141908197D01*
X65893494Y-142032913D01*
X66082548Y-142129240D01*
X66082550Y-142129241D01*
X66211974Y-142171293D01*
X66284343Y-142194807D01*
X66493910Y-142228000D01*
X66493911Y-142228000D01*
X66706089Y-142228000D01*
X66706090Y-142228000D01*
X66915657Y-142194807D01*
X66915660Y-142194806D01*
X66915661Y-142194806D01*
X67117449Y-142129241D01*
X67117449Y-142129240D01*
X67117452Y-142129240D01*
X67306506Y-142032913D01*
X67478163Y-141908197D01*
X67628197Y-141758163D01*
X67752913Y-141586506D01*
X67849240Y-141397452D01*
X67914807Y-141195657D01*
X67948000Y-140986090D01*
X67948000Y-140773910D01*
X67914807Y-140564343D01*
X67914806Y-140564339D01*
X67914806Y-140564338D01*
X67849496Y-140363336D01*
X67849240Y-140362548D01*
X67752913Y-140173494D01*
X67628197Y-140001837D01*
X67478163Y-139851803D01*
X67306506Y-139727087D01*
X67117452Y-139630760D01*
X67117449Y-139630758D01*
X66915659Y-139565193D01*
X66750670Y-139539061D01*
X66706090Y-139532000D01*
X66493910Y-139532000D01*
X66485210Y-139533378D01*
X66360505Y-139553129D01*
X66291211Y-139544174D01*
X66237759Y-139499178D01*
X66227524Y-139466077D01*
X65637482Y-138876035D01*
X65673082Y-138866496D01*
X65801918Y-138792112D01*
X65907112Y-138686918D01*
X65981496Y-138558082D01*
X65991035Y-138522482D01*
X66568480Y-139099927D01*
X66568481Y-139099927D01*
X66607485Y-139046244D01*
X66703776Y-138857261D01*
X66703778Y-138857258D01*
X66769319Y-138655544D01*
X66769319Y-138655541D01*
X66802500Y-138446050D01*
X66802500Y-138233951D01*
X66798487Y-138208615D01*
X66798487Y-138208614D01*
X66795965Y-138192690D01*
X71642000Y-138192690D01*
X71642000Y-138487309D01*
X71674984Y-138780048D01*
X71674986Y-138780064D01*
X71740541Y-139067283D01*
X71740545Y-139067295D01*
X71837843Y-139345353D01*
X71837852Y-139345375D01*
X71965668Y-139610788D01*
X72122414Y-139860248D01*
X72122417Y-139860252D01*
X72241662Y-140009782D01*
X72960008Y-139291436D01*
X73033147Y-139392102D01*
X73212898Y-139571853D01*
X73313562Y-139644990D01*
X72595217Y-140363335D01*
X72744761Y-140482591D01*
X72994211Y-140639331D01*
X73259624Y-140767147D01*
X73259646Y-140767156D01*
X73537704Y-140864454D01*
X73537716Y-140864458D01*
X73824935Y-140930013D01*
X73824951Y-140930015D01*
X74117690Y-140962999D01*
X74117692Y-140963000D01*
X74412308Y-140963000D01*
X74412309Y-140962999D01*
X74705048Y-140930015D01*
X74705064Y-140930013D01*
X74992283Y-140864458D01*
X74992295Y-140864454D01*
X75270353Y-140767156D01*
X75270375Y-140767147D01*
X75535788Y-140639331D01*
X75785244Y-140482587D01*
X75934782Y-140363336D01*
X75216436Y-139644990D01*
X75317102Y-139571853D01*
X75496853Y-139392102D01*
X75569990Y-139291436D01*
X76288336Y-140009782D01*
X76407587Y-139860244D01*
X76564331Y-139610788D01*
X76692147Y-139345375D01*
X76692156Y-139345353D01*
X76789454Y-139067295D01*
X76789458Y-139067283D01*
X76855013Y-138780064D01*
X76855015Y-138780048D01*
X76887999Y-138487309D01*
X76888000Y-138487307D01*
X76888000Y-138192692D01*
X76887999Y-138192690D01*
X76855015Y-137899951D01*
X76855015Y-137899948D01*
X76851364Y-137883952D01*
X76851364Y-137883949D01*
X76846177Y-137861223D01*
X89735000Y-137861223D01*
X89735000Y-138058776D01*
X89765901Y-138253876D01*
X89765902Y-138253880D01*
X89793884Y-138339999D01*
X89826945Y-138441750D01*
X89826949Y-138441760D01*
X89886218Y-138558082D01*
X89916627Y-138617764D01*
X90032739Y-138777578D01*
X90172422Y-138917261D01*
X90332236Y-139033373D01*
X90508247Y-139123054D01*
X90696120Y-139184098D01*
X90767952Y-139195475D01*
X90891224Y-139215000D01*
X90891229Y-139215000D01*
X91088776Y-139215000D01*
X91197164Y-139197832D01*
X91283880Y-139184098D01*
X91471753Y-139123054D01*
X91647764Y-139033373D01*
X91807578Y-138917261D01*
X91947261Y-138777578D01*
X92063373Y-138617764D01*
X92153054Y-138441753D01*
X92214098Y-138253880D01*
X92234999Y-138121918D01*
X92245000Y-138058776D01*
X92245000Y-137861223D01*
X92214098Y-137666123D01*
X92214098Y-137666120D01*
X92153054Y-137478247D01*
X92063373Y-137302236D01*
X91947261Y-137142422D01*
X91807578Y-137002739D01*
X91647764Y-136886627D01*
X91527212Y-136825203D01*
X91520743Y-136819094D01*
X91512314Y-136816245D01*
X91495736Y-136795477D01*
X91476416Y-136777230D01*
X91474276Y-136768591D01*
X91468727Y-136761639D01*
X91466009Y-136735206D01*
X91459621Y-136709409D01*
X91462491Y-136700986D01*
X91461581Y-136692135D01*
X91473586Y-136668427D01*
X91482158Y-136643274D01*
X91489958Y-136636097D01*
X91493146Y-136629802D01*
X91512974Y-136614920D01*
X91520730Y-136607784D01*
X91721408Y-136489974D01*
X91749669Y-136482900D01*
X91777105Y-136473111D01*
X91783158Y-136474518D01*
X91789187Y-136473010D01*
X91816782Y-136482337D01*
X91845159Y-136488936D01*
X91850690Y-136493798D01*
X91855378Y-136495383D01*
X91862163Y-136503884D01*
X91883449Y-136522595D01*
X91927954Y-136582046D01*
X91971868Y-136614920D01*
X92043164Y-136668293D01*
X92043171Y-136668297D01*
X92178017Y-136718591D01*
X92178016Y-136718591D01*
X92184944Y-136719335D01*
X92237627Y-136725000D01*
X93842372Y-136724999D01*
X93901983Y-136718591D01*
X94036831Y-136668296D01*
X94152046Y-136582046D01*
X94238296Y-136466831D01*
X94288591Y-136331983D01*
X94295000Y-136272373D01*
X94294999Y-136111158D01*
X94314683Y-136044122D01*
X94367487Y-135998367D01*
X94436645Y-135988423D01*
X94500201Y-136017448D01*
X94529484Y-136054866D01*
X94566627Y-136127764D01*
X94682739Y-136287578D01*
X94822422Y-136427261D01*
X94982236Y-136543373D01*
X95108651Y-136607784D01*
X95151864Y-136629802D01*
X95158247Y-136633054D01*
X95346120Y-136694098D01*
X95414953Y-136705000D01*
X95541224Y-136725000D01*
X95541229Y-136725000D01*
X95738776Y-136725000D01*
X95847164Y-136707832D01*
X95933880Y-136694098D01*
X96121753Y-136633054D01*
X96297764Y-136543373D01*
X96457578Y-136427261D01*
X96577319Y-136307520D01*
X96638642Y-136274035D01*
X96708334Y-136279019D01*
X96752681Y-136307520D01*
X96872422Y-136427261D01*
X97032236Y-136543373D01*
X97152236Y-136604515D01*
X97203032Y-136652489D01*
X97219827Y-136720310D01*
X97197290Y-136786445D01*
X97152236Y-136825484D01*
X97117230Y-136843321D01*
X97032234Y-136886628D01*
X97032231Y-136886630D01*
X96979153Y-136925194D01*
X96872422Y-137002739D01*
X96872420Y-137002741D01*
X96872419Y-137002741D01*
X96732741Y-137142419D01*
X96732741Y-137142420D01*
X96732739Y-137142422D01*
X96700288Y-137187087D01*
X96616630Y-137302231D01*
X96616625Y-137302239D01*
X96526949Y-137478239D01*
X96526945Y-137478249D01*
X96465901Y-137666123D01*
X96435000Y-137861223D01*
X96435000Y-138058776D01*
X96465901Y-138253876D01*
X96465902Y-138253880D01*
X96493884Y-138339999D01*
X96526945Y-138441750D01*
X96526949Y-138441760D01*
X96586218Y-138558082D01*
X96616627Y-138617764D01*
X96732739Y-138777578D01*
X96872422Y-138917261D01*
X97032236Y-139033373D01*
X97208247Y-139123054D01*
X97396120Y-139184098D01*
X97467952Y-139195475D01*
X97591224Y-139215000D01*
X97591229Y-139215000D01*
X97788776Y-139215000D01*
X97897164Y-139197832D01*
X97983880Y-139184098D01*
X98171753Y-139123054D01*
X98347764Y-139033373D01*
X98507578Y-138917261D01*
X98647261Y-138777578D01*
X98763373Y-138617764D01*
X98853054Y-138441753D01*
X98914098Y-138253880D01*
X98934999Y-138121918D01*
X98945000Y-138058776D01*
X98945000Y-137861223D01*
X111615000Y-137861223D01*
X111615000Y-138058776D01*
X111645901Y-138253876D01*
X111645902Y-138253880D01*
X111673884Y-138339999D01*
X111706945Y-138441750D01*
X111706949Y-138441760D01*
X111766218Y-138558082D01*
X111796627Y-138617764D01*
X111912739Y-138777578D01*
X112052422Y-138917261D01*
X112212236Y-139033373D01*
X112388247Y-139123054D01*
X112576120Y-139184098D01*
X112647952Y-139195475D01*
X112771224Y-139215000D01*
X112771229Y-139215000D01*
X112968776Y-139215000D01*
X113077164Y-139197832D01*
X113163880Y-139184098D01*
X113351753Y-139123054D01*
X113527764Y-139033373D01*
X113687578Y-138917261D01*
X113827261Y-138777578D01*
X113943373Y-138617764D01*
X114033054Y-138441753D01*
X114094098Y-138253880D01*
X114114999Y-138121918D01*
X114125000Y-138058776D01*
X114125000Y-137861223D01*
X114094098Y-137666123D01*
X114094098Y-137666120D01*
X114033054Y-137478247D01*
X113943373Y-137302236D01*
X113827261Y-137142422D01*
X113687578Y-137002739D01*
X113527764Y-136886627D01*
X113407212Y-136825203D01*
X113400743Y-136819094D01*
X113392314Y-136816245D01*
X113375736Y-136795477D01*
X113356416Y-136777230D01*
X113354276Y-136768591D01*
X113348727Y-136761639D01*
X113346009Y-136735206D01*
X113339621Y-136709409D01*
X113342491Y-136700986D01*
X113341581Y-136692135D01*
X113353586Y-136668427D01*
X113362158Y-136643274D01*
X113369958Y-136636097D01*
X113373146Y-136629802D01*
X113392974Y-136614920D01*
X113400730Y-136607784D01*
X113601408Y-136489974D01*
X113629669Y-136482900D01*
X113657105Y-136473111D01*
X113663158Y-136474518D01*
X113669187Y-136473010D01*
X113696782Y-136482337D01*
X113725159Y-136488936D01*
X113730690Y-136493798D01*
X113735378Y-136495383D01*
X113742163Y-136503884D01*
X113763449Y-136522595D01*
X113807954Y-136582046D01*
X113851868Y-136614920D01*
X113923164Y-136668293D01*
X113923171Y-136668297D01*
X114058017Y-136718591D01*
X114058016Y-136718591D01*
X114064944Y-136719335D01*
X114117627Y-136725000D01*
X115722372Y-136724999D01*
X115781983Y-136718591D01*
X115916831Y-136668296D01*
X116032046Y-136582046D01*
X116118296Y-136466831D01*
X116168591Y-136331983D01*
X116175000Y-136272373D01*
X116174999Y-136111158D01*
X116194683Y-136044122D01*
X116247487Y-135998367D01*
X116316645Y-135988423D01*
X116380201Y-136017448D01*
X116409484Y-136054866D01*
X116446627Y-136127764D01*
X116562739Y-136287578D01*
X116702422Y-136427261D01*
X116862236Y-136543373D01*
X116988651Y-136607784D01*
X117031864Y-136629802D01*
X117038247Y-136633054D01*
X117226120Y-136694098D01*
X117294953Y-136705000D01*
X117421224Y-136725000D01*
X117421229Y-136725000D01*
X117618776Y-136725000D01*
X117727164Y-136707832D01*
X117813880Y-136694098D01*
X118001753Y-136633054D01*
X118177764Y-136543373D01*
X118337578Y-136427261D01*
X118457319Y-136307520D01*
X118518642Y-136274035D01*
X118588334Y-136279019D01*
X118632681Y-136307520D01*
X118752422Y-136427261D01*
X118912236Y-136543373D01*
X119032236Y-136604515D01*
X119083032Y-136652489D01*
X119099827Y-136720310D01*
X119077290Y-136786445D01*
X119032236Y-136825484D01*
X118997230Y-136843321D01*
X118912234Y-136886628D01*
X118912231Y-136886630D01*
X118859153Y-136925194D01*
X118752422Y-137002739D01*
X118752420Y-137002741D01*
X118752419Y-137002741D01*
X118612741Y-137142419D01*
X118612741Y-137142420D01*
X118612739Y-137142422D01*
X118580288Y-137187087D01*
X118496630Y-137302231D01*
X118496625Y-137302239D01*
X118406949Y-137478239D01*
X118406945Y-137478249D01*
X118345901Y-137666123D01*
X118315000Y-137861223D01*
X118315000Y-138058776D01*
X118345901Y-138253876D01*
X118345902Y-138253880D01*
X118373884Y-138339999D01*
X118406945Y-138441750D01*
X118406949Y-138441760D01*
X118466218Y-138558082D01*
X118496627Y-138617764D01*
X118612739Y-138777578D01*
X118752422Y-138917261D01*
X118912236Y-139033373D01*
X119088247Y-139123054D01*
X119276120Y-139184098D01*
X119347952Y-139195475D01*
X119471224Y-139215000D01*
X119471229Y-139215000D01*
X119668776Y-139215000D01*
X119777164Y-139197832D01*
X119863880Y-139184098D01*
X120051753Y-139123054D01*
X120227764Y-139033373D01*
X120387578Y-138917261D01*
X120527261Y-138777578D01*
X120643373Y-138617764D01*
X120733054Y-138441753D01*
X120794098Y-138253880D01*
X120814999Y-138121918D01*
X120825000Y-138058776D01*
X120825000Y-137861223D01*
X120794098Y-137666123D01*
X120794098Y-137666120D01*
X120733054Y-137478247D01*
X120643373Y-137302236D01*
X120527261Y-137142422D01*
X120387578Y-137002739D01*
X120227764Y-136886627D01*
X120107763Y-136825484D01*
X120056968Y-136777511D01*
X120040172Y-136709690D01*
X120062709Y-136643555D01*
X120107763Y-136604515D01*
X120227764Y-136543373D01*
X120387578Y-136427261D01*
X120527261Y-136287578D01*
X120643373Y-136127764D01*
X120733054Y-135951753D01*
X120794098Y-135763880D01*
X120822918Y-135581918D01*
X120825000Y-135568776D01*
X120825000Y-135371223D01*
X120794098Y-135176123D01*
X120794098Y-135176120D01*
X120733054Y-134988247D01*
X120643373Y-134812236D01*
X120527261Y-134652422D01*
X120387578Y-134512739D01*
X120227764Y-134396627D01*
X120058466Y-134310366D01*
X120058465Y-134310366D01*
X120051759Y-134306949D01*
X120051758Y-134306948D01*
X120051753Y-134306946D01*
X119863880Y-134245902D01*
X119863878Y-134245901D01*
X119863876Y-134245901D01*
X119668776Y-134215000D01*
X119668771Y-134215000D01*
X119471229Y-134215000D01*
X119471224Y-134215000D01*
X119276123Y-134245901D01*
X119088249Y-134306945D01*
X119088239Y-134306949D01*
X118912239Y-134396625D01*
X118912231Y-134396630D01*
X118835334Y-134452500D01*
X118752422Y-134512739D01*
X118752420Y-134512741D01*
X118752419Y-134512741D01*
X118632681Y-134632480D01*
X118571358Y-134665965D01*
X118501666Y-134660981D01*
X118457319Y-134632480D01*
X118337580Y-134512741D01*
X118337578Y-134512739D01*
X118177764Y-134396627D01*
X118166677Y-134390978D01*
X118001760Y-134306949D01*
X118001754Y-134306946D01*
X118001753Y-134306946D01*
X117813880Y-134245902D01*
X117813878Y-134245901D01*
X117813876Y-134245901D01*
X117618776Y-134215000D01*
X117618771Y-134215000D01*
X117421229Y-134215000D01*
X117421224Y-134215000D01*
X117226123Y-134245901D01*
X117038249Y-134306945D01*
X117038239Y-134306949D01*
X116862239Y-134396625D01*
X116862231Y-134396630D01*
X116785334Y-134452500D01*
X116702422Y-134512739D01*
X116702420Y-134512741D01*
X116702419Y-134512741D01*
X116562741Y-134652419D01*
X116562741Y-134652420D01*
X116562739Y-134652422D01*
X116537967Y-134686518D01*
X116446630Y-134812231D01*
X116446628Y-134812234D01*
X116409484Y-134885134D01*
X116361509Y-134935930D01*
X116293688Y-134952725D01*
X116227553Y-134930187D01*
X116184102Y-134875472D01*
X116174999Y-134828839D01*
X116174999Y-134667629D01*
X116174998Y-134667623D01*
X116172836Y-134647513D01*
X116168591Y-134608017D01*
X116147408Y-134551223D01*
X116118297Y-134473171D01*
X116118293Y-134473164D01*
X116032047Y-134357955D01*
X116032044Y-134357952D01*
X115916835Y-134271706D01*
X115916828Y-134271702D01*
X115781982Y-134221408D01*
X115781983Y-134221408D01*
X115722383Y-134215001D01*
X115722381Y-134215000D01*
X115722373Y-134215000D01*
X115722364Y-134215000D01*
X114117629Y-134215000D01*
X114117623Y-134215001D01*
X114058016Y-134221408D01*
X113923171Y-134271702D01*
X113923164Y-134271706D01*
X113807955Y-134357952D01*
X113763451Y-134417401D01*
X113707516Y-134459272D01*
X113637825Y-134464255D01*
X113591301Y-134443408D01*
X113527503Y-134397057D01*
X113351558Y-134307408D01*
X113163763Y-134246389D01*
X112968736Y-134215500D01*
X112771264Y-134215500D01*
X112576236Y-134246389D01*
X112388442Y-134307408D01*
X112212496Y-134397057D01*
X112176652Y-134423098D01*
X112176652Y-134423099D01*
X112752837Y-134999284D01*
X112682797Y-135018052D01*
X112572203Y-135081903D01*
X112481903Y-135172203D01*
X112418052Y-135282797D01*
X112399284Y-135352837D01*
X111823099Y-134776652D01*
X111823098Y-134776652D01*
X111797057Y-134812496D01*
X111707408Y-134988442D01*
X111646389Y-135176236D01*
X111615500Y-135371263D01*
X111615500Y-135568736D01*
X111646389Y-135763763D01*
X111707408Y-135951558D01*
X111797055Y-136127499D01*
X111797056Y-136127501D01*
X111823098Y-136163346D01*
X111823099Y-136163346D01*
X112399284Y-135587161D01*
X112418052Y-135657203D01*
X112481903Y-135767797D01*
X112572203Y-135858097D01*
X112682797Y-135921948D01*
X112752836Y-135940714D01*
X112176652Y-136516898D01*
X112176652Y-136516899D01*
X112212502Y-136542945D01*
X112332787Y-136604234D01*
X112383583Y-136652209D01*
X112400378Y-136720030D01*
X112377840Y-136786165D01*
X112332787Y-136825204D01*
X112212234Y-136886628D01*
X112212231Y-136886630D01*
X112159153Y-136925194D01*
X112052422Y-137002739D01*
X112052420Y-137002741D01*
X112052419Y-137002741D01*
X111912741Y-137142419D01*
X111912741Y-137142420D01*
X111912739Y-137142422D01*
X111880288Y-137187087D01*
X111796630Y-137302231D01*
X111796625Y-137302239D01*
X111706949Y-137478239D01*
X111706945Y-137478249D01*
X111645901Y-137666123D01*
X111615000Y-137861223D01*
X98945000Y-137861223D01*
X98914098Y-137666123D01*
X98914098Y-137666120D01*
X98853054Y-137478247D01*
X98763373Y-137302236D01*
X98647261Y-137142422D01*
X98507578Y-137002739D01*
X98347764Y-136886627D01*
X98227763Y-136825484D01*
X98176968Y-136777511D01*
X98160172Y-136709690D01*
X98182709Y-136643555D01*
X98227763Y-136604515D01*
X98347764Y-136543373D01*
X98507578Y-136427261D01*
X98647261Y-136287578D01*
X98763373Y-136127764D01*
X98853054Y-135951753D01*
X98914098Y-135763880D01*
X98942918Y-135581918D01*
X98945000Y-135568776D01*
X98945000Y-135371223D01*
X98914098Y-135176123D01*
X98914098Y-135176120D01*
X98853054Y-134988247D01*
X98763373Y-134812236D01*
X98647261Y-134652422D01*
X98507578Y-134512739D01*
X98347764Y-134396627D01*
X98178466Y-134310366D01*
X98178465Y-134310366D01*
X98171759Y-134306949D01*
X98171758Y-134306948D01*
X98171753Y-134306946D01*
X97983880Y-134245902D01*
X97983878Y-134245901D01*
X97983876Y-134245901D01*
X97788776Y-134215000D01*
X97788771Y-134215000D01*
X97591229Y-134215000D01*
X97591224Y-134215000D01*
X97396123Y-134245901D01*
X97208249Y-134306945D01*
X97208239Y-134306949D01*
X97032239Y-134396625D01*
X97032231Y-134396630D01*
X96955334Y-134452500D01*
X96872422Y-134512739D01*
X96872420Y-134512741D01*
X96872419Y-134512741D01*
X96752681Y-134632480D01*
X96691358Y-134665965D01*
X96621666Y-134660981D01*
X96577319Y-134632480D01*
X96457580Y-134512741D01*
X96457578Y-134512739D01*
X96297764Y-134396627D01*
X96286677Y-134390978D01*
X96121760Y-134306949D01*
X96121754Y-134306946D01*
X96121753Y-134306946D01*
X95933880Y-134245902D01*
X95933878Y-134245901D01*
X95933876Y-134245901D01*
X95738776Y-134215000D01*
X95738771Y-134215000D01*
X95541229Y-134215000D01*
X95541224Y-134215000D01*
X95346123Y-134245901D01*
X95158249Y-134306945D01*
X95158239Y-134306949D01*
X94982239Y-134396625D01*
X94982231Y-134396630D01*
X94905334Y-134452500D01*
X94822422Y-134512739D01*
X94822420Y-134512741D01*
X94822419Y-134512741D01*
X94682741Y-134652419D01*
X94682741Y-134652420D01*
X94682739Y-134652422D01*
X94657967Y-134686518D01*
X94566630Y-134812231D01*
X94566628Y-134812234D01*
X94529484Y-134885134D01*
X94481509Y-134935930D01*
X94413688Y-134952725D01*
X94347553Y-134930187D01*
X94304102Y-134875472D01*
X94294999Y-134828839D01*
X94294999Y-134667629D01*
X94294998Y-134667623D01*
X94292836Y-134647513D01*
X94288591Y-134608017D01*
X94267408Y-134551223D01*
X94238297Y-134473171D01*
X94238293Y-134473164D01*
X94152047Y-134357955D01*
X94152044Y-134357952D01*
X94036835Y-134271706D01*
X94036828Y-134271702D01*
X93901982Y-134221408D01*
X93901983Y-134221408D01*
X93842383Y-134215001D01*
X93842381Y-134215000D01*
X93842373Y-134215000D01*
X93842364Y-134215000D01*
X92237629Y-134215000D01*
X92237623Y-134215001D01*
X92178016Y-134221408D01*
X92043171Y-134271702D01*
X92043164Y-134271706D01*
X91927955Y-134357952D01*
X91883451Y-134417401D01*
X91827516Y-134459272D01*
X91757825Y-134464255D01*
X91711301Y-134443408D01*
X91647503Y-134397057D01*
X91471558Y-134307408D01*
X91283763Y-134246389D01*
X91088736Y-134215500D01*
X90891264Y-134215500D01*
X90696236Y-134246389D01*
X90508442Y-134307408D01*
X90332496Y-134397057D01*
X90296652Y-134423098D01*
X90296652Y-134423099D01*
X90872837Y-134999284D01*
X90802797Y-135018052D01*
X90692203Y-135081903D01*
X90601903Y-135172203D01*
X90538052Y-135282797D01*
X90519284Y-135352837D01*
X89943099Y-134776652D01*
X89943098Y-134776652D01*
X89917057Y-134812496D01*
X89827408Y-134988442D01*
X89766389Y-135176236D01*
X89735500Y-135371263D01*
X89735500Y-135568736D01*
X89766389Y-135763763D01*
X89827408Y-135951558D01*
X89917055Y-136127499D01*
X89917056Y-136127501D01*
X89943098Y-136163346D01*
X89943099Y-136163346D01*
X90519284Y-135587161D01*
X90538052Y-135657203D01*
X90601903Y-135767797D01*
X90692203Y-135858097D01*
X90802797Y-135921948D01*
X90872836Y-135940714D01*
X90296652Y-136516898D01*
X90296652Y-136516899D01*
X90332502Y-136542945D01*
X90452787Y-136604234D01*
X90503583Y-136652209D01*
X90520378Y-136720030D01*
X90497840Y-136786165D01*
X90452787Y-136825204D01*
X90332234Y-136886628D01*
X90332231Y-136886630D01*
X90279153Y-136925194D01*
X90172422Y-137002739D01*
X90172420Y-137002741D01*
X90172419Y-137002741D01*
X90032741Y-137142419D01*
X90032741Y-137142420D01*
X90032739Y-137142422D01*
X90000288Y-137187087D01*
X89916630Y-137302231D01*
X89916625Y-137302239D01*
X89826949Y-137478239D01*
X89826945Y-137478249D01*
X89765901Y-137666123D01*
X89735000Y-137861223D01*
X76846177Y-137861223D01*
X76789458Y-137612716D01*
X76789454Y-137612704D01*
X76692156Y-137334646D01*
X76692147Y-137334624D01*
X76564331Y-137069211D01*
X76407591Y-136819761D01*
X76288335Y-136670217D01*
X75569990Y-137388562D01*
X75496853Y-137287898D01*
X75317102Y-137108147D01*
X75216436Y-137035008D01*
X75934782Y-136316662D01*
X75785252Y-136197417D01*
X75785248Y-136197414D01*
X75535788Y-136040668D01*
X75270375Y-135912852D01*
X75270353Y-135912843D01*
X74992295Y-135815545D01*
X74992283Y-135815541D01*
X74705064Y-135749986D01*
X74705048Y-135749984D01*
X74412309Y-135717000D01*
X74117690Y-135717000D01*
X73824951Y-135749984D01*
X73824935Y-135749986D01*
X73537716Y-135815541D01*
X73537704Y-135815545D01*
X73259646Y-135912843D01*
X73259624Y-135912852D01*
X72994211Y-136040668D01*
X72744755Y-136197412D01*
X72595216Y-136316662D01*
X73313563Y-137035009D01*
X73212898Y-137108147D01*
X73033147Y-137287898D01*
X72960009Y-137388563D01*
X72241662Y-136670216D01*
X72122412Y-136819755D01*
X71965668Y-137069211D01*
X71837852Y-137334624D01*
X71837843Y-137334646D01*
X71740545Y-137612704D01*
X71740541Y-137612716D01*
X71674986Y-137899935D01*
X71674984Y-137899951D01*
X71642000Y-138192690D01*
X66795965Y-138192690D01*
X66769319Y-138024458D01*
X66769319Y-138024455D01*
X66703778Y-137822741D01*
X66703776Y-137822738D01*
X66607489Y-137633763D01*
X66607481Y-137633750D01*
X66568481Y-137580071D01*
X66568480Y-137580070D01*
X65991034Y-138157516D01*
X65981496Y-138121918D01*
X65907112Y-137993082D01*
X65801918Y-137887888D01*
X65673082Y-137813504D01*
X65637480Y-137803964D01*
X66226640Y-137214806D01*
X66231812Y-137190185D01*
X66280862Y-137140427D01*
X66349027Y-137125087D01*
X66360465Y-137126358D01*
X66493950Y-137147500D01*
X66706050Y-137147500D01*
X66915541Y-137114319D01*
X66915544Y-137114319D01*
X67117258Y-137048778D01*
X67117261Y-137048776D01*
X67306244Y-136952485D01*
X67359927Y-136913481D01*
X67359927Y-136913480D01*
X66782482Y-136336035D01*
X66818082Y-136326496D01*
X66946918Y-136252112D01*
X67052112Y-136146918D01*
X67126496Y-136018082D01*
X67136035Y-135982482D01*
X67713480Y-136559927D01*
X67713481Y-136559927D01*
X67752485Y-136506244D01*
X67848777Y-136317259D01*
X67914319Y-136115544D01*
X67914319Y-136115541D01*
X67947500Y-135906050D01*
X67947500Y-135693949D01*
X67914319Y-135484458D01*
X67914319Y-135484455D01*
X67888410Y-135404715D01*
X67848778Y-135282741D01*
X67848776Y-135282738D01*
X67752489Y-135093763D01*
X67752481Y-135093750D01*
X67713481Y-135040071D01*
X67713480Y-135040070D01*
X67136034Y-135617516D01*
X67126496Y-135581918D01*
X67052112Y-135453082D01*
X66946918Y-135347888D01*
X66818082Y-135273504D01*
X66782480Y-135263964D01*
X67359928Y-134686518D01*
X67306244Y-134647514D01*
X67117261Y-134551223D01*
X67117258Y-134551221D01*
X66915542Y-134485680D01*
X66706050Y-134452500D01*
X66493950Y-134452500D01*
X66284458Y-134485680D01*
X66284455Y-134485680D01*
X66082741Y-134551221D01*
X66082738Y-134551222D01*
X65893757Y-134647513D01*
X65840071Y-134686518D01*
X65840071Y-134686519D01*
X66417517Y-135263965D01*
X66381918Y-135273504D01*
X66253082Y-135347888D01*
X66147888Y-135453082D01*
X66073504Y-135581918D01*
X66063965Y-135617517D01*
X65486518Y-135040070D01*
X65464724Y-135041786D01*
X65445268Y-135041786D01*
X65423480Y-135040071D01*
X64846034Y-135617516D01*
X64836496Y-135581918D01*
X64762112Y-135453082D01*
X64656918Y-135347888D01*
X64528082Y-135273504D01*
X64492480Y-135263964D01*
X65069928Y-134686518D01*
X65016244Y-134647514D01*
X64827261Y-134551223D01*
X64827258Y-134551221D01*
X64625542Y-134485680D01*
X64416050Y-134452500D01*
X64203950Y-134452500D01*
X63994458Y-134485680D01*
X63994455Y-134485680D01*
X63792741Y-134551221D01*
X63792738Y-134551222D01*
X63603757Y-134647513D01*
X63550071Y-134686518D01*
X63550071Y-134686519D01*
X64127517Y-135263965D01*
X64091918Y-135273504D01*
X63963082Y-135347888D01*
X63857888Y-135453082D01*
X63783504Y-135581918D01*
X63773965Y-135617517D01*
X63196518Y-135040070D01*
X63174724Y-135041786D01*
X63155268Y-135041786D01*
X63133480Y-135040071D01*
X62556034Y-135617516D01*
X62546496Y-135581918D01*
X62472112Y-135453082D01*
X62366918Y-135347888D01*
X62238082Y-135273504D01*
X62202480Y-135263964D01*
X62779928Y-134686518D01*
X62726244Y-134647514D01*
X62537261Y-134551223D01*
X62537258Y-134551221D01*
X62335542Y-134485680D01*
X62126050Y-134452500D01*
X61913950Y-134452500D01*
X61704458Y-134485680D01*
X61704455Y-134485680D01*
X61502741Y-134551221D01*
X61502738Y-134551222D01*
X61313757Y-134647513D01*
X61260071Y-134686518D01*
X61260071Y-134686519D01*
X61837517Y-135263965D01*
X61801918Y-135273504D01*
X61673082Y-135347888D01*
X61567888Y-135453082D01*
X61493504Y-135581918D01*
X61483965Y-135617517D01*
X60906518Y-135040070D01*
X60884724Y-135041786D01*
X60865268Y-135041786D01*
X60843480Y-135040071D01*
X60266034Y-135617516D01*
X60256496Y-135581918D01*
X60182112Y-135453082D01*
X60076918Y-135347888D01*
X59948082Y-135273504D01*
X59912480Y-135263964D01*
X60489928Y-134686518D01*
X60436244Y-134647514D01*
X60247261Y-134551223D01*
X60247258Y-134551221D01*
X60045542Y-134485680D01*
X59836050Y-134452500D01*
X59623950Y-134452500D01*
X59414458Y-134485680D01*
X59414455Y-134485680D01*
X59212741Y-134551221D01*
X59212738Y-134551222D01*
X59023757Y-134647513D01*
X58970071Y-134686518D01*
X58970071Y-134686519D01*
X59547517Y-135263965D01*
X59511918Y-135273504D01*
X59383082Y-135347888D01*
X59277888Y-135453082D01*
X59203504Y-135581918D01*
X59193965Y-135617517D01*
X58616518Y-135040070D01*
X58594724Y-135041786D01*
X58575268Y-135041786D01*
X58553480Y-135040071D01*
X57976034Y-135617516D01*
X57966496Y-135581918D01*
X57892112Y-135453082D01*
X57786918Y-135347888D01*
X57658082Y-135273504D01*
X57622480Y-135263964D01*
X58199928Y-134686518D01*
X58146244Y-134647514D01*
X57957261Y-134551223D01*
X57957258Y-134551221D01*
X57755542Y-134485680D01*
X57546050Y-134452500D01*
X57333950Y-134452500D01*
X57124458Y-134485680D01*
X57124455Y-134485680D01*
X56922741Y-134551221D01*
X56922738Y-134551222D01*
X56733757Y-134647513D01*
X56680071Y-134686518D01*
X56680071Y-134686519D01*
X57257517Y-135263965D01*
X57221918Y-135273504D01*
X57093082Y-135347888D01*
X56987888Y-135453082D01*
X56913504Y-135581918D01*
X56903965Y-135617517D01*
X56326519Y-135040071D01*
X56326518Y-135040071D01*
X56287513Y-135093757D01*
X56191222Y-135282738D01*
X56191221Y-135282741D01*
X56125680Y-135484455D01*
X56125680Y-135484458D01*
X56092500Y-135693949D01*
X56092500Y-135906050D01*
X56125680Y-136115541D01*
X56125680Y-136115544D01*
X56191221Y-136317258D01*
X56191223Y-136317261D01*
X56287514Y-136506244D01*
X56326518Y-136559927D01*
X56326518Y-136559928D01*
X56903964Y-135982481D01*
X56913504Y-136018082D01*
X56987888Y-136146918D01*
X57093082Y-136252112D01*
X57221918Y-136326496D01*
X57257517Y-136336034D01*
X56668170Y-136925380D01*
X56663145Y-136949305D01*
X56614093Y-136999061D01*
X56545928Y-137014400D01*
X56534493Y-137013129D01*
X56433216Y-136997088D01*
X56401090Y-136992000D01*
X56188910Y-136992000D01*
X56144330Y-136999061D01*
X55979341Y-137025193D01*
X55979338Y-137025193D01*
X55777550Y-137090758D01*
X55777547Y-137090760D01*
X55588492Y-137187088D01*
X55588489Y-137187090D01*
X55416834Y-137311805D01*
X55266805Y-137461834D01*
X55142090Y-137633489D01*
X55142088Y-137633492D01*
X55045760Y-137822547D01*
X55045758Y-137822550D01*
X54980193Y-138024338D01*
X54980193Y-138024341D01*
X54947000Y-138233910D01*
X51898000Y-138233910D01*
X51898000Y-138192692D01*
X51897999Y-138192690D01*
X51865015Y-137899951D01*
X51865013Y-137899935D01*
X51799458Y-137612716D01*
X51799454Y-137612704D01*
X51702156Y-137334646D01*
X51702147Y-137334624D01*
X51574331Y-137069211D01*
X51417591Y-136819761D01*
X51298335Y-136670217D01*
X50579990Y-137388562D01*
X50506853Y-137287898D01*
X50327102Y-137108147D01*
X50226436Y-137035008D01*
X50944782Y-136316662D01*
X50795252Y-136197417D01*
X50795248Y-136197414D01*
X50545788Y-136040668D01*
X50280375Y-135912852D01*
X50280353Y-135912843D01*
X50002295Y-135815545D01*
X50002283Y-135815541D01*
X49977863Y-135809968D01*
X49715064Y-135749986D01*
X49715048Y-135749984D01*
X49422309Y-135717000D01*
X49127690Y-135717000D01*
X48834951Y-135749984D01*
X48834935Y-135749986D01*
X48547716Y-135815541D01*
X48547704Y-135815545D01*
X48269646Y-135912843D01*
X48269624Y-135912852D01*
X48004211Y-136040668D01*
X47754755Y-136197412D01*
X47605216Y-136316662D01*
X48323563Y-137035009D01*
X48222898Y-137108147D01*
X48043147Y-137287898D01*
X47970009Y-137388563D01*
X47251662Y-136670216D01*
X47132412Y-136819755D01*
X46975668Y-137069211D01*
X46847852Y-137334624D01*
X46847843Y-137334646D01*
X46750545Y-137612704D01*
X46750541Y-137612716D01*
X46684986Y-137899935D01*
X46684984Y-137899951D01*
X46652000Y-138192690D01*
X43709425Y-138192690D01*
X43709425Y-132320724D01*
X85302500Y-132320724D01*
X85302500Y-132619275D01*
X85341467Y-132915268D01*
X85418740Y-133203653D01*
X85532987Y-133479470D01*
X85532992Y-133479481D01*
X85682260Y-133738018D01*
X85682271Y-133738034D01*
X85802162Y-133894281D01*
X85802164Y-133894281D01*
X86582855Y-133113590D01*
X86676133Y-133241976D01*
X86808024Y-133373867D01*
X86936408Y-133467143D01*
X86155717Y-134247834D01*
X86155717Y-134247835D01*
X86311965Y-134367728D01*
X86311981Y-134367739D01*
X86570518Y-134517007D01*
X86570529Y-134517012D01*
X86846346Y-134631259D01*
X87134731Y-134708532D01*
X87430724Y-134747500D01*
X87729276Y-134747500D01*
X88025268Y-134708532D01*
X88313653Y-134631259D01*
X88589470Y-134517012D01*
X88589481Y-134517007D01*
X88848018Y-134367739D01*
X88848026Y-134367733D01*
X89004281Y-134247834D01*
X88223591Y-133467144D01*
X88351976Y-133373867D01*
X88483867Y-133241976D01*
X88577144Y-133113591D01*
X89357834Y-133894281D01*
X89477733Y-133738026D01*
X89477739Y-133738018D01*
X89627007Y-133479481D01*
X89627012Y-133479470D01*
X89683777Y-133342429D01*
X89741259Y-133203653D01*
X89818532Y-132915268D01*
X89857500Y-132619275D01*
X89857500Y-132320724D01*
X89818532Y-132024731D01*
X89741258Y-131736343D01*
X89665779Y-131554118D01*
X89647804Y-131510724D01*
X92062500Y-131510724D01*
X92062500Y-131809275D01*
X92101467Y-132105268D01*
X92178740Y-132393653D01*
X92292987Y-132669470D01*
X92292992Y-132669481D01*
X92442260Y-132928018D01*
X92442271Y-132928034D01*
X92562162Y-133084281D01*
X92562164Y-133084281D01*
X93342855Y-132303590D01*
X93436133Y-132431976D01*
X93568024Y-132563867D01*
X93696408Y-132657143D01*
X92915717Y-133437834D01*
X92915717Y-133437835D01*
X93071965Y-133557728D01*
X93071981Y-133557739D01*
X93330518Y-133707007D01*
X93330529Y-133707012D01*
X93606346Y-133821259D01*
X93894731Y-133898532D01*
X94190724Y-133937500D01*
X94489276Y-133937500D01*
X94785268Y-133898532D01*
X95073653Y-133821259D01*
X95349470Y-133707012D01*
X95349481Y-133707007D01*
X95608018Y-133557739D01*
X95608026Y-133557733D01*
X95764281Y-133437834D01*
X94983591Y-132657144D01*
X95111976Y-132563867D01*
X95243867Y-132431976D01*
X95337144Y-132303591D01*
X96117834Y-133084281D01*
X96237733Y-132928026D01*
X96237739Y-132928018D01*
X96387007Y-132669481D01*
X96387012Y-132669470D01*
X96501259Y-132393653D01*
X96520801Y-132320724D01*
X98822500Y-132320724D01*
X98822500Y-132619275D01*
X98861467Y-132915268D01*
X98938740Y-133203653D01*
X99052987Y-133479470D01*
X99052992Y-133479481D01*
X99202260Y-133738018D01*
X99202271Y-133738034D01*
X99322162Y-133894281D01*
X99322164Y-133894281D01*
X100102855Y-133113590D01*
X100196133Y-133241976D01*
X100328024Y-133373867D01*
X100456408Y-133467143D01*
X99675717Y-134247834D01*
X99675717Y-134247835D01*
X99831965Y-134367728D01*
X99831981Y-134367739D01*
X100090518Y-134517007D01*
X100090529Y-134517012D01*
X100366346Y-134631259D01*
X100654731Y-134708532D01*
X100950724Y-134747500D01*
X101249276Y-134747500D01*
X101545268Y-134708532D01*
X101833653Y-134631259D01*
X102109470Y-134517012D01*
X102109481Y-134517007D01*
X102368018Y-134367739D01*
X102368026Y-134367733D01*
X102524281Y-134247834D01*
X101743591Y-133467144D01*
X101871976Y-133373867D01*
X102003867Y-133241976D01*
X102097144Y-133113591D01*
X102877834Y-133894281D01*
X102997733Y-133738026D01*
X102997739Y-133738018D01*
X103147007Y-133479481D01*
X103147012Y-133479470D01*
X103261259Y-133203653D01*
X103338532Y-132915268D01*
X103377500Y-132619275D01*
X103377500Y-132320724D01*
X107182500Y-132320724D01*
X107182500Y-132619275D01*
X107221467Y-132915268D01*
X107298740Y-133203653D01*
X107412987Y-133479470D01*
X107412992Y-133479481D01*
X107562260Y-133738018D01*
X107562271Y-133738034D01*
X107682162Y-133894281D01*
X107682164Y-133894281D01*
X108462855Y-133113590D01*
X108556133Y-133241976D01*
X108688024Y-133373867D01*
X108816408Y-133467143D01*
X108035717Y-134247834D01*
X108035717Y-134247835D01*
X108191965Y-134367728D01*
X108191981Y-134367739D01*
X108450518Y-134517007D01*
X108450529Y-134517012D01*
X108726346Y-134631259D01*
X109014731Y-134708532D01*
X109310724Y-134747500D01*
X109609276Y-134747500D01*
X109905268Y-134708532D01*
X110193653Y-134631259D01*
X110469470Y-134517012D01*
X110469481Y-134517007D01*
X110728018Y-134367739D01*
X110728026Y-134367733D01*
X110884281Y-134247834D01*
X110103591Y-133467144D01*
X110231976Y-133373867D01*
X110363867Y-133241976D01*
X110457144Y-133113591D01*
X111237834Y-133894281D01*
X111357733Y-133738026D01*
X111357739Y-133738018D01*
X111507007Y-133479481D01*
X111507012Y-133479470D01*
X111563777Y-133342429D01*
X111621259Y-133203653D01*
X111698532Y-132915268D01*
X111737500Y-132619275D01*
X111737500Y-132320724D01*
X111698532Y-132024731D01*
X111621258Y-131736343D01*
X111545779Y-131554118D01*
X111527804Y-131510724D01*
X113942500Y-131510724D01*
X113942500Y-131809275D01*
X113981467Y-132105268D01*
X114058740Y-132393653D01*
X114172987Y-132669470D01*
X114172992Y-132669481D01*
X114322260Y-132928018D01*
X114322271Y-132928034D01*
X114442162Y-133084281D01*
X114442164Y-133084281D01*
X115222855Y-132303590D01*
X115316133Y-132431976D01*
X115448024Y-132563867D01*
X115576408Y-132657143D01*
X114795717Y-133437834D01*
X114795717Y-133437835D01*
X114951965Y-133557728D01*
X114951981Y-133557739D01*
X115210518Y-133707007D01*
X115210529Y-133707012D01*
X115486346Y-133821259D01*
X115774731Y-133898532D01*
X116070724Y-133937500D01*
X116369276Y-133937500D01*
X116665268Y-133898532D01*
X116953653Y-133821259D01*
X117229470Y-133707012D01*
X117229481Y-133707007D01*
X117488018Y-133557739D01*
X117488026Y-133557733D01*
X117644281Y-133437834D01*
X116863591Y-132657144D01*
X116991976Y-132563867D01*
X117123867Y-132431976D01*
X117217144Y-132303591D01*
X117997834Y-133084281D01*
X118117733Y-132928026D01*
X118117739Y-132928018D01*
X118267007Y-132669481D01*
X118267012Y-132669470D01*
X118381259Y-132393653D01*
X118400801Y-132320724D01*
X120702500Y-132320724D01*
X120702500Y-132619275D01*
X120741467Y-132915268D01*
X120818740Y-133203653D01*
X120932987Y-133479470D01*
X120932992Y-133479481D01*
X121082260Y-133738018D01*
X121082271Y-133738034D01*
X121202162Y-133894281D01*
X121202164Y-133894281D01*
X121982855Y-133113590D01*
X122076133Y-133241976D01*
X122208024Y-133373867D01*
X122336408Y-133467143D01*
X121555717Y-134247834D01*
X121555717Y-134247835D01*
X121711965Y-134367728D01*
X121711981Y-134367739D01*
X121970518Y-134517007D01*
X121970529Y-134517012D01*
X122246346Y-134631259D01*
X122534731Y-134708532D01*
X122830724Y-134747500D01*
X123129276Y-134747500D01*
X123425268Y-134708532D01*
X123713653Y-134631259D01*
X123989470Y-134517012D01*
X123989481Y-134517007D01*
X124248018Y-134367739D01*
X124248026Y-134367733D01*
X124404281Y-134247834D01*
X123623591Y-133467144D01*
X123751976Y-133373867D01*
X123883867Y-133241976D01*
X123977144Y-133113591D01*
X124757834Y-133894281D01*
X124877733Y-133738026D01*
X124877739Y-133738018D01*
X125027007Y-133479481D01*
X125027012Y-133479470D01*
X125141259Y-133203653D01*
X125218532Y-132915268D01*
X125257500Y-132619275D01*
X125257500Y-132320724D01*
X125218532Y-132024731D01*
X125141259Y-131736346D01*
X125027012Y-131460529D01*
X125027007Y-131460518D01*
X124877739Y-131201981D01*
X124877728Y-131201965D01*
X124757834Y-131045717D01*
X123977143Y-131826408D01*
X123883867Y-131698024D01*
X123751976Y-131566133D01*
X123623589Y-131472855D01*
X124404281Y-130692164D01*
X124404281Y-130692162D01*
X124248034Y-130572271D01*
X124248018Y-130572260D01*
X123989481Y-130422992D01*
X123989470Y-130422987D01*
X123713653Y-130308740D01*
X123425268Y-130231467D01*
X123129276Y-130192500D01*
X122830724Y-130192500D01*
X122534731Y-130231467D01*
X122246346Y-130308740D01*
X121970529Y-130422987D01*
X121970518Y-130422992D01*
X121711981Y-130572260D01*
X121711964Y-130572271D01*
X121555717Y-130692163D01*
X121555717Y-130692164D01*
X122336408Y-131472855D01*
X122208024Y-131566133D01*
X122076133Y-131698024D01*
X121982855Y-131826408D01*
X121202164Y-131045717D01*
X121202163Y-131045717D01*
X121082271Y-131201964D01*
X121082260Y-131201981D01*
X120932992Y-131460518D01*
X120932987Y-131460529D01*
X120818740Y-131736346D01*
X120741467Y-132024731D01*
X120702500Y-132320724D01*
X118400801Y-132320724D01*
X118410488Y-132284572D01*
X118458532Y-132105268D01*
X118497500Y-131809275D01*
X118497500Y-131510724D01*
X118458532Y-131214731D01*
X118381258Y-130926343D01*
X118323777Y-130787569D01*
X118267012Y-130650529D01*
X118267007Y-130650518D01*
X118117739Y-130391981D01*
X118117728Y-130391965D01*
X117997834Y-130235717D01*
X117217143Y-131016408D01*
X117123867Y-130888024D01*
X116991976Y-130756133D01*
X116863589Y-130662855D01*
X117644281Y-129882164D01*
X117644281Y-129882162D01*
X117488034Y-129762271D01*
X117488018Y-129762260D01*
X117229481Y-129612992D01*
X117229470Y-129612987D01*
X116953653Y-129498740D01*
X116665268Y-129421467D01*
X116369276Y-129382500D01*
X116070724Y-129382500D01*
X115774731Y-129421467D01*
X115486346Y-129498740D01*
X115210529Y-129612987D01*
X115210518Y-129612992D01*
X114951981Y-129762260D01*
X114951964Y-129762271D01*
X114795717Y-129882163D01*
X114795717Y-129882164D01*
X115576408Y-130662855D01*
X115448024Y-130756133D01*
X115316133Y-130888024D01*
X115222855Y-131016408D01*
X114442164Y-130235717D01*
X114442163Y-130235717D01*
X114322271Y-130391964D01*
X114322260Y-130391981D01*
X114172992Y-130650518D01*
X114172987Y-130650529D01*
X114058740Y-130926346D01*
X113981467Y-131214731D01*
X113942500Y-131510724D01*
X111527804Y-131510724D01*
X111507012Y-131460530D01*
X111507007Y-131460518D01*
X111357739Y-131201981D01*
X111357728Y-131201965D01*
X111237834Y-131045717D01*
X110457143Y-131826408D01*
X110363867Y-131698024D01*
X110231976Y-131566133D01*
X110103589Y-131472855D01*
X110884281Y-130692164D01*
X110884281Y-130692162D01*
X110728034Y-130572271D01*
X110728018Y-130572260D01*
X110469481Y-130422992D01*
X110469470Y-130422987D01*
X110193653Y-130308740D01*
X109905268Y-130231467D01*
X109609276Y-130192500D01*
X109310724Y-130192500D01*
X109014731Y-130231467D01*
X108726346Y-130308740D01*
X108450529Y-130422987D01*
X108450518Y-130422992D01*
X108191981Y-130572260D01*
X108191964Y-130572271D01*
X108035717Y-130692163D01*
X108035717Y-130692164D01*
X108816408Y-131472855D01*
X108688024Y-131566133D01*
X108556133Y-131698024D01*
X108462855Y-131826408D01*
X107682164Y-131045717D01*
X107682163Y-131045717D01*
X107562271Y-131201964D01*
X107562260Y-131201981D01*
X107412992Y-131460518D01*
X107412987Y-131460529D01*
X107298740Y-131736346D01*
X107221467Y-132024731D01*
X107182500Y-132320724D01*
X103377500Y-132320724D01*
X103338532Y-132024731D01*
X103261259Y-131736346D01*
X103147012Y-131460529D01*
X103147007Y-131460518D01*
X102997739Y-131201981D01*
X102997728Y-131201965D01*
X102877834Y-131045717D01*
X102097143Y-131826408D01*
X102003867Y-131698024D01*
X101871976Y-131566133D01*
X101743589Y-131472855D01*
X102524281Y-130692164D01*
X102524281Y-130692162D01*
X102368034Y-130572271D01*
X102368018Y-130572260D01*
X102109481Y-130422992D01*
X102109470Y-130422987D01*
X101833653Y-130308740D01*
X101545268Y-130231467D01*
X101249276Y-130192500D01*
X100950724Y-130192500D01*
X100654731Y-130231467D01*
X100366346Y-130308740D01*
X100090529Y-130422987D01*
X100090518Y-130422992D01*
X99831981Y-130572260D01*
X99831964Y-130572271D01*
X99675717Y-130692163D01*
X99675717Y-130692164D01*
X100456408Y-131472855D01*
X100328024Y-131566133D01*
X100196133Y-131698024D01*
X100102855Y-131826408D01*
X99322164Y-131045717D01*
X99322163Y-131045717D01*
X99202271Y-131201964D01*
X99202260Y-131201981D01*
X99052992Y-131460518D01*
X99052987Y-131460529D01*
X98938740Y-131736346D01*
X98861467Y-132024731D01*
X98822500Y-132320724D01*
X96520801Y-132320724D01*
X96530488Y-132284572D01*
X96578532Y-132105268D01*
X96617500Y-131809275D01*
X96617500Y-131510724D01*
X96578532Y-131214731D01*
X96501258Y-130926343D01*
X96443777Y-130787569D01*
X96387012Y-130650529D01*
X96387007Y-130650518D01*
X96237739Y-130391981D01*
X96237728Y-130391965D01*
X96117834Y-130235717D01*
X95337143Y-131016408D01*
X95243867Y-130888024D01*
X95111976Y-130756133D01*
X94983589Y-130662855D01*
X95764281Y-129882164D01*
X95764281Y-129882162D01*
X95608034Y-129762271D01*
X95608018Y-129762260D01*
X95349481Y-129612992D01*
X95349470Y-129612987D01*
X95073653Y-129498740D01*
X94785268Y-129421467D01*
X94489276Y-129382500D01*
X94190724Y-129382500D01*
X93894731Y-129421467D01*
X93606346Y-129498740D01*
X93330529Y-129612987D01*
X93330518Y-129612992D01*
X93071981Y-129762260D01*
X93071964Y-129762271D01*
X92915717Y-129882163D01*
X92915717Y-129882164D01*
X93696408Y-130662855D01*
X93568024Y-130756133D01*
X93436133Y-130888024D01*
X93342855Y-131016408D01*
X92562164Y-130235717D01*
X92562163Y-130235717D01*
X92442271Y-130391964D01*
X92442260Y-130391981D01*
X92292992Y-130650518D01*
X92292987Y-130650529D01*
X92178740Y-130926346D01*
X92101467Y-131214731D01*
X92062500Y-131510724D01*
X89647804Y-131510724D01*
X89627012Y-131460530D01*
X89627007Y-131460518D01*
X89477739Y-131201981D01*
X89477728Y-131201965D01*
X89357834Y-131045717D01*
X88577143Y-131826408D01*
X88483867Y-131698024D01*
X88351976Y-131566133D01*
X88223589Y-131472855D01*
X89004281Y-130692164D01*
X89004281Y-130692162D01*
X88848034Y-130572271D01*
X88848018Y-130572260D01*
X88589481Y-130422992D01*
X88589470Y-130422987D01*
X88313653Y-130308740D01*
X88025268Y-130231467D01*
X87729276Y-130192500D01*
X87430724Y-130192500D01*
X87134731Y-130231467D01*
X86846346Y-130308740D01*
X86570529Y-130422987D01*
X86570518Y-130422992D01*
X86311981Y-130572260D01*
X86311964Y-130572271D01*
X86155717Y-130692163D01*
X86155717Y-130692164D01*
X86936408Y-131472855D01*
X86808024Y-131566133D01*
X86676133Y-131698024D01*
X86582855Y-131826408D01*
X85802164Y-131045717D01*
X85802163Y-131045717D01*
X85682271Y-131201964D01*
X85682260Y-131201981D01*
X85532992Y-131460518D01*
X85532987Y-131460529D01*
X85418740Y-131736346D01*
X85341467Y-132024731D01*
X85302500Y-132320724D01*
X43709425Y-132320724D01*
X43709425Y-128677682D01*
X41496135Y-128677682D01*
X41496135Y-139841064D01*
X40500500Y-139841064D01*
X40500500Y-129391819D01*
X40500766Y-129383704D01*
X40510811Y-129230544D01*
X40517075Y-129135033D01*
X40519191Y-129118961D01*
X40567047Y-128878517D01*
X40571249Y-128862847D01*
X40650094Y-128630718D01*
X40656293Y-128615760D01*
X40764790Y-128395897D01*
X40772894Y-128381870D01*
X40909164Y-128178075D01*
X40919036Y-128165219D01*
X41080762Y-127980957D01*
X41092218Y-127969511D01*
X41276630Y-127807944D01*
X41289493Y-127798085D01*
X41493401Y-127662001D01*
X41507444Y-127653904D01*
X41727388Y-127545613D01*
X41742378Y-127539416D01*
X41974570Y-127460780D01*
X41990238Y-127456594D01*
X42230726Y-127408952D01*
X42246792Y-127406850D01*
X42495520Y-127390761D01*
X42503484Y-127390503D01*
X42565438Y-127390559D01*
X42565657Y-127390500D01*
X42573954Y-127390500D01*
X127498173Y-127390500D01*
X127506283Y-127390765D01*
G37*
%TD.AperFunction*%
%TD*%
M02*
