M48
; DRILL file {KiCad 9.0.2} date 2025-07-24T16:43:21+0200
; FORMAT={-:-/ absolute / inch / decimal}
; #@! TF.CreationDate,2025-07-24T16:43:21+02:00
; #@! TF.GenerationSoftware,Kicad,Pcbnew,9.0.2
; #@! TF.FileFunction,Plated,1,2,PTH
FMAT,2
INCH
; #@! TA.AperFunction,Plated,PTH,ViaDrill
T1C0.0079
; #@! TA.AperFunction,Plated,PTH,ViaDrill
T2C0.0118
; #@! TA.AperFunction,Plated,PTH,ComponentDrill
T3C0.0382
; #@! TA.AperFunction,Plated,PTH,ComponentDrill
T4C0.0394
; #@! TA.AperFunction,Plated,PTH,ComponentDrill
T5C0.0445
; #@! TA.AperFunction,Plated,PTH,ComponentDrill
T6C0.0933
; #@! TA.AperFunction,Plated,PTH,ComponentDrill
T7C0.1272
%
G90
G05
T1
X1.5945Y-5.1067
X1.5945Y-5.1854
X1.5945Y-5.2642
X1.5945Y-5.3429
X1.5945Y-5.4217
X1.5945Y-5.5004
X1.5945Y-5.5791
X1.5945Y-5.6579
X1.5945Y-5.7366
X1.5945Y-5.8154
X1.5945Y-5.8941
X1.5945Y-5.9728
X1.5945Y-6.0516
X1.6732Y-5.0154
X1.6732Y-6.0909
X1.752Y-5.0154
X1.752Y-6.0909
X1.8307Y-5.0154
X1.8307Y-6.0909
X1.9094Y-5.0154
X1.9094Y-6.0909
X1.9882Y-5.0154
X1.9882Y-6.0909
X2.0669Y-5.0154
X2.0669Y-6.0909
X2.1457Y-5.0154
X2.1457Y-6.0909
X2.2244Y-5.0154
X2.2244Y-6.0909
X2.3031Y-5.0154
X2.3031Y-6.0909
X2.3819Y-5.0154
X2.3819Y-6.0909
X2.4606Y-5.0154
X2.4606Y-6.0909
X2.5394Y-5.0154
X2.5394Y-6.0909
X2.6181Y-5.0154
X2.6181Y-6.0909
X2.6969Y-5.0154
X2.6969Y-6.0909
X2.7756Y-5.0154
X2.7756Y-6.0909
X2.8543Y-5.0154
X2.8543Y-6.0909
X2.9331Y-5.0154
X2.9331Y-6.0909
X3.0118Y-5.0154
X3.0118Y-6.0909
X3.0906Y-5.0154
X3.0906Y-6.0909
X3.1693Y-5.0154
X3.1693Y-6.0909
X3.248Y-5.0154
X3.248Y-6.0909
X3.3268Y-5.0154
X3.3268Y-6.0909
X3.4055Y-5.0154
X3.4055Y-6.0909
X3.4843Y-5.0154
X3.4843Y-6.0909
X3.563Y-5.0154
X3.563Y-6.0909
X3.6417Y-5.0154
X3.6417Y-6.0909
X3.7205Y-5.0154
X3.7205Y-6.0909
X3.7992Y-5.0154
X3.7992Y-6.0909
X3.878Y-5.0154
X3.878Y-6.0909
X3.9567Y-5.0154
X3.9567Y-6.0909
X4.0354Y-5.0154
X4.0354Y-6.0909
X4.1142Y-5.0154
X4.1142Y-6.0909
X4.1929Y-5.0154
X4.1929Y-6.0909
X4.2717Y-5.0154
X4.2717Y-6.0909
X4.3504Y-5.0154
X4.3504Y-6.0909
X4.4291Y-5.0154
X4.4291Y-6.0909
X4.5079Y-5.0154
X4.5079Y-6.0909
X4.5866Y-5.0154
X4.5866Y-6.0909
X4.6654Y-5.0154
X4.6654Y-6.0909
X4.7441Y-5.0154
X4.7441Y-6.0909
X4.8228Y-5.0154
X4.8228Y-6.0909
X4.9016Y-5.0154
X4.9016Y-6.0909
X4.9803Y-5.0154
X4.9803Y-6.0909
X5.0984Y-5.094
X5.0984Y-5.1727
X5.0984Y-5.2515
X5.0984Y-5.3302
X5.0984Y-5.409
X5.0984Y-5.4877
X5.0984Y-5.5664
X5.0984Y-5.6452
X5.0984Y-5.7239
X5.0984Y-5.8027
X5.0984Y-5.8814
X5.0984Y-5.9601
X5.0984Y-6.0389
X5.0984Y-6.1176
T2
X4.5138Y-5.8819
X4.5551Y-5.6909
X4.7142Y-5.6913
X4.8252Y-5.8201
X4.9819Y-5.8224
X4.9823Y-6.0449
T3
X3.5823Y-5.3335
X3.5823Y-5.4315
X3.663Y-5.3335
X3.7654Y-5.3335
X3.8461Y-5.3335
X3.8461Y-5.4315
X4.4437Y-5.3335
X4.4437Y-5.4315
X4.5244Y-5.3335
X4.6268Y-5.3335
X4.7075Y-5.3335
X4.7075Y-5.4315
T4
X2.3437Y-5.9449
X2.4437Y-5.9449
X2.5437Y-5.9449
X2.6437Y-5.9449
X2.7437Y-5.9449
X2.8437Y-5.9449
X2.9437Y-5.9449
X3.0437Y-5.9449
X3.4437Y-5.9449
X3.5437Y-5.9449
X3.6437Y-5.9449
X3.7437Y-5.9449
X3.8437Y-5.9449
X3.9437Y-5.9449
X4.0437Y-5.9449
X4.1437Y-5.9449
X4.2437Y-5.9449
X4.3437Y-5.9449
T5
X2.2163Y-5.4465
X2.2614Y-5.3465
X2.2614Y-5.5465
X2.3065Y-5.4465
X2.3516Y-5.3465
X2.3516Y-5.5465
X2.3967Y-5.4465
X2.4417Y-5.3465
X2.4417Y-5.5465
X2.4868Y-5.4465
X2.5319Y-5.3465
X2.5319Y-5.5465
X2.577Y-5.4465
X2.622Y-5.3465
X2.622Y-5.5465
T6
X3.448Y-5.2154
X3.7142Y-5.1835
X3.9803Y-5.2154
X4.3094Y-5.2154
X4.5756Y-5.1835
X4.8417Y-5.2154
T7
X1.94Y-5.4465
X2.9238Y-5.4465
M30
