%TF.GenerationSoftware,KiCad,Pcbnew,9.0.2*%
%TF.CreationDate,2025-07-24T16:43:21+02:00*%
%TF.ProjectId,VGA_PS2,5647415f-5053-4322-9e6b-696361645f70,rev?*%
%TF.SameCoordinates,Original*%
%TF.FileFunction,Soldermask,Bot*%
%TF.FilePolarity,Negative*%
%FSLAX46Y46*%
G04 Gerber Fmt 4.6, Leading zero omitted, Abs format (unit mm)*
G04 Created by KiCad (PCBNEW 9.0.2) date 2025-07-24 16:43:21*
%MOMM*%
%LPD*%
G01*
G04 APERTURE LIST*
G04 Aperture macros list*
%AMRoundRect*
0 Rectangle with rounded corners*
0 $1 Rounding radius*
0 $2 $3 $4 $5 $6 $7 $8 $9 X,Y pos of 4 corners*
0 Add a 4 corners polygon primitive as box body*
4,1,4,$2,$3,$4,$5,$6,$7,$8,$9,$2,$3,0*
0 Add four circle primitives for the rounded corners*
1,1,$1+$1,$2,$3*
1,1,$1+$1,$4,$5*
1,1,$1+$1,$6,$7*
1,1,$1+$1,$8,$9*
0 Add four rect primitives between the rounded corners*
20,1,$1+$1,$2,$3,$4,$5,0*
20,1,$1+$1,$4,$5,$6,$7,0*
20,1,$1+$1,$6,$7,$8,$9,0*
20,1,$1+$1,$8,$9,$2,$3,0*%
G04 Aperture macros list end*
%ADD10RoundRect,0.102000X0.847500X0.847500X-0.847500X0.847500X-0.847500X-0.847500X0.847500X-0.847500X0*%
%ADD11C,1.899000*%
%ADD12C,4.450000*%
%ADD13R,1.509000X1.509000*%
%ADD14C,1.509000*%
%ADD15C,3.555000*%
%ADD16R,1.700000X1.700000*%
%ADD17C,1.700000*%
G04 APERTURE END LIST*
D10*
%TO.C,J1*%
X57440000Y-140880000D03*
D11*
X59730000Y-140880000D03*
X62020000Y-140880000D03*
X64310000Y-140880000D03*
X66600000Y-140880000D03*
X56295000Y-138340000D03*
X58585000Y-138340000D03*
X60875000Y-138340000D03*
X63165000Y-138340000D03*
X65455000Y-138340000D03*
X57440000Y-135800000D03*
X59730000Y-135800000D03*
X62020000Y-135800000D03*
X64310000Y-135800000D03*
X66600000Y-135800000D03*
D12*
X74265000Y-138340000D03*
X49275000Y-138340000D03*
%TD*%
D13*
%TO.C,J2*%
X114920000Y-135470000D03*
D14*
X117520000Y-135470000D03*
X112870000Y-135470000D03*
X119570000Y-135470000D03*
X112870000Y-137960000D03*
X119570000Y-137960000D03*
D15*
X116220000Y-131660000D03*
X122980000Y-132470000D03*
X109460000Y-132470000D03*
%TD*%
D13*
%TO.C,J3*%
X93040000Y-135470000D03*
D14*
X95640000Y-135470000D03*
X90990000Y-135470000D03*
X97690000Y-135470000D03*
X90990000Y-137960000D03*
X97690000Y-137960000D03*
D15*
X94340000Y-131660000D03*
X101100000Y-132470000D03*
X87580000Y-132470000D03*
%TD*%
D16*
%TO.C,J4*%
X110330000Y-151000000D03*
D17*
X107790000Y-151000000D03*
X105250000Y-151000000D03*
X102710000Y-151000000D03*
X100170000Y-151000000D03*
X97630000Y-151000000D03*
X95090000Y-151000000D03*
X92550000Y-151000000D03*
X90010000Y-151000000D03*
X87470000Y-151000000D03*
%TD*%
D16*
%TO.C,J5*%
X77310000Y-151000000D03*
D17*
X74770000Y-151000000D03*
X72230000Y-151000000D03*
X69690000Y-151000000D03*
X67150000Y-151000000D03*
X64610000Y-151000000D03*
X62070000Y-151000000D03*
X59530000Y-151000000D03*
%TD*%
M02*
