%TF.GenerationSoftware,KiCad,Pcbnew,9.0.2*%
%TF.CreationDate,2025-06-09T16:35:27+02:00*%
%TF.ProjectId,badgeCarrierCard,62616467-6543-4617-9272-696572436172,V2.5*%
%TF.SameCoordinates,Original*%
%TF.FileFunction,Drillmap*%
%TF.FilePolarity,Positive*%
%FSLAX45Y45*%
G04 Gerber Fmt 4.5, Leading zero omitted, Abs format (unit mm)*
G04 Created by KiCad (PCBNEW 9.0.2) date 2025-06-09 16:35:27*
%MOMM*%
%LPD*%
G01*
G04 APERTURE LIST*
%ADD10C,0.050000*%
%ADD11C,0.100000*%
%ADD12C,0.010000*%
%ADD13C,0.200000*%
%ADD14C,0.160000*%
%ADD15C,0.375000*%
G04 APERTURE END LIST*
D10*
X11750000Y-2700000D02*
X3250000Y-2700000D01*
X3250000Y-17500000D02*
G75*
G02*
X3000000Y-17250000I0J250000D01*
G01*
X5460000Y-17040000D02*
G75*
G02*
X5460000Y-17240000I0J-100000D01*
G01*
X3000000Y-2950000D02*
G75*
G02*
X3250000Y-2700000I250000J0D01*
G01*
X9540000Y-17240000D02*
G75*
G02*
X9540000Y-17040000I0J100000D01*
G01*
X12000000Y-17250000D02*
X12000000Y-2950000D01*
X5160000Y-17040000D02*
X5460000Y-17040000D01*
X12000000Y-17250000D02*
G75*
G02*
X11750000Y-17500000I-250000J0D01*
G01*
X9540000Y-17040000D02*
X9840000Y-17040000D01*
X5160000Y-17240000D02*
G75*
G02*
X5160000Y-17040000I0J100000D01*
G01*
X9540000Y-17240000D02*
X9840000Y-17240000D01*
X11750000Y-2700000D02*
G75*
G02*
X12000000Y-2950000I0J-250000D01*
G01*
X5160000Y-17240000D02*
X5460000Y-17240000D01*
X3250000Y-17500000D02*
X11750000Y-17500000D01*
X3000000Y-2950000D02*
X3000000Y-17250000D01*
X9840000Y-17040000D02*
G75*
G02*
X9840000Y-17240000I0J-100000D01*
G01*
X4593500Y-6258500D02*
X4593500Y-7958500D01*
X4893500Y-7958500D02*
X4893500Y-6258500D01*
X4593500Y-6258500D02*
G75*
G02*
X4893500Y-6258500I150000J0D01*
G01*
X4893500Y-7958500D02*
G75*
G02*
X4593500Y-7958500I-150000J0D01*
G01*
D11*
X3377500Y-11403728D02*
G75*
G02*
X3247500Y-11403728I-65000J0D01*
G01*
X3247500Y-11403728D02*
G75*
G02*
X3377500Y-11403728I65000J0D01*
G01*
X6572500Y-13902728D02*
G75*
G02*
X6452500Y-13902728I-60000J0D01*
G01*
X6452500Y-13902728D02*
G75*
G02*
X6572500Y-13902728I60000J0D01*
G01*
X8552500Y-13902728D02*
G75*
G02*
X8432500Y-13902728I-60000J0D01*
G01*
X8432500Y-13902728D02*
G75*
G02*
X8552500Y-13902728I60000J0D01*
G01*
X11752500Y-16333728D02*
G75*
G02*
X11622500Y-16333728I-65000J0D01*
G01*
X11622500Y-16333728D02*
G75*
G02*
X11752500Y-16333728I65000J0D01*
G01*
D12*
X11849454Y-5515961D02*
X11849454Y-5755961D01*
X11859478Y-5825961D02*
X11984454Y-5825961D01*
X11984454Y-5445961D02*
X11859657Y-5445961D01*
X11984454Y-5825961D02*
X11984454Y-5445961D01*
X11849454Y-5515961D02*
G75*
G02*
X11859657Y-5445828I40013J29988D01*
G01*
X11859478Y-5825961D02*
G75*
G02*
X11849454Y-5755961I29988J40012D01*
G01*
D13*
D11*
X3040000Y-3040000D02*
X3060000Y-3060000D01*
X3060000Y-3040000D02*
X3040000Y-3060000D01*
X3040000Y-3240000D02*
X3060000Y-3260000D01*
X3060000Y-3240000D02*
X3040000Y-3260000D01*
X3040000Y-3440000D02*
X3060000Y-3460000D01*
X3060000Y-3440000D02*
X3040000Y-3460000D01*
X3040000Y-3640000D02*
X3060000Y-3660000D01*
X3060000Y-3640000D02*
X3040000Y-3660000D01*
X3040000Y-3840000D02*
X3060000Y-3860000D01*
X3060000Y-3840000D02*
X3040000Y-3860000D01*
X3040000Y-4040000D02*
X3060000Y-4060000D01*
X3060000Y-4040000D02*
X3040000Y-4060000D01*
X3040000Y-4240000D02*
X3060000Y-4260000D01*
X3060000Y-4240000D02*
X3040000Y-4260000D01*
X3040000Y-4440000D02*
X3060000Y-4460000D01*
X3060000Y-4440000D02*
X3040000Y-4460000D01*
X3040000Y-4640000D02*
X3060000Y-4660000D01*
X3060000Y-4640000D02*
X3040000Y-4660000D01*
X3040000Y-4840000D02*
X3060000Y-4860000D01*
X3060000Y-4840000D02*
X3040000Y-4860000D01*
X3040000Y-5040000D02*
X3060000Y-5060000D01*
X3060000Y-5040000D02*
X3040000Y-5060000D01*
X3040000Y-5240000D02*
X3060000Y-5260000D01*
X3060000Y-5240000D02*
X3040000Y-5260000D01*
X3040000Y-5440000D02*
X3060000Y-5460000D01*
X3060000Y-5440000D02*
X3040000Y-5460000D01*
X3040000Y-5640000D02*
X3060000Y-5660000D01*
X3060000Y-5640000D02*
X3040000Y-5660000D01*
X3040000Y-5840000D02*
X3060000Y-5860000D01*
X3060000Y-5840000D02*
X3040000Y-5860000D01*
X3040000Y-6040000D02*
X3060000Y-6060000D01*
X3060000Y-6040000D02*
X3040000Y-6060000D01*
X3040000Y-6440000D02*
X3060000Y-6460000D01*
X3060000Y-6440000D02*
X3040000Y-6460000D01*
X3040000Y-6640000D02*
X3060000Y-6660000D01*
X3060000Y-6640000D02*
X3040000Y-6660000D01*
X3040000Y-6840000D02*
X3060000Y-6860000D01*
X3060000Y-6840000D02*
X3040000Y-6860000D01*
X3040000Y-7040000D02*
X3060000Y-7060000D01*
X3060000Y-7040000D02*
X3040000Y-7060000D01*
X3040000Y-7840000D02*
X3060000Y-7860000D01*
X3060000Y-7840000D02*
X3040000Y-7860000D01*
X3040000Y-8040000D02*
X3060000Y-8060000D01*
X3060000Y-8040000D02*
X3040000Y-8060000D01*
X3040000Y-8240000D02*
X3060000Y-8260000D01*
X3060000Y-8240000D02*
X3040000Y-8260000D01*
X3040000Y-8440000D02*
X3060000Y-8460000D01*
X3060000Y-8440000D02*
X3040000Y-8460000D01*
X3040000Y-8640000D02*
X3060000Y-8660000D01*
X3060000Y-8640000D02*
X3040000Y-8660000D01*
X3040000Y-8840000D02*
X3060000Y-8860000D01*
X3060000Y-8840000D02*
X3040000Y-8860000D01*
X3040000Y-9040000D02*
X3060000Y-9060000D01*
X3060000Y-9040000D02*
X3040000Y-9060000D01*
X3040000Y-9240000D02*
X3060000Y-9260000D01*
X3060000Y-9240000D02*
X3040000Y-9260000D01*
X3040000Y-9440000D02*
X3060000Y-9460000D01*
X3060000Y-9440000D02*
X3040000Y-9460000D01*
X3040000Y-9640000D02*
X3060000Y-9660000D01*
X3060000Y-9640000D02*
X3040000Y-9660000D01*
X3040000Y-9840000D02*
X3060000Y-9860000D01*
X3060000Y-9840000D02*
X3040000Y-9860000D01*
X3040000Y-10040000D02*
X3060000Y-10060000D01*
X3060000Y-10040000D02*
X3040000Y-10060000D01*
X3040000Y-10240000D02*
X3060000Y-10260000D01*
X3060000Y-10240000D02*
X3040000Y-10260000D01*
X3040000Y-10440000D02*
X3060000Y-10460000D01*
X3060000Y-10440000D02*
X3040000Y-10460000D01*
X3040000Y-10640000D02*
X3060000Y-10660000D01*
X3060000Y-10640000D02*
X3040000Y-10660000D01*
X3040000Y-10840000D02*
X3060000Y-10860000D01*
X3060000Y-10840000D02*
X3040000Y-10860000D01*
X3040000Y-11040000D02*
X3060000Y-11060000D01*
X3060000Y-11040000D02*
X3040000Y-11060000D01*
X3040000Y-11240000D02*
X3060000Y-11260000D01*
X3060000Y-11240000D02*
X3040000Y-11260000D01*
X3040000Y-11440000D02*
X3060000Y-11460000D01*
X3060000Y-11440000D02*
X3040000Y-11460000D01*
X3040000Y-11640000D02*
X3060000Y-11660000D01*
X3060000Y-11640000D02*
X3040000Y-11660000D01*
X3040000Y-11840000D02*
X3060000Y-11860000D01*
X3060000Y-11840000D02*
X3040000Y-11860000D01*
X3040000Y-12040000D02*
X3060000Y-12060000D01*
X3060000Y-12040000D02*
X3040000Y-12060000D01*
X3040000Y-12240000D02*
X3060000Y-12260000D01*
X3060000Y-12240000D02*
X3040000Y-12260000D01*
X3040000Y-12440000D02*
X3060000Y-12460000D01*
X3060000Y-12440000D02*
X3040000Y-12460000D01*
X3040000Y-12640000D02*
X3060000Y-12660000D01*
X3060000Y-12640000D02*
X3040000Y-12660000D01*
X3040000Y-12840000D02*
X3060000Y-12860000D01*
X3060000Y-12840000D02*
X3040000Y-12860000D01*
X3040000Y-13040000D02*
X3060000Y-13060000D01*
X3060000Y-13040000D02*
X3040000Y-13060000D01*
X3040000Y-13240000D02*
X3060000Y-13260000D01*
X3060000Y-13240000D02*
X3040000Y-13260000D01*
X3040000Y-13440000D02*
X3060000Y-13460000D01*
X3060000Y-13440000D02*
X3040000Y-13460000D01*
X3040000Y-13640000D02*
X3060000Y-13660000D01*
X3060000Y-13640000D02*
X3040000Y-13660000D01*
X3040000Y-13840000D02*
X3060000Y-13860000D01*
X3060000Y-13840000D02*
X3040000Y-13860000D01*
X3040000Y-14040000D02*
X3060000Y-14060000D01*
X3060000Y-14040000D02*
X3040000Y-14060000D01*
X3040000Y-14240000D02*
X3060000Y-14260000D01*
X3060000Y-14240000D02*
X3040000Y-14260000D01*
X3040000Y-14440000D02*
X3060000Y-14460000D01*
X3060000Y-14440000D02*
X3040000Y-14460000D01*
X3040000Y-14640000D02*
X3060000Y-14660000D01*
X3060000Y-14640000D02*
X3040000Y-14660000D01*
X3040000Y-14840000D02*
X3060000Y-14860000D01*
X3060000Y-14840000D02*
X3040000Y-14860000D01*
X3040000Y-15040000D02*
X3060000Y-15060000D01*
X3060000Y-15040000D02*
X3040000Y-15060000D01*
X3040000Y-15240000D02*
X3060000Y-15260000D01*
X3060000Y-15240000D02*
X3040000Y-15260000D01*
X3040000Y-15440000D02*
X3060000Y-15460000D01*
X3060000Y-15440000D02*
X3040000Y-15460000D01*
X3040000Y-15640000D02*
X3060000Y-15660000D01*
X3060000Y-15640000D02*
X3040000Y-15660000D01*
X3040000Y-15840000D02*
X3060000Y-15860000D01*
X3060000Y-15840000D02*
X3040000Y-15860000D01*
X3040000Y-16040000D02*
X3060000Y-16060000D01*
X3060000Y-16040000D02*
X3040000Y-16060000D01*
X3040000Y-16240000D02*
X3060000Y-16260000D01*
X3060000Y-16240000D02*
X3040000Y-16260000D01*
X3040000Y-16440000D02*
X3060000Y-16460000D01*
X3060000Y-16440000D02*
X3040000Y-16460000D01*
X3040000Y-16640000D02*
X3060000Y-16660000D01*
X3060000Y-16640000D02*
X3040000Y-16660000D01*
X3040000Y-16840000D02*
X3060000Y-16860000D01*
X3060000Y-16840000D02*
X3040000Y-16860000D01*
X3040000Y-17040000D02*
X3060000Y-17060000D01*
X3060000Y-17040000D02*
X3040000Y-17060000D01*
X3040000Y-17240000D02*
X3060000Y-17260000D01*
X3060000Y-17240000D02*
X3040000Y-17260000D01*
X3240000Y-17440000D02*
X3260000Y-17460000D01*
X3260000Y-17440000D02*
X3240000Y-17460000D01*
X3340000Y-2740000D02*
X3360000Y-2760000D01*
X3360000Y-2740000D02*
X3340000Y-2760000D01*
X3440000Y-17440000D02*
X3460000Y-17460000D01*
X3460000Y-17440000D02*
X3440000Y-17460000D01*
X3540000Y-2740000D02*
X3560000Y-2760000D01*
X3560000Y-2740000D02*
X3540000Y-2760000D01*
X3640000Y-17440000D02*
X3660000Y-17460000D01*
X3660000Y-17440000D02*
X3640000Y-17460000D01*
X3740000Y-2740000D02*
X3760000Y-2760000D01*
X3760000Y-2740000D02*
X3740000Y-2760000D01*
X3840000Y-17440000D02*
X3860000Y-17460000D01*
X3860000Y-17440000D02*
X3840000Y-17460000D01*
X3940000Y-2740000D02*
X3960000Y-2760000D01*
X3960000Y-2740000D02*
X3940000Y-2760000D01*
X4040000Y-17440000D02*
X4060000Y-17460000D01*
X4060000Y-17440000D02*
X4040000Y-17460000D01*
X4140000Y-2740000D02*
X4160000Y-2760000D01*
X4160000Y-2740000D02*
X4140000Y-2760000D01*
X4240000Y-17440000D02*
X4260000Y-17460000D01*
X4260000Y-17440000D02*
X4240000Y-17460000D01*
X4340000Y-2740000D02*
X4360000Y-2760000D01*
X4360000Y-2740000D02*
X4340000Y-2760000D01*
X4440000Y-17440000D02*
X4460000Y-17460000D01*
X4460000Y-17440000D02*
X4440000Y-17460000D01*
X4512500Y-6240000D02*
X4532500Y-6260000D01*
X4532500Y-6240000D02*
X4512500Y-6260000D01*
X4512500Y-6440000D02*
X4532500Y-6460000D01*
X4532500Y-6440000D02*
X4512500Y-6460000D01*
X4512500Y-6640000D02*
X4532500Y-6660000D01*
X4532500Y-6640000D02*
X4512500Y-6660000D01*
X4512500Y-6840000D02*
X4532500Y-6860000D01*
X4532500Y-6840000D02*
X4512500Y-6860000D01*
X4512500Y-7040000D02*
X4532500Y-7060000D01*
X4532500Y-7040000D02*
X4512500Y-7060000D01*
X4512500Y-7440000D02*
X4532500Y-7460000D01*
X4532500Y-7440000D02*
X4512500Y-7460000D01*
X4512500Y-7640000D02*
X4532500Y-7660000D01*
X4532500Y-7640000D02*
X4512500Y-7660000D01*
X4512500Y-7840000D02*
X4532500Y-7860000D01*
X4532500Y-7840000D02*
X4512500Y-7860000D01*
X4540000Y-2740000D02*
X4560000Y-2760000D01*
X4560000Y-2740000D02*
X4540000Y-2760000D01*
X4640000Y-17440000D02*
X4660000Y-17460000D01*
X4660000Y-17440000D02*
X4640000Y-17460000D01*
X4740000Y-2740000D02*
X4760000Y-2760000D01*
X4760000Y-2740000D02*
X4740000Y-2760000D01*
X4840000Y-17440000D02*
X4860000Y-17460000D01*
X4860000Y-17440000D02*
X4840000Y-17460000D01*
X4940000Y-2740000D02*
X4960000Y-2760000D01*
X4960000Y-2740000D02*
X4940000Y-2760000D01*
X5040000Y-17440000D02*
X5060000Y-17460000D01*
X5060000Y-17440000D02*
X5040000Y-17460000D01*
X5140000Y-2740000D02*
X5160000Y-2760000D01*
X5160000Y-2740000D02*
X5140000Y-2760000D01*
X5240000Y-17440000D02*
X5260000Y-17460000D01*
X5260000Y-17440000D02*
X5240000Y-17460000D01*
X5340000Y-2740000D02*
X5360000Y-2760000D01*
X5360000Y-2740000D02*
X5340000Y-2760000D01*
X5440000Y-17440000D02*
X5460000Y-17460000D01*
X5460000Y-17440000D02*
X5440000Y-17460000D01*
X5540000Y-2740000D02*
X5560000Y-2760000D01*
X5560000Y-2740000D02*
X5540000Y-2760000D01*
X5640000Y-17440000D02*
X5660000Y-17460000D01*
X5660000Y-17440000D02*
X5640000Y-17460000D01*
X5740000Y-2740000D02*
X5760000Y-2760000D01*
X5760000Y-2740000D02*
X5740000Y-2760000D01*
X5840000Y-17440000D02*
X5860000Y-17460000D01*
X5860000Y-17440000D02*
X5840000Y-17460000D01*
X5940000Y-2740000D02*
X5960000Y-2760000D01*
X5960000Y-2740000D02*
X5940000Y-2760000D01*
X6040000Y-17440000D02*
X6060000Y-17460000D01*
X6060000Y-17440000D02*
X6040000Y-17460000D01*
X6140000Y-2740000D02*
X6160000Y-2760000D01*
X6160000Y-2740000D02*
X6140000Y-2760000D01*
X6240000Y-17440000D02*
X6260000Y-17460000D01*
X6260000Y-17440000D02*
X6240000Y-17460000D01*
X6340000Y-2740000D02*
X6360000Y-2760000D01*
X6360000Y-2740000D02*
X6340000Y-2760000D01*
X6440000Y-17440000D02*
X6460000Y-17460000D01*
X6460000Y-17440000D02*
X6440000Y-17460000D01*
X6540000Y-2740000D02*
X6560000Y-2760000D01*
X6560000Y-2740000D02*
X6540000Y-2760000D01*
X6640000Y-17440000D02*
X6660000Y-17460000D01*
X6660000Y-17440000D02*
X6640000Y-17460000D01*
X6740000Y-2740000D02*
X6760000Y-2760000D01*
X6760000Y-2740000D02*
X6740000Y-2760000D01*
X6840000Y-17440000D02*
X6860000Y-17460000D01*
X6860000Y-17440000D02*
X6840000Y-17460000D01*
X6940000Y-2740000D02*
X6960000Y-2760000D01*
X6960000Y-2740000D02*
X6940000Y-2760000D01*
X7040000Y-17440000D02*
X7060000Y-17460000D01*
X7060000Y-17440000D02*
X7040000Y-17460000D01*
X7140000Y-2740000D02*
X7160000Y-2760000D01*
X7160000Y-2740000D02*
X7140000Y-2760000D01*
X7240000Y-17440000D02*
X7260000Y-17460000D01*
X7260000Y-17440000D02*
X7240000Y-17460000D01*
X7340000Y-2740000D02*
X7360000Y-2760000D01*
X7360000Y-2740000D02*
X7340000Y-2760000D01*
X7440000Y-17440000D02*
X7460000Y-17460000D01*
X7460000Y-17440000D02*
X7440000Y-17460000D01*
X7540000Y-2740000D02*
X7560000Y-2760000D01*
X7560000Y-2740000D02*
X7540000Y-2760000D01*
X7640000Y-17440000D02*
X7660000Y-17460000D01*
X7660000Y-17440000D02*
X7640000Y-17460000D01*
X7740000Y-2740000D02*
X7760000Y-2760000D01*
X7760000Y-2740000D02*
X7740000Y-2760000D01*
X7840000Y-17440000D02*
X7860000Y-17460000D01*
X7860000Y-17440000D02*
X7840000Y-17460000D01*
X7940000Y-2740000D02*
X7960000Y-2760000D01*
X7960000Y-2740000D02*
X7940000Y-2760000D01*
X8040000Y-17440000D02*
X8060000Y-17460000D01*
X8060000Y-17440000D02*
X8040000Y-17460000D01*
X8140000Y-2740000D02*
X8160000Y-2760000D01*
X8160000Y-2740000D02*
X8140000Y-2760000D01*
X8240000Y-17440000D02*
X8260000Y-17460000D01*
X8260000Y-17440000D02*
X8240000Y-17460000D01*
X8340000Y-2740000D02*
X8360000Y-2760000D01*
X8360000Y-2740000D02*
X8340000Y-2760000D01*
X8440000Y-17440000D02*
X8460000Y-17460000D01*
X8460000Y-17440000D02*
X8440000Y-17460000D01*
X8540000Y-2740000D02*
X8560000Y-2760000D01*
X8560000Y-2740000D02*
X8540000Y-2760000D01*
X8640000Y-17440000D02*
X8660000Y-17460000D01*
X8660000Y-17440000D02*
X8640000Y-17460000D01*
X8740000Y-2740000D02*
X8760000Y-2760000D01*
X8760000Y-2740000D02*
X8740000Y-2760000D01*
X8840000Y-17440000D02*
X8860000Y-17460000D01*
X8860000Y-17440000D02*
X8840000Y-17460000D01*
X8940000Y-2740000D02*
X8960000Y-2760000D01*
X8960000Y-2740000D02*
X8940000Y-2760000D01*
X9040000Y-17440000D02*
X9060000Y-17460000D01*
X9060000Y-17440000D02*
X9040000Y-17460000D01*
X9140000Y-2740000D02*
X9160000Y-2760000D01*
X9160000Y-2740000D02*
X9140000Y-2760000D01*
X9240000Y-17440000D02*
X9260000Y-17460000D01*
X9260000Y-17440000D02*
X9240000Y-17460000D01*
X9340000Y-2740000D02*
X9360000Y-2760000D01*
X9360000Y-2740000D02*
X9340000Y-2760000D01*
X9440000Y-17440000D02*
X9460000Y-17460000D01*
X9460000Y-17440000D02*
X9440000Y-17460000D01*
X9540000Y-2740000D02*
X9560000Y-2760000D01*
X9560000Y-2740000D02*
X9540000Y-2760000D01*
X9640000Y-17440000D02*
X9660000Y-17460000D01*
X9660000Y-17440000D02*
X9640000Y-17460000D01*
X9740000Y-2740000D02*
X9760000Y-2760000D01*
X9760000Y-2740000D02*
X9740000Y-2760000D01*
X9840000Y-17440000D02*
X9860000Y-17460000D01*
X9860000Y-17440000D02*
X9840000Y-17460000D01*
X9940000Y-2740000D02*
X9960000Y-2760000D01*
X9960000Y-2740000D02*
X9940000Y-2760000D01*
X10040000Y-17440000D02*
X10060000Y-17460000D01*
X10060000Y-17440000D02*
X10040000Y-17460000D01*
X10140000Y-2740000D02*
X10160000Y-2760000D01*
X10160000Y-2740000D02*
X10140000Y-2760000D01*
X10240000Y-3340000D02*
X10260000Y-3360000D01*
X10260000Y-3340000D02*
X10240000Y-3360000D01*
X10240000Y-17440000D02*
X10260000Y-17460000D01*
X10260000Y-17440000D02*
X10240000Y-17460000D01*
X10290000Y-4390000D02*
X10310000Y-4410000D01*
X10310000Y-4390000D02*
X10290000Y-4410000D01*
X10340000Y-2740000D02*
X10360000Y-2760000D01*
X10360000Y-2740000D02*
X10340000Y-2760000D01*
X10340000Y-3540000D02*
X10360000Y-3560000D01*
X10360000Y-3540000D02*
X10340000Y-3560000D01*
X10440000Y-3340000D02*
X10460000Y-3360000D01*
X10460000Y-3340000D02*
X10440000Y-3360000D01*
X10440000Y-3715000D02*
X10460000Y-3735000D01*
X10460000Y-3715000D02*
X10440000Y-3735000D01*
X10440000Y-17440000D02*
X10460000Y-17460000D01*
X10460000Y-17440000D02*
X10440000Y-17460000D01*
X10490000Y-4390000D02*
X10510000Y-4410000D01*
X10510000Y-4390000D02*
X10490000Y-4410000D01*
X10490000Y-4790000D02*
X10510000Y-4810000D01*
X10510000Y-4790000D02*
X10490000Y-4810000D01*
X10540000Y-2740000D02*
X10560000Y-2760000D01*
X10560000Y-2740000D02*
X10540000Y-2760000D01*
X10540000Y-3540000D02*
X10560000Y-3560000D01*
X10560000Y-3540000D02*
X10540000Y-3560000D01*
X10540000Y-3915000D02*
X10560000Y-3935000D01*
X10560000Y-3915000D02*
X10540000Y-3935000D01*
X10640000Y-3340000D02*
X10660000Y-3360000D01*
X10660000Y-3340000D02*
X10640000Y-3360000D01*
X10640000Y-3715000D02*
X10660000Y-3735000D01*
X10660000Y-3715000D02*
X10640000Y-3735000D01*
X10640000Y-4115000D02*
X10660000Y-4135000D01*
X10660000Y-4115000D02*
X10640000Y-4135000D01*
X10640000Y-17440000D02*
X10660000Y-17460000D01*
X10660000Y-17440000D02*
X10640000Y-17460000D01*
X10690000Y-4790000D02*
X10710000Y-4810000D01*
X10710000Y-4790000D02*
X10690000Y-4810000D01*
X10740000Y-2740000D02*
X10760000Y-2760000D01*
X10760000Y-2740000D02*
X10740000Y-2760000D01*
X10740000Y-3540000D02*
X10760000Y-3560000D01*
X10760000Y-3540000D02*
X10740000Y-3560000D01*
X10740000Y-3915000D02*
X10760000Y-3935000D01*
X10760000Y-3915000D02*
X10740000Y-3935000D01*
X10740000Y-4290000D02*
X10760000Y-4310000D01*
X10760000Y-4290000D02*
X10740000Y-4310000D01*
X10840000Y-3340000D02*
X10860000Y-3360000D01*
X10860000Y-3340000D02*
X10840000Y-3360000D01*
X10840000Y-3715000D02*
X10860000Y-3735000D01*
X10860000Y-3715000D02*
X10840000Y-3735000D01*
X10840000Y-4115000D02*
X10860000Y-4135000D01*
X10860000Y-4115000D02*
X10840000Y-4135000D01*
X10840000Y-17440000D02*
X10860000Y-17460000D01*
X10860000Y-17440000D02*
X10840000Y-17460000D01*
X10865000Y-4465000D02*
X10885000Y-4485000D01*
X10885000Y-4465000D02*
X10865000Y-4485000D01*
X10890000Y-4790000D02*
X10910000Y-4810000D01*
X10910000Y-4790000D02*
X10890000Y-4810000D01*
X10940000Y-2740000D02*
X10960000Y-2760000D01*
X10960000Y-2740000D02*
X10940000Y-2760000D01*
X10940000Y-3540000D02*
X10960000Y-3560000D01*
X10960000Y-3540000D02*
X10940000Y-3560000D01*
X10940000Y-3915000D02*
X10960000Y-3935000D01*
X10960000Y-3915000D02*
X10940000Y-3935000D01*
X10940000Y-4290000D02*
X10960000Y-4310000D01*
X10960000Y-4290000D02*
X10940000Y-4310000D01*
X11040000Y-3340000D02*
X11060000Y-3360000D01*
X11060000Y-3340000D02*
X11040000Y-3360000D01*
X11040000Y-17440000D02*
X11060000Y-17460000D01*
X11060000Y-17440000D02*
X11040000Y-17460000D01*
X11140000Y-2740000D02*
X11160000Y-2760000D01*
X11160000Y-2740000D02*
X11140000Y-2760000D01*
X11240000Y-3340000D02*
X11260000Y-3360000D01*
X11260000Y-3340000D02*
X11240000Y-3360000D01*
X11240000Y-17440000D02*
X11260000Y-17460000D01*
X11260000Y-17440000D02*
X11240000Y-17460000D01*
X11340000Y-2740000D02*
X11360000Y-2760000D01*
X11360000Y-2740000D02*
X11340000Y-2760000D01*
X11440000Y-3340000D02*
X11460000Y-3360000D01*
X11460000Y-3340000D02*
X11440000Y-3360000D01*
X11440000Y-17440000D02*
X11460000Y-17460000D01*
X11460000Y-17440000D02*
X11440000Y-17460000D01*
X11540000Y-2740000D02*
X11560000Y-2760000D01*
X11560000Y-2740000D02*
X11540000Y-2760000D01*
X11590000Y-4840000D02*
X11610000Y-4860000D01*
X11610000Y-4840000D02*
X11590000Y-4860000D01*
X11590000Y-5040000D02*
X11610000Y-5060000D01*
X11610000Y-5040000D02*
X11590000Y-5060000D01*
X11640000Y-3340000D02*
X11660000Y-3360000D01*
X11660000Y-3340000D02*
X11640000Y-3360000D01*
X11640000Y-17440000D02*
X11660000Y-17460000D01*
X11660000Y-17440000D02*
X11640000Y-17460000D01*
X11740000Y-2740000D02*
X11760000Y-2760000D01*
X11760000Y-2740000D02*
X11740000Y-2760000D01*
X11765000Y-4740000D02*
X11785000Y-4760000D01*
X11785000Y-4740000D02*
X11765000Y-4760000D01*
X11765000Y-4940000D02*
X11785000Y-4960000D01*
X11785000Y-4940000D02*
X11765000Y-4960000D01*
X11765000Y-5140000D02*
X11785000Y-5160000D01*
X11785000Y-5140000D02*
X11765000Y-5160000D01*
X11840000Y-3340000D02*
X11860000Y-3360000D01*
X11860000Y-3340000D02*
X11840000Y-3360000D01*
X11930000Y-3140000D02*
X11950000Y-3160000D01*
X11950000Y-3140000D02*
X11930000Y-3160000D01*
X11940000Y-4640000D02*
X11960000Y-4660000D01*
X11960000Y-4640000D02*
X11940000Y-4660000D01*
X11940000Y-4840000D02*
X11960000Y-4860000D01*
X11960000Y-4840000D02*
X11940000Y-4860000D01*
X11940000Y-5040000D02*
X11960000Y-5060000D01*
X11960000Y-5040000D02*
X11940000Y-5060000D01*
X11940000Y-5240000D02*
X11960000Y-5260000D01*
X11960000Y-5240000D02*
X11940000Y-5260000D01*
X11940000Y-6010000D02*
X11960000Y-6030000D01*
X11960000Y-6010000D02*
X11940000Y-6030000D01*
X11940000Y-9240000D02*
X11960000Y-9260000D01*
X11960000Y-9240000D02*
X11940000Y-9260000D01*
X11940000Y-9440000D02*
X11960000Y-9460000D01*
X11960000Y-9440000D02*
X11940000Y-9460000D01*
X11940000Y-9640000D02*
X11960000Y-9660000D01*
X11960000Y-9640000D02*
X11940000Y-9660000D01*
X11940000Y-9840000D02*
X11960000Y-9860000D01*
X11960000Y-9840000D02*
X11940000Y-9860000D01*
X11940000Y-10040000D02*
X11960000Y-10060000D01*
X11960000Y-10040000D02*
X11940000Y-10060000D01*
X11940000Y-10240000D02*
X11960000Y-10260000D01*
X11960000Y-10240000D02*
X11940000Y-10260000D01*
X11940000Y-10440000D02*
X11960000Y-10460000D01*
X11960000Y-10440000D02*
X11940000Y-10460000D01*
X11940000Y-10640000D02*
X11960000Y-10660000D01*
X11960000Y-10640000D02*
X11940000Y-10660000D01*
X11940000Y-10840000D02*
X11960000Y-10860000D01*
X11960000Y-10840000D02*
X11940000Y-10860000D01*
X11940000Y-11040000D02*
X11960000Y-11060000D01*
X11960000Y-11040000D02*
X11940000Y-11060000D01*
X11940000Y-11240000D02*
X11960000Y-11260000D01*
X11960000Y-11240000D02*
X11940000Y-11260000D01*
X11940000Y-11440000D02*
X11960000Y-11460000D01*
X11960000Y-11440000D02*
X11940000Y-11460000D01*
X11940000Y-11640000D02*
X11960000Y-11660000D01*
X11960000Y-11640000D02*
X11940000Y-11660000D01*
X11940000Y-11840000D02*
X11960000Y-11860000D01*
X11960000Y-11840000D02*
X11940000Y-11860000D01*
X11940000Y-12040000D02*
X11960000Y-12060000D01*
X11960000Y-12040000D02*
X11940000Y-12060000D01*
X11940000Y-12240000D02*
X11960000Y-12260000D01*
X11960000Y-12240000D02*
X11940000Y-12260000D01*
X11940000Y-12440000D02*
X11960000Y-12460000D01*
X11960000Y-12440000D02*
X11940000Y-12460000D01*
X11940000Y-12640000D02*
X11960000Y-12660000D01*
X11960000Y-12640000D02*
X11940000Y-12660000D01*
X11940000Y-12840000D02*
X11960000Y-12860000D01*
X11960000Y-12840000D02*
X11940000Y-12860000D01*
X11940000Y-13040000D02*
X11960000Y-13060000D01*
X11960000Y-13040000D02*
X11940000Y-13060000D01*
X11940000Y-13240000D02*
X11960000Y-13260000D01*
X11960000Y-13240000D02*
X11940000Y-13260000D01*
X11940000Y-13440000D02*
X11960000Y-13460000D01*
X11960000Y-13440000D02*
X11940000Y-13460000D01*
X11940000Y-13640000D02*
X11960000Y-13660000D01*
X11960000Y-13640000D02*
X11940000Y-13660000D01*
X11940000Y-13840000D02*
X11960000Y-13860000D01*
X11960000Y-13840000D02*
X11940000Y-13860000D01*
X11940000Y-14040000D02*
X11960000Y-14060000D01*
X11960000Y-14040000D02*
X11940000Y-14060000D01*
X11940000Y-14240000D02*
X11960000Y-14260000D01*
X11960000Y-14240000D02*
X11940000Y-14260000D01*
X11940000Y-14440000D02*
X11960000Y-14460000D01*
X11960000Y-14440000D02*
X11940000Y-14460000D01*
X11940000Y-14640000D02*
X11960000Y-14660000D01*
X11960000Y-14640000D02*
X11940000Y-14660000D01*
X11940000Y-14840000D02*
X11960000Y-14860000D01*
X11960000Y-14840000D02*
X11940000Y-14860000D01*
X11940000Y-15040000D02*
X11960000Y-15060000D01*
X11960000Y-15040000D02*
X11940000Y-15060000D01*
X11940000Y-15240000D02*
X11960000Y-15260000D01*
X11960000Y-15240000D02*
X11940000Y-15260000D01*
X11940000Y-15440000D02*
X11960000Y-15460000D01*
X11960000Y-15440000D02*
X11940000Y-15460000D01*
X11940000Y-15640000D02*
X11960000Y-15660000D01*
X11960000Y-15640000D02*
X11940000Y-15660000D01*
X11940000Y-15840000D02*
X11960000Y-15860000D01*
X11960000Y-15840000D02*
X11940000Y-15860000D01*
X11940000Y-16040000D02*
X11960000Y-16060000D01*
X11960000Y-16040000D02*
X11940000Y-16060000D01*
X11940000Y-16240000D02*
X11960000Y-16260000D01*
X11960000Y-16240000D02*
X11940000Y-16260000D01*
X11940000Y-16440000D02*
X11960000Y-16460000D01*
X11960000Y-16440000D02*
X11940000Y-16460000D01*
X11940000Y-16640000D02*
X11960000Y-16660000D01*
X11960000Y-16640000D02*
X11940000Y-16660000D01*
X11940000Y-16840000D02*
X11960000Y-16860000D01*
X11960000Y-16840000D02*
X11940000Y-16860000D01*
X11940000Y-17040000D02*
X11960000Y-17060000D01*
X11960000Y-17040000D02*
X11940000Y-17060000D01*
X11940000Y-17240000D02*
X11960000Y-17260000D01*
X11960000Y-17240000D02*
X11940000Y-17260000D01*
X11945000Y-9090000D02*
X11965000Y-9110000D01*
X11965000Y-9090000D02*
X11945000Y-9110000D01*
X3730000Y-7214500D02*
G75*
G02*
X3710000Y-7214500I-10000J0D01*
G01*
X3710000Y-7214500D02*
G75*
G02*
X3730000Y-7214500I10000J0D01*
G01*
X3730000Y-7405500D02*
G75*
G02*
X3710000Y-7405500I-10000J0D01*
G01*
X3710000Y-7405500D02*
G75*
G02*
X3730000Y-7405500I10000J0D01*
G01*
X3860000Y-7214500D02*
G75*
G02*
X3840000Y-7214500I-10000J0D01*
G01*
X3840000Y-7214500D02*
G75*
G02*
X3860000Y-7214500I10000J0D01*
G01*
X3860000Y-7405500D02*
G75*
G02*
X3840000Y-7405500I-10000J0D01*
G01*
X3840000Y-7405500D02*
G75*
G02*
X3860000Y-7405500I10000J0D01*
G01*
X3990000Y-7214500D02*
G75*
G02*
X3970000Y-7214500I-10000J0D01*
G01*
X3970000Y-7214500D02*
G75*
G02*
X3990000Y-7214500I10000J0D01*
G01*
X3990000Y-7405500D02*
G75*
G02*
X3970000Y-7405500I-10000J0D01*
G01*
X3970000Y-7405500D02*
G75*
G02*
X3990000Y-7405500I10000J0D01*
G01*
X3100000Y-6585000D02*
X3100000Y-6615000D01*
X3085000Y-6600000D02*
X3115000Y-6600000D01*
X3100000Y-6685000D02*
X3100000Y-6715000D01*
X3085000Y-6700000D02*
X3115000Y-6700000D01*
X3100000Y-6785000D02*
X3100000Y-6815000D01*
X3085000Y-6800000D02*
X3115000Y-6800000D01*
X3100000Y-6885000D02*
X3100000Y-6915000D01*
X3085000Y-6900000D02*
X3115000Y-6900000D01*
X3200000Y-6635000D02*
X3200000Y-6665000D01*
X3185000Y-6650000D02*
X3215000Y-6650000D01*
X3200000Y-6735000D02*
X3200000Y-6765000D01*
X3185000Y-6750000D02*
X3215000Y-6750000D01*
X3200000Y-6835000D02*
X3200000Y-6865000D01*
X3185000Y-6850000D02*
X3215000Y-6850000D01*
X3200000Y-7235000D02*
X3200000Y-7265000D01*
X3185000Y-7250000D02*
X3215000Y-7250000D01*
X3232000Y-10333000D02*
X3232000Y-10363000D01*
X3217000Y-10348000D02*
X3247000Y-10348000D01*
X3250000Y-7335000D02*
X3250000Y-7365000D01*
X3235000Y-7350000D02*
X3265000Y-7350000D01*
X3250000Y-8415000D02*
X3250000Y-8445000D01*
X3235000Y-8430000D02*
X3265000Y-8430000D01*
X3260000Y-7695000D02*
X3260000Y-7725000D01*
X3245000Y-7710000D02*
X3275000Y-7710000D01*
X3300000Y-6685000D02*
X3300000Y-6715000D01*
X3285000Y-6700000D02*
X3315000Y-6700000D01*
X3300000Y-6785000D02*
X3300000Y-6815000D01*
X3285000Y-6800000D02*
X3315000Y-6800000D01*
X3300000Y-6885000D02*
X3300000Y-6915000D01*
X3285000Y-6900000D02*
X3315000Y-6900000D01*
X3300000Y-7235000D02*
X3300000Y-7265000D01*
X3285000Y-7250000D02*
X3315000Y-7250000D01*
X3300000Y-16385000D02*
X3300000Y-16415000D01*
X3285000Y-16400000D02*
X3315000Y-16400000D01*
X3340000Y-16905000D02*
X3340000Y-16935000D01*
X3325000Y-16920000D02*
X3355000Y-16920000D01*
X3350000Y-7335000D02*
X3350000Y-7365000D01*
X3335000Y-7350000D02*
X3365000Y-7350000D01*
X3350000Y-7695000D02*
X3350000Y-7725000D01*
X3335000Y-7710000D02*
X3365000Y-7710000D01*
X3367500Y-4082500D02*
X3367500Y-4112500D01*
X3352500Y-4097500D02*
X3382500Y-4097500D01*
X3400000Y-7235000D02*
X3400000Y-7265000D01*
X3385000Y-7250000D02*
X3415000Y-7250000D01*
X3400000Y-8115000D02*
X3400000Y-8145000D01*
X3385000Y-8130000D02*
X3415000Y-8130000D01*
X3425000Y-3485000D02*
X3425000Y-3515000D01*
X3410000Y-3500000D02*
X3440000Y-3500000D01*
X3450000Y-7335000D02*
X3450000Y-7365000D01*
X3435000Y-7350000D02*
X3465000Y-7350000D01*
X3450000Y-7695000D02*
X3450000Y-7725000D01*
X3435000Y-7710000D02*
X3465000Y-7710000D01*
X3460000Y-16905000D02*
X3460000Y-16935000D01*
X3445000Y-16920000D02*
X3475000Y-16920000D01*
X3480000Y-8115000D02*
X3480000Y-8145000D01*
X3465000Y-8130000D02*
X3495000Y-8130000D01*
X3500000Y-7235000D02*
X3500000Y-7265000D01*
X3485000Y-7250000D02*
X3515000Y-7250000D01*
X3535000Y-4595000D02*
X3535000Y-4625000D01*
X3520000Y-4610000D02*
X3550000Y-4610000D01*
X3545000Y-15486000D02*
X3545000Y-15516000D01*
X3530000Y-15501000D02*
X3560000Y-15501000D01*
X3550000Y-7335000D02*
X3550000Y-7365000D01*
X3535000Y-7350000D02*
X3565000Y-7350000D01*
X3550000Y-7695000D02*
X3550000Y-7725000D01*
X3535000Y-7710000D02*
X3565000Y-7710000D01*
X3571000Y-4774000D02*
X3571000Y-4804000D01*
X3556000Y-4789000D02*
X3586000Y-4789000D01*
X3580000Y-16905000D02*
X3580000Y-16935000D01*
X3565000Y-16920000D02*
X3595000Y-16920000D01*
X3592516Y-4550000D02*
X3592516Y-4580000D01*
X3577516Y-4565000D02*
X3607516Y-4565000D01*
X3600000Y-7235000D02*
X3600000Y-7265000D01*
X3585000Y-7250000D02*
X3615000Y-7250000D01*
X3645000Y-3615000D02*
X3645000Y-3645000D01*
X3630000Y-3630000D02*
X3660000Y-3630000D01*
X3660000Y-4615000D02*
X3660000Y-4645000D01*
X3645000Y-4630000D02*
X3675000Y-4630000D01*
X3700000Y-16905000D02*
X3700000Y-16935000D01*
X3685000Y-16920000D02*
X3715000Y-16920000D01*
X3940000Y-9625000D02*
X3940000Y-9655000D01*
X3925000Y-9640000D02*
X3955000Y-9640000D01*
X3945000Y-15386000D02*
X3945000Y-15416000D01*
X3930000Y-15401000D02*
X3960000Y-15401000D01*
X3960000Y-4585000D02*
X3960000Y-4615000D01*
X3945000Y-4600000D02*
X3975000Y-4600000D01*
X3960000Y-5235000D02*
X3960000Y-5265000D01*
X3945000Y-5250000D02*
X3975000Y-5250000D01*
X3960000Y-5735000D02*
X3960000Y-5765000D01*
X3945000Y-5750000D02*
X3975000Y-5750000D01*
X3990000Y-4035000D02*
X3990000Y-4065000D01*
X3975000Y-4050000D02*
X4005000Y-4050000D01*
X4085000Y-12056000D02*
X4085000Y-12086000D01*
X4070000Y-12071000D02*
X4100000Y-12071000D01*
X4090000Y-4225000D02*
X4090000Y-4255000D01*
X4075000Y-4240000D02*
X4105000Y-4240000D01*
X4100000Y-7235000D02*
X4100000Y-7265000D01*
X4085000Y-7250000D02*
X4115000Y-7250000D01*
X4110000Y-3065000D02*
X4110000Y-3095000D01*
X4095000Y-3080000D02*
X4125000Y-3080000D01*
X4150000Y-7335000D02*
X4150000Y-7365000D01*
X4135000Y-7350000D02*
X4165000Y-7350000D01*
X4200000Y-7235000D02*
X4200000Y-7265000D01*
X4185000Y-7250000D02*
X4215000Y-7250000D01*
X4250000Y-7335000D02*
X4250000Y-7365000D01*
X4235000Y-7350000D02*
X4265000Y-7350000D01*
X4260000Y-3325000D02*
X4260000Y-3355000D01*
X4245000Y-3340000D02*
X4275000Y-3340000D01*
X4280000Y-7515000D02*
X4280000Y-7545000D01*
X4265000Y-7530000D02*
X4295000Y-7530000D01*
X4300000Y-7235000D02*
X4300000Y-7265000D01*
X4285000Y-7250000D02*
X4315000Y-7250000D01*
X4350000Y-7335000D02*
X4350000Y-7365000D01*
X4335000Y-7350000D02*
X4365000Y-7350000D01*
X4352500Y-16437500D02*
X4352500Y-16467500D01*
X4337500Y-16452500D02*
X4367500Y-16452500D01*
X4360000Y-4135000D02*
X4360000Y-4165000D01*
X4345000Y-4150000D02*
X4375000Y-4150000D01*
X4400000Y-7235000D02*
X4400000Y-7265000D01*
X4385000Y-7250000D02*
X4415000Y-7250000D01*
X4450000Y-7335000D02*
X4450000Y-7365000D01*
X4435000Y-7350000D02*
X4465000Y-7350000D01*
X4500000Y-7235000D02*
X4500000Y-7265000D01*
X4485000Y-7250000D02*
X4515000Y-7250000D01*
X4525000Y-4460000D02*
X4525000Y-4490000D01*
X4510000Y-4475000D02*
X4540000Y-4475000D01*
X4575000Y-15106000D02*
X4575000Y-15136000D01*
X4560000Y-15121000D02*
X4590000Y-15121000D01*
X4642500Y-17287500D02*
X4642500Y-17317500D01*
X4627500Y-17302500D02*
X4657500Y-17302500D01*
X4710000Y-17220000D02*
X4710000Y-17250000D01*
X4695000Y-17235000D02*
X4725000Y-17235000D01*
X4717500Y-16630000D02*
X4717500Y-16660000D01*
X4702500Y-16645000D02*
X4732500Y-16645000D01*
X4730000Y-4245000D02*
X4730000Y-4275000D01*
X4715000Y-4260000D02*
X4745000Y-4260000D01*
X4737500Y-17295000D02*
X4737500Y-17325000D01*
X4722500Y-17310000D02*
X4752500Y-17310000D01*
X4770000Y-5845000D02*
X4770000Y-5875000D01*
X4755000Y-5860000D02*
X4785000Y-5860000D01*
X4790000Y-4405000D02*
X4790000Y-4435000D01*
X4775000Y-4420000D02*
X4805000Y-4420000D01*
X4795000Y-17235000D02*
X4795000Y-17265000D01*
X4780000Y-17250000D02*
X4810000Y-17250000D01*
X4820000Y-5845000D02*
X4820000Y-5875000D01*
X4805000Y-5860000D02*
X4835000Y-5860000D01*
X4840000Y-3765000D02*
X4840000Y-3795000D01*
X4825000Y-3780000D02*
X4855000Y-3780000D01*
X4850000Y-5647500D02*
X4850000Y-5677500D01*
X4835000Y-5662500D02*
X4865000Y-5662500D01*
X4867500Y-16675000D02*
X4867500Y-16705000D01*
X4852500Y-16690000D02*
X4882500Y-16690000D01*
X4970000Y-6465000D02*
X4970000Y-6495000D01*
X4955000Y-6480000D02*
X4985000Y-6480000D01*
X4985000Y-11976000D02*
X4985000Y-12006000D01*
X4970000Y-11991000D02*
X5000000Y-11991000D01*
X5020000Y-8225000D02*
X5020000Y-8255000D01*
X5005000Y-8240000D02*
X5035000Y-8240000D01*
X5070000Y-3855000D02*
X5070000Y-3885000D01*
X5055000Y-3870000D02*
X5085000Y-3870000D01*
X5080000Y-9395000D02*
X5080000Y-9425000D01*
X5065000Y-9410000D02*
X5095000Y-9410000D01*
X5140000Y-5647500D02*
X5140000Y-5677500D01*
X5125000Y-5662500D02*
X5155000Y-5662500D01*
X5140000Y-8805000D02*
X5140000Y-8835000D01*
X5125000Y-8820000D02*
X5155000Y-8820000D01*
X5260000Y-5305000D02*
X5260000Y-5335000D01*
X5245000Y-5320000D02*
X5275000Y-5320000D01*
X5270000Y-7152750D02*
X5270000Y-7182750D01*
X5255000Y-7167750D02*
X5285000Y-7167750D01*
X5270000Y-7217250D02*
X5270000Y-7247250D01*
X5255000Y-7232250D02*
X5285000Y-7232250D01*
X5320000Y-7545000D02*
X5320000Y-7575000D01*
X5305000Y-7560000D02*
X5335000Y-7560000D01*
X5337500Y-4200000D02*
X5337500Y-4230000D01*
X5322500Y-4215000D02*
X5352500Y-4215000D01*
X5360000Y-7002750D02*
X5360000Y-7032750D01*
X5345000Y-7017750D02*
X5375000Y-7017750D01*
X5360000Y-7067250D02*
X5360000Y-7097250D01*
X5345000Y-7082250D02*
X5375000Y-7082250D01*
X5365000Y-4587500D02*
X5365000Y-4617500D01*
X5350000Y-4602500D02*
X5380000Y-4602500D01*
X5380000Y-7465000D02*
X5380000Y-7495000D01*
X5365000Y-7480000D02*
X5395000Y-7480000D01*
X5380000Y-7805000D02*
X5380000Y-7835000D01*
X5365000Y-7820000D02*
X5395000Y-7820000D01*
X5410000Y-6805000D02*
X5410000Y-6835000D01*
X5395000Y-6820000D02*
X5425000Y-6820000D01*
X5411875Y-7106416D02*
X5411875Y-7136416D01*
X5396875Y-7121416D02*
X5426875Y-7121416D01*
X5420000Y-7265000D02*
X5420000Y-7295000D01*
X5405000Y-7280000D02*
X5435000Y-7280000D01*
X5425000Y-10425000D02*
X5425000Y-10455000D01*
X5410000Y-10440000D02*
X5440000Y-10440000D01*
X5430000Y-5647500D02*
X5430000Y-5677500D01*
X5415000Y-5662500D02*
X5445000Y-5662500D01*
X5460000Y-3065000D02*
X5460000Y-3095000D01*
X5445000Y-3080000D02*
X5475000Y-3080000D01*
X5460000Y-3479000D02*
X5460000Y-3509000D01*
X5445000Y-3494000D02*
X5475000Y-3494000D01*
X5500000Y-4935000D02*
X5500000Y-4965000D01*
X5485000Y-4950000D02*
X5515000Y-4950000D01*
X5535000Y-11015000D02*
X5535000Y-11045000D01*
X5520000Y-11030000D02*
X5550000Y-11030000D01*
X5580000Y-16645000D02*
X5580000Y-16675000D01*
X5565000Y-16660000D02*
X5595000Y-16660000D01*
X5612500Y-5312500D02*
X5612500Y-5342500D01*
X5597500Y-5327500D02*
X5627500Y-5327500D01*
X5620000Y-4765000D02*
X5620000Y-4795000D01*
X5605000Y-4780000D02*
X5635000Y-4780000D01*
X5630000Y-6535000D02*
X5630000Y-6565000D01*
X5615000Y-6550000D02*
X5645000Y-6550000D01*
X5630000Y-6635000D02*
X5630000Y-6665000D01*
X5615000Y-6650000D02*
X5645000Y-6650000D01*
X5630000Y-6735000D02*
X5630000Y-6765000D01*
X5615000Y-6750000D02*
X5645000Y-6750000D01*
X5630000Y-10676000D02*
X5630000Y-10706000D01*
X5615000Y-10691000D02*
X5645000Y-10691000D01*
X5640000Y-6965000D02*
X5640000Y-6995000D01*
X5625000Y-6980000D02*
X5655000Y-6980000D01*
X5660000Y-3479000D02*
X5660000Y-3509000D01*
X5645000Y-3494000D02*
X5675000Y-3494000D01*
X5670000Y-16385000D02*
X5670000Y-16415000D01*
X5655000Y-16400000D02*
X5685000Y-16400000D01*
X5692500Y-4865000D02*
X5692500Y-4895000D01*
X5677500Y-4880000D02*
X5707500Y-4880000D01*
X5715000Y-3526500D02*
X5715000Y-3556500D01*
X5700000Y-3541500D02*
X5730000Y-3541500D01*
X5715000Y-11196000D02*
X5715000Y-11226000D01*
X5700000Y-11211000D02*
X5730000Y-11211000D01*
X5740000Y-7145000D02*
X5740000Y-7175000D01*
X5725000Y-7160000D02*
X5755000Y-7160000D01*
X5755000Y-14706000D02*
X5755000Y-14736000D01*
X5740000Y-14721000D02*
X5770000Y-14721000D01*
X5770000Y-5575000D02*
X5770000Y-5605000D01*
X5755000Y-5590000D02*
X5785000Y-5590000D01*
X5773400Y-9106880D02*
X5773400Y-9136880D01*
X5758400Y-9121880D02*
X5788400Y-9121880D01*
X5775000Y-9975000D02*
X5775000Y-10005000D01*
X5760000Y-9990000D02*
X5790000Y-9990000D01*
X5797750Y-6965000D02*
X5797750Y-6995000D01*
X5782750Y-6980000D02*
X5812750Y-6980000D01*
X5815000Y-3431500D02*
X5815000Y-3461500D01*
X5800000Y-3446500D02*
X5830000Y-3446500D01*
X5822991Y-9150509D02*
X5822991Y-9180509D01*
X5807991Y-9165509D02*
X5837991Y-9165509D01*
X5845000Y-9975000D02*
X5845000Y-10005000D01*
X5830000Y-9990000D02*
X5860000Y-9990000D01*
X5862250Y-6965000D02*
X5862250Y-6995000D01*
X5847250Y-6980000D02*
X5877250Y-6980000D01*
X5880000Y-8575000D02*
X5880000Y-8605000D01*
X5865000Y-8590000D02*
X5895000Y-8590000D01*
X5915000Y-11886000D02*
X5915000Y-11916000D01*
X5900000Y-11901000D02*
X5930000Y-11901000D01*
X5920000Y-7145000D02*
X5920000Y-7175000D01*
X5905000Y-7160000D02*
X5935000Y-7160000D01*
X5925000Y-10975000D02*
X5925000Y-11005000D01*
X5910000Y-10990000D02*
X5940000Y-10990000D01*
X5942500Y-4860000D02*
X5942500Y-4890000D01*
X5927500Y-4875000D02*
X5957500Y-4875000D01*
X5942620Y-6689000D02*
X5942620Y-6719000D01*
X5927620Y-6704000D02*
X5957620Y-6704000D01*
X5950000Y-4325000D02*
X5950000Y-4355000D01*
X5935000Y-4340000D02*
X5965000Y-4340000D01*
X5950000Y-4535000D02*
X5950000Y-4565000D01*
X5935000Y-4550000D02*
X5965000Y-4550000D01*
X5950000Y-7395000D02*
X5950000Y-7425000D01*
X5935000Y-7410000D02*
X5965000Y-7410000D01*
X5970000Y-3526500D02*
X5970000Y-3556500D01*
X5955000Y-3541500D02*
X5985000Y-3541500D01*
X6000000Y-7745000D02*
X6000000Y-7775000D01*
X5985000Y-7760000D02*
X6015000Y-7760000D01*
X6005000Y-11785040D02*
X6005000Y-11815040D01*
X5990000Y-11800040D02*
X6020000Y-11800040D01*
X6005000Y-12136000D02*
X6005000Y-12166000D01*
X5990000Y-12151000D02*
X6020000Y-12151000D01*
X6007500Y-5452500D02*
X6007500Y-5482500D01*
X5992500Y-5467500D02*
X6022500Y-5467500D01*
X6020000Y-6965000D02*
X6020000Y-6995000D01*
X6005000Y-6980000D02*
X6035000Y-6980000D01*
X6020000Y-9235000D02*
X6020000Y-9265000D01*
X6005000Y-9250000D02*
X6035000Y-9250000D01*
X6086000Y-9560000D02*
X6086000Y-9590000D01*
X6071000Y-9575000D02*
X6101000Y-9575000D01*
X6110000Y-7995000D02*
X6110000Y-8025000D01*
X6095000Y-8010000D02*
X6125000Y-8010000D01*
X6110000Y-8055000D02*
X6110000Y-8085000D01*
X6095000Y-8070000D02*
X6125000Y-8070000D01*
X6110000Y-8115000D02*
X6110000Y-8145000D01*
X6095000Y-8130000D02*
X6125000Y-8130000D01*
X6110000Y-8175000D02*
X6110000Y-8205000D01*
X6095000Y-8190000D02*
X6125000Y-8190000D01*
X6156000Y-4675000D02*
X6156000Y-4705000D01*
X6141000Y-4690000D02*
X6171000Y-4690000D01*
X6210000Y-7455000D02*
X6210000Y-7485000D01*
X6195000Y-7470000D02*
X6225000Y-7470000D01*
X6222500Y-3526500D02*
X6222500Y-3556500D01*
X6207500Y-3541500D02*
X6237500Y-3541500D01*
X6225000Y-11856000D02*
X6225000Y-11886000D01*
X6210000Y-11871000D02*
X6240000Y-11871000D01*
X6233500Y-9118917D02*
X6233500Y-9148917D01*
X6218500Y-9133917D02*
X6248500Y-9133917D01*
X6260000Y-9415000D02*
X6260000Y-9445000D01*
X6245000Y-9430000D02*
X6275000Y-9430000D01*
X6273500Y-9512500D02*
X6273500Y-9542500D01*
X6258500Y-9527500D02*
X6288500Y-9527500D01*
X6280000Y-4865000D02*
X6280000Y-4895000D01*
X6265000Y-4880000D02*
X6295000Y-4880000D01*
X6280000Y-9192500D02*
X6280000Y-9222500D01*
X6265000Y-9207500D02*
X6295000Y-9207500D01*
X6280000Y-9285000D02*
X6280000Y-9315000D01*
X6265000Y-9300000D02*
X6295000Y-9300000D01*
X6296000Y-6870000D02*
X6296000Y-6900000D01*
X6281000Y-6885000D02*
X6311000Y-6885000D01*
X6305000Y-11005000D02*
X6305000Y-11035000D01*
X6290000Y-11020000D02*
X6320000Y-11020000D01*
X6320000Y-17105000D02*
X6320000Y-17135000D01*
X6305000Y-17120000D02*
X6335000Y-17120000D01*
X6332500Y-16825000D02*
X6332500Y-16855000D01*
X6317500Y-16840000D02*
X6347500Y-16840000D01*
X6340000Y-7185000D02*
X6340000Y-7215000D01*
X6325000Y-7200000D02*
X6355000Y-7200000D01*
X6360000Y-5167500D02*
X6360000Y-5197500D01*
X6345000Y-5182500D02*
X6375000Y-5182500D01*
X6360000Y-7005000D02*
X6360000Y-7035000D01*
X6345000Y-7020000D02*
X6375000Y-7020000D01*
X6380000Y-7105000D02*
X6380000Y-7135000D01*
X6365000Y-7120000D02*
X6395000Y-7120000D01*
X6380000Y-10456000D02*
X6380000Y-10486000D01*
X6365000Y-10471000D02*
X6395000Y-10471000D01*
X6380000Y-16932750D02*
X6380000Y-16962750D01*
X6365000Y-16947750D02*
X6395000Y-16947750D01*
X6380000Y-16997250D02*
X6380000Y-17027250D01*
X6365000Y-17012250D02*
X6395000Y-17012250D01*
X6385000Y-12376000D02*
X6385000Y-12406000D01*
X6370000Y-12391000D02*
X6400000Y-12391000D01*
X6395000Y-14636000D02*
X6395000Y-14666000D01*
X6380000Y-14651000D02*
X6410000Y-14651000D01*
X6420000Y-17105000D02*
X6420000Y-17135000D01*
X6405000Y-17120000D02*
X6435000Y-17120000D01*
X6428000Y-16817000D02*
X6428000Y-16847000D01*
X6413000Y-16832000D02*
X6443000Y-16832000D01*
X6480000Y-4565000D02*
X6480000Y-4595000D01*
X6465000Y-4580000D02*
X6495000Y-4580000D01*
X6486620Y-4672460D02*
X6486620Y-4702460D01*
X6471620Y-4687460D02*
X6501620Y-4687460D01*
X6555000Y-14366000D02*
X6555000Y-14396000D01*
X6540000Y-14381000D02*
X6570000Y-14381000D01*
X6573500Y-6520000D02*
X6573500Y-6550000D01*
X6558500Y-6535000D02*
X6588500Y-6535000D01*
X6576000Y-6240000D02*
X6576000Y-6270000D01*
X6561000Y-6255000D02*
X6591000Y-6255000D01*
X6580000Y-5485000D02*
X6580000Y-5515000D01*
X6565000Y-5500000D02*
X6595000Y-5500000D01*
X6580000Y-5625000D02*
X6580000Y-5655000D01*
X6565000Y-5640000D02*
X6595000Y-5640000D01*
X6601000Y-7025000D02*
X6601000Y-7055000D01*
X6586000Y-7040000D02*
X6616000Y-7040000D01*
X6601000Y-7240000D02*
X6601000Y-7270000D01*
X6586000Y-7255000D02*
X6616000Y-7255000D01*
X6601800Y-7628600D02*
X6601800Y-7658600D01*
X6586800Y-7643600D02*
X6616800Y-7643600D01*
X6640000Y-5522750D02*
X6640000Y-5552750D01*
X6625000Y-5537750D02*
X6655000Y-5537750D01*
X6640000Y-5587250D02*
X6640000Y-5617250D01*
X6625000Y-5602250D02*
X6655000Y-5602250D01*
X6650000Y-6240000D02*
X6650000Y-6270000D01*
X6635000Y-6255000D02*
X6665000Y-6255000D01*
X6650000Y-6520000D02*
X6650000Y-6550000D01*
X6635000Y-6535000D02*
X6665000Y-6535000D01*
X6675000Y-7025000D02*
X6675000Y-7055000D01*
X6660000Y-7040000D02*
X6690000Y-7040000D01*
X6675000Y-7240000D02*
X6675000Y-7270000D01*
X6660000Y-7255000D02*
X6690000Y-7255000D01*
X6700000Y-17165000D02*
X6700000Y-17195000D01*
X6685000Y-17180000D02*
X6715000Y-17180000D01*
X6703327Y-7382498D02*
X6703327Y-7412498D01*
X6688327Y-7397498D02*
X6718327Y-7397498D01*
X6710000Y-5705000D02*
X6710000Y-5735000D01*
X6695000Y-5720000D02*
X6725000Y-5720000D01*
X6710000Y-5845000D02*
X6710000Y-5875000D01*
X6695000Y-5860000D02*
X6725000Y-5860000D01*
X6723500Y-6520000D02*
X6723500Y-6550000D01*
X6708500Y-6535000D02*
X6738500Y-6535000D01*
X6726000Y-6240000D02*
X6726000Y-6270000D01*
X6711000Y-6255000D02*
X6741000Y-6255000D01*
X6730000Y-4075000D02*
X6730000Y-4105000D01*
X6715000Y-4090000D02*
X6745000Y-4090000D01*
X6751000Y-7025000D02*
X6751000Y-7055000D01*
X6736000Y-7040000D02*
X6766000Y-7040000D01*
X6751000Y-7240000D02*
X6751000Y-7270000D01*
X6736000Y-7255000D02*
X6766000Y-7255000D01*
X6790000Y-5742750D02*
X6790000Y-5772750D01*
X6775000Y-5757750D02*
X6805000Y-5757750D01*
X6790000Y-5807250D02*
X6790000Y-5837250D01*
X6775000Y-5822250D02*
X6805000Y-5822250D01*
X6800000Y-16625000D02*
X6800000Y-16655000D01*
X6785000Y-16640000D02*
X6815000Y-16640000D01*
X6840000Y-3065000D02*
X6840000Y-3095000D01*
X6825000Y-3080000D02*
X6855000Y-3080000D01*
X6850000Y-7115000D02*
X6850000Y-7145000D01*
X6835000Y-7130000D02*
X6865000Y-7130000D01*
X6870000Y-6545000D02*
X6870000Y-6575000D01*
X6855000Y-6560000D02*
X6885000Y-6560000D01*
X6900000Y-16585000D02*
X6900000Y-16615000D01*
X6885000Y-16600000D02*
X6915000Y-16600000D01*
X6910000Y-5965000D02*
X6910000Y-5995000D01*
X6895000Y-5980000D02*
X6925000Y-5980000D01*
X6910000Y-6105000D02*
X6910000Y-6135000D01*
X6895000Y-6120000D02*
X6925000Y-6120000D01*
X6935000Y-11896000D02*
X6935000Y-11926000D01*
X6920000Y-11911000D02*
X6950000Y-11911000D01*
X6937500Y-4107500D02*
X6937500Y-4137500D01*
X6922500Y-4122500D02*
X6952500Y-4122500D01*
X6940000Y-7265000D02*
X6940000Y-7295000D01*
X6925000Y-7280000D02*
X6955000Y-7280000D01*
X6980000Y-6002750D02*
X6980000Y-6032750D01*
X6965000Y-6017750D02*
X6995000Y-6017750D01*
X6980000Y-6067250D02*
X6980000Y-6097250D01*
X6965000Y-6082250D02*
X6995000Y-6082250D01*
X7020000Y-4177500D02*
X7020000Y-4207500D01*
X7005000Y-4192500D02*
X7035000Y-4192500D01*
X7020000Y-6985000D02*
X7020000Y-7015000D01*
X7005000Y-7000000D02*
X7035000Y-7000000D01*
X7025000Y-11676000D02*
X7025000Y-11706000D01*
X7010000Y-11691000D02*
X7040000Y-11691000D01*
X7080000Y-6245000D02*
X7080000Y-6275000D01*
X7065000Y-6260000D02*
X7095000Y-6260000D01*
X7080000Y-6945000D02*
X7080000Y-6975000D01*
X7065000Y-6960000D02*
X7095000Y-6960000D01*
X7095000Y-12226000D02*
X7095000Y-12256000D01*
X7080000Y-12241000D02*
X7110000Y-12241000D01*
X7125000Y-11586000D02*
X7125000Y-11616000D01*
X7110000Y-11601000D02*
X7140000Y-11601000D01*
X7135141Y-7284638D02*
X7135141Y-7314638D01*
X7120141Y-7299638D02*
X7150141Y-7299638D01*
X7147196Y-6177804D02*
X7147196Y-6207804D01*
X7132196Y-6192804D02*
X7162196Y-6192804D01*
X7192804Y-6132196D02*
X7192804Y-6162196D01*
X7177804Y-6147196D02*
X7207804Y-6147196D01*
X7200123Y-7286176D02*
X7200123Y-7316176D01*
X7185123Y-7301176D02*
X7215123Y-7301176D01*
X7201353Y-12272937D02*
X7201353Y-12302937D01*
X7186353Y-12287937D02*
X7216353Y-12287937D01*
X7217500Y-4992500D02*
X7217500Y-5022500D01*
X7202500Y-5007500D02*
X7232500Y-5007500D01*
X7273431Y-7013796D02*
X7273431Y-7043796D01*
X7258431Y-7028796D02*
X7288431Y-7028796D01*
X7336000Y-16195000D02*
X7336000Y-16225000D01*
X7321000Y-16210000D02*
X7351000Y-16210000D01*
X7338400Y-7015800D02*
X7338400Y-7045800D01*
X7323400Y-7030800D02*
X7353400Y-7030800D01*
X7345000Y-4032500D02*
X7345000Y-4062500D01*
X7330000Y-4047500D02*
X7360000Y-4047500D01*
X7370000Y-7315000D02*
X7370000Y-7345000D01*
X7355000Y-7330000D02*
X7385000Y-7330000D01*
X7375000Y-6249000D02*
X7375000Y-6279000D01*
X7360000Y-6264000D02*
X7390000Y-6264000D01*
X7460000Y-4225000D02*
X7460000Y-4255000D01*
X7445000Y-4240000D02*
X7475000Y-4240000D01*
X7480000Y-7005000D02*
X7480000Y-7035000D01*
X7465000Y-7020000D02*
X7495000Y-7020000D01*
X7525000Y-6249000D02*
X7525000Y-6279000D01*
X7510000Y-6264000D02*
X7540000Y-6264000D01*
X7560000Y-6945000D02*
X7560000Y-6975000D01*
X7545000Y-6960000D02*
X7575000Y-6960000D01*
X7580000Y-4335000D02*
X7580000Y-4365000D01*
X7565000Y-4350000D02*
X7595000Y-4350000D01*
X7585000Y-11556000D02*
X7585000Y-11586000D01*
X7570000Y-11571000D02*
X7600000Y-11571000D01*
X7599299Y-4847951D02*
X7599299Y-4877951D01*
X7584299Y-4862951D02*
X7614299Y-4862951D01*
X7620000Y-3795000D02*
X7620000Y-3825000D01*
X7605000Y-3810000D02*
X7635000Y-3810000D01*
X7665000Y-12276000D02*
X7665000Y-12306000D01*
X7650000Y-12291000D02*
X7680000Y-12291000D01*
X7675000Y-6249000D02*
X7675000Y-6279000D01*
X7660000Y-6264000D02*
X7690000Y-6264000D01*
X7686000Y-11535000D02*
X7686000Y-11565000D01*
X7671000Y-11550000D02*
X7701000Y-11550000D01*
X7686000Y-16195000D02*
X7686000Y-16225000D01*
X7671000Y-16210000D02*
X7701000Y-16210000D01*
X7750655Y-6969912D02*
X7750655Y-6999912D01*
X7735655Y-6984912D02*
X7765655Y-6984912D01*
X7798140Y-11664660D02*
X7798140Y-11694660D01*
X7783140Y-11679660D02*
X7813140Y-11679660D01*
X7798801Y-7026147D02*
X7798801Y-7056147D01*
X7783801Y-7041147D02*
X7813801Y-7041147D01*
X7825000Y-6249000D02*
X7825000Y-6279000D01*
X7810000Y-6264000D02*
X7840000Y-6264000D01*
X7854020Y-11712920D02*
X7854020Y-11742920D01*
X7839020Y-11727920D02*
X7869020Y-11727920D01*
X7855000Y-12276000D02*
X7855000Y-12306000D01*
X7840000Y-12291000D02*
X7870000Y-12291000D01*
X7899299Y-4847951D02*
X7899299Y-4877951D01*
X7884299Y-4862951D02*
X7914299Y-4862951D01*
X7938662Y-11702921D02*
X7938662Y-11732921D01*
X7923662Y-11717921D02*
X7953662Y-11717921D01*
X7950000Y-7031000D02*
X7950000Y-7061000D01*
X7935000Y-7046000D02*
X7965000Y-7046000D01*
X7955000Y-11856000D02*
X7955000Y-11886000D01*
X7940000Y-11871000D02*
X7970000Y-11871000D01*
X7975000Y-6249000D02*
X7975000Y-6279000D01*
X7960000Y-6264000D02*
X7990000Y-6264000D01*
X7976000Y-11765000D02*
X7976000Y-11795000D01*
X7961000Y-11780000D02*
X7991000Y-11780000D01*
X7980000Y-16385000D02*
X7980000Y-16415000D01*
X7965000Y-16400000D02*
X7995000Y-16400000D01*
X8000000Y-3335000D02*
X8000000Y-3365000D01*
X7985000Y-3350000D02*
X8015000Y-3350000D01*
X8002781Y-6993064D02*
X8002781Y-7023064D01*
X7987781Y-7008064D02*
X8017781Y-7008064D01*
X8052990Y-6951783D02*
X8052990Y-6981783D01*
X8037990Y-6966783D02*
X8067990Y-6966783D01*
X8085000Y-11336000D02*
X8085000Y-11366000D01*
X8070000Y-11351000D02*
X8100000Y-11351000D01*
X8102500Y-6909667D02*
X8102500Y-6939667D01*
X8087500Y-6924667D02*
X8117500Y-6924667D01*
X8125000Y-6249000D02*
X8125000Y-6279000D01*
X8110000Y-6264000D02*
X8140000Y-6264000D01*
X8145000Y-12266000D02*
X8145000Y-12296000D01*
X8130000Y-12281000D02*
X8160000Y-12281000D01*
X8156669Y-6873740D02*
X8156669Y-6903740D01*
X8141669Y-6888740D02*
X8171669Y-6888740D01*
X8160000Y-9785000D02*
X8160000Y-9815000D01*
X8145000Y-9800000D02*
X8175000Y-9800000D01*
X8199299Y-4847951D02*
X8199299Y-4877951D01*
X8184299Y-4862951D02*
X8214299Y-4862951D01*
X8210000Y-3065000D02*
X8210000Y-3095000D01*
X8195000Y-3080000D02*
X8225000Y-3080000D01*
X8226000Y-6942500D02*
X8226000Y-6972500D01*
X8211000Y-6957500D02*
X8241000Y-6957500D01*
X8275000Y-6249000D02*
X8275000Y-6279000D01*
X8260000Y-6264000D02*
X8290000Y-6264000D01*
X8299299Y-4790000D02*
X8299299Y-4820000D01*
X8284299Y-4805000D02*
X8314299Y-4805000D01*
X8300000Y-5375000D02*
X8300000Y-5405000D01*
X8285000Y-5390000D02*
X8315000Y-5390000D01*
X8390000Y-3915000D02*
X8390000Y-3945000D01*
X8375000Y-3930000D02*
X8405000Y-3930000D01*
X8399299Y-4890000D02*
X8399299Y-4920000D01*
X8384299Y-4905000D02*
X8414299Y-4905000D01*
X8401000Y-8002501D02*
X8401000Y-8032501D01*
X8386000Y-8017501D02*
X8416000Y-8017501D01*
X8405200Y-10966000D02*
X8405200Y-10996000D01*
X8390200Y-10981000D02*
X8420200Y-10981000D01*
X8425000Y-6249000D02*
X8425000Y-6279000D01*
X8410000Y-6264000D02*
X8440000Y-6264000D01*
X8425000Y-12276000D02*
X8425000Y-12306000D01*
X8410000Y-12291000D02*
X8440000Y-12291000D01*
X8435000Y-14356000D02*
X8435000Y-14386000D01*
X8420000Y-14371000D02*
X8450000Y-14371000D01*
X8480000Y-5565000D02*
X8480000Y-5595000D01*
X8465000Y-5580000D02*
X8495000Y-5580000D01*
X8505000Y-16647500D02*
X8505000Y-16677500D01*
X8490000Y-16662500D02*
X8520000Y-16662500D01*
X8572500Y-5360000D02*
X8572500Y-5390000D01*
X8557500Y-5375000D02*
X8587500Y-5375000D01*
X8576000Y-11056000D02*
X8576000Y-11086000D01*
X8561000Y-11071000D02*
X8591000Y-11071000D01*
X8635000Y-3915000D02*
X8635000Y-3945000D01*
X8620000Y-3930000D02*
X8650000Y-3930000D01*
X8638500Y-7872500D02*
X8638500Y-7902500D01*
X8623500Y-7887500D02*
X8653500Y-7887500D01*
X8638500Y-7937500D02*
X8638500Y-7967500D01*
X8623500Y-7952500D02*
X8653500Y-7952500D01*
X8638500Y-8067501D02*
X8638500Y-8097501D01*
X8623500Y-8082501D02*
X8653500Y-8082501D01*
X8638500Y-8132501D02*
X8638500Y-8162501D01*
X8623500Y-8147501D02*
X8653500Y-8147501D01*
X8670000Y-10135000D02*
X8670000Y-10165000D01*
X8655000Y-10150000D02*
X8685000Y-10150000D01*
X8672500Y-5360000D02*
X8672500Y-5390000D01*
X8657500Y-5375000D02*
X8687500Y-5375000D01*
X8699299Y-4842951D02*
X8699299Y-4872951D01*
X8684299Y-4857951D02*
X8714299Y-4857951D01*
X8760000Y-3465000D02*
X8760000Y-3495000D01*
X8745000Y-3480000D02*
X8775000Y-3480000D01*
X8770000Y-9725000D02*
X8770000Y-9755000D01*
X8755000Y-9740000D02*
X8785000Y-9740000D01*
X8775000Y-11406000D02*
X8775000Y-11436000D01*
X8760000Y-11421000D02*
X8790000Y-11421000D01*
X8880000Y-8010000D02*
X8880000Y-8040000D01*
X8865000Y-8025000D02*
X8895000Y-8025000D01*
X8880000Y-8392500D02*
X8880000Y-8422500D01*
X8865000Y-8407500D02*
X8895000Y-8407500D01*
X8887500Y-3905000D02*
X8887500Y-3935000D01*
X8872500Y-3920000D02*
X8902500Y-3920000D01*
X8943500Y-10242000D02*
X8943500Y-10272000D01*
X8928500Y-10257000D02*
X8958500Y-10257000D01*
X8960000Y-4755000D02*
X8960000Y-4785000D01*
X8945000Y-4770000D02*
X8975000Y-4770000D01*
X8993500Y-7435000D02*
X8993500Y-7465000D01*
X8978500Y-7450000D02*
X9008500Y-7450000D01*
X9020000Y-3555000D02*
X9020000Y-3585000D01*
X9005000Y-3570000D02*
X9035000Y-3570000D01*
X9020000Y-7695000D02*
X9020000Y-7725000D01*
X9005000Y-7710000D02*
X9035000Y-7710000D01*
X9023348Y-4764110D02*
X9023348Y-4794110D01*
X9008348Y-4779110D02*
X9038348Y-4779110D01*
X9050000Y-9415000D02*
X9050000Y-9445000D01*
X9035000Y-9430000D02*
X9065000Y-9430000D01*
X9080000Y-8772500D02*
X9080000Y-8802500D01*
X9065000Y-8787500D02*
X9095000Y-8787500D01*
X9085000Y-9846000D02*
X9085000Y-9876000D01*
X9070000Y-9861000D02*
X9100000Y-9861000D01*
X9096000Y-4585680D02*
X9096000Y-4615680D01*
X9081000Y-4600680D02*
X9111000Y-4600680D01*
X9096000Y-4656800D02*
X9096000Y-4686800D01*
X9081000Y-4671800D02*
X9111000Y-4671800D01*
X9150000Y-10205000D02*
X9150000Y-10235000D01*
X9135000Y-10220000D02*
X9165000Y-10220000D01*
X9155000Y-9187500D02*
X9155000Y-9217500D01*
X9140000Y-9202500D02*
X9170000Y-9202500D01*
X9330000Y-5065000D02*
X9330000Y-5095000D01*
X9315000Y-5080000D02*
X9345000Y-5080000D01*
X9330000Y-6005000D02*
X9330000Y-6035000D01*
X9315000Y-6020000D02*
X9345000Y-6020000D01*
X9330000Y-7625000D02*
X9330000Y-7655000D01*
X9315000Y-7640000D02*
X9345000Y-7640000D01*
X9360000Y-9625000D02*
X9360000Y-9655000D01*
X9345000Y-9640000D02*
X9375000Y-9640000D01*
X9360000Y-10105000D02*
X9360000Y-10135000D01*
X9345000Y-10120000D02*
X9375000Y-10120000D01*
X9386000Y-11185000D02*
X9386000Y-11215000D01*
X9371000Y-11200000D02*
X9401000Y-11200000D01*
X9446000Y-8182500D02*
X9446000Y-8212500D01*
X9431000Y-8197500D02*
X9461000Y-8197500D01*
X9451000Y-7630000D02*
X9451000Y-7660000D01*
X9436000Y-7645000D02*
X9466000Y-7645000D01*
X9485000Y-16320000D02*
X9485000Y-16350000D01*
X9470000Y-16335000D02*
X9500000Y-16335000D01*
X9546000Y-8805000D02*
X9546000Y-8835000D01*
X9531000Y-8820000D02*
X9561000Y-8820000D01*
X9560000Y-3065000D02*
X9560000Y-3095000D01*
X9545000Y-3080000D02*
X9575000Y-3080000D01*
X9650000Y-3735000D02*
X9650000Y-3765000D01*
X9635000Y-3750000D02*
X9665000Y-3750000D01*
X9680000Y-4645000D02*
X9680000Y-4675000D01*
X9665000Y-4660000D02*
X9695000Y-4660000D01*
X9705000Y-11466000D02*
X9705000Y-11496000D01*
X9690000Y-11481000D02*
X9720000Y-11481000D01*
X9787101Y-6986399D02*
X9787101Y-7016399D01*
X9772101Y-7001399D02*
X9802101Y-7001399D01*
X9801000Y-7152500D02*
X9801000Y-7182500D01*
X9786000Y-7167500D02*
X9816000Y-7167500D01*
X9805000Y-11406000D02*
X9805000Y-11436000D01*
X9790000Y-11421000D02*
X9820000Y-11421000D01*
X9805000Y-12046000D02*
X9805000Y-12076000D01*
X9790000Y-12061000D02*
X9820000Y-12061000D01*
X9840000Y-6487500D02*
X9840000Y-6517500D01*
X9825000Y-6502500D02*
X9855000Y-6502500D01*
X9905000Y-14746000D02*
X9905000Y-14776000D01*
X9890000Y-14761000D02*
X9920000Y-14761000D01*
X9935000Y-8955000D02*
X9935000Y-8985000D01*
X9920000Y-8970000D02*
X9950000Y-8970000D01*
X9992500Y-16715000D02*
X9992500Y-16745000D01*
X9977500Y-16730000D02*
X10007500Y-16730000D01*
X9995000Y-11456000D02*
X9995000Y-11486000D01*
X9980000Y-11471000D02*
X10010000Y-11471000D01*
X10015000Y-15506000D02*
X10015000Y-15536000D01*
X10000000Y-15521000D02*
X10030000Y-15521000D01*
X10033000Y-4362000D02*
X10033000Y-4392000D01*
X10018000Y-4377000D02*
X10048000Y-4377000D01*
X10041000Y-6475000D02*
X10041000Y-6505000D01*
X10026000Y-6490000D02*
X10056000Y-6490000D01*
X10050000Y-16795000D02*
X10050000Y-16825000D01*
X10035000Y-16810000D02*
X10065000Y-16810000D01*
X10081000Y-5087500D02*
X10081000Y-5117500D01*
X10066000Y-5102500D02*
X10096000Y-5102500D01*
X10092500Y-16715000D02*
X10092500Y-16745000D01*
X10077500Y-16730000D02*
X10107500Y-16730000D01*
X10121000Y-8680000D02*
X10121000Y-8710000D01*
X10106000Y-8695000D02*
X10136000Y-8695000D01*
X10135000Y-17032500D02*
X10135000Y-17062500D01*
X10120000Y-17047500D02*
X10150000Y-17047500D01*
X10150000Y-16795000D02*
X10150000Y-16825000D01*
X10135000Y-16810000D02*
X10165000Y-16810000D01*
X10168028Y-6421264D02*
X10168028Y-6451264D01*
X10153028Y-6436264D02*
X10183028Y-6436264D01*
X10168150Y-8035000D02*
X10168150Y-8065000D01*
X10153150Y-8050000D02*
X10183150Y-8050000D01*
X10211000Y-4847500D02*
X10211000Y-4877500D01*
X10196000Y-4862500D02*
X10226000Y-4862500D01*
X10294855Y-8201261D02*
X10294855Y-8231261D01*
X10279855Y-8216261D02*
X10309855Y-8216261D01*
X10296000Y-6830000D02*
X10296000Y-6860000D01*
X10281000Y-6845000D02*
X10311000Y-6845000D01*
X10300000Y-8815000D02*
X10300000Y-8845000D01*
X10285000Y-8830000D02*
X10315000Y-8830000D01*
X10340000Y-7705000D02*
X10340000Y-7735000D01*
X10325000Y-7720000D02*
X10355000Y-7720000D01*
X10346000Y-5247500D02*
X10346000Y-5277500D01*
X10331000Y-5262500D02*
X10361000Y-5262500D01*
X10365000Y-13846000D02*
X10365000Y-13876000D01*
X10350000Y-13861000D02*
X10380000Y-13861000D01*
X10391000Y-6160000D02*
X10391000Y-6190000D01*
X10376000Y-6175000D02*
X10406000Y-6175000D01*
X10405000Y-14216000D02*
X10405000Y-14246000D01*
X10390000Y-14231000D02*
X10420000Y-14231000D01*
X10420000Y-6475000D02*
X10420000Y-6505000D01*
X10405000Y-6490000D02*
X10435000Y-6490000D01*
X10423500Y-7965000D02*
X10423500Y-7995000D01*
X10408500Y-7980000D02*
X10438500Y-7980000D01*
X10495000Y-12336000D02*
X10495000Y-12366000D01*
X10480000Y-12351000D02*
X10510000Y-12351000D01*
X10542000Y-4972000D02*
X10542000Y-5002000D01*
X10527000Y-4987000D02*
X10557000Y-4987000D01*
X10545000Y-14346000D02*
X10545000Y-14376000D01*
X10530000Y-14361000D02*
X10560000Y-14361000D01*
X10546000Y-7962500D02*
X10546000Y-7992500D01*
X10531000Y-7977500D02*
X10561000Y-7977500D01*
X10575000Y-14736000D02*
X10575000Y-14766000D01*
X10560000Y-14751000D02*
X10590000Y-14751000D01*
X10605000Y-15506000D02*
X10605000Y-15536000D01*
X10590000Y-15521000D02*
X10620000Y-15521000D01*
X10610000Y-7485000D02*
X10610000Y-7515000D01*
X10595000Y-7500000D02*
X10625000Y-7500000D01*
X10660000Y-6195000D02*
X10660000Y-6225000D01*
X10645000Y-6210000D02*
X10675000Y-6210000D01*
X10670000Y-6315000D02*
X10670000Y-6345000D01*
X10655000Y-6330000D02*
X10685000Y-6330000D01*
X10671000Y-5450000D02*
X10671000Y-5480000D01*
X10656000Y-5465000D02*
X10686000Y-5465000D01*
X10676000Y-6850000D02*
X10676000Y-6880000D01*
X10661000Y-6865000D02*
X10691000Y-6865000D01*
X10695000Y-11786000D02*
X10695000Y-11816000D01*
X10680000Y-11801000D02*
X10710000Y-11801000D01*
X10695000Y-12296000D02*
X10695000Y-12326000D01*
X10680000Y-12311000D02*
X10710000Y-12311000D01*
X10715000Y-11666000D02*
X10715000Y-11696000D01*
X10700000Y-11681000D02*
X10730000Y-11681000D01*
X10785000Y-5248000D02*
X10785000Y-5278000D01*
X10770000Y-5263000D02*
X10800000Y-5263000D01*
X10785000Y-11546000D02*
X10785000Y-11576000D01*
X10770000Y-11561000D02*
X10800000Y-11561000D01*
X10803500Y-7957500D02*
X10803500Y-7987500D01*
X10788500Y-7972500D02*
X10818500Y-7972500D01*
X10820000Y-6865000D02*
X10820000Y-6895000D01*
X10805000Y-6880000D02*
X10835000Y-6880000D01*
X10929681Y-8219767D02*
X10929681Y-8249767D01*
X10914681Y-8234767D02*
X10944681Y-8234767D01*
X10930000Y-3065000D02*
X10930000Y-3095000D01*
X10915000Y-3080000D02*
X10945000Y-3080000D01*
X10940000Y-4995000D02*
X10940000Y-5025000D01*
X10925000Y-5010000D02*
X10955000Y-5010000D01*
X11030000Y-8065000D02*
X11030000Y-8095000D01*
X11015000Y-8080000D02*
X11045000Y-8080000D01*
X11057044Y-8216189D02*
X11057044Y-8246189D01*
X11042044Y-8231189D02*
X11072044Y-8231189D01*
X11185000Y-13856000D02*
X11185000Y-13886000D01*
X11170000Y-13871000D02*
X11200000Y-13871000D01*
X11220000Y-6495000D02*
X11220000Y-6525000D01*
X11205000Y-6510000D02*
X11235000Y-6510000D01*
X11224133Y-8815493D02*
X11224133Y-8845493D01*
X11209133Y-8830493D02*
X11239133Y-8830493D01*
X11245000Y-14726000D02*
X11245000Y-14756000D01*
X11230000Y-14741000D02*
X11260000Y-14741000D01*
X11245000Y-15506000D02*
X11245000Y-15536000D01*
X11230000Y-15521000D02*
X11260000Y-15521000D01*
X11306000Y-4955000D02*
X11306000Y-4985000D01*
X11291000Y-4970000D02*
X11321000Y-4970000D01*
X11393000Y-4847400D02*
X11393000Y-4877400D01*
X11378000Y-4862400D02*
X11408000Y-4862400D01*
X11490000Y-5045000D02*
X11490000Y-5075000D01*
X11475000Y-5060000D02*
X11505000Y-5060000D01*
X11610000Y-5615000D02*
X11610000Y-5645000D01*
X11595000Y-5630000D02*
X11625000Y-5630000D01*
X11620000Y-5505000D02*
X11620000Y-5535000D01*
X11605000Y-5520000D02*
X11635000Y-5520000D01*
X3316213Y-5089213D02*
X3316213Y-5046787D01*
X3273787Y-5046787D01*
X3273787Y-5089213D01*
X3316213Y-5089213D01*
X3265000Y-5098000D02*
X3325000Y-5098000D01*
X3325000Y-5038000D02*
G75*
G02*
X3325000Y-5098000I0J-30000D01*
G01*
X3325000Y-5038000D02*
X3265000Y-5038000D01*
X3265000Y-5038000D02*
G75*
G03*
X3265000Y-5098000I0J-30000D01*
G01*
X3316213Y-5953213D02*
X3316213Y-5910787D01*
X3273787Y-5910787D01*
X3273787Y-5953213D01*
X3316213Y-5953213D01*
X3265000Y-5962000D02*
X3325000Y-5962000D01*
X3325000Y-5902000D02*
G75*
G02*
X3325000Y-5962000I0J-30000D01*
G01*
X3325000Y-5902000D02*
X3265000Y-5902000D01*
X3265000Y-5902000D02*
G75*
G03*
X3265000Y-5962000I0J-30000D01*
G01*
X3563713Y-12668941D02*
X3563713Y-12626514D01*
X3521287Y-12626514D01*
X3521287Y-12668941D01*
X3563713Y-12668941D01*
X3563713Y-13458941D02*
X3563713Y-13416514D01*
X3521287Y-13416514D01*
X3521287Y-13458941D01*
X3563713Y-13458941D01*
X3563713Y-14248941D02*
X3563713Y-14206514D01*
X3521287Y-14206514D01*
X3521287Y-14248941D01*
X3563713Y-14248941D01*
X3563713Y-15038941D02*
X3563713Y-14996514D01*
X3521287Y-14996514D01*
X3521287Y-15038941D01*
X3563713Y-15038941D01*
X3563713Y-15828941D02*
X3563713Y-15786514D01*
X3521287Y-15786514D01*
X3521287Y-15828941D01*
X3563713Y-15828941D01*
X3717713Y-11819941D02*
X3717713Y-11777514D01*
X3675287Y-11777514D01*
X3675287Y-11819941D01*
X3717713Y-11819941D01*
X3734213Y-5089213D02*
X3734213Y-5046787D01*
X3691787Y-5046787D01*
X3691787Y-5089213D01*
X3734213Y-5089213D01*
X3658000Y-5098000D02*
X3768000Y-5098000D01*
X3768000Y-5038000D02*
G75*
G02*
X3768000Y-5098000I0J-30000D01*
G01*
X3768000Y-5038000D02*
X3658000Y-5038000D01*
X3658000Y-5038000D02*
G75*
G03*
X3658000Y-5098000I0J-30000D01*
G01*
X3734213Y-5953213D02*
X3734213Y-5910787D01*
X3691787Y-5910787D01*
X3691787Y-5953213D01*
X3734213Y-5953213D01*
X3658000Y-5962000D02*
X3768000Y-5962000D01*
X3768000Y-5902000D02*
G75*
G02*
X3768000Y-5962000I0J-30000D01*
G01*
X3768000Y-5902000D02*
X3658000Y-5902000D01*
X3658000Y-5902000D02*
G75*
G03*
X3658000Y-5962000I0J-30000D01*
G01*
X4223713Y-12668941D02*
X4223713Y-12626514D01*
X4181287Y-12626514D01*
X4181287Y-12668941D01*
X4223713Y-12668941D01*
X4223713Y-13458941D02*
X4223713Y-13416514D01*
X4181287Y-13416514D01*
X4181287Y-13458941D01*
X4223713Y-13458941D01*
X4223713Y-14248941D02*
X4223713Y-14206514D01*
X4181287Y-14206514D01*
X4181287Y-14248941D01*
X4223713Y-14248941D01*
X4223713Y-15038941D02*
X4223713Y-14996514D01*
X4181287Y-14996514D01*
X4181287Y-15038941D01*
X4223713Y-15038941D01*
X4223713Y-15828941D02*
X4223713Y-15786514D01*
X4181287Y-15786514D01*
X4181287Y-15828941D01*
X4223713Y-15828941D01*
X4685213Y-11819941D02*
X4685213Y-11777514D01*
X4642787Y-11777514D01*
X4642787Y-11819941D01*
X4685213Y-11819941D01*
X4883713Y-12668941D02*
X4883713Y-12626514D01*
X4841287Y-12626514D01*
X4841287Y-12668941D01*
X4883713Y-12668941D01*
X4883713Y-13458941D02*
X4883713Y-13416514D01*
X4841287Y-13416514D01*
X4841287Y-13458941D01*
X4883713Y-13458941D01*
X4883713Y-14248941D02*
X4883713Y-14206514D01*
X4841287Y-14206514D01*
X4841287Y-14248941D01*
X4883713Y-14248941D01*
X4883713Y-15038941D02*
X4883713Y-14996514D01*
X4841287Y-14996514D01*
X4841287Y-15038941D01*
X4883713Y-15038941D01*
X4883713Y-15828941D02*
X4883713Y-15786514D01*
X4841287Y-15786514D01*
X4841287Y-15828941D01*
X4883713Y-15828941D01*
X5543713Y-12668941D02*
X5543713Y-12626514D01*
X5501287Y-12626514D01*
X5501287Y-12668941D01*
X5543713Y-12668941D01*
X5543713Y-13458941D02*
X5543713Y-13416514D01*
X5501287Y-13416514D01*
X5501287Y-13458941D01*
X5543713Y-13458941D01*
X5543713Y-14248941D02*
X5543713Y-14206514D01*
X5501287Y-14206514D01*
X5501287Y-14248941D01*
X5543713Y-14248941D01*
X5543713Y-15038941D02*
X5543713Y-14996514D01*
X5501287Y-14996514D01*
X5501287Y-15038941D01*
X5543713Y-15038941D01*
X5543713Y-15828941D02*
X5543713Y-15786514D01*
X5501287Y-15786514D01*
X5501287Y-15828941D01*
X5543713Y-15828941D01*
X5652713Y-11819941D02*
X5652713Y-11777514D01*
X5610287Y-11777514D01*
X5610287Y-11819941D01*
X5652713Y-11819941D01*
X6203713Y-12668941D02*
X6203713Y-12626514D01*
X6161287Y-12626514D01*
X6161287Y-12668941D01*
X6203713Y-12668941D01*
X6203713Y-13458941D02*
X6203713Y-13416514D01*
X6161287Y-13416514D01*
X6161287Y-13458941D01*
X6203713Y-13458941D01*
X6203713Y-14248941D02*
X6203713Y-14206514D01*
X6161287Y-14206514D01*
X6161287Y-14248941D01*
X6203713Y-14248941D01*
X6203713Y-15038941D02*
X6203713Y-14996514D01*
X6161287Y-14996514D01*
X6161287Y-15038941D01*
X6203713Y-15038941D01*
X6533713Y-15828941D02*
X6533713Y-15786514D01*
X6491287Y-15786514D01*
X6491287Y-15828941D01*
X6533713Y-15828941D01*
X6620213Y-11819941D02*
X6620213Y-11777514D01*
X6577787Y-11777514D01*
X6577787Y-11819941D01*
X6620213Y-11819941D01*
X6863713Y-12668941D02*
X6863713Y-12626514D01*
X6821287Y-12626514D01*
X6821287Y-12668941D01*
X6863713Y-12668941D01*
X6863713Y-13458941D02*
X6863713Y-13416514D01*
X6821287Y-13416514D01*
X6821287Y-13458941D01*
X6863713Y-13458941D01*
X6863713Y-14248941D02*
X6863713Y-14206514D01*
X6821287Y-14206514D01*
X6821287Y-14248941D01*
X6863713Y-14248941D01*
X6863713Y-15038941D02*
X6863713Y-14996514D01*
X6821287Y-14996514D01*
X6821287Y-15038941D01*
X6863713Y-15038941D01*
X7089213Y-16808213D02*
X7089213Y-16765787D01*
X7046787Y-16765787D01*
X7046787Y-16808213D01*
X7089213Y-16808213D01*
X7098000Y-16842000D02*
X7098000Y-16732000D01*
X7038000Y-16732000D02*
G75*
G02*
X7098000Y-16732000I30000J0D01*
G01*
X7038000Y-16732000D02*
X7038000Y-16842000D01*
X7038000Y-16842000D02*
G75*
G03*
X7098000Y-16842000I30000J0D01*
G01*
X7089213Y-17226213D02*
X7089213Y-17183787D01*
X7046787Y-17183787D01*
X7046787Y-17226213D01*
X7089213Y-17226213D01*
X7098000Y-17235000D02*
X7098000Y-17175000D01*
X7038000Y-17175000D02*
G75*
G02*
X7098000Y-17175000I30000J0D01*
G01*
X7038000Y-17175000D02*
X7038000Y-17235000D01*
X7038000Y-17235000D02*
G75*
G03*
X7098000Y-17235000I30000J0D01*
G01*
X7523713Y-12668941D02*
X7523713Y-12626514D01*
X7481287Y-12626514D01*
X7481287Y-12668941D01*
X7523713Y-12668941D01*
X7523713Y-13458941D02*
X7523713Y-13416514D01*
X7481287Y-13416514D01*
X7481287Y-13458941D01*
X7523713Y-13458941D01*
X7523713Y-14248941D02*
X7523713Y-14206514D01*
X7481287Y-14206514D01*
X7481287Y-14248941D01*
X7523713Y-14248941D01*
X7523713Y-15038941D02*
X7523713Y-14996514D01*
X7481287Y-14996514D01*
X7481287Y-15038941D01*
X7523713Y-15038941D01*
X7523713Y-15828941D02*
X7523713Y-15786514D01*
X7481287Y-15786514D01*
X7481287Y-15828941D01*
X7523713Y-15828941D01*
X7953213Y-16808213D02*
X7953213Y-16765787D01*
X7910787Y-16765787D01*
X7910787Y-16808213D01*
X7953213Y-16808213D01*
X7962000Y-16842000D02*
X7962000Y-16732000D01*
X7902000Y-16732000D02*
G75*
G02*
X7962000Y-16732000I30000J0D01*
G01*
X7902000Y-16732000D02*
X7902000Y-16842000D01*
X7902000Y-16842000D02*
G75*
G03*
X7962000Y-16842000I30000J0D01*
G01*
X7953213Y-17226213D02*
X7953213Y-17183787D01*
X7910787Y-17183787D01*
X7910787Y-17226213D01*
X7953213Y-17226213D01*
X7962000Y-17235000D02*
X7962000Y-17175000D01*
X7902000Y-17175000D02*
G75*
G02*
X7962000Y-17175000I30000J0D01*
G01*
X7902000Y-17175000D02*
X7902000Y-17235000D01*
X7902000Y-17235000D02*
G75*
G03*
X7962000Y-17235000I30000J0D01*
G01*
X8183713Y-12668941D02*
X8183713Y-12626514D01*
X8141287Y-12626514D01*
X8141287Y-12668941D01*
X8183713Y-12668941D01*
X8183713Y-13458941D02*
X8183713Y-13416514D01*
X8141287Y-13416514D01*
X8141287Y-13458941D01*
X8183713Y-13458941D01*
X8183713Y-14248941D02*
X8183713Y-14206514D01*
X8141287Y-14206514D01*
X8141287Y-14248941D01*
X8183713Y-14248941D01*
X8183713Y-15038941D02*
X8183713Y-14996514D01*
X8141287Y-14996514D01*
X8141287Y-15038941D01*
X8183713Y-15038941D01*
X8427713Y-11819941D02*
X8427713Y-11777514D01*
X8385287Y-11777514D01*
X8385287Y-11819941D01*
X8427713Y-11819941D01*
X8513713Y-15828941D02*
X8513713Y-15786514D01*
X8471287Y-15786514D01*
X8471287Y-15828941D01*
X8513713Y-15828941D01*
X8843713Y-12668941D02*
X8843713Y-12626514D01*
X8801287Y-12626514D01*
X8801287Y-12668941D01*
X8843713Y-12668941D01*
X8843713Y-13458941D02*
X8843713Y-13416514D01*
X8801287Y-13416514D01*
X8801287Y-13458941D01*
X8843713Y-13458941D01*
X8843713Y-14248941D02*
X8843713Y-14206514D01*
X8801287Y-14206514D01*
X8801287Y-14248941D01*
X8843713Y-14248941D01*
X8843713Y-15038941D02*
X8843713Y-14996514D01*
X8801287Y-14996514D01*
X8801287Y-15038941D01*
X8843713Y-15038941D01*
X9395213Y-11819941D02*
X9395213Y-11777514D01*
X9352787Y-11777514D01*
X9352787Y-11819941D01*
X9395213Y-11819941D01*
X9503713Y-12668941D02*
X9503713Y-12626514D01*
X9461287Y-12626514D01*
X9461287Y-12668941D01*
X9503713Y-12668941D01*
X9503713Y-13458941D02*
X9503713Y-13416514D01*
X9461287Y-13416514D01*
X9461287Y-13458941D01*
X9503713Y-13458941D01*
X9503713Y-14248941D02*
X9503713Y-14206514D01*
X9461287Y-14206514D01*
X9461287Y-14248941D01*
X9503713Y-14248941D01*
X9503713Y-15038941D02*
X9503713Y-14996514D01*
X9461287Y-14996514D01*
X9461287Y-15038941D01*
X9503713Y-15038941D01*
X9503713Y-15828941D02*
X9503713Y-15786514D01*
X9461287Y-15786514D01*
X9461287Y-15828941D01*
X9503713Y-15828941D01*
X10163713Y-12668941D02*
X10163713Y-12626514D01*
X10121287Y-12626514D01*
X10121287Y-12668941D01*
X10163713Y-12668941D01*
X10163713Y-13458941D02*
X10163713Y-13416514D01*
X10121287Y-13416514D01*
X10121287Y-13458941D01*
X10163713Y-13458941D01*
X10163713Y-14248941D02*
X10163713Y-14206514D01*
X10121287Y-14206514D01*
X10121287Y-14248941D01*
X10163713Y-14248941D01*
X10163713Y-15038941D02*
X10163713Y-14996514D01*
X10121287Y-14996514D01*
X10121287Y-15038941D01*
X10163713Y-15038941D01*
X10163713Y-15828941D02*
X10163713Y-15786514D01*
X10121287Y-15786514D01*
X10121287Y-15828941D01*
X10163713Y-15828941D01*
X10362713Y-11819941D02*
X10362713Y-11777514D01*
X10320287Y-11777514D01*
X10320287Y-11819941D01*
X10362713Y-11819941D01*
X10823713Y-12668941D02*
X10823713Y-12626514D01*
X10781287Y-12626514D01*
X10781287Y-12668941D01*
X10823713Y-12668941D01*
X10823713Y-13458941D02*
X10823713Y-13416514D01*
X10781287Y-13416514D01*
X10781287Y-13458941D01*
X10823713Y-13458941D01*
X10823713Y-14248941D02*
X10823713Y-14206514D01*
X10781287Y-14206514D01*
X10781287Y-14248941D01*
X10823713Y-14248941D01*
X10823713Y-15038941D02*
X10823713Y-14996514D01*
X10781287Y-14996514D01*
X10781287Y-15038941D01*
X10823713Y-15038941D01*
X10823713Y-15828941D02*
X10823713Y-15786514D01*
X10781287Y-15786514D01*
X10781287Y-15828941D01*
X10823713Y-15828941D01*
X11330213Y-11819941D02*
X11330213Y-11777514D01*
X11287787Y-11777514D01*
X11287787Y-11819941D01*
X11330213Y-11819941D01*
X11483713Y-12668941D02*
X11483713Y-12626514D01*
X11441287Y-12626514D01*
X11441287Y-12668941D01*
X11483713Y-12668941D01*
X11483713Y-13458941D02*
X11483713Y-13416514D01*
X11441287Y-13416514D01*
X11441287Y-13458941D01*
X11483713Y-13458941D01*
X11483713Y-14248941D02*
X11483713Y-14206514D01*
X11441287Y-14206514D01*
X11441287Y-14248941D01*
X11483713Y-14248941D01*
X11483713Y-15038941D02*
X11483713Y-14996514D01*
X11441287Y-14996514D01*
X11441287Y-15038941D01*
X11483713Y-15038941D01*
X11483713Y-15828941D02*
X11483713Y-15786514D01*
X11441287Y-15786514D01*
X11441287Y-15828941D01*
X11483713Y-15828941D01*
X3200000Y-3450000D02*
X3250000Y-3400000D01*
X3200000Y-3350000D01*
X3150000Y-3400000D01*
X3200000Y-3450000D01*
X3200000Y-3725000D02*
X3250000Y-3675000D01*
X3200000Y-3625000D01*
X3150000Y-3675000D01*
X3200000Y-3725000D01*
X3200000Y-4000000D02*
X3250000Y-3950000D01*
X3200000Y-3900000D01*
X3150000Y-3950000D01*
X3200000Y-4000000D01*
X3200000Y-4275000D02*
X3250000Y-4225000D01*
X3200000Y-4175000D01*
X3150000Y-4225000D01*
X3200000Y-4275000D01*
X3200000Y-4550000D02*
X3250000Y-4500000D01*
X3200000Y-4450000D01*
X3150000Y-4500000D01*
X3200000Y-4550000D01*
X3200000Y-4825000D02*
X3250000Y-4775000D01*
X3200000Y-4725000D01*
X3150000Y-4775000D01*
X3200000Y-4825000D01*
D14*
X11266000Y-3666000D02*
X11426000Y-3826000D01*
X11426000Y-3666000D02*
X11266000Y-3826000D01*
X11426000Y-3746000D02*
G75*
G02*
X11266000Y-3746000I-80000J0D01*
G01*
X11266000Y-3746000D02*
G75*
G02*
X11426000Y-3746000I80000J0D01*
G01*
X11266000Y-4174000D02*
X11426000Y-4334000D01*
X11426000Y-4174000D02*
X11266000Y-4334000D01*
X11426000Y-4254000D02*
G75*
G02*
X11266000Y-4254000I-80000J0D01*
G01*
X11266000Y-4254000D02*
G75*
G02*
X11426000Y-4254000I80000J0D01*
G01*
X11520000Y-3920000D02*
X11680000Y-4080000D01*
X11680000Y-3920000D02*
X11520000Y-4080000D01*
X11680000Y-4000000D02*
G75*
G02*
X11520000Y-4000000I-80000J0D01*
G01*
X11520000Y-4000000D02*
G75*
G02*
X11680000Y-4000000I80000J0D01*
G01*
X11774000Y-3666000D02*
X11934000Y-3826000D01*
X11934000Y-3666000D02*
X11774000Y-3826000D01*
X11934000Y-3746000D02*
G75*
G02*
X11774000Y-3746000I-80000J0D01*
G01*
X11774000Y-3746000D02*
G75*
G02*
X11934000Y-3746000I80000J0D01*
G01*
X11774000Y-4174000D02*
X11934000Y-4334000D01*
X11934000Y-4174000D02*
X11774000Y-4334000D01*
X11934000Y-4254000D02*
G75*
G02*
X11774000Y-4254000I-80000J0D01*
G01*
X11774000Y-4254000D02*
G75*
G02*
X11934000Y-4254000I80000J0D01*
G01*
D15*
X7312500Y-10762500D02*
X7687500Y-11137500D01*
X7687500Y-10762500D02*
X7312500Y-11137500D01*
X7500000Y-10762500D02*
X7500000Y-11137500D01*
X7312500Y-10950000D02*
X7687500Y-10950000D01*
D13*
X3258277Y-17813984D02*
X3258277Y-17613984D01*
X3258277Y-17613984D02*
X3305896Y-17613984D01*
X3305896Y-17613984D02*
X3334467Y-17623508D01*
X3334467Y-17623508D02*
X3353515Y-17642555D01*
X3353515Y-17642555D02*
X3363039Y-17661603D01*
X3363039Y-17661603D02*
X3372562Y-17699698D01*
X3372562Y-17699698D02*
X3372562Y-17728270D01*
X3372562Y-17728270D02*
X3363039Y-17766365D01*
X3363039Y-17766365D02*
X3353515Y-17785412D01*
X3353515Y-17785412D02*
X3334467Y-17804460D01*
X3334467Y-17804460D02*
X3305896Y-17813984D01*
X3305896Y-17813984D02*
X3258277Y-17813984D01*
X3458277Y-17813984D02*
X3458277Y-17680650D01*
X3458277Y-17718746D02*
X3467801Y-17699698D01*
X3467801Y-17699698D02*
X3477324Y-17690174D01*
X3477324Y-17690174D02*
X3496372Y-17680650D01*
X3496372Y-17680650D02*
X3515420Y-17680650D01*
X3582086Y-17813984D02*
X3582086Y-17680650D01*
X3582086Y-17613984D02*
X3572562Y-17623508D01*
X3572562Y-17623508D02*
X3582086Y-17633031D01*
X3582086Y-17633031D02*
X3591610Y-17623508D01*
X3591610Y-17623508D02*
X3582086Y-17613984D01*
X3582086Y-17613984D02*
X3582086Y-17633031D01*
X3705896Y-17813984D02*
X3686848Y-17804460D01*
X3686848Y-17804460D02*
X3677324Y-17785412D01*
X3677324Y-17785412D02*
X3677324Y-17613984D01*
X3810658Y-17813984D02*
X3791610Y-17804460D01*
X3791610Y-17804460D02*
X3782086Y-17785412D01*
X3782086Y-17785412D02*
X3782086Y-17613984D01*
X4039229Y-17813984D02*
X4039229Y-17613984D01*
X4039229Y-17613984D02*
X4105896Y-17756841D01*
X4105896Y-17756841D02*
X4172562Y-17613984D01*
X4172562Y-17613984D02*
X4172562Y-17813984D01*
X4353515Y-17813984D02*
X4353515Y-17709222D01*
X4353515Y-17709222D02*
X4343991Y-17690174D01*
X4343991Y-17690174D02*
X4324944Y-17680650D01*
X4324944Y-17680650D02*
X4286848Y-17680650D01*
X4286848Y-17680650D02*
X4267801Y-17690174D01*
X4353515Y-17804460D02*
X4334467Y-17813984D01*
X4334467Y-17813984D02*
X4286848Y-17813984D01*
X4286848Y-17813984D02*
X4267801Y-17804460D01*
X4267801Y-17804460D02*
X4258277Y-17785412D01*
X4258277Y-17785412D02*
X4258277Y-17766365D01*
X4258277Y-17766365D02*
X4267801Y-17747317D01*
X4267801Y-17747317D02*
X4286848Y-17737793D01*
X4286848Y-17737793D02*
X4334467Y-17737793D01*
X4334467Y-17737793D02*
X4353515Y-17728270D01*
X4448753Y-17680650D02*
X4448753Y-17880650D01*
X4448753Y-17690174D02*
X4467801Y-17680650D01*
X4467801Y-17680650D02*
X4505896Y-17680650D01*
X4505896Y-17680650D02*
X4524944Y-17690174D01*
X4524944Y-17690174D02*
X4534467Y-17699698D01*
X4534467Y-17699698D02*
X4543991Y-17718746D01*
X4543991Y-17718746D02*
X4543991Y-17775889D01*
X4543991Y-17775889D02*
X4534467Y-17794936D01*
X4534467Y-17794936D02*
X4524944Y-17804460D01*
X4524944Y-17804460D02*
X4505896Y-17813984D01*
X4505896Y-17813984D02*
X4467801Y-17813984D01*
X4467801Y-17813984D02*
X4448753Y-17804460D01*
X4629705Y-17794936D02*
X4639229Y-17804460D01*
X4639229Y-17804460D02*
X4629705Y-17813984D01*
X4629705Y-17813984D02*
X4620182Y-17804460D01*
X4620182Y-17804460D02*
X4629705Y-17794936D01*
X4629705Y-17794936D02*
X4629705Y-17813984D01*
X4629705Y-17690174D02*
X4639229Y-17699698D01*
X4639229Y-17699698D02*
X4629705Y-17709222D01*
X4629705Y-17709222D02*
X4620182Y-17699698D01*
X4620182Y-17699698D02*
X4629705Y-17690174D01*
X4629705Y-17690174D02*
X4629705Y-17709222D01*
D11*
X2977500Y-18132500D02*
X2997500Y-18152500D01*
X2997500Y-18132500D02*
X2977500Y-18152500D01*
D13*
X3296372Y-18033984D02*
X3315420Y-18033984D01*
X3315420Y-18033984D02*
X3334467Y-18043508D01*
X3334467Y-18043508D02*
X3343991Y-18053031D01*
X3343991Y-18053031D02*
X3353515Y-18072079D01*
X3353515Y-18072079D02*
X3363039Y-18110174D01*
X3363039Y-18110174D02*
X3363039Y-18157793D01*
X3363039Y-18157793D02*
X3353515Y-18195889D01*
X3353515Y-18195889D02*
X3343991Y-18214936D01*
X3343991Y-18214936D02*
X3334467Y-18224460D01*
X3334467Y-18224460D02*
X3315420Y-18233984D01*
X3315420Y-18233984D02*
X3296372Y-18233984D01*
X3296372Y-18233984D02*
X3277324Y-18224460D01*
X3277324Y-18224460D02*
X3267801Y-18214936D01*
X3267801Y-18214936D02*
X3258277Y-18195889D01*
X3258277Y-18195889D02*
X3248753Y-18157793D01*
X3248753Y-18157793D02*
X3248753Y-18110174D01*
X3248753Y-18110174D02*
X3258277Y-18072079D01*
X3258277Y-18072079D02*
X3267801Y-18053031D01*
X3267801Y-18053031D02*
X3277324Y-18043508D01*
X3277324Y-18043508D02*
X3296372Y-18033984D01*
X3448753Y-18214936D02*
X3458277Y-18224460D01*
X3458277Y-18224460D02*
X3448753Y-18233984D01*
X3448753Y-18233984D02*
X3439229Y-18224460D01*
X3439229Y-18224460D02*
X3448753Y-18214936D01*
X3448753Y-18214936D02*
X3448753Y-18233984D01*
X3534467Y-18053031D02*
X3543991Y-18043508D01*
X3543991Y-18043508D02*
X3563039Y-18033984D01*
X3563039Y-18033984D02*
X3610658Y-18033984D01*
X3610658Y-18033984D02*
X3629705Y-18043508D01*
X3629705Y-18043508D02*
X3639229Y-18053031D01*
X3639229Y-18053031D02*
X3648753Y-18072079D01*
X3648753Y-18072079D02*
X3648753Y-18091127D01*
X3648753Y-18091127D02*
X3639229Y-18119698D01*
X3639229Y-18119698D02*
X3524943Y-18233984D01*
X3524943Y-18233984D02*
X3648753Y-18233984D01*
X3772562Y-18033984D02*
X3791610Y-18033984D01*
X3791610Y-18033984D02*
X3810658Y-18043508D01*
X3810658Y-18043508D02*
X3820182Y-18053031D01*
X3820182Y-18053031D02*
X3829705Y-18072079D01*
X3829705Y-18072079D02*
X3839229Y-18110174D01*
X3839229Y-18110174D02*
X3839229Y-18157793D01*
X3839229Y-18157793D02*
X3829705Y-18195889D01*
X3829705Y-18195889D02*
X3820182Y-18214936D01*
X3820182Y-18214936D02*
X3810658Y-18224460D01*
X3810658Y-18224460D02*
X3791610Y-18233984D01*
X3791610Y-18233984D02*
X3772562Y-18233984D01*
X3772562Y-18233984D02*
X3753515Y-18224460D01*
X3753515Y-18224460D02*
X3743991Y-18214936D01*
X3743991Y-18214936D02*
X3734467Y-18195889D01*
X3734467Y-18195889D02*
X3724943Y-18157793D01*
X3724943Y-18157793D02*
X3724943Y-18110174D01*
X3724943Y-18110174D02*
X3734467Y-18072079D01*
X3734467Y-18072079D02*
X3743991Y-18053031D01*
X3743991Y-18053031D02*
X3753515Y-18043508D01*
X3753515Y-18043508D02*
X3772562Y-18033984D01*
X3963039Y-18033984D02*
X3982086Y-18033984D01*
X3982086Y-18033984D02*
X4001134Y-18043508D01*
X4001134Y-18043508D02*
X4010658Y-18053031D01*
X4010658Y-18053031D02*
X4020182Y-18072079D01*
X4020182Y-18072079D02*
X4029705Y-18110174D01*
X4029705Y-18110174D02*
X4029705Y-18157793D01*
X4029705Y-18157793D02*
X4020182Y-18195889D01*
X4020182Y-18195889D02*
X4010658Y-18214936D01*
X4010658Y-18214936D02*
X4001134Y-18224460D01*
X4001134Y-18224460D02*
X3982086Y-18233984D01*
X3982086Y-18233984D02*
X3963039Y-18233984D01*
X3963039Y-18233984D02*
X3943991Y-18224460D01*
X3943991Y-18224460D02*
X3934467Y-18214936D01*
X3934467Y-18214936D02*
X3924943Y-18195889D01*
X3924943Y-18195889D02*
X3915420Y-18157793D01*
X3915420Y-18157793D02*
X3915420Y-18110174D01*
X3915420Y-18110174D02*
X3924943Y-18072079D01*
X3924943Y-18072079D02*
X3934467Y-18053031D01*
X3934467Y-18053031D02*
X3943991Y-18043508D01*
X3943991Y-18043508D02*
X3963039Y-18033984D01*
X4115420Y-18233984D02*
X4115420Y-18100650D01*
X4115420Y-18119698D02*
X4124943Y-18110174D01*
X4124943Y-18110174D02*
X4143991Y-18100650D01*
X4143991Y-18100650D02*
X4172563Y-18100650D01*
X4172563Y-18100650D02*
X4191610Y-18110174D01*
X4191610Y-18110174D02*
X4201134Y-18129222D01*
X4201134Y-18129222D02*
X4201134Y-18233984D01*
X4201134Y-18129222D02*
X4210658Y-18110174D01*
X4210658Y-18110174D02*
X4229705Y-18100650D01*
X4229705Y-18100650D02*
X4258277Y-18100650D01*
X4258277Y-18100650D02*
X4277325Y-18110174D01*
X4277325Y-18110174D02*
X4286848Y-18129222D01*
X4286848Y-18129222D02*
X4286848Y-18233984D01*
X4382086Y-18233984D02*
X4382086Y-18100650D01*
X4382086Y-18119698D02*
X4391610Y-18110174D01*
X4391610Y-18110174D02*
X4410658Y-18100650D01*
X4410658Y-18100650D02*
X4439229Y-18100650D01*
X4439229Y-18100650D02*
X4458277Y-18110174D01*
X4458277Y-18110174D02*
X4467801Y-18129222D01*
X4467801Y-18129222D02*
X4467801Y-18233984D01*
X4467801Y-18129222D02*
X4477325Y-18110174D01*
X4477325Y-18110174D02*
X4496372Y-18100650D01*
X4496372Y-18100650D02*
X4524944Y-18100650D01*
X4524944Y-18100650D02*
X4543991Y-18110174D01*
X4543991Y-18110174D02*
X4553515Y-18129222D01*
X4553515Y-18129222D02*
X4553515Y-18233984D01*
X4943991Y-18024460D02*
X4772563Y-18281603D01*
X5201134Y-18033984D02*
X5220182Y-18033984D01*
X5220182Y-18033984D02*
X5239229Y-18043508D01*
X5239229Y-18043508D02*
X5248753Y-18053031D01*
X5248753Y-18053031D02*
X5258277Y-18072079D01*
X5258277Y-18072079D02*
X5267801Y-18110174D01*
X5267801Y-18110174D02*
X5267801Y-18157793D01*
X5267801Y-18157793D02*
X5258277Y-18195889D01*
X5258277Y-18195889D02*
X5248753Y-18214936D01*
X5248753Y-18214936D02*
X5239229Y-18224460D01*
X5239229Y-18224460D02*
X5220182Y-18233984D01*
X5220182Y-18233984D02*
X5201134Y-18233984D01*
X5201134Y-18233984D02*
X5182087Y-18224460D01*
X5182087Y-18224460D02*
X5172563Y-18214936D01*
X5172563Y-18214936D02*
X5163039Y-18195889D01*
X5163039Y-18195889D02*
X5153515Y-18157793D01*
X5153515Y-18157793D02*
X5153515Y-18110174D01*
X5153515Y-18110174D02*
X5163039Y-18072079D01*
X5163039Y-18072079D02*
X5172563Y-18053031D01*
X5172563Y-18053031D02*
X5182087Y-18043508D01*
X5182087Y-18043508D02*
X5201134Y-18033984D01*
X5353515Y-18214936D02*
X5363039Y-18224460D01*
X5363039Y-18224460D02*
X5353515Y-18233984D01*
X5353515Y-18233984D02*
X5343991Y-18224460D01*
X5343991Y-18224460D02*
X5353515Y-18214936D01*
X5353515Y-18214936D02*
X5353515Y-18233984D01*
X5486848Y-18033984D02*
X5505896Y-18033984D01*
X5505896Y-18033984D02*
X5524944Y-18043508D01*
X5524944Y-18043508D02*
X5534468Y-18053031D01*
X5534468Y-18053031D02*
X5543991Y-18072079D01*
X5543991Y-18072079D02*
X5553515Y-18110174D01*
X5553515Y-18110174D02*
X5553515Y-18157793D01*
X5553515Y-18157793D02*
X5543991Y-18195889D01*
X5543991Y-18195889D02*
X5534468Y-18214936D01*
X5534468Y-18214936D02*
X5524944Y-18224460D01*
X5524944Y-18224460D02*
X5505896Y-18233984D01*
X5505896Y-18233984D02*
X5486848Y-18233984D01*
X5486848Y-18233984D02*
X5467801Y-18224460D01*
X5467801Y-18224460D02*
X5458277Y-18214936D01*
X5458277Y-18214936D02*
X5448753Y-18195889D01*
X5448753Y-18195889D02*
X5439229Y-18157793D01*
X5439229Y-18157793D02*
X5439229Y-18110174D01*
X5439229Y-18110174D02*
X5448753Y-18072079D01*
X5448753Y-18072079D02*
X5458277Y-18053031D01*
X5458277Y-18053031D02*
X5467801Y-18043508D01*
X5467801Y-18043508D02*
X5486848Y-18033984D01*
X5677325Y-18033984D02*
X5696372Y-18033984D01*
X5696372Y-18033984D02*
X5715420Y-18043508D01*
X5715420Y-18043508D02*
X5724944Y-18053031D01*
X5724944Y-18053031D02*
X5734467Y-18072079D01*
X5734467Y-18072079D02*
X5743991Y-18110174D01*
X5743991Y-18110174D02*
X5743991Y-18157793D01*
X5743991Y-18157793D02*
X5734467Y-18195889D01*
X5734467Y-18195889D02*
X5724944Y-18214936D01*
X5724944Y-18214936D02*
X5715420Y-18224460D01*
X5715420Y-18224460D02*
X5696372Y-18233984D01*
X5696372Y-18233984D02*
X5677325Y-18233984D01*
X5677325Y-18233984D02*
X5658277Y-18224460D01*
X5658277Y-18224460D02*
X5648753Y-18214936D01*
X5648753Y-18214936D02*
X5639229Y-18195889D01*
X5639229Y-18195889D02*
X5629706Y-18157793D01*
X5629706Y-18157793D02*
X5629706Y-18110174D01*
X5629706Y-18110174D02*
X5639229Y-18072079D01*
X5639229Y-18072079D02*
X5648753Y-18053031D01*
X5648753Y-18053031D02*
X5658277Y-18043508D01*
X5658277Y-18043508D02*
X5677325Y-18033984D01*
X5810658Y-18033984D02*
X5943991Y-18033984D01*
X5943991Y-18033984D02*
X5858277Y-18233984D01*
X6029706Y-18233984D02*
X6067801Y-18233984D01*
X6067801Y-18233984D02*
X6086848Y-18224460D01*
X6086848Y-18224460D02*
X6096372Y-18214936D01*
X6096372Y-18214936D02*
X6115420Y-18186365D01*
X6115420Y-18186365D02*
X6124944Y-18148270D01*
X6124944Y-18148270D02*
X6124944Y-18072079D01*
X6124944Y-18072079D02*
X6115420Y-18053031D01*
X6115420Y-18053031D02*
X6105896Y-18043508D01*
X6105896Y-18043508D02*
X6086848Y-18033984D01*
X6086848Y-18033984D02*
X6048753Y-18033984D01*
X6048753Y-18033984D02*
X6029706Y-18043508D01*
X6029706Y-18043508D02*
X6020182Y-18053031D01*
X6020182Y-18053031D02*
X6010658Y-18072079D01*
X6010658Y-18072079D02*
X6010658Y-18119698D01*
X6010658Y-18119698D02*
X6020182Y-18138746D01*
X6020182Y-18138746D02*
X6029706Y-18148270D01*
X6029706Y-18148270D02*
X6048753Y-18157793D01*
X6048753Y-18157793D02*
X6086848Y-18157793D01*
X6086848Y-18157793D02*
X6105896Y-18148270D01*
X6105896Y-18148270D02*
X6115420Y-18138746D01*
X6115420Y-18138746D02*
X6124944Y-18119698D01*
X6201134Y-18033984D02*
X6201134Y-18072079D01*
X6277325Y-18033984D02*
X6277325Y-18072079D01*
X6572563Y-18310174D02*
X6563039Y-18300650D01*
X6563039Y-18300650D02*
X6543991Y-18272079D01*
X6543991Y-18272079D02*
X6534468Y-18253031D01*
X6534468Y-18253031D02*
X6524944Y-18224460D01*
X6524944Y-18224460D02*
X6515420Y-18176841D01*
X6515420Y-18176841D02*
X6515420Y-18138746D01*
X6515420Y-18138746D02*
X6524944Y-18091127D01*
X6524944Y-18091127D02*
X6534468Y-18062555D01*
X6534468Y-18062555D02*
X6543991Y-18043508D01*
X6543991Y-18043508D02*
X6563039Y-18014936D01*
X6563039Y-18014936D02*
X6572563Y-18005412D01*
X6639229Y-18053031D02*
X6648753Y-18043508D01*
X6648753Y-18043508D02*
X6667801Y-18033984D01*
X6667801Y-18033984D02*
X6715420Y-18033984D01*
X6715420Y-18033984D02*
X6734468Y-18043508D01*
X6734468Y-18043508D02*
X6743991Y-18053031D01*
X6743991Y-18053031D02*
X6753515Y-18072079D01*
X6753515Y-18072079D02*
X6753515Y-18091127D01*
X6753515Y-18091127D02*
X6743991Y-18119698D01*
X6743991Y-18119698D02*
X6629706Y-18233984D01*
X6629706Y-18233984D02*
X6753515Y-18233984D01*
X6924944Y-18100650D02*
X6924944Y-18233984D01*
X6877325Y-18024460D02*
X6829706Y-18167317D01*
X6829706Y-18167317D02*
X6953515Y-18167317D01*
X7115420Y-18100650D02*
X7115420Y-18233984D01*
X7067801Y-18024460D02*
X7020182Y-18167317D01*
X7020182Y-18167317D02*
X7143991Y-18167317D01*
X7372563Y-18233984D02*
X7372563Y-18033984D01*
X7458277Y-18233984D02*
X7458277Y-18129222D01*
X7458277Y-18129222D02*
X7448753Y-18110174D01*
X7448753Y-18110174D02*
X7429706Y-18100650D01*
X7429706Y-18100650D02*
X7401134Y-18100650D01*
X7401134Y-18100650D02*
X7382087Y-18110174D01*
X7382087Y-18110174D02*
X7372563Y-18119698D01*
X7582087Y-18233984D02*
X7563039Y-18224460D01*
X7563039Y-18224460D02*
X7553515Y-18214936D01*
X7553515Y-18214936D02*
X7543991Y-18195889D01*
X7543991Y-18195889D02*
X7543991Y-18138746D01*
X7543991Y-18138746D02*
X7553515Y-18119698D01*
X7553515Y-18119698D02*
X7563039Y-18110174D01*
X7563039Y-18110174D02*
X7582087Y-18100650D01*
X7582087Y-18100650D02*
X7610658Y-18100650D01*
X7610658Y-18100650D02*
X7629706Y-18110174D01*
X7629706Y-18110174D02*
X7639230Y-18119698D01*
X7639230Y-18119698D02*
X7648753Y-18138746D01*
X7648753Y-18138746D02*
X7648753Y-18195889D01*
X7648753Y-18195889D02*
X7639230Y-18214936D01*
X7639230Y-18214936D02*
X7629706Y-18224460D01*
X7629706Y-18224460D02*
X7610658Y-18233984D01*
X7610658Y-18233984D02*
X7582087Y-18233984D01*
X7763039Y-18233984D02*
X7743991Y-18224460D01*
X7743991Y-18224460D02*
X7734468Y-18205412D01*
X7734468Y-18205412D02*
X7734468Y-18033984D01*
X7915420Y-18224460D02*
X7896372Y-18233984D01*
X7896372Y-18233984D02*
X7858277Y-18233984D01*
X7858277Y-18233984D02*
X7839230Y-18224460D01*
X7839230Y-18224460D02*
X7829706Y-18205412D01*
X7829706Y-18205412D02*
X7829706Y-18129222D01*
X7829706Y-18129222D02*
X7839230Y-18110174D01*
X7839230Y-18110174D02*
X7858277Y-18100650D01*
X7858277Y-18100650D02*
X7896372Y-18100650D01*
X7896372Y-18100650D02*
X7915420Y-18110174D01*
X7915420Y-18110174D02*
X7924944Y-18129222D01*
X7924944Y-18129222D02*
X7924944Y-18148270D01*
X7924944Y-18148270D02*
X7829706Y-18167317D01*
X8001134Y-18224460D02*
X8020182Y-18233984D01*
X8020182Y-18233984D02*
X8058277Y-18233984D01*
X8058277Y-18233984D02*
X8077325Y-18224460D01*
X8077325Y-18224460D02*
X8086849Y-18205412D01*
X8086849Y-18205412D02*
X8086849Y-18195889D01*
X8086849Y-18195889D02*
X8077325Y-18176841D01*
X8077325Y-18176841D02*
X8058277Y-18167317D01*
X8058277Y-18167317D02*
X8029706Y-18167317D01*
X8029706Y-18167317D02*
X8010658Y-18157793D01*
X8010658Y-18157793D02*
X8001134Y-18138746D01*
X8001134Y-18138746D02*
X8001134Y-18129222D01*
X8001134Y-18129222D02*
X8010658Y-18110174D01*
X8010658Y-18110174D02*
X8029706Y-18100650D01*
X8029706Y-18100650D02*
X8058277Y-18100650D01*
X8058277Y-18100650D02*
X8077325Y-18110174D01*
X8153515Y-18310174D02*
X8163039Y-18300650D01*
X8163039Y-18300650D02*
X8182087Y-18272079D01*
X8182087Y-18272079D02*
X8191611Y-18253031D01*
X8191611Y-18253031D02*
X8201134Y-18224460D01*
X8201134Y-18224460D02*
X8210658Y-18176841D01*
X8210658Y-18176841D02*
X8210658Y-18138746D01*
X8210658Y-18138746D02*
X8201134Y-18091127D01*
X8201134Y-18091127D02*
X8191611Y-18062555D01*
X8191611Y-18062555D02*
X8182087Y-18043508D01*
X8182087Y-18043508D02*
X8163039Y-18014936D01*
X8163039Y-18014936D02*
X8153515Y-18005412D01*
D11*
X2997500Y-18406500D02*
G75*
G02*
X2977500Y-18406500I-10000J0D01*
G01*
X2977500Y-18406500D02*
G75*
G02*
X2997500Y-18406500I10000J0D01*
G01*
D13*
X3296372Y-18297984D02*
X3315420Y-18297984D01*
X3315420Y-18297984D02*
X3334467Y-18307508D01*
X3334467Y-18307508D02*
X3343991Y-18317031D01*
X3343991Y-18317031D02*
X3353515Y-18336079D01*
X3353515Y-18336079D02*
X3363039Y-18374174D01*
X3363039Y-18374174D02*
X3363039Y-18421793D01*
X3363039Y-18421793D02*
X3353515Y-18459889D01*
X3353515Y-18459889D02*
X3343991Y-18478936D01*
X3343991Y-18478936D02*
X3334467Y-18488460D01*
X3334467Y-18488460D02*
X3315420Y-18497984D01*
X3315420Y-18497984D02*
X3296372Y-18497984D01*
X3296372Y-18497984D02*
X3277324Y-18488460D01*
X3277324Y-18488460D02*
X3267801Y-18478936D01*
X3267801Y-18478936D02*
X3258277Y-18459889D01*
X3258277Y-18459889D02*
X3248753Y-18421793D01*
X3248753Y-18421793D02*
X3248753Y-18374174D01*
X3248753Y-18374174D02*
X3258277Y-18336079D01*
X3258277Y-18336079D02*
X3267801Y-18317031D01*
X3267801Y-18317031D02*
X3277324Y-18307508D01*
X3277324Y-18307508D02*
X3296372Y-18297984D01*
X3448753Y-18478936D02*
X3458277Y-18488460D01*
X3458277Y-18488460D02*
X3448753Y-18497984D01*
X3448753Y-18497984D02*
X3439229Y-18488460D01*
X3439229Y-18488460D02*
X3448753Y-18478936D01*
X3448753Y-18478936D02*
X3448753Y-18497984D01*
X3534467Y-18317031D02*
X3543991Y-18307508D01*
X3543991Y-18307508D02*
X3563039Y-18297984D01*
X3563039Y-18297984D02*
X3610658Y-18297984D01*
X3610658Y-18297984D02*
X3629705Y-18307508D01*
X3629705Y-18307508D02*
X3639229Y-18317031D01*
X3639229Y-18317031D02*
X3648753Y-18336079D01*
X3648753Y-18336079D02*
X3648753Y-18355127D01*
X3648753Y-18355127D02*
X3639229Y-18383698D01*
X3639229Y-18383698D02*
X3524943Y-18497984D01*
X3524943Y-18497984D02*
X3648753Y-18497984D01*
X3772562Y-18297984D02*
X3791610Y-18297984D01*
X3791610Y-18297984D02*
X3810658Y-18307508D01*
X3810658Y-18307508D02*
X3820182Y-18317031D01*
X3820182Y-18317031D02*
X3829705Y-18336079D01*
X3829705Y-18336079D02*
X3839229Y-18374174D01*
X3839229Y-18374174D02*
X3839229Y-18421793D01*
X3839229Y-18421793D02*
X3829705Y-18459889D01*
X3829705Y-18459889D02*
X3820182Y-18478936D01*
X3820182Y-18478936D02*
X3810658Y-18488460D01*
X3810658Y-18488460D02*
X3791610Y-18497984D01*
X3791610Y-18497984D02*
X3772562Y-18497984D01*
X3772562Y-18497984D02*
X3753515Y-18488460D01*
X3753515Y-18488460D02*
X3743991Y-18478936D01*
X3743991Y-18478936D02*
X3734467Y-18459889D01*
X3734467Y-18459889D02*
X3724943Y-18421793D01*
X3724943Y-18421793D02*
X3724943Y-18374174D01*
X3724943Y-18374174D02*
X3734467Y-18336079D01*
X3734467Y-18336079D02*
X3743991Y-18317031D01*
X3743991Y-18317031D02*
X3753515Y-18307508D01*
X3753515Y-18307508D02*
X3772562Y-18297984D01*
X3963039Y-18297984D02*
X3982086Y-18297984D01*
X3982086Y-18297984D02*
X4001134Y-18307508D01*
X4001134Y-18307508D02*
X4010658Y-18317031D01*
X4010658Y-18317031D02*
X4020182Y-18336079D01*
X4020182Y-18336079D02*
X4029705Y-18374174D01*
X4029705Y-18374174D02*
X4029705Y-18421793D01*
X4029705Y-18421793D02*
X4020182Y-18459889D01*
X4020182Y-18459889D02*
X4010658Y-18478936D01*
X4010658Y-18478936D02*
X4001134Y-18488460D01*
X4001134Y-18488460D02*
X3982086Y-18497984D01*
X3982086Y-18497984D02*
X3963039Y-18497984D01*
X3963039Y-18497984D02*
X3943991Y-18488460D01*
X3943991Y-18488460D02*
X3934467Y-18478936D01*
X3934467Y-18478936D02*
X3924943Y-18459889D01*
X3924943Y-18459889D02*
X3915420Y-18421793D01*
X3915420Y-18421793D02*
X3915420Y-18374174D01*
X3915420Y-18374174D02*
X3924943Y-18336079D01*
X3924943Y-18336079D02*
X3934467Y-18317031D01*
X3934467Y-18317031D02*
X3943991Y-18307508D01*
X3943991Y-18307508D02*
X3963039Y-18297984D01*
X4115420Y-18497984D02*
X4115420Y-18364650D01*
X4115420Y-18383698D02*
X4124943Y-18374174D01*
X4124943Y-18374174D02*
X4143991Y-18364650D01*
X4143991Y-18364650D02*
X4172563Y-18364650D01*
X4172563Y-18364650D02*
X4191610Y-18374174D01*
X4191610Y-18374174D02*
X4201134Y-18393222D01*
X4201134Y-18393222D02*
X4201134Y-18497984D01*
X4201134Y-18393222D02*
X4210658Y-18374174D01*
X4210658Y-18374174D02*
X4229705Y-18364650D01*
X4229705Y-18364650D02*
X4258277Y-18364650D01*
X4258277Y-18364650D02*
X4277325Y-18374174D01*
X4277325Y-18374174D02*
X4286848Y-18393222D01*
X4286848Y-18393222D02*
X4286848Y-18497984D01*
X4382086Y-18497984D02*
X4382086Y-18364650D01*
X4382086Y-18383698D02*
X4391610Y-18374174D01*
X4391610Y-18374174D02*
X4410658Y-18364650D01*
X4410658Y-18364650D02*
X4439229Y-18364650D01*
X4439229Y-18364650D02*
X4458277Y-18374174D01*
X4458277Y-18374174D02*
X4467801Y-18393222D01*
X4467801Y-18393222D02*
X4467801Y-18497984D01*
X4467801Y-18393222D02*
X4477325Y-18374174D01*
X4477325Y-18374174D02*
X4496372Y-18364650D01*
X4496372Y-18364650D02*
X4524944Y-18364650D01*
X4524944Y-18364650D02*
X4543991Y-18374174D01*
X4543991Y-18374174D02*
X4553515Y-18393222D01*
X4553515Y-18393222D02*
X4553515Y-18497984D01*
X4943991Y-18288460D02*
X4772563Y-18545603D01*
X5201134Y-18297984D02*
X5220182Y-18297984D01*
X5220182Y-18297984D02*
X5239229Y-18307508D01*
X5239229Y-18307508D02*
X5248753Y-18317031D01*
X5248753Y-18317031D02*
X5258277Y-18336079D01*
X5258277Y-18336079D02*
X5267801Y-18374174D01*
X5267801Y-18374174D02*
X5267801Y-18421793D01*
X5267801Y-18421793D02*
X5258277Y-18459889D01*
X5258277Y-18459889D02*
X5248753Y-18478936D01*
X5248753Y-18478936D02*
X5239229Y-18488460D01*
X5239229Y-18488460D02*
X5220182Y-18497984D01*
X5220182Y-18497984D02*
X5201134Y-18497984D01*
X5201134Y-18497984D02*
X5182087Y-18488460D01*
X5182087Y-18488460D02*
X5172563Y-18478936D01*
X5172563Y-18478936D02*
X5163039Y-18459889D01*
X5163039Y-18459889D02*
X5153515Y-18421793D01*
X5153515Y-18421793D02*
X5153515Y-18374174D01*
X5153515Y-18374174D02*
X5163039Y-18336079D01*
X5163039Y-18336079D02*
X5172563Y-18317031D01*
X5172563Y-18317031D02*
X5182087Y-18307508D01*
X5182087Y-18307508D02*
X5201134Y-18297984D01*
X5353515Y-18478936D02*
X5363039Y-18488460D01*
X5363039Y-18488460D02*
X5353515Y-18497984D01*
X5353515Y-18497984D02*
X5343991Y-18488460D01*
X5343991Y-18488460D02*
X5353515Y-18478936D01*
X5353515Y-18478936D02*
X5353515Y-18497984D01*
X5486848Y-18297984D02*
X5505896Y-18297984D01*
X5505896Y-18297984D02*
X5524944Y-18307508D01*
X5524944Y-18307508D02*
X5534468Y-18317031D01*
X5534468Y-18317031D02*
X5543991Y-18336079D01*
X5543991Y-18336079D02*
X5553515Y-18374174D01*
X5553515Y-18374174D02*
X5553515Y-18421793D01*
X5553515Y-18421793D02*
X5543991Y-18459889D01*
X5543991Y-18459889D02*
X5534468Y-18478936D01*
X5534468Y-18478936D02*
X5524944Y-18488460D01*
X5524944Y-18488460D02*
X5505896Y-18497984D01*
X5505896Y-18497984D02*
X5486848Y-18497984D01*
X5486848Y-18497984D02*
X5467801Y-18488460D01*
X5467801Y-18488460D02*
X5458277Y-18478936D01*
X5458277Y-18478936D02*
X5448753Y-18459889D01*
X5448753Y-18459889D02*
X5439229Y-18421793D01*
X5439229Y-18421793D02*
X5439229Y-18374174D01*
X5439229Y-18374174D02*
X5448753Y-18336079D01*
X5448753Y-18336079D02*
X5458277Y-18317031D01*
X5458277Y-18317031D02*
X5467801Y-18307508D01*
X5467801Y-18307508D02*
X5486848Y-18297984D01*
X5677325Y-18297984D02*
X5696372Y-18297984D01*
X5696372Y-18297984D02*
X5715420Y-18307508D01*
X5715420Y-18307508D02*
X5724944Y-18317031D01*
X5724944Y-18317031D02*
X5734467Y-18336079D01*
X5734467Y-18336079D02*
X5743991Y-18374174D01*
X5743991Y-18374174D02*
X5743991Y-18421793D01*
X5743991Y-18421793D02*
X5734467Y-18459889D01*
X5734467Y-18459889D02*
X5724944Y-18478936D01*
X5724944Y-18478936D02*
X5715420Y-18488460D01*
X5715420Y-18488460D02*
X5696372Y-18497984D01*
X5696372Y-18497984D02*
X5677325Y-18497984D01*
X5677325Y-18497984D02*
X5658277Y-18488460D01*
X5658277Y-18488460D02*
X5648753Y-18478936D01*
X5648753Y-18478936D02*
X5639229Y-18459889D01*
X5639229Y-18459889D02*
X5629706Y-18421793D01*
X5629706Y-18421793D02*
X5629706Y-18374174D01*
X5629706Y-18374174D02*
X5639229Y-18336079D01*
X5639229Y-18336079D02*
X5648753Y-18317031D01*
X5648753Y-18317031D02*
X5658277Y-18307508D01*
X5658277Y-18307508D02*
X5677325Y-18297984D01*
X5810658Y-18297984D02*
X5943991Y-18297984D01*
X5943991Y-18297984D02*
X5858277Y-18497984D01*
X6029706Y-18497984D02*
X6067801Y-18497984D01*
X6067801Y-18497984D02*
X6086848Y-18488460D01*
X6086848Y-18488460D02*
X6096372Y-18478936D01*
X6096372Y-18478936D02*
X6115420Y-18450365D01*
X6115420Y-18450365D02*
X6124944Y-18412270D01*
X6124944Y-18412270D02*
X6124944Y-18336079D01*
X6124944Y-18336079D02*
X6115420Y-18317031D01*
X6115420Y-18317031D02*
X6105896Y-18307508D01*
X6105896Y-18307508D02*
X6086848Y-18297984D01*
X6086848Y-18297984D02*
X6048753Y-18297984D01*
X6048753Y-18297984D02*
X6029706Y-18307508D01*
X6029706Y-18307508D02*
X6020182Y-18317031D01*
X6020182Y-18317031D02*
X6010658Y-18336079D01*
X6010658Y-18336079D02*
X6010658Y-18383698D01*
X6010658Y-18383698D02*
X6020182Y-18402746D01*
X6020182Y-18402746D02*
X6029706Y-18412270D01*
X6029706Y-18412270D02*
X6048753Y-18421793D01*
X6048753Y-18421793D02*
X6086848Y-18421793D01*
X6086848Y-18421793D02*
X6105896Y-18412270D01*
X6105896Y-18412270D02*
X6115420Y-18402746D01*
X6115420Y-18402746D02*
X6124944Y-18383698D01*
X6201134Y-18297984D02*
X6201134Y-18336079D01*
X6277325Y-18297984D02*
X6277325Y-18336079D01*
X6572563Y-18574174D02*
X6563039Y-18564650D01*
X6563039Y-18564650D02*
X6543991Y-18536079D01*
X6543991Y-18536079D02*
X6534468Y-18517031D01*
X6534468Y-18517031D02*
X6524944Y-18488460D01*
X6524944Y-18488460D02*
X6515420Y-18440841D01*
X6515420Y-18440841D02*
X6515420Y-18402746D01*
X6515420Y-18402746D02*
X6524944Y-18355127D01*
X6524944Y-18355127D02*
X6534468Y-18326555D01*
X6534468Y-18326555D02*
X6543991Y-18307508D01*
X6543991Y-18307508D02*
X6563039Y-18278936D01*
X6563039Y-18278936D02*
X6572563Y-18269412D01*
X6734468Y-18297984D02*
X6696372Y-18297984D01*
X6696372Y-18297984D02*
X6677325Y-18307508D01*
X6677325Y-18307508D02*
X6667801Y-18317031D01*
X6667801Y-18317031D02*
X6648753Y-18345603D01*
X6648753Y-18345603D02*
X6639229Y-18383698D01*
X6639229Y-18383698D02*
X6639229Y-18459889D01*
X6639229Y-18459889D02*
X6648753Y-18478936D01*
X6648753Y-18478936D02*
X6658277Y-18488460D01*
X6658277Y-18488460D02*
X6677325Y-18497984D01*
X6677325Y-18497984D02*
X6715420Y-18497984D01*
X6715420Y-18497984D02*
X6734468Y-18488460D01*
X6734468Y-18488460D02*
X6743991Y-18478936D01*
X6743991Y-18478936D02*
X6753515Y-18459889D01*
X6753515Y-18459889D02*
X6753515Y-18412270D01*
X6753515Y-18412270D02*
X6743991Y-18393222D01*
X6743991Y-18393222D02*
X6734468Y-18383698D01*
X6734468Y-18383698D02*
X6715420Y-18374174D01*
X6715420Y-18374174D02*
X6677325Y-18374174D01*
X6677325Y-18374174D02*
X6658277Y-18383698D01*
X6658277Y-18383698D02*
X6648753Y-18393222D01*
X6648753Y-18393222D02*
X6639229Y-18412270D01*
X6991610Y-18497984D02*
X6991610Y-18297984D01*
X7077325Y-18497984D02*
X7077325Y-18393222D01*
X7077325Y-18393222D02*
X7067801Y-18374174D01*
X7067801Y-18374174D02*
X7048753Y-18364650D01*
X7048753Y-18364650D02*
X7020182Y-18364650D01*
X7020182Y-18364650D02*
X7001134Y-18374174D01*
X7001134Y-18374174D02*
X6991610Y-18383698D01*
X7201134Y-18497984D02*
X7182087Y-18488460D01*
X7182087Y-18488460D02*
X7172563Y-18478936D01*
X7172563Y-18478936D02*
X7163039Y-18459889D01*
X7163039Y-18459889D02*
X7163039Y-18402746D01*
X7163039Y-18402746D02*
X7172563Y-18383698D01*
X7172563Y-18383698D02*
X7182087Y-18374174D01*
X7182087Y-18374174D02*
X7201134Y-18364650D01*
X7201134Y-18364650D02*
X7229706Y-18364650D01*
X7229706Y-18364650D02*
X7248753Y-18374174D01*
X7248753Y-18374174D02*
X7258277Y-18383698D01*
X7258277Y-18383698D02*
X7267801Y-18402746D01*
X7267801Y-18402746D02*
X7267801Y-18459889D01*
X7267801Y-18459889D02*
X7258277Y-18478936D01*
X7258277Y-18478936D02*
X7248753Y-18488460D01*
X7248753Y-18488460D02*
X7229706Y-18497984D01*
X7229706Y-18497984D02*
X7201134Y-18497984D01*
X7382087Y-18497984D02*
X7363039Y-18488460D01*
X7363039Y-18488460D02*
X7353515Y-18469412D01*
X7353515Y-18469412D02*
X7353515Y-18297984D01*
X7534468Y-18488460D02*
X7515420Y-18497984D01*
X7515420Y-18497984D02*
X7477325Y-18497984D01*
X7477325Y-18497984D02*
X7458277Y-18488460D01*
X7458277Y-18488460D02*
X7448753Y-18469412D01*
X7448753Y-18469412D02*
X7448753Y-18393222D01*
X7448753Y-18393222D02*
X7458277Y-18374174D01*
X7458277Y-18374174D02*
X7477325Y-18364650D01*
X7477325Y-18364650D02*
X7515420Y-18364650D01*
X7515420Y-18364650D02*
X7534468Y-18374174D01*
X7534468Y-18374174D02*
X7543991Y-18393222D01*
X7543991Y-18393222D02*
X7543991Y-18412270D01*
X7543991Y-18412270D02*
X7448753Y-18431317D01*
X7620182Y-18488460D02*
X7639230Y-18497984D01*
X7639230Y-18497984D02*
X7677325Y-18497984D01*
X7677325Y-18497984D02*
X7696372Y-18488460D01*
X7696372Y-18488460D02*
X7705896Y-18469412D01*
X7705896Y-18469412D02*
X7705896Y-18459889D01*
X7705896Y-18459889D02*
X7696372Y-18440841D01*
X7696372Y-18440841D02*
X7677325Y-18431317D01*
X7677325Y-18431317D02*
X7648753Y-18431317D01*
X7648753Y-18431317D02*
X7629706Y-18421793D01*
X7629706Y-18421793D02*
X7620182Y-18402746D01*
X7620182Y-18402746D02*
X7620182Y-18393222D01*
X7620182Y-18393222D02*
X7629706Y-18374174D01*
X7629706Y-18374174D02*
X7648753Y-18364650D01*
X7648753Y-18364650D02*
X7677325Y-18364650D01*
X7677325Y-18364650D02*
X7696372Y-18374174D01*
X7772563Y-18574174D02*
X7782087Y-18564650D01*
X7782087Y-18564650D02*
X7801134Y-18536079D01*
X7801134Y-18536079D02*
X7810658Y-18517031D01*
X7810658Y-18517031D02*
X7820182Y-18488460D01*
X7820182Y-18488460D02*
X7829706Y-18440841D01*
X7829706Y-18440841D02*
X7829706Y-18402746D01*
X7829706Y-18402746D02*
X7820182Y-18355127D01*
X7820182Y-18355127D02*
X7810658Y-18326555D01*
X7810658Y-18326555D02*
X7801134Y-18307508D01*
X7801134Y-18307508D02*
X7782087Y-18278936D01*
X7782087Y-18278936D02*
X7772563Y-18269412D01*
D11*
X2982500Y-18655500D02*
X2982500Y-18685500D01*
X2967500Y-18670500D02*
X2997500Y-18670500D01*
D13*
X3296372Y-18561984D02*
X3315420Y-18561984D01*
X3315420Y-18561984D02*
X3334467Y-18571508D01*
X3334467Y-18571508D02*
X3343991Y-18581031D01*
X3343991Y-18581031D02*
X3353515Y-18600079D01*
X3353515Y-18600079D02*
X3363039Y-18638174D01*
X3363039Y-18638174D02*
X3363039Y-18685793D01*
X3363039Y-18685793D02*
X3353515Y-18723889D01*
X3353515Y-18723889D02*
X3343991Y-18742936D01*
X3343991Y-18742936D02*
X3334467Y-18752460D01*
X3334467Y-18752460D02*
X3315420Y-18761984D01*
X3315420Y-18761984D02*
X3296372Y-18761984D01*
X3296372Y-18761984D02*
X3277324Y-18752460D01*
X3277324Y-18752460D02*
X3267801Y-18742936D01*
X3267801Y-18742936D02*
X3258277Y-18723889D01*
X3258277Y-18723889D02*
X3248753Y-18685793D01*
X3248753Y-18685793D02*
X3248753Y-18638174D01*
X3248753Y-18638174D02*
X3258277Y-18600079D01*
X3258277Y-18600079D02*
X3267801Y-18581031D01*
X3267801Y-18581031D02*
X3277324Y-18571508D01*
X3277324Y-18571508D02*
X3296372Y-18561984D01*
X3448753Y-18742936D02*
X3458277Y-18752460D01*
X3458277Y-18752460D02*
X3448753Y-18761984D01*
X3448753Y-18761984D02*
X3439229Y-18752460D01*
X3439229Y-18752460D02*
X3448753Y-18742936D01*
X3448753Y-18742936D02*
X3448753Y-18761984D01*
X3524943Y-18561984D02*
X3648753Y-18561984D01*
X3648753Y-18561984D02*
X3582086Y-18638174D01*
X3582086Y-18638174D02*
X3610658Y-18638174D01*
X3610658Y-18638174D02*
X3629705Y-18647698D01*
X3629705Y-18647698D02*
X3639229Y-18657222D01*
X3639229Y-18657222D02*
X3648753Y-18676270D01*
X3648753Y-18676270D02*
X3648753Y-18723889D01*
X3648753Y-18723889D02*
X3639229Y-18742936D01*
X3639229Y-18742936D02*
X3629705Y-18752460D01*
X3629705Y-18752460D02*
X3610658Y-18761984D01*
X3610658Y-18761984D02*
X3553515Y-18761984D01*
X3553515Y-18761984D02*
X3534467Y-18752460D01*
X3534467Y-18752460D02*
X3524943Y-18742936D01*
X3772562Y-18561984D02*
X3791610Y-18561984D01*
X3791610Y-18561984D02*
X3810658Y-18571508D01*
X3810658Y-18571508D02*
X3820182Y-18581031D01*
X3820182Y-18581031D02*
X3829705Y-18600079D01*
X3829705Y-18600079D02*
X3839229Y-18638174D01*
X3839229Y-18638174D02*
X3839229Y-18685793D01*
X3839229Y-18685793D02*
X3829705Y-18723889D01*
X3829705Y-18723889D02*
X3820182Y-18742936D01*
X3820182Y-18742936D02*
X3810658Y-18752460D01*
X3810658Y-18752460D02*
X3791610Y-18761984D01*
X3791610Y-18761984D02*
X3772562Y-18761984D01*
X3772562Y-18761984D02*
X3753515Y-18752460D01*
X3753515Y-18752460D02*
X3743991Y-18742936D01*
X3743991Y-18742936D02*
X3734467Y-18723889D01*
X3734467Y-18723889D02*
X3724943Y-18685793D01*
X3724943Y-18685793D02*
X3724943Y-18638174D01*
X3724943Y-18638174D02*
X3734467Y-18600079D01*
X3734467Y-18600079D02*
X3743991Y-18581031D01*
X3743991Y-18581031D02*
X3753515Y-18571508D01*
X3753515Y-18571508D02*
X3772562Y-18561984D01*
X3963039Y-18561984D02*
X3982086Y-18561984D01*
X3982086Y-18561984D02*
X4001134Y-18571508D01*
X4001134Y-18571508D02*
X4010658Y-18581031D01*
X4010658Y-18581031D02*
X4020182Y-18600079D01*
X4020182Y-18600079D02*
X4029705Y-18638174D01*
X4029705Y-18638174D02*
X4029705Y-18685793D01*
X4029705Y-18685793D02*
X4020182Y-18723889D01*
X4020182Y-18723889D02*
X4010658Y-18742936D01*
X4010658Y-18742936D02*
X4001134Y-18752460D01*
X4001134Y-18752460D02*
X3982086Y-18761984D01*
X3982086Y-18761984D02*
X3963039Y-18761984D01*
X3963039Y-18761984D02*
X3943991Y-18752460D01*
X3943991Y-18752460D02*
X3934467Y-18742936D01*
X3934467Y-18742936D02*
X3924943Y-18723889D01*
X3924943Y-18723889D02*
X3915420Y-18685793D01*
X3915420Y-18685793D02*
X3915420Y-18638174D01*
X3915420Y-18638174D02*
X3924943Y-18600079D01*
X3924943Y-18600079D02*
X3934467Y-18581031D01*
X3934467Y-18581031D02*
X3943991Y-18571508D01*
X3943991Y-18571508D02*
X3963039Y-18561984D01*
X4115420Y-18761984D02*
X4115420Y-18628650D01*
X4115420Y-18647698D02*
X4124943Y-18638174D01*
X4124943Y-18638174D02*
X4143991Y-18628650D01*
X4143991Y-18628650D02*
X4172563Y-18628650D01*
X4172563Y-18628650D02*
X4191610Y-18638174D01*
X4191610Y-18638174D02*
X4201134Y-18657222D01*
X4201134Y-18657222D02*
X4201134Y-18761984D01*
X4201134Y-18657222D02*
X4210658Y-18638174D01*
X4210658Y-18638174D02*
X4229705Y-18628650D01*
X4229705Y-18628650D02*
X4258277Y-18628650D01*
X4258277Y-18628650D02*
X4277325Y-18638174D01*
X4277325Y-18638174D02*
X4286848Y-18657222D01*
X4286848Y-18657222D02*
X4286848Y-18761984D01*
X4382086Y-18761984D02*
X4382086Y-18628650D01*
X4382086Y-18647698D02*
X4391610Y-18638174D01*
X4391610Y-18638174D02*
X4410658Y-18628650D01*
X4410658Y-18628650D02*
X4439229Y-18628650D01*
X4439229Y-18628650D02*
X4458277Y-18638174D01*
X4458277Y-18638174D02*
X4467801Y-18657222D01*
X4467801Y-18657222D02*
X4467801Y-18761984D01*
X4467801Y-18657222D02*
X4477325Y-18638174D01*
X4477325Y-18638174D02*
X4496372Y-18628650D01*
X4496372Y-18628650D02*
X4524944Y-18628650D01*
X4524944Y-18628650D02*
X4543991Y-18638174D01*
X4543991Y-18638174D02*
X4553515Y-18657222D01*
X4553515Y-18657222D02*
X4553515Y-18761984D01*
X4943991Y-18552460D02*
X4772563Y-18809603D01*
X5201134Y-18561984D02*
X5220182Y-18561984D01*
X5220182Y-18561984D02*
X5239229Y-18571508D01*
X5239229Y-18571508D02*
X5248753Y-18581031D01*
X5248753Y-18581031D02*
X5258277Y-18600079D01*
X5258277Y-18600079D02*
X5267801Y-18638174D01*
X5267801Y-18638174D02*
X5267801Y-18685793D01*
X5267801Y-18685793D02*
X5258277Y-18723889D01*
X5258277Y-18723889D02*
X5248753Y-18742936D01*
X5248753Y-18742936D02*
X5239229Y-18752460D01*
X5239229Y-18752460D02*
X5220182Y-18761984D01*
X5220182Y-18761984D02*
X5201134Y-18761984D01*
X5201134Y-18761984D02*
X5182087Y-18752460D01*
X5182087Y-18752460D02*
X5172563Y-18742936D01*
X5172563Y-18742936D02*
X5163039Y-18723889D01*
X5163039Y-18723889D02*
X5153515Y-18685793D01*
X5153515Y-18685793D02*
X5153515Y-18638174D01*
X5153515Y-18638174D02*
X5163039Y-18600079D01*
X5163039Y-18600079D02*
X5172563Y-18581031D01*
X5172563Y-18581031D02*
X5182087Y-18571508D01*
X5182087Y-18571508D02*
X5201134Y-18561984D01*
X5353515Y-18742936D02*
X5363039Y-18752460D01*
X5363039Y-18752460D02*
X5353515Y-18761984D01*
X5353515Y-18761984D02*
X5343991Y-18752460D01*
X5343991Y-18752460D02*
X5353515Y-18742936D01*
X5353515Y-18742936D02*
X5353515Y-18761984D01*
X5486848Y-18561984D02*
X5505896Y-18561984D01*
X5505896Y-18561984D02*
X5524944Y-18571508D01*
X5524944Y-18571508D02*
X5534468Y-18581031D01*
X5534468Y-18581031D02*
X5543991Y-18600079D01*
X5543991Y-18600079D02*
X5553515Y-18638174D01*
X5553515Y-18638174D02*
X5553515Y-18685793D01*
X5553515Y-18685793D02*
X5543991Y-18723889D01*
X5543991Y-18723889D02*
X5534468Y-18742936D01*
X5534468Y-18742936D02*
X5524944Y-18752460D01*
X5524944Y-18752460D02*
X5505896Y-18761984D01*
X5505896Y-18761984D02*
X5486848Y-18761984D01*
X5486848Y-18761984D02*
X5467801Y-18752460D01*
X5467801Y-18752460D02*
X5458277Y-18742936D01*
X5458277Y-18742936D02*
X5448753Y-18723889D01*
X5448753Y-18723889D02*
X5439229Y-18685793D01*
X5439229Y-18685793D02*
X5439229Y-18638174D01*
X5439229Y-18638174D02*
X5448753Y-18600079D01*
X5448753Y-18600079D02*
X5458277Y-18581031D01*
X5458277Y-18581031D02*
X5467801Y-18571508D01*
X5467801Y-18571508D02*
X5486848Y-18561984D01*
X5743991Y-18761984D02*
X5629706Y-18761984D01*
X5686848Y-18761984D02*
X5686848Y-18561984D01*
X5686848Y-18561984D02*
X5667801Y-18590555D01*
X5667801Y-18590555D02*
X5648753Y-18609603D01*
X5648753Y-18609603D02*
X5629706Y-18619127D01*
X5934467Y-18761984D02*
X5820182Y-18761984D01*
X5877325Y-18761984D02*
X5877325Y-18561984D01*
X5877325Y-18561984D02*
X5858277Y-18590555D01*
X5858277Y-18590555D02*
X5839229Y-18609603D01*
X5839229Y-18609603D02*
X5820182Y-18619127D01*
X6048753Y-18647698D02*
X6029706Y-18638174D01*
X6029706Y-18638174D02*
X6020182Y-18628650D01*
X6020182Y-18628650D02*
X6010658Y-18609603D01*
X6010658Y-18609603D02*
X6010658Y-18600079D01*
X6010658Y-18600079D02*
X6020182Y-18581031D01*
X6020182Y-18581031D02*
X6029706Y-18571508D01*
X6029706Y-18571508D02*
X6048753Y-18561984D01*
X6048753Y-18561984D02*
X6086848Y-18561984D01*
X6086848Y-18561984D02*
X6105896Y-18571508D01*
X6105896Y-18571508D02*
X6115420Y-18581031D01*
X6115420Y-18581031D02*
X6124944Y-18600079D01*
X6124944Y-18600079D02*
X6124944Y-18609603D01*
X6124944Y-18609603D02*
X6115420Y-18628650D01*
X6115420Y-18628650D02*
X6105896Y-18638174D01*
X6105896Y-18638174D02*
X6086848Y-18647698D01*
X6086848Y-18647698D02*
X6048753Y-18647698D01*
X6048753Y-18647698D02*
X6029706Y-18657222D01*
X6029706Y-18657222D02*
X6020182Y-18666746D01*
X6020182Y-18666746D02*
X6010658Y-18685793D01*
X6010658Y-18685793D02*
X6010658Y-18723889D01*
X6010658Y-18723889D02*
X6020182Y-18742936D01*
X6020182Y-18742936D02*
X6029706Y-18752460D01*
X6029706Y-18752460D02*
X6048753Y-18761984D01*
X6048753Y-18761984D02*
X6086848Y-18761984D01*
X6086848Y-18761984D02*
X6105896Y-18752460D01*
X6105896Y-18752460D02*
X6115420Y-18742936D01*
X6115420Y-18742936D02*
X6124944Y-18723889D01*
X6124944Y-18723889D02*
X6124944Y-18685793D01*
X6124944Y-18685793D02*
X6115420Y-18666746D01*
X6115420Y-18666746D02*
X6105896Y-18657222D01*
X6105896Y-18657222D02*
X6086848Y-18647698D01*
X6201134Y-18561984D02*
X6201134Y-18600079D01*
X6277325Y-18561984D02*
X6277325Y-18600079D01*
X6572563Y-18838174D02*
X6563039Y-18828650D01*
X6563039Y-18828650D02*
X6543991Y-18800079D01*
X6543991Y-18800079D02*
X6534468Y-18781031D01*
X6534468Y-18781031D02*
X6524944Y-18752460D01*
X6524944Y-18752460D02*
X6515420Y-18704841D01*
X6515420Y-18704841D02*
X6515420Y-18666746D01*
X6515420Y-18666746D02*
X6524944Y-18619127D01*
X6524944Y-18619127D02*
X6534468Y-18590555D01*
X6534468Y-18590555D02*
X6543991Y-18571508D01*
X6543991Y-18571508D02*
X6563039Y-18542936D01*
X6563039Y-18542936D02*
X6572563Y-18533412D01*
X6629706Y-18561984D02*
X6753515Y-18561984D01*
X6753515Y-18561984D02*
X6686848Y-18638174D01*
X6686848Y-18638174D02*
X6715420Y-18638174D01*
X6715420Y-18638174D02*
X6734468Y-18647698D01*
X6734468Y-18647698D02*
X6743991Y-18657222D01*
X6743991Y-18657222D02*
X6753515Y-18676270D01*
X6753515Y-18676270D02*
X6753515Y-18723889D01*
X6753515Y-18723889D02*
X6743991Y-18742936D01*
X6743991Y-18742936D02*
X6734468Y-18752460D01*
X6734468Y-18752460D02*
X6715420Y-18761984D01*
X6715420Y-18761984D02*
X6658277Y-18761984D01*
X6658277Y-18761984D02*
X6639229Y-18752460D01*
X6639229Y-18752460D02*
X6629706Y-18742936D01*
X6867801Y-18647698D02*
X6848753Y-18638174D01*
X6848753Y-18638174D02*
X6839229Y-18628650D01*
X6839229Y-18628650D02*
X6829706Y-18609603D01*
X6829706Y-18609603D02*
X6829706Y-18600079D01*
X6829706Y-18600079D02*
X6839229Y-18581031D01*
X6839229Y-18581031D02*
X6848753Y-18571508D01*
X6848753Y-18571508D02*
X6867801Y-18561984D01*
X6867801Y-18561984D02*
X6905896Y-18561984D01*
X6905896Y-18561984D02*
X6924944Y-18571508D01*
X6924944Y-18571508D02*
X6934468Y-18581031D01*
X6934468Y-18581031D02*
X6943991Y-18600079D01*
X6943991Y-18600079D02*
X6943991Y-18609603D01*
X6943991Y-18609603D02*
X6934468Y-18628650D01*
X6934468Y-18628650D02*
X6924944Y-18638174D01*
X6924944Y-18638174D02*
X6905896Y-18647698D01*
X6905896Y-18647698D02*
X6867801Y-18647698D01*
X6867801Y-18647698D02*
X6848753Y-18657222D01*
X6848753Y-18657222D02*
X6839229Y-18666746D01*
X6839229Y-18666746D02*
X6829706Y-18685793D01*
X6829706Y-18685793D02*
X6829706Y-18723889D01*
X6829706Y-18723889D02*
X6839229Y-18742936D01*
X6839229Y-18742936D02*
X6848753Y-18752460D01*
X6848753Y-18752460D02*
X6867801Y-18761984D01*
X6867801Y-18761984D02*
X6905896Y-18761984D01*
X6905896Y-18761984D02*
X6924944Y-18752460D01*
X6924944Y-18752460D02*
X6934468Y-18742936D01*
X6934468Y-18742936D02*
X6943991Y-18723889D01*
X6943991Y-18723889D02*
X6943991Y-18685793D01*
X6943991Y-18685793D02*
X6934468Y-18666746D01*
X6934468Y-18666746D02*
X6924944Y-18657222D01*
X6924944Y-18657222D02*
X6905896Y-18647698D01*
X7124944Y-18561984D02*
X7029706Y-18561984D01*
X7029706Y-18561984D02*
X7020182Y-18657222D01*
X7020182Y-18657222D02*
X7029706Y-18647698D01*
X7029706Y-18647698D02*
X7048753Y-18638174D01*
X7048753Y-18638174D02*
X7096372Y-18638174D01*
X7096372Y-18638174D02*
X7115420Y-18647698D01*
X7115420Y-18647698D02*
X7124944Y-18657222D01*
X7124944Y-18657222D02*
X7134468Y-18676270D01*
X7134468Y-18676270D02*
X7134468Y-18723889D01*
X7134468Y-18723889D02*
X7124944Y-18742936D01*
X7124944Y-18742936D02*
X7115420Y-18752460D01*
X7115420Y-18752460D02*
X7096372Y-18761984D01*
X7096372Y-18761984D02*
X7048753Y-18761984D01*
X7048753Y-18761984D02*
X7029706Y-18752460D01*
X7029706Y-18752460D02*
X7020182Y-18742936D01*
X7372563Y-18761984D02*
X7372563Y-18561984D01*
X7458277Y-18761984D02*
X7458277Y-18657222D01*
X7458277Y-18657222D02*
X7448753Y-18638174D01*
X7448753Y-18638174D02*
X7429706Y-18628650D01*
X7429706Y-18628650D02*
X7401134Y-18628650D01*
X7401134Y-18628650D02*
X7382087Y-18638174D01*
X7382087Y-18638174D02*
X7372563Y-18647698D01*
X7582087Y-18761984D02*
X7563039Y-18752460D01*
X7563039Y-18752460D02*
X7553515Y-18742936D01*
X7553515Y-18742936D02*
X7543991Y-18723889D01*
X7543991Y-18723889D02*
X7543991Y-18666746D01*
X7543991Y-18666746D02*
X7553515Y-18647698D01*
X7553515Y-18647698D02*
X7563039Y-18638174D01*
X7563039Y-18638174D02*
X7582087Y-18628650D01*
X7582087Y-18628650D02*
X7610658Y-18628650D01*
X7610658Y-18628650D02*
X7629706Y-18638174D01*
X7629706Y-18638174D02*
X7639230Y-18647698D01*
X7639230Y-18647698D02*
X7648753Y-18666746D01*
X7648753Y-18666746D02*
X7648753Y-18723889D01*
X7648753Y-18723889D02*
X7639230Y-18742936D01*
X7639230Y-18742936D02*
X7629706Y-18752460D01*
X7629706Y-18752460D02*
X7610658Y-18761984D01*
X7610658Y-18761984D02*
X7582087Y-18761984D01*
X7763039Y-18761984D02*
X7743991Y-18752460D01*
X7743991Y-18752460D02*
X7734468Y-18733412D01*
X7734468Y-18733412D02*
X7734468Y-18561984D01*
X7915420Y-18752460D02*
X7896372Y-18761984D01*
X7896372Y-18761984D02*
X7858277Y-18761984D01*
X7858277Y-18761984D02*
X7839230Y-18752460D01*
X7839230Y-18752460D02*
X7829706Y-18733412D01*
X7829706Y-18733412D02*
X7829706Y-18657222D01*
X7829706Y-18657222D02*
X7839230Y-18638174D01*
X7839230Y-18638174D02*
X7858277Y-18628650D01*
X7858277Y-18628650D02*
X7896372Y-18628650D01*
X7896372Y-18628650D02*
X7915420Y-18638174D01*
X7915420Y-18638174D02*
X7924944Y-18657222D01*
X7924944Y-18657222D02*
X7924944Y-18676270D01*
X7924944Y-18676270D02*
X7829706Y-18695317D01*
X8001134Y-18752460D02*
X8020182Y-18761984D01*
X8020182Y-18761984D02*
X8058277Y-18761984D01*
X8058277Y-18761984D02*
X8077325Y-18752460D01*
X8077325Y-18752460D02*
X8086849Y-18733412D01*
X8086849Y-18733412D02*
X8086849Y-18723889D01*
X8086849Y-18723889D02*
X8077325Y-18704841D01*
X8077325Y-18704841D02*
X8058277Y-18695317D01*
X8058277Y-18695317D02*
X8029706Y-18695317D01*
X8029706Y-18695317D02*
X8010658Y-18685793D01*
X8010658Y-18685793D02*
X8001134Y-18666746D01*
X8001134Y-18666746D02*
X8001134Y-18657222D01*
X8001134Y-18657222D02*
X8010658Y-18638174D01*
X8010658Y-18638174D02*
X8029706Y-18628650D01*
X8029706Y-18628650D02*
X8058277Y-18628650D01*
X8058277Y-18628650D02*
X8077325Y-18638174D01*
X8153515Y-18838174D02*
X8163039Y-18828650D01*
X8163039Y-18828650D02*
X8182087Y-18800079D01*
X8182087Y-18800079D02*
X8191611Y-18781031D01*
X8191611Y-18781031D02*
X8201134Y-18752460D01*
X8201134Y-18752460D02*
X8210658Y-18704841D01*
X8210658Y-18704841D02*
X8210658Y-18666746D01*
X8210658Y-18666746D02*
X8201134Y-18619127D01*
X8201134Y-18619127D02*
X8191611Y-18590555D01*
X8191611Y-18590555D02*
X8182087Y-18571508D01*
X8182087Y-18571508D02*
X8163039Y-18542936D01*
X8163039Y-18542936D02*
X8153515Y-18533412D01*
D11*
X2988713Y-18955713D02*
X2988713Y-18913287D01*
X2946287Y-18913287D01*
X2946287Y-18955713D01*
X2988713Y-18955713D01*
D13*
X3296372Y-18825984D02*
X3315420Y-18825984D01*
X3315420Y-18825984D02*
X3334467Y-18835508D01*
X3334467Y-18835508D02*
X3343991Y-18845031D01*
X3343991Y-18845031D02*
X3353515Y-18864079D01*
X3353515Y-18864079D02*
X3363039Y-18902174D01*
X3363039Y-18902174D02*
X3363039Y-18949793D01*
X3363039Y-18949793D02*
X3353515Y-18987889D01*
X3353515Y-18987889D02*
X3343991Y-19006936D01*
X3343991Y-19006936D02*
X3334467Y-19016460D01*
X3334467Y-19016460D02*
X3315420Y-19025984D01*
X3315420Y-19025984D02*
X3296372Y-19025984D01*
X3296372Y-19025984D02*
X3277324Y-19016460D01*
X3277324Y-19016460D02*
X3267801Y-19006936D01*
X3267801Y-19006936D02*
X3258277Y-18987889D01*
X3258277Y-18987889D02*
X3248753Y-18949793D01*
X3248753Y-18949793D02*
X3248753Y-18902174D01*
X3248753Y-18902174D02*
X3258277Y-18864079D01*
X3258277Y-18864079D02*
X3267801Y-18845031D01*
X3267801Y-18845031D02*
X3277324Y-18835508D01*
X3277324Y-18835508D02*
X3296372Y-18825984D01*
X3448753Y-19006936D02*
X3458277Y-19016460D01*
X3458277Y-19016460D02*
X3448753Y-19025984D01*
X3448753Y-19025984D02*
X3439229Y-19016460D01*
X3439229Y-19016460D02*
X3448753Y-19006936D01*
X3448753Y-19006936D02*
X3448753Y-19025984D01*
X3629705Y-18825984D02*
X3591610Y-18825984D01*
X3591610Y-18825984D02*
X3572562Y-18835508D01*
X3572562Y-18835508D02*
X3563039Y-18845031D01*
X3563039Y-18845031D02*
X3543991Y-18873603D01*
X3543991Y-18873603D02*
X3534467Y-18911698D01*
X3534467Y-18911698D02*
X3534467Y-18987889D01*
X3534467Y-18987889D02*
X3543991Y-19006936D01*
X3543991Y-19006936D02*
X3553515Y-19016460D01*
X3553515Y-19016460D02*
X3572562Y-19025984D01*
X3572562Y-19025984D02*
X3610658Y-19025984D01*
X3610658Y-19025984D02*
X3629705Y-19016460D01*
X3629705Y-19016460D02*
X3639229Y-19006936D01*
X3639229Y-19006936D02*
X3648753Y-18987889D01*
X3648753Y-18987889D02*
X3648753Y-18940270D01*
X3648753Y-18940270D02*
X3639229Y-18921222D01*
X3639229Y-18921222D02*
X3629705Y-18911698D01*
X3629705Y-18911698D02*
X3610658Y-18902174D01*
X3610658Y-18902174D02*
X3572562Y-18902174D01*
X3572562Y-18902174D02*
X3553515Y-18911698D01*
X3553515Y-18911698D02*
X3543991Y-18921222D01*
X3543991Y-18921222D02*
X3534467Y-18940270D01*
X3772562Y-18825984D02*
X3791610Y-18825984D01*
X3791610Y-18825984D02*
X3810658Y-18835508D01*
X3810658Y-18835508D02*
X3820182Y-18845031D01*
X3820182Y-18845031D02*
X3829705Y-18864079D01*
X3829705Y-18864079D02*
X3839229Y-18902174D01*
X3839229Y-18902174D02*
X3839229Y-18949793D01*
X3839229Y-18949793D02*
X3829705Y-18987889D01*
X3829705Y-18987889D02*
X3820182Y-19006936D01*
X3820182Y-19006936D02*
X3810658Y-19016460D01*
X3810658Y-19016460D02*
X3791610Y-19025984D01*
X3791610Y-19025984D02*
X3772562Y-19025984D01*
X3772562Y-19025984D02*
X3753515Y-19016460D01*
X3753515Y-19016460D02*
X3743991Y-19006936D01*
X3743991Y-19006936D02*
X3734467Y-18987889D01*
X3734467Y-18987889D02*
X3724943Y-18949793D01*
X3724943Y-18949793D02*
X3724943Y-18902174D01*
X3724943Y-18902174D02*
X3734467Y-18864079D01*
X3734467Y-18864079D02*
X3743991Y-18845031D01*
X3743991Y-18845031D02*
X3753515Y-18835508D01*
X3753515Y-18835508D02*
X3772562Y-18825984D01*
X3963039Y-18825984D02*
X3982086Y-18825984D01*
X3982086Y-18825984D02*
X4001134Y-18835508D01*
X4001134Y-18835508D02*
X4010658Y-18845031D01*
X4010658Y-18845031D02*
X4020182Y-18864079D01*
X4020182Y-18864079D02*
X4029705Y-18902174D01*
X4029705Y-18902174D02*
X4029705Y-18949793D01*
X4029705Y-18949793D02*
X4020182Y-18987889D01*
X4020182Y-18987889D02*
X4010658Y-19006936D01*
X4010658Y-19006936D02*
X4001134Y-19016460D01*
X4001134Y-19016460D02*
X3982086Y-19025984D01*
X3982086Y-19025984D02*
X3963039Y-19025984D01*
X3963039Y-19025984D02*
X3943991Y-19016460D01*
X3943991Y-19016460D02*
X3934467Y-19006936D01*
X3934467Y-19006936D02*
X3924943Y-18987889D01*
X3924943Y-18987889D02*
X3915420Y-18949793D01*
X3915420Y-18949793D02*
X3915420Y-18902174D01*
X3915420Y-18902174D02*
X3924943Y-18864079D01*
X3924943Y-18864079D02*
X3934467Y-18845031D01*
X3934467Y-18845031D02*
X3943991Y-18835508D01*
X3943991Y-18835508D02*
X3963039Y-18825984D01*
X4115420Y-19025984D02*
X4115420Y-18892650D01*
X4115420Y-18911698D02*
X4124943Y-18902174D01*
X4124943Y-18902174D02*
X4143991Y-18892650D01*
X4143991Y-18892650D02*
X4172563Y-18892650D01*
X4172563Y-18892650D02*
X4191610Y-18902174D01*
X4191610Y-18902174D02*
X4201134Y-18921222D01*
X4201134Y-18921222D02*
X4201134Y-19025984D01*
X4201134Y-18921222D02*
X4210658Y-18902174D01*
X4210658Y-18902174D02*
X4229705Y-18892650D01*
X4229705Y-18892650D02*
X4258277Y-18892650D01*
X4258277Y-18892650D02*
X4277325Y-18902174D01*
X4277325Y-18902174D02*
X4286848Y-18921222D01*
X4286848Y-18921222D02*
X4286848Y-19025984D01*
X4382086Y-19025984D02*
X4382086Y-18892650D01*
X4382086Y-18911698D02*
X4391610Y-18902174D01*
X4391610Y-18902174D02*
X4410658Y-18892650D01*
X4410658Y-18892650D02*
X4439229Y-18892650D01*
X4439229Y-18892650D02*
X4458277Y-18902174D01*
X4458277Y-18902174D02*
X4467801Y-18921222D01*
X4467801Y-18921222D02*
X4467801Y-19025984D01*
X4467801Y-18921222D02*
X4477325Y-18902174D01*
X4477325Y-18902174D02*
X4496372Y-18892650D01*
X4496372Y-18892650D02*
X4524944Y-18892650D01*
X4524944Y-18892650D02*
X4543991Y-18902174D01*
X4543991Y-18902174D02*
X4553515Y-18921222D01*
X4553515Y-18921222D02*
X4553515Y-19025984D01*
X4943991Y-18816460D02*
X4772563Y-19073603D01*
X5201134Y-18825984D02*
X5220182Y-18825984D01*
X5220182Y-18825984D02*
X5239229Y-18835508D01*
X5239229Y-18835508D02*
X5248753Y-18845031D01*
X5248753Y-18845031D02*
X5258277Y-18864079D01*
X5258277Y-18864079D02*
X5267801Y-18902174D01*
X5267801Y-18902174D02*
X5267801Y-18949793D01*
X5267801Y-18949793D02*
X5258277Y-18987889D01*
X5258277Y-18987889D02*
X5248753Y-19006936D01*
X5248753Y-19006936D02*
X5239229Y-19016460D01*
X5239229Y-19016460D02*
X5220182Y-19025984D01*
X5220182Y-19025984D02*
X5201134Y-19025984D01*
X5201134Y-19025984D02*
X5182087Y-19016460D01*
X5182087Y-19016460D02*
X5172563Y-19006936D01*
X5172563Y-19006936D02*
X5163039Y-18987889D01*
X5163039Y-18987889D02*
X5153515Y-18949793D01*
X5153515Y-18949793D02*
X5153515Y-18902174D01*
X5153515Y-18902174D02*
X5163039Y-18864079D01*
X5163039Y-18864079D02*
X5172563Y-18845031D01*
X5172563Y-18845031D02*
X5182087Y-18835508D01*
X5182087Y-18835508D02*
X5201134Y-18825984D01*
X5353515Y-19006936D02*
X5363039Y-19016460D01*
X5363039Y-19016460D02*
X5353515Y-19025984D01*
X5353515Y-19025984D02*
X5343991Y-19016460D01*
X5343991Y-19016460D02*
X5353515Y-19006936D01*
X5353515Y-19006936D02*
X5353515Y-19025984D01*
X5486848Y-18825984D02*
X5505896Y-18825984D01*
X5505896Y-18825984D02*
X5524944Y-18835508D01*
X5524944Y-18835508D02*
X5534468Y-18845031D01*
X5534468Y-18845031D02*
X5543991Y-18864079D01*
X5543991Y-18864079D02*
X5553515Y-18902174D01*
X5553515Y-18902174D02*
X5553515Y-18949793D01*
X5553515Y-18949793D02*
X5543991Y-18987889D01*
X5543991Y-18987889D02*
X5534468Y-19006936D01*
X5534468Y-19006936D02*
X5524944Y-19016460D01*
X5524944Y-19016460D02*
X5505896Y-19025984D01*
X5505896Y-19025984D02*
X5486848Y-19025984D01*
X5486848Y-19025984D02*
X5467801Y-19016460D01*
X5467801Y-19016460D02*
X5458277Y-19006936D01*
X5458277Y-19006936D02*
X5448753Y-18987889D01*
X5448753Y-18987889D02*
X5439229Y-18949793D01*
X5439229Y-18949793D02*
X5439229Y-18902174D01*
X5439229Y-18902174D02*
X5448753Y-18864079D01*
X5448753Y-18864079D02*
X5458277Y-18845031D01*
X5458277Y-18845031D02*
X5467801Y-18835508D01*
X5467801Y-18835508D02*
X5486848Y-18825984D01*
X5629706Y-18845031D02*
X5639229Y-18835508D01*
X5639229Y-18835508D02*
X5658277Y-18825984D01*
X5658277Y-18825984D02*
X5705896Y-18825984D01*
X5705896Y-18825984D02*
X5724944Y-18835508D01*
X5724944Y-18835508D02*
X5734467Y-18845031D01*
X5734467Y-18845031D02*
X5743991Y-18864079D01*
X5743991Y-18864079D02*
X5743991Y-18883127D01*
X5743991Y-18883127D02*
X5734467Y-18911698D01*
X5734467Y-18911698D02*
X5620182Y-19025984D01*
X5620182Y-19025984D02*
X5743991Y-19025984D01*
X5810658Y-18825984D02*
X5934467Y-18825984D01*
X5934467Y-18825984D02*
X5867801Y-18902174D01*
X5867801Y-18902174D02*
X5896372Y-18902174D01*
X5896372Y-18902174D02*
X5915420Y-18911698D01*
X5915420Y-18911698D02*
X5924944Y-18921222D01*
X5924944Y-18921222D02*
X5934467Y-18940270D01*
X5934467Y-18940270D02*
X5934467Y-18987889D01*
X5934467Y-18987889D02*
X5924944Y-19006936D01*
X5924944Y-19006936D02*
X5915420Y-19016460D01*
X5915420Y-19016460D02*
X5896372Y-19025984D01*
X5896372Y-19025984D02*
X5839229Y-19025984D01*
X5839229Y-19025984D02*
X5820182Y-19016460D01*
X5820182Y-19016460D02*
X5810658Y-19006936D01*
X6105896Y-18825984D02*
X6067801Y-18825984D01*
X6067801Y-18825984D02*
X6048753Y-18835508D01*
X6048753Y-18835508D02*
X6039229Y-18845031D01*
X6039229Y-18845031D02*
X6020182Y-18873603D01*
X6020182Y-18873603D02*
X6010658Y-18911698D01*
X6010658Y-18911698D02*
X6010658Y-18987889D01*
X6010658Y-18987889D02*
X6020182Y-19006936D01*
X6020182Y-19006936D02*
X6029706Y-19016460D01*
X6029706Y-19016460D02*
X6048753Y-19025984D01*
X6048753Y-19025984D02*
X6086848Y-19025984D01*
X6086848Y-19025984D02*
X6105896Y-19016460D01*
X6105896Y-19016460D02*
X6115420Y-19006936D01*
X6115420Y-19006936D02*
X6124944Y-18987889D01*
X6124944Y-18987889D02*
X6124944Y-18940270D01*
X6124944Y-18940270D02*
X6115420Y-18921222D01*
X6115420Y-18921222D02*
X6105896Y-18911698D01*
X6105896Y-18911698D02*
X6086848Y-18902174D01*
X6086848Y-18902174D02*
X6048753Y-18902174D01*
X6048753Y-18902174D02*
X6029706Y-18911698D01*
X6029706Y-18911698D02*
X6020182Y-18921222D01*
X6020182Y-18921222D02*
X6010658Y-18940270D01*
X6201134Y-18825984D02*
X6201134Y-18864079D01*
X6277325Y-18825984D02*
X6277325Y-18864079D01*
X6572563Y-19102174D02*
X6563039Y-19092650D01*
X6563039Y-19092650D02*
X6543991Y-19064079D01*
X6543991Y-19064079D02*
X6534468Y-19045031D01*
X6534468Y-19045031D02*
X6524944Y-19016460D01*
X6524944Y-19016460D02*
X6515420Y-18968841D01*
X6515420Y-18968841D02*
X6515420Y-18930746D01*
X6515420Y-18930746D02*
X6524944Y-18883127D01*
X6524944Y-18883127D02*
X6534468Y-18854555D01*
X6534468Y-18854555D02*
X6543991Y-18835508D01*
X6543991Y-18835508D02*
X6563039Y-18806936D01*
X6563039Y-18806936D02*
X6572563Y-18797412D01*
X6629706Y-18825984D02*
X6763039Y-18825984D01*
X6763039Y-18825984D02*
X6677325Y-19025984D01*
X6943991Y-19025984D02*
X6829706Y-19025984D01*
X6886848Y-19025984D02*
X6886848Y-18825984D01*
X6886848Y-18825984D02*
X6867801Y-18854555D01*
X6867801Y-18854555D02*
X6848753Y-18873603D01*
X6848753Y-18873603D02*
X6829706Y-18883127D01*
X7182087Y-19025984D02*
X7182087Y-18825984D01*
X7267801Y-19025984D02*
X7267801Y-18921222D01*
X7267801Y-18921222D02*
X7258277Y-18902174D01*
X7258277Y-18902174D02*
X7239230Y-18892650D01*
X7239230Y-18892650D02*
X7210658Y-18892650D01*
X7210658Y-18892650D02*
X7191610Y-18902174D01*
X7191610Y-18902174D02*
X7182087Y-18911698D01*
X7391610Y-19025984D02*
X7372563Y-19016460D01*
X7372563Y-19016460D02*
X7363039Y-19006936D01*
X7363039Y-19006936D02*
X7353515Y-18987889D01*
X7353515Y-18987889D02*
X7353515Y-18930746D01*
X7353515Y-18930746D02*
X7363039Y-18911698D01*
X7363039Y-18911698D02*
X7372563Y-18902174D01*
X7372563Y-18902174D02*
X7391610Y-18892650D01*
X7391610Y-18892650D02*
X7420182Y-18892650D01*
X7420182Y-18892650D02*
X7439230Y-18902174D01*
X7439230Y-18902174D02*
X7448753Y-18911698D01*
X7448753Y-18911698D02*
X7458277Y-18930746D01*
X7458277Y-18930746D02*
X7458277Y-18987889D01*
X7458277Y-18987889D02*
X7448753Y-19006936D01*
X7448753Y-19006936D02*
X7439230Y-19016460D01*
X7439230Y-19016460D02*
X7420182Y-19025984D01*
X7420182Y-19025984D02*
X7391610Y-19025984D01*
X7572563Y-19025984D02*
X7553515Y-19016460D01*
X7553515Y-19016460D02*
X7543991Y-18997412D01*
X7543991Y-18997412D02*
X7543991Y-18825984D01*
X7724944Y-19016460D02*
X7705896Y-19025984D01*
X7705896Y-19025984D02*
X7667801Y-19025984D01*
X7667801Y-19025984D02*
X7648753Y-19016460D01*
X7648753Y-19016460D02*
X7639230Y-18997412D01*
X7639230Y-18997412D02*
X7639230Y-18921222D01*
X7639230Y-18921222D02*
X7648753Y-18902174D01*
X7648753Y-18902174D02*
X7667801Y-18892650D01*
X7667801Y-18892650D02*
X7705896Y-18892650D01*
X7705896Y-18892650D02*
X7724944Y-18902174D01*
X7724944Y-18902174D02*
X7734468Y-18921222D01*
X7734468Y-18921222D02*
X7734468Y-18940270D01*
X7734468Y-18940270D02*
X7639230Y-18959317D01*
X7810658Y-19016460D02*
X7829706Y-19025984D01*
X7829706Y-19025984D02*
X7867801Y-19025984D01*
X7867801Y-19025984D02*
X7886849Y-19016460D01*
X7886849Y-19016460D02*
X7896372Y-18997412D01*
X7896372Y-18997412D02*
X7896372Y-18987889D01*
X7896372Y-18987889D02*
X7886849Y-18968841D01*
X7886849Y-18968841D02*
X7867801Y-18959317D01*
X7867801Y-18959317D02*
X7839230Y-18959317D01*
X7839230Y-18959317D02*
X7820182Y-18949793D01*
X7820182Y-18949793D02*
X7810658Y-18930746D01*
X7810658Y-18930746D02*
X7810658Y-18921222D01*
X7810658Y-18921222D02*
X7820182Y-18902174D01*
X7820182Y-18902174D02*
X7839230Y-18892650D01*
X7839230Y-18892650D02*
X7867801Y-18892650D01*
X7867801Y-18892650D02*
X7886849Y-18902174D01*
X8134468Y-18949793D02*
X8286849Y-18949793D01*
X8210658Y-19025984D02*
X8210658Y-18873603D01*
X8563039Y-18911698D02*
X8543992Y-18902174D01*
X8543992Y-18902174D02*
X8534468Y-18892650D01*
X8534468Y-18892650D02*
X8524944Y-18873603D01*
X8524944Y-18873603D02*
X8524944Y-18864079D01*
X8524944Y-18864079D02*
X8534468Y-18845031D01*
X8534468Y-18845031D02*
X8543992Y-18835508D01*
X8543992Y-18835508D02*
X8563039Y-18825984D01*
X8563039Y-18825984D02*
X8601135Y-18825984D01*
X8601135Y-18825984D02*
X8620182Y-18835508D01*
X8620182Y-18835508D02*
X8629706Y-18845031D01*
X8629706Y-18845031D02*
X8639230Y-18864079D01*
X8639230Y-18864079D02*
X8639230Y-18873603D01*
X8639230Y-18873603D02*
X8629706Y-18892650D01*
X8629706Y-18892650D02*
X8620182Y-18902174D01*
X8620182Y-18902174D02*
X8601135Y-18911698D01*
X8601135Y-18911698D02*
X8563039Y-18911698D01*
X8563039Y-18911698D02*
X8543992Y-18921222D01*
X8543992Y-18921222D02*
X8534468Y-18930746D01*
X8534468Y-18930746D02*
X8524944Y-18949793D01*
X8524944Y-18949793D02*
X8524944Y-18987889D01*
X8524944Y-18987889D02*
X8534468Y-19006936D01*
X8534468Y-19006936D02*
X8543992Y-19016460D01*
X8543992Y-19016460D02*
X8563039Y-19025984D01*
X8563039Y-19025984D02*
X8601135Y-19025984D01*
X8601135Y-19025984D02*
X8620182Y-19016460D01*
X8620182Y-19016460D02*
X8629706Y-19006936D01*
X8629706Y-19006936D02*
X8639230Y-18987889D01*
X8639230Y-18987889D02*
X8639230Y-18949793D01*
X8639230Y-18949793D02*
X8629706Y-18930746D01*
X8629706Y-18930746D02*
X8620182Y-18921222D01*
X8620182Y-18921222D02*
X8601135Y-18911698D01*
X8867801Y-19016460D02*
X8886849Y-19025984D01*
X8886849Y-19025984D02*
X8924944Y-19025984D01*
X8924944Y-19025984D02*
X8943992Y-19016460D01*
X8943992Y-19016460D02*
X8953516Y-18997412D01*
X8953516Y-18997412D02*
X8953516Y-18987889D01*
X8953516Y-18987889D02*
X8943992Y-18968841D01*
X8943992Y-18968841D02*
X8924944Y-18959317D01*
X8924944Y-18959317D02*
X8896373Y-18959317D01*
X8896373Y-18959317D02*
X8877325Y-18949793D01*
X8877325Y-18949793D02*
X8867801Y-18930746D01*
X8867801Y-18930746D02*
X8867801Y-18921222D01*
X8867801Y-18921222D02*
X8877325Y-18902174D01*
X8877325Y-18902174D02*
X8896373Y-18892650D01*
X8896373Y-18892650D02*
X8924944Y-18892650D01*
X8924944Y-18892650D02*
X8943992Y-18902174D01*
X9067801Y-19025984D02*
X9048754Y-19016460D01*
X9048754Y-19016460D02*
X9039230Y-18997412D01*
X9039230Y-18997412D02*
X9039230Y-18825984D01*
X9172563Y-19025984D02*
X9153516Y-19016460D01*
X9153516Y-19016460D02*
X9143992Y-19006936D01*
X9143992Y-19006936D02*
X9134468Y-18987889D01*
X9134468Y-18987889D02*
X9134468Y-18930746D01*
X9134468Y-18930746D02*
X9143992Y-18911698D01*
X9143992Y-18911698D02*
X9153516Y-18902174D01*
X9153516Y-18902174D02*
X9172563Y-18892650D01*
X9172563Y-18892650D02*
X9201135Y-18892650D01*
X9201135Y-18892650D02*
X9220182Y-18902174D01*
X9220182Y-18902174D02*
X9229706Y-18911698D01*
X9229706Y-18911698D02*
X9239230Y-18930746D01*
X9239230Y-18930746D02*
X9239230Y-18987889D01*
X9239230Y-18987889D02*
X9229706Y-19006936D01*
X9229706Y-19006936D02*
X9220182Y-19016460D01*
X9220182Y-19016460D02*
X9201135Y-19025984D01*
X9201135Y-19025984D02*
X9172563Y-19025984D01*
X9296373Y-18892650D02*
X9372563Y-18892650D01*
X9324944Y-18825984D02*
X9324944Y-18997412D01*
X9324944Y-18997412D02*
X9334468Y-19016460D01*
X9334468Y-19016460D02*
X9353516Y-19025984D01*
X9353516Y-19025984D02*
X9372563Y-19025984D01*
X9429706Y-19016460D02*
X9448754Y-19025984D01*
X9448754Y-19025984D02*
X9486849Y-19025984D01*
X9486849Y-19025984D02*
X9505897Y-19016460D01*
X9505897Y-19016460D02*
X9515420Y-18997412D01*
X9515420Y-18997412D02*
X9515420Y-18987889D01*
X9515420Y-18987889D02*
X9505897Y-18968841D01*
X9505897Y-18968841D02*
X9486849Y-18959317D01*
X9486849Y-18959317D02*
X9458277Y-18959317D01*
X9458277Y-18959317D02*
X9439230Y-18949793D01*
X9439230Y-18949793D02*
X9429706Y-18930746D01*
X9429706Y-18930746D02*
X9429706Y-18921222D01*
X9429706Y-18921222D02*
X9439230Y-18902174D01*
X9439230Y-18902174D02*
X9458277Y-18892650D01*
X9458277Y-18892650D02*
X9486849Y-18892650D01*
X9486849Y-18892650D02*
X9505897Y-18902174D01*
X9582087Y-19102174D02*
X9591611Y-19092650D01*
X9591611Y-19092650D02*
X9610658Y-19064079D01*
X9610658Y-19064079D02*
X9620182Y-19045031D01*
X9620182Y-19045031D02*
X9629706Y-19016460D01*
X9629706Y-19016460D02*
X9639230Y-18968841D01*
X9639230Y-18968841D02*
X9639230Y-18930746D01*
X9639230Y-18930746D02*
X9629706Y-18883127D01*
X9629706Y-18883127D02*
X9620182Y-18854555D01*
X9620182Y-18854555D02*
X9610658Y-18835508D01*
X9610658Y-18835508D02*
X9591611Y-18806936D01*
X9591611Y-18806936D02*
X9582087Y-18797412D01*
D11*
X2947500Y-19248500D02*
X2997500Y-19198500D01*
X2947500Y-19148500D01*
X2897500Y-19198500D01*
X2947500Y-19248500D01*
D13*
X3363039Y-19289984D02*
X3248753Y-19289984D01*
X3305896Y-19289984D02*
X3305896Y-19089984D01*
X3305896Y-19089984D02*
X3286848Y-19118555D01*
X3286848Y-19118555D02*
X3267801Y-19137603D01*
X3267801Y-19137603D02*
X3248753Y-19147127D01*
X3448753Y-19270936D02*
X3458277Y-19280460D01*
X3458277Y-19280460D02*
X3448753Y-19289984D01*
X3448753Y-19289984D02*
X3439229Y-19280460D01*
X3439229Y-19280460D02*
X3448753Y-19270936D01*
X3448753Y-19270936D02*
X3448753Y-19289984D01*
X3582086Y-19089984D02*
X3601134Y-19089984D01*
X3601134Y-19089984D02*
X3620182Y-19099508D01*
X3620182Y-19099508D02*
X3629705Y-19109031D01*
X3629705Y-19109031D02*
X3639229Y-19128079D01*
X3639229Y-19128079D02*
X3648753Y-19166174D01*
X3648753Y-19166174D02*
X3648753Y-19213793D01*
X3648753Y-19213793D02*
X3639229Y-19251889D01*
X3639229Y-19251889D02*
X3629705Y-19270936D01*
X3629705Y-19270936D02*
X3620182Y-19280460D01*
X3620182Y-19280460D02*
X3601134Y-19289984D01*
X3601134Y-19289984D02*
X3582086Y-19289984D01*
X3582086Y-19289984D02*
X3563039Y-19280460D01*
X3563039Y-19280460D02*
X3553515Y-19270936D01*
X3553515Y-19270936D02*
X3543991Y-19251889D01*
X3543991Y-19251889D02*
X3534467Y-19213793D01*
X3534467Y-19213793D02*
X3534467Y-19166174D01*
X3534467Y-19166174D02*
X3543991Y-19128079D01*
X3543991Y-19128079D02*
X3553515Y-19109031D01*
X3553515Y-19109031D02*
X3563039Y-19099508D01*
X3563039Y-19099508D02*
X3582086Y-19089984D01*
X3772562Y-19089984D02*
X3791610Y-19089984D01*
X3791610Y-19089984D02*
X3810658Y-19099508D01*
X3810658Y-19099508D02*
X3820182Y-19109031D01*
X3820182Y-19109031D02*
X3829705Y-19128079D01*
X3829705Y-19128079D02*
X3839229Y-19166174D01*
X3839229Y-19166174D02*
X3839229Y-19213793D01*
X3839229Y-19213793D02*
X3829705Y-19251889D01*
X3829705Y-19251889D02*
X3820182Y-19270936D01*
X3820182Y-19270936D02*
X3810658Y-19280460D01*
X3810658Y-19280460D02*
X3791610Y-19289984D01*
X3791610Y-19289984D02*
X3772562Y-19289984D01*
X3772562Y-19289984D02*
X3753515Y-19280460D01*
X3753515Y-19280460D02*
X3743991Y-19270936D01*
X3743991Y-19270936D02*
X3734467Y-19251889D01*
X3734467Y-19251889D02*
X3724943Y-19213793D01*
X3724943Y-19213793D02*
X3724943Y-19166174D01*
X3724943Y-19166174D02*
X3734467Y-19128079D01*
X3734467Y-19128079D02*
X3743991Y-19109031D01*
X3743991Y-19109031D02*
X3753515Y-19099508D01*
X3753515Y-19099508D02*
X3772562Y-19089984D01*
X3963039Y-19089984D02*
X3982086Y-19089984D01*
X3982086Y-19089984D02*
X4001134Y-19099508D01*
X4001134Y-19099508D02*
X4010658Y-19109031D01*
X4010658Y-19109031D02*
X4020182Y-19128079D01*
X4020182Y-19128079D02*
X4029705Y-19166174D01*
X4029705Y-19166174D02*
X4029705Y-19213793D01*
X4029705Y-19213793D02*
X4020182Y-19251889D01*
X4020182Y-19251889D02*
X4010658Y-19270936D01*
X4010658Y-19270936D02*
X4001134Y-19280460D01*
X4001134Y-19280460D02*
X3982086Y-19289984D01*
X3982086Y-19289984D02*
X3963039Y-19289984D01*
X3963039Y-19289984D02*
X3943991Y-19280460D01*
X3943991Y-19280460D02*
X3934467Y-19270936D01*
X3934467Y-19270936D02*
X3924943Y-19251889D01*
X3924943Y-19251889D02*
X3915420Y-19213793D01*
X3915420Y-19213793D02*
X3915420Y-19166174D01*
X3915420Y-19166174D02*
X3924943Y-19128079D01*
X3924943Y-19128079D02*
X3934467Y-19109031D01*
X3934467Y-19109031D02*
X3943991Y-19099508D01*
X3943991Y-19099508D02*
X3963039Y-19089984D01*
X4115420Y-19289984D02*
X4115420Y-19156650D01*
X4115420Y-19175698D02*
X4124943Y-19166174D01*
X4124943Y-19166174D02*
X4143991Y-19156650D01*
X4143991Y-19156650D02*
X4172563Y-19156650D01*
X4172563Y-19156650D02*
X4191610Y-19166174D01*
X4191610Y-19166174D02*
X4201134Y-19185222D01*
X4201134Y-19185222D02*
X4201134Y-19289984D01*
X4201134Y-19185222D02*
X4210658Y-19166174D01*
X4210658Y-19166174D02*
X4229705Y-19156650D01*
X4229705Y-19156650D02*
X4258277Y-19156650D01*
X4258277Y-19156650D02*
X4277325Y-19166174D01*
X4277325Y-19166174D02*
X4286848Y-19185222D01*
X4286848Y-19185222D02*
X4286848Y-19289984D01*
X4382086Y-19289984D02*
X4382086Y-19156650D01*
X4382086Y-19175698D02*
X4391610Y-19166174D01*
X4391610Y-19166174D02*
X4410658Y-19156650D01*
X4410658Y-19156650D02*
X4439229Y-19156650D01*
X4439229Y-19156650D02*
X4458277Y-19166174D01*
X4458277Y-19166174D02*
X4467801Y-19185222D01*
X4467801Y-19185222D02*
X4467801Y-19289984D01*
X4467801Y-19185222D02*
X4477325Y-19166174D01*
X4477325Y-19166174D02*
X4496372Y-19156650D01*
X4496372Y-19156650D02*
X4524944Y-19156650D01*
X4524944Y-19156650D02*
X4543991Y-19166174D01*
X4543991Y-19166174D02*
X4553515Y-19185222D01*
X4553515Y-19185222D02*
X4553515Y-19289984D01*
X4943991Y-19080460D02*
X4772563Y-19337603D01*
X5201134Y-19089984D02*
X5220182Y-19089984D01*
X5220182Y-19089984D02*
X5239229Y-19099508D01*
X5239229Y-19099508D02*
X5248753Y-19109031D01*
X5248753Y-19109031D02*
X5258277Y-19128079D01*
X5258277Y-19128079D02*
X5267801Y-19166174D01*
X5267801Y-19166174D02*
X5267801Y-19213793D01*
X5267801Y-19213793D02*
X5258277Y-19251889D01*
X5258277Y-19251889D02*
X5248753Y-19270936D01*
X5248753Y-19270936D02*
X5239229Y-19280460D01*
X5239229Y-19280460D02*
X5220182Y-19289984D01*
X5220182Y-19289984D02*
X5201134Y-19289984D01*
X5201134Y-19289984D02*
X5182087Y-19280460D01*
X5182087Y-19280460D02*
X5172563Y-19270936D01*
X5172563Y-19270936D02*
X5163039Y-19251889D01*
X5163039Y-19251889D02*
X5153515Y-19213793D01*
X5153515Y-19213793D02*
X5153515Y-19166174D01*
X5153515Y-19166174D02*
X5163039Y-19128079D01*
X5163039Y-19128079D02*
X5172563Y-19109031D01*
X5172563Y-19109031D02*
X5182087Y-19099508D01*
X5182087Y-19099508D02*
X5201134Y-19089984D01*
X5353515Y-19270936D02*
X5363039Y-19280460D01*
X5363039Y-19280460D02*
X5353515Y-19289984D01*
X5353515Y-19289984D02*
X5343991Y-19280460D01*
X5343991Y-19280460D02*
X5353515Y-19270936D01*
X5353515Y-19270936D02*
X5353515Y-19289984D01*
X5486848Y-19089984D02*
X5505896Y-19089984D01*
X5505896Y-19089984D02*
X5524944Y-19099508D01*
X5524944Y-19099508D02*
X5534468Y-19109031D01*
X5534468Y-19109031D02*
X5543991Y-19128079D01*
X5543991Y-19128079D02*
X5553515Y-19166174D01*
X5553515Y-19166174D02*
X5553515Y-19213793D01*
X5553515Y-19213793D02*
X5543991Y-19251889D01*
X5543991Y-19251889D02*
X5534468Y-19270936D01*
X5534468Y-19270936D02*
X5524944Y-19280460D01*
X5524944Y-19280460D02*
X5505896Y-19289984D01*
X5505896Y-19289984D02*
X5486848Y-19289984D01*
X5486848Y-19289984D02*
X5467801Y-19280460D01*
X5467801Y-19280460D02*
X5458277Y-19270936D01*
X5458277Y-19270936D02*
X5448753Y-19251889D01*
X5448753Y-19251889D02*
X5439229Y-19213793D01*
X5439229Y-19213793D02*
X5439229Y-19166174D01*
X5439229Y-19166174D02*
X5448753Y-19128079D01*
X5448753Y-19128079D02*
X5458277Y-19109031D01*
X5458277Y-19109031D02*
X5467801Y-19099508D01*
X5467801Y-19099508D02*
X5486848Y-19089984D01*
X5620182Y-19089984D02*
X5743991Y-19089984D01*
X5743991Y-19089984D02*
X5677325Y-19166174D01*
X5677325Y-19166174D02*
X5705896Y-19166174D01*
X5705896Y-19166174D02*
X5724944Y-19175698D01*
X5724944Y-19175698D02*
X5734467Y-19185222D01*
X5734467Y-19185222D02*
X5743991Y-19204270D01*
X5743991Y-19204270D02*
X5743991Y-19251889D01*
X5743991Y-19251889D02*
X5734467Y-19270936D01*
X5734467Y-19270936D02*
X5724944Y-19280460D01*
X5724944Y-19280460D02*
X5705896Y-19289984D01*
X5705896Y-19289984D02*
X5648753Y-19289984D01*
X5648753Y-19289984D02*
X5629706Y-19280460D01*
X5629706Y-19280460D02*
X5620182Y-19270936D01*
X5839229Y-19289984D02*
X5877325Y-19289984D01*
X5877325Y-19289984D02*
X5896372Y-19280460D01*
X5896372Y-19280460D02*
X5905896Y-19270936D01*
X5905896Y-19270936D02*
X5924944Y-19242365D01*
X5924944Y-19242365D02*
X5934467Y-19204270D01*
X5934467Y-19204270D02*
X5934467Y-19128079D01*
X5934467Y-19128079D02*
X5924944Y-19109031D01*
X5924944Y-19109031D02*
X5915420Y-19099508D01*
X5915420Y-19099508D02*
X5896372Y-19089984D01*
X5896372Y-19089984D02*
X5858277Y-19089984D01*
X5858277Y-19089984D02*
X5839229Y-19099508D01*
X5839229Y-19099508D02*
X5829706Y-19109031D01*
X5829706Y-19109031D02*
X5820182Y-19128079D01*
X5820182Y-19128079D02*
X5820182Y-19175698D01*
X5820182Y-19175698D02*
X5829706Y-19194746D01*
X5829706Y-19194746D02*
X5839229Y-19204270D01*
X5839229Y-19204270D02*
X5858277Y-19213793D01*
X5858277Y-19213793D02*
X5896372Y-19213793D01*
X5896372Y-19213793D02*
X5915420Y-19204270D01*
X5915420Y-19204270D02*
X5924944Y-19194746D01*
X5924944Y-19194746D02*
X5934467Y-19175698D01*
X6105896Y-19156650D02*
X6105896Y-19289984D01*
X6058277Y-19080460D02*
X6010658Y-19223317D01*
X6010658Y-19223317D02*
X6134467Y-19223317D01*
X6201134Y-19089984D02*
X6201134Y-19128079D01*
X6277325Y-19089984D02*
X6277325Y-19128079D01*
X6572563Y-19366174D02*
X6563039Y-19356650D01*
X6563039Y-19356650D02*
X6543991Y-19328079D01*
X6543991Y-19328079D02*
X6534468Y-19309031D01*
X6534468Y-19309031D02*
X6524944Y-19280460D01*
X6524944Y-19280460D02*
X6515420Y-19232841D01*
X6515420Y-19232841D02*
X6515420Y-19194746D01*
X6515420Y-19194746D02*
X6524944Y-19147127D01*
X6524944Y-19147127D02*
X6534468Y-19118555D01*
X6534468Y-19118555D02*
X6543991Y-19099508D01*
X6543991Y-19099508D02*
X6563039Y-19070936D01*
X6563039Y-19070936D02*
X6572563Y-19061412D01*
X6734468Y-19089984D02*
X6696372Y-19089984D01*
X6696372Y-19089984D02*
X6677325Y-19099508D01*
X6677325Y-19099508D02*
X6667801Y-19109031D01*
X6667801Y-19109031D02*
X6648753Y-19137603D01*
X6648753Y-19137603D02*
X6639229Y-19175698D01*
X6639229Y-19175698D02*
X6639229Y-19251889D01*
X6639229Y-19251889D02*
X6648753Y-19270936D01*
X6648753Y-19270936D02*
X6658277Y-19280460D01*
X6658277Y-19280460D02*
X6677325Y-19289984D01*
X6677325Y-19289984D02*
X6715420Y-19289984D01*
X6715420Y-19289984D02*
X6734468Y-19280460D01*
X6734468Y-19280460D02*
X6743991Y-19270936D01*
X6743991Y-19270936D02*
X6753515Y-19251889D01*
X6753515Y-19251889D02*
X6753515Y-19204270D01*
X6753515Y-19204270D02*
X6743991Y-19185222D01*
X6743991Y-19185222D02*
X6734468Y-19175698D01*
X6734468Y-19175698D02*
X6715420Y-19166174D01*
X6715420Y-19166174D02*
X6677325Y-19166174D01*
X6677325Y-19166174D02*
X6658277Y-19175698D01*
X6658277Y-19175698D02*
X6648753Y-19185222D01*
X6648753Y-19185222D02*
X6639229Y-19204270D01*
X6991610Y-19289984D02*
X6991610Y-19089984D01*
X7077325Y-19289984D02*
X7077325Y-19185222D01*
X7077325Y-19185222D02*
X7067801Y-19166174D01*
X7067801Y-19166174D02*
X7048753Y-19156650D01*
X7048753Y-19156650D02*
X7020182Y-19156650D01*
X7020182Y-19156650D02*
X7001134Y-19166174D01*
X7001134Y-19166174D02*
X6991610Y-19175698D01*
X7201134Y-19289984D02*
X7182087Y-19280460D01*
X7182087Y-19280460D02*
X7172563Y-19270936D01*
X7172563Y-19270936D02*
X7163039Y-19251889D01*
X7163039Y-19251889D02*
X7163039Y-19194746D01*
X7163039Y-19194746D02*
X7172563Y-19175698D01*
X7172563Y-19175698D02*
X7182087Y-19166174D01*
X7182087Y-19166174D02*
X7201134Y-19156650D01*
X7201134Y-19156650D02*
X7229706Y-19156650D01*
X7229706Y-19156650D02*
X7248753Y-19166174D01*
X7248753Y-19166174D02*
X7258277Y-19175698D01*
X7258277Y-19175698D02*
X7267801Y-19194746D01*
X7267801Y-19194746D02*
X7267801Y-19251889D01*
X7267801Y-19251889D02*
X7258277Y-19270936D01*
X7258277Y-19270936D02*
X7248753Y-19280460D01*
X7248753Y-19280460D02*
X7229706Y-19289984D01*
X7229706Y-19289984D02*
X7201134Y-19289984D01*
X7382087Y-19289984D02*
X7363039Y-19280460D01*
X7363039Y-19280460D02*
X7353515Y-19261412D01*
X7353515Y-19261412D02*
X7353515Y-19089984D01*
X7534468Y-19280460D02*
X7515420Y-19289984D01*
X7515420Y-19289984D02*
X7477325Y-19289984D01*
X7477325Y-19289984D02*
X7458277Y-19280460D01*
X7458277Y-19280460D02*
X7448753Y-19261412D01*
X7448753Y-19261412D02*
X7448753Y-19185222D01*
X7448753Y-19185222D02*
X7458277Y-19166174D01*
X7458277Y-19166174D02*
X7477325Y-19156650D01*
X7477325Y-19156650D02*
X7515420Y-19156650D01*
X7515420Y-19156650D02*
X7534468Y-19166174D01*
X7534468Y-19166174D02*
X7543991Y-19185222D01*
X7543991Y-19185222D02*
X7543991Y-19204270D01*
X7543991Y-19204270D02*
X7448753Y-19223317D01*
X7620182Y-19280460D02*
X7639230Y-19289984D01*
X7639230Y-19289984D02*
X7677325Y-19289984D01*
X7677325Y-19289984D02*
X7696372Y-19280460D01*
X7696372Y-19280460D02*
X7705896Y-19261412D01*
X7705896Y-19261412D02*
X7705896Y-19251889D01*
X7705896Y-19251889D02*
X7696372Y-19232841D01*
X7696372Y-19232841D02*
X7677325Y-19223317D01*
X7677325Y-19223317D02*
X7648753Y-19223317D01*
X7648753Y-19223317D02*
X7629706Y-19213793D01*
X7629706Y-19213793D02*
X7620182Y-19194746D01*
X7620182Y-19194746D02*
X7620182Y-19185222D01*
X7620182Y-19185222D02*
X7629706Y-19166174D01*
X7629706Y-19166174D02*
X7648753Y-19156650D01*
X7648753Y-19156650D02*
X7677325Y-19156650D01*
X7677325Y-19156650D02*
X7696372Y-19166174D01*
X7772563Y-19366174D02*
X7782087Y-19356650D01*
X7782087Y-19356650D02*
X7801134Y-19328079D01*
X7801134Y-19328079D02*
X7810658Y-19309031D01*
X7810658Y-19309031D02*
X7820182Y-19280460D01*
X7820182Y-19280460D02*
X7829706Y-19232841D01*
X7829706Y-19232841D02*
X7829706Y-19194746D01*
X7829706Y-19194746D02*
X7820182Y-19147127D01*
X7820182Y-19147127D02*
X7810658Y-19118555D01*
X7810658Y-19118555D02*
X7801134Y-19099508D01*
X7801134Y-19099508D02*
X7782087Y-19070936D01*
X7782087Y-19070936D02*
X7772563Y-19061412D01*
D14*
X2837500Y-19382500D02*
X2997500Y-19542500D01*
X2997500Y-19382500D02*
X2837500Y-19542500D01*
X2997500Y-19462500D02*
G75*
G02*
X2837500Y-19462500I-80000J0D01*
G01*
X2837500Y-19462500D02*
G75*
G02*
X2997500Y-19462500I80000J0D01*
G01*
D13*
X3363039Y-19553984D02*
X3248753Y-19553984D01*
X3305896Y-19553984D02*
X3305896Y-19353984D01*
X3305896Y-19353984D02*
X3286848Y-19382555D01*
X3286848Y-19382555D02*
X3267801Y-19401603D01*
X3267801Y-19401603D02*
X3248753Y-19411127D01*
X3448753Y-19534936D02*
X3458277Y-19544460D01*
X3458277Y-19544460D02*
X3448753Y-19553984D01*
X3448753Y-19553984D02*
X3439229Y-19544460D01*
X3439229Y-19544460D02*
X3448753Y-19534936D01*
X3448753Y-19534936D02*
X3448753Y-19553984D01*
X3629705Y-19353984D02*
X3591610Y-19353984D01*
X3591610Y-19353984D02*
X3572562Y-19363508D01*
X3572562Y-19363508D02*
X3563039Y-19373031D01*
X3563039Y-19373031D02*
X3543991Y-19401603D01*
X3543991Y-19401603D02*
X3534467Y-19439698D01*
X3534467Y-19439698D02*
X3534467Y-19515889D01*
X3534467Y-19515889D02*
X3543991Y-19534936D01*
X3543991Y-19534936D02*
X3553515Y-19544460D01*
X3553515Y-19544460D02*
X3572562Y-19553984D01*
X3572562Y-19553984D02*
X3610658Y-19553984D01*
X3610658Y-19553984D02*
X3629705Y-19544460D01*
X3629705Y-19544460D02*
X3639229Y-19534936D01*
X3639229Y-19534936D02*
X3648753Y-19515889D01*
X3648753Y-19515889D02*
X3648753Y-19468270D01*
X3648753Y-19468270D02*
X3639229Y-19449222D01*
X3639229Y-19449222D02*
X3629705Y-19439698D01*
X3629705Y-19439698D02*
X3610658Y-19430174D01*
X3610658Y-19430174D02*
X3572562Y-19430174D01*
X3572562Y-19430174D02*
X3553515Y-19439698D01*
X3553515Y-19439698D02*
X3543991Y-19449222D01*
X3543991Y-19449222D02*
X3534467Y-19468270D01*
X3772562Y-19353984D02*
X3791610Y-19353984D01*
X3791610Y-19353984D02*
X3810658Y-19363508D01*
X3810658Y-19363508D02*
X3820182Y-19373031D01*
X3820182Y-19373031D02*
X3829705Y-19392079D01*
X3829705Y-19392079D02*
X3839229Y-19430174D01*
X3839229Y-19430174D02*
X3839229Y-19477793D01*
X3839229Y-19477793D02*
X3829705Y-19515889D01*
X3829705Y-19515889D02*
X3820182Y-19534936D01*
X3820182Y-19534936D02*
X3810658Y-19544460D01*
X3810658Y-19544460D02*
X3791610Y-19553984D01*
X3791610Y-19553984D02*
X3772562Y-19553984D01*
X3772562Y-19553984D02*
X3753515Y-19544460D01*
X3753515Y-19544460D02*
X3743991Y-19534936D01*
X3743991Y-19534936D02*
X3734467Y-19515889D01*
X3734467Y-19515889D02*
X3724943Y-19477793D01*
X3724943Y-19477793D02*
X3724943Y-19430174D01*
X3724943Y-19430174D02*
X3734467Y-19392079D01*
X3734467Y-19392079D02*
X3743991Y-19373031D01*
X3743991Y-19373031D02*
X3753515Y-19363508D01*
X3753515Y-19363508D02*
X3772562Y-19353984D01*
X3963039Y-19353984D02*
X3982086Y-19353984D01*
X3982086Y-19353984D02*
X4001134Y-19363508D01*
X4001134Y-19363508D02*
X4010658Y-19373031D01*
X4010658Y-19373031D02*
X4020182Y-19392079D01*
X4020182Y-19392079D02*
X4029705Y-19430174D01*
X4029705Y-19430174D02*
X4029705Y-19477793D01*
X4029705Y-19477793D02*
X4020182Y-19515889D01*
X4020182Y-19515889D02*
X4010658Y-19534936D01*
X4010658Y-19534936D02*
X4001134Y-19544460D01*
X4001134Y-19544460D02*
X3982086Y-19553984D01*
X3982086Y-19553984D02*
X3963039Y-19553984D01*
X3963039Y-19553984D02*
X3943991Y-19544460D01*
X3943991Y-19544460D02*
X3934467Y-19534936D01*
X3934467Y-19534936D02*
X3924943Y-19515889D01*
X3924943Y-19515889D02*
X3915420Y-19477793D01*
X3915420Y-19477793D02*
X3915420Y-19430174D01*
X3915420Y-19430174D02*
X3924943Y-19392079D01*
X3924943Y-19392079D02*
X3934467Y-19373031D01*
X3934467Y-19373031D02*
X3943991Y-19363508D01*
X3943991Y-19363508D02*
X3963039Y-19353984D01*
X4115420Y-19553984D02*
X4115420Y-19420650D01*
X4115420Y-19439698D02*
X4124943Y-19430174D01*
X4124943Y-19430174D02*
X4143991Y-19420650D01*
X4143991Y-19420650D02*
X4172563Y-19420650D01*
X4172563Y-19420650D02*
X4191610Y-19430174D01*
X4191610Y-19430174D02*
X4201134Y-19449222D01*
X4201134Y-19449222D02*
X4201134Y-19553984D01*
X4201134Y-19449222D02*
X4210658Y-19430174D01*
X4210658Y-19430174D02*
X4229705Y-19420650D01*
X4229705Y-19420650D02*
X4258277Y-19420650D01*
X4258277Y-19420650D02*
X4277325Y-19430174D01*
X4277325Y-19430174D02*
X4286848Y-19449222D01*
X4286848Y-19449222D02*
X4286848Y-19553984D01*
X4382086Y-19553984D02*
X4382086Y-19420650D01*
X4382086Y-19439698D02*
X4391610Y-19430174D01*
X4391610Y-19430174D02*
X4410658Y-19420650D01*
X4410658Y-19420650D02*
X4439229Y-19420650D01*
X4439229Y-19420650D02*
X4458277Y-19430174D01*
X4458277Y-19430174D02*
X4467801Y-19449222D01*
X4467801Y-19449222D02*
X4467801Y-19553984D01*
X4467801Y-19449222D02*
X4477325Y-19430174D01*
X4477325Y-19430174D02*
X4496372Y-19420650D01*
X4496372Y-19420650D02*
X4524944Y-19420650D01*
X4524944Y-19420650D02*
X4543991Y-19430174D01*
X4543991Y-19430174D02*
X4553515Y-19449222D01*
X4553515Y-19449222D02*
X4553515Y-19553984D01*
X4943991Y-19344460D02*
X4772563Y-19601603D01*
X5201134Y-19353984D02*
X5220182Y-19353984D01*
X5220182Y-19353984D02*
X5239229Y-19363508D01*
X5239229Y-19363508D02*
X5248753Y-19373031D01*
X5248753Y-19373031D02*
X5258277Y-19392079D01*
X5258277Y-19392079D02*
X5267801Y-19430174D01*
X5267801Y-19430174D02*
X5267801Y-19477793D01*
X5267801Y-19477793D02*
X5258277Y-19515889D01*
X5258277Y-19515889D02*
X5248753Y-19534936D01*
X5248753Y-19534936D02*
X5239229Y-19544460D01*
X5239229Y-19544460D02*
X5220182Y-19553984D01*
X5220182Y-19553984D02*
X5201134Y-19553984D01*
X5201134Y-19553984D02*
X5182087Y-19544460D01*
X5182087Y-19544460D02*
X5172563Y-19534936D01*
X5172563Y-19534936D02*
X5163039Y-19515889D01*
X5163039Y-19515889D02*
X5153515Y-19477793D01*
X5153515Y-19477793D02*
X5153515Y-19430174D01*
X5153515Y-19430174D02*
X5163039Y-19392079D01*
X5163039Y-19392079D02*
X5172563Y-19373031D01*
X5172563Y-19373031D02*
X5182087Y-19363508D01*
X5182087Y-19363508D02*
X5201134Y-19353984D01*
X5353515Y-19534936D02*
X5363039Y-19544460D01*
X5363039Y-19544460D02*
X5353515Y-19553984D01*
X5353515Y-19553984D02*
X5343991Y-19544460D01*
X5343991Y-19544460D02*
X5353515Y-19534936D01*
X5353515Y-19534936D02*
X5353515Y-19553984D01*
X5486848Y-19353984D02*
X5505896Y-19353984D01*
X5505896Y-19353984D02*
X5524944Y-19363508D01*
X5524944Y-19363508D02*
X5534468Y-19373031D01*
X5534468Y-19373031D02*
X5543991Y-19392079D01*
X5543991Y-19392079D02*
X5553515Y-19430174D01*
X5553515Y-19430174D02*
X5553515Y-19477793D01*
X5553515Y-19477793D02*
X5543991Y-19515889D01*
X5543991Y-19515889D02*
X5534468Y-19534936D01*
X5534468Y-19534936D02*
X5524944Y-19544460D01*
X5524944Y-19544460D02*
X5505896Y-19553984D01*
X5505896Y-19553984D02*
X5486848Y-19553984D01*
X5486848Y-19553984D02*
X5467801Y-19544460D01*
X5467801Y-19544460D02*
X5458277Y-19534936D01*
X5458277Y-19534936D02*
X5448753Y-19515889D01*
X5448753Y-19515889D02*
X5439229Y-19477793D01*
X5439229Y-19477793D02*
X5439229Y-19430174D01*
X5439229Y-19430174D02*
X5448753Y-19392079D01*
X5448753Y-19392079D02*
X5458277Y-19373031D01*
X5458277Y-19373031D02*
X5467801Y-19363508D01*
X5467801Y-19363508D02*
X5486848Y-19353984D01*
X5724944Y-19353984D02*
X5686848Y-19353984D01*
X5686848Y-19353984D02*
X5667801Y-19363508D01*
X5667801Y-19363508D02*
X5658277Y-19373031D01*
X5658277Y-19373031D02*
X5639229Y-19401603D01*
X5639229Y-19401603D02*
X5629706Y-19439698D01*
X5629706Y-19439698D02*
X5629706Y-19515889D01*
X5629706Y-19515889D02*
X5639229Y-19534936D01*
X5639229Y-19534936D02*
X5648753Y-19544460D01*
X5648753Y-19544460D02*
X5667801Y-19553984D01*
X5667801Y-19553984D02*
X5705896Y-19553984D01*
X5705896Y-19553984D02*
X5724944Y-19544460D01*
X5724944Y-19544460D02*
X5734467Y-19534936D01*
X5734467Y-19534936D02*
X5743991Y-19515889D01*
X5743991Y-19515889D02*
X5743991Y-19468270D01*
X5743991Y-19468270D02*
X5734467Y-19449222D01*
X5734467Y-19449222D02*
X5724944Y-19439698D01*
X5724944Y-19439698D02*
X5705896Y-19430174D01*
X5705896Y-19430174D02*
X5667801Y-19430174D01*
X5667801Y-19430174D02*
X5648753Y-19439698D01*
X5648753Y-19439698D02*
X5639229Y-19449222D01*
X5639229Y-19449222D02*
X5629706Y-19468270D01*
X5810658Y-19353984D02*
X5934467Y-19353984D01*
X5934467Y-19353984D02*
X5867801Y-19430174D01*
X5867801Y-19430174D02*
X5896372Y-19430174D01*
X5896372Y-19430174D02*
X5915420Y-19439698D01*
X5915420Y-19439698D02*
X5924944Y-19449222D01*
X5924944Y-19449222D02*
X5934467Y-19468270D01*
X5934467Y-19468270D02*
X5934467Y-19515889D01*
X5934467Y-19515889D02*
X5924944Y-19534936D01*
X5924944Y-19534936D02*
X5915420Y-19544460D01*
X5915420Y-19544460D02*
X5896372Y-19553984D01*
X5896372Y-19553984D02*
X5839229Y-19553984D01*
X5839229Y-19553984D02*
X5820182Y-19544460D01*
X5820182Y-19544460D02*
X5810658Y-19534936D01*
X6058277Y-19353984D02*
X6077325Y-19353984D01*
X6077325Y-19353984D02*
X6096372Y-19363508D01*
X6096372Y-19363508D02*
X6105896Y-19373031D01*
X6105896Y-19373031D02*
X6115420Y-19392079D01*
X6115420Y-19392079D02*
X6124944Y-19430174D01*
X6124944Y-19430174D02*
X6124944Y-19477793D01*
X6124944Y-19477793D02*
X6115420Y-19515889D01*
X6115420Y-19515889D02*
X6105896Y-19534936D01*
X6105896Y-19534936D02*
X6096372Y-19544460D01*
X6096372Y-19544460D02*
X6077325Y-19553984D01*
X6077325Y-19553984D02*
X6058277Y-19553984D01*
X6058277Y-19553984D02*
X6039229Y-19544460D01*
X6039229Y-19544460D02*
X6029706Y-19534936D01*
X6029706Y-19534936D02*
X6020182Y-19515889D01*
X6020182Y-19515889D02*
X6010658Y-19477793D01*
X6010658Y-19477793D02*
X6010658Y-19430174D01*
X6010658Y-19430174D02*
X6020182Y-19392079D01*
X6020182Y-19392079D02*
X6029706Y-19373031D01*
X6029706Y-19373031D02*
X6039229Y-19363508D01*
X6039229Y-19363508D02*
X6058277Y-19353984D01*
X6201134Y-19353984D02*
X6201134Y-19392079D01*
X6277325Y-19353984D02*
X6277325Y-19392079D01*
X6572563Y-19630174D02*
X6563039Y-19620650D01*
X6563039Y-19620650D02*
X6543991Y-19592079D01*
X6543991Y-19592079D02*
X6534468Y-19573031D01*
X6534468Y-19573031D02*
X6524944Y-19544460D01*
X6524944Y-19544460D02*
X6515420Y-19496841D01*
X6515420Y-19496841D02*
X6515420Y-19458746D01*
X6515420Y-19458746D02*
X6524944Y-19411127D01*
X6524944Y-19411127D02*
X6534468Y-19382555D01*
X6534468Y-19382555D02*
X6543991Y-19363508D01*
X6543991Y-19363508D02*
X6563039Y-19334936D01*
X6563039Y-19334936D02*
X6572563Y-19325412D01*
X6743991Y-19353984D02*
X6648753Y-19353984D01*
X6648753Y-19353984D02*
X6639229Y-19449222D01*
X6639229Y-19449222D02*
X6648753Y-19439698D01*
X6648753Y-19439698D02*
X6667801Y-19430174D01*
X6667801Y-19430174D02*
X6715420Y-19430174D01*
X6715420Y-19430174D02*
X6734468Y-19439698D01*
X6734468Y-19439698D02*
X6743991Y-19449222D01*
X6743991Y-19449222D02*
X6753515Y-19468270D01*
X6753515Y-19468270D02*
X6753515Y-19515889D01*
X6753515Y-19515889D02*
X6743991Y-19534936D01*
X6743991Y-19534936D02*
X6734468Y-19544460D01*
X6734468Y-19544460D02*
X6715420Y-19553984D01*
X6715420Y-19553984D02*
X6667801Y-19553984D01*
X6667801Y-19553984D02*
X6648753Y-19544460D01*
X6648753Y-19544460D02*
X6639229Y-19534936D01*
X6991610Y-19553984D02*
X6991610Y-19353984D01*
X7077325Y-19553984D02*
X7077325Y-19449222D01*
X7077325Y-19449222D02*
X7067801Y-19430174D01*
X7067801Y-19430174D02*
X7048753Y-19420650D01*
X7048753Y-19420650D02*
X7020182Y-19420650D01*
X7020182Y-19420650D02*
X7001134Y-19430174D01*
X7001134Y-19430174D02*
X6991610Y-19439698D01*
X7201134Y-19553984D02*
X7182087Y-19544460D01*
X7182087Y-19544460D02*
X7172563Y-19534936D01*
X7172563Y-19534936D02*
X7163039Y-19515889D01*
X7163039Y-19515889D02*
X7163039Y-19458746D01*
X7163039Y-19458746D02*
X7172563Y-19439698D01*
X7172563Y-19439698D02*
X7182087Y-19430174D01*
X7182087Y-19430174D02*
X7201134Y-19420650D01*
X7201134Y-19420650D02*
X7229706Y-19420650D01*
X7229706Y-19420650D02*
X7248753Y-19430174D01*
X7248753Y-19430174D02*
X7258277Y-19439698D01*
X7258277Y-19439698D02*
X7267801Y-19458746D01*
X7267801Y-19458746D02*
X7267801Y-19515889D01*
X7267801Y-19515889D02*
X7258277Y-19534936D01*
X7258277Y-19534936D02*
X7248753Y-19544460D01*
X7248753Y-19544460D02*
X7229706Y-19553984D01*
X7229706Y-19553984D02*
X7201134Y-19553984D01*
X7382087Y-19553984D02*
X7363039Y-19544460D01*
X7363039Y-19544460D02*
X7353515Y-19525412D01*
X7353515Y-19525412D02*
X7353515Y-19353984D01*
X7534468Y-19544460D02*
X7515420Y-19553984D01*
X7515420Y-19553984D02*
X7477325Y-19553984D01*
X7477325Y-19553984D02*
X7458277Y-19544460D01*
X7458277Y-19544460D02*
X7448753Y-19525412D01*
X7448753Y-19525412D02*
X7448753Y-19449222D01*
X7448753Y-19449222D02*
X7458277Y-19430174D01*
X7458277Y-19430174D02*
X7477325Y-19420650D01*
X7477325Y-19420650D02*
X7515420Y-19420650D01*
X7515420Y-19420650D02*
X7534468Y-19430174D01*
X7534468Y-19430174D02*
X7543991Y-19449222D01*
X7543991Y-19449222D02*
X7543991Y-19468270D01*
X7543991Y-19468270D02*
X7448753Y-19487317D01*
X7620182Y-19544460D02*
X7639230Y-19553984D01*
X7639230Y-19553984D02*
X7677325Y-19553984D01*
X7677325Y-19553984D02*
X7696372Y-19544460D01*
X7696372Y-19544460D02*
X7705896Y-19525412D01*
X7705896Y-19525412D02*
X7705896Y-19515889D01*
X7705896Y-19515889D02*
X7696372Y-19496841D01*
X7696372Y-19496841D02*
X7677325Y-19487317D01*
X7677325Y-19487317D02*
X7648753Y-19487317D01*
X7648753Y-19487317D02*
X7629706Y-19477793D01*
X7629706Y-19477793D02*
X7620182Y-19458746D01*
X7620182Y-19458746D02*
X7620182Y-19449222D01*
X7620182Y-19449222D02*
X7629706Y-19430174D01*
X7629706Y-19430174D02*
X7648753Y-19420650D01*
X7648753Y-19420650D02*
X7677325Y-19420650D01*
X7677325Y-19420650D02*
X7696372Y-19430174D01*
X7772563Y-19630174D02*
X7782087Y-19620650D01*
X7782087Y-19620650D02*
X7801134Y-19592079D01*
X7801134Y-19592079D02*
X7810658Y-19573031D01*
X7810658Y-19573031D02*
X7820182Y-19544460D01*
X7820182Y-19544460D02*
X7829706Y-19496841D01*
X7829706Y-19496841D02*
X7829706Y-19458746D01*
X7829706Y-19458746D02*
X7820182Y-19411127D01*
X7820182Y-19411127D02*
X7810658Y-19382555D01*
X7810658Y-19382555D02*
X7801134Y-19363508D01*
X7801134Y-19363508D02*
X7782087Y-19334936D01*
X7782087Y-19334936D02*
X7772563Y-19325412D01*
X2797500Y-19642500D02*
X2997500Y-19842500D01*
X2997500Y-19642500D02*
X2797500Y-19842500D01*
X2897500Y-19642500D02*
X2897500Y-19842500D01*
X2797500Y-19742500D02*
X2997500Y-19742500D01*
X3239229Y-19633984D02*
X3363039Y-19633984D01*
X3363039Y-19633984D02*
X3296372Y-19710174D01*
X3296372Y-19710174D02*
X3324943Y-19710174D01*
X3324943Y-19710174D02*
X3343991Y-19719698D01*
X3343991Y-19719698D02*
X3353515Y-19729222D01*
X3353515Y-19729222D02*
X3363039Y-19748270D01*
X3363039Y-19748270D02*
X3363039Y-19795889D01*
X3363039Y-19795889D02*
X3353515Y-19814936D01*
X3353515Y-19814936D02*
X3343991Y-19824460D01*
X3343991Y-19824460D02*
X3324943Y-19833984D01*
X3324943Y-19833984D02*
X3267801Y-19833984D01*
X3267801Y-19833984D02*
X3248753Y-19824460D01*
X3248753Y-19824460D02*
X3239229Y-19814936D01*
X3448753Y-19814936D02*
X3458277Y-19824460D01*
X3458277Y-19824460D02*
X3448753Y-19833984D01*
X3448753Y-19833984D02*
X3439229Y-19824460D01*
X3439229Y-19824460D02*
X3448753Y-19814936D01*
X3448753Y-19814936D02*
X3448753Y-19833984D01*
X3524943Y-19633984D02*
X3658277Y-19633984D01*
X3658277Y-19633984D02*
X3572562Y-19833984D01*
X3829705Y-19633984D02*
X3734467Y-19633984D01*
X3734467Y-19633984D02*
X3724943Y-19729222D01*
X3724943Y-19729222D02*
X3734467Y-19719698D01*
X3734467Y-19719698D02*
X3753515Y-19710174D01*
X3753515Y-19710174D02*
X3801134Y-19710174D01*
X3801134Y-19710174D02*
X3820182Y-19719698D01*
X3820182Y-19719698D02*
X3829705Y-19729222D01*
X3829705Y-19729222D02*
X3839229Y-19748270D01*
X3839229Y-19748270D02*
X3839229Y-19795889D01*
X3839229Y-19795889D02*
X3829705Y-19814936D01*
X3829705Y-19814936D02*
X3820182Y-19824460D01*
X3820182Y-19824460D02*
X3801134Y-19833984D01*
X3801134Y-19833984D02*
X3753515Y-19833984D01*
X3753515Y-19833984D02*
X3734467Y-19824460D01*
X3734467Y-19824460D02*
X3724943Y-19814936D01*
X3963039Y-19633984D02*
X3982086Y-19633984D01*
X3982086Y-19633984D02*
X4001134Y-19643508D01*
X4001134Y-19643508D02*
X4010658Y-19653031D01*
X4010658Y-19653031D02*
X4020182Y-19672079D01*
X4020182Y-19672079D02*
X4029705Y-19710174D01*
X4029705Y-19710174D02*
X4029705Y-19757793D01*
X4029705Y-19757793D02*
X4020182Y-19795889D01*
X4020182Y-19795889D02*
X4010658Y-19814936D01*
X4010658Y-19814936D02*
X4001134Y-19824460D01*
X4001134Y-19824460D02*
X3982086Y-19833984D01*
X3982086Y-19833984D02*
X3963039Y-19833984D01*
X3963039Y-19833984D02*
X3943991Y-19824460D01*
X3943991Y-19824460D02*
X3934467Y-19814936D01*
X3934467Y-19814936D02*
X3924943Y-19795889D01*
X3924943Y-19795889D02*
X3915420Y-19757793D01*
X3915420Y-19757793D02*
X3915420Y-19710174D01*
X3915420Y-19710174D02*
X3924943Y-19672079D01*
X3924943Y-19672079D02*
X3934467Y-19653031D01*
X3934467Y-19653031D02*
X3943991Y-19643508D01*
X3943991Y-19643508D02*
X3963039Y-19633984D01*
X4115420Y-19833984D02*
X4115420Y-19700650D01*
X4115420Y-19719698D02*
X4124943Y-19710174D01*
X4124943Y-19710174D02*
X4143991Y-19700650D01*
X4143991Y-19700650D02*
X4172563Y-19700650D01*
X4172563Y-19700650D02*
X4191610Y-19710174D01*
X4191610Y-19710174D02*
X4201134Y-19729222D01*
X4201134Y-19729222D02*
X4201134Y-19833984D01*
X4201134Y-19729222D02*
X4210658Y-19710174D01*
X4210658Y-19710174D02*
X4229705Y-19700650D01*
X4229705Y-19700650D02*
X4258277Y-19700650D01*
X4258277Y-19700650D02*
X4277325Y-19710174D01*
X4277325Y-19710174D02*
X4286848Y-19729222D01*
X4286848Y-19729222D02*
X4286848Y-19833984D01*
X4382086Y-19833984D02*
X4382086Y-19700650D01*
X4382086Y-19719698D02*
X4391610Y-19710174D01*
X4391610Y-19710174D02*
X4410658Y-19700650D01*
X4410658Y-19700650D02*
X4439229Y-19700650D01*
X4439229Y-19700650D02*
X4458277Y-19710174D01*
X4458277Y-19710174D02*
X4467801Y-19729222D01*
X4467801Y-19729222D02*
X4467801Y-19833984D01*
X4467801Y-19729222D02*
X4477325Y-19710174D01*
X4477325Y-19710174D02*
X4496372Y-19700650D01*
X4496372Y-19700650D02*
X4524944Y-19700650D01*
X4524944Y-19700650D02*
X4543991Y-19710174D01*
X4543991Y-19710174D02*
X4553515Y-19729222D01*
X4553515Y-19729222D02*
X4553515Y-19833984D01*
X4943991Y-19624460D02*
X4772563Y-19881603D01*
X5201134Y-19633984D02*
X5220182Y-19633984D01*
X5220182Y-19633984D02*
X5239229Y-19643508D01*
X5239229Y-19643508D02*
X5248753Y-19653031D01*
X5248753Y-19653031D02*
X5258277Y-19672079D01*
X5258277Y-19672079D02*
X5267801Y-19710174D01*
X5267801Y-19710174D02*
X5267801Y-19757793D01*
X5267801Y-19757793D02*
X5258277Y-19795889D01*
X5258277Y-19795889D02*
X5248753Y-19814936D01*
X5248753Y-19814936D02*
X5239229Y-19824460D01*
X5239229Y-19824460D02*
X5220182Y-19833984D01*
X5220182Y-19833984D02*
X5201134Y-19833984D01*
X5201134Y-19833984D02*
X5182087Y-19824460D01*
X5182087Y-19824460D02*
X5172563Y-19814936D01*
X5172563Y-19814936D02*
X5163039Y-19795889D01*
X5163039Y-19795889D02*
X5153515Y-19757793D01*
X5153515Y-19757793D02*
X5153515Y-19710174D01*
X5153515Y-19710174D02*
X5163039Y-19672079D01*
X5163039Y-19672079D02*
X5172563Y-19653031D01*
X5172563Y-19653031D02*
X5182087Y-19643508D01*
X5182087Y-19643508D02*
X5201134Y-19633984D01*
X5353515Y-19814936D02*
X5363039Y-19824460D01*
X5363039Y-19824460D02*
X5353515Y-19833984D01*
X5353515Y-19833984D02*
X5343991Y-19824460D01*
X5343991Y-19824460D02*
X5353515Y-19814936D01*
X5353515Y-19814936D02*
X5353515Y-19833984D01*
X5553515Y-19833984D02*
X5439229Y-19833984D01*
X5496372Y-19833984D02*
X5496372Y-19633984D01*
X5496372Y-19633984D02*
X5477325Y-19662555D01*
X5477325Y-19662555D02*
X5458277Y-19681603D01*
X5458277Y-19681603D02*
X5439229Y-19691127D01*
X5724944Y-19700650D02*
X5724944Y-19833984D01*
X5677325Y-19624460D02*
X5629706Y-19767317D01*
X5629706Y-19767317D02*
X5753515Y-19767317D01*
X5810658Y-19633984D02*
X5943991Y-19633984D01*
X5943991Y-19633984D02*
X5858277Y-19833984D01*
X6105896Y-19633984D02*
X6067801Y-19633984D01*
X6067801Y-19633984D02*
X6048753Y-19643508D01*
X6048753Y-19643508D02*
X6039229Y-19653031D01*
X6039229Y-19653031D02*
X6020182Y-19681603D01*
X6020182Y-19681603D02*
X6010658Y-19719698D01*
X6010658Y-19719698D02*
X6010658Y-19795889D01*
X6010658Y-19795889D02*
X6020182Y-19814936D01*
X6020182Y-19814936D02*
X6029706Y-19824460D01*
X6029706Y-19824460D02*
X6048753Y-19833984D01*
X6048753Y-19833984D02*
X6086848Y-19833984D01*
X6086848Y-19833984D02*
X6105896Y-19824460D01*
X6105896Y-19824460D02*
X6115420Y-19814936D01*
X6115420Y-19814936D02*
X6124944Y-19795889D01*
X6124944Y-19795889D02*
X6124944Y-19748270D01*
X6124944Y-19748270D02*
X6115420Y-19729222D01*
X6115420Y-19729222D02*
X6105896Y-19719698D01*
X6105896Y-19719698D02*
X6086848Y-19710174D01*
X6086848Y-19710174D02*
X6048753Y-19710174D01*
X6048753Y-19710174D02*
X6029706Y-19719698D01*
X6029706Y-19719698D02*
X6020182Y-19729222D01*
X6020182Y-19729222D02*
X6010658Y-19748270D01*
X6201134Y-19633984D02*
X6201134Y-19672079D01*
X6277325Y-19633984D02*
X6277325Y-19672079D01*
X6572563Y-19910174D02*
X6563039Y-19900650D01*
X6563039Y-19900650D02*
X6543991Y-19872079D01*
X6543991Y-19872079D02*
X6534468Y-19853031D01*
X6534468Y-19853031D02*
X6524944Y-19824460D01*
X6524944Y-19824460D02*
X6515420Y-19776841D01*
X6515420Y-19776841D02*
X6515420Y-19738746D01*
X6515420Y-19738746D02*
X6524944Y-19691127D01*
X6524944Y-19691127D02*
X6534468Y-19662555D01*
X6534468Y-19662555D02*
X6543991Y-19643508D01*
X6543991Y-19643508D02*
X6563039Y-19614936D01*
X6563039Y-19614936D02*
X6572563Y-19605412D01*
X6753515Y-19833984D02*
X6639229Y-19833984D01*
X6696372Y-19833984D02*
X6696372Y-19633984D01*
X6696372Y-19633984D02*
X6677325Y-19662555D01*
X6677325Y-19662555D02*
X6658277Y-19681603D01*
X6658277Y-19681603D02*
X6639229Y-19691127D01*
X6991610Y-19833984D02*
X6991610Y-19633984D01*
X7077325Y-19833984D02*
X7077325Y-19729222D01*
X7077325Y-19729222D02*
X7067801Y-19710174D01*
X7067801Y-19710174D02*
X7048753Y-19700650D01*
X7048753Y-19700650D02*
X7020182Y-19700650D01*
X7020182Y-19700650D02*
X7001134Y-19710174D01*
X7001134Y-19710174D02*
X6991610Y-19719698D01*
X7201134Y-19833984D02*
X7182087Y-19824460D01*
X7182087Y-19824460D02*
X7172563Y-19814936D01*
X7172563Y-19814936D02*
X7163039Y-19795889D01*
X7163039Y-19795889D02*
X7163039Y-19738746D01*
X7163039Y-19738746D02*
X7172563Y-19719698D01*
X7172563Y-19719698D02*
X7182087Y-19710174D01*
X7182087Y-19710174D02*
X7201134Y-19700650D01*
X7201134Y-19700650D02*
X7229706Y-19700650D01*
X7229706Y-19700650D02*
X7248753Y-19710174D01*
X7248753Y-19710174D02*
X7258277Y-19719698D01*
X7258277Y-19719698D02*
X7267801Y-19738746D01*
X7267801Y-19738746D02*
X7267801Y-19795889D01*
X7267801Y-19795889D02*
X7258277Y-19814936D01*
X7258277Y-19814936D02*
X7248753Y-19824460D01*
X7248753Y-19824460D02*
X7229706Y-19833984D01*
X7229706Y-19833984D02*
X7201134Y-19833984D01*
X7382087Y-19833984D02*
X7363039Y-19824460D01*
X7363039Y-19824460D02*
X7353515Y-19805412D01*
X7353515Y-19805412D02*
X7353515Y-19633984D01*
X7534468Y-19824460D02*
X7515420Y-19833984D01*
X7515420Y-19833984D02*
X7477325Y-19833984D01*
X7477325Y-19833984D02*
X7458277Y-19824460D01*
X7458277Y-19824460D02*
X7448753Y-19805412D01*
X7448753Y-19805412D02*
X7448753Y-19729222D01*
X7448753Y-19729222D02*
X7458277Y-19710174D01*
X7458277Y-19710174D02*
X7477325Y-19700650D01*
X7477325Y-19700650D02*
X7515420Y-19700650D01*
X7515420Y-19700650D02*
X7534468Y-19710174D01*
X7534468Y-19710174D02*
X7543991Y-19729222D01*
X7543991Y-19729222D02*
X7543991Y-19748270D01*
X7543991Y-19748270D02*
X7448753Y-19767317D01*
X7610658Y-19910174D02*
X7620182Y-19900650D01*
X7620182Y-19900650D02*
X7639230Y-19872079D01*
X7639230Y-19872079D02*
X7648753Y-19853031D01*
X7648753Y-19853031D02*
X7658277Y-19824460D01*
X7658277Y-19824460D02*
X7667801Y-19776841D01*
X7667801Y-19776841D02*
X7667801Y-19738746D01*
X7667801Y-19738746D02*
X7658277Y-19691127D01*
X7658277Y-19691127D02*
X7648753Y-19662555D01*
X7648753Y-19662555D02*
X7639230Y-19643508D01*
X7639230Y-19643508D02*
X7620182Y-19614936D01*
X7620182Y-19614936D02*
X7610658Y-19605412D01*
M02*
