G04 #@! TF.GenerationSoftware,KiCad,Pcbnew,9.0.2*
G04 #@! TF.CreationDate,2025-06-03T16:38:34+02:00*
G04 #@! TF.ProjectId,badgeCarrierCard,62616467-6543-4617-9272-696572436172,rev?*
G04 #@! TF.SameCoordinates,Original*
G04 #@! TF.FileFunction,Legend,Bot*
G04 #@! TF.FilePolarity,Positive*
%FSLAX46Y46*%
G04 Gerber Fmt 4.6, Leading zero omitted, Abs format (unit mm)*
G04 Created by KiCad (PCBNEW 9.0.2) date 2025-06-03 16:38:34*
%MOMM*%
%LPD*%
G01*
G04 APERTURE LIST*
%ADD10C,0.125000*%
%ADD11C,0.150000*%
%ADD12C,0.100000*%
%ADD13C,0.120000*%
%ADD14C,0.127000*%
%ADD15C,0.200000*%
%ADD16C,0.050000*%
G04 APERTURE END LIST*
D10*
X42785621Y-66332309D02*
X43023716Y-66332309D01*
X43023716Y-66332309D02*
X43047525Y-66570404D01*
X43047525Y-66570404D02*
X43023716Y-66546595D01*
X43023716Y-66546595D02*
X42976097Y-66522785D01*
X42976097Y-66522785D02*
X42857049Y-66522785D01*
X42857049Y-66522785D02*
X42809430Y-66546595D01*
X42809430Y-66546595D02*
X42785621Y-66570404D01*
X42785621Y-66570404D02*
X42761811Y-66618023D01*
X42761811Y-66618023D02*
X42761811Y-66737071D01*
X42761811Y-66737071D02*
X42785621Y-66784690D01*
X42785621Y-66784690D02*
X42809430Y-66808500D01*
X42809430Y-66808500D02*
X42857049Y-66832309D01*
X42857049Y-66832309D02*
X42976097Y-66832309D01*
X42976097Y-66832309D02*
X43023716Y-66808500D01*
X43023716Y-66808500D02*
X43047525Y-66784690D01*
X42452288Y-66332309D02*
X42404669Y-66332309D01*
X42404669Y-66332309D02*
X42357050Y-66356119D01*
X42357050Y-66356119D02*
X42333240Y-66379928D01*
X42333240Y-66379928D02*
X42309431Y-66427547D01*
X42309431Y-66427547D02*
X42285621Y-66522785D01*
X42285621Y-66522785D02*
X42285621Y-66641833D01*
X42285621Y-66641833D02*
X42309431Y-66737071D01*
X42309431Y-66737071D02*
X42333240Y-66784690D01*
X42333240Y-66784690D02*
X42357050Y-66808500D01*
X42357050Y-66808500D02*
X42404669Y-66832309D01*
X42404669Y-66832309D02*
X42452288Y-66832309D01*
X42452288Y-66832309D02*
X42499907Y-66808500D01*
X42499907Y-66808500D02*
X42523716Y-66784690D01*
X42523716Y-66784690D02*
X42547526Y-66737071D01*
X42547526Y-66737071D02*
X42571335Y-66641833D01*
X42571335Y-66641833D02*
X42571335Y-66522785D01*
X42571335Y-66522785D02*
X42547526Y-66427547D01*
X42547526Y-66427547D02*
X42523716Y-66379928D01*
X42523716Y-66379928D02*
X42499907Y-66356119D01*
X42499907Y-66356119D02*
X42452288Y-66332309D01*
X42095145Y-66832309D02*
X41714193Y-66332309D01*
X42023717Y-66332309D02*
X41976098Y-66356119D01*
X41976098Y-66356119D02*
X41952288Y-66403738D01*
X41952288Y-66403738D02*
X41976098Y-66451357D01*
X41976098Y-66451357D02*
X42023717Y-66475166D01*
X42023717Y-66475166D02*
X42071336Y-66451357D01*
X42071336Y-66451357D02*
X42095145Y-66403738D01*
X42095145Y-66403738D02*
X42071336Y-66356119D01*
X42071336Y-66356119D02*
X42023717Y-66332309D01*
X41738003Y-66808500D02*
X41714193Y-66760880D01*
X41714193Y-66760880D02*
X41738003Y-66713261D01*
X41738003Y-66713261D02*
X41785622Y-66689452D01*
X41785622Y-66689452D02*
X41833241Y-66713261D01*
X41833241Y-66713261D02*
X41857050Y-66760880D01*
X41857050Y-66760880D02*
X41833241Y-66808500D01*
X41833241Y-66808500D02*
X41785622Y-66832309D01*
X41785622Y-66832309D02*
X41738003Y-66808500D01*
X113895404Y-169967950D02*
X113919214Y-170039378D01*
X113919214Y-170039378D02*
X113943023Y-170063188D01*
X113943023Y-170063188D02*
X113990642Y-170086997D01*
X113990642Y-170086997D02*
X114062071Y-170086997D01*
X114062071Y-170086997D02*
X114109690Y-170063188D01*
X114109690Y-170063188D02*
X114133500Y-170039378D01*
X114133500Y-170039378D02*
X114157309Y-169991759D01*
X114157309Y-169991759D02*
X114157309Y-169801283D01*
X114157309Y-169801283D02*
X113657309Y-169801283D01*
X113657309Y-169801283D02*
X113657309Y-169967950D01*
X113657309Y-169967950D02*
X113681119Y-170015569D01*
X113681119Y-170015569D02*
X113704928Y-170039378D01*
X113704928Y-170039378D02*
X113752547Y-170063188D01*
X113752547Y-170063188D02*
X113800166Y-170063188D01*
X113800166Y-170063188D02*
X113847785Y-170039378D01*
X113847785Y-170039378D02*
X113871595Y-170015569D01*
X113871595Y-170015569D02*
X113895404Y-169967950D01*
X113895404Y-169967950D02*
X113895404Y-169801283D01*
X114014452Y-170277474D02*
X114014452Y-170515569D01*
X114157309Y-170229855D02*
X113657309Y-170396521D01*
X113657309Y-170396521D02*
X114157309Y-170563188D01*
X113657309Y-170658426D02*
X113657309Y-170944140D01*
X114157309Y-170801283D02*
X113657309Y-170801283D01*
X113895404Y-171491758D02*
X113895404Y-171658425D01*
X114157309Y-171729853D02*
X114157309Y-171491758D01*
X114157309Y-171491758D02*
X113657309Y-171491758D01*
X113657309Y-171491758D02*
X113657309Y-171729853D01*
X114157309Y-172229853D02*
X113919214Y-172063187D01*
X114157309Y-171944139D02*
X113657309Y-171944139D01*
X113657309Y-171944139D02*
X113657309Y-172134615D01*
X113657309Y-172134615D02*
X113681119Y-172182234D01*
X113681119Y-172182234D02*
X113704928Y-172206044D01*
X113704928Y-172206044D02*
X113752547Y-172229853D01*
X113752547Y-172229853D02*
X113823976Y-172229853D01*
X113823976Y-172229853D02*
X113871595Y-172206044D01*
X113871595Y-172206044D02*
X113895404Y-172182234D01*
X113895404Y-172182234D02*
X113919214Y-172134615D01*
X113919214Y-172134615D02*
X113919214Y-171944139D01*
X114157309Y-172729853D02*
X113919214Y-172563187D01*
X114157309Y-172444139D02*
X113657309Y-172444139D01*
X113657309Y-172444139D02*
X113657309Y-172634615D01*
X113657309Y-172634615D02*
X113681119Y-172682234D01*
X113681119Y-172682234D02*
X113704928Y-172706044D01*
X113704928Y-172706044D02*
X113752547Y-172729853D01*
X113752547Y-172729853D02*
X113823976Y-172729853D01*
X113823976Y-172729853D02*
X113871595Y-172706044D01*
X113871595Y-172706044D02*
X113895404Y-172682234D01*
X113895404Y-172682234D02*
X113919214Y-172634615D01*
X113919214Y-172634615D02*
X113919214Y-172444139D01*
X113657309Y-173039377D02*
X113657309Y-173134615D01*
X113657309Y-173134615D02*
X113681119Y-173182234D01*
X113681119Y-173182234D02*
X113728738Y-173229853D01*
X113728738Y-173229853D02*
X113823976Y-173253663D01*
X113823976Y-173253663D02*
X113990642Y-173253663D01*
X113990642Y-173253663D02*
X114085880Y-173229853D01*
X114085880Y-173229853D02*
X114133500Y-173182234D01*
X114133500Y-173182234D02*
X114157309Y-173134615D01*
X114157309Y-173134615D02*
X114157309Y-173039377D01*
X114157309Y-173039377D02*
X114133500Y-172991758D01*
X114133500Y-172991758D02*
X114085880Y-172944139D01*
X114085880Y-172944139D02*
X113990642Y-172920330D01*
X113990642Y-172920330D02*
X113823976Y-172920330D01*
X113823976Y-172920330D02*
X113728738Y-172944139D01*
X113728738Y-172944139D02*
X113681119Y-172991758D01*
X113681119Y-172991758D02*
X113657309Y-173039377D01*
X114157309Y-173753663D02*
X113919214Y-173586997D01*
X114157309Y-173467949D02*
X113657309Y-173467949D01*
X113657309Y-173467949D02*
X113657309Y-173658425D01*
X113657309Y-173658425D02*
X113681119Y-173706044D01*
X113681119Y-173706044D02*
X113704928Y-173729854D01*
X113704928Y-173729854D02*
X113752547Y-173753663D01*
X113752547Y-173753663D02*
X113823976Y-173753663D01*
X113823976Y-173753663D02*
X113871595Y-173729854D01*
X113871595Y-173729854D02*
X113895404Y-173706044D01*
X113895404Y-173706044D02*
X113919214Y-173658425D01*
X113919214Y-173658425D02*
X113919214Y-173467949D01*
X42977287Y-64771595D02*
X43024906Y-64747785D01*
X43024906Y-64747785D02*
X43048716Y-64723976D01*
X43048716Y-64723976D02*
X43072525Y-64676357D01*
X43072525Y-64676357D02*
X43072525Y-64652547D01*
X43072525Y-64652547D02*
X43048716Y-64604928D01*
X43048716Y-64604928D02*
X43024906Y-64581119D01*
X43024906Y-64581119D02*
X42977287Y-64557309D01*
X42977287Y-64557309D02*
X42882049Y-64557309D01*
X42882049Y-64557309D02*
X42834430Y-64581119D01*
X42834430Y-64581119D02*
X42810621Y-64604928D01*
X42810621Y-64604928D02*
X42786811Y-64652547D01*
X42786811Y-64652547D02*
X42786811Y-64676357D01*
X42786811Y-64676357D02*
X42810621Y-64723976D01*
X42810621Y-64723976D02*
X42834430Y-64747785D01*
X42834430Y-64747785D02*
X42882049Y-64771595D01*
X42882049Y-64771595D02*
X42977287Y-64771595D01*
X42977287Y-64771595D02*
X43024906Y-64795404D01*
X43024906Y-64795404D02*
X43048716Y-64819214D01*
X43048716Y-64819214D02*
X43072525Y-64866833D01*
X43072525Y-64866833D02*
X43072525Y-64962071D01*
X43072525Y-64962071D02*
X43048716Y-65009690D01*
X43048716Y-65009690D02*
X43024906Y-65033500D01*
X43024906Y-65033500D02*
X42977287Y-65057309D01*
X42977287Y-65057309D02*
X42882049Y-65057309D01*
X42882049Y-65057309D02*
X42834430Y-65033500D01*
X42834430Y-65033500D02*
X42810621Y-65009690D01*
X42810621Y-65009690D02*
X42786811Y-64962071D01*
X42786811Y-64962071D02*
X42786811Y-64866833D01*
X42786811Y-64866833D02*
X42810621Y-64819214D01*
X42810621Y-64819214D02*
X42834430Y-64795404D01*
X42834430Y-64795404D02*
X42882049Y-64771595D01*
X42477288Y-64557309D02*
X42429669Y-64557309D01*
X42429669Y-64557309D02*
X42382050Y-64581119D01*
X42382050Y-64581119D02*
X42358240Y-64604928D01*
X42358240Y-64604928D02*
X42334431Y-64652547D01*
X42334431Y-64652547D02*
X42310621Y-64747785D01*
X42310621Y-64747785D02*
X42310621Y-64866833D01*
X42310621Y-64866833D02*
X42334431Y-64962071D01*
X42334431Y-64962071D02*
X42358240Y-65009690D01*
X42358240Y-65009690D02*
X42382050Y-65033500D01*
X42382050Y-65033500D02*
X42429669Y-65057309D01*
X42429669Y-65057309D02*
X42477288Y-65057309D01*
X42477288Y-65057309D02*
X42524907Y-65033500D01*
X42524907Y-65033500D02*
X42548716Y-65009690D01*
X42548716Y-65009690D02*
X42572526Y-64962071D01*
X42572526Y-64962071D02*
X42596335Y-64866833D01*
X42596335Y-64866833D02*
X42596335Y-64747785D01*
X42596335Y-64747785D02*
X42572526Y-64652547D01*
X42572526Y-64652547D02*
X42548716Y-64604928D01*
X42548716Y-64604928D02*
X42524907Y-64581119D01*
X42524907Y-64581119D02*
X42477288Y-64557309D01*
X42120145Y-65057309D02*
X41739193Y-64557309D01*
X42048717Y-64557309D02*
X42001098Y-64581119D01*
X42001098Y-64581119D02*
X41977288Y-64628738D01*
X41977288Y-64628738D02*
X42001098Y-64676357D01*
X42001098Y-64676357D02*
X42048717Y-64700166D01*
X42048717Y-64700166D02*
X42096336Y-64676357D01*
X42096336Y-64676357D02*
X42120145Y-64628738D01*
X42120145Y-64628738D02*
X42096336Y-64581119D01*
X42096336Y-64581119D02*
X42048717Y-64557309D01*
X41763003Y-65033500D02*
X41739193Y-64985880D01*
X41739193Y-64985880D02*
X41763003Y-64938261D01*
X41763003Y-64938261D02*
X41810622Y-64914452D01*
X41810622Y-64914452D02*
X41858241Y-64938261D01*
X41858241Y-64938261D02*
X41882050Y-64985880D01*
X41882050Y-64985880D02*
X41858241Y-65033500D01*
X41858241Y-65033500D02*
X41810622Y-65057309D01*
X41810622Y-65057309D02*
X41763003Y-65033500D01*
X43097525Y-67979928D02*
X43073716Y-67956119D01*
X43073716Y-67956119D02*
X43026097Y-67932309D01*
X43026097Y-67932309D02*
X42907049Y-67932309D01*
X42907049Y-67932309D02*
X42859430Y-67956119D01*
X42859430Y-67956119D02*
X42835621Y-67979928D01*
X42835621Y-67979928D02*
X42811811Y-68027547D01*
X42811811Y-68027547D02*
X42811811Y-68075166D01*
X42811811Y-68075166D02*
X42835621Y-68146595D01*
X42835621Y-68146595D02*
X43121335Y-68432309D01*
X43121335Y-68432309D02*
X42811811Y-68432309D01*
X42502288Y-67932309D02*
X42454669Y-67932309D01*
X42454669Y-67932309D02*
X42407050Y-67956119D01*
X42407050Y-67956119D02*
X42383240Y-67979928D01*
X42383240Y-67979928D02*
X42359431Y-68027547D01*
X42359431Y-68027547D02*
X42335621Y-68122785D01*
X42335621Y-68122785D02*
X42335621Y-68241833D01*
X42335621Y-68241833D02*
X42359431Y-68337071D01*
X42359431Y-68337071D02*
X42383240Y-68384690D01*
X42383240Y-68384690D02*
X42407050Y-68408500D01*
X42407050Y-68408500D02*
X42454669Y-68432309D01*
X42454669Y-68432309D02*
X42502288Y-68432309D01*
X42502288Y-68432309D02*
X42549907Y-68408500D01*
X42549907Y-68408500D02*
X42573716Y-68384690D01*
X42573716Y-68384690D02*
X42597526Y-68337071D01*
X42597526Y-68337071D02*
X42621335Y-68241833D01*
X42621335Y-68241833D02*
X42621335Y-68122785D01*
X42621335Y-68122785D02*
X42597526Y-68027547D01*
X42597526Y-68027547D02*
X42573716Y-67979928D01*
X42573716Y-67979928D02*
X42549907Y-67956119D01*
X42549907Y-67956119D02*
X42502288Y-67932309D01*
X42145145Y-68432309D02*
X41764193Y-67932309D01*
X42073717Y-67932309D02*
X42026098Y-67956119D01*
X42026098Y-67956119D02*
X42002288Y-68003738D01*
X42002288Y-68003738D02*
X42026098Y-68051357D01*
X42026098Y-68051357D02*
X42073717Y-68075166D01*
X42073717Y-68075166D02*
X42121336Y-68051357D01*
X42121336Y-68051357D02*
X42145145Y-68003738D01*
X42145145Y-68003738D02*
X42121336Y-67956119D01*
X42121336Y-67956119D02*
X42073717Y-67932309D01*
X41788003Y-68408500D02*
X41764193Y-68360880D01*
X41764193Y-68360880D02*
X41788003Y-68313261D01*
X41788003Y-68313261D02*
X41835622Y-68289452D01*
X41835622Y-68289452D02*
X41883241Y-68313261D01*
X41883241Y-68313261D02*
X41907050Y-68360880D01*
X41907050Y-68360880D02*
X41883241Y-68408500D01*
X41883241Y-68408500D02*
X41835622Y-68432309D01*
X41835622Y-68432309D02*
X41788003Y-68408500D01*
X43161811Y-63432309D02*
X43447525Y-63432309D01*
X43304668Y-63432309D02*
X43304668Y-62932309D01*
X43304668Y-62932309D02*
X43352287Y-63003738D01*
X43352287Y-63003738D02*
X43399906Y-63051357D01*
X43399906Y-63051357D02*
X43447525Y-63075166D01*
X42852288Y-62932309D02*
X42804669Y-62932309D01*
X42804669Y-62932309D02*
X42757050Y-62956119D01*
X42757050Y-62956119D02*
X42733240Y-62979928D01*
X42733240Y-62979928D02*
X42709431Y-63027547D01*
X42709431Y-63027547D02*
X42685621Y-63122785D01*
X42685621Y-63122785D02*
X42685621Y-63241833D01*
X42685621Y-63241833D02*
X42709431Y-63337071D01*
X42709431Y-63337071D02*
X42733240Y-63384690D01*
X42733240Y-63384690D02*
X42757050Y-63408500D01*
X42757050Y-63408500D02*
X42804669Y-63432309D01*
X42804669Y-63432309D02*
X42852288Y-63432309D01*
X42852288Y-63432309D02*
X42899907Y-63408500D01*
X42899907Y-63408500D02*
X42923716Y-63384690D01*
X42923716Y-63384690D02*
X42947526Y-63337071D01*
X42947526Y-63337071D02*
X42971335Y-63241833D01*
X42971335Y-63241833D02*
X42971335Y-63122785D01*
X42971335Y-63122785D02*
X42947526Y-63027547D01*
X42947526Y-63027547D02*
X42923716Y-62979928D01*
X42923716Y-62979928D02*
X42899907Y-62956119D01*
X42899907Y-62956119D02*
X42852288Y-62932309D01*
X42376098Y-62932309D02*
X42328479Y-62932309D01*
X42328479Y-62932309D02*
X42280860Y-62956119D01*
X42280860Y-62956119D02*
X42257050Y-62979928D01*
X42257050Y-62979928D02*
X42233241Y-63027547D01*
X42233241Y-63027547D02*
X42209431Y-63122785D01*
X42209431Y-63122785D02*
X42209431Y-63241833D01*
X42209431Y-63241833D02*
X42233241Y-63337071D01*
X42233241Y-63337071D02*
X42257050Y-63384690D01*
X42257050Y-63384690D02*
X42280860Y-63408500D01*
X42280860Y-63408500D02*
X42328479Y-63432309D01*
X42328479Y-63432309D02*
X42376098Y-63432309D01*
X42376098Y-63432309D02*
X42423717Y-63408500D01*
X42423717Y-63408500D02*
X42447526Y-63384690D01*
X42447526Y-63384690D02*
X42471336Y-63337071D01*
X42471336Y-63337071D02*
X42495145Y-63241833D01*
X42495145Y-63241833D02*
X42495145Y-63122785D01*
X42495145Y-63122785D02*
X42471336Y-63027547D01*
X42471336Y-63027547D02*
X42447526Y-62979928D01*
X42447526Y-62979928D02*
X42423717Y-62956119D01*
X42423717Y-62956119D02*
X42376098Y-62932309D01*
X42018955Y-63432309D02*
X41638003Y-62932309D01*
X41947527Y-62932309D02*
X41899908Y-62956119D01*
X41899908Y-62956119D02*
X41876098Y-63003738D01*
X41876098Y-63003738D02*
X41899908Y-63051357D01*
X41899908Y-63051357D02*
X41947527Y-63075166D01*
X41947527Y-63075166D02*
X41995146Y-63051357D01*
X41995146Y-63051357D02*
X42018955Y-63003738D01*
X42018955Y-63003738D02*
X41995146Y-62956119D01*
X41995146Y-62956119D02*
X41947527Y-62932309D01*
X41661813Y-63408500D02*
X41638003Y-63360880D01*
X41638003Y-63360880D02*
X41661813Y-63313261D01*
X41661813Y-63313261D02*
X41709432Y-63289452D01*
X41709432Y-63289452D02*
X41757051Y-63313261D01*
X41757051Y-63313261D02*
X41780860Y-63360880D01*
X41780860Y-63360880D02*
X41757051Y-63408500D01*
X41757051Y-63408500D02*
X41709432Y-63432309D01*
X41709432Y-63432309D02*
X41661813Y-63408500D01*
X36170404Y-169842950D02*
X36194214Y-169914378D01*
X36194214Y-169914378D02*
X36218023Y-169938188D01*
X36218023Y-169938188D02*
X36265642Y-169961997D01*
X36265642Y-169961997D02*
X36337071Y-169961997D01*
X36337071Y-169961997D02*
X36384690Y-169938188D01*
X36384690Y-169938188D02*
X36408500Y-169914378D01*
X36408500Y-169914378D02*
X36432309Y-169866759D01*
X36432309Y-169866759D02*
X36432309Y-169676283D01*
X36432309Y-169676283D02*
X35932309Y-169676283D01*
X35932309Y-169676283D02*
X35932309Y-169842950D01*
X35932309Y-169842950D02*
X35956119Y-169890569D01*
X35956119Y-169890569D02*
X35979928Y-169914378D01*
X35979928Y-169914378D02*
X36027547Y-169938188D01*
X36027547Y-169938188D02*
X36075166Y-169938188D01*
X36075166Y-169938188D02*
X36122785Y-169914378D01*
X36122785Y-169914378D02*
X36146595Y-169890569D01*
X36146595Y-169890569D02*
X36170404Y-169842950D01*
X36170404Y-169842950D02*
X36170404Y-169676283D01*
X36289452Y-170152474D02*
X36289452Y-170390569D01*
X36432309Y-170104855D02*
X35932309Y-170271521D01*
X35932309Y-170271521D02*
X36432309Y-170438188D01*
X35932309Y-170533426D02*
X35932309Y-170819140D01*
X36432309Y-170676283D02*
X35932309Y-170676283D01*
X36170404Y-171366758D02*
X36170404Y-171533425D01*
X36432309Y-171604853D02*
X36432309Y-171366758D01*
X36432309Y-171366758D02*
X35932309Y-171366758D01*
X35932309Y-171366758D02*
X35932309Y-171604853D01*
X36432309Y-172104853D02*
X36194214Y-171938187D01*
X36432309Y-171819139D02*
X35932309Y-171819139D01*
X35932309Y-171819139D02*
X35932309Y-172009615D01*
X35932309Y-172009615D02*
X35956119Y-172057234D01*
X35956119Y-172057234D02*
X35979928Y-172081044D01*
X35979928Y-172081044D02*
X36027547Y-172104853D01*
X36027547Y-172104853D02*
X36098976Y-172104853D01*
X36098976Y-172104853D02*
X36146595Y-172081044D01*
X36146595Y-172081044D02*
X36170404Y-172057234D01*
X36170404Y-172057234D02*
X36194214Y-172009615D01*
X36194214Y-172009615D02*
X36194214Y-171819139D01*
X36432309Y-172604853D02*
X36194214Y-172438187D01*
X36432309Y-172319139D02*
X35932309Y-172319139D01*
X35932309Y-172319139D02*
X35932309Y-172509615D01*
X35932309Y-172509615D02*
X35956119Y-172557234D01*
X35956119Y-172557234D02*
X35979928Y-172581044D01*
X35979928Y-172581044D02*
X36027547Y-172604853D01*
X36027547Y-172604853D02*
X36098976Y-172604853D01*
X36098976Y-172604853D02*
X36146595Y-172581044D01*
X36146595Y-172581044D02*
X36170404Y-172557234D01*
X36170404Y-172557234D02*
X36194214Y-172509615D01*
X36194214Y-172509615D02*
X36194214Y-172319139D01*
X35932309Y-172914377D02*
X35932309Y-173009615D01*
X35932309Y-173009615D02*
X35956119Y-173057234D01*
X35956119Y-173057234D02*
X36003738Y-173104853D01*
X36003738Y-173104853D02*
X36098976Y-173128663D01*
X36098976Y-173128663D02*
X36265642Y-173128663D01*
X36265642Y-173128663D02*
X36360880Y-173104853D01*
X36360880Y-173104853D02*
X36408500Y-173057234D01*
X36408500Y-173057234D02*
X36432309Y-173009615D01*
X36432309Y-173009615D02*
X36432309Y-172914377D01*
X36432309Y-172914377D02*
X36408500Y-172866758D01*
X36408500Y-172866758D02*
X36360880Y-172819139D01*
X36360880Y-172819139D02*
X36265642Y-172795330D01*
X36265642Y-172795330D02*
X36098976Y-172795330D01*
X36098976Y-172795330D02*
X36003738Y-172819139D01*
X36003738Y-172819139D02*
X35956119Y-172866758D01*
X35956119Y-172866758D02*
X35932309Y-172914377D01*
X36432309Y-173628663D02*
X36194214Y-173461997D01*
X36432309Y-173342949D02*
X35932309Y-173342949D01*
X35932309Y-173342949D02*
X35932309Y-173533425D01*
X35932309Y-173533425D02*
X35956119Y-173581044D01*
X35956119Y-173581044D02*
X35979928Y-173604854D01*
X35979928Y-173604854D02*
X36027547Y-173628663D01*
X36027547Y-173628663D02*
X36098976Y-173628663D01*
X36098976Y-173628663D02*
X36146595Y-173604854D01*
X36146595Y-173604854D02*
X36170404Y-173581044D01*
X36170404Y-173581044D02*
X36194214Y-173533425D01*
X36194214Y-173533425D02*
X36194214Y-173342949D01*
D11*
X75333333Y-164809819D02*
X75333333Y-165524104D01*
X75333333Y-165524104D02*
X75380952Y-165666961D01*
X75380952Y-165666961D02*
X75476190Y-165762200D01*
X75476190Y-165762200D02*
X75619047Y-165809819D01*
X75619047Y-165809819D02*
X75714285Y-165809819D01*
X74714285Y-165238390D02*
X74809523Y-165190771D01*
X74809523Y-165190771D02*
X74857142Y-165143152D01*
X74857142Y-165143152D02*
X74904761Y-165047914D01*
X74904761Y-165047914D02*
X74904761Y-165000295D01*
X74904761Y-165000295D02*
X74857142Y-164905057D01*
X74857142Y-164905057D02*
X74809523Y-164857438D01*
X74809523Y-164857438D02*
X74714285Y-164809819D01*
X74714285Y-164809819D02*
X74523809Y-164809819D01*
X74523809Y-164809819D02*
X74428571Y-164857438D01*
X74428571Y-164857438D02*
X74380952Y-164905057D01*
X74380952Y-164905057D02*
X74333333Y-165000295D01*
X74333333Y-165000295D02*
X74333333Y-165047914D01*
X74333333Y-165047914D02*
X74380952Y-165143152D01*
X74380952Y-165143152D02*
X74428571Y-165190771D01*
X74428571Y-165190771D02*
X74523809Y-165238390D01*
X74523809Y-165238390D02*
X74714285Y-165238390D01*
X74714285Y-165238390D02*
X74809523Y-165286009D01*
X74809523Y-165286009D02*
X74857142Y-165333628D01*
X74857142Y-165333628D02*
X74904761Y-165428866D01*
X74904761Y-165428866D02*
X74904761Y-165619342D01*
X74904761Y-165619342D02*
X74857142Y-165714580D01*
X74857142Y-165714580D02*
X74809523Y-165762200D01*
X74809523Y-165762200D02*
X74714285Y-165809819D01*
X74714285Y-165809819D02*
X74523809Y-165809819D01*
X74523809Y-165809819D02*
X74428571Y-165762200D01*
X74428571Y-165762200D02*
X74380952Y-165714580D01*
X74380952Y-165714580D02*
X74333333Y-165619342D01*
X74333333Y-165619342D02*
X74333333Y-165428866D01*
X74333333Y-165428866D02*
X74380952Y-165333628D01*
X74380952Y-165333628D02*
X74428571Y-165286009D01*
X74428571Y-165286009D02*
X74523809Y-165238390D01*
X120089819Y-74912095D02*
X120899342Y-74912095D01*
X120899342Y-74912095D02*
X120994580Y-74959714D01*
X120994580Y-74959714D02*
X121042200Y-75007333D01*
X121042200Y-75007333D02*
X121089819Y-75102571D01*
X121089819Y-75102571D02*
X121089819Y-75293047D01*
X121089819Y-75293047D02*
X121042200Y-75388285D01*
X121042200Y-75388285D02*
X120994580Y-75435904D01*
X120994580Y-75435904D02*
X120899342Y-75483523D01*
X120899342Y-75483523D02*
X120089819Y-75483523D01*
X120423152Y-76388285D02*
X121089819Y-76388285D01*
X120042200Y-76150190D02*
X120756485Y-75912095D01*
X120756485Y-75912095D02*
X120756485Y-76531142D01*
X116504104Y-70912094D02*
X116504104Y-71388284D01*
X116789819Y-70816856D02*
X115789819Y-71150189D01*
X115789819Y-71150189D02*
X116789819Y-71483522D01*
X116123152Y-71816856D02*
X116789819Y-71816856D01*
X116218390Y-71816856D02*
X116170771Y-71864475D01*
X116170771Y-71864475D02*
X116123152Y-71959713D01*
X116123152Y-71959713D02*
X116123152Y-72102570D01*
X116123152Y-72102570D02*
X116170771Y-72197808D01*
X116170771Y-72197808D02*
X116266009Y-72245427D01*
X116266009Y-72245427D02*
X116789819Y-72245427D01*
X116123152Y-72578761D02*
X116123152Y-72959713D01*
X115789819Y-72721618D02*
X116646961Y-72721618D01*
X116646961Y-72721618D02*
X116742200Y-72769237D01*
X116742200Y-72769237D02*
X116789819Y-72864475D01*
X116789819Y-72864475D02*
X116789819Y-72959713D01*
X116742200Y-73673999D02*
X116789819Y-73578761D01*
X116789819Y-73578761D02*
X116789819Y-73388285D01*
X116789819Y-73388285D02*
X116742200Y-73293047D01*
X116742200Y-73293047D02*
X116646961Y-73245428D01*
X116646961Y-73245428D02*
X116266009Y-73245428D01*
X116266009Y-73245428D02*
X116170771Y-73293047D01*
X116170771Y-73293047D02*
X116123152Y-73388285D01*
X116123152Y-73388285D02*
X116123152Y-73578761D01*
X116123152Y-73578761D02*
X116170771Y-73673999D01*
X116170771Y-73673999D02*
X116266009Y-73721618D01*
X116266009Y-73721618D02*
X116361247Y-73721618D01*
X116361247Y-73721618D02*
X116456485Y-73245428D01*
X116123152Y-74150190D02*
X116789819Y-74150190D01*
X116218390Y-74150190D02*
X116170771Y-74197809D01*
X116170771Y-74197809D02*
X116123152Y-74293047D01*
X116123152Y-74293047D02*
X116123152Y-74435904D01*
X116123152Y-74435904D02*
X116170771Y-74531142D01*
X116170771Y-74531142D02*
X116266009Y-74578761D01*
X116266009Y-74578761D02*
X116789819Y-74578761D01*
X116123152Y-75054952D02*
X116789819Y-75054952D01*
X116218390Y-75054952D02*
X116170771Y-75102571D01*
X116170771Y-75102571D02*
X116123152Y-75197809D01*
X116123152Y-75197809D02*
X116123152Y-75340666D01*
X116123152Y-75340666D02*
X116170771Y-75435904D01*
X116170771Y-75435904D02*
X116266009Y-75483523D01*
X116266009Y-75483523D02*
X116789819Y-75483523D01*
X116789819Y-76388285D02*
X116266009Y-76388285D01*
X116266009Y-76388285D02*
X116170771Y-76340666D01*
X116170771Y-76340666D02*
X116123152Y-76245428D01*
X116123152Y-76245428D02*
X116123152Y-76054952D01*
X116123152Y-76054952D02*
X116170771Y-75959714D01*
X116742200Y-76388285D02*
X116789819Y-76293047D01*
X116789819Y-76293047D02*
X116789819Y-76054952D01*
X116789819Y-76054952D02*
X116742200Y-75959714D01*
X116742200Y-75959714D02*
X116646961Y-75912095D01*
X116646961Y-75912095D02*
X116551723Y-75912095D01*
X116551723Y-75912095D02*
X116456485Y-75959714D01*
X116456485Y-75959714D02*
X116408866Y-76054952D01*
X116408866Y-76054952D02*
X116408866Y-76293047D01*
X116408866Y-76293047D02*
X116361247Y-76388285D01*
X116504104Y-77578762D02*
X116504104Y-78054952D01*
X116789819Y-77483524D02*
X115789819Y-77816857D01*
X115789819Y-77816857D02*
X116789819Y-78150190D01*
X116789819Y-78483524D02*
X116123152Y-78483524D01*
X116313628Y-78483524D02*
X116218390Y-78531143D01*
X116218390Y-78531143D02*
X116170771Y-78578762D01*
X116170771Y-78578762D02*
X116123152Y-78674000D01*
X116123152Y-78674000D02*
X116123152Y-78769238D01*
X116742200Y-79483524D02*
X116789819Y-79388286D01*
X116789819Y-79388286D02*
X116789819Y-79197810D01*
X116789819Y-79197810D02*
X116742200Y-79102572D01*
X116742200Y-79102572D02*
X116646961Y-79054953D01*
X116646961Y-79054953D02*
X116266009Y-79054953D01*
X116266009Y-79054953D02*
X116170771Y-79102572D01*
X116170771Y-79102572D02*
X116123152Y-79197810D01*
X116123152Y-79197810D02*
X116123152Y-79388286D01*
X116123152Y-79388286D02*
X116170771Y-79483524D01*
X116170771Y-79483524D02*
X116266009Y-79531143D01*
X116266009Y-79531143D02*
X116361247Y-79531143D01*
X116361247Y-79531143D02*
X116456485Y-79054953D01*
X116789819Y-80388286D02*
X116266009Y-80388286D01*
X116266009Y-80388286D02*
X116170771Y-80340667D01*
X116170771Y-80340667D02*
X116123152Y-80245429D01*
X116123152Y-80245429D02*
X116123152Y-80054953D01*
X116123152Y-80054953D02*
X116170771Y-79959715D01*
X116742200Y-80388286D02*
X116789819Y-80293048D01*
X116789819Y-80293048D02*
X116789819Y-80054953D01*
X116789819Y-80054953D02*
X116742200Y-79959715D01*
X116742200Y-79959715D02*
X116646961Y-79912096D01*
X116646961Y-79912096D02*
X116551723Y-79912096D01*
X116551723Y-79912096D02*
X116456485Y-79959715D01*
X116456485Y-79959715D02*
X116408866Y-80054953D01*
X116408866Y-80054953D02*
X116408866Y-80293048D01*
X116408866Y-80293048D02*
X116361247Y-80388286D01*
X82953333Y-61042819D02*
X82953333Y-61757104D01*
X82953333Y-61757104D02*
X83000952Y-61899961D01*
X83000952Y-61899961D02*
X83096190Y-61995200D01*
X83096190Y-61995200D02*
X83239047Y-62042819D01*
X83239047Y-62042819D02*
X83334285Y-62042819D01*
X82524761Y-61138057D02*
X82477142Y-61090438D01*
X82477142Y-61090438D02*
X82381904Y-61042819D01*
X82381904Y-61042819D02*
X82143809Y-61042819D01*
X82143809Y-61042819D02*
X82048571Y-61090438D01*
X82048571Y-61090438D02*
X82000952Y-61138057D01*
X82000952Y-61138057D02*
X81953333Y-61233295D01*
X81953333Y-61233295D02*
X81953333Y-61328533D01*
X81953333Y-61328533D02*
X82000952Y-61471390D01*
X82000952Y-61471390D02*
X82572380Y-62042819D01*
X82572380Y-62042819D02*
X81953333Y-62042819D01*
D12*
X75572419Y-79653884D02*
X74572419Y-79653884D01*
X74572419Y-79653884D02*
X75572419Y-80225312D01*
X75572419Y-80225312D02*
X74572419Y-80225312D01*
X74572419Y-80891979D02*
X74572419Y-81082455D01*
X74572419Y-81082455D02*
X74620038Y-81177693D01*
X74620038Y-81177693D02*
X74715276Y-81272931D01*
X74715276Y-81272931D02*
X74905752Y-81320550D01*
X74905752Y-81320550D02*
X75239085Y-81320550D01*
X75239085Y-81320550D02*
X75429561Y-81272931D01*
X75429561Y-81272931D02*
X75524800Y-81177693D01*
X75524800Y-81177693D02*
X75572419Y-81082455D01*
X75572419Y-81082455D02*
X75572419Y-80891979D01*
X75572419Y-80891979D02*
X75524800Y-80796741D01*
X75524800Y-80796741D02*
X75429561Y-80701503D01*
X75429561Y-80701503D02*
X75239085Y-80653884D01*
X75239085Y-80653884D02*
X74905752Y-80653884D01*
X74905752Y-80653884D02*
X74715276Y-80701503D01*
X74715276Y-80701503D02*
X74620038Y-80796741D01*
X74620038Y-80796741D02*
X74572419Y-80891979D01*
X74572419Y-81606265D02*
X74572419Y-82177693D01*
X75572419Y-81891979D02*
X74572419Y-81891979D01*
X75286704Y-83225313D02*
X75286704Y-83701503D01*
X75572419Y-83130075D02*
X74572419Y-83463408D01*
X74572419Y-83463408D02*
X75572419Y-83796741D01*
X75524800Y-84844361D02*
X75572419Y-84987218D01*
X75572419Y-84987218D02*
X75572419Y-85225313D01*
X75572419Y-85225313D02*
X75524800Y-85320551D01*
X75524800Y-85320551D02*
X75477180Y-85368170D01*
X75477180Y-85368170D02*
X75381942Y-85415789D01*
X75381942Y-85415789D02*
X75286704Y-85415789D01*
X75286704Y-85415789D02*
X75191466Y-85368170D01*
X75191466Y-85368170D02*
X75143847Y-85320551D01*
X75143847Y-85320551D02*
X75096228Y-85225313D01*
X75096228Y-85225313D02*
X75048609Y-85034837D01*
X75048609Y-85034837D02*
X75000990Y-84939599D01*
X75000990Y-84939599D02*
X74953371Y-84891980D01*
X74953371Y-84891980D02*
X74858133Y-84844361D01*
X74858133Y-84844361D02*
X74762895Y-84844361D01*
X74762895Y-84844361D02*
X74667657Y-84891980D01*
X74667657Y-84891980D02*
X74620038Y-84939599D01*
X74620038Y-84939599D02*
X74572419Y-85034837D01*
X74572419Y-85034837D02*
X74572419Y-85272932D01*
X74572419Y-85272932D02*
X74620038Y-85415789D01*
X74572419Y-85701504D02*
X74572419Y-86272932D01*
X75572419Y-85987218D02*
X74572419Y-85987218D01*
X75286704Y-86558647D02*
X75286704Y-87034837D01*
X75572419Y-86463409D02*
X74572419Y-86796742D01*
X74572419Y-86796742D02*
X75572419Y-87130075D01*
X75572419Y-87463409D02*
X74572419Y-87463409D01*
X74572419Y-87463409D02*
X75572419Y-88034837D01*
X75572419Y-88034837D02*
X74572419Y-88034837D01*
X75572419Y-88511028D02*
X74572419Y-88511028D01*
X74572419Y-88511028D02*
X74572419Y-88749123D01*
X74572419Y-88749123D02*
X74620038Y-88891980D01*
X74620038Y-88891980D02*
X74715276Y-88987218D01*
X74715276Y-88987218D02*
X74810514Y-89034837D01*
X74810514Y-89034837D02*
X75000990Y-89082456D01*
X75000990Y-89082456D02*
X75143847Y-89082456D01*
X75143847Y-89082456D02*
X75334323Y-89034837D01*
X75334323Y-89034837D02*
X75429561Y-88987218D01*
X75429561Y-88987218D02*
X75524800Y-88891980D01*
X75524800Y-88891980D02*
X75572419Y-88749123D01*
X75572419Y-88749123D02*
X75572419Y-88511028D01*
X75286704Y-89463409D02*
X75286704Y-89939599D01*
X75572419Y-89368171D02*
X74572419Y-89701504D01*
X74572419Y-89701504D02*
X75572419Y-90034837D01*
X75572419Y-90939599D02*
X75096228Y-90606266D01*
X75572419Y-90368171D02*
X74572419Y-90368171D01*
X74572419Y-90368171D02*
X74572419Y-90749123D01*
X74572419Y-90749123D02*
X74620038Y-90844361D01*
X74620038Y-90844361D02*
X74667657Y-90891980D01*
X74667657Y-90891980D02*
X74762895Y-90939599D01*
X74762895Y-90939599D02*
X74905752Y-90939599D01*
X74905752Y-90939599D02*
X75000990Y-90891980D01*
X75000990Y-90891980D02*
X75048609Y-90844361D01*
X75048609Y-90844361D02*
X75096228Y-90749123D01*
X75096228Y-90749123D02*
X75096228Y-90368171D01*
X75572419Y-91368171D02*
X74572419Y-91368171D01*
X74572419Y-91368171D02*
X74572419Y-91606266D01*
X74572419Y-91606266D02*
X74620038Y-91749123D01*
X74620038Y-91749123D02*
X74715276Y-91844361D01*
X74715276Y-91844361D02*
X74810514Y-91891980D01*
X74810514Y-91891980D02*
X75000990Y-91939599D01*
X75000990Y-91939599D02*
X75143847Y-91939599D01*
X75143847Y-91939599D02*
X75334323Y-91891980D01*
X75334323Y-91891980D02*
X75429561Y-91844361D01*
X75429561Y-91844361D02*
X75524800Y-91749123D01*
X75524800Y-91749123D02*
X75572419Y-91606266D01*
X75572419Y-91606266D02*
X75572419Y-91368171D01*
X75572419Y-93130076D02*
X74572419Y-93130076D01*
X74572419Y-93130076D02*
X75286704Y-93463409D01*
X75286704Y-93463409D02*
X74572419Y-93796742D01*
X74572419Y-93796742D02*
X75572419Y-93796742D01*
X75477180Y-94272933D02*
X75524800Y-94320552D01*
X75524800Y-94320552D02*
X75572419Y-94272933D01*
X75572419Y-94272933D02*
X75524800Y-94225314D01*
X75524800Y-94225314D02*
X75477180Y-94272933D01*
X75477180Y-94272933D02*
X75572419Y-94272933D01*
X74667657Y-94701504D02*
X74620038Y-94749123D01*
X74620038Y-94749123D02*
X74572419Y-94844361D01*
X74572419Y-94844361D02*
X74572419Y-95082456D01*
X74572419Y-95082456D02*
X74620038Y-95177694D01*
X74620038Y-95177694D02*
X74667657Y-95225313D01*
X74667657Y-95225313D02*
X74762895Y-95272932D01*
X74762895Y-95272932D02*
X74858133Y-95272932D01*
X74858133Y-95272932D02*
X75000990Y-95225313D01*
X75000990Y-95225313D02*
X75572419Y-94653885D01*
X75572419Y-94653885D02*
X75572419Y-95272932D01*
X75524800Y-96415790D02*
X75572419Y-96558647D01*
X75572419Y-96558647D02*
X75572419Y-96796742D01*
X75572419Y-96796742D02*
X75524800Y-96891980D01*
X75524800Y-96891980D02*
X75477180Y-96939599D01*
X75477180Y-96939599D02*
X75381942Y-96987218D01*
X75381942Y-96987218D02*
X75286704Y-96987218D01*
X75286704Y-96987218D02*
X75191466Y-96939599D01*
X75191466Y-96939599D02*
X75143847Y-96891980D01*
X75143847Y-96891980D02*
X75096228Y-96796742D01*
X75096228Y-96796742D02*
X75048609Y-96606266D01*
X75048609Y-96606266D02*
X75000990Y-96511028D01*
X75000990Y-96511028D02*
X74953371Y-96463409D01*
X74953371Y-96463409D02*
X74858133Y-96415790D01*
X74858133Y-96415790D02*
X74762895Y-96415790D01*
X74762895Y-96415790D02*
X74667657Y-96463409D01*
X74667657Y-96463409D02*
X74620038Y-96511028D01*
X74620038Y-96511028D02*
X74572419Y-96606266D01*
X74572419Y-96606266D02*
X74572419Y-96844361D01*
X74572419Y-96844361D02*
X74620038Y-96987218D01*
X75572419Y-97891980D02*
X75572419Y-97415790D01*
X75572419Y-97415790D02*
X74572419Y-97415790D01*
X74572419Y-98415790D02*
X74572419Y-98606266D01*
X74572419Y-98606266D02*
X74620038Y-98701504D01*
X74620038Y-98701504D02*
X74715276Y-98796742D01*
X74715276Y-98796742D02*
X74905752Y-98844361D01*
X74905752Y-98844361D02*
X75239085Y-98844361D01*
X75239085Y-98844361D02*
X75429561Y-98796742D01*
X75429561Y-98796742D02*
X75524800Y-98701504D01*
X75524800Y-98701504D02*
X75572419Y-98606266D01*
X75572419Y-98606266D02*
X75572419Y-98415790D01*
X75572419Y-98415790D02*
X75524800Y-98320552D01*
X75524800Y-98320552D02*
X75429561Y-98225314D01*
X75429561Y-98225314D02*
X75239085Y-98177695D01*
X75239085Y-98177695D02*
X74905752Y-98177695D01*
X74905752Y-98177695D02*
X74715276Y-98225314D01*
X74715276Y-98225314D02*
X74620038Y-98320552D01*
X74620038Y-98320552D02*
X74572419Y-98415790D01*
X74572419Y-99130076D02*
X74572419Y-99701504D01*
X75572419Y-99415790D02*
X74572419Y-99415790D01*
X75477180Y-100034838D02*
X75524800Y-100082457D01*
X75524800Y-100082457D02*
X75572419Y-100034838D01*
X75572419Y-100034838D02*
X75524800Y-99987219D01*
X75524800Y-99987219D02*
X75477180Y-100034838D01*
X75477180Y-100034838D02*
X75572419Y-100034838D01*
X75191466Y-100034838D02*
X74620038Y-99987219D01*
X74620038Y-99987219D02*
X74572419Y-100034838D01*
X74572419Y-100034838D02*
X74620038Y-100082457D01*
X74620038Y-100082457D02*
X75191466Y-100034838D01*
X75191466Y-100034838D02*
X74572419Y-100034838D01*
D13*
G04 #@! TO.C,C47*
X78440000Y-164292164D02*
X78440000Y-164507836D01*
X79160000Y-164292164D02*
X79160000Y-164507836D01*
G04 #@! TO.C,C19*
X31390000Y-75440580D02*
X31390000Y-75159420D01*
X32410000Y-75440580D02*
X32410000Y-75159420D01*
G04 #@! TO.C,C17*
X33640580Y-64890000D02*
X33359420Y-64890000D01*
X33640580Y-65910000D02*
X33359420Y-65910000D01*
G04 #@! TO.C,R4*
X56138400Y-108794359D02*
X56138400Y-109101641D01*
X56898400Y-108794359D02*
X56898400Y-109101641D01*
G04 #@! TO.C,D14*
X52410000Y-52350000D02*
X49750000Y-52350000D01*
X52410000Y-52350000D02*
X52410000Y-54050000D01*
X52410000Y-54050000D02*
X49750000Y-54050000D01*
G04 #@! TO.C,U7*
X62988700Y-45039600D02*
X60128700Y-45039600D01*
X62988700Y-48459600D02*
X60128700Y-48459600D01*
X63228700Y-48629600D02*
X63228700Y-48349600D01*
X63508700Y-48349600D01*
X63228700Y-48629600D01*
G36*
X63228700Y-48629600D02*
G01*
X63228700Y-48349600D01*
X63508700Y-48349600D01*
X63228700Y-48629600D01*
G37*
G04 #@! TO.C,R2*
X62930000Y-108496359D02*
X62930000Y-108803641D01*
X63690000Y-108496359D02*
X63690000Y-108803641D01*
G04 #@! TO.C,R37*
X42153641Y-45120000D02*
X41846359Y-45120000D01*
X42153641Y-45880000D02*
X41846359Y-45880000D01*
G04 #@! TO.C,R5*
X66654000Y-75797159D02*
X66654000Y-76104441D01*
X67414000Y-75797159D02*
X67414000Y-76104441D01*
G04 #@! TO.C,J8*
X70300000Y-169100000D02*
X70300000Y-171100000D01*
X70300000Y-173000000D02*
X70300000Y-174900000D01*
X79700000Y-169100000D02*
X79700000Y-171100000D01*
X79700000Y-173000000D02*
X79700000Y-174900000D01*
X79700000Y-174900000D02*
X70300000Y-174900000D01*
G04 #@! TO.C,F1*
X35090000Y-85197936D02*
X35090000Y-86402064D01*
X36910000Y-85197936D02*
X36910000Y-86402064D01*
G04 #@! TO.C,Q1*
X47500000Y-169140000D02*
X46850000Y-169140000D01*
X47500000Y-169140000D02*
X48150000Y-169140000D01*
X47500000Y-172260000D02*
X46850000Y-172260000D01*
X47500000Y-172260000D02*
X48150000Y-172260000D01*
X48662500Y-169190000D02*
X48422500Y-168860000D01*
X48902500Y-168860000D01*
X48662500Y-169190000D01*
G36*
X48662500Y-169190000D02*
G01*
X48422500Y-168860000D01*
X48902500Y-168860000D01*
X48662500Y-169190000D01*
G37*
G04 #@! TO.C,D8*
X83665000Y-162265000D02*
X85135000Y-162265000D01*
X83665000Y-164550000D02*
X83665000Y-162265000D01*
X85135000Y-162265000D02*
X85135000Y-164550000D01*
G04 #@! TO.C,R7*
X91920000Y-47846359D02*
X91920000Y-48153641D01*
X92680000Y-47846359D02*
X92680000Y-48153641D01*
G04 #@! TO.C,Q3*
X102500000Y-169040000D02*
X101850000Y-169040000D01*
X102500000Y-169040000D02*
X103150000Y-169040000D01*
X102500000Y-172160000D02*
X101850000Y-172160000D01*
X102500000Y-172160000D02*
X103150000Y-172160000D01*
X101577500Y-172440000D02*
X101097500Y-172440000D01*
X101337500Y-172110000D01*
X101577500Y-172440000D01*
G36*
X101577500Y-172440000D02*
G01*
X101097500Y-172440000D01*
X101337500Y-172110000D01*
X101577500Y-172440000D01*
G37*
G04 #@! TO.C,D1*
X30190000Y-60550000D02*
X35700000Y-60550000D01*
X30190000Y-63850000D02*
X30190000Y-60550000D01*
X30190000Y-63850000D02*
X35700000Y-63850000D01*
D14*
G04 #@! TO.C,U1*
X72170373Y-118700400D02*
X72382505Y-118488268D01*
X72170373Y-118700400D02*
X72382505Y-118912532D01*
X74998800Y-115871973D02*
X74786668Y-116084105D01*
X74998800Y-115871973D02*
X75210932Y-116084105D01*
X74998800Y-121528827D02*
X74786668Y-121316695D01*
X74998800Y-121528827D02*
X75210932Y-121316695D01*
X77827227Y-118700400D02*
X77615095Y-118488268D01*
X77827227Y-118700400D02*
X77615095Y-118912532D01*
D15*
X78086326Y-119920159D02*
G75*
G02*
X77886326Y-119920159I-100000J0D01*
G01*
X77886326Y-119920159D02*
G75*
G02*
X78086326Y-119920159I100000J0D01*
G01*
D13*
G04 #@! TO.C,R36*
X61953641Y-72520000D02*
X61646359Y-72520000D01*
X61953641Y-73280000D02*
X61646359Y-73280000D01*
G04 #@! TO.C,U2*
X35940000Y-73100000D02*
X35940000Y-71150000D01*
X35940000Y-73100000D02*
X35940000Y-75050000D01*
X41060000Y-73100000D02*
X41060000Y-71150000D01*
X41060000Y-73100000D02*
X41060000Y-75050000D01*
X36035000Y-70400000D02*
X35705000Y-70640000D01*
X35705000Y-70160000D01*
X36035000Y-70400000D01*
G36*
X36035000Y-70400000D02*
G01*
X35705000Y-70640000D01*
X35705000Y-70160000D01*
X36035000Y-70400000D01*
G37*
G04 #@! TO.C,C25*
X34290000Y-79259420D02*
X34290000Y-79540580D01*
X35310000Y-79259420D02*
X35310000Y-79540580D01*
G04 #@! TO.C,R47*
X86045000Y-168107609D02*
X86045000Y-168414891D01*
X86805000Y-168107609D02*
X86805000Y-168414891D01*
G04 #@! TO.C,R23*
X53037258Y-47277500D02*
X52562742Y-47277500D01*
X53037258Y-48322500D02*
X52562742Y-48322500D01*
G04 #@! TO.C,R18*
X91580000Y-75153641D02*
X91580000Y-74846359D01*
X92340000Y-75153641D02*
X92340000Y-74846359D01*
G04 #@! TO.C,Q2*
X59440000Y-75400000D02*
X59440000Y-74750000D01*
X59440000Y-75400000D02*
X59440000Y-76050000D01*
X62560000Y-75400000D02*
X62560000Y-74750000D01*
X62560000Y-75400000D02*
X62560000Y-76050000D01*
X62840000Y-76802500D02*
X62510000Y-76562500D01*
X62840000Y-76322500D01*
X62840000Y-76802500D01*
G36*
X62840000Y-76802500D02*
G01*
X62510000Y-76562500D01*
X62840000Y-76322500D01*
X62840000Y-76802500D01*
G37*
D14*
G04 #@! TO.C,U9*
X87907500Y-166740000D02*
X94707500Y-166740000D01*
X94707500Y-161860000D02*
X87907500Y-161860000D01*
D15*
X85157500Y-165550000D02*
G75*
G02*
X84957500Y-165550000I-100000J0D01*
G01*
X84957500Y-165550000D02*
G75*
G02*
X85157500Y-165550000I100000J0D01*
G01*
D13*
G04 #@! TO.C,R17*
X41620000Y-79646359D02*
X41620000Y-79953641D01*
X42380000Y-79646359D02*
X42380000Y-79953641D01*
G04 #@! TO.C,C15*
X61825000Y-92442164D02*
X61825000Y-92657836D01*
X62545000Y-92442164D02*
X62545000Y-92657836D01*
G04 #@! TO.C,C46*
X53692164Y-52840000D02*
X53907836Y-52840000D01*
X53692164Y-53560000D02*
X53907836Y-53560000D01*
G04 #@! TO.C,R33*
X93130000Y-97666359D02*
X93130000Y-97973641D01*
X93890000Y-97666359D02*
X93890000Y-97973641D01*
D14*
G04 #@! TO.C,BT1*
X31675000Y-91475000D02*
X31675000Y-168525000D01*
X31675000Y-168525000D02*
X38450000Y-168525000D01*
X37500000Y-87750000D02*
X37500000Y-86750000D01*
X38000000Y-87250000D02*
X37000000Y-87250000D01*
X38000000Y-173250000D02*
X38000000Y-172250000D01*
X38450000Y-91475000D02*
X31675000Y-91475000D01*
X45550000Y-168525000D02*
X52325000Y-168525000D01*
X52325000Y-91475000D02*
X45550000Y-91475000D01*
X52325000Y-168525000D02*
X52325000Y-91475000D01*
D13*
G04 #@! TO.C,C32*
X57690000Y-83659420D02*
X57690000Y-83940580D01*
X58710000Y-83659420D02*
X58710000Y-83940580D01*
G04 #@! TO.C,R42*
X86340558Y-52613084D02*
X86340558Y-52305802D01*
X87100558Y-52613084D02*
X87100558Y-52305802D01*
G04 #@! TO.C,F2*
X46090000Y-87897936D02*
X46090000Y-89102064D01*
X47910000Y-87897936D02*
X47910000Y-89102064D01*
G04 #@! TO.C,R13*
X53840000Y-95527064D02*
X53840000Y-92472936D01*
X56560000Y-95527064D02*
X56560000Y-92472936D01*
G04 #@! TO.C,C26*
X31990000Y-82284420D02*
X31990000Y-82565580D01*
X33010000Y-82284420D02*
X33010000Y-82565580D01*
G04 #@! TO.C,C48*
X70092164Y-164240000D02*
X70307836Y-164240000D01*
X70092164Y-164960000D02*
X70307836Y-164960000D01*
G04 #@! TO.C,C6*
X111877003Y-86726449D02*
X111877003Y-86942121D01*
X112597003Y-86726449D02*
X112597003Y-86942121D01*
G04 #@! TO.C,R3*
X33420000Y-48553641D02*
X33420000Y-48246359D01*
X34180000Y-48553641D02*
X34180000Y-48246359D01*
G04 #@! TO.C,D7*
X64865000Y-166485000D02*
X64865000Y-164200000D01*
X66335000Y-164200000D02*
X66335000Y-166485000D01*
X66335000Y-166485000D02*
X64865000Y-166485000D01*
G04 #@! TO.C,C1*
X79779537Y-115750171D02*
X79995209Y-115750171D01*
X79779537Y-116470171D02*
X79995209Y-116470171D01*
G04 #@! TO.C,C21*
X42659420Y-81390000D02*
X42940580Y-81390000D01*
X42659420Y-82410000D02*
X42940580Y-82410000D01*
G04 #@! TO.C,D13*
X62500000Y-103920000D02*
X62500000Y-101260000D01*
X64200000Y-103920000D02*
X62500000Y-103920000D01*
X64200000Y-103920000D02*
X64200000Y-101260000D01*
D14*
G04 #@! TO.C,U10*
X55300000Y-166740000D02*
X62100000Y-166740000D01*
X62100000Y-161860000D02*
X55300000Y-161860000D01*
D15*
X65050000Y-163050000D02*
G75*
G02*
X64850000Y-163050000I-100000J0D01*
G01*
X64850000Y-163050000D02*
G75*
G02*
X65050000Y-163050000I100000J0D01*
G01*
D13*
G04 #@! TO.C,L1*
X36215000Y-77740000D02*
X36215000Y-78590000D01*
X36215000Y-77740000D02*
X40585000Y-77740000D01*
X36215000Y-82460000D02*
X36215000Y-81610000D01*
X36215000Y-82460000D02*
X40585000Y-82460000D01*
X40585000Y-77740000D02*
X40585000Y-78590000D01*
X40585000Y-82460000D02*
X40585000Y-81610000D01*
G04 #@! TO.C,D3*
X38315000Y-64065000D02*
X40600000Y-64065000D01*
X38315000Y-65535000D02*
X38315000Y-64065000D01*
X40600000Y-65535000D02*
X38315000Y-65535000D01*
G04 #@! TO.C,R1*
X34420000Y-48246359D02*
X34420000Y-48553641D01*
X35180000Y-48246359D02*
X35180000Y-48553641D01*
G04 #@! TO.C,R24*
X107655000Y-65078641D02*
X107655000Y-64771359D01*
X108415000Y-65078641D02*
X108415000Y-64771359D01*
G04 #@! TO.C,R22*
X97222742Y-87677500D02*
X97697258Y-87677500D01*
X97222742Y-88722500D02*
X97697258Y-88722500D01*
G04 #@! TO.C,U6*
X89240000Y-97000000D02*
X89240000Y-97475000D01*
X89240000Y-100220000D02*
X89240000Y-99745000D01*
X89715000Y-97000000D02*
X89240000Y-97000000D01*
X89715000Y-100220000D02*
X89240000Y-100220000D01*
X91985000Y-97000000D02*
X92160000Y-97000000D01*
X91985000Y-100220000D02*
X92460000Y-100220000D01*
X92460000Y-97475000D02*
X92460000Y-97240000D01*
X92460000Y-100220000D02*
X92460000Y-99745000D01*
X92460000Y-97000000D02*
X92220000Y-96670000D01*
X92700000Y-96670000D01*
X92460000Y-97000000D01*
G36*
X92460000Y-97000000D02*
G01*
X92220000Y-96670000D01*
X92700000Y-96670000D01*
X92460000Y-97000000D01*
G37*
D14*
G04 #@! TO.C,U8*
X58888348Y-91001665D02*
X58888348Y-91556665D01*
X58888348Y-91001665D02*
X58943348Y-91001665D01*
X58888348Y-93446665D02*
X58888348Y-94001665D01*
X58888348Y-94001665D02*
X58943348Y-94001665D01*
X61333348Y-91001665D02*
X61388348Y-91001665D01*
X61333348Y-94001665D02*
X61388348Y-94001665D01*
X61388348Y-91001665D02*
X61388348Y-91556665D01*
X61388348Y-93446665D02*
X61388348Y-94001665D01*
D11*
X59313348Y-90501665D02*
G75*
G02*
X59163348Y-90501665I-75000J0D01*
G01*
X59163348Y-90501665D02*
G75*
G02*
X59313348Y-90501665I75000J0D01*
G01*
G04 #@! TO.C,U5*
X94980000Y-44874000D02*
X94980000Y-45624000D01*
X94980000Y-62374000D02*
X94980000Y-61624000D01*
X111480000Y-44874000D02*
X94980000Y-44874000D01*
X111480000Y-45624000D02*
X111480000Y-44874000D01*
X111480000Y-61624000D02*
X111480000Y-62374000D01*
X111480000Y-62374000D02*
X94980000Y-62374000D01*
D13*
X112280000Y-45624000D02*
X111780000Y-45624000D01*
X111780000Y-45124000D01*
X112280000Y-45624000D01*
G36*
X112280000Y-45624000D02*
G01*
X111780000Y-45624000D01*
X111780000Y-45124000D01*
X112280000Y-45624000D01*
G37*
G04 #@! TO.C,R11*
X72980000Y-163553641D02*
X72980000Y-163246359D01*
X73740000Y-163553641D02*
X73740000Y-163246359D01*
G04 #@! TO.C,D2*
X39000000Y-62365000D02*
X41285000Y-62365000D01*
X41285000Y-62365000D02*
X41285000Y-63835000D01*
X41285000Y-63835000D02*
X39000000Y-63835000D01*
G04 #@! TO.C,C49*
X63692164Y-167240000D02*
X63907836Y-167240000D01*
X63692164Y-167960000D02*
X63907836Y-167960000D01*
G04 #@! TO.C,C12*
X57692164Y-74640000D02*
X57907836Y-74640000D01*
X57692164Y-75360000D02*
X57907836Y-75360000D01*
D12*
G04 #@! TO.C,J7*
X76200000Y-39670000D02*
X76200000Y-32050000D01*
X101600000Y-39670000D02*
X101600000Y-32050000D01*
D14*
G04 #@! TO.C,PWR_BUTTON1*
X119105000Y-58750000D02*
X119760000Y-58750000D01*
X119760000Y-53950000D02*
X119105000Y-53950000D01*
D15*
X116310000Y-55105000D02*
G75*
G02*
X116110000Y-55105000I-100000J0D01*
G01*
X116110000Y-55105000D02*
G75*
G02*
X116310000Y-55105000I100000J0D01*
G01*
D13*
G04 #@! TO.C,U4*
X93835000Y-66674000D02*
X93835000Y-67674000D01*
X93835000Y-84674000D02*
X93835000Y-83674000D01*
X94585000Y-66674000D02*
X93835000Y-66674000D01*
X94585000Y-84674000D02*
X93835000Y-84674000D01*
X113335000Y-66674000D02*
X113335000Y-84674000D01*
X119335000Y-66674000D02*
X112585000Y-66674000D01*
X119335000Y-84674000D02*
X112585000Y-84674000D01*
X119335000Y-84674000D02*
X119335000Y-66674000D01*
G04 #@! TO.C,J1*
X30100000Y-59700000D02*
X30100000Y-50300000D01*
X32000000Y-50300000D02*
X30100000Y-50300000D01*
X32000000Y-59700000D02*
X30100000Y-59700000D01*
X35900000Y-50300000D02*
X33900000Y-50300000D01*
X35900000Y-59700000D02*
X33900000Y-59700000D01*
G04 #@! TO.C,C45*
X67740800Y-164646564D02*
X67740800Y-164862236D01*
X68460800Y-164646564D02*
X68460800Y-164862236D01*
G04 #@! TO.C,C8*
X113939420Y-51390000D02*
X114220580Y-51390000D01*
X113939420Y-52410000D02*
X114220580Y-52410000D01*
G04 #@! TO.C,R29*
X99390000Y-63903641D02*
X99390000Y-63596359D01*
X100150000Y-63903641D02*
X100150000Y-63596359D01*
G04 #@! TO.C,R40*
X83610000Y-52613641D02*
X83610000Y-52306359D01*
X84370000Y-52613641D02*
X84370000Y-52306359D01*
G04 #@! TO.C,R30*
X102795959Y-63051200D02*
X103103241Y-63051200D01*
X102795959Y-63811200D02*
X103103241Y-63811200D01*
G04 #@! TO.C,C3*
X35640580Y-67900000D02*
X35359420Y-67900000D01*
X35640580Y-68920000D02*
X35359420Y-68920000D01*
G04 #@! TO.C,C23*
X35765000Y-40288748D02*
X35765000Y-40811252D01*
X37235000Y-40288748D02*
X37235000Y-40811252D01*
G04 #@! TO.C,U15*
X59950000Y-105600000D02*
X59150000Y-105600000D01*
X59950000Y-105600000D02*
X60750000Y-105600000D01*
X60950000Y-108820000D02*
X59150000Y-108820000D01*
X61250000Y-105650000D02*
X61010000Y-105320000D01*
X61490000Y-105320000D01*
X61250000Y-105650000D01*
G36*
X61250000Y-105650000D02*
G01*
X61010000Y-105320000D01*
X61490000Y-105320000D01*
X61250000Y-105650000D01*
G37*
G04 #@! TO.C,C9*
X88800580Y-100985000D02*
X88519420Y-100985000D01*
X88800580Y-102005000D02*
X88519420Y-102005000D01*
G04 #@! TO.C,R15*
X42146359Y-75920000D02*
X42453641Y-75920000D01*
X42146359Y-76680000D02*
X42453641Y-76680000D01*
G04 #@! TO.C,C10*
X90275000Y-101567164D02*
X90275000Y-101782836D01*
X90995000Y-101567164D02*
X90995000Y-101782836D01*
G04 #@! TO.C,R12*
X76480000Y-163543641D02*
X76480000Y-163236359D01*
X77240000Y-163543641D02*
X77240000Y-163236359D01*
G04 #@! TO.C,LS1*
X92250000Y-104515000D02*
X93300000Y-104515000D01*
X92250000Y-107015000D02*
X92250000Y-104515000D01*
X95300000Y-108985000D02*
X93420000Y-108985000D01*
X95420000Y-104515000D02*
X95420000Y-103525000D01*
X96470000Y-104515000D02*
X95420000Y-104515000D01*
X96470000Y-107015000D02*
X96470000Y-104515000D01*
G04 #@! TO.C,R31*
X102823600Y-65058041D02*
X102823600Y-64750759D01*
X103583600Y-65058041D02*
X103583600Y-64750759D01*
G04 #@! TO.C,C14*
X63556200Y-47516764D02*
X63556200Y-47732436D01*
X64276200Y-47516764D02*
X64276200Y-47732436D01*
G04 #@! TO.C,D6*
X40540000Y-44100000D02*
X40540000Y-42900000D01*
X42500000Y-42900000D02*
X40540000Y-42900000D01*
X42500000Y-44100000D02*
X40540000Y-44100000D01*
G04 #@! TO.C,R41*
X85348400Y-52612041D02*
X85348400Y-52304759D01*
X86108400Y-52612041D02*
X86108400Y-52304759D01*
G04 #@! TO.C,C4*
X91667836Y-76090000D02*
X91452164Y-76090000D01*
X91667836Y-76810000D02*
X91452164Y-76810000D01*
G04 #@! TO.C,U11*
X59960000Y-68270000D02*
X59960000Y-68480000D01*
X60150000Y-66700000D02*
X60150000Y-67150000D01*
X61770000Y-66700000D02*
X61770000Y-67150000D01*
X61770000Y-68720000D02*
X61770000Y-68270000D01*
X60200000Y-69050000D02*
X59720000Y-69050000D01*
X59960000Y-68720000D01*
X60200000Y-69050000D01*
G36*
X60200000Y-69050000D02*
G01*
X59720000Y-69050000D01*
X59960000Y-68720000D01*
X60200000Y-69050000D01*
G37*
D14*
G04 #@! TO.C,BT2*
X97675000Y-91475000D02*
X97675000Y-168525000D01*
X97675000Y-168525000D02*
X104450000Y-168525000D01*
X103500000Y-87750000D02*
X103500000Y-86750000D01*
X104000000Y-87250000D02*
X103000000Y-87250000D01*
X104000000Y-173250000D02*
X104000000Y-172250000D01*
X104450000Y-91475000D02*
X97675000Y-91475000D01*
X111550000Y-168525000D02*
X118325000Y-168525000D01*
X118325000Y-91475000D02*
X111550000Y-91475000D01*
X118325000Y-168525000D02*
X118325000Y-91475000D01*
D13*
G04 #@! TO.C,D5*
X38315000Y-67465000D02*
X40600000Y-67465000D01*
X38315000Y-68935000D02*
X38315000Y-67465000D01*
X40600000Y-68935000D02*
X38315000Y-68935000D01*
G04 #@! TO.C,R44*
X97222742Y-89177500D02*
X97697258Y-89177500D01*
X97222742Y-90222500D02*
X97697258Y-90222500D01*
G04 #@! TO.C,C16*
X61302164Y-94415000D02*
X61517836Y-94415000D01*
X61302164Y-95135000D02*
X61517836Y-95135000D01*
D12*
G04 #@! TO.C,J3*
X48260000Y-39670000D02*
X48260000Y-32050000D01*
X68580000Y-39670000D02*
X68580000Y-32050000D01*
D13*
G04 #@! TO.C,C30*
X46590000Y-57540580D02*
X46590000Y-57259420D01*
X47610000Y-57540580D02*
X47610000Y-57259420D01*
G04 #@! TO.C,R45*
X53037258Y-48977500D02*
X52562742Y-48977500D01*
X53037258Y-50022500D02*
X52562742Y-50022500D01*
G04 #@! TO.C,C44*
X62965600Y-106604964D02*
X62965600Y-106820636D01*
X63685600Y-106604964D02*
X63685600Y-106820636D01*
G04 #@! TO.C,R9*
X62553641Y-69620000D02*
X62246359Y-69620000D01*
X62553641Y-70380000D02*
X62246359Y-70380000D01*
G04 #@! TO.C,R26*
X95980000Y-65083641D02*
X95980000Y-64776359D01*
X96740000Y-65083641D02*
X96740000Y-64776359D01*
G04 #@! TO.C,R32*
X93130000Y-100023641D02*
X93130000Y-99716359D01*
X93890000Y-100023641D02*
X93890000Y-99716359D01*
G04 #@! TO.C,R10*
X62246359Y-70620000D02*
X62553641Y-70620000D01*
X62246359Y-71380000D02*
X62553641Y-71380000D01*
G04 #@! TO.C,R48*
X112320000Y-171953641D02*
X112320000Y-171646359D01*
X113080000Y-171953641D02*
X113080000Y-171646359D01*
G04 #@! TO.C,U16*
X52790000Y-56700000D02*
X52790000Y-55900000D01*
X52790000Y-56700000D02*
X52790000Y-57500000D01*
X56010000Y-55700000D02*
X56010000Y-57500000D01*
X52840000Y-55400000D02*
X52510000Y-55640000D01*
X52510000Y-55160000D01*
X52840000Y-55400000D01*
G36*
X52840000Y-55400000D02*
G01*
X52510000Y-55640000D01*
X52510000Y-55160000D01*
X52840000Y-55400000D01*
G37*
G04 #@! TO.C,R34*
X56420000Y-57753641D02*
X56420000Y-57446359D01*
X57180000Y-57753641D02*
X57180000Y-57446359D01*
G04 #@! TO.C,J9*
X51250000Y-61130000D02*
X50570000Y-61130000D01*
X51250000Y-80870000D02*
X50570000Y-80870000D01*
X54650000Y-63400000D02*
X54650000Y-61100000D01*
X54650000Y-78600000D02*
X54650000Y-80900000D01*
X54650000Y-78600000D02*
X55950000Y-78600000D01*
G04 #@! TO.C,C2*
X35640580Y-66390000D02*
X35359420Y-66390000D01*
X35640580Y-67410000D02*
X35359420Y-67410000D01*
G04 #@! TO.C,C24*
X32790000Y-79259420D02*
X32790000Y-79540580D01*
X33810000Y-79259420D02*
X33810000Y-79540580D01*
G04 #@! TO.C,C50*
X63692164Y-171640000D02*
X63907836Y-171640000D01*
X63692164Y-172360000D02*
X63907836Y-172360000D01*
G04 #@! TO.C,R19*
X90318959Y-75053000D02*
X90626241Y-75053000D01*
X90318959Y-75813000D02*
X90626241Y-75813000D01*
G04 #@! TO.C,R49*
X42153641Y-46220000D02*
X41846359Y-46220000D01*
X42153641Y-46980000D02*
X41846359Y-46980000D01*
G04 #@! TO.C,C5*
X101044420Y-87765000D02*
X101325580Y-87765000D01*
X101044420Y-88785000D02*
X101325580Y-88785000D01*
G04 #@! TO.C,R21*
X95993641Y-63000000D02*
X95686359Y-63000000D01*
X95993641Y-63760000D02*
X95686359Y-63760000D01*
G04 #@! TO.C,R25*
X106380000Y-65078641D02*
X106380000Y-64771359D01*
X107140000Y-65078641D02*
X107140000Y-64771359D01*
G04 #@! TO.C,R16*
X51477500Y-45162742D02*
X51477500Y-45637258D01*
X52522500Y-45162742D02*
X52522500Y-45637258D01*
D14*
G04 #@! TO.C,M1*
X38500000Y-34950000D02*
X38500000Y-40500000D01*
X39200000Y-31200000D02*
X39200000Y-34400000D01*
X41100000Y-41700000D02*
X39900000Y-41700000D01*
X41800000Y-31200000D02*
X39200000Y-31200000D01*
X41800000Y-34400000D02*
X41800000Y-31200000D01*
X42500000Y-40500000D02*
X42500000Y-34950000D01*
D12*
X42000000Y-42400000D02*
G75*
G02*
X41900000Y-42400000I-50000J0D01*
G01*
X41900000Y-42400000D02*
G75*
G02*
X42000000Y-42400000I50000J0D01*
G01*
D13*
G04 #@! TO.C,C11*
X57692164Y-73640000D02*
X57907836Y-73640000D01*
X57692164Y-74360000D02*
X57907836Y-74360000D01*
G04 #@! TO.C,R14*
X36153641Y-65220000D02*
X35846359Y-65220000D01*
X36153641Y-65980000D02*
X35846359Y-65980000D01*
G04 #@! TO.C,R38*
X65120000Y-162053641D02*
X65120000Y-161746359D01*
X65880000Y-162053641D02*
X65880000Y-161746359D01*
G04 #@! TO.C,C18*
X32890000Y-75440580D02*
X32890000Y-75159420D01*
X33910000Y-75440580D02*
X33910000Y-75159420D01*
D14*
G04 #@! TO.C,J6*
X68792994Y-46629506D02*
X68792994Y-50679506D01*
X68792994Y-46629506D02*
X72342994Y-46629506D01*
X68792994Y-50679506D02*
X72342994Y-50679506D01*
X91192994Y-46629506D02*
X87642994Y-46629506D01*
X91192994Y-46629506D02*
X91192994Y-50679506D01*
X91192994Y-50679506D02*
X87642994Y-50679506D01*
D15*
X73134413Y-45079506D02*
G75*
G02*
X72851575Y-45079506I-141419J0D01*
G01*
X72851575Y-45079506D02*
G75*
G02*
X73134413Y-45079506I141419J0D01*
G01*
D13*
G04 #@! TO.C,L3*
X57950000Y-105120000D02*
X61950000Y-105120000D01*
X61950000Y-100900000D02*
X57950000Y-100900000D01*
G04 #@! TO.C,Q4*
X38437500Y-42990000D02*
X37787500Y-42990000D01*
X38437500Y-42990000D02*
X39087500Y-42990000D01*
X38437500Y-46110000D02*
X37787500Y-46110000D01*
X38437500Y-46110000D02*
X39087500Y-46110000D01*
X37515000Y-46390000D02*
X37035000Y-46390000D01*
X37275000Y-46060000D01*
X37515000Y-46390000D01*
G36*
X37515000Y-46390000D02*
G01*
X37035000Y-46390000D01*
X37275000Y-46060000D01*
X37515000Y-46390000D01*
G37*
G04 #@! TO.C,R39*
X82610000Y-52613641D02*
X82610000Y-52306359D01*
X83370000Y-52613641D02*
X83370000Y-52306359D01*
G04 #@! TO.C,C20*
X34390000Y-75440580D02*
X34390000Y-75159420D01*
X35410000Y-75440580D02*
X35410000Y-75159420D01*
G04 #@! TO.C,C22*
X43090000Y-79459420D02*
X43090000Y-79740580D01*
X44110000Y-79459420D02*
X44110000Y-79740580D01*
G04 #@! TO.C,R43*
X37020000Y-171953641D02*
X37020000Y-171646359D01*
X37780000Y-171953641D02*
X37780000Y-171646359D01*
G04 #@! TO.C,C13*
X59056200Y-47582436D02*
X59056200Y-47366764D01*
X59776200Y-47582436D02*
X59776200Y-47366764D01*
G04 #@! TO.C,R27*
X97250000Y-65083641D02*
X97250000Y-64776359D01*
X98010000Y-65083641D02*
X98010000Y-64776359D01*
G04 #@! TO.C,R28*
X98390000Y-63903641D02*
X98390000Y-63596359D01*
X99150000Y-63903641D02*
X99150000Y-63596359D01*
G04 #@! TO.C,D4*
X39000000Y-65765000D02*
X41285000Y-65765000D01*
X41285000Y-65765000D02*
X41285000Y-67235000D01*
X41285000Y-67235000D02*
X39000000Y-67235000D01*
G04 #@! TO.C,R35*
X56420000Y-55546359D02*
X56420000Y-55853641D01*
X57180000Y-55546359D02*
X57180000Y-55853641D01*
G04 #@! TO.C,R50*
X66320000Y-162053641D02*
X66320000Y-161746359D01*
X67080000Y-162053641D02*
X67080000Y-161746359D01*
G04 #@! TO.C,R46*
X84055000Y-168107609D02*
X84055000Y-168414891D01*
X84815000Y-168107609D02*
X84815000Y-168414891D01*
G04 #@! TO.C,R6*
X65638000Y-74608441D02*
X65638000Y-74301159D01*
X66398000Y-74608441D02*
X66398000Y-74301159D01*
G04 #@! TO.C,R8*
X92920000Y-47846359D02*
X92920000Y-48153641D01*
X93680000Y-47846359D02*
X93680000Y-48153641D01*
D14*
G04 #@! TO.C,J2*
X64000000Y-66403000D02*
X64000000Y-68063000D01*
X64000000Y-71558000D02*
X64000000Y-70353000D01*
X64000000Y-71558000D02*
X65530000Y-71558000D01*
D16*
X64000000Y-108958000D02*
X64000000Y-71658000D01*
D14*
X69536500Y-71558000D02*
X67973500Y-71558000D01*
X69786500Y-64258000D02*
X68223500Y-64258000D01*
X84470000Y-71558000D02*
X86000000Y-71558000D01*
D16*
X85500000Y-109458000D02*
X64500000Y-109458000D01*
D14*
X86000000Y-71558000D02*
X86000000Y-66403000D01*
D16*
X86000000Y-71658000D02*
X86000000Y-108958000D01*
X64500000Y-109458000D02*
G75*
G02*
X64000000Y-108958000I0J500000D01*
G01*
X86000000Y-108958000D02*
G75*
G02*
X85500000Y-109458000I-499998J-2D01*
G01*
D15*
X84350000Y-62412000D02*
G75*
G02*
X84150000Y-62412000I-100000J0D01*
G01*
X84150000Y-62412000D02*
G75*
G02*
X84350000Y-62412000I100000J0D01*
G01*
D13*
G04 #@! TO.C,C29*
X55998580Y-105034400D02*
X55717420Y-105034400D01*
X55998580Y-106054400D02*
X55717420Y-106054400D01*
G04 #@! TO.C,C51*
X59040000Y-70507836D02*
X59040000Y-70292164D01*
X59760000Y-70507836D02*
X59760000Y-70292164D01*
G04 #@! TO.C,C52*
X56840000Y-70507836D02*
X56840000Y-70292164D01*
X57560000Y-70507836D02*
X57560000Y-70292164D01*
G04 #@! TO.C,L4*
X48090000Y-54600000D02*
X48090000Y-58600000D01*
X52310000Y-58600000D02*
X52310000Y-54600000D01*
G04 #@! TO.C,R20*
X100030000Y-86593641D02*
X100030000Y-86286359D01*
X100790000Y-86593641D02*
X100790000Y-86286359D01*
G04 #@! TO.C,U12*
X67000000Y-168240000D02*
X66200000Y-168240000D01*
X67000000Y-168240000D02*
X67800000Y-168240000D01*
X67000000Y-171360000D02*
X66200000Y-171360000D01*
X67000000Y-171360000D02*
X67800000Y-171360000D01*
X68300000Y-168290000D02*
X68060000Y-167960000D01*
X68540000Y-167960000D01*
X68300000Y-168290000D01*
G36*
X68300000Y-168290000D02*
G01*
X68060000Y-167960000D01*
X68540000Y-167960000D01*
X68300000Y-168290000D01*
G37*
G04 #@! TO.C,C7*
X113402164Y-50270000D02*
X113617836Y-50270000D01*
X113402164Y-50990000D02*
X113617836Y-50990000D01*
G04 #@! TO.C,U3*
X51050000Y-82490000D02*
X54810000Y-82490000D01*
X51050000Y-89310000D02*
X54810000Y-89310000D01*
X54810000Y-82490000D02*
X54810000Y-83750000D01*
X54810000Y-89310000D02*
X54810000Y-88050000D01*
X50010000Y-89540000D02*
X49530000Y-89540000D01*
X49770000Y-89210000D01*
X50010000Y-89540000D01*
G36*
X50010000Y-89540000D02*
G01*
X49530000Y-89540000D01*
X49770000Y-89210000D01*
X50010000Y-89540000D01*
G37*
G04 #@! TO.C,C31*
X47090000Y-83659420D02*
X47090000Y-83940580D01*
X48110000Y-83659420D02*
X48110000Y-83940580D01*
G04 #@! TD*
M02*
