M48
; DRILL file {KiCad 9.0.2} date 2025-06-03T18:15:43+0200
; FORMAT={-:-/ absolute / metric / decimal}
; #@! TF.CreationDate,2025-06-03T18:15:43+02:00
; #@! TF.GenerationSoftware,Kicad,Pcbnew,9.0.2
; #@! TF.FileFunction,Plated,1,4,PTH
FMAT,2
METRIC
; #@! TA.AperFunction,Plated,PTH,ViaDrill
T1C0.200
; #@! TA.AperFunction,Plated,PTH,ComponentDrill
T2C0.200
; #@! TA.AperFunction,Plated,PTH,ViaDrill
T3C0.300
; #@! TA.AperFunction,Plated,PTH,ComponentDrill
T4C0.500
; #@! TA.AperFunction,Plated,PTH,ComponentDrill
T5C0.600
; #@! TA.AperFunction,Plated,PTH,ComponentDrill
T6C1.600
; #@! TA.AperFunction,Plated,PTH,ComponentDrill
T7C3.750
%
G90
G05
T1
X30.5Y-32.5
X30.5Y-34.5
X30.5Y-36.5
X30.5Y-38.5
X30.5Y-40.5
X30.5Y-42.5
X30.5Y-44.5
X30.5Y-46.5
X30.5Y-48.5
X30.5Y-50.5
X30.5Y-52.5
X30.5Y-54.5
X30.5Y-56.5
X30.5Y-58.5
X30.5Y-60.5
X30.5Y-64.5
X30.5Y-66.5
X30.5Y-68.5
X30.5Y-70.5
X30.5Y-78.5
X30.5Y-80.5
X30.5Y-82.5
X30.5Y-84.5
X30.5Y-86.5
X30.5Y-88.5
X30.5Y-90.5
X30.5Y-92.5
X30.5Y-94.5
X30.5Y-96.5
X30.5Y-98.5
X30.5Y-100.5
X30.5Y-102.5
X30.5Y-104.5
X30.5Y-106.5
X30.5Y-108.5
X30.5Y-110.5
X30.5Y-112.5
X30.5Y-114.5
X30.5Y-116.5
X30.5Y-118.5
X30.5Y-120.5
X30.5Y-122.5
X30.5Y-124.5
X30.5Y-126.5
X30.5Y-128.5
X30.5Y-130.5
X30.5Y-132.5
X30.5Y-134.5
X30.5Y-136.5
X30.5Y-138.5
X30.5Y-140.5
X30.5Y-142.5
X30.5Y-144.5
X30.5Y-146.5
X30.5Y-148.5
X30.5Y-150.5
X30.5Y-152.5
X30.5Y-154.5
X30.5Y-156.5
X30.5Y-158.5
X30.5Y-160.5
X30.5Y-162.5
X30.5Y-164.5
X30.5Y-166.5
X30.5Y-168.5
X30.5Y-170.5
X32.5Y-174.5
X33.5Y-30.5
X34.5Y-174.5
X35.5Y-30.5
X36.5Y-174.5
X37.5Y-30.5
X38.5Y-174.5
X39.5Y-30.5
X40.5Y-174.5
X41.5Y-30.5
X42.5Y-174.5
X43.5Y-30.5
X44.5Y-174.5
X45.225Y-62.5
X45.225Y-64.5
X45.225Y-66.5
X45.225Y-68.5
X45.225Y-70.5
X45.225Y-74.5
X45.225Y-76.5
X45.225Y-78.5
X45.5Y-30.5
X46.5Y-174.5
X47.5Y-30.5
X48.5Y-174.5
X49.5Y-30.5
X49.5Y-63.5
X49.5Y-65.5
X49.5Y-67.5
X49.5Y-69.5
X49.5Y-71.5
X49.5Y-73.5
X49.5Y-75.5
X49.5Y-77.5
X49.5Y-79.5
X50.5Y-174.5
X51.5Y-30.5
X52.5Y-174.5
X53.5Y-30.5
X54.5Y-174.5
X55.5Y-30.5
X56.5Y-174.5
X57.5Y-30.5
X58.5Y-174.5
X59.5Y-30.5
X60.5Y-174.5
X61.5Y-30.5
X62.5Y-174.5
X63.5Y-30.5
X64.5Y-174.5
X65.5Y-30.5
X66.5Y-174.5
X67.5Y-30.5
X68.5Y-174.5
X69.5Y-30.5
X70.5Y-174.5
X71.5Y-30.5
X72.5Y-174.5
X73.5Y-30.5
X74.5Y-174.5
X75.5Y-30.5
X76.5Y-174.5
X77.5Y-30.5
X78.5Y-174.5
X79.5Y-30.5
X80.5Y-174.5
X81.5Y-30.5
X82.5Y-174.5
X83.5Y-30.5
X84.5Y-174.5
X85.5Y-30.5
X86.5Y-174.5
X87.5Y-30.5
X88.5Y-174.5
X89.5Y-30.5
X90.5Y-174.5
X91.5Y-30.5
X92.5Y-174.5
X93.5Y-30.5
X94.5Y-174.5
X95.0Y-32.0
X95.5Y-30.5
X96.5Y-174.5
X97.0Y-32.0
X97.5Y-30.5
X98.0Y-34.0
X98.5Y-174.5
X99.0Y-32.0
X99.0Y-36.0
X99.5Y-30.5
X100.0Y-34.0
X100.5Y-174.5
X101.0Y-32.0
X101.0Y-36.0
X101.5Y-30.5
X102.0Y-34.0
X102.0Y-38.0
X102.5Y-174.5
X103.0Y-32.0
X103.0Y-36.0
X103.0Y-40.0
X103.0Y-44.0
X103.5Y-30.5
X104.0Y-34.0
X104.0Y-38.0
X104.0Y-42.0
X104.5Y-174.5
X105.0Y-32.0
X105.0Y-32.0
X105.0Y-36.0
X105.0Y-40.0
X105.0Y-44.0
X105.0Y-48.0
X105.5Y-30.5
X106.0Y-34.0
X106.0Y-38.0
X106.0Y-42.0
X106.5Y-174.5
X107.0Y-32.0
X107.0Y-36.0
X107.0Y-36.0
X107.0Y-40.0
X107.0Y-44.0
X107.0Y-48.0
X107.5Y-30.5
X108.0Y-34.0
X108.0Y-38.0
X108.0Y-42.0
X108.5Y-174.5
X109.0Y-32.0
X109.0Y-36.0
X109.0Y-40.0
X109.0Y-44.0
X109.0Y-48.0
X109.5Y-30.5
X110.0Y-34.0
X110.0Y-38.0
X110.0Y-42.0
X110.5Y-174.5
X111.0Y-32.0
X111.5Y-30.5
X112.0Y-34.0
X112.5Y-174.5
X113.0Y-32.0
X113.5Y-30.5
X114.0Y-34.0
X114.5Y-174.5
X115.5Y-30.5
X116.0Y-48.5
X116.0Y-50.5
X116.5Y-174.5
X117.5Y-30.5
X117.75Y-47.5
X117.75Y-49.5
X117.75Y-51.5
X119.5Y-46.5
X119.5Y-48.5
X119.5Y-50.5
X119.5Y-52.5
X119.5Y-60.5
X119.5Y-62.5
X119.5Y-64.5
X119.5Y-86.5
X119.5Y-88.5
X119.5Y-90.5
X119.5Y-92.5
X119.5Y-94.5
X119.5Y-96.5
X119.5Y-98.5
X119.5Y-100.5
X119.5Y-102.5
X119.5Y-104.5
X119.5Y-106.5
X119.5Y-108.5
X119.5Y-110.5
X119.5Y-112.5
X119.5Y-114.5
X119.5Y-116.5
X119.5Y-118.5
X119.5Y-120.5
X119.5Y-122.5
X119.5Y-124.5
X119.5Y-126.5
X119.5Y-128.5
X119.5Y-130.5
X119.5Y-132.5
X119.5Y-134.5
X119.5Y-136.5
X119.5Y-138.5
X119.5Y-140.5
X119.5Y-142.5
X119.5Y-144.5
X119.5Y-146.5
X119.5Y-148.5
X119.5Y-150.5
X119.5Y-152.5
X119.5Y-154.5
X119.5Y-156.5
X119.5Y-158.5
X119.5Y-160.5
X119.5Y-162.5
X119.5Y-164.5
X119.5Y-166.5
X119.5Y-168.5
X119.5Y-170.5
X119.5Y-172.5
T2
X37.2Y-72.145
X37.2Y-74.055
X38.5Y-72.145
X38.5Y-74.055
X39.8Y-72.145
X39.8Y-74.055
T3
X31.0Y-66.0
X31.0Y-67.0
X31.0Y-68.0
X31.0Y-69.0
X32.0Y-37.5
X32.0Y-40.0
X32.0Y-42.5
X32.0Y-45.0
X32.0Y-47.5
X32.0Y-66.5
X32.0Y-67.5
X32.0Y-68.5
X32.0Y-72.5
X32.32Y-103.48
X32.5Y-73.5
X32.5Y-84.3
X32.6Y-77.1
X33.0Y-67.0
X33.0Y-68.0
X33.0Y-69.0
X33.0Y-72.5
X33.0Y-164.0
X33.4Y-169.2
X33.5Y-73.5
X33.5Y-77.1
X33.675Y-40.975
X34.0Y-72.5
X34.0Y-81.3
X34.5Y-73.5
X34.5Y-77.1
X34.6Y-169.2
X34.8Y-81.3
X35.0Y-72.5
X35.35Y-46.1
X35.45Y-155.01
X35.5Y-73.5
X35.5Y-77.1
X35.71Y-47.89
X35.8Y-169.2
X35.925Y-45.65
X36.0Y-72.5
X36.45Y-36.3
X37.0Y-169.2
X37.725Y-42.5
X38.325Y-46.775
X39.35Y-46.8
X39.4Y-96.4
X39.45Y-154.01
X39.6Y-52.5
X39.6Y-57.5
X40.85Y-120.71
X41.0Y-72.5
X41.5Y-73.5
X42.0Y-72.5
X42.5Y-73.5
X42.8Y-75.3
X43.0Y-72.5
X43.5Y-73.5
X43.525Y-164.525
X44.0Y-72.5
X44.15Y-44.55
X44.5Y-73.5
X44.75Y-39.85
X45.0Y-72.5
X45.75Y-151.21
X46.025Y-35.925
X46.425Y-173.025
X47.1Y-172.35
X47.175Y-166.45
X47.375Y-173.1
X47.575Y-43.575
X47.7Y-58.6
X47.95Y-172.5
X47.975Y-40.725
X48.2Y-58.6
X48.5Y-56.625
X48.675Y-166.9
X49.525Y-43.8
X49.7Y-64.8
X49.85Y-119.91
X50.2Y-82.4
X50.95Y-36.925
X51.4Y-56.625
X51.4Y-88.2
X51.45Y-40.275
X52.6Y-53.2
X52.7Y-71.677
X52.7Y-72.322
X53.2Y-75.6
X53.375Y-42.15
X53.6Y-70.177
X53.6Y-70.822
X53.65Y-46.025
X53.8Y-74.8
X53.8Y-78.2
X54.1Y-68.2
X54.119Y-71.214
X54.2Y-72.8
X54.3Y-56.625
X54.595Y-40.275
X55.0Y-49.5
X55.0Y-104.4
X55.8Y-166.6
X56.1Y-110.3
X56.125Y-53.275
X56.2Y-47.8
X56.3Y-65.5
X56.3Y-66.5
X56.3Y-67.5
X56.4Y-69.8
X56.7Y-164.0
X56.925Y-48.8
X57.05Y-106.91
X57.15Y-40.794
X57.15Y-112.11
X57.4Y-71.6
X57.55Y-147.21
X57.7Y-55.9
X57.7Y-99.9
X57.734Y-91.219
X57.977Y-69.8
X58.15Y-39.65
X58.23Y-91.655
X58.4Y-42.225
X58.5Y-99.9
X58.622Y-69.8
X58.8Y-85.9
X59.075Y-40.265
X59.15Y-119.01
X59.2Y-71.6
X59.2Y-99.9
X59.425Y-48.75
X59.426Y-67.04
X59.5Y-45.5
X59.5Y-74.1
X59.7Y-40.75
X60.0Y-77.6
X60.0Y-109.9
X60.05Y-118.0
X60.05Y-121.51
X60.075Y-54.675
X60.2Y-69.8
X60.2Y-92.5
X60.86Y-95.75
X61.1Y-80.1
X61.1Y-80.7
X61.1Y-81.3
X61.1Y-81.9
X61.56Y-46.9
X62.1Y-74.7
X62.225Y-40.9
X62.25Y-118.71
X62.335Y-91.339
X62.6Y-94.3
X62.735Y-95.275
X62.8Y-48.8
X62.96Y-68.85
X63.0Y-93.0
X63.06Y-92.075
X63.2Y-171.2
X63.325Y-168.4
X63.4Y-72.0
X63.6Y-51.825
X63.6Y-70.2
X63.8Y-71.2
X63.8Y-110.2
X63.8Y-169.477
X63.8Y-170.123
X63.85Y-123.91
X63.95Y-146.51
X64.2Y-171.2
X64.28Y-168.32
X64.55Y-104.71
X64.8Y-45.8
X64.866Y-46.875
X65.55Y-143.81
X65.735Y-65.35
X65.76Y-62.55
X65.8Y-55.0
X65.8Y-56.4
X66.01Y-70.4
X66.01Y-72.55
X66.018Y-76.436
X66.4Y-55.377
X66.4Y-56.023
X66.5Y-62.55
X66.5Y-65.35
X66.75Y-70.4
X66.75Y-72.55
X67.0Y-171.8
X67.033Y-73.975
X67.1Y-57.2
X67.1Y-58.6
X67.235Y-65.35
X67.26Y-62.55
X67.51Y-70.4
X67.51Y-72.55
X67.9Y-57.578
X67.9Y-58.222
X68.0Y-166.4
X68.25Y-42.225
X68.35Y-100.6
X68.5Y-71.3
X68.7Y-65.6
X69.0Y-166.0
X69.1Y-59.8
X69.1Y-61.2
X69.35Y-119.11
X69.375Y-41.225
X69.4Y-72.8
X69.8Y-60.177
X69.8Y-60.822
X70.2Y-41.925
X70.2Y-70.0
X70.225Y-86.6
X70.25Y-116.91
X70.8Y-62.6
X70.8Y-69.6
X70.95Y-122.41
X71.0Y-87.4
X71.25Y-116.01
X71.351Y-72.996
X71.472Y-61.928
X71.65Y-86.575
X71.928Y-61.472
X72.001Y-73.012
X72.014Y-122.879
X72.175Y-50.075
X72.734Y-70.288
X73.36Y-162.1
X73.384Y-70.308
X73.45Y-40.475
X73.7Y-73.3
X73.75Y-62.64
X74.6Y-42.4
X74.8Y-70.2
X75.25Y-62.64
X75.375Y-100.7
X75.6Y-69.6
X75.8Y-43.5
X75.85Y-115.71
X75.993Y-48.63
X76.65Y-122.91
X76.75Y-62.64
X76.86Y-115.5
X76.86Y-162.1
X77.47Y-40.44
X77.507Y-69.849
X77.981Y-116.797
X77.988Y-70.411
X78.25Y-62.64
X78.54Y-117.279
X78.55Y-122.91
X78.993Y-48.63
X79.387Y-117.179
X79.5Y-70.46
X79.55Y-118.71
X79.75Y-62.64
X79.76Y-117.8
X79.8Y-164.0
X80.0Y-39.7
X80.028Y-70.081
X80.53Y-69.668
X80.85Y-113.51
X81.025Y-69.247
X81.25Y-62.64
X81.45Y-122.81
X81.567Y-68.887
X81.6Y-98.0
X81.993Y-48.63
X82.26Y-69.575
X82.75Y-62.64
X82.993Y-48.05
X83.0Y-53.9
X83.925Y-40.5
X84.01Y-80.175
X84.052Y-109.81
X84.25Y-62.64
X84.25Y-122.91
X84.35Y-143.71
X84.575Y-39.625
X84.8Y-55.8
X85.05Y-166.625
X85.725Y-53.75
X85.76Y-110.71
X86.35Y-40.725
X86.385Y-78.875
X86.385Y-79.525
X86.385Y-80.825
X86.385Y-81.475
X86.7Y-101.5
X86.725Y-53.75
X86.993Y-48.58
X87.6Y-39.9
X87.7Y-97.4
X87.75Y-114.21
X88.8Y-80.25
X88.8Y-84.075
X88.875Y-40.925
X89.435Y-102.57
X89.935Y-74.5
X90.2Y-40.8
X90.2Y-77.1
X90.5Y-94.3
X90.8Y-87.875
X90.85Y-98.61
X90.96Y-46.007
X90.96Y-46.718
X91.5Y-102.2
X91.55Y-92.025
X93.3Y-50.8
X93.3Y-60.2
X93.6Y-96.4
X93.6Y-101.2
X93.86Y-112.0
X94.46Y-81.975
X94.51Y-76.45
X94.85Y-163.35
X95.25Y-40.55
X95.46Y-88.2
X96.8Y-46.6
X97.05Y-114.81
X97.871Y-70.014
X98.01Y-71.675
X98.05Y-114.21
X98.05Y-120.61
X98.535Y-65.25
X99.05Y-147.61
X99.35Y-89.7
X99.925Y-167.3
X99.95Y-114.71
X100.15Y-155.21
X100.33Y-43.77
X100.41Y-64.9
X100.5Y-168.1
X100.81Y-51.025
X100.925Y-167.3
X101.21Y-86.95
X101.35Y-170.475
X101.5Y-168.1
X101.68Y-64.363
X101.681Y-80.5
X102.11Y-48.625
X102.949Y-82.163
X102.96Y-68.45
X103.0Y-88.3
X103.4Y-77.2
X103.46Y-52.625
X103.65Y-138.61
X103.91Y-61.75
X104.05Y-142.31
X104.2Y-64.9
X104.235Y-79.8
X104.95Y-123.51
X105.42Y-49.87
X105.45Y-143.61
X105.46Y-79.775
X105.75Y-147.51
X106.05Y-155.21
X106.1Y-75.0
X106.6Y-62.1
X106.7Y-63.3
X106.71Y-54.65
X106.76Y-68.65
X106.95Y-118.01
X106.95Y-123.11
X107.15Y-116.81
X107.85Y-52.63
X107.85Y-115.61
X108.035Y-79.725
X108.2Y-68.8
X109.297Y-82.348
X109.4Y-50.1
X110.57Y-82.312
X111.2Y-81.0
X111.85Y-138.71
X112.45Y-147.41
X112.45Y-155.21
X113.06Y-49.7
X113.2Y-87.3
X113.4Y-64.7
X113.93Y-48.624
X114.9Y-50.6
X116.1Y-56.3
X116.2Y-55.2
T5
X35.425Y-126.477
X35.425Y-134.377
X35.425Y-142.277
X35.425Y-150.177
X35.425Y-158.077
X36.965Y-117.987
X42.025Y-126.477
X42.025Y-134.377
X42.025Y-142.277
X42.025Y-150.177
X42.025Y-158.077
X46.64Y-117.987
X48.625Y-126.477
X48.625Y-134.377
X48.625Y-142.277
X48.625Y-150.177
X48.625Y-158.077
X55.225Y-126.477
X55.225Y-134.377
X55.225Y-142.277
X55.225Y-150.177
X55.225Y-158.077
X56.315Y-117.987
X61.825Y-126.477
X61.825Y-134.377
X61.825Y-142.277
X61.825Y-150.177
X65.125Y-158.077
X65.99Y-117.987
X68.425Y-126.477
X68.425Y-134.377
X68.425Y-142.277
X68.425Y-150.177
X75.025Y-126.477
X75.025Y-134.377
X75.025Y-142.277
X75.025Y-150.177
X75.025Y-158.077
X81.625Y-126.477
X81.625Y-134.377
X81.625Y-142.277
X81.625Y-150.177
X84.065Y-117.987
X84.925Y-158.077
X88.225Y-126.477
X88.225Y-134.377
X88.225Y-142.277
X88.225Y-150.177
X93.74Y-117.987
X94.825Y-126.477
X94.825Y-134.377
X94.825Y-142.277
X94.825Y-150.177
X94.825Y-158.077
X101.425Y-126.477
X101.425Y-134.377
X101.425Y-142.277
X101.425Y-150.177
X101.425Y-158.077
X103.415Y-117.987
X108.025Y-126.477
X108.025Y-134.377
X108.025Y-142.277
X108.025Y-150.177
X108.025Y-158.077
X113.09Y-117.987
X114.625Y-126.477
X114.625Y-134.377
X114.625Y-142.277
X114.625Y-150.177
X114.625Y-158.077
T6
X113.46Y-37.46
X113.46Y-42.54
X116.0Y-40.0
X118.54Y-37.46
X118.54Y-42.54
T7
X75.0Y-109.5
T4
X118.335Y-54.0G85X117.685Y-54.0
G05
X118.335Y-58.7G85X117.685Y-58.7
G05
T5
X32.65Y-50.68G85X33.25Y-50.68
G05
X32.65Y-59.32G85X33.25Y-59.32
G05
X36.58Y-50.68G85X37.68Y-50.68
G05
X36.58Y-59.32G85X37.68Y-59.32
G05
X70.68Y-168.42G85X70.68Y-167.32
G05
X70.68Y-172.35G85X70.68Y-171.75
G05
X79.32Y-168.42G85X79.32Y-167.32
G05
X79.32Y-172.35G85X79.32Y-171.75
G05
M30
