G04 #@! TF.GenerationSoftware,KiCad,Pcbnew,9.0.2*
G04 #@! TF.CreationDate,2025-06-06T15:45:15+02:00*
G04 #@! TF.ProjectId,badgeCarrierCard,62616467-6543-4617-9272-696572436172,V2.5*
G04 #@! TF.SameCoordinates,Original*
G04 #@! TF.FileFunction,Soldermask,Top*
G04 #@! TF.FilePolarity,Negative*
%FSLAX46Y46*%
G04 Gerber Fmt 4.6, Leading zero omitted, Abs format (unit mm)*
G04 Created by KiCad (PCBNEW 9.0.2) date 2025-06-06 15:45:15*
%MOMM*%
%LPD*%
G01*
G04 APERTURE LIST*
G04 Aperture macros list*
%AMRoundRect*
0 Rectangle with rounded corners*
0 $1 Rounding radius*
0 $2 $3 $4 $5 $6 $7 $8 $9 X,Y pos of 4 corners*
0 Add a 4 corners polygon primitive as box body*
4,1,4,$2,$3,$4,$5,$6,$7,$8,$9,$2,$3,0*
0 Add four circle primitives for the rounded corners*
1,1,$1+$1,$2,$3*
1,1,$1+$1,$4,$5*
1,1,$1+$1,$6,$7*
1,1,$1+$1,$8,$9*
0 Add four rect primitives between the rounded corners*
20,1,$1+$1,$2,$3,$4,$5,0*
20,1,$1+$1,$4,$5,$6,$7,0*
20,1,$1+$1,$6,$7,$8,$9,0*
20,1,$1+$1,$8,$9,$2,$3,0*%
%AMFreePoly0*
4,1,52,-0.529408,2.274054,-0.424786,2.220629,-0.337556,2.141945,-0.132558,1.875050,0.044206,1.588672,0.190897,1.285787,0.305993,0.969542,0.388297,0.643224,0.436954,0.310222,0.451459,-0.026003,0.431660,-0.361958,0.377764,-0.694152,0.290330,-1.019133,0.170267,-1.333526,0.018823,-1.634062,-0.162429,-1.917620,-0.371606,-2.181254,-0.460064,-2.258554,-0.565515,-2.310325,-0.680771,-2.333039,
-0.797980,-2.325149,-0.909152,-2.287191,-1.006712,-2.221754,-1.084012,-2.133296,-1.135783,-2.027845,-1.158497,-1.912589,-1.150607,-1.795380,-1.112649,-1.684208,-1.047212,-1.586648,-0.952740,-1.479260,-0.790574,-1.243613,-0.657525,-0.990383,-0.555472,-0.723150,-0.485859,-0.445695,-0.449670,-0.161938,-0.447417,0.124109,-0.479132,0.408401,-0.544366,0.686919,-0.642197,0.955725,-0.771241,1.211020,
-0.929675,1.449193,-1.022444,1.558055,-1.086336,1.656633,-1.122538,1.768390,-1.128581,1.885708,-1.104054,2.000592,-1.050629,2.105214,-0.971945,2.192444,-0.873367,2.256336,-0.761610,2.292538,-0.644292,2.298581,-0.529408,2.274054,-0.529408,2.274054,$1*%
G04 Aperture macros list end*
%ADD10C,0.900000*%
%ADD11C,0.050000*%
%ADD12R,0.670000X0.830000*%
%ADD13C,1.000000*%
%ADD14RoundRect,0.200000X0.550000X0.200000X-0.550000X0.200000X-0.550000X-0.200000X0.550000X-0.200000X0*%
%ADD15FreePoly0,90.000000*%
%ADD16FreePoly0,270.000000*%
%ADD17C,2.500000*%
%ADD18O,1.000000X1.600000*%
%ADD19O,1.000000X2.100000*%
%ADD20C,7.000000*%
%ADD21O,1.754000X1.104000*%
%ADD22O,1.600000X1.000000*%
%ADD23O,2.100000X1.000000*%
%ADD24C,2.604000*%
G04 APERTURE END LIST*
D10*
G04 #@! TO.C,U14*
X37274995Y-128991020D02*
G75*
G02*
X33560457Y-128978420I-1849996J2150446D01*
G01*
X37274995Y-136891020D02*
G75*
G02*
X33560457Y-136878420I-1849996J2150446D01*
G01*
X37274995Y-144791020D02*
G75*
G02*
X33560457Y-144778420I-1849996J2150446D01*
G01*
X37274995Y-152691020D02*
G75*
G02*
X33560457Y-152678420I-1849996J2150446D01*
G01*
X37274995Y-160591020D02*
G75*
G02*
X33560457Y-160578420I-1849996J2150446D01*
G01*
X38814995Y-120501020D02*
G75*
G02*
X35100457Y-120488420I-1849996J2150446D01*
G01*
X43874995Y-128991020D02*
G75*
G02*
X40160457Y-128978420I-1849996J2150446D01*
G01*
X43874995Y-136891020D02*
G75*
G02*
X40160457Y-136878420I-1849996J2150446D01*
G01*
X43874995Y-144791020D02*
G75*
G02*
X40160457Y-144778420I-1849996J2150446D01*
G01*
X43874995Y-152691020D02*
G75*
G02*
X40160457Y-152678420I-1849996J2150446D01*
G01*
X43874995Y-160591020D02*
G75*
G02*
X40160457Y-160578420I-1849996J2150446D01*
G01*
X48489995Y-120501020D02*
G75*
G02*
X44775457Y-120488420I-1849996J2150446D01*
G01*
X50474995Y-128991020D02*
G75*
G02*
X46760457Y-128978420I-1849996J2150446D01*
G01*
X50474995Y-136891020D02*
G75*
G02*
X46760457Y-136878420I-1849996J2150446D01*
G01*
X50474995Y-144791020D02*
G75*
G02*
X46760457Y-144778420I-1849996J2150446D01*
G01*
X50474995Y-152691020D02*
G75*
G02*
X46760457Y-152678420I-1849996J2150446D01*
G01*
X50474995Y-160591020D02*
G75*
G02*
X46760457Y-160578420I-1849996J2150446D01*
G01*
X57074995Y-128991020D02*
G75*
G02*
X53360457Y-128978420I-1849996J2150446D01*
G01*
X57074995Y-136891020D02*
G75*
G02*
X53360457Y-136878420I-1849996J2150446D01*
G01*
X57074995Y-144791020D02*
G75*
G02*
X53360457Y-144778420I-1849996J2150446D01*
G01*
X57074995Y-152691020D02*
G75*
G02*
X53360457Y-152678420I-1849996J2150446D01*
G01*
X57074995Y-160591020D02*
G75*
G02*
X53360457Y-160578420I-1849996J2150446D01*
G01*
X58164995Y-120501020D02*
G75*
G02*
X54450457Y-120488420I-1849996J2150446D01*
G01*
X63674995Y-128991020D02*
G75*
G02*
X59960457Y-128978420I-1849996J2150446D01*
G01*
X63674995Y-136891020D02*
G75*
G02*
X59960457Y-136878420I-1849996J2150446D01*
G01*
X63674995Y-144791020D02*
G75*
G02*
X59960457Y-144778420I-1849996J2150446D01*
G01*
X63674995Y-152691020D02*
G75*
G02*
X59960457Y-152678420I-1849996J2150446D01*
G01*
X66974995Y-160591020D02*
G75*
G02*
X63260457Y-160578420I-1849996J2150446D01*
G01*
X67839995Y-120501020D02*
G75*
G02*
X64125457Y-120488420I-1849996J2150446D01*
G01*
X70274995Y-128991020D02*
G75*
G02*
X66560457Y-128978420I-1849996J2150446D01*
G01*
X70274995Y-136891020D02*
G75*
G02*
X66560457Y-136878420I-1849996J2150446D01*
G01*
X70274995Y-144791020D02*
G75*
G02*
X66560457Y-144778420I-1849996J2150446D01*
G01*
X70274995Y-152691020D02*
G75*
G02*
X66560457Y-152678420I-1849996J2150446D01*
G01*
X76874995Y-128991020D02*
G75*
G02*
X73160457Y-128978420I-1849996J2150446D01*
G01*
X76874995Y-136891020D02*
G75*
G02*
X73160457Y-136878420I-1849996J2150446D01*
G01*
X76874995Y-144791020D02*
G75*
G02*
X73160457Y-144778420I-1849996J2150446D01*
G01*
X76874995Y-152691020D02*
G75*
G02*
X73160457Y-152678420I-1849996J2150446D01*
G01*
X76874995Y-160591020D02*
G75*
G02*
X73160457Y-160578420I-1849996J2150446D01*
G01*
X83474995Y-128991020D02*
G75*
G02*
X79760458Y-128978419I-1849995J2150442D01*
G01*
X83474995Y-136891020D02*
G75*
G02*
X79760458Y-136878419I-1849995J2150442D01*
G01*
X83474995Y-144791020D02*
G75*
G02*
X79760458Y-144778419I-1849995J2150442D01*
G01*
X83474995Y-152691020D02*
G75*
G02*
X79760458Y-152678419I-1849995J2150442D01*
G01*
X85914995Y-120501020D02*
G75*
G02*
X82200458Y-120488419I-1849995J2150442D01*
G01*
X86774995Y-160591020D02*
G75*
G02*
X83060458Y-160578419I-1849995J2150442D01*
G01*
X90074995Y-128991020D02*
G75*
G02*
X86360458Y-128978419I-1849995J2150442D01*
G01*
X90074995Y-136891020D02*
G75*
G02*
X86360458Y-136878419I-1849995J2150442D01*
G01*
X90074995Y-144791020D02*
G75*
G02*
X86360458Y-144778419I-1849995J2150442D01*
G01*
X90074995Y-152691020D02*
G75*
G02*
X86360458Y-152678419I-1849995J2150442D01*
G01*
X95589995Y-120501020D02*
G75*
G02*
X91875458Y-120488419I-1849995J2150442D01*
G01*
X96674995Y-128991020D02*
G75*
G02*
X92960458Y-128978419I-1849995J2150442D01*
G01*
X96674995Y-136891020D02*
G75*
G02*
X92960458Y-136878419I-1849995J2150442D01*
G01*
X96674995Y-144791020D02*
G75*
G02*
X92960458Y-144778419I-1849995J2150442D01*
G01*
X96674995Y-152691020D02*
G75*
G02*
X92960458Y-152678419I-1849995J2150442D01*
G01*
X96674995Y-160591020D02*
G75*
G02*
X92960458Y-160578419I-1849995J2150442D01*
G01*
X103274995Y-128991020D02*
G75*
G02*
X99560458Y-128978419I-1849995J2150442D01*
G01*
X103274995Y-136891020D02*
G75*
G02*
X99560458Y-136878419I-1849995J2150442D01*
G01*
X103274995Y-144791020D02*
G75*
G02*
X99560458Y-144778419I-1849995J2150442D01*
G01*
X103274995Y-152691020D02*
G75*
G02*
X99560458Y-152678419I-1849995J2150442D01*
G01*
X103274995Y-160591020D02*
G75*
G02*
X99560458Y-160578419I-1849995J2150442D01*
G01*
X105264995Y-120501020D02*
G75*
G02*
X101550458Y-120488419I-1849995J2150442D01*
G01*
X109874995Y-128991020D02*
G75*
G02*
X106160458Y-128978419I-1849995J2150442D01*
G01*
X109874995Y-136891020D02*
G75*
G02*
X106160458Y-136878419I-1849995J2150442D01*
G01*
X109874995Y-144791020D02*
G75*
G02*
X106160458Y-144778419I-1849995J2150442D01*
G01*
X109874995Y-152691020D02*
G75*
G02*
X106160458Y-152678419I-1849995J2150442D01*
G01*
X109874995Y-160591020D02*
G75*
G02*
X106160458Y-160578419I-1849995J2150442D01*
G01*
X114939995Y-120501020D02*
G75*
G02*
X111225458Y-120488419I-1849995J2150442D01*
G01*
X116474995Y-128991020D02*
G75*
G02*
X112760458Y-128978419I-1849995J2150442D01*
G01*
X116474995Y-136891020D02*
G75*
G02*
X112760458Y-136878419I-1849995J2150442D01*
G01*
X116474995Y-144791020D02*
G75*
G02*
X112760458Y-144778419I-1849995J2150442D01*
G01*
X116474995Y-152691020D02*
G75*
G02*
X112760458Y-152678419I-1849995J2150442D01*
G01*
X116474995Y-160591020D02*
G75*
G02*
X112760458Y-160578419I-1849995J2150442D01*
G01*
D11*
X37675000Y-125377278D02*
X37675000Y-128977278D01*
X35425000Y-129977278D01*
X33175000Y-128977278D01*
X33175000Y-125377278D01*
X35425000Y-124377278D01*
X37675000Y-125377278D01*
G36*
X37675000Y-125377278D02*
G01*
X37675000Y-128977278D01*
X35425000Y-129977278D01*
X33175000Y-128977278D01*
X33175000Y-125377278D01*
X35425000Y-124377278D01*
X37675000Y-125377278D01*
G37*
X37675000Y-133277278D02*
X37675000Y-136877278D01*
X35425000Y-137877278D01*
X33175000Y-136877278D01*
X33175000Y-133277278D01*
X35425000Y-132277278D01*
X37675000Y-133277278D01*
G36*
X37675000Y-133277278D02*
G01*
X37675000Y-136877278D01*
X35425000Y-137877278D01*
X33175000Y-136877278D01*
X33175000Y-133277278D01*
X35425000Y-132277278D01*
X37675000Y-133277278D01*
G37*
X37675000Y-141177278D02*
X37675000Y-144777278D01*
X35425000Y-145777278D01*
X33175000Y-144777278D01*
X33175000Y-141177278D01*
X35425000Y-140177278D01*
X37675000Y-141177278D01*
G36*
X37675000Y-141177278D02*
G01*
X37675000Y-144777278D01*
X35425000Y-145777278D01*
X33175000Y-144777278D01*
X33175000Y-141177278D01*
X35425000Y-140177278D01*
X37675000Y-141177278D01*
G37*
X37675000Y-149077278D02*
X37675000Y-152677278D01*
X35425000Y-153677278D01*
X33175000Y-152677278D01*
X33175000Y-149077278D01*
X35425000Y-148077278D01*
X37675000Y-149077278D01*
G36*
X37675000Y-149077278D02*
G01*
X37675000Y-152677278D01*
X35425000Y-153677278D01*
X33175000Y-152677278D01*
X33175000Y-149077278D01*
X35425000Y-148077278D01*
X37675000Y-149077278D01*
G37*
X37675000Y-156977278D02*
X37675000Y-160577278D01*
X35425000Y-161577278D01*
X33175000Y-160577278D01*
X33175000Y-156977278D01*
X35425000Y-155977278D01*
X37675000Y-156977278D01*
G36*
X37675000Y-156977278D02*
G01*
X37675000Y-160577278D01*
X35425000Y-161577278D01*
X33175000Y-160577278D01*
X33175000Y-156977278D01*
X35425000Y-155977278D01*
X37675000Y-156977278D01*
G37*
X39215000Y-116887278D02*
X39215000Y-120487278D01*
X36965000Y-121487278D01*
X34715000Y-120487278D01*
X34715000Y-116887278D01*
X36965000Y-115887278D01*
X39215000Y-116887278D01*
G36*
X39215000Y-116887278D02*
G01*
X39215000Y-120487278D01*
X36965000Y-121487278D01*
X34715000Y-120487278D01*
X34715000Y-116887278D01*
X36965000Y-115887278D01*
X39215000Y-116887278D01*
G37*
X44275000Y-125377278D02*
X44275000Y-128977278D01*
X42025000Y-129977278D01*
X39775000Y-128977278D01*
X39775000Y-125377278D01*
X42025000Y-124377278D01*
X44275000Y-125377278D01*
G36*
X44275000Y-125377278D02*
G01*
X44275000Y-128977278D01*
X42025000Y-129977278D01*
X39775000Y-128977278D01*
X39775000Y-125377278D01*
X42025000Y-124377278D01*
X44275000Y-125377278D01*
G37*
X44275000Y-133277278D02*
X44275000Y-136877278D01*
X42025000Y-137877278D01*
X39775000Y-136877278D01*
X39775000Y-133277278D01*
X42025000Y-132277278D01*
X44275000Y-133277278D01*
G36*
X44275000Y-133277278D02*
G01*
X44275000Y-136877278D01*
X42025000Y-137877278D01*
X39775000Y-136877278D01*
X39775000Y-133277278D01*
X42025000Y-132277278D01*
X44275000Y-133277278D01*
G37*
X44275000Y-141177278D02*
X44275000Y-144777278D01*
X42025000Y-145777278D01*
X39775000Y-144777278D01*
X39775000Y-141177278D01*
X42025000Y-140177278D01*
X44275000Y-141177278D01*
G36*
X44275000Y-141177278D02*
G01*
X44275000Y-144777278D01*
X42025000Y-145777278D01*
X39775000Y-144777278D01*
X39775000Y-141177278D01*
X42025000Y-140177278D01*
X44275000Y-141177278D01*
G37*
X44275000Y-149077278D02*
X44275000Y-152677278D01*
X42025000Y-153677278D01*
X39775000Y-152677278D01*
X39775000Y-149077278D01*
X42025000Y-148077278D01*
X44275000Y-149077278D01*
G36*
X44275000Y-149077278D02*
G01*
X44275000Y-152677278D01*
X42025000Y-153677278D01*
X39775000Y-152677278D01*
X39775000Y-149077278D01*
X42025000Y-148077278D01*
X44275000Y-149077278D01*
G37*
X44275000Y-156977278D02*
X44275000Y-160577278D01*
X42025000Y-161577278D01*
X39775000Y-160577278D01*
X39775000Y-156977278D01*
X42025000Y-155977278D01*
X44275000Y-156977278D01*
G36*
X44275000Y-156977278D02*
G01*
X44275000Y-160577278D01*
X42025000Y-161577278D01*
X39775000Y-160577278D01*
X39775000Y-156977278D01*
X42025000Y-155977278D01*
X44275000Y-156977278D01*
G37*
X48890000Y-116887278D02*
X48890000Y-120487278D01*
X46640000Y-121487278D01*
X44390000Y-120487278D01*
X44390000Y-116887278D01*
X46640000Y-115887278D01*
X48890000Y-116887278D01*
G36*
X48890000Y-116887278D02*
G01*
X48890000Y-120487278D01*
X46640000Y-121487278D01*
X44390000Y-120487278D01*
X44390000Y-116887278D01*
X46640000Y-115887278D01*
X48890000Y-116887278D01*
G37*
X50875000Y-125377278D02*
X50875000Y-128977278D01*
X48625000Y-129977278D01*
X46375000Y-128977278D01*
X46375000Y-125377278D01*
X48625000Y-124377278D01*
X50875000Y-125377278D01*
G36*
X50875000Y-125377278D02*
G01*
X50875000Y-128977278D01*
X48625000Y-129977278D01*
X46375000Y-128977278D01*
X46375000Y-125377278D01*
X48625000Y-124377278D01*
X50875000Y-125377278D01*
G37*
X50875000Y-133277278D02*
X50875000Y-136877278D01*
X48625000Y-137877278D01*
X46375000Y-136877278D01*
X46375000Y-133277278D01*
X48625000Y-132277278D01*
X50875000Y-133277278D01*
G36*
X50875000Y-133277278D02*
G01*
X50875000Y-136877278D01*
X48625000Y-137877278D01*
X46375000Y-136877278D01*
X46375000Y-133277278D01*
X48625000Y-132277278D01*
X50875000Y-133277278D01*
G37*
X50875000Y-141177278D02*
X50875000Y-144777278D01*
X48625000Y-145777278D01*
X46375000Y-144777278D01*
X46375000Y-141177278D01*
X48625000Y-140177278D01*
X50875000Y-141177278D01*
G36*
X50875000Y-141177278D02*
G01*
X50875000Y-144777278D01*
X48625000Y-145777278D01*
X46375000Y-144777278D01*
X46375000Y-141177278D01*
X48625000Y-140177278D01*
X50875000Y-141177278D01*
G37*
X50875000Y-149077278D02*
X50875000Y-152677278D01*
X48625000Y-153677278D01*
X46375000Y-152677278D01*
X46375000Y-149077278D01*
X48625000Y-148077278D01*
X50875000Y-149077278D01*
G36*
X50875000Y-149077278D02*
G01*
X50875000Y-152677278D01*
X48625000Y-153677278D01*
X46375000Y-152677278D01*
X46375000Y-149077278D01*
X48625000Y-148077278D01*
X50875000Y-149077278D01*
G37*
X50875000Y-156977278D02*
X50875000Y-160577278D01*
X48625000Y-161577278D01*
X46375000Y-160577278D01*
X46375000Y-156977278D01*
X48625000Y-155977278D01*
X50875000Y-156977278D01*
G36*
X50875000Y-156977278D02*
G01*
X50875000Y-160577278D01*
X48625000Y-161577278D01*
X46375000Y-160577278D01*
X46375000Y-156977278D01*
X48625000Y-155977278D01*
X50875000Y-156977278D01*
G37*
X57475000Y-125377278D02*
X57475000Y-128977278D01*
X55225000Y-129977278D01*
X52975000Y-128977278D01*
X52975000Y-125377278D01*
X55225000Y-124377278D01*
X57475000Y-125377278D01*
G36*
X57475000Y-125377278D02*
G01*
X57475000Y-128977278D01*
X55225000Y-129977278D01*
X52975000Y-128977278D01*
X52975000Y-125377278D01*
X55225000Y-124377278D01*
X57475000Y-125377278D01*
G37*
X57475000Y-133277278D02*
X57475000Y-136877278D01*
X55225000Y-137877278D01*
X52975000Y-136877278D01*
X52975000Y-133277278D01*
X55225000Y-132277278D01*
X57475000Y-133277278D01*
G36*
X57475000Y-133277278D02*
G01*
X57475000Y-136877278D01*
X55225000Y-137877278D01*
X52975000Y-136877278D01*
X52975000Y-133277278D01*
X55225000Y-132277278D01*
X57475000Y-133277278D01*
G37*
X57475000Y-141177278D02*
X57475000Y-144777278D01*
X55225000Y-145777278D01*
X52975000Y-144777278D01*
X52975000Y-141177278D01*
X55225000Y-140177278D01*
X57475000Y-141177278D01*
G36*
X57475000Y-141177278D02*
G01*
X57475000Y-144777278D01*
X55225000Y-145777278D01*
X52975000Y-144777278D01*
X52975000Y-141177278D01*
X55225000Y-140177278D01*
X57475000Y-141177278D01*
G37*
X57475000Y-149077278D02*
X57475000Y-152677278D01*
X55225000Y-153677278D01*
X52975000Y-152677278D01*
X52975000Y-149077278D01*
X55225000Y-148077278D01*
X57475000Y-149077278D01*
G36*
X57475000Y-149077278D02*
G01*
X57475000Y-152677278D01*
X55225000Y-153677278D01*
X52975000Y-152677278D01*
X52975000Y-149077278D01*
X55225000Y-148077278D01*
X57475000Y-149077278D01*
G37*
X57475000Y-156977278D02*
X57475000Y-160577278D01*
X55225000Y-161577278D01*
X52975000Y-160577278D01*
X52975000Y-156977278D01*
X55225000Y-155977278D01*
X57475000Y-156977278D01*
G36*
X57475000Y-156977278D02*
G01*
X57475000Y-160577278D01*
X55225000Y-161577278D01*
X52975000Y-160577278D01*
X52975000Y-156977278D01*
X55225000Y-155977278D01*
X57475000Y-156977278D01*
G37*
X58565000Y-116887278D02*
X58565000Y-120487278D01*
X56315000Y-121487278D01*
X54065000Y-120487278D01*
X54065000Y-116887278D01*
X56315000Y-115887278D01*
X58565000Y-116887278D01*
G36*
X58565000Y-116887278D02*
G01*
X58565000Y-120487278D01*
X56315000Y-121487278D01*
X54065000Y-120487278D01*
X54065000Y-116887278D01*
X56315000Y-115887278D01*
X58565000Y-116887278D01*
G37*
X64075000Y-125377278D02*
X64075000Y-128977278D01*
X61825000Y-129977278D01*
X59575000Y-128977278D01*
X59575000Y-125377278D01*
X61825000Y-124377278D01*
X64075000Y-125377278D01*
G36*
X64075000Y-125377278D02*
G01*
X64075000Y-128977278D01*
X61825000Y-129977278D01*
X59575000Y-128977278D01*
X59575000Y-125377278D01*
X61825000Y-124377278D01*
X64075000Y-125377278D01*
G37*
X64075000Y-133277278D02*
X64075000Y-136877278D01*
X61825000Y-137877278D01*
X59575000Y-136877278D01*
X59575000Y-133277278D01*
X61825000Y-132277278D01*
X64075000Y-133277278D01*
G36*
X64075000Y-133277278D02*
G01*
X64075000Y-136877278D01*
X61825000Y-137877278D01*
X59575000Y-136877278D01*
X59575000Y-133277278D01*
X61825000Y-132277278D01*
X64075000Y-133277278D01*
G37*
X64075000Y-141177278D02*
X64075000Y-144777278D01*
X61825000Y-145777278D01*
X59575000Y-144777278D01*
X59575000Y-141177278D01*
X61825000Y-140177278D01*
X64075000Y-141177278D01*
G36*
X64075000Y-141177278D02*
G01*
X64075000Y-144777278D01*
X61825000Y-145777278D01*
X59575000Y-144777278D01*
X59575000Y-141177278D01*
X61825000Y-140177278D01*
X64075000Y-141177278D01*
G37*
X64075000Y-149077278D02*
X64075000Y-152677278D01*
X61825000Y-153677278D01*
X59575000Y-152677278D01*
X59575000Y-149077278D01*
X61825000Y-148077278D01*
X64075000Y-149077278D01*
G36*
X64075000Y-149077278D02*
G01*
X64075000Y-152677278D01*
X61825000Y-153677278D01*
X59575000Y-152677278D01*
X59575000Y-149077278D01*
X61825000Y-148077278D01*
X64075000Y-149077278D01*
G37*
X67375000Y-156977278D02*
X67375000Y-160577278D01*
X65125000Y-161577278D01*
X62875000Y-160577278D01*
X62875000Y-156977278D01*
X65125000Y-155977278D01*
X67375000Y-156977278D01*
G36*
X67375000Y-156977278D02*
G01*
X67375000Y-160577278D01*
X65125000Y-161577278D01*
X62875000Y-160577278D01*
X62875000Y-156977278D01*
X65125000Y-155977278D01*
X67375000Y-156977278D01*
G37*
X68240000Y-116887278D02*
X68240000Y-120487278D01*
X65990000Y-121487278D01*
X63740000Y-120487278D01*
X63740000Y-116887278D01*
X65990000Y-115887278D01*
X68240000Y-116887278D01*
G36*
X68240000Y-116887278D02*
G01*
X68240000Y-120487278D01*
X65990000Y-121487278D01*
X63740000Y-120487278D01*
X63740000Y-116887278D01*
X65990000Y-115887278D01*
X68240000Y-116887278D01*
G37*
X70675000Y-125377278D02*
X70675000Y-128977278D01*
X68425000Y-129977278D01*
X66175000Y-128977278D01*
X66175000Y-125377278D01*
X68425000Y-124377278D01*
X70675000Y-125377278D01*
G36*
X70675000Y-125377278D02*
G01*
X70675000Y-128977278D01*
X68425000Y-129977278D01*
X66175000Y-128977278D01*
X66175000Y-125377278D01*
X68425000Y-124377278D01*
X70675000Y-125377278D01*
G37*
X70675000Y-133277278D02*
X70675000Y-136877278D01*
X68425000Y-137877278D01*
X66175000Y-136877278D01*
X66175000Y-133277278D01*
X68425000Y-132277278D01*
X70675000Y-133277278D01*
G36*
X70675000Y-133277278D02*
G01*
X70675000Y-136877278D01*
X68425000Y-137877278D01*
X66175000Y-136877278D01*
X66175000Y-133277278D01*
X68425000Y-132277278D01*
X70675000Y-133277278D01*
G37*
X70675000Y-141177278D02*
X70675000Y-144777278D01*
X68425000Y-145777278D01*
X66175000Y-144777278D01*
X66175000Y-141177278D01*
X68425000Y-140177278D01*
X70675000Y-141177278D01*
G36*
X70675000Y-141177278D02*
G01*
X70675000Y-144777278D01*
X68425000Y-145777278D01*
X66175000Y-144777278D01*
X66175000Y-141177278D01*
X68425000Y-140177278D01*
X70675000Y-141177278D01*
G37*
X70675000Y-149077278D02*
X70675000Y-152677278D01*
X68425000Y-153677278D01*
X66175000Y-152677278D01*
X66175000Y-149077278D01*
X68425000Y-148077278D01*
X70675000Y-149077278D01*
G36*
X70675000Y-149077278D02*
G01*
X70675000Y-152677278D01*
X68425000Y-153677278D01*
X66175000Y-152677278D01*
X66175000Y-149077278D01*
X68425000Y-148077278D01*
X70675000Y-149077278D01*
G37*
X77275000Y-125377278D02*
X77275000Y-128977278D01*
X75025000Y-129977278D01*
X72775000Y-128977278D01*
X72775000Y-125377278D01*
X75025000Y-124377278D01*
X77275000Y-125377278D01*
G36*
X77275000Y-125377278D02*
G01*
X77275000Y-128977278D01*
X75025000Y-129977278D01*
X72775000Y-128977278D01*
X72775000Y-125377278D01*
X75025000Y-124377278D01*
X77275000Y-125377278D01*
G37*
X77275000Y-133277278D02*
X77275000Y-136877278D01*
X75025000Y-137877278D01*
X72775000Y-136877278D01*
X72775000Y-133277278D01*
X75025000Y-132277278D01*
X77275000Y-133277278D01*
G36*
X77275000Y-133277278D02*
G01*
X77275000Y-136877278D01*
X75025000Y-137877278D01*
X72775000Y-136877278D01*
X72775000Y-133277278D01*
X75025000Y-132277278D01*
X77275000Y-133277278D01*
G37*
X77275000Y-141177278D02*
X77275000Y-144777278D01*
X75025000Y-145777278D01*
X72775000Y-144777278D01*
X72775000Y-141177278D01*
X75025000Y-140177278D01*
X77275000Y-141177278D01*
G36*
X77275000Y-141177278D02*
G01*
X77275000Y-144777278D01*
X75025000Y-145777278D01*
X72775000Y-144777278D01*
X72775000Y-141177278D01*
X75025000Y-140177278D01*
X77275000Y-141177278D01*
G37*
X77275000Y-149077278D02*
X77275000Y-152677278D01*
X75025000Y-153677278D01*
X72775000Y-152677278D01*
X72775000Y-149077278D01*
X75025000Y-148077278D01*
X77275000Y-149077278D01*
G36*
X77275000Y-149077278D02*
G01*
X77275000Y-152677278D01*
X75025000Y-153677278D01*
X72775000Y-152677278D01*
X72775000Y-149077278D01*
X75025000Y-148077278D01*
X77275000Y-149077278D01*
G37*
X77275000Y-156977278D02*
X77275000Y-160577278D01*
X75025000Y-161577278D01*
X72775000Y-160577278D01*
X72775000Y-156977278D01*
X75025000Y-155977278D01*
X77275000Y-156977278D01*
G36*
X77275000Y-156977278D02*
G01*
X77275000Y-160577278D01*
X75025000Y-161577278D01*
X72775000Y-160577278D01*
X72775000Y-156977278D01*
X75025000Y-155977278D01*
X77275000Y-156977278D01*
G37*
X83875000Y-125377278D02*
X83875000Y-128977278D01*
X81625000Y-129977278D01*
X79375000Y-128977278D01*
X79375000Y-125377278D01*
X81625000Y-124377278D01*
X83875000Y-125377278D01*
G36*
X83875000Y-125377278D02*
G01*
X83875000Y-128977278D01*
X81625000Y-129977278D01*
X79375000Y-128977278D01*
X79375000Y-125377278D01*
X81625000Y-124377278D01*
X83875000Y-125377278D01*
G37*
X83875000Y-133277278D02*
X83875000Y-136877278D01*
X81625000Y-137877278D01*
X79375000Y-136877278D01*
X79375000Y-133277278D01*
X81625000Y-132277278D01*
X83875000Y-133277278D01*
G36*
X83875000Y-133277278D02*
G01*
X83875000Y-136877278D01*
X81625000Y-137877278D01*
X79375000Y-136877278D01*
X79375000Y-133277278D01*
X81625000Y-132277278D01*
X83875000Y-133277278D01*
G37*
X83875000Y-141177278D02*
X83875000Y-144777278D01*
X81625000Y-145777278D01*
X79375000Y-144777278D01*
X79375000Y-141177278D01*
X81625000Y-140177278D01*
X83875000Y-141177278D01*
G36*
X83875000Y-141177278D02*
G01*
X83875000Y-144777278D01*
X81625000Y-145777278D01*
X79375000Y-144777278D01*
X79375000Y-141177278D01*
X81625000Y-140177278D01*
X83875000Y-141177278D01*
G37*
X83875000Y-149077278D02*
X83875000Y-152677278D01*
X81625000Y-153677278D01*
X79375000Y-152677278D01*
X79375000Y-149077278D01*
X81625000Y-148077278D01*
X83875000Y-149077278D01*
G36*
X83875000Y-149077278D02*
G01*
X83875000Y-152677278D01*
X81625000Y-153677278D01*
X79375000Y-152677278D01*
X79375000Y-149077278D01*
X81625000Y-148077278D01*
X83875000Y-149077278D01*
G37*
X86315000Y-116887278D02*
X86315000Y-120487278D01*
X84065000Y-121487278D01*
X81815000Y-120487278D01*
X81815000Y-116887278D01*
X84065000Y-115887278D01*
X86315000Y-116887278D01*
G36*
X86315000Y-116887278D02*
G01*
X86315000Y-120487278D01*
X84065000Y-121487278D01*
X81815000Y-120487278D01*
X81815000Y-116887278D01*
X84065000Y-115887278D01*
X86315000Y-116887278D01*
G37*
X87175000Y-156977278D02*
X87175000Y-160577278D01*
X84925000Y-161577278D01*
X82675000Y-160577278D01*
X82675000Y-156977278D01*
X84925000Y-155977278D01*
X87175000Y-156977278D01*
G36*
X87175000Y-156977278D02*
G01*
X87175000Y-160577278D01*
X84925000Y-161577278D01*
X82675000Y-160577278D01*
X82675000Y-156977278D01*
X84925000Y-155977278D01*
X87175000Y-156977278D01*
G37*
X90475000Y-125377278D02*
X90475000Y-128977278D01*
X88225000Y-129977278D01*
X85975000Y-128977278D01*
X85975000Y-125377278D01*
X88225000Y-124377278D01*
X90475000Y-125377278D01*
G36*
X90475000Y-125377278D02*
G01*
X90475000Y-128977278D01*
X88225000Y-129977278D01*
X85975000Y-128977278D01*
X85975000Y-125377278D01*
X88225000Y-124377278D01*
X90475000Y-125377278D01*
G37*
X90475000Y-133277278D02*
X90475000Y-136877278D01*
X88225000Y-137877278D01*
X85975000Y-136877278D01*
X85975000Y-133277278D01*
X88225000Y-132277278D01*
X90475000Y-133277278D01*
G36*
X90475000Y-133277278D02*
G01*
X90475000Y-136877278D01*
X88225000Y-137877278D01*
X85975000Y-136877278D01*
X85975000Y-133277278D01*
X88225000Y-132277278D01*
X90475000Y-133277278D01*
G37*
X90475000Y-141177278D02*
X90475000Y-144777278D01*
X88225000Y-145777278D01*
X85975000Y-144777278D01*
X85975000Y-141177278D01*
X88225000Y-140177278D01*
X90475000Y-141177278D01*
G36*
X90475000Y-141177278D02*
G01*
X90475000Y-144777278D01*
X88225000Y-145777278D01*
X85975000Y-144777278D01*
X85975000Y-141177278D01*
X88225000Y-140177278D01*
X90475000Y-141177278D01*
G37*
X90475000Y-149077278D02*
X90475000Y-152677278D01*
X88225000Y-153677278D01*
X85975000Y-152677278D01*
X85975000Y-149077278D01*
X88225000Y-148077278D01*
X90475000Y-149077278D01*
G36*
X90475000Y-149077278D02*
G01*
X90475000Y-152677278D01*
X88225000Y-153677278D01*
X85975000Y-152677278D01*
X85975000Y-149077278D01*
X88225000Y-148077278D01*
X90475000Y-149077278D01*
G37*
X95990000Y-116887278D02*
X95990000Y-120487278D01*
X93740000Y-121487278D01*
X91490000Y-120487278D01*
X91490000Y-116887278D01*
X93740000Y-115887278D01*
X95990000Y-116887278D01*
G36*
X95990000Y-116887278D02*
G01*
X95990000Y-120487278D01*
X93740000Y-121487278D01*
X91490000Y-120487278D01*
X91490000Y-116887278D01*
X93740000Y-115887278D01*
X95990000Y-116887278D01*
G37*
X97075000Y-125377278D02*
X97075000Y-128977278D01*
X94825000Y-129977278D01*
X92575000Y-128977278D01*
X92575000Y-125377278D01*
X94825000Y-124377278D01*
X97075000Y-125377278D01*
G36*
X97075000Y-125377278D02*
G01*
X97075000Y-128977278D01*
X94825000Y-129977278D01*
X92575000Y-128977278D01*
X92575000Y-125377278D01*
X94825000Y-124377278D01*
X97075000Y-125377278D01*
G37*
X97075000Y-133277278D02*
X97075000Y-136877278D01*
X94825000Y-137877278D01*
X92575000Y-136877278D01*
X92575000Y-133277278D01*
X94825000Y-132277278D01*
X97075000Y-133277278D01*
G36*
X97075000Y-133277278D02*
G01*
X97075000Y-136877278D01*
X94825000Y-137877278D01*
X92575000Y-136877278D01*
X92575000Y-133277278D01*
X94825000Y-132277278D01*
X97075000Y-133277278D01*
G37*
X97075000Y-141177278D02*
X97075000Y-144777278D01*
X94825000Y-145777278D01*
X92575000Y-144777278D01*
X92575000Y-141177278D01*
X94825000Y-140177278D01*
X97075000Y-141177278D01*
G36*
X97075000Y-141177278D02*
G01*
X97075000Y-144777278D01*
X94825000Y-145777278D01*
X92575000Y-144777278D01*
X92575000Y-141177278D01*
X94825000Y-140177278D01*
X97075000Y-141177278D01*
G37*
X97075000Y-149077278D02*
X97075000Y-152677278D01*
X94825000Y-153677278D01*
X92575000Y-152677278D01*
X92575000Y-149077278D01*
X94825000Y-148077278D01*
X97075000Y-149077278D01*
G36*
X97075000Y-149077278D02*
G01*
X97075000Y-152677278D01*
X94825000Y-153677278D01*
X92575000Y-152677278D01*
X92575000Y-149077278D01*
X94825000Y-148077278D01*
X97075000Y-149077278D01*
G37*
X97075000Y-156977278D02*
X97075000Y-160577278D01*
X94825000Y-161577278D01*
X92575000Y-160577278D01*
X92575000Y-156977278D01*
X94825000Y-155977278D01*
X97075000Y-156977278D01*
G36*
X97075000Y-156977278D02*
G01*
X97075000Y-160577278D01*
X94825000Y-161577278D01*
X92575000Y-160577278D01*
X92575000Y-156977278D01*
X94825000Y-155977278D01*
X97075000Y-156977278D01*
G37*
X103675000Y-125377278D02*
X103675000Y-128977278D01*
X101425000Y-129977278D01*
X99175000Y-128977278D01*
X99175000Y-125377278D01*
X101425000Y-124377278D01*
X103675000Y-125377278D01*
G36*
X103675000Y-125377278D02*
G01*
X103675000Y-128977278D01*
X101425000Y-129977278D01*
X99175000Y-128977278D01*
X99175000Y-125377278D01*
X101425000Y-124377278D01*
X103675000Y-125377278D01*
G37*
X103675000Y-133277278D02*
X103675000Y-136877278D01*
X101425000Y-137877278D01*
X99175000Y-136877278D01*
X99175000Y-133277278D01*
X101425000Y-132277278D01*
X103675000Y-133277278D01*
G36*
X103675000Y-133277278D02*
G01*
X103675000Y-136877278D01*
X101425000Y-137877278D01*
X99175000Y-136877278D01*
X99175000Y-133277278D01*
X101425000Y-132277278D01*
X103675000Y-133277278D01*
G37*
X103675000Y-141177278D02*
X103675000Y-144777278D01*
X101425000Y-145777278D01*
X99175000Y-144777278D01*
X99175000Y-141177278D01*
X101425000Y-140177278D01*
X103675000Y-141177278D01*
G36*
X103675000Y-141177278D02*
G01*
X103675000Y-144777278D01*
X101425000Y-145777278D01*
X99175000Y-144777278D01*
X99175000Y-141177278D01*
X101425000Y-140177278D01*
X103675000Y-141177278D01*
G37*
X103675000Y-149077278D02*
X103675000Y-152677278D01*
X101425000Y-153677278D01*
X99175000Y-152677278D01*
X99175000Y-149077278D01*
X101425000Y-148077278D01*
X103675000Y-149077278D01*
G36*
X103675000Y-149077278D02*
G01*
X103675000Y-152677278D01*
X101425000Y-153677278D01*
X99175000Y-152677278D01*
X99175000Y-149077278D01*
X101425000Y-148077278D01*
X103675000Y-149077278D01*
G37*
X103675000Y-156977278D02*
X103675000Y-160577278D01*
X101425000Y-161577278D01*
X99175000Y-160577278D01*
X99175000Y-156977278D01*
X101425000Y-155977278D01*
X103675000Y-156977278D01*
G36*
X103675000Y-156977278D02*
G01*
X103675000Y-160577278D01*
X101425000Y-161577278D01*
X99175000Y-160577278D01*
X99175000Y-156977278D01*
X101425000Y-155977278D01*
X103675000Y-156977278D01*
G37*
X105665000Y-116887278D02*
X105665000Y-120487278D01*
X103415000Y-121487278D01*
X101165000Y-120487278D01*
X101165000Y-116887278D01*
X103415000Y-115887278D01*
X105665000Y-116887278D01*
G36*
X105665000Y-116887278D02*
G01*
X105665000Y-120487278D01*
X103415000Y-121487278D01*
X101165000Y-120487278D01*
X101165000Y-116887278D01*
X103415000Y-115887278D01*
X105665000Y-116887278D01*
G37*
X110275000Y-125377278D02*
X110275000Y-128977278D01*
X108025000Y-129977278D01*
X105775000Y-128977278D01*
X105775000Y-125377278D01*
X108025000Y-124377278D01*
X110275000Y-125377278D01*
G36*
X110275000Y-125377278D02*
G01*
X110275000Y-128977278D01*
X108025000Y-129977278D01*
X105775000Y-128977278D01*
X105775000Y-125377278D01*
X108025000Y-124377278D01*
X110275000Y-125377278D01*
G37*
X110275000Y-133277278D02*
X110275000Y-136877278D01*
X108025000Y-137877278D01*
X105775000Y-136877278D01*
X105775000Y-133277278D01*
X108025000Y-132277278D01*
X110275000Y-133277278D01*
G36*
X110275000Y-133277278D02*
G01*
X110275000Y-136877278D01*
X108025000Y-137877278D01*
X105775000Y-136877278D01*
X105775000Y-133277278D01*
X108025000Y-132277278D01*
X110275000Y-133277278D01*
G37*
X110275000Y-141177278D02*
X110275000Y-144777278D01*
X108025000Y-145777278D01*
X105775000Y-144777278D01*
X105775000Y-141177278D01*
X108025000Y-140177278D01*
X110275000Y-141177278D01*
G36*
X110275000Y-141177278D02*
G01*
X110275000Y-144777278D01*
X108025000Y-145777278D01*
X105775000Y-144777278D01*
X105775000Y-141177278D01*
X108025000Y-140177278D01*
X110275000Y-141177278D01*
G37*
X110275000Y-149077278D02*
X110275000Y-152677278D01*
X108025000Y-153677278D01*
X105775000Y-152677278D01*
X105775000Y-149077278D01*
X108025000Y-148077278D01*
X110275000Y-149077278D01*
G36*
X110275000Y-149077278D02*
G01*
X110275000Y-152677278D01*
X108025000Y-153677278D01*
X105775000Y-152677278D01*
X105775000Y-149077278D01*
X108025000Y-148077278D01*
X110275000Y-149077278D01*
G37*
X110275000Y-156977278D02*
X110275000Y-160577278D01*
X108025000Y-161577278D01*
X105775000Y-160577278D01*
X105775000Y-156977278D01*
X108025000Y-155977278D01*
X110275000Y-156977278D01*
G36*
X110275000Y-156977278D02*
G01*
X110275000Y-160577278D01*
X108025000Y-161577278D01*
X105775000Y-160577278D01*
X105775000Y-156977278D01*
X108025000Y-155977278D01*
X110275000Y-156977278D01*
G37*
X115340000Y-116887278D02*
X115340000Y-120487278D01*
X113090000Y-121487278D01*
X110840000Y-120487278D01*
X110840000Y-116887278D01*
X113090000Y-115887278D01*
X115340000Y-116887278D01*
G36*
X115340000Y-116887278D02*
G01*
X115340000Y-120487278D01*
X113090000Y-121487278D01*
X110840000Y-120487278D01*
X110840000Y-116887278D01*
X113090000Y-115887278D01*
X115340000Y-116887278D01*
G37*
X116875000Y-125377278D02*
X116875000Y-128977278D01*
X114625000Y-129977278D01*
X112375000Y-128977278D01*
X112375000Y-125377278D01*
X114625000Y-124377278D01*
X116875000Y-125377278D01*
G36*
X116875000Y-125377278D02*
G01*
X116875000Y-128977278D01*
X114625000Y-129977278D01*
X112375000Y-128977278D01*
X112375000Y-125377278D01*
X114625000Y-124377278D01*
X116875000Y-125377278D01*
G37*
X116875000Y-133277278D02*
X116875000Y-136877278D01*
X114625000Y-137877278D01*
X112375000Y-136877278D01*
X112375000Y-133277278D01*
X114625000Y-132277278D01*
X116875000Y-133277278D01*
G36*
X116875000Y-133277278D02*
G01*
X116875000Y-136877278D01*
X114625000Y-137877278D01*
X112375000Y-136877278D01*
X112375000Y-133277278D01*
X114625000Y-132277278D01*
X116875000Y-133277278D01*
G37*
X116875000Y-141177278D02*
X116875000Y-144777278D01*
X114625000Y-145777278D01*
X112375000Y-144777278D01*
X112375000Y-141177278D01*
X114625000Y-140177278D01*
X116875000Y-141177278D01*
G36*
X116875000Y-141177278D02*
G01*
X116875000Y-144777278D01*
X114625000Y-145777278D01*
X112375000Y-144777278D01*
X112375000Y-141177278D01*
X114625000Y-140177278D01*
X116875000Y-141177278D01*
G37*
X116875000Y-149077278D02*
X116875000Y-152677278D01*
X114625000Y-153677278D01*
X112375000Y-152677278D01*
X112375000Y-149077278D01*
X114625000Y-148077278D01*
X116875000Y-149077278D01*
G36*
X116875000Y-149077278D02*
G01*
X116875000Y-152677278D01*
X114625000Y-153677278D01*
X112375000Y-152677278D01*
X112375000Y-149077278D01*
X114625000Y-148077278D01*
X116875000Y-149077278D01*
G37*
X116875000Y-156977278D02*
X116875000Y-160577278D01*
X114625000Y-161577278D01*
X112375000Y-160577278D01*
X112375000Y-156977278D01*
X114625000Y-155977278D01*
X116875000Y-156977278D01*
G36*
X116875000Y-156977278D02*
G01*
X116875000Y-160577278D01*
X114625000Y-161577278D01*
X112375000Y-160577278D01*
X112375000Y-156977278D01*
X114625000Y-155977278D01*
X116875000Y-156977278D01*
G37*
G04 #@! TD*
D12*
G04 #@! TO.C,D22*
X102623800Y-111705400D03*
X105793800Y-111705400D03*
G04 #@! TD*
D13*
G04 #@! TO.C,TP4*
X32000000Y-45000000D03*
G04 #@! TD*
D12*
G04 #@! TO.C,D20*
X58808800Y-111705400D03*
X61978800Y-111705400D03*
G04 #@! TD*
D13*
G04 #@! TO.C,TP1*
X32000000Y-37500000D03*
G04 #@! TD*
G04 #@! TO.C,TP2*
X32000000Y-40000000D03*
G04 #@! TD*
D12*
G04 #@! TO.C,D15*
X48635000Y-165635400D03*
X45465000Y-165635400D03*
G04 #@! TD*
D14*
G04 #@! TO.C,D9*
X83500000Y-30780000D03*
X83500000Y-29000000D03*
X80220000Y-29000000D03*
X80220000Y-30780000D03*
G04 #@! TD*
D13*
G04 #@! TO.C,TP3*
X32000000Y-42500000D03*
G04 #@! TD*
D12*
G04 #@! TO.C,D21*
X88008800Y-111700400D03*
X91178800Y-111700400D03*
G04 #@! TD*
D15*
G04 #@! TO.C,U14*
X36965000Y-116187278D03*
D16*
X36965698Y-121182000D03*
D17*
X36965000Y-118687278D03*
D16*
X46635698Y-121182000D03*
D15*
X46640000Y-116187278D03*
D17*
X46640000Y-118687278D03*
D15*
X56315000Y-116187278D03*
D16*
X56315698Y-121182000D03*
D17*
X56315000Y-118687278D03*
D15*
X65990000Y-116187278D03*
D16*
X65995698Y-121182000D03*
D17*
X65990000Y-118687278D03*
D15*
X84065000Y-116187278D03*
D16*
X84065698Y-121182000D03*
D17*
X84065000Y-118687278D03*
D16*
X93735698Y-121182000D03*
D15*
X93740000Y-116187278D03*
D17*
X93740000Y-118687278D03*
D15*
X103415000Y-116187278D03*
D16*
X103415698Y-121182000D03*
D17*
X103415000Y-118687278D03*
D16*
X113085698Y-121182000D03*
D15*
X113090000Y-116187278D03*
D17*
X113090000Y-118687278D03*
D15*
X35425000Y-124677278D03*
D16*
X35425698Y-129672000D03*
D17*
X35425000Y-127177278D03*
D15*
X42025000Y-124677278D03*
D16*
X42025698Y-129672000D03*
D17*
X42025000Y-127177278D03*
D15*
X48625000Y-124677278D03*
D16*
X48625698Y-129672000D03*
D17*
X48625000Y-127177278D03*
D15*
X55225000Y-124677278D03*
D16*
X55225698Y-129672000D03*
D17*
X55225000Y-127177278D03*
D15*
X61825000Y-124677278D03*
D16*
X61825698Y-129672000D03*
D17*
X61825000Y-127177278D03*
D15*
X68425000Y-124677278D03*
D16*
X68425698Y-129672000D03*
D17*
X68425000Y-127177278D03*
D15*
X75025000Y-124677278D03*
D16*
X75025698Y-129672000D03*
D17*
X75025000Y-127177278D03*
D15*
X81625000Y-124677278D03*
D16*
X81625698Y-129672000D03*
D17*
X81625000Y-127177278D03*
D15*
X88225000Y-124677278D03*
D16*
X88225698Y-129672000D03*
D17*
X88225000Y-127177278D03*
D15*
X94825000Y-124677278D03*
D16*
X94825698Y-129672000D03*
D17*
X94825000Y-127177278D03*
D15*
X101425000Y-124677278D03*
D16*
X101425698Y-129672000D03*
D17*
X101425000Y-127177278D03*
D15*
X108025000Y-124677278D03*
D16*
X108025698Y-129672000D03*
D17*
X108025000Y-127177278D03*
D15*
X114625000Y-124677278D03*
D16*
X114625698Y-129672000D03*
D17*
X114625000Y-127177278D03*
D15*
X35425000Y-132577278D03*
D16*
X35425698Y-137572000D03*
D17*
X35425000Y-135077278D03*
D15*
X42025000Y-132577278D03*
D16*
X42025698Y-137572000D03*
D17*
X42025000Y-135077278D03*
D15*
X48625000Y-132577278D03*
D16*
X48625698Y-137572000D03*
D17*
X48625000Y-135077278D03*
D15*
X55225000Y-132577278D03*
D16*
X55225698Y-137572000D03*
D17*
X55225000Y-135077278D03*
D15*
X61825000Y-132577278D03*
D16*
X61825698Y-137572000D03*
D17*
X61825000Y-135077278D03*
D15*
X68425000Y-132577278D03*
D16*
X68425698Y-137572000D03*
D17*
X68425000Y-135077278D03*
D15*
X75025000Y-132577278D03*
D16*
X75025698Y-137572000D03*
D17*
X75025000Y-135077278D03*
D15*
X81625000Y-132577278D03*
D16*
X81625698Y-137572000D03*
D17*
X81625000Y-135077278D03*
D15*
X88225000Y-132577278D03*
D16*
X88225698Y-137572000D03*
D17*
X88225000Y-135077278D03*
D15*
X94825000Y-132577278D03*
D16*
X94825698Y-137572000D03*
D17*
X94825000Y-135077278D03*
D15*
X101425000Y-132577278D03*
D16*
X101425698Y-137572000D03*
D17*
X101425000Y-135077278D03*
D15*
X108025000Y-132577278D03*
D16*
X108025698Y-137572000D03*
D17*
X108025000Y-135077278D03*
D15*
X114625000Y-132577278D03*
D16*
X114625698Y-137572000D03*
D17*
X114625000Y-135077278D03*
D15*
X35425000Y-140477278D03*
D16*
X35425698Y-145472000D03*
D17*
X35425000Y-142977278D03*
D15*
X42025000Y-140477278D03*
D16*
X42025698Y-145472000D03*
D17*
X42025000Y-142977278D03*
D15*
X48625000Y-140477278D03*
D16*
X48625698Y-145472000D03*
D17*
X48625000Y-142977278D03*
D15*
X55225000Y-140477278D03*
D16*
X55225698Y-145472000D03*
D17*
X55225000Y-142977278D03*
D15*
X61825000Y-140477278D03*
D16*
X61825698Y-145472000D03*
D17*
X61825000Y-142977278D03*
D15*
X68425000Y-140477278D03*
D16*
X68425698Y-145472000D03*
D17*
X68425000Y-142977278D03*
D15*
X75025000Y-140477278D03*
D16*
X75025698Y-145472000D03*
D17*
X75025000Y-142977278D03*
D15*
X81625000Y-140477278D03*
D16*
X81625698Y-145472000D03*
D17*
X81625000Y-142977278D03*
D15*
X88225000Y-140477278D03*
D16*
X88225698Y-145472000D03*
D17*
X88225000Y-142977278D03*
D15*
X94825000Y-140477278D03*
D16*
X94825698Y-145472000D03*
D17*
X94825000Y-142977278D03*
D15*
X101425000Y-140477278D03*
D16*
X101425698Y-145472000D03*
D17*
X101425000Y-142977278D03*
D15*
X108025000Y-140477278D03*
D16*
X108025698Y-145472000D03*
D17*
X108025000Y-142977278D03*
D15*
X114625000Y-140477278D03*
D16*
X114625698Y-145472000D03*
D17*
X114625000Y-142977278D03*
D15*
X35425000Y-148377278D03*
D16*
X35425698Y-153372000D03*
D17*
X35425000Y-150877278D03*
D15*
X42025000Y-148377278D03*
D16*
X42025698Y-153372000D03*
D17*
X42025000Y-150877278D03*
D15*
X48625000Y-148377278D03*
D16*
X48625698Y-153372000D03*
D17*
X48625000Y-150877278D03*
D15*
X55225000Y-148377278D03*
D16*
X55225698Y-153372000D03*
D17*
X55225000Y-150877278D03*
D15*
X61825000Y-148377278D03*
D16*
X61825698Y-153372000D03*
D17*
X61825000Y-150877278D03*
D15*
X68425000Y-148377278D03*
D16*
X68425698Y-153372000D03*
D17*
X68425000Y-150877278D03*
D15*
X75025000Y-148377278D03*
D16*
X75025698Y-153372000D03*
D17*
X75025000Y-150877278D03*
D15*
X81625000Y-148377278D03*
D16*
X81625698Y-153372000D03*
D17*
X81625000Y-150877278D03*
D15*
X88225000Y-148377278D03*
D16*
X88225698Y-153372000D03*
D17*
X88225000Y-150877278D03*
D15*
X94825000Y-148377278D03*
D16*
X94825698Y-153372000D03*
D17*
X94825000Y-150877278D03*
D15*
X101425000Y-148377278D03*
D16*
X101425698Y-153372000D03*
D17*
X101425000Y-150877278D03*
D15*
X108025000Y-148377278D03*
D16*
X108025698Y-153372000D03*
D17*
X108025000Y-150877278D03*
D15*
X114625000Y-148377278D03*
D16*
X114625698Y-153372000D03*
D17*
X114625000Y-150877278D03*
D15*
X35425000Y-156277278D03*
D16*
X35425698Y-161272000D03*
D17*
X35425000Y-158777278D03*
D15*
X42025000Y-156277278D03*
D16*
X42025698Y-161272000D03*
D17*
X42025000Y-158777278D03*
D15*
X48625000Y-156277278D03*
D16*
X48625698Y-161272000D03*
D17*
X48625000Y-158777278D03*
D15*
X55225000Y-156277278D03*
D16*
X55225698Y-161272000D03*
D17*
X55225000Y-158777278D03*
D15*
X65125000Y-156277278D03*
D16*
X65125698Y-161272000D03*
D17*
X65125000Y-158777278D03*
D15*
X75025000Y-156277278D03*
D16*
X75025698Y-161272000D03*
D17*
X75025000Y-158777278D03*
D15*
X84925000Y-156277278D03*
D16*
X84925698Y-161272000D03*
D17*
X84925000Y-158777278D03*
D15*
X94825000Y-156277278D03*
D16*
X94825698Y-161272000D03*
D17*
X94825000Y-158777278D03*
D15*
X101425000Y-156277278D03*
D16*
X101425698Y-161272000D03*
D17*
X101425000Y-158777278D03*
D15*
X108025000Y-156277278D03*
D16*
X108025698Y-161272000D03*
D17*
X108025000Y-158777278D03*
D15*
X114625000Y-156277278D03*
D16*
X114625698Y-161272000D03*
D17*
X114625000Y-158777278D03*
G04 #@! TD*
D13*
G04 #@! TO.C,TP5*
X32000000Y-47500000D03*
G04 #@! TD*
D12*
G04 #@! TO.C,D19*
X44218552Y-111702939D03*
X47388552Y-111702939D03*
G04 #@! TD*
G04 #@! TO.C,D16*
X62643800Y-165635400D03*
X59473800Y-165635400D03*
G04 #@! TD*
G04 #@! TO.C,D18*
X104493800Y-165635400D03*
X101323800Y-165635400D03*
G04 #@! TD*
D14*
G04 #@! TO.C,D11*
X110900000Y-30780000D03*
X110900000Y-29000000D03*
X107620000Y-29000000D03*
X107620000Y-30780000D03*
G04 #@! TD*
G04 #@! TO.C,D10*
X97200000Y-30780000D03*
X97200000Y-29000000D03*
X93920000Y-29000000D03*
X93920000Y-30780000D03*
G04 #@! TD*
G04 #@! TO.C,D12*
X69800000Y-30780000D03*
X69800000Y-29000000D03*
X66520000Y-29000000D03*
X66520000Y-30780000D03*
G04 #@! TD*
D12*
G04 #@! TO.C,D17*
X90643800Y-165635400D03*
X87473800Y-165635400D03*
G04 #@! TD*
D14*
G04 #@! TO.C,D23*
X56100000Y-30780000D03*
X56100000Y-29000000D03*
X52820000Y-29000000D03*
X52820000Y-30780000D03*
G04 #@! TD*
G04 #@! TO.C,D24*
X42400000Y-30780000D03*
X42400000Y-29000000D03*
X39120000Y-29000000D03*
X39120000Y-30780000D03*
G04 #@! TD*
D18*
G04 #@! TO.C,J8*
X79320000Y-172050000D03*
D19*
X79320000Y-167870000D03*
D18*
X70680000Y-172050000D03*
D19*
X70680000Y-167870000D03*
G04 #@! TD*
D20*
G04 #@! TO.C,H5*
X75000000Y-109500000D03*
G04 #@! TD*
D21*
G04 #@! TO.C,PWR_BUTTON1*
X118010000Y-54000000D03*
X118010000Y-58700000D03*
G04 #@! TD*
D22*
G04 #@! TO.C,J1*
X32950000Y-59320000D03*
D23*
X37130000Y-59320000D03*
D22*
X32950000Y-50680000D03*
D23*
X37130000Y-50680000D03*
G04 #@! TD*
D24*
G04 #@! TO.C,J5*
X116000000Y-40000000D03*
X113460000Y-42540000D03*
X113460000Y-37460000D03*
X118540000Y-37460000D03*
X118540000Y-42540000D03*
G04 #@! TD*
M02*
