G04 #@! TF.GenerationSoftware,KiCad,Pcbnew,9.0.2*
G04 #@! TF.CreationDate,2025-06-10T20:13:00+02:00*
G04 #@! TF.ProjectId,badgeCarrierCard,62616467-6543-4617-9272-696572436172,V2.5*
G04 #@! TF.SameCoordinates,Original*
G04 #@! TF.FileFunction,Profile,NP*
%FSLAX46Y46*%
G04 Gerber Fmt 4.6, Leading zero omitted, Abs format (unit mm)*
G04 Created by KiCad (PCBNEW 9.0.2) date 2025-06-10 20:13:00*
%MOMM*%
%LPD*%
G01*
G04 APERTURE LIST*
G04 #@! TA.AperFunction,Profile*
%ADD10C,0.050000*%
G04 #@! TD*
G04 #@! TA.AperFunction,Profile*
%ADD11C,0.100000*%
G04 #@! TD*
G04 #@! TA.AperFunction,Profile*
%ADD12C,0.010000*%
G04 #@! TD*
G04 APERTURE END LIST*
D10*
X117500000Y-27000000D02*
X32500000Y-27000000D01*
X32500000Y-175000000D02*
G75*
G02*
X30000000Y-172500000I0J2500000D01*
G01*
X54600000Y-170400000D02*
G75*
G02*
X54600000Y-172400000I0J-1000000D01*
G01*
X30000000Y-29500000D02*
G75*
G02*
X32500000Y-27000000I2500000J0D01*
G01*
X95400000Y-172400000D02*
G75*
G02*
X95400000Y-170400000I0J1000000D01*
G01*
X120000000Y-172500000D02*
X120000000Y-29500000D01*
X51600000Y-170400000D02*
X54600000Y-170400000D01*
X120000000Y-172500000D02*
G75*
G02*
X117500000Y-175000000I-2500000J0D01*
G01*
X95400000Y-170400000D02*
X98400000Y-170400000D01*
X51600000Y-172400000D02*
G75*
G02*
X51600000Y-170400000I0J1000000D01*
G01*
X95400000Y-172400000D02*
X98400000Y-172400000D01*
X117500000Y-27000000D02*
G75*
G02*
X120000000Y-29500000I0J-2500000D01*
G01*
X51600000Y-172400000D02*
X54600000Y-172400000D01*
X32500000Y-175000000D02*
X117500000Y-175000000D01*
X30000000Y-29500000D02*
X30000000Y-172500000D01*
X98400000Y-170400000D02*
G75*
G02*
X98400000Y-172400000I0J-1000000D01*
G01*
G04 #@! TO.C,REF\u002A\u002A*
X45935000Y-62585000D02*
X45935000Y-79585000D01*
X48935000Y-79585000D02*
X48935000Y-62585000D01*
X45935000Y-62585000D02*
G75*
G02*
X48935000Y-62585000I1500000J0D01*
G01*
X48935000Y-79585000D02*
G75*
G02*
X45935000Y-79585000I-1500000J0D01*
G01*
D11*
G04 #@! TO.C,U14*
X33775000Y-114037276D02*
G75*
G02*
X32475000Y-114037276I-650000J0D01*
G01*
X32475000Y-114037276D02*
G75*
G02*
X33775000Y-114037276I650000J0D01*
G01*
X65725000Y-139027278D02*
G75*
G02*
X64525000Y-139027278I-600000J0D01*
G01*
X64525000Y-139027278D02*
G75*
G02*
X65725000Y-139027278I600000J0D01*
G01*
X85525000Y-139027278D02*
G75*
G02*
X84325000Y-139027278I-600000J0D01*
G01*
X84325000Y-139027278D02*
G75*
G02*
X85525000Y-139027278I600000J0D01*
G01*
X117525000Y-163337278D02*
G75*
G02*
X116225000Y-163337278I-650000J0D01*
G01*
X116225000Y-163337278D02*
G75*
G02*
X117525000Y-163337278I650000J0D01*
G01*
D12*
G04 #@! TO.C,PWR_BUTTON1*
X118494543Y-55159611D02*
X118494543Y-57559611D01*
X118594785Y-58259611D02*
X119844543Y-58259611D01*
X119844543Y-54459611D02*
X118596571Y-54459611D01*
X119844543Y-58259611D02*
X119844543Y-54459611D01*
X118494543Y-55159612D02*
G75*
G02*
X118596571Y-54458283I400126J299876D01*
G01*
X118594784Y-58259611D02*
G75*
G02*
X118494542Y-57559610I299876J400121D01*
G01*
G04 #@! TD*
M02*
