%TF.GenerationSoftware,KiCad,Pcbnew,9.0.2*%
%TF.CreationDate,2025-06-03T16:38:34+02:00*%
%TF.ProjectId,badgeCarrierCard,62616467-6543-4617-9272-696572436172,rev?*%
%TF.SameCoordinates,Original*%
%TF.FileFunction,Drillmap*%
%TF.FilePolarity,Positive*%
%FSLAX45Y45*%
G04 Gerber Fmt 4.5, Leading zero omitted, Abs format (unit mm)*
G04 Created by KiCad (PCBNEW 9.0.2) date 2025-06-03 16:38:34*
%MOMM*%
%LPD*%
G01*
G04 APERTURE LIST*
%ADD10C,0.050000*%
%ADD11C,0.100000*%
%ADD12C,0.010000*%
%ADD13C,0.200000*%
%ADD14C,0.115000*%
%ADD15C,0.165000*%
%ADD16C,0.220000*%
%ADD17C,0.239000*%
G04 APERTURE END LIST*
D10*
X11750000Y-3000000D02*
X3250000Y-3000000D01*
X3250000Y-17500000D02*
G75*
G02*
X3000000Y-17250000I0J250000D01*
G01*
X5460000Y-17040000D02*
G75*
G02*
X5460000Y-17240000I0J-100000D01*
G01*
X3000000Y-3250000D02*
G75*
G02*
X3250000Y-3000000I250000J0D01*
G01*
X9540000Y-17240000D02*
G75*
G02*
X9540000Y-17040000I0J100000D01*
G01*
X12000000Y-17250000D02*
X12000000Y-3250000D01*
X5160000Y-17040000D02*
X5460000Y-17040000D01*
X12000000Y-17250000D02*
G75*
G02*
X11750000Y-17500000I-250000J0D01*
G01*
X9540000Y-17040000D02*
X9840000Y-17040000D01*
X5160000Y-17240000D02*
G75*
G02*
X5160000Y-17040000I0J100000D01*
G01*
X9540000Y-17240000D02*
X9840000Y-17240000D01*
X11750000Y-3000000D02*
G75*
G02*
X12000000Y-3250000I0J-250000D01*
G01*
X5160000Y-17240000D02*
X5460000Y-17240000D01*
X3250000Y-17500000D02*
X11750000Y-17500000D01*
X3000000Y-3250000D02*
X3000000Y-17250000D01*
X9840000Y-17040000D02*
G75*
G02*
X9840000Y-17240000I0J-100000D01*
G01*
X4593500Y-6258500D02*
X4593500Y-7958500D01*
X4893500Y-7958500D02*
X4893500Y-6258500D01*
X4593500Y-6258500D02*
G75*
G02*
X4893500Y-6258500I150000J0D01*
G01*
X4893500Y-7958500D02*
G75*
G02*
X4593500Y-7958500I-150000J0D01*
G01*
D11*
X3377500Y-11403728D02*
G75*
G02*
X3247500Y-11403728I-65000J0D01*
G01*
X3247500Y-11403728D02*
G75*
G02*
X3377500Y-11403728I65000J0D01*
G01*
X6572500Y-13902728D02*
G75*
G02*
X6452500Y-13902728I-60000J0D01*
G01*
X6452500Y-13902728D02*
G75*
G02*
X6572500Y-13902728I60000J0D01*
G01*
X8552500Y-13902728D02*
G75*
G02*
X8432500Y-13902728I-60000J0D01*
G01*
X8432500Y-13902728D02*
G75*
G02*
X8552500Y-13902728I60000J0D01*
G01*
X11752500Y-16333728D02*
G75*
G02*
X11622500Y-16333728I-65000J0D01*
G01*
X11622500Y-16333728D02*
G75*
G02*
X11752500Y-16333728I65000J0D01*
G01*
D12*
X11841000Y-5515000D02*
X11841000Y-5755000D01*
X11911000Y-5825000D02*
X11976000Y-5825000D01*
X11976000Y-5445000D02*
X11911000Y-5445000D01*
X11976000Y-5825000D02*
X11976000Y-5445000D01*
X11841000Y-5515000D02*
G75*
G02*
X11911000Y-5445000I40012J29988D01*
G01*
X11911000Y-5825000D02*
G75*
G02*
X11841000Y-5755000I-29988J40012D01*
G01*
D13*
D11*
X3627500Y-5178500D02*
X3692500Y-5243500D01*
X3692500Y-5178500D02*
X3627500Y-5243500D01*
X3627500Y-5756500D02*
X3692500Y-5821500D01*
X3692500Y-5756500D02*
X3627500Y-5821500D01*
X7178500Y-16807500D02*
X7243500Y-16872500D01*
X7243500Y-16807500D02*
X7178500Y-16872500D01*
X7756500Y-16807500D02*
X7821500Y-16872500D01*
X7821500Y-16807500D02*
X7756500Y-16872500D01*
D14*
X8557500Y-6920800D02*
G75*
G02*
X8442500Y-6920800I-57500J0D01*
G01*
X8442500Y-6920800D02*
G75*
G02*
X8557500Y-6920800I57500J0D01*
G01*
D15*
X6500000Y-6838300D02*
X6500000Y-7003300D01*
X6417500Y-6920800D02*
X6582500Y-6920800D01*
D16*
X3377782Y-3377782D02*
X3377782Y-3222217D01*
X3222217Y-3222217D01*
X3222217Y-3377782D01*
X3377782Y-3377782D01*
X3377782Y-17277783D02*
X3377782Y-17122218D01*
X3222217Y-17122218D01*
X3222217Y-17277783D01*
X3377782Y-17277783D01*
X11777782Y-3377782D02*
X11777782Y-3222217D01*
X11622217Y-3222217D01*
X11622217Y-3377782D01*
X11777782Y-3377782D01*
X11777782Y-17277783D02*
X11777782Y-17122218D01*
X11622217Y-17122218D01*
X11622217Y-17277783D01*
X11777782Y-17277783D01*
D17*
X3400000Y-9537500D02*
X3519500Y-9418000D01*
X3400000Y-9298500D01*
X3280500Y-9418000D01*
X3400000Y-9537500D01*
X10000000Y-9537500D02*
X10119500Y-9418000D01*
X10000000Y-9298500D01*
X9880500Y-9418000D01*
X10000000Y-9537500D01*
D13*
X3258277Y-17813984D02*
X3258277Y-17613984D01*
X3258277Y-17613984D02*
X3305896Y-17613984D01*
X3305896Y-17613984D02*
X3334467Y-17623508D01*
X3334467Y-17623508D02*
X3353515Y-17642555D01*
X3353515Y-17642555D02*
X3363039Y-17661603D01*
X3363039Y-17661603D02*
X3372562Y-17699698D01*
X3372562Y-17699698D02*
X3372562Y-17728270D01*
X3372562Y-17728270D02*
X3363039Y-17766365D01*
X3363039Y-17766365D02*
X3353515Y-17785412D01*
X3353515Y-17785412D02*
X3334467Y-17804460D01*
X3334467Y-17804460D02*
X3305896Y-17813984D01*
X3305896Y-17813984D02*
X3258277Y-17813984D01*
X3458277Y-17813984D02*
X3458277Y-17680650D01*
X3458277Y-17718746D02*
X3467801Y-17699698D01*
X3467801Y-17699698D02*
X3477324Y-17690174D01*
X3477324Y-17690174D02*
X3496372Y-17680650D01*
X3496372Y-17680650D02*
X3515420Y-17680650D01*
X3582086Y-17813984D02*
X3582086Y-17680650D01*
X3582086Y-17613984D02*
X3572562Y-17623508D01*
X3572562Y-17623508D02*
X3582086Y-17633031D01*
X3582086Y-17633031D02*
X3591610Y-17623508D01*
X3591610Y-17623508D02*
X3582086Y-17613984D01*
X3582086Y-17613984D02*
X3582086Y-17633031D01*
X3705896Y-17813984D02*
X3686848Y-17804460D01*
X3686848Y-17804460D02*
X3677324Y-17785412D01*
X3677324Y-17785412D02*
X3677324Y-17613984D01*
X3810658Y-17813984D02*
X3791610Y-17804460D01*
X3791610Y-17804460D02*
X3782086Y-17785412D01*
X3782086Y-17785412D02*
X3782086Y-17613984D01*
X4039229Y-17813984D02*
X4039229Y-17613984D01*
X4039229Y-17613984D02*
X4105896Y-17756841D01*
X4105896Y-17756841D02*
X4172562Y-17613984D01*
X4172562Y-17613984D02*
X4172562Y-17813984D01*
X4353515Y-17813984D02*
X4353515Y-17709222D01*
X4353515Y-17709222D02*
X4343991Y-17690174D01*
X4343991Y-17690174D02*
X4324944Y-17680650D01*
X4324944Y-17680650D02*
X4286848Y-17680650D01*
X4286848Y-17680650D02*
X4267801Y-17690174D01*
X4353515Y-17804460D02*
X4334467Y-17813984D01*
X4334467Y-17813984D02*
X4286848Y-17813984D01*
X4286848Y-17813984D02*
X4267801Y-17804460D01*
X4267801Y-17804460D02*
X4258277Y-17785412D01*
X4258277Y-17785412D02*
X4258277Y-17766365D01*
X4258277Y-17766365D02*
X4267801Y-17747317D01*
X4267801Y-17747317D02*
X4286848Y-17737793D01*
X4286848Y-17737793D02*
X4334467Y-17737793D01*
X4334467Y-17737793D02*
X4353515Y-17728270D01*
X4448753Y-17680650D02*
X4448753Y-17880650D01*
X4448753Y-17690174D02*
X4467801Y-17680650D01*
X4467801Y-17680650D02*
X4505896Y-17680650D01*
X4505896Y-17680650D02*
X4524944Y-17690174D01*
X4524944Y-17690174D02*
X4534467Y-17699698D01*
X4534467Y-17699698D02*
X4543991Y-17718746D01*
X4543991Y-17718746D02*
X4543991Y-17775889D01*
X4543991Y-17775889D02*
X4534467Y-17794936D01*
X4534467Y-17794936D02*
X4524944Y-17804460D01*
X4524944Y-17804460D02*
X4505896Y-17813984D01*
X4505896Y-17813984D02*
X4467801Y-17813984D01*
X4467801Y-17813984D02*
X4448753Y-17804460D01*
X4629705Y-17794936D02*
X4639229Y-17804460D01*
X4639229Y-17804460D02*
X4629705Y-17813984D01*
X4629705Y-17813984D02*
X4620182Y-17804460D01*
X4620182Y-17804460D02*
X4629705Y-17794936D01*
X4629705Y-17794936D02*
X4629705Y-17813984D01*
X4629705Y-17690174D02*
X4639229Y-17699698D01*
X4639229Y-17699698D02*
X4629705Y-17709222D01*
X4629705Y-17709222D02*
X4620182Y-17699698D01*
X4620182Y-17699698D02*
X4629705Y-17690174D01*
X4629705Y-17690174D02*
X4629705Y-17709222D01*
D11*
X2932500Y-18110000D02*
X2997500Y-18175000D01*
X2997500Y-18110000D02*
X2932500Y-18175000D01*
D13*
X3296372Y-18033984D02*
X3315420Y-18033984D01*
X3315420Y-18033984D02*
X3334467Y-18043508D01*
X3334467Y-18043508D02*
X3343991Y-18053031D01*
X3343991Y-18053031D02*
X3353515Y-18072079D01*
X3353515Y-18072079D02*
X3363039Y-18110174D01*
X3363039Y-18110174D02*
X3363039Y-18157793D01*
X3363039Y-18157793D02*
X3353515Y-18195889D01*
X3353515Y-18195889D02*
X3343991Y-18214936D01*
X3343991Y-18214936D02*
X3334467Y-18224460D01*
X3334467Y-18224460D02*
X3315420Y-18233984D01*
X3315420Y-18233984D02*
X3296372Y-18233984D01*
X3296372Y-18233984D02*
X3277324Y-18224460D01*
X3277324Y-18224460D02*
X3267801Y-18214936D01*
X3267801Y-18214936D02*
X3258277Y-18195889D01*
X3258277Y-18195889D02*
X3248753Y-18157793D01*
X3248753Y-18157793D02*
X3248753Y-18110174D01*
X3248753Y-18110174D02*
X3258277Y-18072079D01*
X3258277Y-18072079D02*
X3267801Y-18053031D01*
X3267801Y-18053031D02*
X3277324Y-18043508D01*
X3277324Y-18043508D02*
X3296372Y-18033984D01*
X3448753Y-18214936D02*
X3458277Y-18224460D01*
X3458277Y-18224460D02*
X3448753Y-18233984D01*
X3448753Y-18233984D02*
X3439229Y-18224460D01*
X3439229Y-18224460D02*
X3448753Y-18214936D01*
X3448753Y-18214936D02*
X3448753Y-18233984D01*
X3629705Y-18033984D02*
X3591610Y-18033984D01*
X3591610Y-18033984D02*
X3572562Y-18043508D01*
X3572562Y-18043508D02*
X3563039Y-18053031D01*
X3563039Y-18053031D02*
X3543991Y-18081603D01*
X3543991Y-18081603D02*
X3534467Y-18119698D01*
X3534467Y-18119698D02*
X3534467Y-18195889D01*
X3534467Y-18195889D02*
X3543991Y-18214936D01*
X3543991Y-18214936D02*
X3553515Y-18224460D01*
X3553515Y-18224460D02*
X3572562Y-18233984D01*
X3572562Y-18233984D02*
X3610658Y-18233984D01*
X3610658Y-18233984D02*
X3629705Y-18224460D01*
X3629705Y-18224460D02*
X3639229Y-18214936D01*
X3639229Y-18214936D02*
X3648753Y-18195889D01*
X3648753Y-18195889D02*
X3648753Y-18148270D01*
X3648753Y-18148270D02*
X3639229Y-18129222D01*
X3639229Y-18129222D02*
X3629705Y-18119698D01*
X3629705Y-18119698D02*
X3610658Y-18110174D01*
X3610658Y-18110174D02*
X3572562Y-18110174D01*
X3572562Y-18110174D02*
X3553515Y-18119698D01*
X3553515Y-18119698D02*
X3543991Y-18129222D01*
X3543991Y-18129222D02*
X3534467Y-18148270D01*
X3829705Y-18033984D02*
X3734467Y-18033984D01*
X3734467Y-18033984D02*
X3724943Y-18129222D01*
X3724943Y-18129222D02*
X3734467Y-18119698D01*
X3734467Y-18119698D02*
X3753515Y-18110174D01*
X3753515Y-18110174D02*
X3801134Y-18110174D01*
X3801134Y-18110174D02*
X3820182Y-18119698D01*
X3820182Y-18119698D02*
X3829705Y-18129222D01*
X3829705Y-18129222D02*
X3839229Y-18148270D01*
X3839229Y-18148270D02*
X3839229Y-18195889D01*
X3839229Y-18195889D02*
X3829705Y-18214936D01*
X3829705Y-18214936D02*
X3820182Y-18224460D01*
X3820182Y-18224460D02*
X3801134Y-18233984D01*
X3801134Y-18233984D02*
X3753515Y-18233984D01*
X3753515Y-18233984D02*
X3734467Y-18224460D01*
X3734467Y-18224460D02*
X3724943Y-18214936D01*
X3963039Y-18033984D02*
X3982086Y-18033984D01*
X3982086Y-18033984D02*
X4001134Y-18043508D01*
X4001134Y-18043508D02*
X4010658Y-18053031D01*
X4010658Y-18053031D02*
X4020182Y-18072079D01*
X4020182Y-18072079D02*
X4029705Y-18110174D01*
X4029705Y-18110174D02*
X4029705Y-18157793D01*
X4029705Y-18157793D02*
X4020182Y-18195889D01*
X4020182Y-18195889D02*
X4010658Y-18214936D01*
X4010658Y-18214936D02*
X4001134Y-18224460D01*
X4001134Y-18224460D02*
X3982086Y-18233984D01*
X3982086Y-18233984D02*
X3963039Y-18233984D01*
X3963039Y-18233984D02*
X3943991Y-18224460D01*
X3943991Y-18224460D02*
X3934467Y-18214936D01*
X3934467Y-18214936D02*
X3924943Y-18195889D01*
X3924943Y-18195889D02*
X3915420Y-18157793D01*
X3915420Y-18157793D02*
X3915420Y-18110174D01*
X3915420Y-18110174D02*
X3924943Y-18072079D01*
X3924943Y-18072079D02*
X3934467Y-18053031D01*
X3934467Y-18053031D02*
X3943991Y-18043508D01*
X3943991Y-18043508D02*
X3963039Y-18033984D01*
X4115420Y-18233984D02*
X4115420Y-18100650D01*
X4115420Y-18119698D02*
X4124943Y-18110174D01*
X4124943Y-18110174D02*
X4143991Y-18100650D01*
X4143991Y-18100650D02*
X4172563Y-18100650D01*
X4172563Y-18100650D02*
X4191610Y-18110174D01*
X4191610Y-18110174D02*
X4201134Y-18129222D01*
X4201134Y-18129222D02*
X4201134Y-18233984D01*
X4201134Y-18129222D02*
X4210658Y-18110174D01*
X4210658Y-18110174D02*
X4229705Y-18100650D01*
X4229705Y-18100650D02*
X4258277Y-18100650D01*
X4258277Y-18100650D02*
X4277325Y-18110174D01*
X4277325Y-18110174D02*
X4286848Y-18129222D01*
X4286848Y-18129222D02*
X4286848Y-18233984D01*
X4382086Y-18233984D02*
X4382086Y-18100650D01*
X4382086Y-18119698D02*
X4391610Y-18110174D01*
X4391610Y-18110174D02*
X4410658Y-18100650D01*
X4410658Y-18100650D02*
X4439229Y-18100650D01*
X4439229Y-18100650D02*
X4458277Y-18110174D01*
X4458277Y-18110174D02*
X4467801Y-18129222D01*
X4467801Y-18129222D02*
X4467801Y-18233984D01*
X4467801Y-18129222D02*
X4477325Y-18110174D01*
X4477325Y-18110174D02*
X4496372Y-18100650D01*
X4496372Y-18100650D02*
X4524944Y-18100650D01*
X4524944Y-18100650D02*
X4543991Y-18110174D01*
X4543991Y-18110174D02*
X4553515Y-18129222D01*
X4553515Y-18129222D02*
X4553515Y-18233984D01*
X4943991Y-18024460D02*
X4772563Y-18281603D01*
X5201134Y-18033984D02*
X5220182Y-18033984D01*
X5220182Y-18033984D02*
X5239229Y-18043508D01*
X5239229Y-18043508D02*
X5248753Y-18053031D01*
X5248753Y-18053031D02*
X5258277Y-18072079D01*
X5258277Y-18072079D02*
X5267801Y-18110174D01*
X5267801Y-18110174D02*
X5267801Y-18157793D01*
X5267801Y-18157793D02*
X5258277Y-18195889D01*
X5258277Y-18195889D02*
X5248753Y-18214936D01*
X5248753Y-18214936D02*
X5239229Y-18224460D01*
X5239229Y-18224460D02*
X5220182Y-18233984D01*
X5220182Y-18233984D02*
X5201134Y-18233984D01*
X5201134Y-18233984D02*
X5182087Y-18224460D01*
X5182087Y-18224460D02*
X5172563Y-18214936D01*
X5172563Y-18214936D02*
X5163039Y-18195889D01*
X5163039Y-18195889D02*
X5153515Y-18157793D01*
X5153515Y-18157793D02*
X5153515Y-18110174D01*
X5153515Y-18110174D02*
X5163039Y-18072079D01*
X5163039Y-18072079D02*
X5172563Y-18053031D01*
X5172563Y-18053031D02*
X5182087Y-18043508D01*
X5182087Y-18043508D02*
X5201134Y-18033984D01*
X5353515Y-18214936D02*
X5363039Y-18224460D01*
X5363039Y-18224460D02*
X5353515Y-18233984D01*
X5353515Y-18233984D02*
X5343991Y-18224460D01*
X5343991Y-18224460D02*
X5353515Y-18214936D01*
X5353515Y-18214936D02*
X5353515Y-18233984D01*
X5486848Y-18033984D02*
X5505896Y-18033984D01*
X5505896Y-18033984D02*
X5524944Y-18043508D01*
X5524944Y-18043508D02*
X5534468Y-18053031D01*
X5534468Y-18053031D02*
X5543991Y-18072079D01*
X5543991Y-18072079D02*
X5553515Y-18110174D01*
X5553515Y-18110174D02*
X5553515Y-18157793D01*
X5553515Y-18157793D02*
X5543991Y-18195889D01*
X5543991Y-18195889D02*
X5534468Y-18214936D01*
X5534468Y-18214936D02*
X5524944Y-18224460D01*
X5524944Y-18224460D02*
X5505896Y-18233984D01*
X5505896Y-18233984D02*
X5486848Y-18233984D01*
X5486848Y-18233984D02*
X5467801Y-18224460D01*
X5467801Y-18224460D02*
X5458277Y-18214936D01*
X5458277Y-18214936D02*
X5448753Y-18195889D01*
X5448753Y-18195889D02*
X5439229Y-18157793D01*
X5439229Y-18157793D02*
X5439229Y-18110174D01*
X5439229Y-18110174D02*
X5448753Y-18072079D01*
X5448753Y-18072079D02*
X5458277Y-18053031D01*
X5458277Y-18053031D02*
X5467801Y-18043508D01*
X5467801Y-18043508D02*
X5486848Y-18033984D01*
X5629706Y-18053031D02*
X5639229Y-18043508D01*
X5639229Y-18043508D02*
X5658277Y-18033984D01*
X5658277Y-18033984D02*
X5705896Y-18033984D01*
X5705896Y-18033984D02*
X5724944Y-18043508D01*
X5724944Y-18043508D02*
X5734467Y-18053031D01*
X5734467Y-18053031D02*
X5743991Y-18072079D01*
X5743991Y-18072079D02*
X5743991Y-18091127D01*
X5743991Y-18091127D02*
X5734467Y-18119698D01*
X5734467Y-18119698D02*
X5620182Y-18233984D01*
X5620182Y-18233984D02*
X5743991Y-18233984D01*
X5924944Y-18033984D02*
X5829706Y-18033984D01*
X5829706Y-18033984D02*
X5820182Y-18129222D01*
X5820182Y-18129222D02*
X5829706Y-18119698D01*
X5829706Y-18119698D02*
X5848753Y-18110174D01*
X5848753Y-18110174D02*
X5896372Y-18110174D01*
X5896372Y-18110174D02*
X5915420Y-18119698D01*
X5915420Y-18119698D02*
X5924944Y-18129222D01*
X5924944Y-18129222D02*
X5934467Y-18148270D01*
X5934467Y-18148270D02*
X5934467Y-18195889D01*
X5934467Y-18195889D02*
X5924944Y-18214936D01*
X5924944Y-18214936D02*
X5915420Y-18224460D01*
X5915420Y-18224460D02*
X5896372Y-18233984D01*
X5896372Y-18233984D02*
X5848753Y-18233984D01*
X5848753Y-18233984D02*
X5829706Y-18224460D01*
X5829706Y-18224460D02*
X5820182Y-18214936D01*
X6105896Y-18033984D02*
X6067801Y-18033984D01*
X6067801Y-18033984D02*
X6048753Y-18043508D01*
X6048753Y-18043508D02*
X6039229Y-18053031D01*
X6039229Y-18053031D02*
X6020182Y-18081603D01*
X6020182Y-18081603D02*
X6010658Y-18119698D01*
X6010658Y-18119698D02*
X6010658Y-18195889D01*
X6010658Y-18195889D02*
X6020182Y-18214936D01*
X6020182Y-18214936D02*
X6029706Y-18224460D01*
X6029706Y-18224460D02*
X6048753Y-18233984D01*
X6048753Y-18233984D02*
X6086848Y-18233984D01*
X6086848Y-18233984D02*
X6105896Y-18224460D01*
X6105896Y-18224460D02*
X6115420Y-18214936D01*
X6115420Y-18214936D02*
X6124944Y-18195889D01*
X6124944Y-18195889D02*
X6124944Y-18148270D01*
X6124944Y-18148270D02*
X6115420Y-18129222D01*
X6115420Y-18129222D02*
X6105896Y-18119698D01*
X6105896Y-18119698D02*
X6086848Y-18110174D01*
X6086848Y-18110174D02*
X6048753Y-18110174D01*
X6048753Y-18110174D02*
X6029706Y-18119698D01*
X6029706Y-18119698D02*
X6020182Y-18129222D01*
X6020182Y-18129222D02*
X6010658Y-18148270D01*
X6201134Y-18033984D02*
X6201134Y-18072079D01*
X6277325Y-18033984D02*
X6277325Y-18072079D01*
X6572563Y-18310174D02*
X6563039Y-18300650D01*
X6563039Y-18300650D02*
X6543991Y-18272079D01*
X6543991Y-18272079D02*
X6534468Y-18253031D01*
X6534468Y-18253031D02*
X6524944Y-18224460D01*
X6524944Y-18224460D02*
X6515420Y-18176841D01*
X6515420Y-18176841D02*
X6515420Y-18138746D01*
X6515420Y-18138746D02*
X6524944Y-18091127D01*
X6524944Y-18091127D02*
X6534468Y-18062555D01*
X6534468Y-18062555D02*
X6543991Y-18043508D01*
X6543991Y-18043508D02*
X6563039Y-18014936D01*
X6563039Y-18014936D02*
X6572563Y-18005412D01*
X6734468Y-18100650D02*
X6734468Y-18233984D01*
X6686848Y-18024460D02*
X6639229Y-18167317D01*
X6639229Y-18167317D02*
X6763039Y-18167317D01*
X6991610Y-18233984D02*
X6991610Y-18033984D01*
X7077325Y-18233984D02*
X7077325Y-18129222D01*
X7077325Y-18129222D02*
X7067801Y-18110174D01*
X7067801Y-18110174D02*
X7048753Y-18100650D01*
X7048753Y-18100650D02*
X7020182Y-18100650D01*
X7020182Y-18100650D02*
X7001134Y-18110174D01*
X7001134Y-18110174D02*
X6991610Y-18119698D01*
X7201134Y-18233984D02*
X7182087Y-18224460D01*
X7182087Y-18224460D02*
X7172563Y-18214936D01*
X7172563Y-18214936D02*
X7163039Y-18195889D01*
X7163039Y-18195889D02*
X7163039Y-18138746D01*
X7163039Y-18138746D02*
X7172563Y-18119698D01*
X7172563Y-18119698D02*
X7182087Y-18110174D01*
X7182087Y-18110174D02*
X7201134Y-18100650D01*
X7201134Y-18100650D02*
X7229706Y-18100650D01*
X7229706Y-18100650D02*
X7248753Y-18110174D01*
X7248753Y-18110174D02*
X7258277Y-18119698D01*
X7258277Y-18119698D02*
X7267801Y-18138746D01*
X7267801Y-18138746D02*
X7267801Y-18195889D01*
X7267801Y-18195889D02*
X7258277Y-18214936D01*
X7258277Y-18214936D02*
X7248753Y-18224460D01*
X7248753Y-18224460D02*
X7229706Y-18233984D01*
X7229706Y-18233984D02*
X7201134Y-18233984D01*
X7382087Y-18233984D02*
X7363039Y-18224460D01*
X7363039Y-18224460D02*
X7353515Y-18205412D01*
X7353515Y-18205412D02*
X7353515Y-18033984D01*
X7534468Y-18224460D02*
X7515420Y-18233984D01*
X7515420Y-18233984D02*
X7477325Y-18233984D01*
X7477325Y-18233984D02*
X7458277Y-18224460D01*
X7458277Y-18224460D02*
X7448753Y-18205412D01*
X7448753Y-18205412D02*
X7448753Y-18129222D01*
X7448753Y-18129222D02*
X7458277Y-18110174D01*
X7458277Y-18110174D02*
X7477325Y-18100650D01*
X7477325Y-18100650D02*
X7515420Y-18100650D01*
X7515420Y-18100650D02*
X7534468Y-18110174D01*
X7534468Y-18110174D02*
X7543991Y-18129222D01*
X7543991Y-18129222D02*
X7543991Y-18148270D01*
X7543991Y-18148270D02*
X7448753Y-18167317D01*
X7620182Y-18224460D02*
X7639230Y-18233984D01*
X7639230Y-18233984D02*
X7677325Y-18233984D01*
X7677325Y-18233984D02*
X7696372Y-18224460D01*
X7696372Y-18224460D02*
X7705896Y-18205412D01*
X7705896Y-18205412D02*
X7705896Y-18195889D01*
X7705896Y-18195889D02*
X7696372Y-18176841D01*
X7696372Y-18176841D02*
X7677325Y-18167317D01*
X7677325Y-18167317D02*
X7648753Y-18167317D01*
X7648753Y-18167317D02*
X7629706Y-18157793D01*
X7629706Y-18157793D02*
X7620182Y-18138746D01*
X7620182Y-18138746D02*
X7620182Y-18129222D01*
X7620182Y-18129222D02*
X7629706Y-18110174D01*
X7629706Y-18110174D02*
X7648753Y-18100650D01*
X7648753Y-18100650D02*
X7677325Y-18100650D01*
X7677325Y-18100650D02*
X7696372Y-18110174D01*
X7772563Y-18310174D02*
X7782087Y-18300650D01*
X7782087Y-18300650D02*
X7801134Y-18272079D01*
X7801134Y-18272079D02*
X7810658Y-18253031D01*
X7810658Y-18253031D02*
X7820182Y-18224460D01*
X7820182Y-18224460D02*
X7829706Y-18176841D01*
X7829706Y-18176841D02*
X7829706Y-18138746D01*
X7829706Y-18138746D02*
X7820182Y-18091127D01*
X7820182Y-18091127D02*
X7810658Y-18062555D01*
X7810658Y-18062555D02*
X7801134Y-18043508D01*
X7801134Y-18043508D02*
X7782087Y-18014936D01*
X7782087Y-18014936D02*
X7772563Y-18005412D01*
X8134468Y-18310174D02*
X8124944Y-18300650D01*
X8124944Y-18300650D02*
X8105896Y-18272079D01*
X8105896Y-18272079D02*
X8096372Y-18253031D01*
X8096372Y-18253031D02*
X8086849Y-18224460D01*
X8086849Y-18224460D02*
X8077325Y-18176841D01*
X8077325Y-18176841D02*
X8077325Y-18138746D01*
X8077325Y-18138746D02*
X8086849Y-18091127D01*
X8086849Y-18091127D02*
X8096372Y-18062555D01*
X8096372Y-18062555D02*
X8105896Y-18043508D01*
X8105896Y-18043508D02*
X8124944Y-18014936D01*
X8124944Y-18014936D02*
X8134468Y-18005412D01*
X8210658Y-18100650D02*
X8210658Y-18233984D01*
X8210658Y-18119698D02*
X8220182Y-18110174D01*
X8220182Y-18110174D02*
X8239230Y-18100650D01*
X8239230Y-18100650D02*
X8267801Y-18100650D01*
X8267801Y-18100650D02*
X8286849Y-18110174D01*
X8286849Y-18110174D02*
X8296372Y-18129222D01*
X8296372Y-18129222D02*
X8296372Y-18233984D01*
X8420182Y-18233984D02*
X8401134Y-18224460D01*
X8401134Y-18224460D02*
X8391611Y-18214936D01*
X8391611Y-18214936D02*
X8382087Y-18195889D01*
X8382087Y-18195889D02*
X8382087Y-18138746D01*
X8382087Y-18138746D02*
X8391611Y-18119698D01*
X8391611Y-18119698D02*
X8401134Y-18110174D01*
X8401134Y-18110174D02*
X8420182Y-18100650D01*
X8420182Y-18100650D02*
X8448754Y-18100650D01*
X8448754Y-18100650D02*
X8467801Y-18110174D01*
X8467801Y-18110174D02*
X8477325Y-18119698D01*
X8477325Y-18119698D02*
X8486849Y-18138746D01*
X8486849Y-18138746D02*
X8486849Y-18195889D01*
X8486849Y-18195889D02*
X8477325Y-18214936D01*
X8477325Y-18214936D02*
X8467801Y-18224460D01*
X8467801Y-18224460D02*
X8448754Y-18233984D01*
X8448754Y-18233984D02*
X8420182Y-18233984D01*
X8543992Y-18100650D02*
X8620182Y-18100650D01*
X8572563Y-18033984D02*
X8572563Y-18205412D01*
X8572563Y-18205412D02*
X8582087Y-18224460D01*
X8582087Y-18224460D02*
X8601134Y-18233984D01*
X8601134Y-18233984D02*
X8620182Y-18233984D01*
X8839230Y-18100650D02*
X8839230Y-18300650D01*
X8839230Y-18110174D02*
X8858277Y-18100650D01*
X8858277Y-18100650D02*
X8896373Y-18100650D01*
X8896373Y-18100650D02*
X8915420Y-18110174D01*
X8915420Y-18110174D02*
X8924944Y-18119698D01*
X8924944Y-18119698D02*
X8934468Y-18138746D01*
X8934468Y-18138746D02*
X8934468Y-18195889D01*
X8934468Y-18195889D02*
X8924944Y-18214936D01*
X8924944Y-18214936D02*
X8915420Y-18224460D01*
X8915420Y-18224460D02*
X8896373Y-18233984D01*
X8896373Y-18233984D02*
X8858277Y-18233984D01*
X8858277Y-18233984D02*
X8839230Y-18224460D01*
X9048754Y-18233984D02*
X9029706Y-18224460D01*
X9029706Y-18224460D02*
X9020182Y-18205412D01*
X9020182Y-18205412D02*
X9020182Y-18033984D01*
X9210658Y-18233984D02*
X9210658Y-18129222D01*
X9210658Y-18129222D02*
X9201135Y-18110174D01*
X9201135Y-18110174D02*
X9182087Y-18100650D01*
X9182087Y-18100650D02*
X9143992Y-18100650D01*
X9143992Y-18100650D02*
X9124944Y-18110174D01*
X9210658Y-18224460D02*
X9191611Y-18233984D01*
X9191611Y-18233984D02*
X9143992Y-18233984D01*
X9143992Y-18233984D02*
X9124944Y-18224460D01*
X9124944Y-18224460D02*
X9115420Y-18205412D01*
X9115420Y-18205412D02*
X9115420Y-18186365D01*
X9115420Y-18186365D02*
X9124944Y-18167317D01*
X9124944Y-18167317D02*
X9143992Y-18157793D01*
X9143992Y-18157793D02*
X9191611Y-18157793D01*
X9191611Y-18157793D02*
X9210658Y-18148270D01*
X9277325Y-18100650D02*
X9353515Y-18100650D01*
X9305896Y-18033984D02*
X9305896Y-18205412D01*
X9305896Y-18205412D02*
X9315420Y-18224460D01*
X9315420Y-18224460D02*
X9334468Y-18233984D01*
X9334468Y-18233984D02*
X9353515Y-18233984D01*
X9496373Y-18224460D02*
X9477325Y-18233984D01*
X9477325Y-18233984D02*
X9439230Y-18233984D01*
X9439230Y-18233984D02*
X9420182Y-18224460D01*
X9420182Y-18224460D02*
X9410658Y-18205412D01*
X9410658Y-18205412D02*
X9410658Y-18129222D01*
X9410658Y-18129222D02*
X9420182Y-18110174D01*
X9420182Y-18110174D02*
X9439230Y-18100650D01*
X9439230Y-18100650D02*
X9477325Y-18100650D01*
X9477325Y-18100650D02*
X9496373Y-18110174D01*
X9496373Y-18110174D02*
X9505896Y-18129222D01*
X9505896Y-18129222D02*
X9505896Y-18148270D01*
X9505896Y-18148270D02*
X9410658Y-18167317D01*
X9677325Y-18233984D02*
X9677325Y-18033984D01*
X9677325Y-18224460D02*
X9658277Y-18233984D01*
X9658277Y-18233984D02*
X9620182Y-18233984D01*
X9620182Y-18233984D02*
X9601135Y-18224460D01*
X9601135Y-18224460D02*
X9591611Y-18214936D01*
X9591611Y-18214936D02*
X9582087Y-18195889D01*
X9582087Y-18195889D02*
X9582087Y-18138746D01*
X9582087Y-18138746D02*
X9591611Y-18119698D01*
X9591611Y-18119698D02*
X9601135Y-18110174D01*
X9601135Y-18110174D02*
X9620182Y-18100650D01*
X9620182Y-18100650D02*
X9658277Y-18100650D01*
X9658277Y-18100650D02*
X9677325Y-18110174D01*
X9753516Y-18310174D02*
X9763039Y-18300650D01*
X9763039Y-18300650D02*
X9782087Y-18272079D01*
X9782087Y-18272079D02*
X9791611Y-18253031D01*
X9791611Y-18253031D02*
X9801135Y-18224460D01*
X9801135Y-18224460D02*
X9810658Y-18176841D01*
X9810658Y-18176841D02*
X9810658Y-18138746D01*
X9810658Y-18138746D02*
X9801135Y-18091127D01*
X9801135Y-18091127D02*
X9791611Y-18062555D01*
X9791611Y-18062555D02*
X9782087Y-18043508D01*
X9782087Y-18043508D02*
X9763039Y-18014936D01*
X9763039Y-18014936D02*
X9753516Y-18005412D01*
D14*
X2997500Y-18406500D02*
G75*
G02*
X2882500Y-18406500I-57500J0D01*
G01*
X2882500Y-18406500D02*
G75*
G02*
X2997500Y-18406500I57500J0D01*
G01*
D13*
X3363039Y-18497984D02*
X3248753Y-18497984D01*
X3305896Y-18497984D02*
X3305896Y-18297984D01*
X3305896Y-18297984D02*
X3286848Y-18326555D01*
X3286848Y-18326555D02*
X3267801Y-18345603D01*
X3267801Y-18345603D02*
X3248753Y-18355127D01*
X3448753Y-18478936D02*
X3458277Y-18488460D01*
X3458277Y-18488460D02*
X3448753Y-18497984D01*
X3448753Y-18497984D02*
X3439229Y-18488460D01*
X3439229Y-18488460D02*
X3448753Y-18478936D01*
X3448753Y-18478936D02*
X3448753Y-18497984D01*
X3648753Y-18497984D02*
X3534467Y-18497984D01*
X3591610Y-18497984D02*
X3591610Y-18297984D01*
X3591610Y-18297984D02*
X3572562Y-18326555D01*
X3572562Y-18326555D02*
X3553515Y-18345603D01*
X3553515Y-18345603D02*
X3534467Y-18355127D01*
X3829705Y-18297984D02*
X3734467Y-18297984D01*
X3734467Y-18297984D02*
X3724943Y-18393222D01*
X3724943Y-18393222D02*
X3734467Y-18383698D01*
X3734467Y-18383698D02*
X3753515Y-18374174D01*
X3753515Y-18374174D02*
X3801134Y-18374174D01*
X3801134Y-18374174D02*
X3820182Y-18383698D01*
X3820182Y-18383698D02*
X3829705Y-18393222D01*
X3829705Y-18393222D02*
X3839229Y-18412270D01*
X3839229Y-18412270D02*
X3839229Y-18459889D01*
X3839229Y-18459889D02*
X3829705Y-18478936D01*
X3829705Y-18478936D02*
X3820182Y-18488460D01*
X3820182Y-18488460D02*
X3801134Y-18497984D01*
X3801134Y-18497984D02*
X3753515Y-18497984D01*
X3753515Y-18497984D02*
X3734467Y-18488460D01*
X3734467Y-18488460D02*
X3724943Y-18478936D01*
X3963039Y-18297984D02*
X3982086Y-18297984D01*
X3982086Y-18297984D02*
X4001134Y-18307508D01*
X4001134Y-18307508D02*
X4010658Y-18317031D01*
X4010658Y-18317031D02*
X4020182Y-18336079D01*
X4020182Y-18336079D02*
X4029705Y-18374174D01*
X4029705Y-18374174D02*
X4029705Y-18421793D01*
X4029705Y-18421793D02*
X4020182Y-18459889D01*
X4020182Y-18459889D02*
X4010658Y-18478936D01*
X4010658Y-18478936D02*
X4001134Y-18488460D01*
X4001134Y-18488460D02*
X3982086Y-18497984D01*
X3982086Y-18497984D02*
X3963039Y-18497984D01*
X3963039Y-18497984D02*
X3943991Y-18488460D01*
X3943991Y-18488460D02*
X3934467Y-18478936D01*
X3934467Y-18478936D02*
X3924943Y-18459889D01*
X3924943Y-18459889D02*
X3915420Y-18421793D01*
X3915420Y-18421793D02*
X3915420Y-18374174D01*
X3915420Y-18374174D02*
X3924943Y-18336079D01*
X3924943Y-18336079D02*
X3934467Y-18317031D01*
X3934467Y-18317031D02*
X3943991Y-18307508D01*
X3943991Y-18307508D02*
X3963039Y-18297984D01*
X4115420Y-18497984D02*
X4115420Y-18364650D01*
X4115420Y-18383698D02*
X4124943Y-18374174D01*
X4124943Y-18374174D02*
X4143991Y-18364650D01*
X4143991Y-18364650D02*
X4172563Y-18364650D01*
X4172563Y-18364650D02*
X4191610Y-18374174D01*
X4191610Y-18374174D02*
X4201134Y-18393222D01*
X4201134Y-18393222D02*
X4201134Y-18497984D01*
X4201134Y-18393222D02*
X4210658Y-18374174D01*
X4210658Y-18374174D02*
X4229705Y-18364650D01*
X4229705Y-18364650D02*
X4258277Y-18364650D01*
X4258277Y-18364650D02*
X4277325Y-18374174D01*
X4277325Y-18374174D02*
X4286848Y-18393222D01*
X4286848Y-18393222D02*
X4286848Y-18497984D01*
X4382086Y-18497984D02*
X4382086Y-18364650D01*
X4382086Y-18383698D02*
X4391610Y-18374174D01*
X4391610Y-18374174D02*
X4410658Y-18364650D01*
X4410658Y-18364650D02*
X4439229Y-18364650D01*
X4439229Y-18364650D02*
X4458277Y-18374174D01*
X4458277Y-18374174D02*
X4467801Y-18393222D01*
X4467801Y-18393222D02*
X4467801Y-18497984D01*
X4467801Y-18393222D02*
X4477325Y-18374174D01*
X4477325Y-18374174D02*
X4496372Y-18364650D01*
X4496372Y-18364650D02*
X4524944Y-18364650D01*
X4524944Y-18364650D02*
X4543991Y-18374174D01*
X4543991Y-18374174D02*
X4553515Y-18393222D01*
X4553515Y-18393222D02*
X4553515Y-18497984D01*
X4943991Y-18288460D02*
X4772563Y-18545603D01*
X5201134Y-18297984D02*
X5220182Y-18297984D01*
X5220182Y-18297984D02*
X5239229Y-18307508D01*
X5239229Y-18307508D02*
X5248753Y-18317031D01*
X5248753Y-18317031D02*
X5258277Y-18336079D01*
X5258277Y-18336079D02*
X5267801Y-18374174D01*
X5267801Y-18374174D02*
X5267801Y-18421793D01*
X5267801Y-18421793D02*
X5258277Y-18459889D01*
X5258277Y-18459889D02*
X5248753Y-18478936D01*
X5248753Y-18478936D02*
X5239229Y-18488460D01*
X5239229Y-18488460D02*
X5220182Y-18497984D01*
X5220182Y-18497984D02*
X5201134Y-18497984D01*
X5201134Y-18497984D02*
X5182087Y-18488460D01*
X5182087Y-18488460D02*
X5172563Y-18478936D01*
X5172563Y-18478936D02*
X5163039Y-18459889D01*
X5163039Y-18459889D02*
X5153515Y-18421793D01*
X5153515Y-18421793D02*
X5153515Y-18374174D01*
X5153515Y-18374174D02*
X5163039Y-18336079D01*
X5163039Y-18336079D02*
X5172563Y-18317031D01*
X5172563Y-18317031D02*
X5182087Y-18307508D01*
X5182087Y-18307508D02*
X5201134Y-18297984D01*
X5353515Y-18478936D02*
X5363039Y-18488460D01*
X5363039Y-18488460D02*
X5353515Y-18497984D01*
X5353515Y-18497984D02*
X5343991Y-18488460D01*
X5343991Y-18488460D02*
X5353515Y-18478936D01*
X5353515Y-18478936D02*
X5353515Y-18497984D01*
X5486848Y-18297984D02*
X5505896Y-18297984D01*
X5505896Y-18297984D02*
X5524944Y-18307508D01*
X5524944Y-18307508D02*
X5534468Y-18317031D01*
X5534468Y-18317031D02*
X5543991Y-18336079D01*
X5543991Y-18336079D02*
X5553515Y-18374174D01*
X5553515Y-18374174D02*
X5553515Y-18421793D01*
X5553515Y-18421793D02*
X5543991Y-18459889D01*
X5543991Y-18459889D02*
X5534468Y-18478936D01*
X5534468Y-18478936D02*
X5524944Y-18488460D01*
X5524944Y-18488460D02*
X5505896Y-18497984D01*
X5505896Y-18497984D02*
X5486848Y-18497984D01*
X5486848Y-18497984D02*
X5467801Y-18488460D01*
X5467801Y-18488460D02*
X5458277Y-18478936D01*
X5458277Y-18478936D02*
X5448753Y-18459889D01*
X5448753Y-18459889D02*
X5439229Y-18421793D01*
X5439229Y-18421793D02*
X5439229Y-18374174D01*
X5439229Y-18374174D02*
X5448753Y-18336079D01*
X5448753Y-18336079D02*
X5458277Y-18317031D01*
X5458277Y-18317031D02*
X5467801Y-18307508D01*
X5467801Y-18307508D02*
X5486848Y-18297984D01*
X5724944Y-18364650D02*
X5724944Y-18497984D01*
X5677325Y-18288460D02*
X5629706Y-18431317D01*
X5629706Y-18431317D02*
X5753515Y-18431317D01*
X5924944Y-18297984D02*
X5829706Y-18297984D01*
X5829706Y-18297984D02*
X5820182Y-18393222D01*
X5820182Y-18393222D02*
X5829706Y-18383698D01*
X5829706Y-18383698D02*
X5848753Y-18374174D01*
X5848753Y-18374174D02*
X5896372Y-18374174D01*
X5896372Y-18374174D02*
X5915420Y-18383698D01*
X5915420Y-18383698D02*
X5924944Y-18393222D01*
X5924944Y-18393222D02*
X5934467Y-18412270D01*
X5934467Y-18412270D02*
X5934467Y-18459889D01*
X5934467Y-18459889D02*
X5924944Y-18478936D01*
X5924944Y-18478936D02*
X5915420Y-18488460D01*
X5915420Y-18488460D02*
X5896372Y-18497984D01*
X5896372Y-18497984D02*
X5848753Y-18497984D01*
X5848753Y-18497984D02*
X5829706Y-18488460D01*
X5829706Y-18488460D02*
X5820182Y-18478936D01*
X6001134Y-18297984D02*
X6124944Y-18297984D01*
X6124944Y-18297984D02*
X6058277Y-18374174D01*
X6058277Y-18374174D02*
X6086848Y-18374174D01*
X6086848Y-18374174D02*
X6105896Y-18383698D01*
X6105896Y-18383698D02*
X6115420Y-18393222D01*
X6115420Y-18393222D02*
X6124944Y-18412270D01*
X6124944Y-18412270D02*
X6124944Y-18459889D01*
X6124944Y-18459889D02*
X6115420Y-18478936D01*
X6115420Y-18478936D02*
X6105896Y-18488460D01*
X6105896Y-18488460D02*
X6086848Y-18497984D01*
X6086848Y-18497984D02*
X6029706Y-18497984D01*
X6029706Y-18497984D02*
X6010658Y-18488460D01*
X6010658Y-18488460D02*
X6001134Y-18478936D01*
X6201134Y-18297984D02*
X6201134Y-18336079D01*
X6277325Y-18297984D02*
X6277325Y-18336079D01*
X6572563Y-18574174D02*
X6563039Y-18564650D01*
X6563039Y-18564650D02*
X6543991Y-18536079D01*
X6543991Y-18536079D02*
X6534468Y-18517031D01*
X6534468Y-18517031D02*
X6524944Y-18488460D01*
X6524944Y-18488460D02*
X6515420Y-18440841D01*
X6515420Y-18440841D02*
X6515420Y-18402746D01*
X6515420Y-18402746D02*
X6524944Y-18355127D01*
X6524944Y-18355127D02*
X6534468Y-18326555D01*
X6534468Y-18326555D02*
X6543991Y-18307508D01*
X6543991Y-18307508D02*
X6563039Y-18278936D01*
X6563039Y-18278936D02*
X6572563Y-18269412D01*
X6753515Y-18497984D02*
X6639229Y-18497984D01*
X6696372Y-18497984D02*
X6696372Y-18297984D01*
X6696372Y-18297984D02*
X6677325Y-18326555D01*
X6677325Y-18326555D02*
X6658277Y-18345603D01*
X6658277Y-18345603D02*
X6639229Y-18355127D01*
X6991610Y-18497984D02*
X6991610Y-18297984D01*
X7077325Y-18497984D02*
X7077325Y-18393222D01*
X7077325Y-18393222D02*
X7067801Y-18374174D01*
X7067801Y-18374174D02*
X7048753Y-18364650D01*
X7048753Y-18364650D02*
X7020182Y-18364650D01*
X7020182Y-18364650D02*
X7001134Y-18374174D01*
X7001134Y-18374174D02*
X6991610Y-18383698D01*
X7201134Y-18497984D02*
X7182087Y-18488460D01*
X7182087Y-18488460D02*
X7172563Y-18478936D01*
X7172563Y-18478936D02*
X7163039Y-18459889D01*
X7163039Y-18459889D02*
X7163039Y-18402746D01*
X7163039Y-18402746D02*
X7172563Y-18383698D01*
X7172563Y-18383698D02*
X7182087Y-18374174D01*
X7182087Y-18374174D02*
X7201134Y-18364650D01*
X7201134Y-18364650D02*
X7229706Y-18364650D01*
X7229706Y-18364650D02*
X7248753Y-18374174D01*
X7248753Y-18374174D02*
X7258277Y-18383698D01*
X7258277Y-18383698D02*
X7267801Y-18402746D01*
X7267801Y-18402746D02*
X7267801Y-18459889D01*
X7267801Y-18459889D02*
X7258277Y-18478936D01*
X7258277Y-18478936D02*
X7248753Y-18488460D01*
X7248753Y-18488460D02*
X7229706Y-18497984D01*
X7229706Y-18497984D02*
X7201134Y-18497984D01*
X7382087Y-18497984D02*
X7363039Y-18488460D01*
X7363039Y-18488460D02*
X7353515Y-18469412D01*
X7353515Y-18469412D02*
X7353515Y-18297984D01*
X7534468Y-18488460D02*
X7515420Y-18497984D01*
X7515420Y-18497984D02*
X7477325Y-18497984D01*
X7477325Y-18497984D02*
X7458277Y-18488460D01*
X7458277Y-18488460D02*
X7448753Y-18469412D01*
X7448753Y-18469412D02*
X7448753Y-18393222D01*
X7448753Y-18393222D02*
X7458277Y-18374174D01*
X7458277Y-18374174D02*
X7477325Y-18364650D01*
X7477325Y-18364650D02*
X7515420Y-18364650D01*
X7515420Y-18364650D02*
X7534468Y-18374174D01*
X7534468Y-18374174D02*
X7543991Y-18393222D01*
X7543991Y-18393222D02*
X7543991Y-18412270D01*
X7543991Y-18412270D02*
X7448753Y-18431317D01*
X7610658Y-18574174D02*
X7620182Y-18564650D01*
X7620182Y-18564650D02*
X7639230Y-18536079D01*
X7639230Y-18536079D02*
X7648753Y-18517031D01*
X7648753Y-18517031D02*
X7658277Y-18488460D01*
X7658277Y-18488460D02*
X7667801Y-18440841D01*
X7667801Y-18440841D02*
X7667801Y-18402746D01*
X7667801Y-18402746D02*
X7658277Y-18355127D01*
X7658277Y-18355127D02*
X7648753Y-18326555D01*
X7648753Y-18326555D02*
X7639230Y-18307508D01*
X7639230Y-18307508D02*
X7620182Y-18278936D01*
X7620182Y-18278936D02*
X7610658Y-18269412D01*
X7972563Y-18574174D02*
X7963039Y-18564650D01*
X7963039Y-18564650D02*
X7943991Y-18536079D01*
X7943991Y-18536079D02*
X7934468Y-18517031D01*
X7934468Y-18517031D02*
X7924944Y-18488460D01*
X7924944Y-18488460D02*
X7915420Y-18440841D01*
X7915420Y-18440841D02*
X7915420Y-18402746D01*
X7915420Y-18402746D02*
X7924944Y-18355127D01*
X7924944Y-18355127D02*
X7934468Y-18326555D01*
X7934468Y-18326555D02*
X7943991Y-18307508D01*
X7943991Y-18307508D02*
X7963039Y-18278936D01*
X7963039Y-18278936D02*
X7972563Y-18269412D01*
X8048753Y-18364650D02*
X8048753Y-18497984D01*
X8048753Y-18383698D02*
X8058277Y-18374174D01*
X8058277Y-18374174D02*
X8077325Y-18364650D01*
X8077325Y-18364650D02*
X8105896Y-18364650D01*
X8105896Y-18364650D02*
X8124944Y-18374174D01*
X8124944Y-18374174D02*
X8134468Y-18393222D01*
X8134468Y-18393222D02*
X8134468Y-18497984D01*
X8258277Y-18497984D02*
X8239230Y-18488460D01*
X8239230Y-18488460D02*
X8229706Y-18478936D01*
X8229706Y-18478936D02*
X8220182Y-18459889D01*
X8220182Y-18459889D02*
X8220182Y-18402746D01*
X8220182Y-18402746D02*
X8229706Y-18383698D01*
X8229706Y-18383698D02*
X8239230Y-18374174D01*
X8239230Y-18374174D02*
X8258277Y-18364650D01*
X8258277Y-18364650D02*
X8286849Y-18364650D01*
X8286849Y-18364650D02*
X8305896Y-18374174D01*
X8305896Y-18374174D02*
X8315420Y-18383698D01*
X8315420Y-18383698D02*
X8324944Y-18402746D01*
X8324944Y-18402746D02*
X8324944Y-18459889D01*
X8324944Y-18459889D02*
X8315420Y-18478936D01*
X8315420Y-18478936D02*
X8305896Y-18488460D01*
X8305896Y-18488460D02*
X8286849Y-18497984D01*
X8286849Y-18497984D02*
X8258277Y-18497984D01*
X8382087Y-18364650D02*
X8458277Y-18364650D01*
X8410658Y-18297984D02*
X8410658Y-18469412D01*
X8410658Y-18469412D02*
X8420182Y-18488460D01*
X8420182Y-18488460D02*
X8439230Y-18497984D01*
X8439230Y-18497984D02*
X8458277Y-18497984D01*
X8677325Y-18364650D02*
X8677325Y-18564650D01*
X8677325Y-18374174D02*
X8696373Y-18364650D01*
X8696373Y-18364650D02*
X8734468Y-18364650D01*
X8734468Y-18364650D02*
X8753515Y-18374174D01*
X8753515Y-18374174D02*
X8763039Y-18383698D01*
X8763039Y-18383698D02*
X8772563Y-18402746D01*
X8772563Y-18402746D02*
X8772563Y-18459889D01*
X8772563Y-18459889D02*
X8763039Y-18478936D01*
X8763039Y-18478936D02*
X8753515Y-18488460D01*
X8753515Y-18488460D02*
X8734468Y-18497984D01*
X8734468Y-18497984D02*
X8696373Y-18497984D01*
X8696373Y-18497984D02*
X8677325Y-18488460D01*
X8886849Y-18497984D02*
X8867801Y-18488460D01*
X8867801Y-18488460D02*
X8858277Y-18469412D01*
X8858277Y-18469412D02*
X8858277Y-18297984D01*
X9048754Y-18497984D02*
X9048754Y-18393222D01*
X9048754Y-18393222D02*
X9039230Y-18374174D01*
X9039230Y-18374174D02*
X9020182Y-18364650D01*
X9020182Y-18364650D02*
X8982087Y-18364650D01*
X8982087Y-18364650D02*
X8963039Y-18374174D01*
X9048754Y-18488460D02*
X9029706Y-18497984D01*
X9029706Y-18497984D02*
X8982087Y-18497984D01*
X8982087Y-18497984D02*
X8963039Y-18488460D01*
X8963039Y-18488460D02*
X8953515Y-18469412D01*
X8953515Y-18469412D02*
X8953515Y-18450365D01*
X8953515Y-18450365D02*
X8963039Y-18431317D01*
X8963039Y-18431317D02*
X8982087Y-18421793D01*
X8982087Y-18421793D02*
X9029706Y-18421793D01*
X9029706Y-18421793D02*
X9048754Y-18412270D01*
X9115420Y-18364650D02*
X9191611Y-18364650D01*
X9143992Y-18297984D02*
X9143992Y-18469412D01*
X9143992Y-18469412D02*
X9153515Y-18488460D01*
X9153515Y-18488460D02*
X9172563Y-18497984D01*
X9172563Y-18497984D02*
X9191611Y-18497984D01*
X9334468Y-18488460D02*
X9315420Y-18497984D01*
X9315420Y-18497984D02*
X9277325Y-18497984D01*
X9277325Y-18497984D02*
X9258277Y-18488460D01*
X9258277Y-18488460D02*
X9248754Y-18469412D01*
X9248754Y-18469412D02*
X9248754Y-18393222D01*
X9248754Y-18393222D02*
X9258277Y-18374174D01*
X9258277Y-18374174D02*
X9277325Y-18364650D01*
X9277325Y-18364650D02*
X9315420Y-18364650D01*
X9315420Y-18364650D02*
X9334468Y-18374174D01*
X9334468Y-18374174D02*
X9343992Y-18393222D01*
X9343992Y-18393222D02*
X9343992Y-18412270D01*
X9343992Y-18412270D02*
X9248754Y-18431317D01*
X9515420Y-18497984D02*
X9515420Y-18297984D01*
X9515420Y-18488460D02*
X9496373Y-18497984D01*
X9496373Y-18497984D02*
X9458277Y-18497984D01*
X9458277Y-18497984D02*
X9439230Y-18488460D01*
X9439230Y-18488460D02*
X9429706Y-18478936D01*
X9429706Y-18478936D02*
X9420182Y-18459889D01*
X9420182Y-18459889D02*
X9420182Y-18402746D01*
X9420182Y-18402746D02*
X9429706Y-18383698D01*
X9429706Y-18383698D02*
X9439230Y-18374174D01*
X9439230Y-18374174D02*
X9458277Y-18364650D01*
X9458277Y-18364650D02*
X9496373Y-18364650D01*
X9496373Y-18364650D02*
X9515420Y-18374174D01*
X9591611Y-18574174D02*
X9601135Y-18564650D01*
X9601135Y-18564650D02*
X9620182Y-18536079D01*
X9620182Y-18536079D02*
X9629706Y-18517031D01*
X9629706Y-18517031D02*
X9639230Y-18488460D01*
X9639230Y-18488460D02*
X9648754Y-18440841D01*
X9648754Y-18440841D02*
X9648754Y-18402746D01*
X9648754Y-18402746D02*
X9639230Y-18355127D01*
X9639230Y-18355127D02*
X9629706Y-18326555D01*
X9629706Y-18326555D02*
X9620182Y-18307508D01*
X9620182Y-18307508D02*
X9601135Y-18278936D01*
X9601135Y-18278936D02*
X9591611Y-18269412D01*
D15*
X2915000Y-18588000D02*
X2915000Y-18753000D01*
X2832500Y-18670500D02*
X2997500Y-18670500D01*
D13*
X3363039Y-18761984D02*
X3248753Y-18761984D01*
X3305896Y-18761984D02*
X3305896Y-18561984D01*
X3305896Y-18561984D02*
X3286848Y-18590555D01*
X3286848Y-18590555D02*
X3267801Y-18609603D01*
X3267801Y-18609603D02*
X3248753Y-18619127D01*
X3448753Y-18742936D02*
X3458277Y-18752460D01*
X3458277Y-18752460D02*
X3448753Y-18761984D01*
X3448753Y-18761984D02*
X3439229Y-18752460D01*
X3439229Y-18752460D02*
X3448753Y-18742936D01*
X3448753Y-18742936D02*
X3448753Y-18761984D01*
X3629705Y-18561984D02*
X3591610Y-18561984D01*
X3591610Y-18561984D02*
X3572562Y-18571508D01*
X3572562Y-18571508D02*
X3563039Y-18581031D01*
X3563039Y-18581031D02*
X3543991Y-18609603D01*
X3543991Y-18609603D02*
X3534467Y-18647698D01*
X3534467Y-18647698D02*
X3534467Y-18723889D01*
X3534467Y-18723889D02*
X3543991Y-18742936D01*
X3543991Y-18742936D02*
X3553515Y-18752460D01*
X3553515Y-18752460D02*
X3572562Y-18761984D01*
X3572562Y-18761984D02*
X3610658Y-18761984D01*
X3610658Y-18761984D02*
X3629705Y-18752460D01*
X3629705Y-18752460D02*
X3639229Y-18742936D01*
X3639229Y-18742936D02*
X3648753Y-18723889D01*
X3648753Y-18723889D02*
X3648753Y-18676270D01*
X3648753Y-18676270D02*
X3639229Y-18657222D01*
X3639229Y-18657222D02*
X3629705Y-18647698D01*
X3629705Y-18647698D02*
X3610658Y-18638174D01*
X3610658Y-18638174D02*
X3572562Y-18638174D01*
X3572562Y-18638174D02*
X3553515Y-18647698D01*
X3553515Y-18647698D02*
X3543991Y-18657222D01*
X3543991Y-18657222D02*
X3534467Y-18676270D01*
X3829705Y-18561984D02*
X3734467Y-18561984D01*
X3734467Y-18561984D02*
X3724943Y-18657222D01*
X3724943Y-18657222D02*
X3734467Y-18647698D01*
X3734467Y-18647698D02*
X3753515Y-18638174D01*
X3753515Y-18638174D02*
X3801134Y-18638174D01*
X3801134Y-18638174D02*
X3820182Y-18647698D01*
X3820182Y-18647698D02*
X3829705Y-18657222D01*
X3829705Y-18657222D02*
X3839229Y-18676270D01*
X3839229Y-18676270D02*
X3839229Y-18723889D01*
X3839229Y-18723889D02*
X3829705Y-18742936D01*
X3829705Y-18742936D02*
X3820182Y-18752460D01*
X3820182Y-18752460D02*
X3801134Y-18761984D01*
X3801134Y-18761984D02*
X3753515Y-18761984D01*
X3753515Y-18761984D02*
X3734467Y-18752460D01*
X3734467Y-18752460D02*
X3724943Y-18742936D01*
X3963039Y-18561984D02*
X3982086Y-18561984D01*
X3982086Y-18561984D02*
X4001134Y-18571508D01*
X4001134Y-18571508D02*
X4010658Y-18581031D01*
X4010658Y-18581031D02*
X4020182Y-18600079D01*
X4020182Y-18600079D02*
X4029705Y-18638174D01*
X4029705Y-18638174D02*
X4029705Y-18685793D01*
X4029705Y-18685793D02*
X4020182Y-18723889D01*
X4020182Y-18723889D02*
X4010658Y-18742936D01*
X4010658Y-18742936D02*
X4001134Y-18752460D01*
X4001134Y-18752460D02*
X3982086Y-18761984D01*
X3982086Y-18761984D02*
X3963039Y-18761984D01*
X3963039Y-18761984D02*
X3943991Y-18752460D01*
X3943991Y-18752460D02*
X3934467Y-18742936D01*
X3934467Y-18742936D02*
X3924943Y-18723889D01*
X3924943Y-18723889D02*
X3915420Y-18685793D01*
X3915420Y-18685793D02*
X3915420Y-18638174D01*
X3915420Y-18638174D02*
X3924943Y-18600079D01*
X3924943Y-18600079D02*
X3934467Y-18581031D01*
X3934467Y-18581031D02*
X3943991Y-18571508D01*
X3943991Y-18571508D02*
X3963039Y-18561984D01*
X4115420Y-18761984D02*
X4115420Y-18628650D01*
X4115420Y-18647698D02*
X4124943Y-18638174D01*
X4124943Y-18638174D02*
X4143991Y-18628650D01*
X4143991Y-18628650D02*
X4172563Y-18628650D01*
X4172563Y-18628650D02*
X4191610Y-18638174D01*
X4191610Y-18638174D02*
X4201134Y-18657222D01*
X4201134Y-18657222D02*
X4201134Y-18761984D01*
X4201134Y-18657222D02*
X4210658Y-18638174D01*
X4210658Y-18638174D02*
X4229705Y-18628650D01*
X4229705Y-18628650D02*
X4258277Y-18628650D01*
X4258277Y-18628650D02*
X4277325Y-18638174D01*
X4277325Y-18638174D02*
X4286848Y-18657222D01*
X4286848Y-18657222D02*
X4286848Y-18761984D01*
X4382086Y-18761984D02*
X4382086Y-18628650D01*
X4382086Y-18647698D02*
X4391610Y-18638174D01*
X4391610Y-18638174D02*
X4410658Y-18628650D01*
X4410658Y-18628650D02*
X4439229Y-18628650D01*
X4439229Y-18628650D02*
X4458277Y-18638174D01*
X4458277Y-18638174D02*
X4467801Y-18657222D01*
X4467801Y-18657222D02*
X4467801Y-18761984D01*
X4467801Y-18657222D02*
X4477325Y-18638174D01*
X4477325Y-18638174D02*
X4496372Y-18628650D01*
X4496372Y-18628650D02*
X4524944Y-18628650D01*
X4524944Y-18628650D02*
X4543991Y-18638174D01*
X4543991Y-18638174D02*
X4553515Y-18657222D01*
X4553515Y-18657222D02*
X4553515Y-18761984D01*
X4943991Y-18552460D02*
X4772563Y-18809603D01*
X5201134Y-18561984D02*
X5220182Y-18561984D01*
X5220182Y-18561984D02*
X5239229Y-18571508D01*
X5239229Y-18571508D02*
X5248753Y-18581031D01*
X5248753Y-18581031D02*
X5258277Y-18600079D01*
X5258277Y-18600079D02*
X5267801Y-18638174D01*
X5267801Y-18638174D02*
X5267801Y-18685793D01*
X5267801Y-18685793D02*
X5258277Y-18723889D01*
X5258277Y-18723889D02*
X5248753Y-18742936D01*
X5248753Y-18742936D02*
X5239229Y-18752460D01*
X5239229Y-18752460D02*
X5220182Y-18761984D01*
X5220182Y-18761984D02*
X5201134Y-18761984D01*
X5201134Y-18761984D02*
X5182087Y-18752460D01*
X5182087Y-18752460D02*
X5172563Y-18742936D01*
X5172563Y-18742936D02*
X5163039Y-18723889D01*
X5163039Y-18723889D02*
X5153515Y-18685793D01*
X5153515Y-18685793D02*
X5153515Y-18638174D01*
X5153515Y-18638174D02*
X5163039Y-18600079D01*
X5163039Y-18600079D02*
X5172563Y-18581031D01*
X5172563Y-18581031D02*
X5182087Y-18571508D01*
X5182087Y-18571508D02*
X5201134Y-18561984D01*
X5353515Y-18742936D02*
X5363039Y-18752460D01*
X5363039Y-18752460D02*
X5353515Y-18761984D01*
X5353515Y-18761984D02*
X5343991Y-18752460D01*
X5343991Y-18752460D02*
X5353515Y-18742936D01*
X5353515Y-18742936D02*
X5353515Y-18761984D01*
X5486848Y-18561984D02*
X5505896Y-18561984D01*
X5505896Y-18561984D02*
X5524944Y-18571508D01*
X5524944Y-18571508D02*
X5534468Y-18581031D01*
X5534468Y-18581031D02*
X5543991Y-18600079D01*
X5543991Y-18600079D02*
X5553515Y-18638174D01*
X5553515Y-18638174D02*
X5553515Y-18685793D01*
X5553515Y-18685793D02*
X5543991Y-18723889D01*
X5543991Y-18723889D02*
X5534468Y-18742936D01*
X5534468Y-18742936D02*
X5524944Y-18752460D01*
X5524944Y-18752460D02*
X5505896Y-18761984D01*
X5505896Y-18761984D02*
X5486848Y-18761984D01*
X5486848Y-18761984D02*
X5467801Y-18752460D01*
X5467801Y-18752460D02*
X5458277Y-18742936D01*
X5458277Y-18742936D02*
X5448753Y-18723889D01*
X5448753Y-18723889D02*
X5439229Y-18685793D01*
X5439229Y-18685793D02*
X5439229Y-18638174D01*
X5439229Y-18638174D02*
X5448753Y-18600079D01*
X5448753Y-18600079D02*
X5458277Y-18581031D01*
X5458277Y-18581031D02*
X5467801Y-18571508D01*
X5467801Y-18571508D02*
X5486848Y-18561984D01*
X5724944Y-18561984D02*
X5686848Y-18561984D01*
X5686848Y-18561984D02*
X5667801Y-18571508D01*
X5667801Y-18571508D02*
X5658277Y-18581031D01*
X5658277Y-18581031D02*
X5639229Y-18609603D01*
X5639229Y-18609603D02*
X5629706Y-18647698D01*
X5629706Y-18647698D02*
X5629706Y-18723889D01*
X5629706Y-18723889D02*
X5639229Y-18742936D01*
X5639229Y-18742936D02*
X5648753Y-18752460D01*
X5648753Y-18752460D02*
X5667801Y-18761984D01*
X5667801Y-18761984D02*
X5705896Y-18761984D01*
X5705896Y-18761984D02*
X5724944Y-18752460D01*
X5724944Y-18752460D02*
X5734467Y-18742936D01*
X5734467Y-18742936D02*
X5743991Y-18723889D01*
X5743991Y-18723889D02*
X5743991Y-18676270D01*
X5743991Y-18676270D02*
X5734467Y-18657222D01*
X5734467Y-18657222D02*
X5724944Y-18647698D01*
X5724944Y-18647698D02*
X5705896Y-18638174D01*
X5705896Y-18638174D02*
X5667801Y-18638174D01*
X5667801Y-18638174D02*
X5648753Y-18647698D01*
X5648753Y-18647698D02*
X5639229Y-18657222D01*
X5639229Y-18657222D02*
X5629706Y-18676270D01*
X5924944Y-18561984D02*
X5829706Y-18561984D01*
X5829706Y-18561984D02*
X5820182Y-18657222D01*
X5820182Y-18657222D02*
X5829706Y-18647698D01*
X5829706Y-18647698D02*
X5848753Y-18638174D01*
X5848753Y-18638174D02*
X5896372Y-18638174D01*
X5896372Y-18638174D02*
X5915420Y-18647698D01*
X5915420Y-18647698D02*
X5924944Y-18657222D01*
X5924944Y-18657222D02*
X5934467Y-18676270D01*
X5934467Y-18676270D02*
X5934467Y-18723889D01*
X5934467Y-18723889D02*
X5924944Y-18742936D01*
X5924944Y-18742936D02*
X5915420Y-18752460D01*
X5915420Y-18752460D02*
X5896372Y-18761984D01*
X5896372Y-18761984D02*
X5848753Y-18761984D01*
X5848753Y-18761984D02*
X5829706Y-18752460D01*
X5829706Y-18752460D02*
X5820182Y-18742936D01*
X6058277Y-18561984D02*
X6077325Y-18561984D01*
X6077325Y-18561984D02*
X6096372Y-18571508D01*
X6096372Y-18571508D02*
X6105896Y-18581031D01*
X6105896Y-18581031D02*
X6115420Y-18600079D01*
X6115420Y-18600079D02*
X6124944Y-18638174D01*
X6124944Y-18638174D02*
X6124944Y-18685793D01*
X6124944Y-18685793D02*
X6115420Y-18723889D01*
X6115420Y-18723889D02*
X6105896Y-18742936D01*
X6105896Y-18742936D02*
X6096372Y-18752460D01*
X6096372Y-18752460D02*
X6077325Y-18761984D01*
X6077325Y-18761984D02*
X6058277Y-18761984D01*
X6058277Y-18761984D02*
X6039229Y-18752460D01*
X6039229Y-18752460D02*
X6029706Y-18742936D01*
X6029706Y-18742936D02*
X6020182Y-18723889D01*
X6020182Y-18723889D02*
X6010658Y-18685793D01*
X6010658Y-18685793D02*
X6010658Y-18638174D01*
X6010658Y-18638174D02*
X6020182Y-18600079D01*
X6020182Y-18600079D02*
X6029706Y-18581031D01*
X6029706Y-18581031D02*
X6039229Y-18571508D01*
X6039229Y-18571508D02*
X6058277Y-18561984D01*
X6201134Y-18561984D02*
X6201134Y-18600079D01*
X6277325Y-18561984D02*
X6277325Y-18600079D01*
X6572563Y-18838174D02*
X6563039Y-18828650D01*
X6563039Y-18828650D02*
X6543991Y-18800079D01*
X6543991Y-18800079D02*
X6534468Y-18781031D01*
X6534468Y-18781031D02*
X6524944Y-18752460D01*
X6524944Y-18752460D02*
X6515420Y-18704841D01*
X6515420Y-18704841D02*
X6515420Y-18666746D01*
X6515420Y-18666746D02*
X6524944Y-18619127D01*
X6524944Y-18619127D02*
X6534468Y-18590555D01*
X6534468Y-18590555D02*
X6543991Y-18571508D01*
X6543991Y-18571508D02*
X6563039Y-18542936D01*
X6563039Y-18542936D02*
X6572563Y-18533412D01*
X6753515Y-18761984D02*
X6639229Y-18761984D01*
X6696372Y-18761984D02*
X6696372Y-18561984D01*
X6696372Y-18561984D02*
X6677325Y-18590555D01*
X6677325Y-18590555D02*
X6658277Y-18609603D01*
X6658277Y-18609603D02*
X6639229Y-18619127D01*
X6991610Y-18761984D02*
X6991610Y-18561984D01*
X7077325Y-18761984D02*
X7077325Y-18657222D01*
X7077325Y-18657222D02*
X7067801Y-18638174D01*
X7067801Y-18638174D02*
X7048753Y-18628650D01*
X7048753Y-18628650D02*
X7020182Y-18628650D01*
X7020182Y-18628650D02*
X7001134Y-18638174D01*
X7001134Y-18638174D02*
X6991610Y-18647698D01*
X7201134Y-18761984D02*
X7182087Y-18752460D01*
X7182087Y-18752460D02*
X7172563Y-18742936D01*
X7172563Y-18742936D02*
X7163039Y-18723889D01*
X7163039Y-18723889D02*
X7163039Y-18666746D01*
X7163039Y-18666746D02*
X7172563Y-18647698D01*
X7172563Y-18647698D02*
X7182087Y-18638174D01*
X7182087Y-18638174D02*
X7201134Y-18628650D01*
X7201134Y-18628650D02*
X7229706Y-18628650D01*
X7229706Y-18628650D02*
X7248753Y-18638174D01*
X7248753Y-18638174D02*
X7258277Y-18647698D01*
X7258277Y-18647698D02*
X7267801Y-18666746D01*
X7267801Y-18666746D02*
X7267801Y-18723889D01*
X7267801Y-18723889D02*
X7258277Y-18742936D01*
X7258277Y-18742936D02*
X7248753Y-18752460D01*
X7248753Y-18752460D02*
X7229706Y-18761984D01*
X7229706Y-18761984D02*
X7201134Y-18761984D01*
X7382087Y-18761984D02*
X7363039Y-18752460D01*
X7363039Y-18752460D02*
X7353515Y-18733412D01*
X7353515Y-18733412D02*
X7353515Y-18561984D01*
X7534468Y-18752460D02*
X7515420Y-18761984D01*
X7515420Y-18761984D02*
X7477325Y-18761984D01*
X7477325Y-18761984D02*
X7458277Y-18752460D01*
X7458277Y-18752460D02*
X7448753Y-18733412D01*
X7448753Y-18733412D02*
X7448753Y-18657222D01*
X7448753Y-18657222D02*
X7458277Y-18638174D01*
X7458277Y-18638174D02*
X7477325Y-18628650D01*
X7477325Y-18628650D02*
X7515420Y-18628650D01*
X7515420Y-18628650D02*
X7534468Y-18638174D01*
X7534468Y-18638174D02*
X7543991Y-18657222D01*
X7543991Y-18657222D02*
X7543991Y-18676270D01*
X7543991Y-18676270D02*
X7448753Y-18695317D01*
X7610658Y-18838174D02*
X7620182Y-18828650D01*
X7620182Y-18828650D02*
X7639230Y-18800079D01*
X7639230Y-18800079D02*
X7648753Y-18781031D01*
X7648753Y-18781031D02*
X7658277Y-18752460D01*
X7658277Y-18752460D02*
X7667801Y-18704841D01*
X7667801Y-18704841D02*
X7667801Y-18666746D01*
X7667801Y-18666746D02*
X7658277Y-18619127D01*
X7658277Y-18619127D02*
X7648753Y-18590555D01*
X7648753Y-18590555D02*
X7639230Y-18571508D01*
X7639230Y-18571508D02*
X7620182Y-18542936D01*
X7620182Y-18542936D02*
X7610658Y-18533412D01*
X7972563Y-18838174D02*
X7963039Y-18828650D01*
X7963039Y-18828650D02*
X7943991Y-18800079D01*
X7943991Y-18800079D02*
X7934468Y-18781031D01*
X7934468Y-18781031D02*
X7924944Y-18752460D01*
X7924944Y-18752460D02*
X7915420Y-18704841D01*
X7915420Y-18704841D02*
X7915420Y-18666746D01*
X7915420Y-18666746D02*
X7924944Y-18619127D01*
X7924944Y-18619127D02*
X7934468Y-18590555D01*
X7934468Y-18590555D02*
X7943991Y-18571508D01*
X7943991Y-18571508D02*
X7963039Y-18542936D01*
X7963039Y-18542936D02*
X7972563Y-18533412D01*
X8048753Y-18628650D02*
X8048753Y-18761984D01*
X8048753Y-18647698D02*
X8058277Y-18638174D01*
X8058277Y-18638174D02*
X8077325Y-18628650D01*
X8077325Y-18628650D02*
X8105896Y-18628650D01*
X8105896Y-18628650D02*
X8124944Y-18638174D01*
X8124944Y-18638174D02*
X8134468Y-18657222D01*
X8134468Y-18657222D02*
X8134468Y-18761984D01*
X8258277Y-18761984D02*
X8239230Y-18752460D01*
X8239230Y-18752460D02*
X8229706Y-18742936D01*
X8229706Y-18742936D02*
X8220182Y-18723889D01*
X8220182Y-18723889D02*
X8220182Y-18666746D01*
X8220182Y-18666746D02*
X8229706Y-18647698D01*
X8229706Y-18647698D02*
X8239230Y-18638174D01*
X8239230Y-18638174D02*
X8258277Y-18628650D01*
X8258277Y-18628650D02*
X8286849Y-18628650D01*
X8286849Y-18628650D02*
X8305896Y-18638174D01*
X8305896Y-18638174D02*
X8315420Y-18647698D01*
X8315420Y-18647698D02*
X8324944Y-18666746D01*
X8324944Y-18666746D02*
X8324944Y-18723889D01*
X8324944Y-18723889D02*
X8315420Y-18742936D01*
X8315420Y-18742936D02*
X8305896Y-18752460D01*
X8305896Y-18752460D02*
X8286849Y-18761984D01*
X8286849Y-18761984D02*
X8258277Y-18761984D01*
X8382087Y-18628650D02*
X8458277Y-18628650D01*
X8410658Y-18561984D02*
X8410658Y-18733412D01*
X8410658Y-18733412D02*
X8420182Y-18752460D01*
X8420182Y-18752460D02*
X8439230Y-18761984D01*
X8439230Y-18761984D02*
X8458277Y-18761984D01*
X8677325Y-18628650D02*
X8677325Y-18828650D01*
X8677325Y-18638174D02*
X8696373Y-18628650D01*
X8696373Y-18628650D02*
X8734468Y-18628650D01*
X8734468Y-18628650D02*
X8753515Y-18638174D01*
X8753515Y-18638174D02*
X8763039Y-18647698D01*
X8763039Y-18647698D02*
X8772563Y-18666746D01*
X8772563Y-18666746D02*
X8772563Y-18723889D01*
X8772563Y-18723889D02*
X8763039Y-18742936D01*
X8763039Y-18742936D02*
X8753515Y-18752460D01*
X8753515Y-18752460D02*
X8734468Y-18761984D01*
X8734468Y-18761984D02*
X8696373Y-18761984D01*
X8696373Y-18761984D02*
X8677325Y-18752460D01*
X8886849Y-18761984D02*
X8867801Y-18752460D01*
X8867801Y-18752460D02*
X8858277Y-18733412D01*
X8858277Y-18733412D02*
X8858277Y-18561984D01*
X9048754Y-18761984D02*
X9048754Y-18657222D01*
X9048754Y-18657222D02*
X9039230Y-18638174D01*
X9039230Y-18638174D02*
X9020182Y-18628650D01*
X9020182Y-18628650D02*
X8982087Y-18628650D01*
X8982087Y-18628650D02*
X8963039Y-18638174D01*
X9048754Y-18752460D02*
X9029706Y-18761984D01*
X9029706Y-18761984D02*
X8982087Y-18761984D01*
X8982087Y-18761984D02*
X8963039Y-18752460D01*
X8963039Y-18752460D02*
X8953515Y-18733412D01*
X8953515Y-18733412D02*
X8953515Y-18714365D01*
X8953515Y-18714365D02*
X8963039Y-18695317D01*
X8963039Y-18695317D02*
X8982087Y-18685793D01*
X8982087Y-18685793D02*
X9029706Y-18685793D01*
X9029706Y-18685793D02*
X9048754Y-18676270D01*
X9115420Y-18628650D02*
X9191611Y-18628650D01*
X9143992Y-18561984D02*
X9143992Y-18733412D01*
X9143992Y-18733412D02*
X9153515Y-18752460D01*
X9153515Y-18752460D02*
X9172563Y-18761984D01*
X9172563Y-18761984D02*
X9191611Y-18761984D01*
X9334468Y-18752460D02*
X9315420Y-18761984D01*
X9315420Y-18761984D02*
X9277325Y-18761984D01*
X9277325Y-18761984D02*
X9258277Y-18752460D01*
X9258277Y-18752460D02*
X9248754Y-18733412D01*
X9248754Y-18733412D02*
X9248754Y-18657222D01*
X9248754Y-18657222D02*
X9258277Y-18638174D01*
X9258277Y-18638174D02*
X9277325Y-18628650D01*
X9277325Y-18628650D02*
X9315420Y-18628650D01*
X9315420Y-18628650D02*
X9334468Y-18638174D01*
X9334468Y-18638174D02*
X9343992Y-18657222D01*
X9343992Y-18657222D02*
X9343992Y-18676270D01*
X9343992Y-18676270D02*
X9248754Y-18695317D01*
X9515420Y-18761984D02*
X9515420Y-18561984D01*
X9515420Y-18752460D02*
X9496373Y-18761984D01*
X9496373Y-18761984D02*
X9458277Y-18761984D01*
X9458277Y-18761984D02*
X9439230Y-18752460D01*
X9439230Y-18752460D02*
X9429706Y-18742936D01*
X9429706Y-18742936D02*
X9420182Y-18723889D01*
X9420182Y-18723889D02*
X9420182Y-18666746D01*
X9420182Y-18666746D02*
X9429706Y-18647698D01*
X9429706Y-18647698D02*
X9439230Y-18638174D01*
X9439230Y-18638174D02*
X9458277Y-18628650D01*
X9458277Y-18628650D02*
X9496373Y-18628650D01*
X9496373Y-18628650D02*
X9515420Y-18638174D01*
X9591611Y-18838174D02*
X9601135Y-18828650D01*
X9601135Y-18828650D02*
X9620182Y-18800079D01*
X9620182Y-18800079D02*
X9629706Y-18781031D01*
X9629706Y-18781031D02*
X9639230Y-18752460D01*
X9639230Y-18752460D02*
X9648754Y-18704841D01*
X9648754Y-18704841D02*
X9648754Y-18666746D01*
X9648754Y-18666746D02*
X9639230Y-18619127D01*
X9639230Y-18619127D02*
X9629706Y-18590555D01*
X9629706Y-18590555D02*
X9620182Y-18571508D01*
X9620182Y-18571508D02*
X9601135Y-18542936D01*
X9601135Y-18542936D02*
X9591611Y-18533412D01*
X2968211Y-19026211D02*
X2968211Y-18884789D01*
X2826789Y-18884789D01*
X2826789Y-19026211D01*
X2968211Y-19026211D01*
X3248753Y-18866031D02*
X3258277Y-18856508D01*
X3258277Y-18856508D02*
X3277324Y-18846984D01*
X3277324Y-18846984D02*
X3324943Y-18846984D01*
X3324943Y-18846984D02*
X3343991Y-18856508D01*
X3343991Y-18856508D02*
X3353515Y-18866031D01*
X3353515Y-18866031D02*
X3363039Y-18885079D01*
X3363039Y-18885079D02*
X3363039Y-18904127D01*
X3363039Y-18904127D02*
X3353515Y-18932698D01*
X3353515Y-18932698D02*
X3239229Y-19046984D01*
X3239229Y-19046984D02*
X3363039Y-19046984D01*
X3448753Y-19027936D02*
X3458277Y-19037460D01*
X3458277Y-19037460D02*
X3448753Y-19046984D01*
X3448753Y-19046984D02*
X3439229Y-19037460D01*
X3439229Y-19037460D02*
X3448753Y-19027936D01*
X3448753Y-19027936D02*
X3448753Y-19046984D01*
X3534467Y-18866031D02*
X3543991Y-18856508D01*
X3543991Y-18856508D02*
X3563039Y-18846984D01*
X3563039Y-18846984D02*
X3610658Y-18846984D01*
X3610658Y-18846984D02*
X3629705Y-18856508D01*
X3629705Y-18856508D02*
X3639229Y-18866031D01*
X3639229Y-18866031D02*
X3648753Y-18885079D01*
X3648753Y-18885079D02*
X3648753Y-18904127D01*
X3648753Y-18904127D02*
X3639229Y-18932698D01*
X3639229Y-18932698D02*
X3524943Y-19046984D01*
X3524943Y-19046984D02*
X3648753Y-19046984D01*
X3772562Y-18846984D02*
X3791610Y-18846984D01*
X3791610Y-18846984D02*
X3810658Y-18856508D01*
X3810658Y-18856508D02*
X3820182Y-18866031D01*
X3820182Y-18866031D02*
X3829705Y-18885079D01*
X3829705Y-18885079D02*
X3839229Y-18923174D01*
X3839229Y-18923174D02*
X3839229Y-18970793D01*
X3839229Y-18970793D02*
X3829705Y-19008889D01*
X3829705Y-19008889D02*
X3820182Y-19027936D01*
X3820182Y-19027936D02*
X3810658Y-19037460D01*
X3810658Y-19037460D02*
X3791610Y-19046984D01*
X3791610Y-19046984D02*
X3772562Y-19046984D01*
X3772562Y-19046984D02*
X3753515Y-19037460D01*
X3753515Y-19037460D02*
X3743991Y-19027936D01*
X3743991Y-19027936D02*
X3734467Y-19008889D01*
X3734467Y-19008889D02*
X3724943Y-18970793D01*
X3724943Y-18970793D02*
X3724943Y-18923174D01*
X3724943Y-18923174D02*
X3734467Y-18885079D01*
X3734467Y-18885079D02*
X3743991Y-18866031D01*
X3743991Y-18866031D02*
X3753515Y-18856508D01*
X3753515Y-18856508D02*
X3772562Y-18846984D01*
X3963039Y-18846984D02*
X3982086Y-18846984D01*
X3982086Y-18846984D02*
X4001134Y-18856508D01*
X4001134Y-18856508D02*
X4010658Y-18866031D01*
X4010658Y-18866031D02*
X4020182Y-18885079D01*
X4020182Y-18885079D02*
X4029705Y-18923174D01*
X4029705Y-18923174D02*
X4029705Y-18970793D01*
X4029705Y-18970793D02*
X4020182Y-19008889D01*
X4020182Y-19008889D02*
X4010658Y-19027936D01*
X4010658Y-19027936D02*
X4001134Y-19037460D01*
X4001134Y-19037460D02*
X3982086Y-19046984D01*
X3982086Y-19046984D02*
X3963039Y-19046984D01*
X3963039Y-19046984D02*
X3943991Y-19037460D01*
X3943991Y-19037460D02*
X3934467Y-19027936D01*
X3934467Y-19027936D02*
X3924943Y-19008889D01*
X3924943Y-19008889D02*
X3915420Y-18970793D01*
X3915420Y-18970793D02*
X3915420Y-18923174D01*
X3915420Y-18923174D02*
X3924943Y-18885079D01*
X3924943Y-18885079D02*
X3934467Y-18866031D01*
X3934467Y-18866031D02*
X3943991Y-18856508D01*
X3943991Y-18856508D02*
X3963039Y-18846984D01*
X4115420Y-19046984D02*
X4115420Y-18913650D01*
X4115420Y-18932698D02*
X4124943Y-18923174D01*
X4124943Y-18923174D02*
X4143991Y-18913650D01*
X4143991Y-18913650D02*
X4172563Y-18913650D01*
X4172563Y-18913650D02*
X4191610Y-18923174D01*
X4191610Y-18923174D02*
X4201134Y-18942222D01*
X4201134Y-18942222D02*
X4201134Y-19046984D01*
X4201134Y-18942222D02*
X4210658Y-18923174D01*
X4210658Y-18923174D02*
X4229705Y-18913650D01*
X4229705Y-18913650D02*
X4258277Y-18913650D01*
X4258277Y-18913650D02*
X4277325Y-18923174D01*
X4277325Y-18923174D02*
X4286848Y-18942222D01*
X4286848Y-18942222D02*
X4286848Y-19046984D01*
X4382086Y-19046984D02*
X4382086Y-18913650D01*
X4382086Y-18932698D02*
X4391610Y-18923174D01*
X4391610Y-18923174D02*
X4410658Y-18913650D01*
X4410658Y-18913650D02*
X4439229Y-18913650D01*
X4439229Y-18913650D02*
X4458277Y-18923174D01*
X4458277Y-18923174D02*
X4467801Y-18942222D01*
X4467801Y-18942222D02*
X4467801Y-19046984D01*
X4467801Y-18942222D02*
X4477325Y-18923174D01*
X4477325Y-18923174D02*
X4496372Y-18913650D01*
X4496372Y-18913650D02*
X4524944Y-18913650D01*
X4524944Y-18913650D02*
X4543991Y-18923174D01*
X4543991Y-18923174D02*
X4553515Y-18942222D01*
X4553515Y-18942222D02*
X4553515Y-19046984D01*
X4943991Y-18837460D02*
X4772563Y-19094603D01*
X5201134Y-18846984D02*
X5220182Y-18846984D01*
X5220182Y-18846984D02*
X5239229Y-18856508D01*
X5239229Y-18856508D02*
X5248753Y-18866031D01*
X5248753Y-18866031D02*
X5258277Y-18885079D01*
X5258277Y-18885079D02*
X5267801Y-18923174D01*
X5267801Y-18923174D02*
X5267801Y-18970793D01*
X5267801Y-18970793D02*
X5258277Y-19008889D01*
X5258277Y-19008889D02*
X5248753Y-19027936D01*
X5248753Y-19027936D02*
X5239229Y-19037460D01*
X5239229Y-19037460D02*
X5220182Y-19046984D01*
X5220182Y-19046984D02*
X5201134Y-19046984D01*
X5201134Y-19046984D02*
X5182087Y-19037460D01*
X5182087Y-19037460D02*
X5172563Y-19027936D01*
X5172563Y-19027936D02*
X5163039Y-19008889D01*
X5163039Y-19008889D02*
X5153515Y-18970793D01*
X5153515Y-18970793D02*
X5153515Y-18923174D01*
X5153515Y-18923174D02*
X5163039Y-18885079D01*
X5163039Y-18885079D02*
X5172563Y-18866031D01*
X5172563Y-18866031D02*
X5182087Y-18856508D01*
X5182087Y-18856508D02*
X5201134Y-18846984D01*
X5353515Y-19027936D02*
X5363039Y-19037460D01*
X5363039Y-19037460D02*
X5353515Y-19046984D01*
X5353515Y-19046984D02*
X5343991Y-19037460D01*
X5343991Y-19037460D02*
X5353515Y-19027936D01*
X5353515Y-19027936D02*
X5353515Y-19046984D01*
X5486848Y-18846984D02*
X5505896Y-18846984D01*
X5505896Y-18846984D02*
X5524944Y-18856508D01*
X5524944Y-18856508D02*
X5534468Y-18866031D01*
X5534468Y-18866031D02*
X5543991Y-18885079D01*
X5543991Y-18885079D02*
X5553515Y-18923174D01*
X5553515Y-18923174D02*
X5553515Y-18970793D01*
X5553515Y-18970793D02*
X5543991Y-19008889D01*
X5543991Y-19008889D02*
X5534468Y-19027936D01*
X5534468Y-19027936D02*
X5524944Y-19037460D01*
X5524944Y-19037460D02*
X5505896Y-19046984D01*
X5505896Y-19046984D02*
X5486848Y-19046984D01*
X5486848Y-19046984D02*
X5467801Y-19037460D01*
X5467801Y-19037460D02*
X5458277Y-19027936D01*
X5458277Y-19027936D02*
X5448753Y-19008889D01*
X5448753Y-19008889D02*
X5439229Y-18970793D01*
X5439229Y-18970793D02*
X5439229Y-18923174D01*
X5439229Y-18923174D02*
X5448753Y-18885079D01*
X5448753Y-18885079D02*
X5458277Y-18866031D01*
X5458277Y-18866031D02*
X5467801Y-18856508D01*
X5467801Y-18856508D02*
X5486848Y-18846984D01*
X5667801Y-18932698D02*
X5648753Y-18923174D01*
X5648753Y-18923174D02*
X5639229Y-18913650D01*
X5639229Y-18913650D02*
X5629706Y-18894603D01*
X5629706Y-18894603D02*
X5629706Y-18885079D01*
X5629706Y-18885079D02*
X5639229Y-18866031D01*
X5639229Y-18866031D02*
X5648753Y-18856508D01*
X5648753Y-18856508D02*
X5667801Y-18846984D01*
X5667801Y-18846984D02*
X5705896Y-18846984D01*
X5705896Y-18846984D02*
X5724944Y-18856508D01*
X5724944Y-18856508D02*
X5734467Y-18866031D01*
X5734467Y-18866031D02*
X5743991Y-18885079D01*
X5743991Y-18885079D02*
X5743991Y-18894603D01*
X5743991Y-18894603D02*
X5734467Y-18913650D01*
X5734467Y-18913650D02*
X5724944Y-18923174D01*
X5724944Y-18923174D02*
X5705896Y-18932698D01*
X5705896Y-18932698D02*
X5667801Y-18932698D01*
X5667801Y-18932698D02*
X5648753Y-18942222D01*
X5648753Y-18942222D02*
X5639229Y-18951746D01*
X5639229Y-18951746D02*
X5629706Y-18970793D01*
X5629706Y-18970793D02*
X5629706Y-19008889D01*
X5629706Y-19008889D02*
X5639229Y-19027936D01*
X5639229Y-19027936D02*
X5648753Y-19037460D01*
X5648753Y-19037460D02*
X5667801Y-19046984D01*
X5667801Y-19046984D02*
X5705896Y-19046984D01*
X5705896Y-19046984D02*
X5724944Y-19037460D01*
X5724944Y-19037460D02*
X5734467Y-19027936D01*
X5734467Y-19027936D02*
X5743991Y-19008889D01*
X5743991Y-19008889D02*
X5743991Y-18970793D01*
X5743991Y-18970793D02*
X5734467Y-18951746D01*
X5734467Y-18951746D02*
X5724944Y-18942222D01*
X5724944Y-18942222D02*
X5705896Y-18932698D01*
X5915420Y-18846984D02*
X5877325Y-18846984D01*
X5877325Y-18846984D02*
X5858277Y-18856508D01*
X5858277Y-18856508D02*
X5848753Y-18866031D01*
X5848753Y-18866031D02*
X5829706Y-18894603D01*
X5829706Y-18894603D02*
X5820182Y-18932698D01*
X5820182Y-18932698D02*
X5820182Y-19008889D01*
X5820182Y-19008889D02*
X5829706Y-19027936D01*
X5829706Y-19027936D02*
X5839229Y-19037460D01*
X5839229Y-19037460D02*
X5858277Y-19046984D01*
X5858277Y-19046984D02*
X5896372Y-19046984D01*
X5896372Y-19046984D02*
X5915420Y-19037460D01*
X5915420Y-19037460D02*
X5924944Y-19027936D01*
X5924944Y-19027936D02*
X5934467Y-19008889D01*
X5934467Y-19008889D02*
X5934467Y-18961270D01*
X5934467Y-18961270D02*
X5924944Y-18942222D01*
X5924944Y-18942222D02*
X5915420Y-18932698D01*
X5915420Y-18932698D02*
X5896372Y-18923174D01*
X5896372Y-18923174D02*
X5858277Y-18923174D01*
X5858277Y-18923174D02*
X5839229Y-18932698D01*
X5839229Y-18932698D02*
X5829706Y-18942222D01*
X5829706Y-18942222D02*
X5820182Y-18961270D01*
X6105896Y-18846984D02*
X6067801Y-18846984D01*
X6067801Y-18846984D02*
X6048753Y-18856508D01*
X6048753Y-18856508D02*
X6039229Y-18866031D01*
X6039229Y-18866031D02*
X6020182Y-18894603D01*
X6020182Y-18894603D02*
X6010658Y-18932698D01*
X6010658Y-18932698D02*
X6010658Y-19008889D01*
X6010658Y-19008889D02*
X6020182Y-19027936D01*
X6020182Y-19027936D02*
X6029706Y-19037460D01*
X6029706Y-19037460D02*
X6048753Y-19046984D01*
X6048753Y-19046984D02*
X6086848Y-19046984D01*
X6086848Y-19046984D02*
X6105896Y-19037460D01*
X6105896Y-19037460D02*
X6115420Y-19027936D01*
X6115420Y-19027936D02*
X6124944Y-19008889D01*
X6124944Y-19008889D02*
X6124944Y-18961270D01*
X6124944Y-18961270D02*
X6115420Y-18942222D01*
X6115420Y-18942222D02*
X6105896Y-18932698D01*
X6105896Y-18932698D02*
X6086848Y-18923174D01*
X6086848Y-18923174D02*
X6048753Y-18923174D01*
X6048753Y-18923174D02*
X6029706Y-18932698D01*
X6029706Y-18932698D02*
X6020182Y-18942222D01*
X6020182Y-18942222D02*
X6010658Y-18961270D01*
X6201134Y-18846984D02*
X6201134Y-18885079D01*
X6277325Y-18846984D02*
X6277325Y-18885079D01*
X6572563Y-19123174D02*
X6563039Y-19113650D01*
X6563039Y-19113650D02*
X6543991Y-19085079D01*
X6543991Y-19085079D02*
X6534468Y-19066031D01*
X6534468Y-19066031D02*
X6524944Y-19037460D01*
X6524944Y-19037460D02*
X6515420Y-18989841D01*
X6515420Y-18989841D02*
X6515420Y-18951746D01*
X6515420Y-18951746D02*
X6524944Y-18904127D01*
X6524944Y-18904127D02*
X6534468Y-18875555D01*
X6534468Y-18875555D02*
X6543991Y-18856508D01*
X6543991Y-18856508D02*
X6563039Y-18827936D01*
X6563039Y-18827936D02*
X6572563Y-18818412D01*
X6734468Y-18913650D02*
X6734468Y-19046984D01*
X6686848Y-18837460D02*
X6639229Y-18980317D01*
X6639229Y-18980317D02*
X6763039Y-18980317D01*
X6991610Y-19046984D02*
X6991610Y-18846984D01*
X7077325Y-19046984D02*
X7077325Y-18942222D01*
X7077325Y-18942222D02*
X7067801Y-18923174D01*
X7067801Y-18923174D02*
X7048753Y-18913650D01*
X7048753Y-18913650D02*
X7020182Y-18913650D01*
X7020182Y-18913650D02*
X7001134Y-18923174D01*
X7001134Y-18923174D02*
X6991610Y-18932698D01*
X7201134Y-19046984D02*
X7182087Y-19037460D01*
X7182087Y-19037460D02*
X7172563Y-19027936D01*
X7172563Y-19027936D02*
X7163039Y-19008889D01*
X7163039Y-19008889D02*
X7163039Y-18951746D01*
X7163039Y-18951746D02*
X7172563Y-18932698D01*
X7172563Y-18932698D02*
X7182087Y-18923174D01*
X7182087Y-18923174D02*
X7201134Y-18913650D01*
X7201134Y-18913650D02*
X7229706Y-18913650D01*
X7229706Y-18913650D02*
X7248753Y-18923174D01*
X7248753Y-18923174D02*
X7258277Y-18932698D01*
X7258277Y-18932698D02*
X7267801Y-18951746D01*
X7267801Y-18951746D02*
X7267801Y-19008889D01*
X7267801Y-19008889D02*
X7258277Y-19027936D01*
X7258277Y-19027936D02*
X7248753Y-19037460D01*
X7248753Y-19037460D02*
X7229706Y-19046984D01*
X7229706Y-19046984D02*
X7201134Y-19046984D01*
X7382087Y-19046984D02*
X7363039Y-19037460D01*
X7363039Y-19037460D02*
X7353515Y-19018412D01*
X7353515Y-19018412D02*
X7353515Y-18846984D01*
X7534468Y-19037460D02*
X7515420Y-19046984D01*
X7515420Y-19046984D02*
X7477325Y-19046984D01*
X7477325Y-19046984D02*
X7458277Y-19037460D01*
X7458277Y-19037460D02*
X7448753Y-19018412D01*
X7448753Y-19018412D02*
X7448753Y-18942222D01*
X7448753Y-18942222D02*
X7458277Y-18923174D01*
X7458277Y-18923174D02*
X7477325Y-18913650D01*
X7477325Y-18913650D02*
X7515420Y-18913650D01*
X7515420Y-18913650D02*
X7534468Y-18923174D01*
X7534468Y-18923174D02*
X7543991Y-18942222D01*
X7543991Y-18942222D02*
X7543991Y-18961270D01*
X7543991Y-18961270D02*
X7448753Y-18980317D01*
X7620182Y-19037460D02*
X7639230Y-19046984D01*
X7639230Y-19046984D02*
X7677325Y-19046984D01*
X7677325Y-19046984D02*
X7696372Y-19037460D01*
X7696372Y-19037460D02*
X7705896Y-19018412D01*
X7705896Y-19018412D02*
X7705896Y-19008889D01*
X7705896Y-19008889D02*
X7696372Y-18989841D01*
X7696372Y-18989841D02*
X7677325Y-18980317D01*
X7677325Y-18980317D02*
X7648753Y-18980317D01*
X7648753Y-18980317D02*
X7629706Y-18970793D01*
X7629706Y-18970793D02*
X7620182Y-18951746D01*
X7620182Y-18951746D02*
X7620182Y-18942222D01*
X7620182Y-18942222D02*
X7629706Y-18923174D01*
X7629706Y-18923174D02*
X7648753Y-18913650D01*
X7648753Y-18913650D02*
X7677325Y-18913650D01*
X7677325Y-18913650D02*
X7696372Y-18923174D01*
X7772563Y-19123174D02*
X7782087Y-19113650D01*
X7782087Y-19113650D02*
X7801134Y-19085079D01*
X7801134Y-19085079D02*
X7810658Y-19066031D01*
X7810658Y-19066031D02*
X7820182Y-19037460D01*
X7820182Y-19037460D02*
X7829706Y-18989841D01*
X7829706Y-18989841D02*
X7829706Y-18951746D01*
X7829706Y-18951746D02*
X7820182Y-18904127D01*
X7820182Y-18904127D02*
X7810658Y-18875555D01*
X7810658Y-18875555D02*
X7801134Y-18856508D01*
X7801134Y-18856508D02*
X7782087Y-18827936D01*
X7782087Y-18827936D02*
X7772563Y-18818412D01*
X8134468Y-19123174D02*
X8124944Y-19113650D01*
X8124944Y-19113650D02*
X8105896Y-19085079D01*
X8105896Y-19085079D02*
X8096372Y-19066031D01*
X8096372Y-19066031D02*
X8086849Y-19037460D01*
X8086849Y-19037460D02*
X8077325Y-18989841D01*
X8077325Y-18989841D02*
X8077325Y-18951746D01*
X8077325Y-18951746D02*
X8086849Y-18904127D01*
X8086849Y-18904127D02*
X8096372Y-18875555D01*
X8096372Y-18875555D02*
X8105896Y-18856508D01*
X8105896Y-18856508D02*
X8124944Y-18827936D01*
X8124944Y-18827936D02*
X8134468Y-18818412D01*
X8210658Y-18913650D02*
X8210658Y-19046984D01*
X8210658Y-18932698D02*
X8220182Y-18923174D01*
X8220182Y-18923174D02*
X8239230Y-18913650D01*
X8239230Y-18913650D02*
X8267801Y-18913650D01*
X8267801Y-18913650D02*
X8286849Y-18923174D01*
X8286849Y-18923174D02*
X8296372Y-18942222D01*
X8296372Y-18942222D02*
X8296372Y-19046984D01*
X8420182Y-19046984D02*
X8401134Y-19037460D01*
X8401134Y-19037460D02*
X8391611Y-19027936D01*
X8391611Y-19027936D02*
X8382087Y-19008889D01*
X8382087Y-19008889D02*
X8382087Y-18951746D01*
X8382087Y-18951746D02*
X8391611Y-18932698D01*
X8391611Y-18932698D02*
X8401134Y-18923174D01*
X8401134Y-18923174D02*
X8420182Y-18913650D01*
X8420182Y-18913650D02*
X8448754Y-18913650D01*
X8448754Y-18913650D02*
X8467801Y-18923174D01*
X8467801Y-18923174D02*
X8477325Y-18932698D01*
X8477325Y-18932698D02*
X8486849Y-18951746D01*
X8486849Y-18951746D02*
X8486849Y-19008889D01*
X8486849Y-19008889D02*
X8477325Y-19027936D01*
X8477325Y-19027936D02*
X8467801Y-19037460D01*
X8467801Y-19037460D02*
X8448754Y-19046984D01*
X8448754Y-19046984D02*
X8420182Y-19046984D01*
X8543992Y-18913650D02*
X8620182Y-18913650D01*
X8572563Y-18846984D02*
X8572563Y-19018412D01*
X8572563Y-19018412D02*
X8582087Y-19037460D01*
X8582087Y-19037460D02*
X8601134Y-19046984D01*
X8601134Y-19046984D02*
X8620182Y-19046984D01*
X8839230Y-18913650D02*
X8839230Y-19113650D01*
X8839230Y-18923174D02*
X8858277Y-18913650D01*
X8858277Y-18913650D02*
X8896373Y-18913650D01*
X8896373Y-18913650D02*
X8915420Y-18923174D01*
X8915420Y-18923174D02*
X8924944Y-18932698D01*
X8924944Y-18932698D02*
X8934468Y-18951746D01*
X8934468Y-18951746D02*
X8934468Y-19008889D01*
X8934468Y-19008889D02*
X8924944Y-19027936D01*
X8924944Y-19027936D02*
X8915420Y-19037460D01*
X8915420Y-19037460D02*
X8896373Y-19046984D01*
X8896373Y-19046984D02*
X8858277Y-19046984D01*
X8858277Y-19046984D02*
X8839230Y-19037460D01*
X9048754Y-19046984D02*
X9029706Y-19037460D01*
X9029706Y-19037460D02*
X9020182Y-19018412D01*
X9020182Y-19018412D02*
X9020182Y-18846984D01*
X9210658Y-19046984D02*
X9210658Y-18942222D01*
X9210658Y-18942222D02*
X9201135Y-18923174D01*
X9201135Y-18923174D02*
X9182087Y-18913650D01*
X9182087Y-18913650D02*
X9143992Y-18913650D01*
X9143992Y-18913650D02*
X9124944Y-18923174D01*
X9210658Y-19037460D02*
X9191611Y-19046984D01*
X9191611Y-19046984D02*
X9143992Y-19046984D01*
X9143992Y-19046984D02*
X9124944Y-19037460D01*
X9124944Y-19037460D02*
X9115420Y-19018412D01*
X9115420Y-19018412D02*
X9115420Y-18999365D01*
X9115420Y-18999365D02*
X9124944Y-18980317D01*
X9124944Y-18980317D02*
X9143992Y-18970793D01*
X9143992Y-18970793D02*
X9191611Y-18970793D01*
X9191611Y-18970793D02*
X9210658Y-18961270D01*
X9277325Y-18913650D02*
X9353515Y-18913650D01*
X9305896Y-18846984D02*
X9305896Y-19018412D01*
X9305896Y-19018412D02*
X9315420Y-19037460D01*
X9315420Y-19037460D02*
X9334468Y-19046984D01*
X9334468Y-19046984D02*
X9353515Y-19046984D01*
X9496373Y-19037460D02*
X9477325Y-19046984D01*
X9477325Y-19046984D02*
X9439230Y-19046984D01*
X9439230Y-19046984D02*
X9420182Y-19037460D01*
X9420182Y-19037460D02*
X9410658Y-19018412D01*
X9410658Y-19018412D02*
X9410658Y-18942222D01*
X9410658Y-18942222D02*
X9420182Y-18923174D01*
X9420182Y-18923174D02*
X9439230Y-18913650D01*
X9439230Y-18913650D02*
X9477325Y-18913650D01*
X9477325Y-18913650D02*
X9496373Y-18923174D01*
X9496373Y-18923174D02*
X9505896Y-18942222D01*
X9505896Y-18942222D02*
X9505896Y-18961270D01*
X9505896Y-18961270D02*
X9410658Y-18980317D01*
X9677325Y-19046984D02*
X9677325Y-18846984D01*
X9677325Y-19037460D02*
X9658277Y-19046984D01*
X9658277Y-19046984D02*
X9620182Y-19046984D01*
X9620182Y-19046984D02*
X9601135Y-19037460D01*
X9601135Y-19037460D02*
X9591611Y-19027936D01*
X9591611Y-19027936D02*
X9582087Y-19008889D01*
X9582087Y-19008889D02*
X9582087Y-18951746D01*
X9582087Y-18951746D02*
X9591611Y-18932698D01*
X9591611Y-18932698D02*
X9601135Y-18923174D01*
X9601135Y-18923174D02*
X9620182Y-18913650D01*
X9620182Y-18913650D02*
X9658277Y-18913650D01*
X9658277Y-18913650D02*
X9677325Y-18923174D01*
X9753516Y-19123174D02*
X9763039Y-19113650D01*
X9763039Y-19113650D02*
X9782087Y-19085079D01*
X9782087Y-19085079D02*
X9791611Y-19066031D01*
X9791611Y-19066031D02*
X9801135Y-19037460D01*
X9801135Y-19037460D02*
X9810658Y-18989841D01*
X9810658Y-18989841D02*
X9810658Y-18951746D01*
X9810658Y-18951746D02*
X9801135Y-18904127D01*
X9801135Y-18904127D02*
X9791611Y-18875555D01*
X9791611Y-18875555D02*
X9782087Y-18856508D01*
X9782087Y-18856508D02*
X9763039Y-18827936D01*
X9763039Y-18827936D02*
X9753516Y-18818412D01*
X2897500Y-19375500D02*
X2997500Y-19275500D01*
X2897500Y-19175500D01*
X2797500Y-19275500D01*
X2897500Y-19375500D01*
X3248753Y-19186031D02*
X3258277Y-19176508D01*
X3258277Y-19176508D02*
X3277324Y-19166984D01*
X3277324Y-19166984D02*
X3324943Y-19166984D01*
X3324943Y-19166984D02*
X3343991Y-19176508D01*
X3343991Y-19176508D02*
X3353515Y-19186031D01*
X3353515Y-19186031D02*
X3363039Y-19205079D01*
X3363039Y-19205079D02*
X3363039Y-19224127D01*
X3363039Y-19224127D02*
X3353515Y-19252698D01*
X3353515Y-19252698D02*
X3239229Y-19366984D01*
X3239229Y-19366984D02*
X3363039Y-19366984D01*
X3448753Y-19347936D02*
X3458277Y-19357460D01*
X3458277Y-19357460D02*
X3448753Y-19366984D01*
X3448753Y-19366984D02*
X3439229Y-19357460D01*
X3439229Y-19357460D02*
X3448753Y-19347936D01*
X3448753Y-19347936D02*
X3448753Y-19366984D01*
X3524943Y-19166984D02*
X3648753Y-19166984D01*
X3648753Y-19166984D02*
X3582086Y-19243174D01*
X3582086Y-19243174D02*
X3610658Y-19243174D01*
X3610658Y-19243174D02*
X3629705Y-19252698D01*
X3629705Y-19252698D02*
X3639229Y-19262222D01*
X3639229Y-19262222D02*
X3648753Y-19281270D01*
X3648753Y-19281270D02*
X3648753Y-19328889D01*
X3648753Y-19328889D02*
X3639229Y-19347936D01*
X3639229Y-19347936D02*
X3629705Y-19357460D01*
X3629705Y-19357460D02*
X3610658Y-19366984D01*
X3610658Y-19366984D02*
X3553515Y-19366984D01*
X3553515Y-19366984D02*
X3534467Y-19357460D01*
X3534467Y-19357460D02*
X3524943Y-19347936D01*
X3743991Y-19366984D02*
X3782086Y-19366984D01*
X3782086Y-19366984D02*
X3801134Y-19357460D01*
X3801134Y-19357460D02*
X3810658Y-19347936D01*
X3810658Y-19347936D02*
X3829705Y-19319365D01*
X3829705Y-19319365D02*
X3839229Y-19281270D01*
X3839229Y-19281270D02*
X3839229Y-19205079D01*
X3839229Y-19205079D02*
X3829705Y-19186031D01*
X3829705Y-19186031D02*
X3820182Y-19176508D01*
X3820182Y-19176508D02*
X3801134Y-19166984D01*
X3801134Y-19166984D02*
X3763039Y-19166984D01*
X3763039Y-19166984D02*
X3743991Y-19176508D01*
X3743991Y-19176508D02*
X3734467Y-19186031D01*
X3734467Y-19186031D02*
X3724943Y-19205079D01*
X3724943Y-19205079D02*
X3724943Y-19252698D01*
X3724943Y-19252698D02*
X3734467Y-19271746D01*
X3734467Y-19271746D02*
X3743991Y-19281270D01*
X3743991Y-19281270D02*
X3763039Y-19290793D01*
X3763039Y-19290793D02*
X3801134Y-19290793D01*
X3801134Y-19290793D02*
X3820182Y-19281270D01*
X3820182Y-19281270D02*
X3829705Y-19271746D01*
X3829705Y-19271746D02*
X3839229Y-19252698D01*
X3963039Y-19166984D02*
X3982086Y-19166984D01*
X3982086Y-19166984D02*
X4001134Y-19176508D01*
X4001134Y-19176508D02*
X4010658Y-19186031D01*
X4010658Y-19186031D02*
X4020182Y-19205079D01*
X4020182Y-19205079D02*
X4029705Y-19243174D01*
X4029705Y-19243174D02*
X4029705Y-19290793D01*
X4029705Y-19290793D02*
X4020182Y-19328889D01*
X4020182Y-19328889D02*
X4010658Y-19347936D01*
X4010658Y-19347936D02*
X4001134Y-19357460D01*
X4001134Y-19357460D02*
X3982086Y-19366984D01*
X3982086Y-19366984D02*
X3963039Y-19366984D01*
X3963039Y-19366984D02*
X3943991Y-19357460D01*
X3943991Y-19357460D02*
X3934467Y-19347936D01*
X3934467Y-19347936D02*
X3924943Y-19328889D01*
X3924943Y-19328889D02*
X3915420Y-19290793D01*
X3915420Y-19290793D02*
X3915420Y-19243174D01*
X3915420Y-19243174D02*
X3924943Y-19205079D01*
X3924943Y-19205079D02*
X3934467Y-19186031D01*
X3934467Y-19186031D02*
X3943991Y-19176508D01*
X3943991Y-19176508D02*
X3963039Y-19166984D01*
X4115420Y-19366984D02*
X4115420Y-19233650D01*
X4115420Y-19252698D02*
X4124943Y-19243174D01*
X4124943Y-19243174D02*
X4143991Y-19233650D01*
X4143991Y-19233650D02*
X4172563Y-19233650D01*
X4172563Y-19233650D02*
X4191610Y-19243174D01*
X4191610Y-19243174D02*
X4201134Y-19262222D01*
X4201134Y-19262222D02*
X4201134Y-19366984D01*
X4201134Y-19262222D02*
X4210658Y-19243174D01*
X4210658Y-19243174D02*
X4229705Y-19233650D01*
X4229705Y-19233650D02*
X4258277Y-19233650D01*
X4258277Y-19233650D02*
X4277325Y-19243174D01*
X4277325Y-19243174D02*
X4286848Y-19262222D01*
X4286848Y-19262222D02*
X4286848Y-19366984D01*
X4382086Y-19366984D02*
X4382086Y-19233650D01*
X4382086Y-19252698D02*
X4391610Y-19243174D01*
X4391610Y-19243174D02*
X4410658Y-19233650D01*
X4410658Y-19233650D02*
X4439229Y-19233650D01*
X4439229Y-19233650D02*
X4458277Y-19243174D01*
X4458277Y-19243174D02*
X4467801Y-19262222D01*
X4467801Y-19262222D02*
X4467801Y-19366984D01*
X4467801Y-19262222D02*
X4477325Y-19243174D01*
X4477325Y-19243174D02*
X4496372Y-19233650D01*
X4496372Y-19233650D02*
X4524944Y-19233650D01*
X4524944Y-19233650D02*
X4543991Y-19243174D01*
X4543991Y-19243174D02*
X4553515Y-19262222D01*
X4553515Y-19262222D02*
X4553515Y-19366984D01*
X4943991Y-19157460D02*
X4772563Y-19414603D01*
X5201134Y-19166984D02*
X5220182Y-19166984D01*
X5220182Y-19166984D02*
X5239229Y-19176508D01*
X5239229Y-19176508D02*
X5248753Y-19186031D01*
X5248753Y-19186031D02*
X5258277Y-19205079D01*
X5258277Y-19205079D02*
X5267801Y-19243174D01*
X5267801Y-19243174D02*
X5267801Y-19290793D01*
X5267801Y-19290793D02*
X5258277Y-19328889D01*
X5258277Y-19328889D02*
X5248753Y-19347936D01*
X5248753Y-19347936D02*
X5239229Y-19357460D01*
X5239229Y-19357460D02*
X5220182Y-19366984D01*
X5220182Y-19366984D02*
X5201134Y-19366984D01*
X5201134Y-19366984D02*
X5182087Y-19357460D01*
X5182087Y-19357460D02*
X5172563Y-19347936D01*
X5172563Y-19347936D02*
X5163039Y-19328889D01*
X5163039Y-19328889D02*
X5153515Y-19290793D01*
X5153515Y-19290793D02*
X5153515Y-19243174D01*
X5153515Y-19243174D02*
X5163039Y-19205079D01*
X5163039Y-19205079D02*
X5172563Y-19186031D01*
X5172563Y-19186031D02*
X5182087Y-19176508D01*
X5182087Y-19176508D02*
X5201134Y-19166984D01*
X5353515Y-19347936D02*
X5363039Y-19357460D01*
X5363039Y-19357460D02*
X5353515Y-19366984D01*
X5353515Y-19366984D02*
X5343991Y-19357460D01*
X5343991Y-19357460D02*
X5353515Y-19347936D01*
X5353515Y-19347936D02*
X5353515Y-19366984D01*
X5486848Y-19166984D02*
X5505896Y-19166984D01*
X5505896Y-19166984D02*
X5524944Y-19176508D01*
X5524944Y-19176508D02*
X5534468Y-19186031D01*
X5534468Y-19186031D02*
X5543991Y-19205079D01*
X5543991Y-19205079D02*
X5553515Y-19243174D01*
X5553515Y-19243174D02*
X5553515Y-19290793D01*
X5553515Y-19290793D02*
X5543991Y-19328889D01*
X5543991Y-19328889D02*
X5534468Y-19347936D01*
X5534468Y-19347936D02*
X5524944Y-19357460D01*
X5524944Y-19357460D02*
X5505896Y-19366984D01*
X5505896Y-19366984D02*
X5486848Y-19366984D01*
X5486848Y-19366984D02*
X5467801Y-19357460D01*
X5467801Y-19357460D02*
X5458277Y-19347936D01*
X5458277Y-19347936D02*
X5448753Y-19328889D01*
X5448753Y-19328889D02*
X5439229Y-19290793D01*
X5439229Y-19290793D02*
X5439229Y-19243174D01*
X5439229Y-19243174D02*
X5448753Y-19205079D01*
X5448753Y-19205079D02*
X5458277Y-19186031D01*
X5458277Y-19186031D02*
X5467801Y-19176508D01*
X5467801Y-19176508D02*
X5486848Y-19166984D01*
X5648753Y-19366984D02*
X5686848Y-19366984D01*
X5686848Y-19366984D02*
X5705896Y-19357460D01*
X5705896Y-19357460D02*
X5715420Y-19347936D01*
X5715420Y-19347936D02*
X5734467Y-19319365D01*
X5734467Y-19319365D02*
X5743991Y-19281270D01*
X5743991Y-19281270D02*
X5743991Y-19205079D01*
X5743991Y-19205079D02*
X5734467Y-19186031D01*
X5734467Y-19186031D02*
X5724944Y-19176508D01*
X5724944Y-19176508D02*
X5705896Y-19166984D01*
X5705896Y-19166984D02*
X5667801Y-19166984D01*
X5667801Y-19166984D02*
X5648753Y-19176508D01*
X5648753Y-19176508D02*
X5639229Y-19186031D01*
X5639229Y-19186031D02*
X5629706Y-19205079D01*
X5629706Y-19205079D02*
X5629706Y-19252698D01*
X5629706Y-19252698D02*
X5639229Y-19271746D01*
X5639229Y-19271746D02*
X5648753Y-19281270D01*
X5648753Y-19281270D02*
X5667801Y-19290793D01*
X5667801Y-19290793D02*
X5705896Y-19290793D01*
X5705896Y-19290793D02*
X5724944Y-19281270D01*
X5724944Y-19281270D02*
X5734467Y-19271746D01*
X5734467Y-19271746D02*
X5743991Y-19252698D01*
X5915420Y-19233650D02*
X5915420Y-19366984D01*
X5867801Y-19157460D02*
X5820182Y-19300317D01*
X5820182Y-19300317D02*
X5943991Y-19300317D01*
X6124944Y-19366984D02*
X6010658Y-19366984D01*
X6067801Y-19366984D02*
X6067801Y-19166984D01*
X6067801Y-19166984D02*
X6048753Y-19195555D01*
X6048753Y-19195555D02*
X6029706Y-19214603D01*
X6029706Y-19214603D02*
X6010658Y-19224127D01*
X6201134Y-19166984D02*
X6201134Y-19205079D01*
X6277325Y-19166984D02*
X6277325Y-19205079D01*
X6572563Y-19443174D02*
X6563039Y-19433650D01*
X6563039Y-19433650D02*
X6543991Y-19405079D01*
X6543991Y-19405079D02*
X6534468Y-19386031D01*
X6534468Y-19386031D02*
X6524944Y-19357460D01*
X6524944Y-19357460D02*
X6515420Y-19309841D01*
X6515420Y-19309841D02*
X6515420Y-19271746D01*
X6515420Y-19271746D02*
X6524944Y-19224127D01*
X6524944Y-19224127D02*
X6534468Y-19195555D01*
X6534468Y-19195555D02*
X6543991Y-19176508D01*
X6543991Y-19176508D02*
X6563039Y-19147936D01*
X6563039Y-19147936D02*
X6572563Y-19138412D01*
X6639229Y-19186031D02*
X6648753Y-19176508D01*
X6648753Y-19176508D02*
X6667801Y-19166984D01*
X6667801Y-19166984D02*
X6715420Y-19166984D01*
X6715420Y-19166984D02*
X6734468Y-19176508D01*
X6734468Y-19176508D02*
X6743991Y-19186031D01*
X6743991Y-19186031D02*
X6753515Y-19205079D01*
X6753515Y-19205079D02*
X6753515Y-19224127D01*
X6753515Y-19224127D02*
X6743991Y-19252698D01*
X6743991Y-19252698D02*
X6629706Y-19366984D01*
X6629706Y-19366984D02*
X6753515Y-19366984D01*
X6991610Y-19366984D02*
X6991610Y-19166984D01*
X7077325Y-19366984D02*
X7077325Y-19262222D01*
X7077325Y-19262222D02*
X7067801Y-19243174D01*
X7067801Y-19243174D02*
X7048753Y-19233650D01*
X7048753Y-19233650D02*
X7020182Y-19233650D01*
X7020182Y-19233650D02*
X7001134Y-19243174D01*
X7001134Y-19243174D02*
X6991610Y-19252698D01*
X7201134Y-19366984D02*
X7182087Y-19357460D01*
X7182087Y-19357460D02*
X7172563Y-19347936D01*
X7172563Y-19347936D02*
X7163039Y-19328889D01*
X7163039Y-19328889D02*
X7163039Y-19271746D01*
X7163039Y-19271746D02*
X7172563Y-19252698D01*
X7172563Y-19252698D02*
X7182087Y-19243174D01*
X7182087Y-19243174D02*
X7201134Y-19233650D01*
X7201134Y-19233650D02*
X7229706Y-19233650D01*
X7229706Y-19233650D02*
X7248753Y-19243174D01*
X7248753Y-19243174D02*
X7258277Y-19252698D01*
X7258277Y-19252698D02*
X7267801Y-19271746D01*
X7267801Y-19271746D02*
X7267801Y-19328889D01*
X7267801Y-19328889D02*
X7258277Y-19347936D01*
X7258277Y-19347936D02*
X7248753Y-19357460D01*
X7248753Y-19357460D02*
X7229706Y-19366984D01*
X7229706Y-19366984D02*
X7201134Y-19366984D01*
X7382087Y-19366984D02*
X7363039Y-19357460D01*
X7363039Y-19357460D02*
X7353515Y-19338412D01*
X7353515Y-19338412D02*
X7353515Y-19166984D01*
X7534468Y-19357460D02*
X7515420Y-19366984D01*
X7515420Y-19366984D02*
X7477325Y-19366984D01*
X7477325Y-19366984D02*
X7458277Y-19357460D01*
X7458277Y-19357460D02*
X7448753Y-19338412D01*
X7448753Y-19338412D02*
X7448753Y-19262222D01*
X7448753Y-19262222D02*
X7458277Y-19243174D01*
X7458277Y-19243174D02*
X7477325Y-19233650D01*
X7477325Y-19233650D02*
X7515420Y-19233650D01*
X7515420Y-19233650D02*
X7534468Y-19243174D01*
X7534468Y-19243174D02*
X7543991Y-19262222D01*
X7543991Y-19262222D02*
X7543991Y-19281270D01*
X7543991Y-19281270D02*
X7448753Y-19300317D01*
X7620182Y-19357460D02*
X7639230Y-19366984D01*
X7639230Y-19366984D02*
X7677325Y-19366984D01*
X7677325Y-19366984D02*
X7696372Y-19357460D01*
X7696372Y-19357460D02*
X7705896Y-19338412D01*
X7705896Y-19338412D02*
X7705896Y-19328889D01*
X7705896Y-19328889D02*
X7696372Y-19309841D01*
X7696372Y-19309841D02*
X7677325Y-19300317D01*
X7677325Y-19300317D02*
X7648753Y-19300317D01*
X7648753Y-19300317D02*
X7629706Y-19290793D01*
X7629706Y-19290793D02*
X7620182Y-19271746D01*
X7620182Y-19271746D02*
X7620182Y-19262222D01*
X7620182Y-19262222D02*
X7629706Y-19243174D01*
X7629706Y-19243174D02*
X7648753Y-19233650D01*
X7648753Y-19233650D02*
X7677325Y-19233650D01*
X7677325Y-19233650D02*
X7696372Y-19243174D01*
X7772563Y-19443174D02*
X7782087Y-19433650D01*
X7782087Y-19433650D02*
X7801134Y-19405079D01*
X7801134Y-19405079D02*
X7810658Y-19386031D01*
X7810658Y-19386031D02*
X7820182Y-19357460D01*
X7820182Y-19357460D02*
X7829706Y-19309841D01*
X7829706Y-19309841D02*
X7829706Y-19271746D01*
X7829706Y-19271746D02*
X7820182Y-19224127D01*
X7820182Y-19224127D02*
X7810658Y-19195555D01*
X7810658Y-19195555D02*
X7801134Y-19176508D01*
X7801134Y-19176508D02*
X7782087Y-19147936D01*
X7782087Y-19147936D02*
X7772563Y-19138412D01*
X8134468Y-19443174D02*
X8124944Y-19433650D01*
X8124944Y-19433650D02*
X8105896Y-19405079D01*
X8105896Y-19405079D02*
X8096372Y-19386031D01*
X8096372Y-19386031D02*
X8086849Y-19357460D01*
X8086849Y-19357460D02*
X8077325Y-19309841D01*
X8077325Y-19309841D02*
X8077325Y-19271746D01*
X8077325Y-19271746D02*
X8086849Y-19224127D01*
X8086849Y-19224127D02*
X8096372Y-19195555D01*
X8096372Y-19195555D02*
X8105896Y-19176508D01*
X8105896Y-19176508D02*
X8124944Y-19147936D01*
X8124944Y-19147936D02*
X8134468Y-19138412D01*
X8210658Y-19233650D02*
X8210658Y-19366984D01*
X8210658Y-19252698D02*
X8220182Y-19243174D01*
X8220182Y-19243174D02*
X8239230Y-19233650D01*
X8239230Y-19233650D02*
X8267801Y-19233650D01*
X8267801Y-19233650D02*
X8286849Y-19243174D01*
X8286849Y-19243174D02*
X8296372Y-19262222D01*
X8296372Y-19262222D02*
X8296372Y-19366984D01*
X8420182Y-19366984D02*
X8401134Y-19357460D01*
X8401134Y-19357460D02*
X8391611Y-19347936D01*
X8391611Y-19347936D02*
X8382087Y-19328889D01*
X8382087Y-19328889D02*
X8382087Y-19271746D01*
X8382087Y-19271746D02*
X8391611Y-19252698D01*
X8391611Y-19252698D02*
X8401134Y-19243174D01*
X8401134Y-19243174D02*
X8420182Y-19233650D01*
X8420182Y-19233650D02*
X8448754Y-19233650D01*
X8448754Y-19233650D02*
X8467801Y-19243174D01*
X8467801Y-19243174D02*
X8477325Y-19252698D01*
X8477325Y-19252698D02*
X8486849Y-19271746D01*
X8486849Y-19271746D02*
X8486849Y-19328889D01*
X8486849Y-19328889D02*
X8477325Y-19347936D01*
X8477325Y-19347936D02*
X8467801Y-19357460D01*
X8467801Y-19357460D02*
X8448754Y-19366984D01*
X8448754Y-19366984D02*
X8420182Y-19366984D01*
X8543992Y-19233650D02*
X8620182Y-19233650D01*
X8572563Y-19166984D02*
X8572563Y-19338412D01*
X8572563Y-19338412D02*
X8582087Y-19357460D01*
X8582087Y-19357460D02*
X8601134Y-19366984D01*
X8601134Y-19366984D02*
X8620182Y-19366984D01*
X8839230Y-19233650D02*
X8839230Y-19433650D01*
X8839230Y-19243174D02*
X8858277Y-19233650D01*
X8858277Y-19233650D02*
X8896373Y-19233650D01*
X8896373Y-19233650D02*
X8915420Y-19243174D01*
X8915420Y-19243174D02*
X8924944Y-19252698D01*
X8924944Y-19252698D02*
X8934468Y-19271746D01*
X8934468Y-19271746D02*
X8934468Y-19328889D01*
X8934468Y-19328889D02*
X8924944Y-19347936D01*
X8924944Y-19347936D02*
X8915420Y-19357460D01*
X8915420Y-19357460D02*
X8896373Y-19366984D01*
X8896373Y-19366984D02*
X8858277Y-19366984D01*
X8858277Y-19366984D02*
X8839230Y-19357460D01*
X9048754Y-19366984D02*
X9029706Y-19357460D01*
X9029706Y-19357460D02*
X9020182Y-19338412D01*
X9020182Y-19338412D02*
X9020182Y-19166984D01*
X9210658Y-19366984D02*
X9210658Y-19262222D01*
X9210658Y-19262222D02*
X9201135Y-19243174D01*
X9201135Y-19243174D02*
X9182087Y-19233650D01*
X9182087Y-19233650D02*
X9143992Y-19233650D01*
X9143992Y-19233650D02*
X9124944Y-19243174D01*
X9210658Y-19357460D02*
X9191611Y-19366984D01*
X9191611Y-19366984D02*
X9143992Y-19366984D01*
X9143992Y-19366984D02*
X9124944Y-19357460D01*
X9124944Y-19357460D02*
X9115420Y-19338412D01*
X9115420Y-19338412D02*
X9115420Y-19319365D01*
X9115420Y-19319365D02*
X9124944Y-19300317D01*
X9124944Y-19300317D02*
X9143992Y-19290793D01*
X9143992Y-19290793D02*
X9191611Y-19290793D01*
X9191611Y-19290793D02*
X9210658Y-19281270D01*
X9277325Y-19233650D02*
X9353515Y-19233650D01*
X9305896Y-19166984D02*
X9305896Y-19338412D01*
X9305896Y-19338412D02*
X9315420Y-19357460D01*
X9315420Y-19357460D02*
X9334468Y-19366984D01*
X9334468Y-19366984D02*
X9353515Y-19366984D01*
X9496373Y-19357460D02*
X9477325Y-19366984D01*
X9477325Y-19366984D02*
X9439230Y-19366984D01*
X9439230Y-19366984D02*
X9420182Y-19357460D01*
X9420182Y-19357460D02*
X9410658Y-19338412D01*
X9410658Y-19338412D02*
X9410658Y-19262222D01*
X9410658Y-19262222D02*
X9420182Y-19243174D01*
X9420182Y-19243174D02*
X9439230Y-19233650D01*
X9439230Y-19233650D02*
X9477325Y-19233650D01*
X9477325Y-19233650D02*
X9496373Y-19243174D01*
X9496373Y-19243174D02*
X9505896Y-19262222D01*
X9505896Y-19262222D02*
X9505896Y-19281270D01*
X9505896Y-19281270D02*
X9410658Y-19300317D01*
X9677325Y-19366984D02*
X9677325Y-19166984D01*
X9677325Y-19357460D02*
X9658277Y-19366984D01*
X9658277Y-19366984D02*
X9620182Y-19366984D01*
X9620182Y-19366984D02*
X9601135Y-19357460D01*
X9601135Y-19357460D02*
X9591611Y-19347936D01*
X9591611Y-19347936D02*
X9582087Y-19328889D01*
X9582087Y-19328889D02*
X9582087Y-19271746D01*
X9582087Y-19271746D02*
X9591611Y-19252698D01*
X9591611Y-19252698D02*
X9601135Y-19243174D01*
X9601135Y-19243174D02*
X9620182Y-19233650D01*
X9620182Y-19233650D02*
X9658277Y-19233650D01*
X9658277Y-19233650D02*
X9677325Y-19243174D01*
X9753516Y-19443174D02*
X9763039Y-19433650D01*
X9763039Y-19433650D02*
X9782087Y-19405079D01*
X9782087Y-19405079D02*
X9791611Y-19386031D01*
X9791611Y-19386031D02*
X9801135Y-19357460D01*
X9801135Y-19357460D02*
X9810658Y-19309841D01*
X9810658Y-19309841D02*
X9810658Y-19271746D01*
X9810658Y-19271746D02*
X9801135Y-19224127D01*
X9801135Y-19224127D02*
X9791611Y-19195555D01*
X9791611Y-19195555D02*
X9782087Y-19176508D01*
X9782087Y-19176508D02*
X9763039Y-19147936D01*
X9763039Y-19147936D02*
X9753516Y-19138412D01*
M02*
