%TF.GenerationSoftware,KiCad,Pcbnew,9.0.0+1*%
%TF.CreationDate,2025-04-09T20:19:07+02:00*%
%TF.ProjectId,P4_M.2_B+M-key,50345f4d-2e32-45f4-922b-4d2d6b65792e,rev?*%
%TF.SameCoordinates,Original*%
%TF.FileFunction,Drillmap*%
%TF.FilePolarity,Positive*%
%FSLAX45Y45*%
G04 Gerber Fmt 4.5, Leading zero omitted, Abs format (unit mm)*
G04 Created by KiCad (PCBNEW 9.0.0+1) date 2025-04-09 20:19:07*
%MOMM*%
%LPD*%
G01*
G04 APERTURE LIST*
%ADD10C,0.050000*%
%ADD11C,0.200000*%
%ADD12C,0.100000*%
G04 APERTURE END LIST*
D10*
X13750110Y-8450360D02*
X13750110Y-12180360D01*
X13770110Y-12200360D02*
X13805110Y-12200360D01*
X13855110Y-12250360D02*
X13855110Y-12580360D01*
X14177610Y-12310360D02*
X14177610Y-12600360D01*
X14177610Y-12600360D02*
X13875110Y-12600360D01*
X14297610Y-12310360D02*
X14297610Y-12600360D01*
X14297610Y-12600360D02*
X15470110Y-12600360D01*
X15470110Y-12600360D02*
X15825110Y-12600360D01*
X15845110Y-12580360D02*
X15845110Y-12250360D01*
X15895110Y-12200360D02*
X15930110Y-12200360D01*
X15900110Y-8400360D02*
X13800110Y-8400360D01*
X15950110Y-12180360D02*
X15950110Y-8450360D01*
X13750110Y-8450360D02*
G75*
G02*
X13800110Y-8400360I50000J0D01*
G01*
X13770110Y-12200360D02*
G75*
G02*
X13750110Y-12180360I0J20000D01*
G01*
X13805110Y-12200360D02*
G75*
G02*
X13855110Y-12250360I0J-50000D01*
G01*
X13875110Y-12600360D02*
G75*
G02*
X13855110Y-12580360I0J20000D01*
G01*
X14177610Y-12310360D02*
G75*
G02*
X14237610Y-12250360I60000J0D01*
G01*
X14237610Y-12250360D02*
G75*
G02*
X14297610Y-12310360I0J-60000D01*
G01*
X15845110Y-12250360D02*
G75*
G02*
X15895110Y-12200360I50000J0D01*
G01*
X15845110Y-12580360D02*
G75*
G02*
X15825110Y-12600360I-20000J0D01*
G01*
X15900110Y-8400360D02*
G75*
G02*
X15950110Y-8450360I0J-50000D01*
G01*
X15950110Y-12180360D02*
G75*
G02*
X15930110Y-12200360I-20000J0D01*
G01*
D11*
D12*
X14182500Y-9988500D02*
X14247500Y-10053500D01*
X14247500Y-9988500D02*
X14182500Y-10053500D01*
X14182500Y-10566500D02*
X14247500Y-10631500D01*
X14247500Y-10566500D02*
X14182500Y-10631500D01*
D11*
X14008387Y-12914344D02*
X14008387Y-12714344D01*
X14008387Y-12714344D02*
X14056006Y-12714344D01*
X14056006Y-12714344D02*
X14084577Y-12723868D01*
X14084577Y-12723868D02*
X14103625Y-12742915D01*
X14103625Y-12742915D02*
X14113149Y-12761963D01*
X14113149Y-12761963D02*
X14122672Y-12800058D01*
X14122672Y-12800058D02*
X14122672Y-12828629D01*
X14122672Y-12828629D02*
X14113149Y-12866725D01*
X14113149Y-12866725D02*
X14103625Y-12885772D01*
X14103625Y-12885772D02*
X14084577Y-12904820D01*
X14084577Y-12904820D02*
X14056006Y-12914344D01*
X14056006Y-12914344D02*
X14008387Y-12914344D01*
X14208387Y-12914344D02*
X14208387Y-12781010D01*
X14208387Y-12819106D02*
X14217911Y-12800058D01*
X14217911Y-12800058D02*
X14227434Y-12790534D01*
X14227434Y-12790534D02*
X14246482Y-12781010D01*
X14246482Y-12781010D02*
X14265530Y-12781010D01*
X14332196Y-12914344D02*
X14332196Y-12781010D01*
X14332196Y-12714344D02*
X14322672Y-12723868D01*
X14322672Y-12723868D02*
X14332196Y-12733391D01*
X14332196Y-12733391D02*
X14341720Y-12723868D01*
X14341720Y-12723868D02*
X14332196Y-12714344D01*
X14332196Y-12714344D02*
X14332196Y-12733391D01*
X14456006Y-12914344D02*
X14436958Y-12904820D01*
X14436958Y-12904820D02*
X14427434Y-12885772D01*
X14427434Y-12885772D02*
X14427434Y-12714344D01*
X14560768Y-12914344D02*
X14541720Y-12904820D01*
X14541720Y-12904820D02*
X14532196Y-12885772D01*
X14532196Y-12885772D02*
X14532196Y-12714344D01*
X14789339Y-12914344D02*
X14789339Y-12714344D01*
X14789339Y-12714344D02*
X14856006Y-12857201D01*
X14856006Y-12857201D02*
X14922672Y-12714344D01*
X14922672Y-12714344D02*
X14922672Y-12914344D01*
X15103625Y-12914344D02*
X15103625Y-12809582D01*
X15103625Y-12809582D02*
X15094101Y-12790534D01*
X15094101Y-12790534D02*
X15075053Y-12781010D01*
X15075053Y-12781010D02*
X15036958Y-12781010D01*
X15036958Y-12781010D02*
X15017911Y-12790534D01*
X15103625Y-12904820D02*
X15084577Y-12914344D01*
X15084577Y-12914344D02*
X15036958Y-12914344D01*
X15036958Y-12914344D02*
X15017911Y-12904820D01*
X15017911Y-12904820D02*
X15008387Y-12885772D01*
X15008387Y-12885772D02*
X15008387Y-12866725D01*
X15008387Y-12866725D02*
X15017911Y-12847677D01*
X15017911Y-12847677D02*
X15036958Y-12838153D01*
X15036958Y-12838153D02*
X15084577Y-12838153D01*
X15084577Y-12838153D02*
X15103625Y-12828629D01*
X15198863Y-12781010D02*
X15198863Y-12981010D01*
X15198863Y-12790534D02*
X15217911Y-12781010D01*
X15217911Y-12781010D02*
X15256006Y-12781010D01*
X15256006Y-12781010D02*
X15275053Y-12790534D01*
X15275053Y-12790534D02*
X15284577Y-12800058D01*
X15284577Y-12800058D02*
X15294101Y-12819106D01*
X15294101Y-12819106D02*
X15294101Y-12876248D01*
X15294101Y-12876248D02*
X15284577Y-12895296D01*
X15284577Y-12895296D02*
X15275053Y-12904820D01*
X15275053Y-12904820D02*
X15256006Y-12914344D01*
X15256006Y-12914344D02*
X15217911Y-12914344D01*
X15217911Y-12914344D02*
X15198863Y-12904820D01*
X15379815Y-12895296D02*
X15389339Y-12904820D01*
X15389339Y-12904820D02*
X15379815Y-12914344D01*
X15379815Y-12914344D02*
X15370292Y-12904820D01*
X15370292Y-12904820D02*
X15379815Y-12895296D01*
X15379815Y-12895296D02*
X15379815Y-12914344D01*
X15379815Y-12790534D02*
X15389339Y-12800058D01*
X15389339Y-12800058D02*
X15379815Y-12809582D01*
X15379815Y-12809582D02*
X15370292Y-12800058D01*
X15370292Y-12800058D02*
X15379815Y-12790534D01*
X15379815Y-12790534D02*
X15379815Y-12809582D01*
D12*
X13682610Y-13210360D02*
X13747610Y-13275360D01*
X13747610Y-13210360D02*
X13682610Y-13275360D01*
D11*
X14046482Y-13134344D02*
X14065530Y-13134344D01*
X14065530Y-13134344D02*
X14084577Y-13143868D01*
X14084577Y-13143868D02*
X14094101Y-13153391D01*
X14094101Y-13153391D02*
X14103625Y-13172439D01*
X14103625Y-13172439D02*
X14113149Y-13210534D01*
X14113149Y-13210534D02*
X14113149Y-13258153D01*
X14113149Y-13258153D02*
X14103625Y-13296248D01*
X14103625Y-13296248D02*
X14094101Y-13315296D01*
X14094101Y-13315296D02*
X14084577Y-13324820D01*
X14084577Y-13324820D02*
X14065530Y-13334344D01*
X14065530Y-13334344D02*
X14046482Y-13334344D01*
X14046482Y-13334344D02*
X14027434Y-13324820D01*
X14027434Y-13324820D02*
X14017911Y-13315296D01*
X14017911Y-13315296D02*
X14008387Y-13296248D01*
X14008387Y-13296248D02*
X13998863Y-13258153D01*
X13998863Y-13258153D02*
X13998863Y-13210534D01*
X13998863Y-13210534D02*
X14008387Y-13172439D01*
X14008387Y-13172439D02*
X14017911Y-13153391D01*
X14017911Y-13153391D02*
X14027434Y-13143868D01*
X14027434Y-13143868D02*
X14046482Y-13134344D01*
X14198863Y-13315296D02*
X14208387Y-13324820D01*
X14208387Y-13324820D02*
X14198863Y-13334344D01*
X14198863Y-13334344D02*
X14189339Y-13324820D01*
X14189339Y-13324820D02*
X14198863Y-13315296D01*
X14198863Y-13315296D02*
X14198863Y-13334344D01*
X14379815Y-13134344D02*
X14341720Y-13134344D01*
X14341720Y-13134344D02*
X14322672Y-13143868D01*
X14322672Y-13143868D02*
X14313149Y-13153391D01*
X14313149Y-13153391D02*
X14294101Y-13181963D01*
X14294101Y-13181963D02*
X14284577Y-13220058D01*
X14284577Y-13220058D02*
X14284577Y-13296248D01*
X14284577Y-13296248D02*
X14294101Y-13315296D01*
X14294101Y-13315296D02*
X14303625Y-13324820D01*
X14303625Y-13324820D02*
X14322672Y-13334344D01*
X14322672Y-13334344D02*
X14360768Y-13334344D01*
X14360768Y-13334344D02*
X14379815Y-13324820D01*
X14379815Y-13324820D02*
X14389339Y-13315296D01*
X14389339Y-13315296D02*
X14398863Y-13296248D01*
X14398863Y-13296248D02*
X14398863Y-13248629D01*
X14398863Y-13248629D02*
X14389339Y-13229582D01*
X14389339Y-13229582D02*
X14379815Y-13220058D01*
X14379815Y-13220058D02*
X14360768Y-13210534D01*
X14360768Y-13210534D02*
X14322672Y-13210534D01*
X14322672Y-13210534D02*
X14303625Y-13220058D01*
X14303625Y-13220058D02*
X14294101Y-13229582D01*
X14294101Y-13229582D02*
X14284577Y-13248629D01*
X14579815Y-13134344D02*
X14484577Y-13134344D01*
X14484577Y-13134344D02*
X14475053Y-13229582D01*
X14475053Y-13229582D02*
X14484577Y-13220058D01*
X14484577Y-13220058D02*
X14503625Y-13210534D01*
X14503625Y-13210534D02*
X14551244Y-13210534D01*
X14551244Y-13210534D02*
X14570292Y-13220058D01*
X14570292Y-13220058D02*
X14579815Y-13229582D01*
X14579815Y-13229582D02*
X14589339Y-13248629D01*
X14589339Y-13248629D02*
X14589339Y-13296248D01*
X14589339Y-13296248D02*
X14579815Y-13315296D01*
X14579815Y-13315296D02*
X14570292Y-13324820D01*
X14570292Y-13324820D02*
X14551244Y-13334344D01*
X14551244Y-13334344D02*
X14503625Y-13334344D01*
X14503625Y-13334344D02*
X14484577Y-13324820D01*
X14484577Y-13324820D02*
X14475053Y-13315296D01*
X14713149Y-13134344D02*
X14732196Y-13134344D01*
X14732196Y-13134344D02*
X14751244Y-13143868D01*
X14751244Y-13143868D02*
X14760768Y-13153391D01*
X14760768Y-13153391D02*
X14770292Y-13172439D01*
X14770292Y-13172439D02*
X14779815Y-13210534D01*
X14779815Y-13210534D02*
X14779815Y-13258153D01*
X14779815Y-13258153D02*
X14770292Y-13296248D01*
X14770292Y-13296248D02*
X14760768Y-13315296D01*
X14760768Y-13315296D02*
X14751244Y-13324820D01*
X14751244Y-13324820D02*
X14732196Y-13334344D01*
X14732196Y-13334344D02*
X14713149Y-13334344D01*
X14713149Y-13334344D02*
X14694101Y-13324820D01*
X14694101Y-13324820D02*
X14684577Y-13315296D01*
X14684577Y-13315296D02*
X14675053Y-13296248D01*
X14675053Y-13296248D02*
X14665530Y-13258153D01*
X14665530Y-13258153D02*
X14665530Y-13210534D01*
X14665530Y-13210534D02*
X14675053Y-13172439D01*
X14675053Y-13172439D02*
X14684577Y-13153391D01*
X14684577Y-13153391D02*
X14694101Y-13143868D01*
X14694101Y-13143868D02*
X14713149Y-13134344D01*
X14865530Y-13334344D02*
X14865530Y-13201010D01*
X14865530Y-13220058D02*
X14875053Y-13210534D01*
X14875053Y-13210534D02*
X14894101Y-13201010D01*
X14894101Y-13201010D02*
X14922673Y-13201010D01*
X14922673Y-13201010D02*
X14941720Y-13210534D01*
X14941720Y-13210534D02*
X14951244Y-13229582D01*
X14951244Y-13229582D02*
X14951244Y-13334344D01*
X14951244Y-13229582D02*
X14960768Y-13210534D01*
X14960768Y-13210534D02*
X14979815Y-13201010D01*
X14979815Y-13201010D02*
X15008387Y-13201010D01*
X15008387Y-13201010D02*
X15027434Y-13210534D01*
X15027434Y-13210534D02*
X15036958Y-13229582D01*
X15036958Y-13229582D02*
X15036958Y-13334344D01*
X15132196Y-13334344D02*
X15132196Y-13201010D01*
X15132196Y-13220058D02*
X15141720Y-13210534D01*
X15141720Y-13210534D02*
X15160768Y-13201010D01*
X15160768Y-13201010D02*
X15189339Y-13201010D01*
X15189339Y-13201010D02*
X15208387Y-13210534D01*
X15208387Y-13210534D02*
X15217911Y-13229582D01*
X15217911Y-13229582D02*
X15217911Y-13334344D01*
X15217911Y-13229582D02*
X15227434Y-13210534D01*
X15227434Y-13210534D02*
X15246482Y-13201010D01*
X15246482Y-13201010D02*
X15275053Y-13201010D01*
X15275053Y-13201010D02*
X15294101Y-13210534D01*
X15294101Y-13210534D02*
X15303625Y-13229582D01*
X15303625Y-13229582D02*
X15303625Y-13334344D01*
X15694101Y-13124820D02*
X15522673Y-13381963D01*
X15951244Y-13134344D02*
X15970292Y-13134344D01*
X15970292Y-13134344D02*
X15989339Y-13143868D01*
X15989339Y-13143868D02*
X15998863Y-13153391D01*
X15998863Y-13153391D02*
X16008387Y-13172439D01*
X16008387Y-13172439D02*
X16017911Y-13210534D01*
X16017911Y-13210534D02*
X16017911Y-13258153D01*
X16017911Y-13258153D02*
X16008387Y-13296248D01*
X16008387Y-13296248D02*
X15998863Y-13315296D01*
X15998863Y-13315296D02*
X15989339Y-13324820D01*
X15989339Y-13324820D02*
X15970292Y-13334344D01*
X15970292Y-13334344D02*
X15951244Y-13334344D01*
X15951244Y-13334344D02*
X15932196Y-13324820D01*
X15932196Y-13324820D02*
X15922673Y-13315296D01*
X15922673Y-13315296D02*
X15913149Y-13296248D01*
X15913149Y-13296248D02*
X15903625Y-13258153D01*
X15903625Y-13258153D02*
X15903625Y-13210534D01*
X15903625Y-13210534D02*
X15913149Y-13172439D01*
X15913149Y-13172439D02*
X15922673Y-13153391D01*
X15922673Y-13153391D02*
X15932196Y-13143868D01*
X15932196Y-13143868D02*
X15951244Y-13134344D01*
X16103625Y-13315296D02*
X16113149Y-13324820D01*
X16113149Y-13324820D02*
X16103625Y-13334344D01*
X16103625Y-13334344D02*
X16094101Y-13324820D01*
X16094101Y-13324820D02*
X16103625Y-13315296D01*
X16103625Y-13315296D02*
X16103625Y-13334344D01*
X16236958Y-13134344D02*
X16256006Y-13134344D01*
X16256006Y-13134344D02*
X16275054Y-13143868D01*
X16275054Y-13143868D02*
X16284577Y-13153391D01*
X16284577Y-13153391D02*
X16294101Y-13172439D01*
X16294101Y-13172439D02*
X16303625Y-13210534D01*
X16303625Y-13210534D02*
X16303625Y-13258153D01*
X16303625Y-13258153D02*
X16294101Y-13296248D01*
X16294101Y-13296248D02*
X16284577Y-13315296D01*
X16284577Y-13315296D02*
X16275054Y-13324820D01*
X16275054Y-13324820D02*
X16256006Y-13334344D01*
X16256006Y-13334344D02*
X16236958Y-13334344D01*
X16236958Y-13334344D02*
X16217911Y-13324820D01*
X16217911Y-13324820D02*
X16208387Y-13315296D01*
X16208387Y-13315296D02*
X16198863Y-13296248D01*
X16198863Y-13296248D02*
X16189339Y-13258153D01*
X16189339Y-13258153D02*
X16189339Y-13210534D01*
X16189339Y-13210534D02*
X16198863Y-13172439D01*
X16198863Y-13172439D02*
X16208387Y-13153391D01*
X16208387Y-13153391D02*
X16217911Y-13143868D01*
X16217911Y-13143868D02*
X16236958Y-13134344D01*
X16379816Y-13153391D02*
X16389339Y-13143868D01*
X16389339Y-13143868D02*
X16408387Y-13134344D01*
X16408387Y-13134344D02*
X16456006Y-13134344D01*
X16456006Y-13134344D02*
X16475054Y-13143868D01*
X16475054Y-13143868D02*
X16484577Y-13153391D01*
X16484577Y-13153391D02*
X16494101Y-13172439D01*
X16494101Y-13172439D02*
X16494101Y-13191487D01*
X16494101Y-13191487D02*
X16484577Y-13220058D01*
X16484577Y-13220058D02*
X16370292Y-13334344D01*
X16370292Y-13334344D02*
X16494101Y-13334344D01*
X16675054Y-13134344D02*
X16579816Y-13134344D01*
X16579816Y-13134344D02*
X16570292Y-13229582D01*
X16570292Y-13229582D02*
X16579816Y-13220058D01*
X16579816Y-13220058D02*
X16598863Y-13210534D01*
X16598863Y-13210534D02*
X16646482Y-13210534D01*
X16646482Y-13210534D02*
X16665530Y-13220058D01*
X16665530Y-13220058D02*
X16675054Y-13229582D01*
X16675054Y-13229582D02*
X16684577Y-13248629D01*
X16684577Y-13248629D02*
X16684577Y-13296248D01*
X16684577Y-13296248D02*
X16675054Y-13315296D01*
X16675054Y-13315296D02*
X16665530Y-13324820D01*
X16665530Y-13324820D02*
X16646482Y-13334344D01*
X16646482Y-13334344D02*
X16598863Y-13334344D01*
X16598863Y-13334344D02*
X16579816Y-13324820D01*
X16579816Y-13324820D02*
X16570292Y-13315296D01*
X16856006Y-13134344D02*
X16817911Y-13134344D01*
X16817911Y-13134344D02*
X16798863Y-13143868D01*
X16798863Y-13143868D02*
X16789339Y-13153391D01*
X16789339Y-13153391D02*
X16770292Y-13181963D01*
X16770292Y-13181963D02*
X16760768Y-13220058D01*
X16760768Y-13220058D02*
X16760768Y-13296248D01*
X16760768Y-13296248D02*
X16770292Y-13315296D01*
X16770292Y-13315296D02*
X16779816Y-13324820D01*
X16779816Y-13324820D02*
X16798863Y-13334344D01*
X16798863Y-13334344D02*
X16836959Y-13334344D01*
X16836959Y-13334344D02*
X16856006Y-13324820D01*
X16856006Y-13324820D02*
X16865530Y-13315296D01*
X16865530Y-13315296D02*
X16875054Y-13296248D01*
X16875054Y-13296248D02*
X16875054Y-13248629D01*
X16875054Y-13248629D02*
X16865530Y-13229582D01*
X16865530Y-13229582D02*
X16856006Y-13220058D01*
X16856006Y-13220058D02*
X16836959Y-13210534D01*
X16836959Y-13210534D02*
X16798863Y-13210534D01*
X16798863Y-13210534D02*
X16779816Y-13220058D01*
X16779816Y-13220058D02*
X16770292Y-13229582D01*
X16770292Y-13229582D02*
X16760768Y-13248629D01*
X16951244Y-13134344D02*
X16951244Y-13172439D01*
X17027435Y-13134344D02*
X17027435Y-13172439D01*
X17322673Y-13410534D02*
X17313149Y-13401010D01*
X17313149Y-13401010D02*
X17294101Y-13372439D01*
X17294101Y-13372439D02*
X17284578Y-13353391D01*
X17284578Y-13353391D02*
X17275054Y-13324820D01*
X17275054Y-13324820D02*
X17265530Y-13277201D01*
X17265530Y-13277201D02*
X17265530Y-13239106D01*
X17265530Y-13239106D02*
X17275054Y-13191487D01*
X17275054Y-13191487D02*
X17284578Y-13162915D01*
X17284578Y-13162915D02*
X17294101Y-13143868D01*
X17294101Y-13143868D02*
X17313149Y-13115296D01*
X17313149Y-13115296D02*
X17322673Y-13105772D01*
X17389340Y-13153391D02*
X17398863Y-13143868D01*
X17398863Y-13143868D02*
X17417911Y-13134344D01*
X17417911Y-13134344D02*
X17465530Y-13134344D01*
X17465530Y-13134344D02*
X17484578Y-13143868D01*
X17484578Y-13143868D02*
X17494101Y-13153391D01*
X17494101Y-13153391D02*
X17503625Y-13172439D01*
X17503625Y-13172439D02*
X17503625Y-13191487D01*
X17503625Y-13191487D02*
X17494101Y-13220058D01*
X17494101Y-13220058D02*
X17379816Y-13334344D01*
X17379816Y-13334344D02*
X17503625Y-13334344D01*
X17741721Y-13334344D02*
X17741721Y-13134344D01*
X17827435Y-13334344D02*
X17827435Y-13229582D01*
X17827435Y-13229582D02*
X17817911Y-13210534D01*
X17817911Y-13210534D02*
X17798863Y-13201010D01*
X17798863Y-13201010D02*
X17770292Y-13201010D01*
X17770292Y-13201010D02*
X17751244Y-13210534D01*
X17751244Y-13210534D02*
X17741721Y-13220058D01*
X17951244Y-13334344D02*
X17932197Y-13324820D01*
X17932197Y-13324820D02*
X17922673Y-13315296D01*
X17922673Y-13315296D02*
X17913149Y-13296248D01*
X17913149Y-13296248D02*
X17913149Y-13239106D01*
X17913149Y-13239106D02*
X17922673Y-13220058D01*
X17922673Y-13220058D02*
X17932197Y-13210534D01*
X17932197Y-13210534D02*
X17951244Y-13201010D01*
X17951244Y-13201010D02*
X17979816Y-13201010D01*
X17979816Y-13201010D02*
X17998863Y-13210534D01*
X17998863Y-13210534D02*
X18008387Y-13220058D01*
X18008387Y-13220058D02*
X18017911Y-13239106D01*
X18017911Y-13239106D02*
X18017911Y-13296248D01*
X18017911Y-13296248D02*
X18008387Y-13315296D01*
X18008387Y-13315296D02*
X17998863Y-13324820D01*
X17998863Y-13324820D02*
X17979816Y-13334344D01*
X17979816Y-13334344D02*
X17951244Y-13334344D01*
X18132197Y-13334344D02*
X18113149Y-13324820D01*
X18113149Y-13324820D02*
X18103625Y-13305772D01*
X18103625Y-13305772D02*
X18103625Y-13134344D01*
X18284578Y-13324820D02*
X18265530Y-13334344D01*
X18265530Y-13334344D02*
X18227435Y-13334344D01*
X18227435Y-13334344D02*
X18208387Y-13324820D01*
X18208387Y-13324820D02*
X18198863Y-13305772D01*
X18198863Y-13305772D02*
X18198863Y-13229582D01*
X18198863Y-13229582D02*
X18208387Y-13210534D01*
X18208387Y-13210534D02*
X18227435Y-13201010D01*
X18227435Y-13201010D02*
X18265530Y-13201010D01*
X18265530Y-13201010D02*
X18284578Y-13210534D01*
X18284578Y-13210534D02*
X18294102Y-13229582D01*
X18294102Y-13229582D02*
X18294102Y-13248629D01*
X18294102Y-13248629D02*
X18198863Y-13267677D01*
X18370292Y-13324820D02*
X18389340Y-13334344D01*
X18389340Y-13334344D02*
X18427435Y-13334344D01*
X18427435Y-13334344D02*
X18446483Y-13324820D01*
X18446483Y-13324820D02*
X18456006Y-13305772D01*
X18456006Y-13305772D02*
X18456006Y-13296248D01*
X18456006Y-13296248D02*
X18446483Y-13277201D01*
X18446483Y-13277201D02*
X18427435Y-13267677D01*
X18427435Y-13267677D02*
X18398863Y-13267677D01*
X18398863Y-13267677D02*
X18379816Y-13258153D01*
X18379816Y-13258153D02*
X18370292Y-13239106D01*
X18370292Y-13239106D02*
X18370292Y-13229582D01*
X18370292Y-13229582D02*
X18379816Y-13210534D01*
X18379816Y-13210534D02*
X18398863Y-13201010D01*
X18398863Y-13201010D02*
X18427435Y-13201010D01*
X18427435Y-13201010D02*
X18446483Y-13210534D01*
X18522673Y-13410534D02*
X18532197Y-13401010D01*
X18532197Y-13401010D02*
X18551244Y-13372439D01*
X18551244Y-13372439D02*
X18560768Y-13353391D01*
X18560768Y-13353391D02*
X18570292Y-13324820D01*
X18570292Y-13324820D02*
X18579816Y-13277201D01*
X18579816Y-13277201D02*
X18579816Y-13239106D01*
X18579816Y-13239106D02*
X18570292Y-13191487D01*
X18570292Y-13191487D02*
X18560768Y-13162915D01*
X18560768Y-13162915D02*
X18551244Y-13143868D01*
X18551244Y-13143868D02*
X18532197Y-13115296D01*
X18532197Y-13115296D02*
X18522673Y-13105772D01*
X18884578Y-13410534D02*
X18875054Y-13401010D01*
X18875054Y-13401010D02*
X18856006Y-13372439D01*
X18856006Y-13372439D02*
X18846483Y-13353391D01*
X18846483Y-13353391D02*
X18836959Y-13324820D01*
X18836959Y-13324820D02*
X18827435Y-13277201D01*
X18827435Y-13277201D02*
X18827435Y-13239106D01*
X18827435Y-13239106D02*
X18836959Y-13191487D01*
X18836959Y-13191487D02*
X18846483Y-13162915D01*
X18846483Y-13162915D02*
X18856006Y-13143868D01*
X18856006Y-13143868D02*
X18875054Y-13115296D01*
X18875054Y-13115296D02*
X18884578Y-13105772D01*
X18960768Y-13201010D02*
X18960768Y-13334344D01*
X18960768Y-13220058D02*
X18970292Y-13210534D01*
X18970292Y-13210534D02*
X18989340Y-13201010D01*
X18989340Y-13201010D02*
X19017911Y-13201010D01*
X19017911Y-13201010D02*
X19036959Y-13210534D01*
X19036959Y-13210534D02*
X19046483Y-13229582D01*
X19046483Y-13229582D02*
X19046483Y-13334344D01*
X19170292Y-13334344D02*
X19151244Y-13324820D01*
X19151244Y-13324820D02*
X19141721Y-13315296D01*
X19141721Y-13315296D02*
X19132197Y-13296248D01*
X19132197Y-13296248D02*
X19132197Y-13239106D01*
X19132197Y-13239106D02*
X19141721Y-13220058D01*
X19141721Y-13220058D02*
X19151244Y-13210534D01*
X19151244Y-13210534D02*
X19170292Y-13201010D01*
X19170292Y-13201010D02*
X19198864Y-13201010D01*
X19198864Y-13201010D02*
X19217911Y-13210534D01*
X19217911Y-13210534D02*
X19227435Y-13220058D01*
X19227435Y-13220058D02*
X19236959Y-13239106D01*
X19236959Y-13239106D02*
X19236959Y-13296248D01*
X19236959Y-13296248D02*
X19227435Y-13315296D01*
X19227435Y-13315296D02*
X19217911Y-13324820D01*
X19217911Y-13324820D02*
X19198864Y-13334344D01*
X19198864Y-13334344D02*
X19170292Y-13334344D01*
X19294102Y-13201010D02*
X19370292Y-13201010D01*
X19322673Y-13134344D02*
X19322673Y-13305772D01*
X19322673Y-13305772D02*
X19332197Y-13324820D01*
X19332197Y-13324820D02*
X19351244Y-13334344D01*
X19351244Y-13334344D02*
X19370292Y-13334344D01*
X19589340Y-13201010D02*
X19589340Y-13401010D01*
X19589340Y-13210534D02*
X19608387Y-13201010D01*
X19608387Y-13201010D02*
X19646483Y-13201010D01*
X19646483Y-13201010D02*
X19665530Y-13210534D01*
X19665530Y-13210534D02*
X19675054Y-13220058D01*
X19675054Y-13220058D02*
X19684578Y-13239106D01*
X19684578Y-13239106D02*
X19684578Y-13296248D01*
X19684578Y-13296248D02*
X19675054Y-13315296D01*
X19675054Y-13315296D02*
X19665530Y-13324820D01*
X19665530Y-13324820D02*
X19646483Y-13334344D01*
X19646483Y-13334344D02*
X19608387Y-13334344D01*
X19608387Y-13334344D02*
X19589340Y-13324820D01*
X19798864Y-13334344D02*
X19779816Y-13324820D01*
X19779816Y-13324820D02*
X19770292Y-13305772D01*
X19770292Y-13305772D02*
X19770292Y-13134344D01*
X19960768Y-13334344D02*
X19960768Y-13229582D01*
X19960768Y-13229582D02*
X19951245Y-13210534D01*
X19951245Y-13210534D02*
X19932197Y-13201010D01*
X19932197Y-13201010D02*
X19894102Y-13201010D01*
X19894102Y-13201010D02*
X19875054Y-13210534D01*
X19960768Y-13324820D02*
X19941721Y-13334344D01*
X19941721Y-13334344D02*
X19894102Y-13334344D01*
X19894102Y-13334344D02*
X19875054Y-13324820D01*
X19875054Y-13324820D02*
X19865530Y-13305772D01*
X19865530Y-13305772D02*
X19865530Y-13286725D01*
X19865530Y-13286725D02*
X19875054Y-13267677D01*
X19875054Y-13267677D02*
X19894102Y-13258153D01*
X19894102Y-13258153D02*
X19941721Y-13258153D01*
X19941721Y-13258153D02*
X19960768Y-13248629D01*
X20027435Y-13201010D02*
X20103625Y-13201010D01*
X20056006Y-13134344D02*
X20056006Y-13305772D01*
X20056006Y-13305772D02*
X20065530Y-13324820D01*
X20065530Y-13324820D02*
X20084578Y-13334344D01*
X20084578Y-13334344D02*
X20103625Y-13334344D01*
X20246483Y-13324820D02*
X20227435Y-13334344D01*
X20227435Y-13334344D02*
X20189340Y-13334344D01*
X20189340Y-13334344D02*
X20170292Y-13324820D01*
X20170292Y-13324820D02*
X20160768Y-13305772D01*
X20160768Y-13305772D02*
X20160768Y-13229582D01*
X20160768Y-13229582D02*
X20170292Y-13210534D01*
X20170292Y-13210534D02*
X20189340Y-13201010D01*
X20189340Y-13201010D02*
X20227435Y-13201010D01*
X20227435Y-13201010D02*
X20246483Y-13210534D01*
X20246483Y-13210534D02*
X20256006Y-13229582D01*
X20256006Y-13229582D02*
X20256006Y-13248629D01*
X20256006Y-13248629D02*
X20160768Y-13267677D01*
X20427435Y-13334344D02*
X20427435Y-13134344D01*
X20427435Y-13324820D02*
X20408387Y-13334344D01*
X20408387Y-13334344D02*
X20370292Y-13334344D01*
X20370292Y-13334344D02*
X20351245Y-13324820D01*
X20351245Y-13324820D02*
X20341721Y-13315296D01*
X20341721Y-13315296D02*
X20332197Y-13296248D01*
X20332197Y-13296248D02*
X20332197Y-13239106D01*
X20332197Y-13239106D02*
X20341721Y-13220058D01*
X20341721Y-13220058D02*
X20351245Y-13210534D01*
X20351245Y-13210534D02*
X20370292Y-13201010D01*
X20370292Y-13201010D02*
X20408387Y-13201010D01*
X20408387Y-13201010D02*
X20427435Y-13210534D01*
X20503626Y-13410534D02*
X20513149Y-13401010D01*
X20513149Y-13401010D02*
X20532197Y-13372439D01*
X20532197Y-13372439D02*
X20541721Y-13353391D01*
X20541721Y-13353391D02*
X20551245Y-13324820D01*
X20551245Y-13324820D02*
X20560768Y-13277201D01*
X20560768Y-13277201D02*
X20560768Y-13239106D01*
X20560768Y-13239106D02*
X20551245Y-13191487D01*
X20551245Y-13191487D02*
X20541721Y-13162915D01*
X20541721Y-13162915D02*
X20532197Y-13143868D01*
X20532197Y-13143868D02*
X20513149Y-13115296D01*
X20513149Y-13115296D02*
X20503626Y-13105772D01*
M02*
