G04 #@! TF.GenerationSoftware,KiCad,Pcbnew,9.0.0+1*
G04 #@! TF.CreationDate,2025-04-14T19:52:18+02:00*
G04 #@! TF.ProjectId,P4_M.2_B+M-key,50345f4d-2e32-45f4-922b-4d2d6b65792e,rev?*
G04 #@! TF.SameCoordinates,Original*
G04 #@! TF.FileFunction,Paste,Top*
G04 #@! TF.FilePolarity,Positive*
%FSLAX46Y46*%
G04 Gerber Fmt 4.6, Leading zero omitted, Abs format (unit mm)*
G04 Created by KiCad (PCBNEW 9.0.0+1) date 2025-04-14 19:52:18*
%MOMM*%
%LPD*%
G01*
G04 APERTURE LIST*
G04 Aperture macros list*
%AMRoundRect*
0 Rectangle with rounded corners*
0 $1 Rounding radius*
0 $2 $3 $4 $5 $6 $7 $8 $9 X,Y pos of 4 corners*
0 Add a 4 corners polygon primitive as box body*
4,1,4,$2,$3,$4,$5,$6,$7,$8,$9,$2,$3,0*
0 Add four circle primitives for the rounded corners*
1,1,$1+$1,$2,$3*
1,1,$1+$1,$4,$5*
1,1,$1+$1,$6,$7*
1,1,$1+$1,$8,$9*
0 Add four rect primitives between the rounded corners*
20,1,$1+$1,$2,$3,$4,$5,0*
20,1,$1+$1,$4,$5,$6,$7,0*
20,1,$1+$1,$6,$7,$8,$9,0*
20,1,$1+$1,$8,$9,$2,$3,0*%
G04 Aperture macros list end*
%ADD10C,0.000000*%
%ADD11RoundRect,0.079500X0.100500X-0.079500X0.100500X0.079500X-0.100500X0.079500X-0.100500X-0.079500X0*%
%ADD12RoundRect,0.079500X-0.100500X0.079500X-0.100500X-0.079500X0.100500X-0.079500X0.100500X0.079500X0*%
%ADD13RoundRect,0.079500X-0.079500X-0.100500X0.079500X-0.100500X0.079500X0.100500X-0.079500X0.100500X0*%
%ADD14RoundRect,0.225000X0.225000X0.250000X-0.225000X0.250000X-0.225000X-0.250000X0.225000X-0.250000X0*%
%ADD15RoundRect,0.079500X0.079500X0.100500X-0.079500X0.100500X-0.079500X-0.100500X0.079500X-0.100500X0*%
%ADD16R,1.500000X0.800000*%
%ADD17R,2.000000X1.500000*%
%ADD18RoundRect,0.090000X-0.235000X-0.000010X0.235000X-0.000010X0.235000X0.000010X-0.235000X0.000010X0*%
%ADD19RoundRect,0.090000X-0.000010X-0.235000X0.000010X-0.235000X0.000010X0.235000X-0.000010X0.235000X0*%
%ADD20RoundRect,0.087500X0.250000X0.087500X-0.250000X0.087500X-0.250000X-0.087500X0.250000X-0.087500X0*%
%ADD21RoundRect,0.212500X-0.787500X0.212500X-0.787500X-0.212500X0.787500X-0.212500X0.787500X0.212500X0*%
%ADD22RoundRect,0.218750X0.256250X-0.218750X0.256250X0.218750X-0.256250X0.218750X-0.256250X-0.218750X0*%
%ADD23R,1.800000X1.000000*%
%ADD24RoundRect,0.225000X-0.225000X-0.250000X0.225000X-0.250000X0.225000X0.250000X-0.225000X0.250000X0*%
%ADD25R,4.400000X1.300000*%
%ADD26RoundRect,0.250000X-0.435000X-0.555000X0.435000X-0.555000X0.435000X0.555000X-0.435000X0.555000X0*%
%ADD27RoundRect,0.125000X-0.262500X-0.125000X0.262500X-0.125000X0.262500X0.125000X-0.262500X0.125000X0*%
%ADD28R,0.800000X0.900000*%
%ADD29RoundRect,0.087500X-0.250000X-0.087500X0.250000X-0.087500X0.250000X0.087500X-0.250000X0.087500X0*%
%ADD30RoundRect,0.100000X0.100000X-0.225000X0.100000X0.225000X-0.100000X0.225000X-0.100000X-0.225000X0*%
%ADD31RoundRect,0.250000X0.300000X-0.300000X0.300000X0.300000X-0.300000X0.300000X-0.300000X-0.300000X0*%
%ADD32RoundRect,0.250000X1.080000X-0.595000X1.080000X0.595000X-1.080000X0.595000X-1.080000X-0.595000X0*%
%ADD33RoundRect,0.150000X0.150000X-0.687500X0.150000X0.687500X-0.150000X0.687500X-0.150000X-0.687500X0*%
%ADD34RoundRect,0.147500X-0.172500X0.147500X-0.172500X-0.147500X0.172500X-0.147500X0.172500X0.147500X0*%
G04 APERTURE END LIST*
D10*
G04 #@! TO.C,U2*
G36*
X148690000Y-109590000D02*
G01*
X147110000Y-109590000D01*
X147110000Y-108010000D01*
X148690000Y-108010000D01*
X148690000Y-109590000D01*
G37*
G36*
X148690000Y-112090000D02*
G01*
X147110000Y-112090000D01*
X147110000Y-110510000D01*
X148690000Y-110510000D01*
X148690000Y-112090000D01*
G37*
G36*
X148690000Y-114590000D02*
G01*
X147110000Y-114590000D01*
X147110000Y-113010000D01*
X148690000Y-113010000D01*
X148690000Y-114590000D01*
G37*
G36*
X151190000Y-109550000D02*
G01*
X149610000Y-109550000D01*
X149610000Y-107970000D01*
X151190000Y-107970000D01*
X151190000Y-109550000D01*
G37*
G36*
X151190000Y-112090000D02*
G01*
X149610000Y-112090000D01*
X149610000Y-110510000D01*
X151190000Y-110510000D01*
X151190000Y-112090000D01*
G37*
G36*
X151190000Y-114590000D02*
G01*
X149610000Y-114590000D01*
X149610000Y-113010000D01*
X151190000Y-113010000D01*
X151190000Y-114590000D01*
G37*
G36*
X153690000Y-109590000D02*
G01*
X152110000Y-109590000D01*
X152110000Y-108010000D01*
X153690000Y-108010000D01*
X153690000Y-109590000D01*
G37*
G36*
X153690000Y-112090000D02*
G01*
X152110000Y-112090000D01*
X152110000Y-110510000D01*
X153690000Y-110510000D01*
X153690000Y-112090000D01*
G37*
G36*
X153690000Y-114590000D02*
G01*
X152110000Y-114590000D01*
X152110000Y-113010000D01*
X153690000Y-113010000D01*
X153690000Y-114590000D01*
G37*
G04 #@! TD*
D11*
G04 #@! TO.C,R18*
X153100000Y-102345000D03*
X153100000Y-101655000D03*
G04 #@! TD*
G04 #@! TO.C,C3*
X147100000Y-117945000D03*
X147100000Y-117255000D03*
G04 #@! TD*
D12*
G04 #@! TO.C,R6*
X158650000Y-113430000D03*
X158650000Y-114120000D03*
G04 #@! TD*
D13*
G04 #@! TO.C,R10*
X147355000Y-96800000D03*
X148045000Y-96800000D03*
G04 #@! TD*
D14*
G04 #@! TO.C,C33*
X142300000Y-94350000D03*
X140750000Y-94350000D03*
G04 #@! TD*
D15*
G04 #@! TO.C,R26*
X140945000Y-97400000D03*
X140255000Y-97400000D03*
G04 #@! TD*
D16*
G04 #@! TO.C,J1*
X150100000Y-90150000D03*
X150100000Y-91250000D03*
X150100000Y-92350000D03*
X150100000Y-93450000D03*
X150100000Y-94550000D03*
X150100000Y-95650000D03*
X150100000Y-96750000D03*
X150100000Y-97850000D03*
X150100000Y-89050000D03*
X150100000Y-87700000D03*
D17*
X158200000Y-100200000D03*
X158200000Y-86000000D03*
G04 #@! TD*
D11*
G04 #@! TO.C,C11*
X158200000Y-112645000D03*
X158200000Y-111955000D03*
G04 #@! TD*
G04 #@! TO.C,R7*
X157400000Y-105745000D03*
X157400000Y-105055000D03*
G04 #@! TD*
G04 #@! TO.C,C28*
X146200000Y-103245000D03*
X146200000Y-102555000D03*
G04 #@! TD*
G04 #@! TO.C,R22*
X145438100Y-86828600D03*
X145438100Y-86138600D03*
G04 #@! TD*
D18*
G04 #@! TO.C,U2*
X145475000Y-106925000D03*
X145475000Y-107275000D03*
X145475000Y-107625000D03*
X145475000Y-107975000D03*
X145475000Y-108325000D03*
X145475000Y-108675000D03*
X145475000Y-109025000D03*
X145475000Y-109375000D03*
X145475000Y-109725000D03*
X145475000Y-110075000D03*
X145475000Y-110425000D03*
X145475000Y-110775000D03*
X145475000Y-111125000D03*
X145475000Y-111475000D03*
X145475000Y-111825000D03*
X145475000Y-112175000D03*
X145475000Y-112525000D03*
X145475000Y-112875000D03*
X145475000Y-113225000D03*
X145475000Y-113575000D03*
X145475000Y-113925000D03*
X145475000Y-114275000D03*
X145475000Y-114625000D03*
X145475000Y-114975000D03*
X145475000Y-115325000D03*
X145475000Y-115675000D03*
D19*
X146025000Y-116225000D03*
X146375000Y-116225000D03*
X146725000Y-116225000D03*
X147075000Y-116225000D03*
X147425000Y-116225000D03*
X147775000Y-116225000D03*
X148125000Y-116225000D03*
X148475000Y-116225000D03*
X148825000Y-116225000D03*
X149175000Y-116225000D03*
X149525000Y-116225000D03*
X149875000Y-116225000D03*
X150225000Y-116225000D03*
X150575000Y-116225000D03*
X150925000Y-116225000D03*
X151275000Y-116225000D03*
X151625000Y-116225000D03*
X151975000Y-116225000D03*
X152325000Y-116225000D03*
X152675000Y-116225000D03*
X153025000Y-116225000D03*
X153375000Y-116225000D03*
X153725000Y-116225000D03*
X154075000Y-116225000D03*
X154425000Y-116225000D03*
X154775000Y-116225000D03*
D18*
X155325000Y-115675000D03*
X155325000Y-115325000D03*
X155325000Y-114975000D03*
X155325000Y-114625000D03*
X155325000Y-114275000D03*
X155325000Y-113925000D03*
X155325000Y-113575000D03*
X155325000Y-113225000D03*
X155325000Y-112875000D03*
X155325000Y-112525000D03*
X155325000Y-112175000D03*
X155325000Y-111825000D03*
X155325000Y-111475000D03*
X155325000Y-111125000D03*
X155325000Y-110775000D03*
X155325000Y-110425000D03*
X155325000Y-110075000D03*
X155325000Y-109725000D03*
X155325000Y-109375000D03*
X155325000Y-109025000D03*
X155325000Y-108675000D03*
X155325000Y-108325000D03*
X155325000Y-107975000D03*
X155325000Y-107625000D03*
X155325000Y-107275000D03*
X155325000Y-106925000D03*
D19*
X154775000Y-106375000D03*
X154425000Y-106375000D03*
X154075000Y-106375000D03*
X153725000Y-106375000D03*
X153375000Y-106375000D03*
X153025000Y-106375000D03*
X152675000Y-106375000D03*
X152325000Y-106375000D03*
X151975000Y-106375000D03*
X151625000Y-106375000D03*
X151275000Y-106375000D03*
X150925000Y-106375000D03*
X150575000Y-106375000D03*
X150225000Y-106375000D03*
X149875000Y-106375000D03*
X149525000Y-106375000D03*
X149175000Y-106375000D03*
X148825000Y-106375000D03*
X148475000Y-106375000D03*
X148125000Y-106375000D03*
X147775000Y-106375000D03*
X147425000Y-106375000D03*
X147075000Y-106375000D03*
X146725000Y-106375000D03*
X146375000Y-106375000D03*
X146025000Y-106375000D03*
G04 #@! TD*
D12*
G04 #@! TO.C,R24*
X144688100Y-86138600D03*
X144688100Y-86828600D03*
G04 #@! TD*
D11*
G04 #@! TO.C,R25*
X139500000Y-96995000D03*
X139500000Y-96305000D03*
G04 #@! TD*
D15*
G04 #@! TO.C,C16*
X158745000Y-109500000D03*
X158055000Y-109500000D03*
G04 #@! TD*
D11*
G04 #@! TO.C,C7*
X145225000Y-117945000D03*
X145225000Y-117255000D03*
G04 #@! TD*
D12*
G04 #@! TO.C,R28*
X153470000Y-117315000D03*
X153470000Y-118005000D03*
G04 #@! TD*
D15*
G04 #@! TO.C,C15*
X157345000Y-110000000D03*
X156655000Y-110000000D03*
G04 #@! TD*
D12*
G04 #@! TO.C,C25*
X148800000Y-104655000D03*
X148800000Y-105345000D03*
G04 #@! TD*
D13*
G04 #@! TO.C,R14*
X147355000Y-88000000D03*
X148045000Y-88000000D03*
G04 #@! TD*
G04 #@! TO.C,C9*
X143755000Y-113950000D03*
X144445000Y-113950000D03*
G04 #@! TD*
G04 #@! TO.C,R5*
X156755000Y-111800000D03*
X157445000Y-111800000D03*
G04 #@! TD*
D20*
G04 #@! TO.C,IC2*
X142512500Y-96525000D03*
X142512500Y-96025000D03*
X142512500Y-95525000D03*
X141087500Y-95525000D03*
X141087500Y-96025000D03*
X141087500Y-96525000D03*
G04 #@! TD*
D13*
G04 #@! TO.C,C4*
X157505000Y-118400000D03*
X158195000Y-118400000D03*
G04 #@! TD*
D12*
G04 #@! TO.C,C26*
X150600000Y-104655000D03*
X150600000Y-105345000D03*
G04 #@! TD*
D13*
G04 #@! TO.C,R12*
X147355000Y-89500000D03*
X148045000Y-89500000D03*
G04 #@! TD*
G04 #@! TO.C,C13*
X143805000Y-103350000D03*
X144495000Y-103350000D03*
G04 #@! TD*
G04 #@! TO.C,C32*
X139455000Y-95500000D03*
X140145000Y-95500000D03*
G04 #@! TD*
D15*
G04 #@! TO.C,C14*
X157445000Y-110900000D03*
X156755000Y-110900000D03*
G04 #@! TD*
D12*
G04 #@! TO.C,R31*
X139550000Y-102260000D03*
X139550000Y-102950000D03*
G04 #@! TD*
D13*
G04 #@! TO.C,R30*
X140305000Y-102842500D03*
X140995000Y-102842500D03*
G04 #@! TD*
D21*
G04 #@! TO.C,L2*
X144600000Y-93625000D03*
X144600000Y-95275000D03*
G04 #@! TD*
D22*
G04 #@! TO.C,D3*
X138750000Y-86737500D03*
X138750000Y-85162500D03*
G04 #@! TD*
D12*
G04 #@! TO.C,R3*
X146000000Y-117255000D03*
X146000000Y-117945000D03*
G04 #@! TD*
G04 #@! TO.C,R23*
X140250000Y-98285000D03*
X140250000Y-98975000D03*
G04 #@! TD*
G04 #@! TO.C,C2*
X138150000Y-105755000D03*
X138150000Y-106445000D03*
G04 #@! TD*
G04 #@! TO.C,R2*
X141800000Y-101335000D03*
X141800000Y-102025000D03*
G04 #@! TD*
D14*
G04 #@! TO.C,C37*
X143575000Y-97750000D03*
X142025000Y-97750000D03*
G04 #@! TD*
D23*
G04 #@! TO.C,Y1*
X144500000Y-102200000D03*
X144500000Y-99700000D03*
G04 #@! TD*
D24*
G04 #@! TO.C,C46*
X143425000Y-91400000D03*
X144975000Y-91400000D03*
G04 #@! TD*
D13*
G04 #@! TO.C,R13*
X147355000Y-90900000D03*
X148045000Y-90900000D03*
G04 #@! TD*
D12*
G04 #@! TO.C,C29*
X149600000Y-102555000D03*
X149600000Y-103245000D03*
G04 #@! TD*
D11*
G04 #@! TO.C,C21*
X146100000Y-100245000D03*
X146100000Y-99555000D03*
G04 #@! TD*
G04 #@! TO.C,R1*
X142350000Y-103495000D03*
X142350000Y-102805000D03*
G04 #@! TD*
D14*
G04 #@! TO.C,C34*
X142300000Y-92875000D03*
X140750000Y-92875000D03*
G04 #@! TD*
D12*
G04 #@! TO.C,C23*
X146400000Y-104405000D03*
X146400000Y-105095000D03*
G04 #@! TD*
D25*
G04 #@! TO.C,L1*
X140138100Y-91233600D03*
X140138100Y-88433600D03*
G04 #@! TD*
D11*
G04 #@! TO.C,C50*
X138050000Y-104745000D03*
X138050000Y-104055000D03*
G04 #@! TD*
D26*
G04 #@! TO.C,IC1*
X140362500Y-116845000D03*
X140362500Y-118845000D03*
X142062500Y-116845000D03*
X142062500Y-118845000D03*
D27*
X138550000Y-115940000D03*
X138550000Y-117210000D03*
X138550000Y-118480000D03*
X138550000Y-119750000D03*
X143875000Y-119750000D03*
X143875000Y-118480000D03*
X143875000Y-117210000D03*
X143875000Y-115940000D03*
G04 #@! TD*
D15*
G04 #@! TO.C,C5*
X157085000Y-116520000D03*
X156395000Y-116520000D03*
G04 #@! TD*
G04 #@! TO.C,C10*
X157445000Y-113700000D03*
X156755000Y-113700000D03*
G04 #@! TD*
G04 #@! TO.C,C17*
X157345000Y-108900000D03*
X156655000Y-108900000D03*
G04 #@! TD*
D28*
G04 #@! TO.C,Y2*
X147400000Y-101950000D03*
X147400000Y-103350000D03*
X148500000Y-103350000D03*
X148500000Y-101950000D03*
G04 #@! TD*
D29*
G04 #@! TO.C,IC4*
X143125600Y-87733600D03*
X143125600Y-88233600D03*
X143125600Y-88733600D03*
X144550600Y-88733600D03*
X144550600Y-88233600D03*
X144550600Y-87733600D03*
G04 #@! TD*
D15*
G04 #@! TO.C,C19*
X157345000Y-107900000D03*
X156655000Y-107900000D03*
G04 #@! TD*
D24*
G04 #@! TO.C,C49*
X141725000Y-86450000D03*
X143275000Y-86450000D03*
G04 #@! TD*
D15*
G04 #@! TO.C,C12*
X157445000Y-112600000D03*
X156755000Y-112600000D03*
G04 #@! TD*
D12*
G04 #@! TO.C,C27*
X152900000Y-103955000D03*
X152900000Y-104645000D03*
G04 #@! TD*
D11*
G04 #@! TO.C,R27*
X149500000Y-105315000D03*
X149500000Y-104625000D03*
G04 #@! TD*
D15*
G04 #@! TO.C,C22*
X157345000Y-106500000D03*
X156655000Y-106500000D03*
G04 #@! TD*
D30*
G04 #@! TO.C,Q2*
X139300000Y-105892500D03*
X139950000Y-105892500D03*
X140600000Y-105892500D03*
X140600000Y-103992500D03*
X139950000Y-103992500D03*
X139300000Y-103992500D03*
G04 #@! TD*
D13*
G04 #@! TO.C,R9*
X140005000Y-84850000D03*
X140695000Y-84850000D03*
G04 #@! TD*
D15*
G04 #@! TO.C,C18*
X158745000Y-108300000D03*
X158055000Y-108300000D03*
G04 #@! TD*
D13*
G04 #@! TO.C,C38*
X147355000Y-95600000D03*
X148045000Y-95600000D03*
G04 #@! TD*
G04 #@! TO.C,R19*
X147355000Y-91800000D03*
X148045000Y-91800000D03*
G04 #@! TD*
D12*
G04 #@! TO.C,R8*
X158500000Y-110555000D03*
X158500000Y-111245000D03*
G04 #@! TD*
D13*
G04 #@! TO.C,R11*
X147355000Y-97900000D03*
X148045000Y-97900000D03*
G04 #@! TD*
D12*
G04 #@! TO.C,R4*
X143800000Y-104055000D03*
X143800000Y-104745000D03*
G04 #@! TD*
G04 #@! TO.C,C24*
X147200000Y-104655000D03*
X147200000Y-105345000D03*
G04 #@! TD*
D15*
G04 #@! TO.C,R29*
X148115000Y-120750000D03*
X147425000Y-120750000D03*
G04 #@! TD*
D31*
G04 #@! TO.C,D2*
X138700000Y-101000000D03*
X138700000Y-98200000D03*
G04 #@! TD*
D32*
G04 #@! TO.C,U5*
X140300000Y-110600000D03*
D33*
X138300000Y-113237500D03*
X139300000Y-113237500D03*
X140300000Y-113237500D03*
X141300000Y-113237500D03*
X142300000Y-113237500D03*
X142300000Y-107962500D03*
X141300000Y-107962500D03*
X140300000Y-107962500D03*
X139300000Y-107962500D03*
X138300000Y-107962500D03*
G04 #@! TD*
D34*
G04 #@! TO.C,D1*
X150500000Y-102230000D03*
X150500000Y-103200000D03*
G04 #@! TD*
D15*
G04 #@! TO.C,C20*
X158765000Y-107100000D03*
X158075000Y-107100000D03*
G04 #@! TD*
D24*
G04 #@! TO.C,C47*
X143400000Y-89925000D03*
X144950000Y-89925000D03*
G04 #@! TD*
D11*
G04 #@! TO.C,C48*
X146000000Y-88825000D03*
X146000000Y-88135000D03*
G04 #@! TD*
D12*
G04 #@! TO.C,C6*
X143100000Y-104055000D03*
X143100000Y-104745000D03*
G04 #@! TD*
M02*
