G04 #@! TF.GenerationSoftware,KiCad,Pcbnew,9.0.0+1*
G04 #@! TF.CreationDate,2025-04-14T19:52:18+02:00*
G04 #@! TF.ProjectId,P4_M.2_B+M-key,50345f4d-2e32-45f4-922b-4d2d6b65792e,rev?*
G04 #@! TF.SameCoordinates,Original*
G04 #@! TF.FileFunction,Soldermask,Top*
G04 #@! TF.FilePolarity,Negative*
%FSLAX46Y46*%
G04 Gerber Fmt 4.6, Leading zero omitted, Abs format (unit mm)*
G04 Created by KiCad (PCBNEW 9.0.0+1) date 2025-04-14 19:52:18*
%MOMM*%
%LPD*%
G01*
G04 APERTURE LIST*
G04 Aperture macros list*
%AMRoundRect*
0 Rectangle with rounded corners*
0 $1 Rounding radius*
0 $2 $3 $4 $5 $6 $7 $8 $9 X,Y pos of 4 corners*
0 Add a 4 corners polygon primitive as box body*
4,1,4,$2,$3,$4,$5,$6,$7,$8,$9,$2,$3,0*
0 Add four circle primitives for the rounded corners*
1,1,$1+$1,$2,$3*
1,1,$1+$1,$4,$5*
1,1,$1+$1,$6,$7*
1,1,$1+$1,$8,$9*
0 Add four rect primitives between the rounded corners*
20,1,$1+$1,$2,$3,$4,$5,0*
20,1,$1+$1,$4,$5,$6,$7,0*
20,1,$1+$1,$6,$7,$8,$9,0*
20,1,$1+$1,$8,$9,$2,$3,0*%
G04 Aperture macros list end*
%ADD10C,0.000000*%
%ADD11RoundRect,0.100000X0.100000X-0.130000X0.100000X0.130000X-0.100000X0.130000X-0.100000X-0.130000X0*%
%ADD12RoundRect,0.100000X-0.100000X0.130000X-0.100000X-0.130000X0.100000X-0.130000X0.100000X0.130000X0*%
%ADD13RoundRect,0.100000X-0.130000X-0.100000X0.130000X-0.100000X0.130000X0.100000X-0.130000X0.100000X0*%
%ADD14RoundRect,0.225000X0.225000X0.250000X-0.225000X0.250000X-0.225000X-0.250000X0.225000X-0.250000X0*%
%ADD15RoundRect,0.100000X0.130000X0.100000X-0.130000X0.100000X-0.130000X-0.100000X0.130000X-0.100000X0*%
%ADD16R,1.500000X0.800000*%
%ADD17R,2.000000X1.500000*%
%ADD18RoundRect,0.100000X-3.750000X-3.750000X3.750000X-3.750000X3.750000X3.750000X-3.750000X3.750000X0*%
%ADD19RoundRect,0.087500X0.250000X0.087500X-0.250000X0.087500X-0.250000X-0.087500X0.250000X-0.087500X0*%
%ADD20RoundRect,0.100000X-0.175000X-1.250000X0.175000X-1.250000X0.175000X1.250000X-0.175000X1.250000X0*%
%ADD21C,5.700000*%
%ADD22RoundRect,0.212500X-0.787500X0.212500X-0.787500X-0.212500X0.787500X-0.212500X0.787500X0.212500X0*%
%ADD23RoundRect,0.218750X0.256250X-0.218750X0.256250X0.218750X-0.256250X0.218750X-0.256250X-0.218750X0*%
%ADD24R,1.800000X1.000000*%
%ADD25RoundRect,0.225000X-0.225000X-0.250000X0.225000X-0.250000X0.225000X0.250000X-0.225000X0.250000X0*%
%ADD26RoundRect,0.100000X2.200000X-0.650000X2.200000X0.650000X-2.200000X0.650000X-2.200000X-0.650000X0*%
%ADD27RoundRect,0.125000X-0.262500X-0.125000X0.262500X-0.125000X0.262500X0.125000X-0.262500X0.125000X0*%
%ADD28R,3.400000X4.000000*%
%ADD29R,0.800000X0.900000*%
%ADD30RoundRect,0.087500X-0.250000X-0.087500X0.250000X-0.087500X0.250000X0.087500X-0.250000X0.087500X0*%
%ADD31RoundRect,0.100000X0.100000X-0.225000X0.100000X0.225000X-0.100000X0.225000X-0.100000X-0.225000X0*%
%ADD32RoundRect,0.250000X0.300000X-0.300000X0.300000X0.300000X-0.300000X0.300000X-0.300000X-0.300000X0*%
%ADD33RoundRect,0.150000X0.150000X-0.687500X0.150000X0.687500X-0.150000X0.687500X-0.150000X-0.687500X0*%
%ADD34R,3.300000X2.100000*%
%ADD35RoundRect,0.147500X-0.172500X0.147500X-0.172500X-0.147500X0.172500X-0.147500X0.172500X0.147500X0*%
G04 APERTURE END LIST*
D10*
G04 #@! TO.C,U2*
G36*
X145782588Y-106799273D02*
G01*
X145835727Y-106852412D01*
X145855176Y-106925000D01*
X145835727Y-106997588D01*
X145782588Y-107050727D01*
X145710658Y-107070000D01*
X145239342Y-107070000D01*
X145167412Y-107050727D01*
X145114273Y-106997588D01*
X145094824Y-106925000D01*
X145114273Y-106852412D01*
X145167412Y-106799273D01*
X145239342Y-106780000D01*
X145710658Y-106780000D01*
X145782588Y-106799273D01*
G37*
G36*
X145782588Y-107149273D02*
G01*
X145835727Y-107202412D01*
X145855176Y-107275000D01*
X145835727Y-107347588D01*
X145782588Y-107400727D01*
X145710658Y-107420000D01*
X145239342Y-107420000D01*
X145167412Y-107400727D01*
X145114273Y-107347588D01*
X145094824Y-107275000D01*
X145114273Y-107202412D01*
X145167412Y-107149273D01*
X145239342Y-107130000D01*
X145710658Y-107130000D01*
X145782588Y-107149273D01*
G37*
G36*
X145782588Y-107499273D02*
G01*
X145835727Y-107552412D01*
X145855176Y-107625000D01*
X145835727Y-107697588D01*
X145782588Y-107750727D01*
X145710658Y-107770000D01*
X145239342Y-107770000D01*
X145167412Y-107750727D01*
X145114273Y-107697588D01*
X145094824Y-107625000D01*
X145114273Y-107552412D01*
X145167412Y-107499273D01*
X145239342Y-107480000D01*
X145710658Y-107480000D01*
X145782588Y-107499273D01*
G37*
G36*
X145782588Y-107849273D02*
G01*
X145835727Y-107902412D01*
X145855176Y-107975000D01*
X145835727Y-108047588D01*
X145782588Y-108100727D01*
X145710658Y-108120000D01*
X145239342Y-108120000D01*
X145167412Y-108100727D01*
X145114273Y-108047588D01*
X145094824Y-107975000D01*
X145114273Y-107902412D01*
X145167412Y-107849273D01*
X145239342Y-107830000D01*
X145710658Y-107830000D01*
X145782588Y-107849273D01*
G37*
G36*
X145782588Y-108199273D02*
G01*
X145835727Y-108252412D01*
X145855176Y-108325000D01*
X145835727Y-108397588D01*
X145782588Y-108450727D01*
X145710658Y-108470000D01*
X145239342Y-108470000D01*
X145167412Y-108450727D01*
X145114273Y-108397588D01*
X145094824Y-108325000D01*
X145114273Y-108252412D01*
X145167412Y-108199273D01*
X145239342Y-108180000D01*
X145710658Y-108180000D01*
X145782588Y-108199273D01*
G37*
G36*
X145782588Y-108549273D02*
G01*
X145835727Y-108602412D01*
X145855176Y-108675000D01*
X145835727Y-108747588D01*
X145782588Y-108800727D01*
X145710658Y-108820000D01*
X145239342Y-108820000D01*
X145167412Y-108800727D01*
X145114273Y-108747588D01*
X145094824Y-108675000D01*
X145114273Y-108602412D01*
X145167412Y-108549273D01*
X145239342Y-108530000D01*
X145710658Y-108530000D01*
X145782588Y-108549273D01*
G37*
G36*
X145782588Y-108899273D02*
G01*
X145835727Y-108952412D01*
X145855176Y-109025000D01*
X145835727Y-109097588D01*
X145782588Y-109150727D01*
X145710658Y-109170000D01*
X145239342Y-109170000D01*
X145167412Y-109150727D01*
X145114273Y-109097588D01*
X145094824Y-109025000D01*
X145114273Y-108952412D01*
X145167412Y-108899273D01*
X145239342Y-108880000D01*
X145710658Y-108880000D01*
X145782588Y-108899273D01*
G37*
G36*
X145782588Y-109249273D02*
G01*
X145835727Y-109302412D01*
X145855176Y-109375000D01*
X145835727Y-109447588D01*
X145782588Y-109500727D01*
X145710658Y-109520000D01*
X145239342Y-109520000D01*
X145167412Y-109500727D01*
X145114273Y-109447588D01*
X145094824Y-109375000D01*
X145114273Y-109302412D01*
X145167412Y-109249273D01*
X145239342Y-109230000D01*
X145710658Y-109230000D01*
X145782588Y-109249273D01*
G37*
G36*
X145782588Y-109599273D02*
G01*
X145835727Y-109652412D01*
X145855176Y-109725000D01*
X145835727Y-109797588D01*
X145782588Y-109850727D01*
X145710658Y-109870000D01*
X145239342Y-109870000D01*
X145167412Y-109850727D01*
X145114273Y-109797588D01*
X145094824Y-109725000D01*
X145114273Y-109652412D01*
X145167412Y-109599273D01*
X145239342Y-109580000D01*
X145710658Y-109580000D01*
X145782588Y-109599273D01*
G37*
G36*
X145782588Y-109949273D02*
G01*
X145835727Y-110002412D01*
X145855176Y-110075000D01*
X145835727Y-110147588D01*
X145782588Y-110200727D01*
X145710658Y-110220000D01*
X145239342Y-110220000D01*
X145167412Y-110200727D01*
X145114273Y-110147588D01*
X145094824Y-110075000D01*
X145114273Y-110002412D01*
X145167412Y-109949273D01*
X145239342Y-109930000D01*
X145710658Y-109930000D01*
X145782588Y-109949273D01*
G37*
G36*
X145782588Y-110299273D02*
G01*
X145835727Y-110352412D01*
X145855176Y-110425000D01*
X145835727Y-110497588D01*
X145782588Y-110550727D01*
X145710658Y-110570000D01*
X145239342Y-110570000D01*
X145167412Y-110550727D01*
X145114273Y-110497588D01*
X145094824Y-110425000D01*
X145114273Y-110352412D01*
X145167412Y-110299273D01*
X145239342Y-110280000D01*
X145710658Y-110280000D01*
X145782588Y-110299273D01*
G37*
G36*
X145782588Y-110649273D02*
G01*
X145835727Y-110702412D01*
X145855176Y-110775000D01*
X145835727Y-110847588D01*
X145782588Y-110900727D01*
X145710658Y-110920000D01*
X145239342Y-110920000D01*
X145167412Y-110900727D01*
X145114273Y-110847588D01*
X145094824Y-110775000D01*
X145114273Y-110702412D01*
X145167412Y-110649273D01*
X145239342Y-110630000D01*
X145710658Y-110630000D01*
X145782588Y-110649273D01*
G37*
G36*
X145782588Y-110999273D02*
G01*
X145835727Y-111052412D01*
X145855176Y-111125000D01*
X145835727Y-111197588D01*
X145782588Y-111250727D01*
X145710658Y-111270000D01*
X145239342Y-111270000D01*
X145167412Y-111250727D01*
X145114273Y-111197588D01*
X145094824Y-111125000D01*
X145114273Y-111052412D01*
X145167412Y-110999273D01*
X145239342Y-110980000D01*
X145710658Y-110980000D01*
X145782588Y-110999273D01*
G37*
G36*
X145782588Y-111349273D02*
G01*
X145835727Y-111402412D01*
X145855176Y-111475000D01*
X145835727Y-111547588D01*
X145782588Y-111600727D01*
X145710658Y-111620000D01*
X145239342Y-111620000D01*
X145167412Y-111600727D01*
X145114273Y-111547588D01*
X145094824Y-111475000D01*
X145114273Y-111402412D01*
X145167412Y-111349273D01*
X145239342Y-111330000D01*
X145710658Y-111330000D01*
X145782588Y-111349273D01*
G37*
G36*
X145782588Y-111699273D02*
G01*
X145835727Y-111752412D01*
X145855176Y-111825000D01*
X145835727Y-111897588D01*
X145782588Y-111950727D01*
X145710658Y-111970000D01*
X145239342Y-111970000D01*
X145167412Y-111950727D01*
X145114273Y-111897588D01*
X145094824Y-111825000D01*
X145114273Y-111752412D01*
X145167412Y-111699273D01*
X145239342Y-111680000D01*
X145710658Y-111680000D01*
X145782588Y-111699273D01*
G37*
G36*
X145782588Y-112049273D02*
G01*
X145835727Y-112102412D01*
X145855176Y-112175000D01*
X145835727Y-112247588D01*
X145782588Y-112300727D01*
X145710658Y-112320000D01*
X145239342Y-112320000D01*
X145167412Y-112300727D01*
X145114273Y-112247588D01*
X145094824Y-112175000D01*
X145114273Y-112102412D01*
X145167412Y-112049273D01*
X145239342Y-112030000D01*
X145710658Y-112030000D01*
X145782588Y-112049273D01*
G37*
G36*
X145782588Y-112399273D02*
G01*
X145835727Y-112452412D01*
X145855176Y-112525000D01*
X145835727Y-112597588D01*
X145782588Y-112650727D01*
X145710658Y-112670000D01*
X145239342Y-112670000D01*
X145167412Y-112650727D01*
X145114273Y-112597588D01*
X145094824Y-112525000D01*
X145114273Y-112452412D01*
X145167412Y-112399273D01*
X145239342Y-112380000D01*
X145710658Y-112380000D01*
X145782588Y-112399273D01*
G37*
G36*
X145782588Y-112749273D02*
G01*
X145835727Y-112802412D01*
X145855176Y-112875000D01*
X145835727Y-112947588D01*
X145782588Y-113000727D01*
X145710658Y-113020000D01*
X145239342Y-113020000D01*
X145167412Y-113000727D01*
X145114273Y-112947588D01*
X145094824Y-112875000D01*
X145114273Y-112802412D01*
X145167412Y-112749273D01*
X145239342Y-112730000D01*
X145710658Y-112730000D01*
X145782588Y-112749273D01*
G37*
G36*
X145782588Y-113099273D02*
G01*
X145835727Y-113152412D01*
X145855176Y-113225000D01*
X145835727Y-113297588D01*
X145782588Y-113350727D01*
X145710658Y-113370000D01*
X145239342Y-113370000D01*
X145167412Y-113350727D01*
X145114273Y-113297588D01*
X145094824Y-113225000D01*
X145114273Y-113152412D01*
X145167412Y-113099273D01*
X145239342Y-113080000D01*
X145710658Y-113080000D01*
X145782588Y-113099273D01*
G37*
G36*
X145782588Y-113449273D02*
G01*
X145835727Y-113502412D01*
X145855176Y-113575000D01*
X145835727Y-113647588D01*
X145782588Y-113700727D01*
X145710658Y-113720000D01*
X145239342Y-113720000D01*
X145167412Y-113700727D01*
X145114273Y-113647588D01*
X145094824Y-113575000D01*
X145114273Y-113502412D01*
X145167412Y-113449273D01*
X145239342Y-113430000D01*
X145710658Y-113430000D01*
X145782588Y-113449273D01*
G37*
G36*
X145782588Y-113799273D02*
G01*
X145835727Y-113852412D01*
X145855176Y-113925000D01*
X145835727Y-113997588D01*
X145782588Y-114050727D01*
X145710658Y-114070000D01*
X145239342Y-114070000D01*
X145167412Y-114050727D01*
X145114273Y-113997588D01*
X145094824Y-113925000D01*
X145114273Y-113852412D01*
X145167412Y-113799273D01*
X145239342Y-113780000D01*
X145710658Y-113780000D01*
X145782588Y-113799273D01*
G37*
G36*
X145782588Y-114149273D02*
G01*
X145835727Y-114202412D01*
X145855176Y-114275000D01*
X145835727Y-114347588D01*
X145782588Y-114400727D01*
X145710658Y-114420000D01*
X145239342Y-114420000D01*
X145167412Y-114400727D01*
X145114273Y-114347588D01*
X145094824Y-114275000D01*
X145114273Y-114202412D01*
X145167412Y-114149273D01*
X145239342Y-114130000D01*
X145710658Y-114130000D01*
X145782588Y-114149273D01*
G37*
G36*
X145782588Y-114499273D02*
G01*
X145835727Y-114552412D01*
X145855176Y-114625000D01*
X145835727Y-114697588D01*
X145782588Y-114750727D01*
X145710658Y-114770000D01*
X145239342Y-114770000D01*
X145167412Y-114750727D01*
X145114273Y-114697588D01*
X145094824Y-114625000D01*
X145114273Y-114552412D01*
X145167412Y-114499273D01*
X145239342Y-114480000D01*
X145710658Y-114480000D01*
X145782588Y-114499273D01*
G37*
G36*
X145782588Y-114849273D02*
G01*
X145835727Y-114902412D01*
X145855176Y-114975000D01*
X145835727Y-115047588D01*
X145782588Y-115100727D01*
X145710658Y-115120000D01*
X145239342Y-115120000D01*
X145167412Y-115100727D01*
X145114273Y-115047588D01*
X145094824Y-114975000D01*
X145114273Y-114902412D01*
X145167412Y-114849273D01*
X145239342Y-114830000D01*
X145710658Y-114830000D01*
X145782588Y-114849273D01*
G37*
G36*
X145782588Y-115199273D02*
G01*
X145835727Y-115252412D01*
X145855176Y-115325000D01*
X145835727Y-115397588D01*
X145782588Y-115450727D01*
X145710658Y-115470000D01*
X145239342Y-115470000D01*
X145167412Y-115450727D01*
X145114273Y-115397588D01*
X145094824Y-115325000D01*
X145114273Y-115252412D01*
X145167412Y-115199273D01*
X145239342Y-115180000D01*
X145710658Y-115180000D01*
X145782588Y-115199273D01*
G37*
G36*
X145782588Y-115549273D02*
G01*
X145835727Y-115602412D01*
X145855176Y-115675000D01*
X145835727Y-115747588D01*
X145782588Y-115800727D01*
X145710658Y-115820000D01*
X145239342Y-115820000D01*
X145167412Y-115800727D01*
X145114273Y-115747588D01*
X145094824Y-115675000D01*
X145114273Y-115602412D01*
X145167412Y-115549273D01*
X145239342Y-115530000D01*
X145710658Y-115530000D01*
X145782588Y-115549273D01*
G37*
G36*
X146097588Y-106014273D02*
G01*
X146150727Y-106067412D01*
X146170000Y-106139342D01*
X146170000Y-106610658D01*
X146150727Y-106682588D01*
X146097588Y-106735727D01*
X146025000Y-106755176D01*
X145952412Y-106735727D01*
X145899273Y-106682588D01*
X145880000Y-106610658D01*
X145880000Y-106139342D01*
X145899273Y-106067412D01*
X145952412Y-106014273D01*
X146025000Y-105994824D01*
X146097588Y-106014273D01*
G37*
G36*
X146097588Y-115864273D02*
G01*
X146150727Y-115917412D01*
X146170000Y-115989342D01*
X146170000Y-116460658D01*
X146150727Y-116532588D01*
X146097588Y-116585727D01*
X146025000Y-116605176D01*
X145952412Y-116585727D01*
X145899273Y-116532588D01*
X145880000Y-116460658D01*
X145880000Y-115989342D01*
X145899273Y-115917412D01*
X145952412Y-115864273D01*
X146025000Y-115844824D01*
X146097588Y-115864273D01*
G37*
G36*
X146447588Y-106014273D02*
G01*
X146500727Y-106067412D01*
X146520000Y-106139342D01*
X146520000Y-106610658D01*
X146500727Y-106682588D01*
X146447588Y-106735727D01*
X146375000Y-106755176D01*
X146302412Y-106735727D01*
X146249273Y-106682588D01*
X146230000Y-106610658D01*
X146230000Y-106139342D01*
X146249273Y-106067412D01*
X146302412Y-106014273D01*
X146375000Y-105994824D01*
X146447588Y-106014273D01*
G37*
G36*
X146447588Y-115864273D02*
G01*
X146500727Y-115917412D01*
X146520000Y-115989342D01*
X146520000Y-116460658D01*
X146500727Y-116532588D01*
X146447588Y-116585727D01*
X146375000Y-116605176D01*
X146302412Y-116585727D01*
X146249273Y-116532588D01*
X146230000Y-116460658D01*
X146230000Y-115989342D01*
X146249273Y-115917412D01*
X146302412Y-115864273D01*
X146375000Y-115844824D01*
X146447588Y-115864273D01*
G37*
G36*
X146797588Y-106014273D02*
G01*
X146850727Y-106067412D01*
X146870000Y-106139342D01*
X146870000Y-106610658D01*
X146850727Y-106682588D01*
X146797588Y-106735727D01*
X146725000Y-106755176D01*
X146652412Y-106735727D01*
X146599273Y-106682588D01*
X146580000Y-106610658D01*
X146580000Y-106139342D01*
X146599273Y-106067412D01*
X146652412Y-106014273D01*
X146725000Y-105994824D01*
X146797588Y-106014273D01*
G37*
G36*
X146797588Y-115864273D02*
G01*
X146850727Y-115917412D01*
X146870000Y-115989342D01*
X146870000Y-116460658D01*
X146850727Y-116532588D01*
X146797588Y-116585727D01*
X146725000Y-116605176D01*
X146652412Y-116585727D01*
X146599273Y-116532588D01*
X146580000Y-116460658D01*
X146580000Y-115989342D01*
X146599273Y-115917412D01*
X146652412Y-115864273D01*
X146725000Y-115844824D01*
X146797588Y-115864273D01*
G37*
G36*
X147147588Y-106014273D02*
G01*
X147200727Y-106067412D01*
X147220000Y-106139342D01*
X147220000Y-106610658D01*
X147200727Y-106682588D01*
X147147588Y-106735727D01*
X147075000Y-106755176D01*
X147002412Y-106735727D01*
X146949273Y-106682588D01*
X146930000Y-106610658D01*
X146930000Y-106139342D01*
X146949273Y-106067412D01*
X147002412Y-106014273D01*
X147075000Y-105994824D01*
X147147588Y-106014273D01*
G37*
G36*
X147147588Y-115864273D02*
G01*
X147200727Y-115917412D01*
X147220000Y-115989342D01*
X147220000Y-116460658D01*
X147200727Y-116532588D01*
X147147588Y-116585727D01*
X147075000Y-116605176D01*
X147002412Y-116585727D01*
X146949273Y-116532588D01*
X146930000Y-116460658D01*
X146930000Y-115989342D01*
X146949273Y-115917412D01*
X147002412Y-115864273D01*
X147075000Y-115844824D01*
X147147588Y-115864273D01*
G37*
G36*
X147497588Y-106014273D02*
G01*
X147550727Y-106067412D01*
X147570000Y-106139342D01*
X147570000Y-106610658D01*
X147550727Y-106682588D01*
X147497588Y-106735727D01*
X147425000Y-106755176D01*
X147352412Y-106735727D01*
X147299273Y-106682588D01*
X147280000Y-106610658D01*
X147280000Y-106139342D01*
X147299273Y-106067412D01*
X147352412Y-106014273D01*
X147425000Y-105994824D01*
X147497588Y-106014273D01*
G37*
G36*
X147497588Y-115864273D02*
G01*
X147550727Y-115917412D01*
X147570000Y-115989342D01*
X147570000Y-116460658D01*
X147550727Y-116532588D01*
X147497588Y-116585727D01*
X147425000Y-116605176D01*
X147352412Y-116585727D01*
X147299273Y-116532588D01*
X147280000Y-116460658D01*
X147280000Y-115989342D01*
X147299273Y-115917412D01*
X147352412Y-115864273D01*
X147425000Y-115844824D01*
X147497588Y-115864273D01*
G37*
G36*
X147847588Y-106014273D02*
G01*
X147900727Y-106067412D01*
X147920000Y-106139342D01*
X147920000Y-106610658D01*
X147900727Y-106682588D01*
X147847588Y-106735727D01*
X147775000Y-106755176D01*
X147702412Y-106735727D01*
X147649273Y-106682588D01*
X147630000Y-106610658D01*
X147630000Y-106139342D01*
X147649273Y-106067412D01*
X147702412Y-106014273D01*
X147775000Y-105994824D01*
X147847588Y-106014273D01*
G37*
G36*
X147847588Y-115864273D02*
G01*
X147900727Y-115917412D01*
X147920000Y-115989342D01*
X147920000Y-116460658D01*
X147900727Y-116532588D01*
X147847588Y-116585727D01*
X147775000Y-116605176D01*
X147702412Y-116585727D01*
X147649273Y-116532588D01*
X147630000Y-116460658D01*
X147630000Y-115989342D01*
X147649273Y-115917412D01*
X147702412Y-115864273D01*
X147775000Y-115844824D01*
X147847588Y-115864273D01*
G37*
G36*
X148197588Y-106014273D02*
G01*
X148250727Y-106067412D01*
X148270000Y-106139342D01*
X148270000Y-106610658D01*
X148250727Y-106682588D01*
X148197588Y-106735727D01*
X148125000Y-106755176D01*
X148052412Y-106735727D01*
X147999273Y-106682588D01*
X147980000Y-106610658D01*
X147980000Y-106139342D01*
X147999273Y-106067412D01*
X148052412Y-106014273D01*
X148125000Y-105994824D01*
X148197588Y-106014273D01*
G37*
G36*
X148197588Y-115864273D02*
G01*
X148250727Y-115917412D01*
X148270000Y-115989342D01*
X148270000Y-116460658D01*
X148250727Y-116532588D01*
X148197588Y-116585727D01*
X148125000Y-116605176D01*
X148052412Y-116585727D01*
X147999273Y-116532588D01*
X147980000Y-116460658D01*
X147980000Y-115989342D01*
X147999273Y-115917412D01*
X148052412Y-115864273D01*
X148125000Y-115844824D01*
X148197588Y-115864273D01*
G37*
G36*
X148547588Y-106014273D02*
G01*
X148600727Y-106067412D01*
X148620000Y-106139342D01*
X148620000Y-106610658D01*
X148600727Y-106682588D01*
X148547588Y-106735727D01*
X148475000Y-106755176D01*
X148402412Y-106735727D01*
X148349273Y-106682588D01*
X148330000Y-106610658D01*
X148330000Y-106139342D01*
X148349273Y-106067412D01*
X148402412Y-106014273D01*
X148475000Y-105994824D01*
X148547588Y-106014273D01*
G37*
G36*
X148547588Y-115864273D02*
G01*
X148600727Y-115917412D01*
X148620000Y-115989342D01*
X148620000Y-116460658D01*
X148600727Y-116532588D01*
X148547588Y-116585727D01*
X148475000Y-116605176D01*
X148402412Y-116585727D01*
X148349273Y-116532588D01*
X148330000Y-116460658D01*
X148330000Y-115989342D01*
X148349273Y-115917412D01*
X148402412Y-115864273D01*
X148475000Y-115844824D01*
X148547588Y-115864273D01*
G37*
G36*
X148897588Y-106014273D02*
G01*
X148950727Y-106067412D01*
X148970000Y-106139342D01*
X148970000Y-106610658D01*
X148950727Y-106682588D01*
X148897588Y-106735727D01*
X148825000Y-106755176D01*
X148752412Y-106735727D01*
X148699273Y-106682588D01*
X148680000Y-106610658D01*
X148680000Y-106139342D01*
X148699273Y-106067412D01*
X148752412Y-106014273D01*
X148825000Y-105994824D01*
X148897588Y-106014273D01*
G37*
G36*
X148897588Y-115864273D02*
G01*
X148950727Y-115917412D01*
X148970000Y-115989342D01*
X148970000Y-116460658D01*
X148950727Y-116532588D01*
X148897588Y-116585727D01*
X148825000Y-116605176D01*
X148752412Y-116585727D01*
X148699273Y-116532588D01*
X148680000Y-116460658D01*
X148680000Y-115989342D01*
X148699273Y-115917412D01*
X148752412Y-115864273D01*
X148825000Y-115844824D01*
X148897588Y-115864273D01*
G37*
G36*
X149247588Y-106014273D02*
G01*
X149300727Y-106067412D01*
X149320000Y-106139342D01*
X149320000Y-106610658D01*
X149300727Y-106682588D01*
X149247588Y-106735727D01*
X149175000Y-106755176D01*
X149102412Y-106735727D01*
X149049273Y-106682588D01*
X149030000Y-106610658D01*
X149030000Y-106139342D01*
X149049273Y-106067412D01*
X149102412Y-106014273D01*
X149175000Y-105994824D01*
X149247588Y-106014273D01*
G37*
G36*
X149247588Y-115864273D02*
G01*
X149300727Y-115917412D01*
X149320000Y-115989342D01*
X149320000Y-116460658D01*
X149300727Y-116532588D01*
X149247588Y-116585727D01*
X149175000Y-116605176D01*
X149102412Y-116585727D01*
X149049273Y-116532588D01*
X149030000Y-116460658D01*
X149030000Y-115989342D01*
X149049273Y-115917412D01*
X149102412Y-115864273D01*
X149175000Y-115844824D01*
X149247588Y-115864273D01*
G37*
G36*
X149597588Y-106014273D02*
G01*
X149650727Y-106067412D01*
X149670000Y-106139342D01*
X149670000Y-106610658D01*
X149650727Y-106682588D01*
X149597588Y-106735727D01*
X149525000Y-106755176D01*
X149452412Y-106735727D01*
X149399273Y-106682588D01*
X149380000Y-106610658D01*
X149380000Y-106139342D01*
X149399273Y-106067412D01*
X149452412Y-106014273D01*
X149525000Y-105994824D01*
X149597588Y-106014273D01*
G37*
G36*
X149597588Y-115864273D02*
G01*
X149650727Y-115917412D01*
X149670000Y-115989342D01*
X149670000Y-116460658D01*
X149650727Y-116532588D01*
X149597588Y-116585727D01*
X149525000Y-116605176D01*
X149452412Y-116585727D01*
X149399273Y-116532588D01*
X149380000Y-116460658D01*
X149380000Y-115989342D01*
X149399273Y-115917412D01*
X149452412Y-115864273D01*
X149525000Y-115844824D01*
X149597588Y-115864273D01*
G37*
G36*
X149947588Y-106014273D02*
G01*
X150000727Y-106067412D01*
X150020000Y-106139342D01*
X150020000Y-106610658D01*
X150000727Y-106682588D01*
X149947588Y-106735727D01*
X149875000Y-106755176D01*
X149802412Y-106735727D01*
X149749273Y-106682588D01*
X149730000Y-106610658D01*
X149730000Y-106139342D01*
X149749273Y-106067412D01*
X149802412Y-106014273D01*
X149875000Y-105994824D01*
X149947588Y-106014273D01*
G37*
G36*
X149947588Y-115864273D02*
G01*
X150000727Y-115917412D01*
X150020000Y-115989342D01*
X150020000Y-116460658D01*
X150000727Y-116532588D01*
X149947588Y-116585727D01*
X149875000Y-116605176D01*
X149802412Y-116585727D01*
X149749273Y-116532588D01*
X149730000Y-116460658D01*
X149730000Y-115989342D01*
X149749273Y-115917412D01*
X149802412Y-115864273D01*
X149875000Y-115844824D01*
X149947588Y-115864273D01*
G37*
G36*
X150297588Y-106014273D02*
G01*
X150350727Y-106067412D01*
X150370000Y-106139342D01*
X150370000Y-106610658D01*
X150350727Y-106682588D01*
X150297588Y-106735727D01*
X150225000Y-106755176D01*
X150152412Y-106735727D01*
X150099273Y-106682588D01*
X150080000Y-106610658D01*
X150080000Y-106139342D01*
X150099273Y-106067412D01*
X150152412Y-106014273D01*
X150225000Y-105994824D01*
X150297588Y-106014273D01*
G37*
G36*
X150297588Y-115864273D02*
G01*
X150350727Y-115917412D01*
X150370000Y-115989342D01*
X150370000Y-116460658D01*
X150350727Y-116532588D01*
X150297588Y-116585727D01*
X150225000Y-116605176D01*
X150152412Y-116585727D01*
X150099273Y-116532588D01*
X150080000Y-116460658D01*
X150080000Y-115989342D01*
X150099273Y-115917412D01*
X150152412Y-115864273D01*
X150225000Y-115844824D01*
X150297588Y-115864273D01*
G37*
G36*
X150647588Y-106014273D02*
G01*
X150700727Y-106067412D01*
X150720000Y-106139342D01*
X150720000Y-106610658D01*
X150700727Y-106682588D01*
X150647588Y-106735727D01*
X150575000Y-106755176D01*
X150502412Y-106735727D01*
X150449273Y-106682588D01*
X150430000Y-106610658D01*
X150430000Y-106139342D01*
X150449273Y-106067412D01*
X150502412Y-106014273D01*
X150575000Y-105994824D01*
X150647588Y-106014273D01*
G37*
G36*
X150647588Y-115864273D02*
G01*
X150700727Y-115917412D01*
X150720000Y-115989342D01*
X150720000Y-116460658D01*
X150700727Y-116532588D01*
X150647588Y-116585727D01*
X150575000Y-116605176D01*
X150502412Y-116585727D01*
X150449273Y-116532588D01*
X150430000Y-116460658D01*
X150430000Y-115989342D01*
X150449273Y-115917412D01*
X150502412Y-115864273D01*
X150575000Y-115844824D01*
X150647588Y-115864273D01*
G37*
G36*
X150997588Y-106014273D02*
G01*
X151050727Y-106067412D01*
X151070000Y-106139342D01*
X151070000Y-106610658D01*
X151050727Y-106682588D01*
X150997588Y-106735727D01*
X150925000Y-106755176D01*
X150852412Y-106735727D01*
X150799273Y-106682588D01*
X150780000Y-106610658D01*
X150780000Y-106139342D01*
X150799273Y-106067412D01*
X150852412Y-106014273D01*
X150925000Y-105994824D01*
X150997588Y-106014273D01*
G37*
G36*
X150997588Y-115864273D02*
G01*
X151050727Y-115917412D01*
X151070000Y-115989342D01*
X151070000Y-116460658D01*
X151050727Y-116532588D01*
X150997588Y-116585727D01*
X150925000Y-116605176D01*
X150852412Y-116585727D01*
X150799273Y-116532588D01*
X150780000Y-116460658D01*
X150780000Y-115989342D01*
X150799273Y-115917412D01*
X150852412Y-115864273D01*
X150925000Y-115844824D01*
X150997588Y-115864273D01*
G37*
G36*
X151347588Y-106014273D02*
G01*
X151400727Y-106067412D01*
X151420000Y-106139342D01*
X151420000Y-106610658D01*
X151400727Y-106682588D01*
X151347588Y-106735727D01*
X151275000Y-106755176D01*
X151202412Y-106735727D01*
X151149273Y-106682588D01*
X151130000Y-106610658D01*
X151130000Y-106139342D01*
X151149273Y-106067412D01*
X151202412Y-106014273D01*
X151275000Y-105994824D01*
X151347588Y-106014273D01*
G37*
G36*
X151347588Y-115864273D02*
G01*
X151400727Y-115917412D01*
X151420000Y-115989342D01*
X151420000Y-116460658D01*
X151400727Y-116532588D01*
X151347588Y-116585727D01*
X151275000Y-116605176D01*
X151202412Y-116585727D01*
X151149273Y-116532588D01*
X151130000Y-116460658D01*
X151130000Y-115989342D01*
X151149273Y-115917412D01*
X151202412Y-115864273D01*
X151275000Y-115844824D01*
X151347588Y-115864273D01*
G37*
G36*
X151697588Y-106014273D02*
G01*
X151750727Y-106067412D01*
X151770000Y-106139342D01*
X151770000Y-106610658D01*
X151750727Y-106682588D01*
X151697588Y-106735727D01*
X151625000Y-106755176D01*
X151552412Y-106735727D01*
X151499273Y-106682588D01*
X151480000Y-106610658D01*
X151480000Y-106139342D01*
X151499273Y-106067412D01*
X151552412Y-106014273D01*
X151625000Y-105994824D01*
X151697588Y-106014273D01*
G37*
G36*
X151697588Y-115864273D02*
G01*
X151750727Y-115917412D01*
X151770000Y-115989342D01*
X151770000Y-116460658D01*
X151750727Y-116532588D01*
X151697588Y-116585727D01*
X151625000Y-116605176D01*
X151552412Y-116585727D01*
X151499273Y-116532588D01*
X151480000Y-116460658D01*
X151480000Y-115989342D01*
X151499273Y-115917412D01*
X151552412Y-115864273D01*
X151625000Y-115844824D01*
X151697588Y-115864273D01*
G37*
G36*
X152047588Y-106014273D02*
G01*
X152100727Y-106067412D01*
X152120000Y-106139342D01*
X152120000Y-106610658D01*
X152100727Y-106682588D01*
X152047588Y-106735727D01*
X151975000Y-106755176D01*
X151902412Y-106735727D01*
X151849273Y-106682588D01*
X151830000Y-106610658D01*
X151830000Y-106139342D01*
X151849273Y-106067412D01*
X151902412Y-106014273D01*
X151975000Y-105994824D01*
X152047588Y-106014273D01*
G37*
G36*
X152047588Y-115864273D02*
G01*
X152100727Y-115917412D01*
X152120000Y-115989342D01*
X152120000Y-116460658D01*
X152100727Y-116532588D01*
X152047588Y-116585727D01*
X151975000Y-116605176D01*
X151902412Y-116585727D01*
X151849273Y-116532588D01*
X151830000Y-116460658D01*
X151830000Y-115989342D01*
X151849273Y-115917412D01*
X151902412Y-115864273D01*
X151975000Y-115844824D01*
X152047588Y-115864273D01*
G37*
G36*
X152397588Y-106014273D02*
G01*
X152450727Y-106067412D01*
X152470000Y-106139342D01*
X152470000Y-106610658D01*
X152450727Y-106682588D01*
X152397588Y-106735727D01*
X152325000Y-106755176D01*
X152252412Y-106735727D01*
X152199273Y-106682588D01*
X152180000Y-106610658D01*
X152180000Y-106139342D01*
X152199273Y-106067412D01*
X152252412Y-106014273D01*
X152325000Y-105994824D01*
X152397588Y-106014273D01*
G37*
G36*
X152397588Y-115864273D02*
G01*
X152450727Y-115917412D01*
X152470000Y-115989342D01*
X152470000Y-116460658D01*
X152450727Y-116532588D01*
X152397588Y-116585727D01*
X152325000Y-116605176D01*
X152252412Y-116585727D01*
X152199273Y-116532588D01*
X152180000Y-116460658D01*
X152180000Y-115989342D01*
X152199273Y-115917412D01*
X152252412Y-115864273D01*
X152325000Y-115844824D01*
X152397588Y-115864273D01*
G37*
G36*
X152747588Y-106014273D02*
G01*
X152800727Y-106067412D01*
X152820000Y-106139342D01*
X152820000Y-106610658D01*
X152800727Y-106682588D01*
X152747588Y-106735727D01*
X152675000Y-106755176D01*
X152602412Y-106735727D01*
X152549273Y-106682588D01*
X152530000Y-106610658D01*
X152530000Y-106139342D01*
X152549273Y-106067412D01*
X152602412Y-106014273D01*
X152675000Y-105994824D01*
X152747588Y-106014273D01*
G37*
G36*
X152747588Y-115864273D02*
G01*
X152800727Y-115917412D01*
X152820000Y-115989342D01*
X152820000Y-116460658D01*
X152800727Y-116532588D01*
X152747588Y-116585727D01*
X152675000Y-116605176D01*
X152602412Y-116585727D01*
X152549273Y-116532588D01*
X152530000Y-116460658D01*
X152530000Y-115989342D01*
X152549273Y-115917412D01*
X152602412Y-115864273D01*
X152675000Y-115844824D01*
X152747588Y-115864273D01*
G37*
G36*
X153097588Y-106014273D02*
G01*
X153150727Y-106067412D01*
X153170000Y-106139342D01*
X153170000Y-106610658D01*
X153150727Y-106682588D01*
X153097588Y-106735727D01*
X153025000Y-106755176D01*
X152952412Y-106735727D01*
X152899273Y-106682588D01*
X152880000Y-106610658D01*
X152880000Y-106139342D01*
X152899273Y-106067412D01*
X152952412Y-106014273D01*
X153025000Y-105994824D01*
X153097588Y-106014273D01*
G37*
G36*
X153097588Y-115864273D02*
G01*
X153150727Y-115917412D01*
X153170000Y-115989342D01*
X153170000Y-116460658D01*
X153150727Y-116532588D01*
X153097588Y-116585727D01*
X153025000Y-116605176D01*
X152952412Y-116585727D01*
X152899273Y-116532588D01*
X152880000Y-116460658D01*
X152880000Y-115989342D01*
X152899273Y-115917412D01*
X152952412Y-115864273D01*
X153025000Y-115844824D01*
X153097588Y-115864273D01*
G37*
G36*
X153447588Y-106014273D02*
G01*
X153500727Y-106067412D01*
X153520000Y-106139342D01*
X153520000Y-106610658D01*
X153500727Y-106682588D01*
X153447588Y-106735727D01*
X153375000Y-106755176D01*
X153302412Y-106735727D01*
X153249273Y-106682588D01*
X153230000Y-106610658D01*
X153230000Y-106139342D01*
X153249273Y-106067412D01*
X153302412Y-106014273D01*
X153375000Y-105994824D01*
X153447588Y-106014273D01*
G37*
G36*
X153447588Y-115864273D02*
G01*
X153500727Y-115917412D01*
X153520000Y-115989342D01*
X153520000Y-116460658D01*
X153500727Y-116532588D01*
X153447588Y-116585727D01*
X153375000Y-116605176D01*
X153302412Y-116585727D01*
X153249273Y-116532588D01*
X153230000Y-116460658D01*
X153230000Y-115989342D01*
X153249273Y-115917412D01*
X153302412Y-115864273D01*
X153375000Y-115844824D01*
X153447588Y-115864273D01*
G37*
G36*
X153797588Y-106014273D02*
G01*
X153850727Y-106067412D01*
X153870000Y-106139342D01*
X153870000Y-106610658D01*
X153850727Y-106682588D01*
X153797588Y-106735727D01*
X153725000Y-106755176D01*
X153652412Y-106735727D01*
X153599273Y-106682588D01*
X153580000Y-106610658D01*
X153580000Y-106139342D01*
X153599273Y-106067412D01*
X153652412Y-106014273D01*
X153725000Y-105994824D01*
X153797588Y-106014273D01*
G37*
G36*
X153797588Y-115864273D02*
G01*
X153850727Y-115917412D01*
X153870000Y-115989342D01*
X153870000Y-116460658D01*
X153850727Y-116532588D01*
X153797588Y-116585727D01*
X153725000Y-116605176D01*
X153652412Y-116585727D01*
X153599273Y-116532588D01*
X153580000Y-116460658D01*
X153580000Y-115989342D01*
X153599273Y-115917412D01*
X153652412Y-115864273D01*
X153725000Y-115844824D01*
X153797588Y-115864273D01*
G37*
G36*
X154147588Y-106014273D02*
G01*
X154200727Y-106067412D01*
X154220000Y-106139342D01*
X154220000Y-106610658D01*
X154200727Y-106682588D01*
X154147588Y-106735727D01*
X154075000Y-106755176D01*
X154002412Y-106735727D01*
X153949273Y-106682588D01*
X153930000Y-106610658D01*
X153930000Y-106139342D01*
X153949273Y-106067412D01*
X154002412Y-106014273D01*
X154075000Y-105994824D01*
X154147588Y-106014273D01*
G37*
G36*
X154147588Y-115864273D02*
G01*
X154200727Y-115917412D01*
X154220000Y-115989342D01*
X154220000Y-116460658D01*
X154200727Y-116532588D01*
X154147588Y-116585727D01*
X154075000Y-116605176D01*
X154002412Y-116585727D01*
X153949273Y-116532588D01*
X153930000Y-116460658D01*
X153930000Y-115989342D01*
X153949273Y-115917412D01*
X154002412Y-115864273D01*
X154075000Y-115844824D01*
X154147588Y-115864273D01*
G37*
G36*
X154497588Y-106014273D02*
G01*
X154550727Y-106067412D01*
X154570000Y-106139342D01*
X154570000Y-106610658D01*
X154550727Y-106682588D01*
X154497588Y-106735727D01*
X154425000Y-106755176D01*
X154352412Y-106735727D01*
X154299273Y-106682588D01*
X154280000Y-106610658D01*
X154280000Y-106139342D01*
X154299273Y-106067412D01*
X154352412Y-106014273D01*
X154425000Y-105994824D01*
X154497588Y-106014273D01*
G37*
G36*
X154497588Y-115864273D02*
G01*
X154550727Y-115917412D01*
X154570000Y-115989342D01*
X154570000Y-116460658D01*
X154550727Y-116532588D01*
X154497588Y-116585727D01*
X154425000Y-116605176D01*
X154352412Y-116585727D01*
X154299273Y-116532588D01*
X154280000Y-116460658D01*
X154280000Y-115989342D01*
X154299273Y-115917412D01*
X154352412Y-115864273D01*
X154425000Y-115844824D01*
X154497588Y-115864273D01*
G37*
G36*
X154847588Y-106014273D02*
G01*
X154900727Y-106067412D01*
X154920000Y-106139342D01*
X154920000Y-106610658D01*
X154900727Y-106682588D01*
X154847588Y-106735727D01*
X154775000Y-106755176D01*
X154702412Y-106735727D01*
X154649273Y-106682588D01*
X154630000Y-106610658D01*
X154630000Y-106139342D01*
X154649273Y-106067412D01*
X154702412Y-106014273D01*
X154775000Y-105994824D01*
X154847588Y-106014273D01*
G37*
G36*
X154847588Y-115864273D02*
G01*
X154900727Y-115917412D01*
X154920000Y-115989342D01*
X154920000Y-116460658D01*
X154900727Y-116532588D01*
X154847588Y-116585727D01*
X154775000Y-116605176D01*
X154702412Y-116585727D01*
X154649273Y-116532588D01*
X154630000Y-116460658D01*
X154630000Y-115989342D01*
X154649273Y-115917412D01*
X154702412Y-115864273D01*
X154775000Y-115844824D01*
X154847588Y-115864273D01*
G37*
G36*
X155632588Y-106799273D02*
G01*
X155685727Y-106852412D01*
X155705176Y-106925000D01*
X155685727Y-106997588D01*
X155632588Y-107050727D01*
X155560658Y-107070000D01*
X155089342Y-107070000D01*
X155017412Y-107050727D01*
X154964273Y-106997588D01*
X154944824Y-106925000D01*
X154964273Y-106852412D01*
X155017412Y-106799273D01*
X155089342Y-106780000D01*
X155560658Y-106780000D01*
X155632588Y-106799273D01*
G37*
G36*
X155632588Y-107149273D02*
G01*
X155685727Y-107202412D01*
X155705176Y-107275000D01*
X155685727Y-107347588D01*
X155632588Y-107400727D01*
X155560658Y-107420000D01*
X155089342Y-107420000D01*
X155017412Y-107400727D01*
X154964273Y-107347588D01*
X154944824Y-107275000D01*
X154964273Y-107202412D01*
X155017412Y-107149273D01*
X155089342Y-107130000D01*
X155560658Y-107130000D01*
X155632588Y-107149273D01*
G37*
G36*
X155632588Y-107499273D02*
G01*
X155685727Y-107552412D01*
X155705176Y-107625000D01*
X155685727Y-107697588D01*
X155632588Y-107750727D01*
X155560658Y-107770000D01*
X155089342Y-107770000D01*
X155017412Y-107750727D01*
X154964273Y-107697588D01*
X154944824Y-107625000D01*
X154964273Y-107552412D01*
X155017412Y-107499273D01*
X155089342Y-107480000D01*
X155560658Y-107480000D01*
X155632588Y-107499273D01*
G37*
G36*
X155632588Y-107849273D02*
G01*
X155685727Y-107902412D01*
X155705176Y-107975000D01*
X155685727Y-108047588D01*
X155632588Y-108100727D01*
X155560658Y-108120000D01*
X155089342Y-108120000D01*
X155017412Y-108100727D01*
X154964273Y-108047588D01*
X154944824Y-107975000D01*
X154964273Y-107902412D01*
X155017412Y-107849273D01*
X155089342Y-107830000D01*
X155560658Y-107830000D01*
X155632588Y-107849273D01*
G37*
G36*
X155632588Y-108199273D02*
G01*
X155685727Y-108252412D01*
X155705176Y-108325000D01*
X155685727Y-108397588D01*
X155632588Y-108450727D01*
X155560658Y-108470000D01*
X155089342Y-108470000D01*
X155017412Y-108450727D01*
X154964273Y-108397588D01*
X154944824Y-108325000D01*
X154964273Y-108252412D01*
X155017412Y-108199273D01*
X155089342Y-108180000D01*
X155560658Y-108180000D01*
X155632588Y-108199273D01*
G37*
G36*
X155632588Y-108549273D02*
G01*
X155685727Y-108602412D01*
X155705176Y-108675000D01*
X155685727Y-108747588D01*
X155632588Y-108800727D01*
X155560658Y-108820000D01*
X155089342Y-108820000D01*
X155017412Y-108800727D01*
X154964273Y-108747588D01*
X154944824Y-108675000D01*
X154964273Y-108602412D01*
X155017412Y-108549273D01*
X155089342Y-108530000D01*
X155560658Y-108530000D01*
X155632588Y-108549273D01*
G37*
G36*
X155632588Y-108899273D02*
G01*
X155685727Y-108952412D01*
X155705176Y-109025000D01*
X155685727Y-109097588D01*
X155632588Y-109150727D01*
X155560658Y-109170000D01*
X155089342Y-109170000D01*
X155017412Y-109150727D01*
X154964273Y-109097588D01*
X154944824Y-109025000D01*
X154964273Y-108952412D01*
X155017412Y-108899273D01*
X155089342Y-108880000D01*
X155560658Y-108880000D01*
X155632588Y-108899273D01*
G37*
G36*
X155632588Y-109249273D02*
G01*
X155685727Y-109302412D01*
X155705176Y-109375000D01*
X155685727Y-109447588D01*
X155632588Y-109500727D01*
X155560658Y-109520000D01*
X155089342Y-109520000D01*
X155017412Y-109500727D01*
X154964273Y-109447588D01*
X154944824Y-109375000D01*
X154964273Y-109302412D01*
X155017412Y-109249273D01*
X155089342Y-109230000D01*
X155560658Y-109230000D01*
X155632588Y-109249273D01*
G37*
G36*
X155632588Y-109599273D02*
G01*
X155685727Y-109652412D01*
X155705176Y-109725000D01*
X155685727Y-109797588D01*
X155632588Y-109850727D01*
X155560658Y-109870000D01*
X155089342Y-109870000D01*
X155017412Y-109850727D01*
X154964273Y-109797588D01*
X154944824Y-109725000D01*
X154964273Y-109652412D01*
X155017412Y-109599273D01*
X155089342Y-109580000D01*
X155560658Y-109580000D01*
X155632588Y-109599273D01*
G37*
G36*
X155632588Y-109949273D02*
G01*
X155685727Y-110002412D01*
X155705176Y-110075000D01*
X155685727Y-110147588D01*
X155632588Y-110200727D01*
X155560658Y-110220000D01*
X155089342Y-110220000D01*
X155017412Y-110200727D01*
X154964273Y-110147588D01*
X154944824Y-110075000D01*
X154964273Y-110002412D01*
X155017412Y-109949273D01*
X155089342Y-109930000D01*
X155560658Y-109930000D01*
X155632588Y-109949273D01*
G37*
G36*
X155632588Y-110299273D02*
G01*
X155685727Y-110352412D01*
X155705176Y-110425000D01*
X155685727Y-110497588D01*
X155632588Y-110550727D01*
X155560658Y-110570000D01*
X155089342Y-110570000D01*
X155017412Y-110550727D01*
X154964273Y-110497588D01*
X154944824Y-110425000D01*
X154964273Y-110352412D01*
X155017412Y-110299273D01*
X155089342Y-110280000D01*
X155560658Y-110280000D01*
X155632588Y-110299273D01*
G37*
G36*
X155632588Y-110649273D02*
G01*
X155685727Y-110702412D01*
X155705176Y-110775000D01*
X155685727Y-110847588D01*
X155632588Y-110900727D01*
X155560658Y-110920000D01*
X155089342Y-110920000D01*
X155017412Y-110900727D01*
X154964273Y-110847588D01*
X154944824Y-110775000D01*
X154964273Y-110702412D01*
X155017412Y-110649273D01*
X155089342Y-110630000D01*
X155560658Y-110630000D01*
X155632588Y-110649273D01*
G37*
G36*
X155632588Y-110999273D02*
G01*
X155685727Y-111052412D01*
X155705176Y-111125000D01*
X155685727Y-111197588D01*
X155632588Y-111250727D01*
X155560658Y-111270000D01*
X155089342Y-111270000D01*
X155017412Y-111250727D01*
X154964273Y-111197588D01*
X154944824Y-111125000D01*
X154964273Y-111052412D01*
X155017412Y-110999273D01*
X155089342Y-110980000D01*
X155560658Y-110980000D01*
X155632588Y-110999273D01*
G37*
G36*
X155632588Y-111349273D02*
G01*
X155685727Y-111402412D01*
X155705176Y-111475000D01*
X155685727Y-111547588D01*
X155632588Y-111600727D01*
X155560658Y-111620000D01*
X155089342Y-111620000D01*
X155017412Y-111600727D01*
X154964273Y-111547588D01*
X154944824Y-111475000D01*
X154964273Y-111402412D01*
X155017412Y-111349273D01*
X155089342Y-111330000D01*
X155560658Y-111330000D01*
X155632588Y-111349273D01*
G37*
G36*
X155632588Y-111699273D02*
G01*
X155685727Y-111752412D01*
X155705176Y-111825000D01*
X155685727Y-111897588D01*
X155632588Y-111950727D01*
X155560658Y-111970000D01*
X155089342Y-111970000D01*
X155017412Y-111950727D01*
X154964273Y-111897588D01*
X154944824Y-111825000D01*
X154964273Y-111752412D01*
X155017412Y-111699273D01*
X155089342Y-111680000D01*
X155560658Y-111680000D01*
X155632588Y-111699273D01*
G37*
G36*
X155632588Y-112049273D02*
G01*
X155685727Y-112102412D01*
X155705176Y-112175000D01*
X155685727Y-112247588D01*
X155632588Y-112300727D01*
X155560658Y-112320000D01*
X155089342Y-112320000D01*
X155017412Y-112300727D01*
X154964273Y-112247588D01*
X154944824Y-112175000D01*
X154964273Y-112102412D01*
X155017412Y-112049273D01*
X155089342Y-112030000D01*
X155560658Y-112030000D01*
X155632588Y-112049273D01*
G37*
G36*
X155632588Y-112399273D02*
G01*
X155685727Y-112452412D01*
X155705176Y-112525000D01*
X155685727Y-112597588D01*
X155632588Y-112650727D01*
X155560658Y-112670000D01*
X155089342Y-112670000D01*
X155017412Y-112650727D01*
X154964273Y-112597588D01*
X154944824Y-112525000D01*
X154964273Y-112452412D01*
X155017412Y-112399273D01*
X155089342Y-112380000D01*
X155560658Y-112380000D01*
X155632588Y-112399273D01*
G37*
G36*
X155632588Y-112749273D02*
G01*
X155685727Y-112802412D01*
X155705176Y-112875000D01*
X155685727Y-112947588D01*
X155632588Y-113000727D01*
X155560658Y-113020000D01*
X155089342Y-113020000D01*
X155017412Y-113000727D01*
X154964273Y-112947588D01*
X154944824Y-112875000D01*
X154964273Y-112802412D01*
X155017412Y-112749273D01*
X155089342Y-112730000D01*
X155560658Y-112730000D01*
X155632588Y-112749273D01*
G37*
G36*
X155632588Y-113099273D02*
G01*
X155685727Y-113152412D01*
X155705176Y-113225000D01*
X155685727Y-113297588D01*
X155632588Y-113350727D01*
X155560658Y-113370000D01*
X155089342Y-113370000D01*
X155017412Y-113350727D01*
X154964273Y-113297588D01*
X154944824Y-113225000D01*
X154964273Y-113152412D01*
X155017412Y-113099273D01*
X155089342Y-113080000D01*
X155560658Y-113080000D01*
X155632588Y-113099273D01*
G37*
G36*
X155632588Y-113449273D02*
G01*
X155685727Y-113502412D01*
X155705176Y-113575000D01*
X155685727Y-113647588D01*
X155632588Y-113700727D01*
X155560658Y-113720000D01*
X155089342Y-113720000D01*
X155017412Y-113700727D01*
X154964273Y-113647588D01*
X154944824Y-113575000D01*
X154964273Y-113502412D01*
X155017412Y-113449273D01*
X155089342Y-113430000D01*
X155560658Y-113430000D01*
X155632588Y-113449273D01*
G37*
G36*
X155632588Y-113799273D02*
G01*
X155685727Y-113852412D01*
X155705176Y-113925000D01*
X155685727Y-113997588D01*
X155632588Y-114050727D01*
X155560658Y-114070000D01*
X155089342Y-114070000D01*
X155017412Y-114050727D01*
X154964273Y-113997588D01*
X154944824Y-113925000D01*
X154964273Y-113852412D01*
X155017412Y-113799273D01*
X155089342Y-113780000D01*
X155560658Y-113780000D01*
X155632588Y-113799273D01*
G37*
G36*
X155632588Y-114149273D02*
G01*
X155685727Y-114202412D01*
X155705176Y-114275000D01*
X155685727Y-114347588D01*
X155632588Y-114400727D01*
X155560658Y-114420000D01*
X155089342Y-114420000D01*
X155017412Y-114400727D01*
X154964273Y-114347588D01*
X154944824Y-114275000D01*
X154964273Y-114202412D01*
X155017412Y-114149273D01*
X155089342Y-114130000D01*
X155560658Y-114130000D01*
X155632588Y-114149273D01*
G37*
G36*
X155632588Y-114499273D02*
G01*
X155685727Y-114552412D01*
X155705176Y-114625000D01*
X155685727Y-114697588D01*
X155632588Y-114750727D01*
X155560658Y-114770000D01*
X155089342Y-114770000D01*
X155017412Y-114750727D01*
X154964273Y-114697588D01*
X154944824Y-114625000D01*
X154964273Y-114552412D01*
X155017412Y-114499273D01*
X155089342Y-114480000D01*
X155560658Y-114480000D01*
X155632588Y-114499273D01*
G37*
G36*
X155632588Y-114849273D02*
G01*
X155685727Y-114902412D01*
X155705176Y-114975000D01*
X155685727Y-115047588D01*
X155632588Y-115100727D01*
X155560658Y-115120000D01*
X155089342Y-115120000D01*
X155017412Y-115100727D01*
X154964273Y-115047588D01*
X154944824Y-114975000D01*
X154964273Y-114902412D01*
X155017412Y-114849273D01*
X155089342Y-114830000D01*
X155560658Y-114830000D01*
X155632588Y-114849273D01*
G37*
G36*
X155632588Y-115199273D02*
G01*
X155685727Y-115252412D01*
X155705176Y-115325000D01*
X155685727Y-115397588D01*
X155632588Y-115450727D01*
X155560658Y-115470000D01*
X155089342Y-115470000D01*
X155017412Y-115450727D01*
X154964273Y-115397588D01*
X154944824Y-115325000D01*
X154964273Y-115252412D01*
X155017412Y-115199273D01*
X155089342Y-115180000D01*
X155560658Y-115180000D01*
X155632588Y-115199273D01*
G37*
G36*
X155632588Y-115549273D02*
G01*
X155685727Y-115602412D01*
X155705176Y-115675000D01*
X155685727Y-115747588D01*
X155632588Y-115800727D01*
X155560658Y-115820000D01*
X155089342Y-115820000D01*
X155017412Y-115800727D01*
X154964273Y-115747588D01*
X154944824Y-115675000D01*
X154964273Y-115602412D01*
X155017412Y-115549273D01*
X155089342Y-115530000D01*
X155560658Y-115530000D01*
X155632588Y-115549273D01*
G37*
G04 #@! TD*
D11*
G04 #@! TO.C,R18*
X153100000Y-102320000D03*
X153100000Y-101680000D03*
G04 #@! TD*
G04 #@! TO.C,C3*
X147100000Y-117920000D03*
X147100000Y-117280000D03*
G04 #@! TD*
D12*
G04 #@! TO.C,R6*
X158650000Y-113455000D03*
X158650000Y-114095000D03*
G04 #@! TD*
D13*
G04 #@! TO.C,R10*
X147380000Y-96800000D03*
X148020000Y-96800000D03*
G04 #@! TD*
D14*
G04 #@! TO.C,C33*
X142300000Y-94350000D03*
X140750000Y-94350000D03*
G04 #@! TD*
D15*
G04 #@! TO.C,R26*
X140920000Y-97400000D03*
X140280000Y-97400000D03*
G04 #@! TD*
D16*
G04 #@! TO.C,J1*
X150100000Y-90150000D03*
X150100000Y-91250000D03*
X150100000Y-92350000D03*
X150100000Y-93450000D03*
X150100000Y-94550000D03*
X150100000Y-95650000D03*
X150100000Y-96750000D03*
X150100000Y-97850000D03*
X150100000Y-89050000D03*
X150100000Y-87700000D03*
D17*
X158200000Y-100200000D03*
X158200000Y-86000000D03*
G04 #@! TD*
D11*
G04 #@! TO.C,C11*
X158200000Y-112620000D03*
X158200000Y-111980000D03*
G04 #@! TD*
G04 #@! TO.C,R7*
X157400000Y-105720000D03*
X157400000Y-105080000D03*
G04 #@! TD*
G04 #@! TO.C,C28*
X146200000Y-103220000D03*
X146200000Y-102580000D03*
G04 #@! TD*
G04 #@! TO.C,R22*
X145438100Y-86803600D03*
X145438100Y-86163600D03*
G04 #@! TD*
D18*
G04 #@! TO.C,U2*
X150400000Y-111300000D03*
G04 #@! TD*
D12*
G04 #@! TO.C,R24*
X144688100Y-86163600D03*
X144688100Y-86803600D03*
G04 #@! TD*
D11*
G04 #@! TO.C,R25*
X139500000Y-96970000D03*
X139500000Y-96330000D03*
G04 #@! TD*
D15*
G04 #@! TO.C,C16*
X158720000Y-109500000D03*
X158080000Y-109500000D03*
G04 #@! TD*
D11*
G04 #@! TO.C,C7*
X145225000Y-117920000D03*
X145225000Y-117280000D03*
G04 #@! TD*
D12*
G04 #@! TO.C,R28*
X153470000Y-117340000D03*
X153470000Y-117980000D03*
G04 #@! TD*
D15*
G04 #@! TO.C,C15*
X157320000Y-110000000D03*
X156680000Y-110000000D03*
G04 #@! TD*
D12*
G04 #@! TO.C,C25*
X148800000Y-104680000D03*
X148800000Y-105320000D03*
G04 #@! TD*
D13*
G04 #@! TO.C,R14*
X147380000Y-88000000D03*
X148020000Y-88000000D03*
G04 #@! TD*
G04 #@! TO.C,C9*
X143780000Y-113950000D03*
X144420000Y-113950000D03*
G04 #@! TD*
G04 #@! TO.C,R5*
X156780000Y-111800000D03*
X157420000Y-111800000D03*
G04 #@! TD*
D19*
G04 #@! TO.C,IC2*
X142512500Y-96525000D03*
X142512500Y-96025000D03*
X142512500Y-95525000D03*
X141087500Y-95525000D03*
X141087500Y-96025000D03*
X141087500Y-96525000D03*
G04 #@! TD*
D20*
G04 #@! TO.C,U4*
X157751100Y-124753600D03*
X157251100Y-124753600D03*
X156751100Y-124753600D03*
X156251100Y-124753600D03*
X155751100Y-124753600D03*
X155251100Y-124753600D03*
X154751100Y-124753600D03*
X154251100Y-124753600D03*
X153751100Y-124753600D03*
X153251100Y-124753600D03*
X152751100Y-124753600D03*
X152251100Y-124753600D03*
X151751100Y-124753600D03*
X151251100Y-124753600D03*
X150751100Y-124753600D03*
X150251100Y-124753600D03*
X149751100Y-124753600D03*
X149251100Y-124753600D03*
X148751100Y-124753600D03*
X148251100Y-124753600D03*
X147751100Y-124753600D03*
X147251100Y-124753600D03*
X146751100Y-124753600D03*
X146251100Y-124753600D03*
X145751100Y-124753600D03*
X145251100Y-124753600D03*
X144751100Y-124753600D03*
X144251100Y-124753600D03*
X143751100Y-124753600D03*
X141251100Y-124753600D03*
X140751100Y-124753600D03*
X140251100Y-124753600D03*
X139751100Y-124753600D03*
X139251100Y-124753600D03*
D21*
X148501100Y-84003600D03*
G04 #@! TD*
D13*
G04 #@! TO.C,C4*
X157530000Y-118400000D03*
X158170000Y-118400000D03*
G04 #@! TD*
D12*
G04 #@! TO.C,C26*
X150600000Y-104680000D03*
X150600000Y-105320000D03*
G04 #@! TD*
D13*
G04 #@! TO.C,R12*
X147380000Y-89500000D03*
X148020000Y-89500000D03*
G04 #@! TD*
G04 #@! TO.C,C13*
X143830000Y-103350000D03*
X144470000Y-103350000D03*
G04 #@! TD*
G04 #@! TO.C,C32*
X139480000Y-95500000D03*
X140120000Y-95500000D03*
G04 #@! TD*
D15*
G04 #@! TO.C,C14*
X157420000Y-110900000D03*
X156780000Y-110900000D03*
G04 #@! TD*
D12*
G04 #@! TO.C,R31*
X139550000Y-102285000D03*
X139550000Y-102925000D03*
G04 #@! TD*
D13*
G04 #@! TO.C,R30*
X140330000Y-102842500D03*
X140970000Y-102842500D03*
G04 #@! TD*
D22*
G04 #@! TO.C,L2*
X144600000Y-93625000D03*
X144600000Y-95275000D03*
G04 #@! TD*
D23*
G04 #@! TO.C,D3*
X138750000Y-86737500D03*
X138750000Y-85162500D03*
G04 #@! TD*
D12*
G04 #@! TO.C,R3*
X146000000Y-117280000D03*
X146000000Y-117920000D03*
G04 #@! TD*
G04 #@! TO.C,R23*
X140250000Y-98310000D03*
X140250000Y-98950000D03*
G04 #@! TD*
G04 #@! TO.C,C2*
X138150000Y-105780000D03*
X138150000Y-106420000D03*
G04 #@! TD*
G04 #@! TO.C,R2*
X141800000Y-101360000D03*
X141800000Y-102000000D03*
G04 #@! TD*
D14*
G04 #@! TO.C,C37*
X143575000Y-97750000D03*
X142025000Y-97750000D03*
G04 #@! TD*
D24*
G04 #@! TO.C,Y1*
X144500000Y-102200000D03*
X144500000Y-99700000D03*
G04 #@! TD*
D25*
G04 #@! TO.C,C46*
X143425000Y-91400000D03*
X144975000Y-91400000D03*
G04 #@! TD*
D13*
G04 #@! TO.C,R13*
X147380000Y-90900000D03*
X148020000Y-90900000D03*
G04 #@! TD*
D12*
G04 #@! TO.C,C29*
X149600000Y-102580000D03*
X149600000Y-103220000D03*
G04 #@! TD*
D11*
G04 #@! TO.C,C21*
X146100000Y-100220000D03*
X146100000Y-99580000D03*
G04 #@! TD*
G04 #@! TO.C,R1*
X142350000Y-103470000D03*
X142350000Y-102830000D03*
G04 #@! TD*
D14*
G04 #@! TO.C,C34*
X142300000Y-92875000D03*
X140750000Y-92875000D03*
G04 #@! TD*
D12*
G04 #@! TO.C,C23*
X146400000Y-104430000D03*
X146400000Y-105070000D03*
G04 #@! TD*
D26*
G04 #@! TO.C,L1*
X140138100Y-91233600D03*
X140138100Y-88433600D03*
G04 #@! TD*
D11*
G04 #@! TO.C,C50*
X138050000Y-104720000D03*
X138050000Y-104080000D03*
G04 #@! TD*
D27*
G04 #@! TO.C,IC1*
X138550000Y-115940000D03*
X138550000Y-117210000D03*
X138550000Y-118480000D03*
X138550000Y-119750000D03*
X143875000Y-119750000D03*
X143875000Y-118480000D03*
X143875000Y-117210000D03*
X143875000Y-115940000D03*
D28*
X141212500Y-117845000D03*
G04 #@! TD*
D15*
G04 #@! TO.C,C5*
X157060000Y-116520000D03*
X156420000Y-116520000D03*
G04 #@! TD*
G04 #@! TO.C,C10*
X157420000Y-113700000D03*
X156780000Y-113700000D03*
G04 #@! TD*
G04 #@! TO.C,C17*
X157320000Y-108900000D03*
X156680000Y-108900000D03*
G04 #@! TD*
D29*
G04 #@! TO.C,Y2*
X147400000Y-101950000D03*
X147400000Y-103350000D03*
X148500000Y-103350000D03*
X148500000Y-101950000D03*
G04 #@! TD*
D30*
G04 #@! TO.C,IC4*
X143125600Y-87733600D03*
X143125600Y-88233600D03*
X143125600Y-88733600D03*
X144550600Y-88733600D03*
X144550600Y-88233600D03*
X144550600Y-87733600D03*
G04 #@! TD*
D15*
G04 #@! TO.C,C19*
X157320000Y-107900000D03*
X156680000Y-107900000D03*
G04 #@! TD*
D25*
G04 #@! TO.C,C49*
X141725000Y-86450000D03*
X143275000Y-86450000D03*
G04 #@! TD*
D15*
G04 #@! TO.C,C12*
X157420000Y-112600000D03*
X156780000Y-112600000D03*
G04 #@! TD*
D12*
G04 #@! TO.C,C27*
X152900000Y-103980000D03*
X152900000Y-104620000D03*
G04 #@! TD*
D11*
G04 #@! TO.C,R27*
X149500000Y-105290000D03*
X149500000Y-104650000D03*
G04 #@! TD*
D15*
G04 #@! TO.C,C22*
X157320000Y-106500000D03*
X156680000Y-106500000D03*
G04 #@! TD*
D31*
G04 #@! TO.C,Q2*
X139300000Y-105892500D03*
X139950000Y-105892500D03*
X140600000Y-105892500D03*
X140600000Y-103992500D03*
X139950000Y-103992500D03*
X139300000Y-103992500D03*
G04 #@! TD*
D13*
G04 #@! TO.C,R9*
X140030000Y-84850000D03*
X140670000Y-84850000D03*
G04 #@! TD*
D15*
G04 #@! TO.C,C18*
X158720000Y-108300000D03*
X158080000Y-108300000D03*
G04 #@! TD*
D13*
G04 #@! TO.C,C38*
X147380000Y-95600000D03*
X148020000Y-95600000D03*
G04 #@! TD*
G04 #@! TO.C,R19*
X147380000Y-91800000D03*
X148020000Y-91800000D03*
G04 #@! TD*
D12*
G04 #@! TO.C,R8*
X158500000Y-110580000D03*
X158500000Y-111220000D03*
G04 #@! TD*
D13*
G04 #@! TO.C,R11*
X147380000Y-97900000D03*
X148020000Y-97900000D03*
G04 #@! TD*
D12*
G04 #@! TO.C,R4*
X143800000Y-104080000D03*
X143800000Y-104720000D03*
G04 #@! TD*
G04 #@! TO.C,C24*
X147200000Y-104680000D03*
X147200000Y-105320000D03*
G04 #@! TD*
D15*
G04 #@! TO.C,R29*
X148090000Y-120750000D03*
X147450000Y-120750000D03*
G04 #@! TD*
D32*
G04 #@! TO.C,D2*
X138700000Y-101000000D03*
X138700000Y-98200000D03*
G04 #@! TD*
D33*
G04 #@! TO.C,U5*
X138300000Y-113237500D03*
X139300000Y-113237500D03*
X140300000Y-113237500D03*
X141300000Y-113237500D03*
X142300000Y-113237500D03*
X142300000Y-107962500D03*
X141300000Y-107962500D03*
X140300000Y-107962500D03*
X139300000Y-107962500D03*
X138300000Y-107962500D03*
D34*
X140300000Y-110600000D03*
G04 #@! TD*
D35*
G04 #@! TO.C,D1*
X150500000Y-102230000D03*
X150500000Y-103200000D03*
G04 #@! TD*
D15*
G04 #@! TO.C,C20*
X158740000Y-107100000D03*
X158100000Y-107100000D03*
G04 #@! TD*
D25*
G04 #@! TO.C,C47*
X143400000Y-89925000D03*
X144950000Y-89925000D03*
G04 #@! TD*
D11*
G04 #@! TO.C,C48*
X146000000Y-88800000D03*
X146000000Y-88160000D03*
G04 #@! TD*
D12*
G04 #@! TO.C,C6*
X143100000Y-104080000D03*
X143100000Y-104720000D03*
G04 #@! TD*
M02*
