G04 #@! TF.GenerationSoftware,KiCad,Pcbnew,9.0.0+1*
G04 #@! TF.CreationDate,2025-04-09T20:19:07+02:00*
G04 #@! TF.ProjectId,P4_M.2_B+M-key,50345f4d-2e32-45f4-922b-4d2d6b65792e,rev?*
G04 #@! TF.SameCoordinates,Original*
G04 #@! TF.FileFunction,Copper,L3,Inr*
G04 #@! TF.FilePolarity,Positive*
%FSLAX46Y46*%
G04 Gerber Fmt 4.6, Leading zero omitted, Abs format (unit mm)*
G04 Created by KiCad (PCBNEW 9.0.0+1) date 2025-04-09 20:19:07*
%MOMM*%
%LPD*%
G01*
G04 APERTURE LIST*
G04 #@! TA.AperFunction,CastellatedPad*
%ADD10C,5.500000*%
G04 #@! TD*
G04 #@! TA.AperFunction,ViaPad*
%ADD11C,0.450000*%
G04 #@! TD*
G04 #@! TA.AperFunction,ViaPad*
%ADD12C,0.350000*%
G04 #@! TD*
G04 #@! TA.AperFunction,ViaPad*
%ADD13C,0.600000*%
G04 #@! TD*
G04 #@! TA.AperFunction,Conductor*
%ADD14C,0.200000*%
G04 #@! TD*
G04 #@! TA.AperFunction,Conductor*
%ADD15C,0.450000*%
G04 #@! TD*
G04 #@! TA.AperFunction,Conductor*
%ADD16C,0.800000*%
G04 #@! TD*
G04 #@! TA.AperFunction,Conductor*
%ADD17C,0.150000*%
G04 #@! TD*
G04 #@! TA.AperFunction,Conductor*
%ADD18C,0.152400*%
G04 #@! TD*
G04 APERTURE END LIST*
D10*
G04 #@! TO.N,GND*
G04 #@! TO.C,U4*
X148501100Y-84003600D03*
G04 #@! TD*
D11*
G04 #@! TO.N,/3.3V*
X156700000Y-113200000D03*
X146200000Y-114400000D03*
X154436801Y-115376801D03*
X147200000Y-107100000D03*
D12*
X152050000Y-93000000D03*
D11*
X155600000Y-116500000D03*
X154600000Y-110650003D03*
D12*
X154550000Y-94500000D03*
X154050000Y-95000000D03*
D11*
X142000000Y-121500000D03*
X156650000Y-106050000D03*
X140950000Y-90000000D03*
X156100000Y-112374997D03*
X146200000Y-109800000D03*
X144750000Y-104100000D03*
D12*
X152550000Y-92500000D03*
D11*
X143900000Y-85150000D03*
X139650000Y-90000000D03*
X141400000Y-121500000D03*
X140300000Y-90000000D03*
X156961297Y-107376000D03*
X158750000Y-100900000D03*
X140800000Y-122700000D03*
X158800000Y-112300000D03*
X142700000Y-91650000D03*
X141100000Y-122100000D03*
X140800000Y-121500000D03*
X139000000Y-90000000D03*
G04 #@! TO.N,/EN_ESP*
X145851693Y-104727563D03*
X144600000Y-104700000D03*
G04 #@! TO.N,/1.2V*
X142018378Y-114838366D03*
X146750000Y-93350000D03*
X146750000Y-92750000D03*
X140004896Y-96501548D03*
X143000000Y-93550000D03*
X146750000Y-93950000D03*
X158250000Y-105300000D03*
X150750000Y-107100000D03*
G04 #@! TO.N,/GPIO35*
X144025002Y-107150000D03*
X141100000Y-104500000D03*
X154600000Y-111299000D03*
G04 #@! TO.N,/VFLASH*
X156050000Y-109900000D03*
X145500000Y-118550000D03*
X144400000Y-115525000D03*
G04 #@! TO.N,/VMIPI*
X158750000Y-118400000D03*
X150900000Y-115450000D03*
X154525002Y-108700000D03*
G04 #@! TO.N,/V{slash}SDMMC*
X157800000Y-104000000D03*
D12*
X155550000Y-90500000D03*
X156050000Y-96000000D03*
X154550000Y-90500000D03*
D11*
X158100000Y-107800000D03*
D12*
X154050000Y-96000000D03*
D11*
X157600000Y-101200000D03*
D12*
X155050000Y-91000000D03*
D11*
X157700000Y-85600000D03*
G04 #@! TO.N,Net-(U2A-GPIO0)*
X145500000Y-99000000D03*
X145200000Y-103200000D03*
G04 #@! TO.N,/RTC*
X146600000Y-105450000D03*
X144025002Y-107900000D03*
X143000000Y-122000000D03*
G04 #@! TO.N,GND*
X143688100Y-88983600D03*
X141750000Y-102800000D03*
D12*
X153550000Y-95000000D03*
D11*
X138350000Y-110600000D03*
X158050000Y-119600000D03*
X150501000Y-103900000D03*
X144538100Y-89333600D03*
X148750000Y-122900000D03*
D12*
X154050000Y-97000000D03*
D11*
X138150000Y-105300000D03*
X151950000Y-108150000D03*
X156800000Y-115900000D03*
X146200000Y-102000000D03*
D12*
X152050000Y-93500000D03*
D11*
X158900000Y-84600000D03*
X158800000Y-103200000D03*
X139400000Y-92800000D03*
D12*
X153050000Y-92500000D03*
D11*
X157950000Y-113250000D03*
X149300000Y-109850000D03*
X144650000Y-117250000D03*
X153100000Y-103300000D03*
X145750000Y-122900000D03*
D12*
X154550000Y-93000000D03*
D11*
X149500000Y-101700000D03*
X138175000Y-86150000D03*
X154300000Y-118600000D03*
X138500000Y-93700000D03*
X157902898Y-106101999D03*
X151850000Y-87050000D03*
X158700000Y-108900000D03*
X141800000Y-96300000D03*
X142838100Y-86033600D03*
X147200000Y-109850000D03*
X146250000Y-84550000D03*
D12*
X154050000Y-90500000D03*
D11*
X157546009Y-107510590D03*
X144650000Y-97300000D03*
X153250000Y-111000000D03*
D12*
X155050000Y-96000000D03*
X154550000Y-91000000D03*
D11*
X157750000Y-122900000D03*
X138350000Y-109900000D03*
X152950000Y-109100000D03*
X143825000Y-87275000D03*
D13*
X141178750Y-117878750D03*
D11*
X141150000Y-119600000D03*
X150700000Y-84550000D03*
X153250000Y-111900000D03*
X149350000Y-114200000D03*
X149600000Y-103800000D03*
X141000000Y-99500000D03*
X147100000Y-118450000D03*
X145588100Y-90733600D03*
X157900000Y-108900000D03*
X150250000Y-122900000D03*
X150050000Y-110250000D03*
X141000000Y-98000000D03*
X142838100Y-86833600D03*
D12*
X155050000Y-90500000D03*
D11*
X154750000Y-122900000D03*
X147400000Y-114350000D03*
X139400000Y-93700000D03*
X138000000Y-97200000D03*
X138350000Y-111300000D03*
X138500000Y-92800000D03*
D12*
X156050000Y-91000000D03*
D11*
X145950000Y-103900000D03*
X156250000Y-122900000D03*
X146920000Y-120750000D03*
X143000000Y-108500000D03*
X148200000Y-109850000D03*
X148500000Y-86300000D03*
X158000000Y-103200000D03*
X147250000Y-122900000D03*
X150900000Y-111100000D03*
X153250000Y-122900000D03*
X158700000Y-107700000D03*
X143000000Y-107900000D03*
D12*
X154550000Y-94000000D03*
D11*
X151750000Y-122900000D03*
X157900000Y-111300000D03*
G04 #@! TO.N,Net-(IC2-SW)*
X143500000Y-94900000D03*
X138850000Y-95450000D03*
G04 #@! TO.N,/USB5V*
X140850000Y-86350000D03*
X143300000Y-96500000D03*
X139150000Y-122450000D03*
X138050000Y-103350000D03*
X140350000Y-85850000D03*
D13*
X138150000Y-121350000D03*
D11*
X139500000Y-121850000D03*
X140350000Y-86900000D03*
X138400000Y-100700000D03*
X145488100Y-87583600D03*
X143850000Y-96500000D03*
X141300000Y-106250000D03*
X138400000Y-101300000D03*
X140900000Y-87200000D03*
X139000000Y-101300000D03*
X139000000Y-100700000D03*
X138800000Y-121950000D03*
G04 #@! TO.N,Net-(IC4-SW)*
X142200000Y-88000000D03*
X146350000Y-89250000D03*
G04 #@! TO.N,/USBJTAG_D+*
X139425000Y-120473800D03*
X140900000Y-115151200D03*
X139525000Y-115151200D03*
G04 #@! TO.N,/USBJTAG_D-*
X139425000Y-121076200D03*
X140900000Y-114548800D03*
X139525000Y-114548800D03*
G04 #@! TO.N,/FLASH_CS*
X145500000Y-116200000D03*
X141750000Y-115375000D03*
X139177673Y-115676131D03*
G04 #@! TO.N,/FLASH_Q*
X139137498Y-117225000D03*
X146199140Y-115556944D03*
G04 #@! TO.N,/FLASH_HOLD*
X147050000Y-119150000D03*
X147647895Y-115541679D03*
G04 #@! TO.N,/FLASH_WP*
X139137498Y-118475000D03*
X146075000Y-118800000D03*
G04 #@! TO.N,/EN_DCDC*
X155300000Y-105850000D03*
X140425220Y-96073376D03*
G04 #@! TO.N,/DTR*
X140000000Y-101300000D03*
X141525000Y-114496928D03*
G04 #@! TO.N,/RTS*
X141100000Y-105200000D03*
X142700000Y-109675002D03*
X139200000Y-105200000D03*
G04 #@! TO.N,/GPIO37*
X144550002Y-106600000D03*
X158075000Y-114150000D03*
X139400000Y-106744998D03*
X154600000Y-110050000D03*
G04 #@! TO.N,/GPIO38*
X144800000Y-105950000D03*
X154600000Y-109300000D03*
X156700000Y-105100000D03*
G04 #@! TO.N,/SD_DATA1*
X155000000Y-104000000D03*
X156000000Y-103600000D03*
G04 #@! TO.N,/SD_DATA2*
X154350000Y-100450000D03*
X156550000Y-99800000D03*
D12*
G04 #@! TO.N,/SD_DATA3*
X156050000Y-96500000D03*
D11*
X153800000Y-98900000D03*
G04 #@! TO.N,/SD_DATA4*
X152150000Y-99000000D03*
D12*
X155550000Y-96500000D03*
D11*
G04 #@! TO.N,/SD_DATA5*
X151250000Y-98800000D03*
D12*
X155050000Y-96500000D03*
D11*
G04 #@! TO.N,/SD_DATA6*
X150800000Y-99350000D03*
D12*
X154550000Y-96500000D03*
G04 #@! TO.N,/SD_DATA7*
X154050000Y-96500000D03*
D11*
X150300000Y-99800000D03*
G04 #@! TO.N,Net-(U3A-CLK)*
X153700000Y-101200000D03*
D12*
X154050000Y-91500000D03*
D11*
G04 #@! TO.N,/SD_CMD*
X153000000Y-99900000D03*
D12*
X154550000Y-91500000D03*
D11*
X156000000Y-86550000D03*
G04 #@! TO.N,/REST_N*
X156400000Y-102200000D03*
D12*
X155050000Y-92300000D03*
D11*
X150059066Y-105008153D03*
D12*
G04 #@! TO.N,Net-(U3A-DS)*
X154550000Y-93500000D03*
D11*
X156100000Y-98200000D03*
G04 #@! TO.N,/GPIO22*
X144837724Y-114935367D03*
G04 #@! TO.N,/I2S_LRCK*
X158700000Y-116200000D03*
G04 #@! TO.N,/GPIO19*
X146274998Y-113600000D03*
G04 #@! TO.N,/GPIO20*
X144400000Y-114525000D03*
G04 #@! TO.N,/GPIO2*
X146200000Y-107200000D03*
G04 #@! TO.N,/GPIO12*
X146200000Y-111000003D03*
G04 #@! TO.N,/GPIO9*
X144100000Y-111700000D03*
G04 #@! TO.N,/GPIO4*
X146200000Y-107900000D03*
G04 #@! TO.N,/GPIO16*
X146200000Y-112550000D03*
G04 #@! TO.N,/GPIO8*
X146200000Y-109200003D03*
G04 #@! TO.N,/I2S_DATA*
X158600000Y-117100000D03*
G04 #@! TO.N,/GPIO3*
X142500000Y-110600000D03*
G04 #@! TO.N,/GPIO6*
X146200000Y-108600000D03*
G04 #@! TO.N,/GPIO7*
X143700000Y-110800000D03*
G04 #@! TO.N,/GPIO14*
X144700000Y-111800000D03*
G04 #@! TO.N,/GPIO13*
X144775397Y-111098866D03*
G04 #@! TO.N,/GPIO5*
X143150000Y-111400000D03*
G04 #@! TO.N,/GPIO15*
X144600000Y-112400000D03*
G04 #@! TO.N,/GPIO18*
X144757773Y-113420918D03*
G04 #@! TO.N,/I2S_MCLK*
X158250000Y-115300000D03*
G04 #@! TO.N,/GPIO17*
X144377165Y-112957088D03*
G04 #@! TO.N,/GPIO10*
X146200000Y-110400000D03*
G04 #@! TO.N,/I2S_SCLK*
X157700000Y-115700000D03*
G04 #@! TO.N,Net-(D2-A)*
X141700000Y-104300000D03*
X138700000Y-99600000D03*
X141300000Y-100800000D03*
G04 #@! TO.N,Net-(J2-CC1)*
X142375000Y-104400000D03*
G04 #@! TO.N,Net-(J2-CC2)*
X142350000Y-101350000D03*
G04 #@! TO.N,Net-(Q2A-B1)*
X140600000Y-102100000D03*
X138800000Y-102800000D03*
G04 #@! TO.N,/SD2_DATA1*
X156100000Y-112975000D03*
G04 #@! TO.N,/SD2_DATA2*
X154700000Y-113200000D03*
G04 #@! TO.N,/SD2_CLK*
X154650000Y-112200000D03*
G04 #@! TO.N,/SD2_CMD*
X156038382Y-111772027D03*
G04 #@! TO.N,/SD2_DATA0*
X156100000Y-114150000D03*
G04 #@! TO.N,/SD2_DATA3*
X154700000Y-113900000D03*
G04 #@! TO.N,Net-(U2A-FB_DCDC)*
X155850000Y-106400000D03*
X145550000Y-98350000D03*
G04 #@! TD*
D14*
G04 #@! TO.N,/3.3V*
X139000000Y-90000000D02*
X141650000Y-90000000D01*
D15*
X139000000Y-90000000D02*
X141850000Y-90000000D01*
D16*
G04 #@! TO.N,/1.2V*
X148850000Y-107100000D02*
X147850000Y-106100000D01*
D14*
X157350000Y-106200000D02*
X157350000Y-105750000D01*
D16*
X147850000Y-106100000D02*
X147850000Y-100400000D01*
D14*
X143400000Y-106350000D02*
X143400000Y-102650000D01*
D16*
X147850000Y-100400000D02*
X146750000Y-99300000D01*
X154050000Y-107100000D02*
X150750000Y-107100000D01*
X146750000Y-93950000D02*
X146750000Y-93350000D01*
D14*
X156450000Y-107100000D02*
X157350000Y-106200000D01*
X141474000Y-111775000D02*
X141474000Y-108276000D01*
D16*
X146750000Y-99300000D02*
X146750000Y-93950000D01*
D14*
X157800000Y-105300000D02*
X158250000Y-105300000D01*
X157350000Y-105750000D02*
X157800000Y-105300000D01*
X154050000Y-107100000D02*
X156450000Y-107100000D01*
D16*
X150750000Y-107100000D02*
X148850000Y-107100000D01*
D14*
X142018378Y-114018378D02*
X142018378Y-114838366D01*
X141474000Y-113474000D02*
X141850000Y-113850000D01*
X141474000Y-108276000D02*
X143400000Y-106350000D01*
X141850000Y-113850000D02*
X142018378Y-114018378D01*
X141474000Y-111775000D02*
X141474000Y-113474000D01*
X143400000Y-102650000D02*
X146750000Y-99300000D01*
D16*
X146750000Y-93350000D02*
X146750000Y-92750000D01*
D14*
G04 #@! TO.N,/VFLASH*
X144825000Y-116675000D02*
X145500000Y-116675000D01*
X155400000Y-114250000D02*
X154800000Y-114850000D01*
X145500000Y-116675000D02*
X147550000Y-116675000D01*
X145500000Y-118550000D02*
X145500000Y-116675000D01*
X154800000Y-114850000D02*
X150650000Y-114850000D01*
X150650000Y-114850000D02*
X149375000Y-114850000D01*
X149375000Y-114850000D02*
X147775000Y-116450000D01*
X144487500Y-116337500D02*
X144825000Y-116675000D01*
X156050000Y-109900000D02*
X155400000Y-110550000D01*
X155400000Y-110550000D02*
X155400000Y-114250000D01*
X144487500Y-116337500D02*
X144400000Y-116250000D01*
X147550000Y-116675000D02*
X147775000Y-116450000D01*
X144400000Y-116250000D02*
X144400000Y-115525000D01*
G04 #@! TO.N,/VMIPI*
X155900000Y-118400000D02*
X152950000Y-115450000D01*
X158750000Y-118400000D02*
X155900000Y-118400000D01*
X152950000Y-115450000D02*
X150900000Y-115450000D01*
D17*
G04 #@! TO.N,/V{slash}SDMMC*
X157400000Y-103600000D02*
X157800000Y-104000000D01*
D14*
X157700000Y-86950000D02*
X157700000Y-85600000D01*
D17*
X157400000Y-102400000D02*
X157400000Y-103600000D01*
D14*
X154550000Y-95500000D02*
X156000000Y-95500000D01*
X156050000Y-96000000D02*
X156050000Y-95550000D01*
X155550000Y-90500000D02*
X155550000Y-91100000D01*
X155550000Y-94150000D02*
X156700000Y-95300000D01*
D17*
X157650000Y-98750000D02*
X157650000Y-101150000D01*
D14*
X154550000Y-90500000D02*
X154550000Y-90252513D01*
X154550000Y-90252513D02*
X154728513Y-90074000D01*
D17*
X156700000Y-95500000D02*
X156700000Y-97800000D01*
D14*
X155550000Y-90397545D02*
X155550000Y-90500000D01*
X155226455Y-89423545D02*
X157700000Y-86950000D01*
D17*
X156700000Y-97800000D02*
X157650000Y-98750000D01*
D14*
X156050000Y-95550000D02*
X156000000Y-95500000D01*
X155226455Y-90074000D02*
X155550000Y-90397545D01*
X156000000Y-95500000D02*
X156700000Y-95500000D01*
X155450000Y-91000000D02*
X155550000Y-91100000D01*
X155226455Y-90074000D02*
X155226455Y-89423545D01*
X154728513Y-90074000D02*
X155226455Y-90074000D01*
X156700000Y-95300000D02*
X156700000Y-95500000D01*
X155050000Y-91000000D02*
X155450000Y-91000000D01*
X155550000Y-91100000D02*
X155550000Y-94150000D01*
X154050000Y-96000000D02*
X154550000Y-95500000D01*
D17*
X157650000Y-101150000D02*
X157600000Y-101200000D01*
X157600000Y-101200000D02*
X157600000Y-102200000D01*
X157600000Y-102200000D02*
X157400000Y-102400000D01*
G04 #@! TO.N,/RTC*
X144150000Y-107900000D02*
X144025002Y-107900000D01*
X146600000Y-105450000D02*
X144150000Y-107900000D01*
G04 #@! TO.N,/USB5V*
X141300000Y-106250000D02*
X140500000Y-106250000D01*
D18*
X145135900Y-87935800D02*
X142885800Y-87935800D01*
D17*
X140500000Y-106250000D02*
X140450000Y-106200000D01*
D18*
X142885800Y-87935800D02*
X142100000Y-87150000D01*
X145488100Y-87583600D02*
X145135900Y-87935800D01*
D14*
G04 #@! TO.N,Net-(D2-A)*
X141700000Y-104300000D02*
X141200000Y-103800000D01*
X141200000Y-100900000D02*
X141300000Y-100800000D01*
X141200000Y-103800000D02*
X141200000Y-100900000D01*
G04 #@! TD*
G04 #@! TA.AperFunction,Conductor*
G04 #@! TO.N,/USB5V*
G36*
X142343039Y-84223785D02*
G01*
X142388794Y-84276589D01*
X142400000Y-84328100D01*
X142400000Y-87098638D01*
X142380315Y-87165677D01*
X142363681Y-87186319D01*
X140900000Y-88649999D01*
X140900000Y-89500500D01*
X140880315Y-89567539D01*
X140827511Y-89613294D01*
X140776000Y-89624500D01*
X138950565Y-89624500D01*
X138855062Y-89650090D01*
X138855060Y-89650091D01*
X138855059Y-89650091D01*
X138769436Y-89699526D01*
X138699526Y-89769436D01*
X138650091Y-89855059D01*
X138650091Y-89855060D01*
X138650090Y-89855062D01*
X138624500Y-89950565D01*
X138624500Y-90049435D01*
X138650090Y-90144938D01*
X138699525Y-90230562D01*
X138769438Y-90300475D01*
X138855062Y-90349910D01*
X138950565Y-90375500D01*
X138950567Y-90375500D01*
X140776000Y-90375500D01*
X140843039Y-90395185D01*
X140888794Y-90447989D01*
X140900000Y-90499500D01*
X140900000Y-95717757D01*
X140880315Y-95784796D01*
X140827511Y-95830551D01*
X140758353Y-95840495D01*
X140694797Y-95811470D01*
X140688319Y-95805438D01*
X140655783Y-95772902D01*
X140655782Y-95772901D01*
X140570158Y-95723466D01*
X140474655Y-95697876D01*
X140375785Y-95697876D01*
X140280282Y-95723466D01*
X140280280Y-95723467D01*
X140280279Y-95723467D01*
X140194656Y-95772902D01*
X140124746Y-95842812D01*
X140075311Y-95928435D01*
X140075311Y-95928436D01*
X140075310Y-95928438D01*
X140049720Y-96023941D01*
X140049720Y-96023943D01*
X140047617Y-96031792D01*
X140045702Y-96031279D01*
X140021776Y-96085358D01*
X139963450Y-96123826D01*
X139959202Y-96125046D01*
X139955462Y-96126048D01*
X139955461Y-96126048D01*
X139916795Y-96136408D01*
X139859956Y-96151638D01*
X139859955Y-96151639D01*
X139774332Y-96201074D01*
X139704422Y-96270984D01*
X139654987Y-96356607D01*
X139654987Y-96356608D01*
X139654986Y-96356610D01*
X139629396Y-96452113D01*
X139629396Y-96550983D01*
X139654986Y-96646486D01*
X139704421Y-96732110D01*
X139774334Y-96802023D01*
X139859958Y-96851458D01*
X139955461Y-96877048D01*
X139955463Y-96877048D01*
X140054328Y-96877048D01*
X140054331Y-96877048D01*
X140149834Y-96851458D01*
X140235458Y-96802023D01*
X140305371Y-96732110D01*
X140354806Y-96646486D01*
X140380396Y-96550983D01*
X140380396Y-96550980D01*
X140382499Y-96543132D01*
X140384416Y-96543645D01*
X140408323Y-96489584D01*
X140466641Y-96451104D01*
X140470915Y-96449877D01*
X140474651Y-96448876D01*
X140474655Y-96448876D01*
X140570158Y-96423286D01*
X140655782Y-96373851D01*
X140725695Y-96303938D01*
X140725697Y-96303933D01*
X140727134Y-96302497D01*
X140788457Y-96269012D01*
X140858149Y-96273996D01*
X140898612Y-96300000D01*
X140900000Y-96300000D01*
X141316106Y-96300000D01*
X141383145Y-96319685D01*
X141428900Y-96372489D01*
X141435878Y-96391900D01*
X141444480Y-96424000D01*
X141450090Y-96444937D01*
X141450091Y-96444940D01*
X141453650Y-96451104D01*
X141499525Y-96530562D01*
X141569438Y-96600475D01*
X141655062Y-96649910D01*
X141750565Y-96675500D01*
X141750567Y-96675500D01*
X141849432Y-96675500D01*
X141849435Y-96675500D01*
X141944938Y-96649910D01*
X142030562Y-96600475D01*
X142100475Y-96530562D01*
X142149910Y-96444938D01*
X142164120Y-96391905D01*
X142200484Y-96332246D01*
X142263331Y-96301717D01*
X142283894Y-96300000D01*
X143976000Y-96300000D01*
X144043039Y-96319685D01*
X144088794Y-96372489D01*
X144100000Y-96424000D01*
X144100000Y-97026000D01*
X144080315Y-97093039D01*
X144027511Y-97138794D01*
X143976000Y-97150000D01*
X140900000Y-97150000D01*
X140900000Y-97552553D01*
X140880315Y-97619592D01*
X140838001Y-97659939D01*
X140769437Y-97699525D01*
X140699526Y-97769436D01*
X140650091Y-97855059D01*
X140650091Y-97855060D01*
X140650090Y-97855062D01*
X140624500Y-97950565D01*
X140624500Y-98049435D01*
X140650090Y-98144938D01*
X140699525Y-98230562D01*
X140769438Y-98300475D01*
X140838000Y-98340059D01*
X140886216Y-98390626D01*
X140900000Y-98447446D01*
X140900000Y-99052553D01*
X140880315Y-99119592D01*
X140838001Y-99159939D01*
X140769437Y-99199525D01*
X140699526Y-99269436D01*
X140650091Y-99355059D01*
X140650091Y-99355060D01*
X140650090Y-99355062D01*
X140624500Y-99450565D01*
X140624500Y-99549435D01*
X140650090Y-99644938D01*
X140650091Y-99644939D01*
X140650091Y-99644940D01*
X140652686Y-99649435D01*
X140699525Y-99730562D01*
X140769438Y-99800475D01*
X140838000Y-99840059D01*
X140886216Y-99890626D01*
X140900000Y-99947446D01*
X140900000Y-101630039D01*
X140880315Y-101697078D01*
X140827511Y-101742833D01*
X140758353Y-101752777D01*
X140743911Y-101749814D01*
X140649435Y-101724500D01*
X140550565Y-101724500D01*
X140455062Y-101750090D01*
X140455060Y-101750091D01*
X140455059Y-101750091D01*
X140391277Y-101786915D01*
X140391268Y-101786921D01*
X140369438Y-101799525D01*
X140357267Y-101811695D01*
X140357264Y-101811698D01*
X140299525Y-101869438D01*
X140250091Y-101955059D01*
X140250091Y-101955060D01*
X140250090Y-101955062D01*
X140224500Y-102050565D01*
X140224500Y-102149435D01*
X140250090Y-102244938D01*
X140299525Y-102330562D01*
X140369438Y-102400475D01*
X140455062Y-102449910D01*
X140550565Y-102475500D01*
X140550567Y-102475500D01*
X140649431Y-102475500D01*
X140649435Y-102475500D01*
X140743911Y-102450185D01*
X140813755Y-102451848D01*
X140871618Y-102491010D01*
X140899123Y-102555238D01*
X140900000Y-102569960D01*
X140900000Y-104117601D01*
X140880315Y-104184640D01*
X140863681Y-104205282D01*
X140799526Y-104269436D01*
X140750091Y-104355059D01*
X140750091Y-104355060D01*
X140750090Y-104355062D01*
X140724500Y-104450565D01*
X140724500Y-104549435D01*
X140750090Y-104644938D01*
X140750091Y-104644939D01*
X140750091Y-104644940D01*
X140799526Y-104730563D01*
X140831282Y-104762320D01*
X140864767Y-104823644D01*
X140859781Y-104893335D01*
X140831282Y-104937680D01*
X140799526Y-104969436D01*
X140750091Y-105055059D01*
X140750091Y-105055060D01*
X140750090Y-105055062D01*
X140724500Y-105150565D01*
X140724500Y-105249435D01*
X140750090Y-105344938D01*
X140750091Y-105344939D01*
X140750091Y-105344940D01*
X140799526Y-105430563D01*
X140863681Y-105494718D01*
X140897166Y-105556041D01*
X140900000Y-105582399D01*
X140900000Y-114064905D01*
X140880315Y-114131944D01*
X140827511Y-114177699D01*
X140808095Y-114184679D01*
X140755066Y-114198888D01*
X140755059Y-114198891D01*
X140669436Y-114248326D01*
X140599526Y-114318236D01*
X140550091Y-114403859D01*
X140550091Y-114403860D01*
X140550090Y-114403862D01*
X140524500Y-114499365D01*
X140524500Y-114598235D01*
X140550090Y-114693738D01*
X140599525Y-114779362D01*
X140599526Y-114779363D01*
X140603589Y-114786400D01*
X140600986Y-114787902D01*
X140621002Y-114839718D01*
X140606944Y-114908159D01*
X140603485Y-114913540D01*
X140603589Y-114913600D01*
X140599526Y-114920636D01*
X140599525Y-114920638D01*
X140579228Y-114955793D01*
X140550091Y-115006259D01*
X140550091Y-115006260D01*
X140550090Y-115006262D01*
X140524500Y-115101765D01*
X140524500Y-115200635D01*
X140550090Y-115296138D01*
X140599525Y-115381762D01*
X140669438Y-115451675D01*
X140755062Y-115501110D01*
X140808094Y-115515320D01*
X140867754Y-115551684D01*
X140898283Y-115614531D01*
X140900000Y-115635094D01*
X140900000Y-117469036D01*
X140880315Y-117536075D01*
X140863681Y-117556717D01*
X140818263Y-117602134D01*
X140818261Y-117602137D01*
X140758951Y-117704864D01*
X140728250Y-117819441D01*
X140728250Y-117938059D01*
X140758951Y-118052636D01*
X140818261Y-118155363D01*
X140818263Y-118155365D01*
X140863681Y-118200783D01*
X140897166Y-118262106D01*
X140900000Y-118288464D01*
X140900000Y-119267601D01*
X140880315Y-119334640D01*
X140863681Y-119355282D01*
X140849526Y-119369436D01*
X140800091Y-119455059D01*
X140800091Y-119455060D01*
X140800090Y-119455062D01*
X140774500Y-119550565D01*
X140774500Y-119649435D01*
X140800090Y-119744938D01*
X140800091Y-119744939D01*
X140800091Y-119744940D01*
X140849526Y-119830563D01*
X140863681Y-119844718D01*
X140897166Y-119906041D01*
X140900000Y-119932399D01*
X140900000Y-121000500D01*
X140880315Y-121067539D01*
X140827511Y-121113294D01*
X140776000Y-121124500D01*
X140750565Y-121124500D01*
X140655062Y-121150090D01*
X140655060Y-121150091D01*
X140655059Y-121150091D01*
X140569436Y-121199526D01*
X140499526Y-121269436D01*
X140450091Y-121355059D01*
X140450091Y-121355060D01*
X140450090Y-121355062D01*
X140424500Y-121450565D01*
X140424500Y-121549435D01*
X140450090Y-121644938D01*
X140450091Y-121644939D01*
X140450091Y-121644940D01*
X140463337Y-121667882D01*
X140499525Y-121730562D01*
X140569438Y-121800475D01*
X140655062Y-121849910D01*
X140655067Y-121849911D01*
X140662569Y-121853019D01*
X140661537Y-121855510D01*
X140709877Y-121884958D01*
X140740422Y-121947797D01*
X140737919Y-122000483D01*
X140724500Y-122050563D01*
X140724500Y-122050565D01*
X140724500Y-122149435D01*
X140731834Y-122176807D01*
X140737919Y-122199515D01*
X140736256Y-122269365D01*
X140697093Y-122327227D01*
X140661901Y-122345370D01*
X140662569Y-122346981D01*
X140655059Y-122350091D01*
X140569436Y-122399526D01*
X140499526Y-122469436D01*
X140450091Y-122555059D01*
X140450091Y-122555060D01*
X140450090Y-122555062D01*
X140424500Y-122650565D01*
X140424500Y-122749435D01*
X140450090Y-122844938D01*
X140499525Y-122930562D01*
X140569438Y-123000475D01*
X140575357Y-123003892D01*
X140623573Y-123054457D01*
X140636797Y-123123064D01*
X140610830Y-123187929D01*
X140601040Y-123198960D01*
X140450000Y-123350000D01*
X140450000Y-125679100D01*
X140430315Y-125746139D01*
X140377511Y-125791894D01*
X140326000Y-125803100D01*
X138875600Y-125803100D01*
X138808561Y-125783415D01*
X138762806Y-125730611D01*
X138751600Y-125679100D01*
X138751600Y-122434604D01*
X138724681Y-122299277D01*
X138724680Y-122299276D01*
X138724680Y-122299272D01*
X138702174Y-122244938D01*
X138671878Y-122171795D01*
X138671871Y-122171782D01*
X138595214Y-122057058D01*
X138595211Y-122057054D01*
X138497645Y-121959488D01*
X138497641Y-121959485D01*
X138382917Y-121882828D01*
X138382904Y-121882821D01*
X138255432Y-121830021D01*
X138255422Y-121830018D01*
X138120095Y-121803100D01*
X138120093Y-121803100D01*
X138090982Y-121803100D01*
X137825600Y-121803100D01*
X137758561Y-121783415D01*
X137712806Y-121730611D01*
X137701600Y-121679100D01*
X137701600Y-120424365D01*
X139049500Y-120424365D01*
X139049500Y-120523235D01*
X139075090Y-120618738D01*
X139124525Y-120704362D01*
X139124526Y-120704363D01*
X139128589Y-120711400D01*
X139125986Y-120712902D01*
X139146002Y-120764718D01*
X139131944Y-120833159D01*
X139128485Y-120838540D01*
X139128589Y-120838600D01*
X139124526Y-120845636D01*
X139124525Y-120845638D01*
X139104228Y-120880793D01*
X139075091Y-120931259D01*
X139075091Y-120931260D01*
X139075090Y-120931262D01*
X139049500Y-121026765D01*
X139049500Y-121125635D01*
X139075090Y-121221138D01*
X139124525Y-121306762D01*
X139194438Y-121376675D01*
X139280062Y-121426110D01*
X139375565Y-121451700D01*
X139375567Y-121451700D01*
X139474432Y-121451700D01*
X139474435Y-121451700D01*
X139569938Y-121426110D01*
X139655562Y-121376675D01*
X139725475Y-121306762D01*
X139774910Y-121221138D01*
X139800500Y-121125635D01*
X139800500Y-121026765D01*
X139774910Y-120931262D01*
X139725475Y-120845638D01*
X139725473Y-120845636D01*
X139721411Y-120838600D01*
X139724018Y-120837094D01*
X139704001Y-120785331D01*
X139718032Y-120716884D01*
X139721516Y-120711461D01*
X139721411Y-120711400D01*
X139725473Y-120704363D01*
X139725475Y-120704362D01*
X139774910Y-120618738D01*
X139800500Y-120523235D01*
X139800500Y-120424365D01*
X139774910Y-120328862D01*
X139725475Y-120243238D01*
X139655562Y-120173325D01*
X139569938Y-120123890D01*
X139474435Y-120098300D01*
X139375565Y-120098300D01*
X139280062Y-120123890D01*
X139280060Y-120123891D01*
X139280059Y-120123891D01*
X139194436Y-120173326D01*
X139124526Y-120243236D01*
X139075091Y-120328859D01*
X139075091Y-120328860D01*
X139075090Y-120328862D01*
X139049500Y-120424365D01*
X137701600Y-120424365D01*
X137701600Y-118425565D01*
X138761998Y-118425565D01*
X138761998Y-118524435D01*
X138787588Y-118619938D01*
X138837023Y-118705562D01*
X138906936Y-118775475D01*
X138992560Y-118824910D01*
X139088063Y-118850500D01*
X139088065Y-118850500D01*
X139186930Y-118850500D01*
X139186933Y-118850500D01*
X139282436Y-118824910D01*
X139368060Y-118775475D01*
X139437973Y-118705562D01*
X139487408Y-118619938D01*
X139512998Y-118524435D01*
X139512998Y-118425565D01*
X139487408Y-118330062D01*
X139437973Y-118244438D01*
X139368060Y-118174525D01*
X139282436Y-118125090D01*
X139186933Y-118099500D01*
X139088063Y-118099500D01*
X138992560Y-118125090D01*
X138992558Y-118125091D01*
X138992557Y-118125091D01*
X138906934Y-118174526D01*
X138837024Y-118244436D01*
X138787589Y-118330059D01*
X138787589Y-118330060D01*
X138787588Y-118330062D01*
X138761998Y-118425565D01*
X137701600Y-118425565D01*
X137701600Y-117175565D01*
X138761998Y-117175565D01*
X138761998Y-117274435D01*
X138787588Y-117369938D01*
X138837023Y-117455562D01*
X138906936Y-117525475D01*
X138992560Y-117574910D01*
X139088063Y-117600500D01*
X139088065Y-117600500D01*
X139186930Y-117600500D01*
X139186933Y-117600500D01*
X139282436Y-117574910D01*
X139368060Y-117525475D01*
X139437973Y-117455562D01*
X139487408Y-117369938D01*
X139512998Y-117274435D01*
X139512998Y-117175565D01*
X139487408Y-117080062D01*
X139437973Y-116994438D01*
X139368060Y-116924525D01*
X139282436Y-116875090D01*
X139186933Y-116849500D01*
X139088063Y-116849500D01*
X138992560Y-116875090D01*
X138992558Y-116875091D01*
X138992557Y-116875091D01*
X138906934Y-116924526D01*
X138837024Y-116994436D01*
X138787589Y-117080059D01*
X138787589Y-117080060D01*
X138787588Y-117080062D01*
X138761998Y-117175565D01*
X137701600Y-117175565D01*
X137701600Y-115626696D01*
X138802173Y-115626696D01*
X138802173Y-115725566D01*
X138827763Y-115821069D01*
X138877198Y-115906693D01*
X138947111Y-115976606D01*
X139032735Y-116026041D01*
X139128238Y-116051631D01*
X139128240Y-116051631D01*
X139227105Y-116051631D01*
X139227108Y-116051631D01*
X139322611Y-116026041D01*
X139408235Y-115976606D01*
X139478148Y-115906693D01*
X139527583Y-115821069D01*
X139553173Y-115725566D01*
X139553173Y-115627545D01*
X139572858Y-115560506D01*
X139625662Y-115514751D01*
X139645076Y-115507771D01*
X139669938Y-115501110D01*
X139755562Y-115451675D01*
X139825475Y-115381762D01*
X139874910Y-115296138D01*
X139900500Y-115200635D01*
X139900500Y-115101765D01*
X139874910Y-115006262D01*
X139825475Y-114920638D01*
X139825473Y-114920636D01*
X139821411Y-114913600D01*
X139824018Y-114912094D01*
X139804001Y-114860331D01*
X139818032Y-114791884D01*
X139821516Y-114786461D01*
X139821411Y-114786400D01*
X139825473Y-114779363D01*
X139825475Y-114779362D01*
X139874910Y-114693738D01*
X139900500Y-114598235D01*
X139900500Y-114499365D01*
X139874910Y-114403862D01*
X139825475Y-114318238D01*
X139755562Y-114248325D01*
X139669938Y-114198890D01*
X139574435Y-114173300D01*
X139475565Y-114173300D01*
X139380062Y-114198890D01*
X139380060Y-114198891D01*
X139380059Y-114198891D01*
X139294436Y-114248326D01*
X139224526Y-114318236D01*
X139175091Y-114403859D01*
X139175091Y-114403860D01*
X139175090Y-114403862D01*
X139149500Y-114499365D01*
X139149500Y-114598235D01*
X139175090Y-114693738D01*
X139224525Y-114779362D01*
X139224526Y-114779363D01*
X139228589Y-114786400D01*
X139225986Y-114787902D01*
X139246002Y-114839718D01*
X139231944Y-114908159D01*
X139228485Y-114913540D01*
X139228589Y-114913600D01*
X139224526Y-114920636D01*
X139224525Y-114920638D01*
X139204228Y-114955793D01*
X139175091Y-115006259D01*
X139175091Y-115006260D01*
X139175090Y-115006262D01*
X139149500Y-115101765D01*
X139149500Y-115101767D01*
X139149500Y-115199785D01*
X139129815Y-115266824D01*
X139077011Y-115312579D01*
X139057596Y-115319559D01*
X139032737Y-115326220D01*
X139032732Y-115326222D01*
X138947109Y-115375657D01*
X138877199Y-115445567D01*
X138827764Y-115531190D01*
X138827764Y-115531191D01*
X138827763Y-115531193D01*
X138802173Y-115626696D01*
X137701600Y-115626696D01*
X137701600Y-109850565D01*
X137974500Y-109850565D01*
X137974500Y-109949435D01*
X138000090Y-110044938D01*
X138000091Y-110044939D01*
X138000091Y-110044940D01*
X138049526Y-110130563D01*
X138081282Y-110162319D01*
X138114767Y-110223642D01*
X138109783Y-110293334D01*
X138081282Y-110337681D01*
X138049526Y-110369436D01*
X138000091Y-110455059D01*
X138000091Y-110455060D01*
X138000090Y-110455062D01*
X137974500Y-110550565D01*
X137974500Y-110649435D01*
X138000090Y-110744938D01*
X138000091Y-110744939D01*
X138000091Y-110744940D01*
X138049526Y-110830563D01*
X138081282Y-110862319D01*
X138114767Y-110923642D01*
X138109783Y-110993334D01*
X138081282Y-111037681D01*
X138049526Y-111069436D01*
X138000091Y-111155059D01*
X138000091Y-111155060D01*
X138000090Y-111155062D01*
X137974500Y-111250565D01*
X137974500Y-111349435D01*
X138000090Y-111444938D01*
X138049525Y-111530562D01*
X138119438Y-111600475D01*
X138205062Y-111649910D01*
X138300565Y-111675500D01*
X138300567Y-111675500D01*
X138399432Y-111675500D01*
X138399435Y-111675500D01*
X138494938Y-111649910D01*
X138580562Y-111600475D01*
X138650475Y-111530562D01*
X138699910Y-111444938D01*
X138725500Y-111349435D01*
X138725500Y-111250565D01*
X138699910Y-111155062D01*
X138650475Y-111069438D01*
X138618718Y-111037681D01*
X138585233Y-110976358D01*
X138590217Y-110906666D01*
X138618718Y-110862319D01*
X138631602Y-110849435D01*
X138650475Y-110830562D01*
X138699910Y-110744938D01*
X138725500Y-110649435D01*
X138725500Y-110550565D01*
X138699910Y-110455062D01*
X138650475Y-110369438D01*
X138618718Y-110337681D01*
X138585233Y-110276358D01*
X138590217Y-110206666D01*
X138618718Y-110162319D01*
X138650475Y-110130562D01*
X138699910Y-110044938D01*
X138725500Y-109949435D01*
X138725500Y-109850565D01*
X138699910Y-109755062D01*
X138650475Y-109669438D01*
X138580562Y-109599525D01*
X138494938Y-109550090D01*
X138399435Y-109524500D01*
X138300565Y-109524500D01*
X138205062Y-109550090D01*
X138205060Y-109550091D01*
X138205059Y-109550091D01*
X138119436Y-109599526D01*
X138049526Y-109669436D01*
X138000091Y-109755059D01*
X138000091Y-109755060D01*
X138000090Y-109755062D01*
X137974500Y-109850565D01*
X137701600Y-109850565D01*
X137701600Y-106695563D01*
X139024500Y-106695563D01*
X139024500Y-106794433D01*
X139050090Y-106889936D01*
X139099525Y-106975560D01*
X139169438Y-107045473D01*
X139255062Y-107094908D01*
X139350565Y-107120498D01*
X139350567Y-107120498D01*
X139449432Y-107120498D01*
X139449435Y-107120498D01*
X139544938Y-107094908D01*
X139630562Y-107045473D01*
X139700475Y-106975560D01*
X139749910Y-106889936D01*
X139775500Y-106794433D01*
X139775500Y-106695563D01*
X139749910Y-106600060D01*
X139700475Y-106514436D01*
X139630562Y-106444523D01*
X139544938Y-106395088D01*
X139449435Y-106369498D01*
X139350565Y-106369498D01*
X139255062Y-106395088D01*
X139255060Y-106395089D01*
X139255059Y-106395089D01*
X139169436Y-106444524D01*
X139099526Y-106514434D01*
X139050091Y-106600057D01*
X139050091Y-106600058D01*
X139050090Y-106600060D01*
X139024500Y-106695563D01*
X137701600Y-106695563D01*
X137701600Y-105681999D01*
X137721285Y-105614960D01*
X137774089Y-105569205D01*
X137843247Y-105559261D01*
X137906803Y-105588286D01*
X137913281Y-105594318D01*
X137919438Y-105600475D01*
X138005062Y-105649910D01*
X138100565Y-105675500D01*
X138100567Y-105675500D01*
X138199432Y-105675500D01*
X138199435Y-105675500D01*
X138294938Y-105649910D01*
X138380562Y-105600475D01*
X138450475Y-105530562D01*
X138499910Y-105444938D01*
X138525500Y-105349435D01*
X138525500Y-105250565D01*
X138499910Y-105155062D01*
X138497314Y-105150565D01*
X138824500Y-105150565D01*
X138824500Y-105249435D01*
X138850090Y-105344938D01*
X138850091Y-105344939D01*
X138850091Y-105344940D01*
X138852686Y-105349435D01*
X138899525Y-105430562D01*
X138969438Y-105500475D01*
X139055062Y-105549910D01*
X139150565Y-105575500D01*
X139150567Y-105575500D01*
X139249432Y-105575500D01*
X139249435Y-105575500D01*
X139344938Y-105549910D01*
X139430562Y-105500475D01*
X139500475Y-105430562D01*
X139549910Y-105344938D01*
X139575500Y-105249435D01*
X139575500Y-105150565D01*
X139549910Y-105055062D01*
X139500475Y-104969438D01*
X139430562Y-104899525D01*
X139344938Y-104850090D01*
X139249435Y-104824500D01*
X139150565Y-104824500D01*
X139055062Y-104850090D01*
X139055060Y-104850091D01*
X139055059Y-104850091D01*
X138969436Y-104899526D01*
X138899526Y-104969436D01*
X138850091Y-105055059D01*
X138850091Y-105055060D01*
X138850090Y-105055062D01*
X138824500Y-105150565D01*
X138497314Y-105150565D01*
X138450475Y-105069438D01*
X138380562Y-104999525D01*
X138294938Y-104950090D01*
X138199435Y-104924500D01*
X138100565Y-104924500D01*
X138005062Y-104950090D01*
X138005060Y-104950091D01*
X138005059Y-104950091D01*
X137919436Y-104999526D01*
X137913281Y-105005682D01*
X137851958Y-105039167D01*
X137782266Y-105034183D01*
X137726333Y-104992311D01*
X137701916Y-104926847D01*
X137701600Y-104918001D01*
X137701600Y-102750565D01*
X138424500Y-102750565D01*
X138424500Y-102849435D01*
X138450090Y-102944938D01*
X138499525Y-103030562D01*
X138569438Y-103100475D01*
X138655062Y-103149910D01*
X138750565Y-103175500D01*
X138750567Y-103175500D01*
X138849432Y-103175500D01*
X138849435Y-103175500D01*
X138944938Y-103149910D01*
X139030562Y-103100475D01*
X139100475Y-103030562D01*
X139149910Y-102944938D01*
X139175500Y-102849435D01*
X139175500Y-102750565D01*
X139149910Y-102655062D01*
X139100475Y-102569438D01*
X139030562Y-102499525D01*
X138944938Y-102450090D01*
X138849435Y-102424500D01*
X138750565Y-102424500D01*
X138655062Y-102450090D01*
X138655060Y-102450091D01*
X138655059Y-102450091D01*
X138569436Y-102499526D01*
X138499526Y-102569436D01*
X138450091Y-102655059D01*
X138450091Y-102655060D01*
X138450090Y-102655062D01*
X138424500Y-102750565D01*
X137701600Y-102750565D01*
X137701600Y-101250565D01*
X139624500Y-101250565D01*
X139624500Y-101349435D01*
X139650090Y-101444938D01*
X139699525Y-101530562D01*
X139769438Y-101600475D01*
X139855062Y-101649910D01*
X139950565Y-101675500D01*
X139950567Y-101675500D01*
X140049432Y-101675500D01*
X140049435Y-101675500D01*
X140144938Y-101649910D01*
X140230562Y-101600475D01*
X140300475Y-101530562D01*
X140349910Y-101444938D01*
X140375500Y-101349435D01*
X140375500Y-101250565D01*
X140349910Y-101155062D01*
X140300475Y-101069438D01*
X140230562Y-100999525D01*
X140144938Y-100950090D01*
X140049435Y-100924500D01*
X139950565Y-100924500D01*
X139855062Y-100950090D01*
X139855060Y-100950091D01*
X139855059Y-100950091D01*
X139769436Y-100999526D01*
X139699526Y-101069436D01*
X139650091Y-101155059D01*
X139650091Y-101155060D01*
X139650090Y-101155062D01*
X139624500Y-101250565D01*
X137701600Y-101250565D01*
X137701600Y-99550565D01*
X138324500Y-99550565D01*
X138324500Y-99649435D01*
X138350090Y-99744938D01*
X138399525Y-99830562D01*
X138469438Y-99900475D01*
X138555062Y-99949910D01*
X138650565Y-99975500D01*
X138650567Y-99975500D01*
X138749432Y-99975500D01*
X138749435Y-99975500D01*
X138844938Y-99949910D01*
X138930562Y-99900475D01*
X139000475Y-99830562D01*
X139049910Y-99744938D01*
X139075500Y-99649435D01*
X139075500Y-99550565D01*
X139049910Y-99455062D01*
X139000475Y-99369438D01*
X138930562Y-99299525D01*
X138844938Y-99250090D01*
X138749435Y-99224500D01*
X138650565Y-99224500D01*
X138555062Y-99250090D01*
X138555060Y-99250091D01*
X138555059Y-99250091D01*
X138469436Y-99299526D01*
X138399526Y-99369436D01*
X138350091Y-99455059D01*
X138350091Y-99455060D01*
X138350090Y-99455062D01*
X138324500Y-99550565D01*
X137701600Y-99550565D01*
X137701600Y-97670389D01*
X137721285Y-97603350D01*
X137774089Y-97557595D01*
X137843247Y-97547651D01*
X137857674Y-97550609D01*
X137950565Y-97575500D01*
X137950568Y-97575500D01*
X138049432Y-97575500D01*
X138049435Y-97575500D01*
X138144938Y-97549910D01*
X138230562Y-97500475D01*
X138300475Y-97430562D01*
X138349910Y-97344938D01*
X138375500Y-97249435D01*
X138375500Y-97150565D01*
X138349910Y-97055062D01*
X138300475Y-96969438D01*
X138230562Y-96899525D01*
X138144938Y-96850090D01*
X138049435Y-96824500D01*
X137950565Y-96824500D01*
X137857693Y-96849385D01*
X137787843Y-96847722D01*
X137729981Y-96808559D01*
X137702477Y-96744331D01*
X137701600Y-96729610D01*
X137701600Y-95400565D01*
X138474500Y-95400565D01*
X138474500Y-95499435D01*
X138500090Y-95594938D01*
X138549525Y-95680562D01*
X138619438Y-95750475D01*
X138705062Y-95799910D01*
X138800565Y-95825500D01*
X138800567Y-95825500D01*
X138899432Y-95825500D01*
X138899435Y-95825500D01*
X138994938Y-95799910D01*
X139080562Y-95750475D01*
X139150475Y-95680562D01*
X139199910Y-95594938D01*
X139225500Y-95499435D01*
X139225500Y-95400565D01*
X139199910Y-95305062D01*
X139150475Y-95219438D01*
X139080562Y-95149525D01*
X138994938Y-95100090D01*
X138899435Y-95074500D01*
X138800565Y-95074500D01*
X138705062Y-95100090D01*
X138705060Y-95100091D01*
X138705059Y-95100091D01*
X138619436Y-95149526D01*
X138549526Y-95219436D01*
X138500091Y-95305059D01*
X138500091Y-95305060D01*
X138500090Y-95305062D01*
X138474500Y-95400565D01*
X137701600Y-95400565D01*
X137701600Y-92750565D01*
X138124500Y-92750565D01*
X138124500Y-92849435D01*
X138150090Y-92944938D01*
X138150091Y-92944939D01*
X138150091Y-92944940D01*
X138163337Y-92967882D01*
X138199525Y-93030562D01*
X138269438Y-93100475D01*
X138342424Y-93142614D01*
X138390639Y-93193181D01*
X138403861Y-93261788D01*
X138377893Y-93326652D01*
X138342425Y-93357385D01*
X138269438Y-93399525D01*
X138269435Y-93399527D01*
X138199526Y-93469436D01*
X138150091Y-93555059D01*
X138150091Y-93555060D01*
X138150090Y-93555062D01*
X138124500Y-93650565D01*
X138124500Y-93749435D01*
X138150090Y-93844938D01*
X138150091Y-93844939D01*
X138150091Y-93844940D01*
X138163337Y-93867882D01*
X138199525Y-93930562D01*
X138269438Y-94000475D01*
X138355062Y-94049910D01*
X138450565Y-94075500D01*
X138450567Y-94075500D01*
X138549432Y-94075500D01*
X138549435Y-94075500D01*
X138644938Y-94049910D01*
X138730562Y-94000475D01*
X138800475Y-93930562D01*
X138842614Y-93857575D01*
X138893180Y-93809360D01*
X138961787Y-93796137D01*
X139026652Y-93822106D01*
X139057385Y-93857574D01*
X139099525Y-93930562D01*
X139169438Y-94000475D01*
X139255062Y-94049910D01*
X139350565Y-94075500D01*
X139350567Y-94075500D01*
X139449432Y-94075500D01*
X139449435Y-94075500D01*
X139544938Y-94049910D01*
X139630562Y-94000475D01*
X139700475Y-93930562D01*
X139749910Y-93844938D01*
X139775500Y-93749435D01*
X139775500Y-93650565D01*
X139749910Y-93555062D01*
X139700475Y-93469438D01*
X139630562Y-93399525D01*
X139557575Y-93357385D01*
X139509360Y-93306820D01*
X139496137Y-93238213D01*
X139522106Y-93173348D01*
X139557574Y-93142614D01*
X139630562Y-93100475D01*
X139700475Y-93030562D01*
X139749910Y-92944938D01*
X139775500Y-92849435D01*
X139775500Y-92750565D01*
X139749910Y-92655062D01*
X139700475Y-92569438D01*
X139630562Y-92499525D01*
X139544938Y-92450090D01*
X139449435Y-92424500D01*
X139350565Y-92424500D01*
X139255062Y-92450090D01*
X139255060Y-92450091D01*
X139255059Y-92450091D01*
X139169436Y-92499526D01*
X139099527Y-92569435D01*
X139057387Y-92642424D01*
X139006819Y-92690639D01*
X138938212Y-92703861D01*
X138873348Y-92677893D01*
X138842613Y-92642424D01*
X138800475Y-92569438D01*
X138730562Y-92499525D01*
X138644938Y-92450090D01*
X138549435Y-92424500D01*
X138450565Y-92424500D01*
X138355062Y-92450090D01*
X138355060Y-92450091D01*
X138355059Y-92450091D01*
X138269436Y-92499526D01*
X138199526Y-92569436D01*
X138150091Y-92655059D01*
X138150091Y-92655060D01*
X138150090Y-92655062D01*
X138124500Y-92750565D01*
X137701600Y-92750565D01*
X137701600Y-86506999D01*
X137721285Y-86439960D01*
X137774089Y-86394205D01*
X137843247Y-86384261D01*
X137906803Y-86413286D01*
X137913281Y-86419318D01*
X137944438Y-86450475D01*
X138030062Y-86499910D01*
X138125565Y-86525500D01*
X138125567Y-86525500D01*
X138224432Y-86525500D01*
X138224435Y-86525500D01*
X138319938Y-86499910D01*
X138405562Y-86450475D01*
X138475475Y-86380562D01*
X138524910Y-86294938D01*
X138550500Y-86199435D01*
X138550500Y-86100565D01*
X138524910Y-86005062D01*
X138475475Y-85919438D01*
X138405562Y-85849525D01*
X138319938Y-85800090D01*
X138224435Y-85774500D01*
X138125565Y-85774500D01*
X138030062Y-85800090D01*
X138030060Y-85800091D01*
X138030059Y-85800091D01*
X137944436Y-85849526D01*
X137913281Y-85880682D01*
X137851958Y-85914167D01*
X137782266Y-85909183D01*
X137726333Y-85867311D01*
X137701916Y-85801847D01*
X137701600Y-85793001D01*
X137701600Y-84513357D01*
X137703127Y-84493960D01*
X137707917Y-84463718D01*
X137713187Y-84430443D01*
X137725172Y-84393555D01*
X137749885Y-84345052D01*
X137772683Y-84313673D01*
X137811173Y-84275183D01*
X137842552Y-84252385D01*
X137891055Y-84227672D01*
X137927943Y-84215687D01*
X137979420Y-84207533D01*
X137991460Y-84205627D01*
X138010857Y-84204100D01*
X142276000Y-84204100D01*
X142343039Y-84223785D01*
G37*
G04 #@! TD.AperFunction*
G04 #@! TD*
G04 #@! TA.AperFunction,Conductor*
G04 #@! TO.N,/3.3V*
G36*
X145561064Y-84223785D02*
G01*
X145606819Y-84276589D01*
X145617245Y-84314216D01*
X145637074Y-84490204D01*
X145637076Y-84490220D01*
X145709567Y-84807826D01*
X145709571Y-84807838D01*
X145817166Y-85115325D01*
X145958513Y-85408834D01*
X145958515Y-85408837D01*
X146131839Y-85684681D01*
X146334957Y-85939383D01*
X146565317Y-86169743D01*
X146820019Y-86372861D01*
X147095863Y-86546185D01*
X147389378Y-86687535D01*
X147620317Y-86768344D01*
X147696861Y-86795128D01*
X147696873Y-86795132D01*
X148014483Y-86867624D01*
X148338206Y-86904099D01*
X148338207Y-86904100D01*
X148338211Y-86904100D01*
X148663993Y-86904100D01*
X148663993Y-86904099D01*
X148818343Y-86886708D01*
X148973575Y-86869218D01*
X148981248Y-86868352D01*
X148987717Y-86867624D01*
X149305327Y-86795132D01*
X149612822Y-86687535D01*
X149906337Y-86546185D01*
X149978941Y-86500565D01*
X155624500Y-86500565D01*
X155624500Y-86599435D01*
X155650090Y-86694938D01*
X155650091Y-86694939D01*
X155650091Y-86694940D01*
X155653065Y-86700091D01*
X155699525Y-86780562D01*
X155769438Y-86850475D01*
X155855062Y-86899910D01*
X155950565Y-86925500D01*
X155950567Y-86925500D01*
X156049432Y-86925500D01*
X156049435Y-86925500D01*
X156144938Y-86899910D01*
X156230562Y-86850475D01*
X156300475Y-86780562D01*
X156349910Y-86694938D01*
X156375500Y-86599435D01*
X156375500Y-86500565D01*
X156349910Y-86405062D01*
X156300475Y-86319438D01*
X156230562Y-86249525D01*
X156144938Y-86200090D01*
X156049435Y-86174500D01*
X155950565Y-86174500D01*
X155855062Y-86200090D01*
X155855060Y-86200091D01*
X155855059Y-86200091D01*
X155769436Y-86249526D01*
X155699526Y-86319436D01*
X155650091Y-86405059D01*
X155650091Y-86405060D01*
X155650090Y-86405062D01*
X155624500Y-86500565D01*
X149978941Y-86500565D01*
X150182181Y-86372861D01*
X150436883Y-86169743D01*
X150667243Y-85939383D01*
X150870361Y-85684681D01*
X151043685Y-85408837D01*
X151185035Y-85115322D01*
X151292632Y-84807827D01*
X151365124Y-84490217D01*
X151381402Y-84345747D01*
X151384955Y-84314216D01*
X151412021Y-84249802D01*
X151469616Y-84210247D01*
X151508175Y-84204100D01*
X158480209Y-84204100D01*
X158547248Y-84223785D01*
X158593003Y-84276589D01*
X158602947Y-84345747D01*
X158587596Y-84390100D01*
X158550091Y-84455059D01*
X158550091Y-84455060D01*
X158550090Y-84455062D01*
X158524500Y-84550565D01*
X158524500Y-84649435D01*
X158550090Y-84744938D01*
X158599525Y-84830562D01*
X158669438Y-84900475D01*
X158755062Y-84949910D01*
X158850565Y-84975500D01*
X158850567Y-84975500D01*
X158949432Y-84975500D01*
X158949435Y-84975500D01*
X159044938Y-84949910D01*
X159114602Y-84909689D01*
X159182499Y-84893217D01*
X159248526Y-84916069D01*
X159291717Y-84970990D01*
X159300600Y-85017077D01*
X159300600Y-102870201D01*
X159280915Y-102937240D01*
X159228111Y-102982995D01*
X159158953Y-102992939D01*
X159095397Y-102963914D01*
X159088919Y-102957882D01*
X159030563Y-102899526D01*
X159030562Y-102899525D01*
X158944938Y-102850090D01*
X158849435Y-102824500D01*
X158750565Y-102824500D01*
X158655062Y-102850090D01*
X158655060Y-102850091D01*
X158655059Y-102850091D01*
X158569436Y-102899526D01*
X158499527Y-102969435D01*
X158498377Y-102970935D01*
X158497083Y-102971879D01*
X158493778Y-102975185D01*
X158493262Y-102974669D01*
X158441950Y-103012139D01*
X158372204Y-103016294D01*
X158311283Y-102982083D01*
X158301623Y-102970935D01*
X158300477Y-102969441D01*
X158300475Y-102969438D01*
X158230562Y-102899525D01*
X158144938Y-102850090D01*
X158049435Y-102824500D01*
X157950565Y-102824500D01*
X157886896Y-102841560D01*
X157855061Y-102850090D01*
X157811499Y-102875241D01*
X157805597Y-102876672D01*
X157801011Y-102880647D01*
X157772048Y-102884811D01*
X157743599Y-102891713D01*
X157737861Y-102889727D01*
X157731853Y-102890591D01*
X157705231Y-102878433D01*
X157677572Y-102868860D01*
X157673819Y-102864087D01*
X157668297Y-102861566D01*
X157652473Y-102836943D01*
X157634382Y-102813938D01*
X157632965Y-102806588D01*
X157630523Y-102802788D01*
X157625500Y-102767853D01*
X157625500Y-102544767D01*
X157645185Y-102477728D01*
X157661818Y-102457087D01*
X157710292Y-102408612D01*
X157710296Y-102408609D01*
X157727735Y-102391170D01*
X157727736Y-102391170D01*
X157791170Y-102327736D01*
X157814147Y-102272264D01*
X157825501Y-102244854D01*
X157825501Y-102155145D01*
X157825500Y-102155142D01*
X157825500Y-101556899D01*
X157845185Y-101489860D01*
X157861819Y-101469218D01*
X157900475Y-101430562D01*
X157949910Y-101344938D01*
X157975500Y-101249435D01*
X157975500Y-101150565D01*
X157949910Y-101055062D01*
X157900475Y-100969438D01*
X157900473Y-100969436D01*
X157896411Y-100962400D01*
X157897770Y-100961615D01*
X157875929Y-100905107D01*
X157875500Y-100894798D01*
X157875500Y-98809297D01*
X157875501Y-98809288D01*
X157875501Y-98705146D01*
X157875501Y-98705145D01*
X157841170Y-98622265D01*
X157841170Y-98622264D01*
X157777736Y-98558830D01*
X157770671Y-98551765D01*
X157770664Y-98551759D01*
X156961819Y-97742914D01*
X156928334Y-97681591D01*
X156925500Y-97655233D01*
X156925500Y-95634848D01*
X156934938Y-95587396D01*
X156950500Y-95549828D01*
X156950500Y-95364270D01*
X156950501Y-95364261D01*
X156950501Y-95250174D01*
X156950500Y-95250170D01*
X156912364Y-95158104D01*
X156912363Y-95158102D01*
X156834832Y-95080571D01*
X156834825Y-95080565D01*
X155836819Y-94082558D01*
X155803334Y-94021235D01*
X155800500Y-93994877D01*
X155800500Y-91431728D01*
X155820185Y-91364689D01*
X155872989Y-91318934D01*
X155942147Y-91308990D01*
X155956583Y-91311951D01*
X156007147Y-91325500D01*
X156007149Y-91325500D01*
X156092851Y-91325500D01*
X156092853Y-91325500D01*
X156175638Y-91303318D01*
X156249862Y-91260465D01*
X156310465Y-91199862D01*
X156353318Y-91125638D01*
X156375500Y-91042853D01*
X156375500Y-90957147D01*
X156353318Y-90874362D01*
X156336473Y-90845185D01*
X156310469Y-90800144D01*
X156310463Y-90800136D01*
X156249863Y-90739536D01*
X156249855Y-90739530D01*
X156175644Y-90696685D01*
X156175640Y-90696683D01*
X156175638Y-90696682D01*
X156092853Y-90674500D01*
X156007147Y-90674500D01*
X155999500Y-90674500D01*
X155932461Y-90654815D01*
X155886706Y-90602011D01*
X155875500Y-90550500D01*
X155875500Y-90457149D01*
X155875500Y-90457147D01*
X155853318Y-90374362D01*
X155837034Y-90346157D01*
X155810469Y-90300144D01*
X155810466Y-90300140D01*
X155810465Y-90300138D01*
X155749862Y-90239535D01*
X155749861Y-90239534D01*
X155749858Y-90239531D01*
X155743417Y-90234589D01*
X155743929Y-90233920D01*
X155729775Y-90223059D01*
X155709401Y-90202685D01*
X155691897Y-90185181D01*
X155691895Y-90185180D01*
X155605764Y-90099049D01*
X155513274Y-90006558D01*
X155479789Y-89945235D01*
X155476955Y-89918877D01*
X155476955Y-89578666D01*
X155496640Y-89511627D01*
X155513269Y-89490990D01*
X157824455Y-87179803D01*
X157824458Y-87179802D01*
X157841896Y-87162364D01*
X157841897Y-87162364D01*
X157912364Y-87091897D01*
X157950500Y-86999828D01*
X157950500Y-85931899D01*
X157970185Y-85864860D01*
X157986819Y-85844218D01*
X158000475Y-85830562D01*
X158049910Y-85744938D01*
X158075500Y-85649435D01*
X158075500Y-85550565D01*
X158049910Y-85455062D01*
X158000475Y-85369438D01*
X157930562Y-85299525D01*
X157844938Y-85250090D01*
X157749435Y-85224500D01*
X157650565Y-85224500D01*
X157555062Y-85250090D01*
X157555060Y-85250091D01*
X157555059Y-85250091D01*
X157469436Y-85299526D01*
X157399526Y-85369436D01*
X157350091Y-85455059D01*
X157350091Y-85455060D01*
X157350090Y-85455062D01*
X157324500Y-85550565D01*
X157324500Y-85649435D01*
X157350090Y-85744938D01*
X157350091Y-85744939D01*
X157350091Y-85744940D01*
X157399526Y-85830563D01*
X157413181Y-85844218D01*
X157446666Y-85905541D01*
X157449500Y-85931899D01*
X157449500Y-86794876D01*
X157429815Y-86861915D01*
X157413181Y-86882557D01*
X155067116Y-89228621D01*
X155067117Y-89228622D01*
X155014091Y-89281648D01*
X154975955Y-89373715D01*
X154975955Y-89699500D01*
X154973404Y-89708185D01*
X154974693Y-89717147D01*
X154963714Y-89741187D01*
X154956270Y-89766539D01*
X154949429Y-89772466D01*
X154945668Y-89780703D01*
X154923433Y-89794992D01*
X154903466Y-89812294D01*
X154892951Y-89814581D01*
X154886890Y-89818477D01*
X154851955Y-89823500D01*
X154792783Y-89823500D01*
X154792775Y-89823499D01*
X154778341Y-89823499D01*
X154678686Y-89823499D01*
X154678685Y-89823499D01*
X154651719Y-89834669D01*
X154624753Y-89845839D01*
X154606577Y-89853368D01*
X154586614Y-89861637D01*
X154547306Y-89900946D01*
X154516149Y-89932103D01*
X154516148Y-89932104D01*
X154408103Y-90040148D01*
X154408103Y-90040149D01*
X154390663Y-90057589D01*
X154337634Y-90110618D01*
X154330933Y-90126796D01*
X154287090Y-90181198D01*
X154220796Y-90203260D01*
X154184065Y-90196633D01*
X154183489Y-90198786D01*
X154175639Y-90196682D01*
X154175638Y-90196682D01*
X154092853Y-90174500D01*
X154007147Y-90174500D01*
X153924362Y-90196682D01*
X153924355Y-90196685D01*
X153850144Y-90239530D01*
X153850136Y-90239536D01*
X153789536Y-90300136D01*
X153789530Y-90300144D01*
X153746685Y-90374355D01*
X153746682Y-90374362D01*
X153724500Y-90457147D01*
X153724500Y-90542853D01*
X153736775Y-90588662D01*
X153746682Y-90625637D01*
X153746685Y-90625644D01*
X153789530Y-90699855D01*
X153789534Y-90699860D01*
X153789535Y-90699862D01*
X153850138Y-90760465D01*
X153850140Y-90760466D01*
X153850144Y-90760469D01*
X153918854Y-90800138D01*
X153924362Y-90803318D01*
X154007147Y-90825500D01*
X154007149Y-90825500D01*
X154100500Y-90825500D01*
X154109185Y-90828050D01*
X154118147Y-90826762D01*
X154142187Y-90837740D01*
X154167539Y-90845185D01*
X154173466Y-90852025D01*
X154181703Y-90855787D01*
X154195992Y-90878021D01*
X154213294Y-90897989D01*
X154215581Y-90908503D01*
X154219477Y-90914565D01*
X154224500Y-90949500D01*
X154224500Y-91050500D01*
X154204815Y-91117539D01*
X154152011Y-91163294D01*
X154100500Y-91174500D01*
X154007147Y-91174500D01*
X153924362Y-91196682D01*
X153924355Y-91196685D01*
X153850144Y-91239530D01*
X153850136Y-91239536D01*
X153789536Y-91300136D01*
X153789530Y-91300144D01*
X153746685Y-91374355D01*
X153746682Y-91374362D01*
X153724500Y-91457147D01*
X153724500Y-91542852D01*
X153746682Y-91625637D01*
X153746685Y-91625644D01*
X153789530Y-91699855D01*
X153789534Y-91699860D01*
X153789535Y-91699862D01*
X153850138Y-91760465D01*
X153850140Y-91760466D01*
X153850144Y-91760469D01*
X153924355Y-91803314D01*
X153924362Y-91803318D01*
X154007147Y-91825500D01*
X154007149Y-91825500D01*
X154092851Y-91825500D01*
X154092853Y-91825500D01*
X154175638Y-91803318D01*
X154238001Y-91767312D01*
X154305900Y-91750840D01*
X154361998Y-91767312D01*
X154424362Y-91803318D01*
X154507147Y-91825500D01*
X154507149Y-91825500D01*
X154592851Y-91825500D01*
X154592853Y-91825500D01*
X154675638Y-91803318D01*
X154749862Y-91760465D01*
X154810465Y-91699862D01*
X154853318Y-91625638D01*
X154875500Y-91542853D01*
X154875500Y-91457147D01*
X154875500Y-91449500D01*
X154876262Y-91446901D01*
X154875610Y-91444273D01*
X154886052Y-91413562D01*
X154895185Y-91382461D01*
X154897230Y-91380688D01*
X154898103Y-91378123D01*
X154923490Y-91357933D01*
X154947989Y-91336706D01*
X154951319Y-91335803D01*
X154952789Y-91334635D01*
X154963021Y-91332633D01*
X154987042Y-91326127D01*
X155003343Y-91324480D01*
X155007147Y-91325500D01*
X155092853Y-91325500D01*
X155153088Y-91309360D01*
X155163042Y-91308355D01*
X155187940Y-91313013D01*
X155213255Y-91313616D01*
X155221697Y-91319329D01*
X155231720Y-91321205D01*
X155250144Y-91338582D01*
X155271118Y-91352777D01*
X155275131Y-91362149D01*
X155282549Y-91369145D01*
X155288653Y-91393725D01*
X155298623Y-91417005D01*
X155299500Y-91431728D01*
X155299500Y-91868271D01*
X155279815Y-91935310D01*
X155227011Y-91981065D01*
X155157853Y-91991009D01*
X155143410Y-91988046D01*
X155092853Y-91974500D01*
X155007147Y-91974500D01*
X154924362Y-91996682D01*
X154924355Y-91996685D01*
X154850144Y-92039530D01*
X154850136Y-92039536D01*
X154789536Y-92100136D01*
X154789530Y-92100144D01*
X154746685Y-92174355D01*
X154746682Y-92174362D01*
X154724500Y-92257147D01*
X154724500Y-92342852D01*
X154746682Y-92425637D01*
X154746685Y-92425644D01*
X154793598Y-92506901D01*
X154791373Y-92508185D01*
X154811946Y-92561421D01*
X154797898Y-92629864D01*
X154749078Y-92679847D01*
X154680984Y-92695501D01*
X154656285Y-92691496D01*
X154592853Y-92674500D01*
X154507147Y-92674500D01*
X154424362Y-92696682D01*
X154424355Y-92696685D01*
X154350144Y-92739530D01*
X154350136Y-92739536D01*
X154289536Y-92800136D01*
X154289530Y-92800144D01*
X154246685Y-92874355D01*
X154246682Y-92874362D01*
X154224500Y-92957147D01*
X154224500Y-93042852D01*
X154246682Y-93125637D01*
X154246682Y-93125638D01*
X154282687Y-93188001D01*
X154299159Y-93255901D01*
X154282687Y-93311999D01*
X154246682Y-93374361D01*
X154246682Y-93374362D01*
X154224500Y-93457147D01*
X154224500Y-93542852D01*
X154246682Y-93625637D01*
X154246682Y-93625638D01*
X154282687Y-93688001D01*
X154299159Y-93755901D01*
X154282687Y-93811999D01*
X154246682Y-93874361D01*
X154246682Y-93874362D01*
X154224500Y-93957147D01*
X154224500Y-94042853D01*
X154239859Y-94100172D01*
X154246682Y-94125637D01*
X154246685Y-94125644D01*
X154289530Y-94199855D01*
X154289534Y-94199860D01*
X154289535Y-94199862D01*
X154350138Y-94260465D01*
X154350140Y-94260466D01*
X154350144Y-94260469D01*
X154404580Y-94291897D01*
X154424362Y-94303318D01*
X154507147Y-94325500D01*
X154507149Y-94325500D01*
X154592851Y-94325500D01*
X154592853Y-94325500D01*
X154675638Y-94303318D01*
X154749862Y-94260465D01*
X154810465Y-94199862D01*
X154853318Y-94125638D01*
X154875500Y-94042853D01*
X154875500Y-93957147D01*
X154853318Y-93874362D01*
X154817312Y-93811998D01*
X154800840Y-93744100D01*
X154817313Y-93688000D01*
X154853318Y-93625638D01*
X154875500Y-93542853D01*
X154875500Y-93457147D01*
X154853318Y-93374362D01*
X154817312Y-93311998D01*
X154800840Y-93244100D01*
X154817313Y-93188000D01*
X154853318Y-93125638D01*
X154875500Y-93042853D01*
X154875500Y-92957147D01*
X154853318Y-92874362D01*
X154825108Y-92825500D01*
X154806402Y-92793099D01*
X154808626Y-92791814D01*
X154788053Y-92738584D01*
X154802097Y-92670141D01*
X154850916Y-92620155D01*
X154919009Y-92604498D01*
X154943704Y-92608500D01*
X155007147Y-92625500D01*
X155007150Y-92625500D01*
X155092851Y-92625500D01*
X155092853Y-92625500D01*
X155143407Y-92611954D01*
X155213255Y-92613616D01*
X155271118Y-92652777D01*
X155298623Y-92717005D01*
X155299500Y-92731728D01*
X155299500Y-94199829D01*
X155324618Y-94260469D01*
X155337636Y-94291897D01*
X155800801Y-94755062D01*
X156083559Y-95037819D01*
X156117044Y-95099142D01*
X156112060Y-95168833D01*
X156070188Y-95224767D01*
X156004724Y-95249184D01*
X155995878Y-95249500D01*
X154599830Y-95249500D01*
X154599828Y-95249499D01*
X154500172Y-95249499D01*
X154441125Y-95273958D01*
X154427297Y-95279685D01*
X154427294Y-95279686D01*
X154408104Y-95287634D01*
X154408103Y-95287635D01*
X154337635Y-95358104D01*
X154049891Y-95645847D01*
X153994305Y-95677940D01*
X153924362Y-95696682D01*
X153924361Y-95696682D01*
X153924359Y-95696683D01*
X153924355Y-95696685D01*
X153850144Y-95739530D01*
X153850136Y-95739536D01*
X153789536Y-95800136D01*
X153789530Y-95800144D01*
X153746685Y-95874355D01*
X153746682Y-95874362D01*
X153724500Y-95957147D01*
X153724500Y-96042853D01*
X153746462Y-96124815D01*
X153746682Y-96125637D01*
X153746682Y-96125638D01*
X153782687Y-96188001D01*
X153799159Y-96255901D01*
X153782687Y-96311999D01*
X153746682Y-96374361D01*
X153746682Y-96374362D01*
X153724500Y-96457147D01*
X153724500Y-96542852D01*
X153746682Y-96625637D01*
X153746682Y-96625638D01*
X153782687Y-96688001D01*
X153799159Y-96755901D01*
X153782687Y-96811999D01*
X153746682Y-96874361D01*
X153746682Y-96874362D01*
X153724500Y-96957147D01*
X153724500Y-97042853D01*
X153731724Y-97069811D01*
X153746682Y-97125637D01*
X153746685Y-97125644D01*
X153789530Y-97199855D01*
X153789534Y-97199860D01*
X153789535Y-97199862D01*
X153850138Y-97260465D01*
X153850140Y-97260466D01*
X153850144Y-97260469D01*
X153893732Y-97285634D01*
X153924362Y-97303318D01*
X154007147Y-97325500D01*
X154007149Y-97325500D01*
X154092851Y-97325500D01*
X154092853Y-97325500D01*
X154175638Y-97303318D01*
X154249862Y-97260465D01*
X154310465Y-97199862D01*
X154353318Y-97125638D01*
X154375500Y-97042853D01*
X154375500Y-96957147D01*
X154375500Y-96949500D01*
X154395185Y-96882461D01*
X154447989Y-96836706D01*
X154499500Y-96825500D01*
X154592851Y-96825500D01*
X154592853Y-96825500D01*
X154675638Y-96803318D01*
X154738001Y-96767312D01*
X154805900Y-96750840D01*
X154861998Y-96767312D01*
X154924362Y-96803318D01*
X155007147Y-96825500D01*
X155007149Y-96825500D01*
X155092851Y-96825500D01*
X155092853Y-96825500D01*
X155175638Y-96803318D01*
X155238001Y-96767312D01*
X155305900Y-96750840D01*
X155361998Y-96767312D01*
X155424362Y-96803318D01*
X155507147Y-96825500D01*
X155507149Y-96825500D01*
X155592851Y-96825500D01*
X155592853Y-96825500D01*
X155675638Y-96803318D01*
X155738001Y-96767312D01*
X155805900Y-96750840D01*
X155861998Y-96767312D01*
X155924362Y-96803318D01*
X156007147Y-96825500D01*
X156007149Y-96825500D01*
X156092851Y-96825500D01*
X156092853Y-96825500D01*
X156175638Y-96803318D01*
X156249862Y-96760465D01*
X156262819Y-96747508D01*
X156324142Y-96714023D01*
X156393834Y-96719007D01*
X156449767Y-96760879D01*
X156474184Y-96826343D01*
X156474500Y-96835189D01*
X156474500Y-97755142D01*
X156474499Y-97755145D01*
X156474499Y-97767858D01*
X156465206Y-97799500D01*
X156454814Y-97834892D01*
X156454811Y-97834893D01*
X156454811Y-97834897D01*
X156424035Y-97861562D01*
X156402010Y-97880647D01*
X156402008Y-97880647D01*
X156402005Y-97880650D01*
X156362566Y-97886318D01*
X156332852Y-97890591D01*
X156332848Y-97890589D01*
X156332847Y-97890590D01*
X156332840Y-97890586D01*
X156288499Y-97875240D01*
X156244940Y-97850091D01*
X156244939Y-97850090D01*
X156244938Y-97850090D01*
X156149435Y-97824500D01*
X156050565Y-97824500D01*
X155955062Y-97850090D01*
X155955060Y-97850091D01*
X155955059Y-97850091D01*
X155869436Y-97899526D01*
X155799526Y-97969436D01*
X155750091Y-98055059D01*
X155750091Y-98055060D01*
X155750090Y-98055062D01*
X155724500Y-98150565D01*
X155724500Y-98249435D01*
X155750090Y-98344938D01*
X155750091Y-98344939D01*
X155750091Y-98344940D01*
X155753951Y-98351625D01*
X155799525Y-98430562D01*
X155869438Y-98500475D01*
X155955062Y-98549910D01*
X156050565Y-98575500D01*
X156050567Y-98575500D01*
X156149432Y-98575500D01*
X156149435Y-98575500D01*
X156244938Y-98549910D01*
X156330562Y-98500475D01*
X156400475Y-98430562D01*
X156449910Y-98344938D01*
X156475500Y-98249435D01*
X156475500Y-98193767D01*
X156495185Y-98126728D01*
X156547989Y-98080973D01*
X156617147Y-98071029D01*
X156680703Y-98100054D01*
X156687181Y-98106086D01*
X157388181Y-98807086D01*
X157421666Y-98868409D01*
X157424500Y-98894767D01*
X157424500Y-100796143D01*
X157404815Y-100863182D01*
X157374207Y-100892390D01*
X157375886Y-100894577D01*
X157369438Y-100899524D01*
X157299525Y-100969438D01*
X157250091Y-101055059D01*
X157250091Y-101055060D01*
X157250090Y-101055062D01*
X157224500Y-101150565D01*
X157224500Y-101249435D01*
X157250090Y-101344938D01*
X157250091Y-101344939D01*
X157250091Y-101344940D01*
X157253065Y-101350091D01*
X157281606Y-101399526D01*
X157299526Y-101430563D01*
X157338181Y-101469218D01*
X157371666Y-101530541D01*
X157374500Y-101556899D01*
X157374500Y-102055232D01*
X157354815Y-102122271D01*
X157338181Y-102142913D01*
X157208830Y-102272263D01*
X157208830Y-102272265D01*
X157174499Y-102355144D01*
X157174499Y-102459288D01*
X157174500Y-102459297D01*
X157174500Y-103555142D01*
X157174499Y-103555145D01*
X157174499Y-103644855D01*
X157179987Y-103658103D01*
X157208830Y-103727736D01*
X157208831Y-103727737D01*
X157388181Y-103907087D01*
X157421666Y-103968410D01*
X157424500Y-103994768D01*
X157424500Y-104049435D01*
X157450090Y-104144938D01*
X157450091Y-104144939D01*
X157450091Y-104144940D01*
X157455935Y-104155062D01*
X157499525Y-104230562D01*
X157569438Y-104300475D01*
X157655062Y-104349910D01*
X157750565Y-104375500D01*
X157750567Y-104375500D01*
X157849432Y-104375500D01*
X157849435Y-104375500D01*
X157944938Y-104349910D01*
X158030562Y-104300475D01*
X158100475Y-104230562D01*
X158149910Y-104144938D01*
X158175500Y-104049435D01*
X158175500Y-103950565D01*
X158149910Y-103855062D01*
X158100475Y-103769438D01*
X158088602Y-103757565D01*
X158055117Y-103696242D01*
X158060101Y-103626550D01*
X158101973Y-103570617D01*
X158137560Y-103553331D01*
X158137431Y-103553019D01*
X158142684Y-103550842D01*
X158144196Y-103550108D01*
X158144938Y-103549910D01*
X158230562Y-103500475D01*
X158300475Y-103430562D01*
X158300479Y-103430554D01*
X158301619Y-103429070D01*
X158302909Y-103428127D01*
X158306222Y-103424815D01*
X158306738Y-103425331D01*
X158358043Y-103387863D01*
X158427789Y-103383703D01*
X158488712Y-103417911D01*
X158498381Y-103429070D01*
X158499523Y-103430559D01*
X158499525Y-103430562D01*
X158569438Y-103500475D01*
X158655062Y-103549910D01*
X158750565Y-103575500D01*
X158750567Y-103575500D01*
X158849432Y-103575500D01*
X158849435Y-103575500D01*
X158944938Y-103549910D01*
X159030562Y-103500475D01*
X159088919Y-103442118D01*
X159150242Y-103408633D01*
X159219934Y-103413617D01*
X159275867Y-103455489D01*
X159300284Y-103520953D01*
X159300600Y-103529799D01*
X159300600Y-107548777D01*
X159280915Y-107615816D01*
X159228111Y-107661571D01*
X159158953Y-107671515D01*
X159095397Y-107642490D01*
X159057623Y-107583712D01*
X159056836Y-107580910D01*
X159049910Y-107555062D01*
X159000475Y-107469438D01*
X158930562Y-107399525D01*
X158844938Y-107350090D01*
X158749435Y-107324500D01*
X158650565Y-107324500D01*
X158555062Y-107350090D01*
X158555060Y-107350091D01*
X158555059Y-107350091D01*
X158469436Y-107399526D01*
X158422487Y-107446475D01*
X158361164Y-107479959D01*
X158291472Y-107474974D01*
X158272807Y-107466180D01*
X158244940Y-107450091D01*
X158244939Y-107450090D01*
X158244938Y-107450090D01*
X158149435Y-107424500D01*
X158050565Y-107424500D01*
X158050560Y-107424500D01*
X158037962Y-107427876D01*
X157968112Y-107426210D01*
X157910251Y-107387045D01*
X157898487Y-107370100D01*
X157877063Y-107332993D01*
X157846484Y-107280028D01*
X157776571Y-107210115D01*
X157690947Y-107160680D01*
X157595444Y-107135090D01*
X157496574Y-107135090D01*
X157401071Y-107160680D01*
X157401069Y-107160681D01*
X157401068Y-107160681D01*
X157315445Y-107210116D01*
X157245535Y-107280026D01*
X157196100Y-107365649D01*
X157196100Y-107365650D01*
X157196099Y-107365652D01*
X157170509Y-107461155D01*
X157170509Y-107560025D01*
X157196099Y-107655528D01*
X157245534Y-107741152D01*
X157315447Y-107811065D01*
X157401071Y-107860500D01*
X157496574Y-107886090D01*
X157496576Y-107886090D01*
X157595442Y-107886090D01*
X157595444Y-107886090D01*
X157608039Y-107882715D01*
X157677889Y-107884377D01*
X157735752Y-107923538D01*
X157747521Y-107940488D01*
X157750089Y-107944937D01*
X157750090Y-107944938D01*
X157799525Y-108030562D01*
X157869438Y-108100475D01*
X157955062Y-108149910D01*
X158050565Y-108175500D01*
X158050567Y-108175500D01*
X158149432Y-108175500D01*
X158149435Y-108175500D01*
X158244938Y-108149910D01*
X158330562Y-108100475D01*
X158377512Y-108053525D01*
X158438835Y-108020040D01*
X158508527Y-108025024D01*
X158527185Y-108033815D01*
X158555062Y-108049910D01*
X158650565Y-108075500D01*
X158650567Y-108075500D01*
X158749432Y-108075500D01*
X158749435Y-108075500D01*
X158844938Y-108049910D01*
X158930562Y-108000475D01*
X159000475Y-107930562D01*
X159049910Y-107844938D01*
X159056825Y-107819127D01*
X159093190Y-107759468D01*
X159156037Y-107728939D01*
X159225412Y-107737233D01*
X159279290Y-107781719D01*
X159300565Y-107848271D01*
X159300600Y-107851222D01*
X159300600Y-108748777D01*
X159280915Y-108815816D01*
X159228111Y-108861571D01*
X159158953Y-108871515D01*
X159095397Y-108842490D01*
X159057623Y-108783712D01*
X159056836Y-108780910D01*
X159049910Y-108755062D01*
X159000475Y-108669438D01*
X158930562Y-108599525D01*
X158844938Y-108550090D01*
X158749435Y-108524500D01*
X158650565Y-108524500D01*
X158555062Y-108550090D01*
X158555060Y-108550091D01*
X158555059Y-108550091D01*
X158469436Y-108599526D01*
X158399527Y-108669435D01*
X158398377Y-108670935D01*
X158397083Y-108671879D01*
X158393778Y-108675185D01*
X158393262Y-108674669D01*
X158341950Y-108712139D01*
X158272204Y-108716294D01*
X158211283Y-108682083D01*
X158201623Y-108670935D01*
X158200477Y-108669441D01*
X158200475Y-108669438D01*
X158130562Y-108599525D01*
X158044938Y-108550090D01*
X157949435Y-108524500D01*
X157850565Y-108524500D01*
X157755062Y-108550090D01*
X157755060Y-108550091D01*
X157755059Y-108550091D01*
X157669436Y-108599526D01*
X157599526Y-108669436D01*
X157550091Y-108755059D01*
X157550091Y-108755060D01*
X157550090Y-108755062D01*
X157524500Y-108850565D01*
X157524500Y-108949435D01*
X157550090Y-109044938D01*
X157599525Y-109130562D01*
X157669438Y-109200475D01*
X157755062Y-109249910D01*
X157850565Y-109275500D01*
X157850567Y-109275500D01*
X157949432Y-109275500D01*
X157949435Y-109275500D01*
X158044938Y-109249910D01*
X158130562Y-109200475D01*
X158200475Y-109130562D01*
X158200479Y-109130554D01*
X158201619Y-109129070D01*
X158202909Y-109128127D01*
X158206222Y-109124815D01*
X158206738Y-109125331D01*
X158258043Y-109087863D01*
X158327789Y-109083703D01*
X158388712Y-109117911D01*
X158398381Y-109129070D01*
X158399523Y-109130559D01*
X158399525Y-109130562D01*
X158469438Y-109200475D01*
X158555062Y-109249910D01*
X158650565Y-109275500D01*
X158650567Y-109275500D01*
X158749432Y-109275500D01*
X158749435Y-109275500D01*
X158844938Y-109249910D01*
X158930562Y-109200475D01*
X159000475Y-109130562D01*
X159049910Y-109044938D01*
X159056825Y-109019127D01*
X159093190Y-108959468D01*
X159156037Y-108928939D01*
X159225412Y-108937233D01*
X159279290Y-108981719D01*
X159300565Y-109048271D01*
X159300600Y-109051222D01*
X159300600Y-116048777D01*
X159280915Y-116115816D01*
X159228111Y-116161571D01*
X159158953Y-116171515D01*
X159095397Y-116142490D01*
X159057623Y-116083712D01*
X159056836Y-116080910D01*
X159049910Y-116055062D01*
X159000475Y-115969438D01*
X158930562Y-115899525D01*
X158844938Y-115850090D01*
X158749435Y-115824500D01*
X158650565Y-115824500D01*
X158555062Y-115850090D01*
X158555060Y-115850091D01*
X158555059Y-115850091D01*
X158469436Y-115899526D01*
X158399526Y-115969436D01*
X158350091Y-116055059D01*
X158350091Y-116055060D01*
X158350090Y-116055062D01*
X158324500Y-116150565D01*
X158324500Y-116249435D01*
X158350090Y-116344938D01*
X158350091Y-116344939D01*
X158350091Y-116344940D01*
X158358186Y-116358960D01*
X158399525Y-116430562D01*
X158469438Y-116500475D01*
X158500924Y-116518653D01*
X158549140Y-116569220D01*
X158562362Y-116637827D01*
X158536394Y-116702692D01*
X158479480Y-116743220D01*
X158471036Y-116745809D01*
X158455062Y-116750090D01*
X158455061Y-116750090D01*
X158455059Y-116750091D01*
X158369436Y-116799526D01*
X158299526Y-116869436D01*
X158250091Y-116955059D01*
X158250091Y-116955060D01*
X158250090Y-116955062D01*
X158224500Y-117050565D01*
X158224500Y-117149435D01*
X158250090Y-117244938D01*
X158299525Y-117330562D01*
X158369438Y-117400475D01*
X158455062Y-117449910D01*
X158550565Y-117475500D01*
X158550567Y-117475500D01*
X158649432Y-117475500D01*
X158649435Y-117475500D01*
X158744938Y-117449910D01*
X158830562Y-117400475D01*
X158900475Y-117330562D01*
X158949910Y-117244938D01*
X158975500Y-117149435D01*
X158975500Y-117050565D01*
X158949910Y-116955062D01*
X158900475Y-116869438D01*
X158830562Y-116799525D01*
X158799074Y-116781345D01*
X158750859Y-116730778D01*
X158737637Y-116662171D01*
X158763605Y-116597306D01*
X158820520Y-116556778D01*
X158828951Y-116554193D01*
X158844938Y-116549910D01*
X158930562Y-116500475D01*
X159000475Y-116430562D01*
X159049910Y-116344938D01*
X159056825Y-116319127D01*
X159093190Y-116259468D01*
X159156037Y-116228939D01*
X159225412Y-116237233D01*
X159279290Y-116281719D01*
X159300565Y-116348271D01*
X159300600Y-116351222D01*
X159300600Y-118139893D01*
X159280915Y-118206932D01*
X159228111Y-118252687D01*
X159158953Y-118262631D01*
X159095397Y-118233606D01*
X159069214Y-118201894D01*
X159050474Y-118169437D01*
X158980563Y-118099526D01*
X158980562Y-118099525D01*
X158894938Y-118050090D01*
X158799435Y-118024500D01*
X158700565Y-118024500D01*
X158605062Y-118050090D01*
X158605060Y-118050091D01*
X158605059Y-118050091D01*
X158519436Y-118099526D01*
X158505782Y-118113181D01*
X158444459Y-118146666D01*
X158418101Y-118149500D01*
X156055123Y-118149500D01*
X155988084Y-118129815D01*
X155967442Y-118113181D01*
X153704826Y-115850565D01*
X156424500Y-115850565D01*
X156424500Y-115949435D01*
X156450090Y-116044938D01*
X156450091Y-116044939D01*
X156450091Y-116044940D01*
X156455933Y-116055059D01*
X156499525Y-116130562D01*
X156569438Y-116200475D01*
X156655062Y-116249910D01*
X156750565Y-116275500D01*
X156750567Y-116275500D01*
X156849432Y-116275500D01*
X156849435Y-116275500D01*
X156944938Y-116249910D01*
X157030562Y-116200475D01*
X157100475Y-116130562D01*
X157149910Y-116044938D01*
X157172487Y-115960679D01*
X157208851Y-115901020D01*
X157271698Y-115870491D01*
X157341073Y-115878786D01*
X157394951Y-115923271D01*
X157399472Y-115930493D01*
X157399524Y-115930561D01*
X157399525Y-115930562D01*
X157469438Y-116000475D01*
X157555062Y-116049910D01*
X157650565Y-116075500D01*
X157650567Y-116075500D01*
X157749432Y-116075500D01*
X157749435Y-116075500D01*
X157844938Y-116049910D01*
X157930562Y-116000475D01*
X158000475Y-115930562D01*
X158049910Y-115844938D01*
X158070752Y-115767152D01*
X158107116Y-115707495D01*
X158169962Y-115676965D01*
X158192438Y-115676565D01*
X158192438Y-115675500D01*
X158299432Y-115675500D01*
X158299435Y-115675500D01*
X158394938Y-115649910D01*
X158480562Y-115600475D01*
X158550475Y-115530562D01*
X158599910Y-115444938D01*
X158625500Y-115349435D01*
X158625500Y-115250565D01*
X158599910Y-115155062D01*
X158550475Y-115069438D01*
X158480562Y-114999525D01*
X158394938Y-114950090D01*
X158299435Y-114924500D01*
X158200565Y-114924500D01*
X158105062Y-114950090D01*
X158105060Y-114950091D01*
X158105059Y-114950091D01*
X158019436Y-114999526D01*
X157949526Y-115069436D01*
X157900091Y-115155059D01*
X157900090Y-115155060D01*
X157879248Y-115232845D01*
X157842882Y-115292506D01*
X157780035Y-115323034D01*
X157757562Y-115323438D01*
X157757562Y-115324500D01*
X157749435Y-115324500D01*
X157650565Y-115324500D01*
X157555062Y-115350090D01*
X157555060Y-115350091D01*
X157555059Y-115350091D01*
X157469436Y-115399526D01*
X157399526Y-115469436D01*
X157350091Y-115555059D01*
X157350088Y-115555066D01*
X157327512Y-115639320D01*
X157291147Y-115698980D01*
X157228300Y-115729508D01*
X157158924Y-115721213D01*
X157105047Y-115676727D01*
X157100526Y-115669504D01*
X157100475Y-115669438D01*
X157030563Y-115599526D01*
X157030562Y-115599525D01*
X156944938Y-115550090D01*
X156849435Y-115524500D01*
X156750565Y-115524500D01*
X156655062Y-115550090D01*
X156655060Y-115550091D01*
X156655059Y-115550091D01*
X156569436Y-115599526D01*
X156499526Y-115669436D01*
X156450091Y-115755059D01*
X156450091Y-115755060D01*
X156450090Y-115755062D01*
X156424500Y-115850565D01*
X153704826Y-115850565D01*
X153166442Y-115312181D01*
X153132957Y-115250858D01*
X153137941Y-115181166D01*
X153179813Y-115125233D01*
X153245277Y-115100816D01*
X153254123Y-115100500D01*
X154849826Y-115100500D01*
X154849828Y-115100500D01*
X154941897Y-115062364D01*
X155612364Y-114391897D01*
X155612364Y-114391896D01*
X155621000Y-114383261D01*
X155623372Y-114385633D01*
X155661501Y-114353747D01*
X155730823Y-114345017D01*
X155793861Y-114375152D01*
X155798709Y-114379746D01*
X155799525Y-114380562D01*
X155869438Y-114450475D01*
X155955062Y-114499910D01*
X156050565Y-114525500D01*
X156050567Y-114525500D01*
X156149432Y-114525500D01*
X156149435Y-114525500D01*
X156244938Y-114499910D01*
X156330562Y-114450475D01*
X156400475Y-114380562D01*
X156449910Y-114294938D01*
X156475500Y-114199435D01*
X156475500Y-114100565D01*
X156449910Y-114005062D01*
X156400475Y-113919438D01*
X156330562Y-113849525D01*
X156244938Y-113800090D01*
X156149435Y-113774500D01*
X156050565Y-113774500D01*
X155955062Y-113800090D01*
X155955060Y-113800091D01*
X155955059Y-113800091D01*
X155869436Y-113849526D01*
X155862181Y-113856782D01*
X155800858Y-113890267D01*
X155731166Y-113885283D01*
X155675233Y-113843411D01*
X155650816Y-113777947D01*
X155650500Y-113769101D01*
X155650500Y-113355899D01*
X155670185Y-113288860D01*
X155722989Y-113243105D01*
X155792147Y-113233161D01*
X155855703Y-113262186D01*
X155862181Y-113268218D01*
X155869438Y-113275475D01*
X155955062Y-113324910D01*
X156050565Y-113350500D01*
X156050567Y-113350500D01*
X156149432Y-113350500D01*
X156149435Y-113350500D01*
X156244938Y-113324910D01*
X156330562Y-113275475D01*
X156400475Y-113205562D01*
X156403360Y-113200565D01*
X157574500Y-113200565D01*
X157574500Y-113299435D01*
X157600090Y-113394938D01*
X157649525Y-113480562D01*
X157719438Y-113550475D01*
X157805062Y-113599910D01*
X157838093Y-113608760D01*
X157897753Y-113645125D01*
X157928282Y-113707972D01*
X157919987Y-113777348D01*
X157875502Y-113831225D01*
X157868001Y-113835921D01*
X157844436Y-113849526D01*
X157774526Y-113919436D01*
X157725091Y-114005059D01*
X157725091Y-114005060D01*
X157725090Y-114005062D01*
X157699500Y-114100565D01*
X157699500Y-114199435D01*
X157725090Y-114294938D01*
X157725091Y-114294939D01*
X157725091Y-114294940D01*
X157727913Y-114299828D01*
X157774525Y-114380562D01*
X157844438Y-114450475D01*
X157930062Y-114499910D01*
X158025565Y-114525500D01*
X158025567Y-114525500D01*
X158124432Y-114525500D01*
X158124435Y-114525500D01*
X158219938Y-114499910D01*
X158305562Y-114450475D01*
X158375475Y-114380562D01*
X158424910Y-114294938D01*
X158450500Y-114199435D01*
X158450500Y-114100565D01*
X158424910Y-114005062D01*
X158375475Y-113919438D01*
X158305562Y-113849525D01*
X158219938Y-113800090D01*
X158219937Y-113800089D01*
X158219933Y-113800088D01*
X158186905Y-113791238D01*
X158127245Y-113754872D01*
X158096717Y-113692025D01*
X158105013Y-113622650D01*
X158149499Y-113568772D01*
X158156953Y-113564105D01*
X158180562Y-113550475D01*
X158250475Y-113480562D01*
X158299910Y-113394938D01*
X158325500Y-113299435D01*
X158325500Y-113200565D01*
X158299910Y-113105062D01*
X158250475Y-113019438D01*
X158180562Y-112949525D01*
X158094938Y-112900090D01*
X157999435Y-112874500D01*
X157900565Y-112874500D01*
X157805062Y-112900090D01*
X157805060Y-112900091D01*
X157805059Y-112900091D01*
X157719436Y-112949526D01*
X157649526Y-113019436D01*
X157600091Y-113105059D01*
X157600091Y-113105060D01*
X157600090Y-113105062D01*
X157574500Y-113200565D01*
X156403360Y-113200565D01*
X156449910Y-113119938D01*
X156475500Y-113024435D01*
X156475500Y-112925565D01*
X156449910Y-112830062D01*
X156400475Y-112744438D01*
X156330562Y-112674525D01*
X156244938Y-112625090D01*
X156149435Y-112599500D01*
X156050565Y-112599500D01*
X155955062Y-112625090D01*
X155955060Y-112625091D01*
X155955059Y-112625091D01*
X155869436Y-112674526D01*
X155862181Y-112681782D01*
X155800858Y-112715267D01*
X155731166Y-112710283D01*
X155675233Y-112668411D01*
X155650816Y-112602947D01*
X155650500Y-112594101D01*
X155650500Y-112196447D01*
X155670185Y-112129408D01*
X155722989Y-112083653D01*
X155792147Y-112073709D01*
X155836496Y-112089058D01*
X155893444Y-112121937D01*
X155988947Y-112147527D01*
X155988949Y-112147527D01*
X156087814Y-112147527D01*
X156087817Y-112147527D01*
X156183320Y-112121937D01*
X156268944Y-112072502D01*
X156338857Y-112002589D01*
X156388292Y-111916965D01*
X156413882Y-111821462D01*
X156413882Y-111722592D01*
X156388292Y-111627089D01*
X156338857Y-111541465D01*
X156268944Y-111471552D01*
X156183320Y-111422117D01*
X156087817Y-111396527D01*
X155988947Y-111396527D01*
X155925278Y-111413587D01*
X155893443Y-111422117D01*
X155836499Y-111454994D01*
X155830597Y-111456425D01*
X155826011Y-111460400D01*
X155797048Y-111464564D01*
X155768599Y-111471466D01*
X155762861Y-111469480D01*
X155756853Y-111470344D01*
X155730231Y-111458186D01*
X155702572Y-111448613D01*
X155698819Y-111443840D01*
X155693297Y-111441319D01*
X155677473Y-111416696D01*
X155659382Y-111393691D01*
X155657965Y-111386341D01*
X155655523Y-111382541D01*
X155650500Y-111347606D01*
X155650500Y-111250565D01*
X157524500Y-111250565D01*
X157524500Y-111349435D01*
X157550090Y-111444938D01*
X157550091Y-111444939D01*
X157550091Y-111444940D01*
X157555896Y-111454994D01*
X157599525Y-111530562D01*
X157669438Y-111600475D01*
X157755062Y-111649910D01*
X157850565Y-111675500D01*
X157850567Y-111675500D01*
X157949432Y-111675500D01*
X157949435Y-111675500D01*
X158044938Y-111649910D01*
X158130562Y-111600475D01*
X158200475Y-111530562D01*
X158249910Y-111444938D01*
X158275500Y-111349435D01*
X158275500Y-111250565D01*
X158249910Y-111155062D01*
X158200475Y-111069438D01*
X158130562Y-110999525D01*
X158044938Y-110950090D01*
X157949435Y-110924500D01*
X157850565Y-110924500D01*
X157755062Y-110950090D01*
X157755060Y-110950091D01*
X157755059Y-110950091D01*
X157669436Y-110999526D01*
X157599526Y-111069436D01*
X157550091Y-111155059D01*
X157550091Y-111155060D01*
X157550090Y-111155062D01*
X157524500Y-111250565D01*
X155650500Y-111250565D01*
X155650500Y-110705122D01*
X155670185Y-110638083D01*
X155686819Y-110617441D01*
X155992441Y-110311819D01*
X156053764Y-110278334D01*
X156080122Y-110275500D01*
X156099432Y-110275500D01*
X156099435Y-110275500D01*
X156194938Y-110249910D01*
X156280562Y-110200475D01*
X156350475Y-110130562D01*
X156399910Y-110044938D01*
X156425500Y-109949435D01*
X156425500Y-109850565D01*
X156399910Y-109755062D01*
X156350475Y-109669438D01*
X156280562Y-109599525D01*
X156194938Y-109550090D01*
X156099435Y-109524500D01*
X156000565Y-109524500D01*
X155905062Y-109550090D01*
X155905060Y-109550091D01*
X155905059Y-109550091D01*
X155819436Y-109599526D01*
X155749526Y-109669436D01*
X155700091Y-109755059D01*
X155700091Y-109755060D01*
X155700090Y-109755062D01*
X155674500Y-109850565D01*
X155674500Y-109850567D01*
X155674500Y-109869876D01*
X155654815Y-109936915D01*
X155638181Y-109957557D01*
X155240661Y-110355076D01*
X155240662Y-110355077D01*
X155187636Y-110408103D01*
X155149500Y-110500170D01*
X155149500Y-111036988D01*
X155129815Y-111104027D01*
X155077011Y-111149782D01*
X155007853Y-111159726D01*
X154944297Y-111130701D01*
X154918114Y-111098989D01*
X154900474Y-111068437D01*
X154830563Y-110998526D01*
X154830562Y-110998525D01*
X154744938Y-110949090D01*
X154649435Y-110923500D01*
X154550565Y-110923500D01*
X154455062Y-110949090D01*
X154455060Y-110949091D01*
X154455059Y-110949091D01*
X154369436Y-110998526D01*
X154299526Y-111068436D01*
X154250091Y-111154059D01*
X154250091Y-111154060D01*
X154250090Y-111154062D01*
X154224500Y-111249565D01*
X154224500Y-111348435D01*
X154250090Y-111443938D01*
X154250091Y-111443939D01*
X154250091Y-111443940D01*
X154252789Y-111448613D01*
X154299525Y-111529562D01*
X154369438Y-111599475D01*
X154455062Y-111648910D01*
X154462101Y-111652974D01*
X154461419Y-111654153D01*
X154509156Y-111692615D01*
X154531228Y-111758907D01*
X154513955Y-111826608D01*
X154469309Y-111870731D01*
X154419436Y-111899526D01*
X154349526Y-111969436D01*
X154300091Y-112055059D01*
X154300091Y-112055060D01*
X154300090Y-112055062D01*
X154274500Y-112150565D01*
X154274500Y-112249435D01*
X154300090Y-112344938D01*
X154349525Y-112430562D01*
X154419438Y-112500475D01*
X154505062Y-112549910D01*
X154600565Y-112575500D01*
X154600567Y-112575500D01*
X154699432Y-112575500D01*
X154699435Y-112575500D01*
X154794938Y-112549910D01*
X154880562Y-112500475D01*
X154937819Y-112443218D01*
X154999142Y-112409733D01*
X155068834Y-112414717D01*
X155124767Y-112456589D01*
X155149184Y-112522053D01*
X155149500Y-112530899D01*
X155149500Y-112819101D01*
X155129815Y-112886140D01*
X155077011Y-112931895D01*
X155007853Y-112941839D01*
X154944297Y-112912814D01*
X154937819Y-112906782D01*
X154930563Y-112899526D01*
X154930562Y-112899525D01*
X154844938Y-112850090D01*
X154749435Y-112824500D01*
X154650565Y-112824500D01*
X154555062Y-112850090D01*
X154555060Y-112850091D01*
X154555059Y-112850091D01*
X154469436Y-112899526D01*
X154399526Y-112969436D01*
X154350091Y-113055059D01*
X154350091Y-113055060D01*
X154350090Y-113055062D01*
X154324500Y-113150565D01*
X154324500Y-113249435D01*
X154350090Y-113344938D01*
X154385666Y-113406558D01*
X154399526Y-113430563D01*
X154431282Y-113462319D01*
X154464767Y-113523642D01*
X154459783Y-113593334D01*
X154431282Y-113637681D01*
X154399526Y-113669436D01*
X154350091Y-113755059D01*
X154350091Y-113755060D01*
X154350090Y-113755062D01*
X154324500Y-113850565D01*
X154324500Y-113949435D01*
X154350090Y-114044938D01*
X154399525Y-114130562D01*
X154469438Y-114200475D01*
X154555062Y-114249910D01*
X154650565Y-114275500D01*
X154650567Y-114275500D01*
X154720877Y-114275500D01*
X154742122Y-114281738D01*
X154764211Y-114283318D01*
X154774994Y-114291390D01*
X154787916Y-114295185D01*
X154802415Y-114311918D01*
X154820144Y-114325190D01*
X154824851Y-114337810D01*
X154833671Y-114347989D01*
X154836822Y-114369906D01*
X154844561Y-114390654D01*
X154841698Y-114403814D01*
X154843615Y-114417147D01*
X154834415Y-114437290D01*
X154829709Y-114458927D01*
X154816440Y-114476652D01*
X154814590Y-114480703D01*
X154808558Y-114487181D01*
X154732558Y-114563181D01*
X154671235Y-114596666D01*
X154644877Y-114599500D01*
X149767712Y-114599500D01*
X149700673Y-114579815D01*
X149654918Y-114527011D01*
X149644974Y-114457853D01*
X149660323Y-114413504D01*
X149699910Y-114344938D01*
X149725500Y-114249435D01*
X149725500Y-114150565D01*
X149699910Y-114055062D01*
X149650475Y-113969438D01*
X149580562Y-113899525D01*
X149494938Y-113850090D01*
X149399435Y-113824500D01*
X149300565Y-113824500D01*
X149205062Y-113850090D01*
X149205060Y-113850091D01*
X149205059Y-113850091D01*
X149119436Y-113899526D01*
X149049526Y-113969436D01*
X149000091Y-114055059D01*
X149000091Y-114055060D01*
X149000090Y-114055062D01*
X148974500Y-114150565D01*
X148974500Y-114249435D01*
X149000090Y-114344938D01*
X149000091Y-114344939D01*
X149000091Y-114344940D01*
X149001851Y-114347989D01*
X149049525Y-114430562D01*
X149119438Y-114500475D01*
X149138507Y-114511484D01*
X149155746Y-114529563D01*
X149175749Y-114544528D01*
X149179439Y-114554412D01*
X149186721Y-114562049D01*
X149191449Y-114586581D01*
X149200187Y-114609984D01*
X149197947Y-114620293D01*
X149199945Y-114630656D01*
X149190659Y-114653851D01*
X149185357Y-114678262D01*
X149175739Y-114691117D01*
X149173977Y-114695521D01*
X149164215Y-114706523D01*
X149162664Y-114708075D01*
X149162635Y-114708104D01*
X148235076Y-115635662D01*
X148173753Y-115669147D01*
X148104061Y-115664163D01*
X148048128Y-115622291D01*
X148023711Y-115556827D01*
X148023395Y-115547981D01*
X148023395Y-115492246D01*
X148023395Y-115492244D01*
X147997805Y-115396741D01*
X147948370Y-115311117D01*
X147878457Y-115241204D01*
X147792833Y-115191769D01*
X147697330Y-115166179D01*
X147598460Y-115166179D01*
X147502957Y-115191769D01*
X147502955Y-115191770D01*
X147502954Y-115191770D01*
X147417331Y-115241205D01*
X147347421Y-115311115D01*
X147297986Y-115396738D01*
X147297986Y-115396739D01*
X147297985Y-115396741D01*
X147272395Y-115492244D01*
X147272395Y-115591114D01*
X147297985Y-115686617D01*
X147347420Y-115772241D01*
X147417333Y-115842154D01*
X147502957Y-115891589D01*
X147598460Y-115917179D01*
X147598462Y-115917179D01*
X147654197Y-115917179D01*
X147721236Y-115936864D01*
X147766991Y-115989668D01*
X147776935Y-116058826D01*
X147747910Y-116122382D01*
X147741878Y-116128860D01*
X147615661Y-116255076D01*
X147615662Y-116255077D01*
X147482556Y-116388182D01*
X147421236Y-116421666D01*
X147394877Y-116424500D01*
X145990191Y-116424500D01*
X145923152Y-116404815D01*
X145877397Y-116352011D01*
X145867453Y-116282853D01*
X145870413Y-116268417D01*
X145875500Y-116249435D01*
X145875500Y-116150565D01*
X145849910Y-116055062D01*
X145849905Y-116055054D01*
X145846799Y-116047552D01*
X145848440Y-116046872D01*
X145834325Y-115988711D01*
X145857172Y-115922682D01*
X145912090Y-115879487D01*
X145981643Y-115872840D01*
X146020181Y-115887212D01*
X146054202Y-115906854D01*
X146149705Y-115932444D01*
X146149707Y-115932444D01*
X146248572Y-115932444D01*
X146248575Y-115932444D01*
X146344078Y-115906854D01*
X146429702Y-115857419D01*
X146499615Y-115787506D01*
X146549050Y-115701882D01*
X146574640Y-115606379D01*
X146574640Y-115507509D01*
X146549050Y-115412006D01*
X146499615Y-115326382D01*
X146429702Y-115256469D01*
X146344078Y-115207034D01*
X146248575Y-115181444D01*
X146149705Y-115181444D01*
X146054202Y-115207034D01*
X146054200Y-115207035D01*
X146054199Y-115207035D01*
X145968576Y-115256470D01*
X145898666Y-115326380D01*
X145849231Y-115412003D01*
X145849231Y-115412004D01*
X145849230Y-115412006D01*
X145823640Y-115507509D01*
X145823640Y-115606379D01*
X145849230Y-115701882D01*
X145849231Y-115701883D01*
X145852341Y-115709392D01*
X145850701Y-115710071D01*
X145864814Y-115768240D01*
X145841963Y-115834267D01*
X145787043Y-115877459D01*
X145717489Y-115884102D01*
X145678954Y-115869729D01*
X145644940Y-115850091D01*
X145644939Y-115850090D01*
X145644938Y-115850090D01*
X145549435Y-115824500D01*
X145450565Y-115824500D01*
X145355062Y-115850090D01*
X145355060Y-115850091D01*
X145355059Y-115850091D01*
X145269436Y-115899526D01*
X145199526Y-115969436D01*
X145150091Y-116055059D01*
X145150091Y-116055060D01*
X145150090Y-116055062D01*
X145124500Y-116150565D01*
X145124500Y-116249435D01*
X145129583Y-116268408D01*
X145128988Y-116293401D01*
X145132547Y-116318147D01*
X145128171Y-116327727D01*
X145127921Y-116338256D01*
X145113908Y-116358960D01*
X145103522Y-116381703D01*
X145094662Y-116387396D01*
X145088759Y-116396119D01*
X145065775Y-116405960D01*
X145044744Y-116419477D01*
X145028888Y-116421756D01*
X145024530Y-116423623D01*
X145009809Y-116424500D01*
X144980123Y-116424500D01*
X144913084Y-116404815D01*
X144892442Y-116388181D01*
X144686819Y-116182558D01*
X144653334Y-116121235D01*
X144650500Y-116094877D01*
X144650500Y-115856899D01*
X144670185Y-115789860D01*
X144686819Y-115769218D01*
X144688882Y-115767155D01*
X144700475Y-115755562D01*
X144749910Y-115669938D01*
X144775500Y-115574435D01*
X144775500Y-115475565D01*
X144773194Y-115466958D01*
X144774857Y-115397110D01*
X144814020Y-115339248D01*
X144878249Y-115311744D01*
X144882353Y-115311499D01*
X144887156Y-115310867D01*
X144887159Y-115310867D01*
X144982662Y-115285277D01*
X145068286Y-115235842D01*
X145138199Y-115165929D01*
X145187634Y-115080305D01*
X145213224Y-114984802D01*
X145213224Y-114885932D01*
X145187634Y-114790429D01*
X145138199Y-114704805D01*
X145068286Y-114634892D01*
X144982662Y-114585457D01*
X144899527Y-114563181D01*
X144887156Y-114559866D01*
X144879099Y-114558806D01*
X144879490Y-114555830D01*
X144871010Y-114553340D01*
X144847933Y-114551295D01*
X144838114Y-114543681D01*
X144826198Y-114540182D01*
X144811029Y-114522677D01*
X144792720Y-114508478D01*
X144785422Y-114493124D01*
X144780443Y-114487378D01*
X144776335Y-114477218D01*
X144774718Y-114472647D01*
X144749910Y-114380062D01*
X144704012Y-114300565D01*
X147024500Y-114300565D01*
X147024500Y-114399435D01*
X147050090Y-114494938D01*
X147050091Y-114494939D01*
X147050091Y-114494940D01*
X147053285Y-114500472D01*
X147099525Y-114580562D01*
X147169438Y-114650475D01*
X147255062Y-114699910D01*
X147350565Y-114725500D01*
X147350567Y-114725500D01*
X147449432Y-114725500D01*
X147449435Y-114725500D01*
X147544938Y-114699910D01*
X147630562Y-114650475D01*
X147700475Y-114580562D01*
X147749910Y-114494938D01*
X147775500Y-114399435D01*
X147775500Y-114300565D01*
X147749910Y-114205062D01*
X147700475Y-114119438D01*
X147630562Y-114049525D01*
X147544938Y-114000090D01*
X147449435Y-113974500D01*
X147350565Y-113974500D01*
X147255062Y-114000090D01*
X147255060Y-114000091D01*
X147255059Y-114000091D01*
X147169436Y-114049526D01*
X147099526Y-114119436D01*
X147050091Y-114205059D01*
X147050091Y-114205060D01*
X147050090Y-114205062D01*
X147024500Y-114300565D01*
X144704012Y-114300565D01*
X144700475Y-114294438D01*
X144630562Y-114224525D01*
X144544938Y-114175090D01*
X144449435Y-114149500D01*
X144350565Y-114149500D01*
X144255062Y-114175090D01*
X144255060Y-114175091D01*
X144255059Y-114175091D01*
X144169436Y-114224526D01*
X144099526Y-114294436D01*
X144050091Y-114380059D01*
X144050091Y-114380060D01*
X144050090Y-114380062D01*
X144024500Y-114475565D01*
X144024500Y-114574435D01*
X144050090Y-114669938D01*
X144099525Y-114755562D01*
X144169438Y-114825475D01*
X144255062Y-114874910D01*
X144350565Y-114900500D01*
X144350567Y-114900500D01*
X144358625Y-114901561D01*
X144358233Y-114904536D01*
X144371203Y-114908344D01*
X144398663Y-114912961D01*
X144404264Y-114918052D01*
X144411526Y-114920185D01*
X144429757Y-114941225D01*
X144450365Y-114959957D01*
X144454641Y-114969943D01*
X144457281Y-114972989D01*
X144464260Y-114992401D01*
X144464528Y-114993401D01*
X144462869Y-115063251D01*
X144423709Y-115121115D01*
X144359482Y-115148622D01*
X144355376Y-115148866D01*
X144350567Y-115149499D01*
X144302813Y-115162295D01*
X144255062Y-115175090D01*
X144255060Y-115175091D01*
X144255059Y-115175091D01*
X144169436Y-115224526D01*
X144099526Y-115294436D01*
X144050091Y-115380059D01*
X144050091Y-115380060D01*
X144050090Y-115380062D01*
X144024500Y-115475565D01*
X144024500Y-115574435D01*
X144050090Y-115669938D01*
X144099236Y-115755062D01*
X144099526Y-115755563D01*
X144113181Y-115769218D01*
X144146666Y-115830541D01*
X144149500Y-115856899D01*
X144149500Y-116299829D01*
X144187636Y-116391897D01*
X144511735Y-116715996D01*
X144545220Y-116777319D01*
X144540236Y-116847011D01*
X144498364Y-116902944D01*
X144486058Y-116911061D01*
X144419438Y-116949525D01*
X144419435Y-116949527D01*
X144349526Y-117019436D01*
X144300091Y-117105059D01*
X144300091Y-117105060D01*
X144300090Y-117105062D01*
X144274500Y-117200565D01*
X144274500Y-117299435D01*
X144300090Y-117394938D01*
X144300091Y-117394939D01*
X144300091Y-117394940D01*
X144313337Y-117417882D01*
X144349525Y-117480562D01*
X144419438Y-117550475D01*
X144505062Y-117599910D01*
X144600565Y-117625500D01*
X144600567Y-117625500D01*
X144699432Y-117625500D01*
X144699435Y-117625500D01*
X144794938Y-117599910D01*
X144880562Y-117550475D01*
X144950475Y-117480562D01*
X144999910Y-117394938D01*
X145005726Y-117373232D01*
X145042089Y-117313574D01*
X145104936Y-117283044D01*
X145174312Y-117291338D01*
X145228190Y-117335823D01*
X145249465Y-117402375D01*
X145249500Y-117405327D01*
X145249500Y-118218101D01*
X145229815Y-118285140D01*
X145213181Y-118305782D01*
X145199526Y-118319436D01*
X145150091Y-118405059D01*
X145150091Y-118405060D01*
X145150090Y-118405062D01*
X145124500Y-118500565D01*
X145124500Y-118599435D01*
X145150090Y-118694938D01*
X145199525Y-118780562D01*
X145269438Y-118850475D01*
X145355062Y-118899910D01*
X145450565Y-118925500D01*
X145450567Y-118925500D01*
X145549432Y-118925500D01*
X145549435Y-118925500D01*
X145599933Y-118911969D01*
X145669780Y-118913632D01*
X145727643Y-118952794D01*
X145739410Y-118969742D01*
X145759791Y-119005043D01*
X145774525Y-119030562D01*
X145844438Y-119100475D01*
X145930062Y-119149910D01*
X146025565Y-119175500D01*
X146025567Y-119175500D01*
X146124432Y-119175500D01*
X146124435Y-119175500D01*
X146219938Y-119149910D01*
X146305406Y-119100565D01*
X146674500Y-119100565D01*
X146674500Y-119199435D01*
X146700090Y-119294938D01*
X146749525Y-119380562D01*
X146819438Y-119450475D01*
X146905062Y-119499910D01*
X147000565Y-119525500D01*
X147000567Y-119525500D01*
X147099432Y-119525500D01*
X147099435Y-119525500D01*
X147194938Y-119499910D01*
X147280562Y-119450475D01*
X147350475Y-119380562D01*
X147399910Y-119294938D01*
X147425500Y-119199435D01*
X147425500Y-119100565D01*
X147399910Y-119005062D01*
X147350475Y-118919438D01*
X147343718Y-118912681D01*
X147310233Y-118851358D01*
X147315217Y-118781666D01*
X147343718Y-118737319D01*
X147400475Y-118680562D01*
X147449910Y-118594938D01*
X147461800Y-118550565D01*
X153924500Y-118550565D01*
X153924500Y-118649435D01*
X153950090Y-118744938D01*
X153950091Y-118744939D01*
X153950091Y-118744940D01*
X153953287Y-118750475D01*
X153999525Y-118830562D01*
X154069438Y-118900475D01*
X154155062Y-118949910D01*
X154250565Y-118975500D01*
X154250567Y-118975500D01*
X154349432Y-118975500D01*
X154349435Y-118975500D01*
X154444938Y-118949910D01*
X154530562Y-118900475D01*
X154600475Y-118830562D01*
X154649910Y-118744938D01*
X154675500Y-118649435D01*
X154675500Y-118550565D01*
X154649910Y-118455062D01*
X154600475Y-118369438D01*
X154530562Y-118299525D01*
X154444938Y-118250090D01*
X154349435Y-118224500D01*
X154250565Y-118224500D01*
X154155062Y-118250090D01*
X154155060Y-118250091D01*
X154155059Y-118250091D01*
X154069436Y-118299526D01*
X153999526Y-118369436D01*
X153950091Y-118455059D01*
X153950091Y-118455060D01*
X153950090Y-118455062D01*
X153924500Y-118550565D01*
X147461800Y-118550565D01*
X147475500Y-118499435D01*
X147475500Y-118400565D01*
X147449910Y-118305062D01*
X147400475Y-118219438D01*
X147330562Y-118149525D01*
X147244938Y-118100090D01*
X147149435Y-118074500D01*
X147050565Y-118074500D01*
X146955062Y-118100090D01*
X146955060Y-118100091D01*
X146955059Y-118100091D01*
X146869436Y-118149526D01*
X146799526Y-118219436D01*
X146750091Y-118305059D01*
X146750091Y-118305060D01*
X146750090Y-118305062D01*
X146724500Y-118400565D01*
X146724500Y-118499435D01*
X146750090Y-118594938D01*
X146750091Y-118594939D01*
X146750091Y-118594940D01*
X146752686Y-118599435D01*
X146784801Y-118655060D01*
X146799526Y-118680563D01*
X146806282Y-118687319D01*
X146839767Y-118748642D01*
X146834783Y-118818334D01*
X146806282Y-118862681D01*
X146749526Y-118919436D01*
X146700091Y-119005059D01*
X146700091Y-119005060D01*
X146700090Y-119005062D01*
X146674500Y-119100565D01*
X146305406Y-119100565D01*
X146305562Y-119100475D01*
X146375475Y-119030562D01*
X146424910Y-118944938D01*
X146450500Y-118849435D01*
X146450500Y-118750565D01*
X146424910Y-118655062D01*
X146375475Y-118569438D01*
X146305562Y-118499525D01*
X146219938Y-118450090D01*
X146124435Y-118424500D01*
X146025565Y-118424500D01*
X146025563Y-118424500D01*
X145975067Y-118438030D01*
X145951785Y-118437475D01*
X145928833Y-118441446D01*
X145917506Y-118436658D01*
X145905217Y-118436366D01*
X145885930Y-118423312D01*
X145864476Y-118414244D01*
X145853563Y-118401405D01*
X145847355Y-118397203D01*
X145840612Y-118388240D01*
X145837949Y-118384345D01*
X145800475Y-118319438D01*
X145778651Y-118297614D01*
X145772137Y-118288086D01*
X145764765Y-118265393D01*
X145753334Y-118244459D01*
X145751043Y-118223153D01*
X145750550Y-118221635D01*
X145750784Y-118220744D01*
X145750500Y-118218101D01*
X145750500Y-117049500D01*
X145770185Y-116982461D01*
X145822989Y-116936706D01*
X145874500Y-116925500D01*
X147599826Y-116925500D01*
X147599828Y-116925500D01*
X147691897Y-116887364D01*
X147987364Y-116591897D01*
X147987364Y-116591896D01*
X149442441Y-115136819D01*
X149503764Y-115103334D01*
X149530122Y-115100500D01*
X150453420Y-115100500D01*
X150520459Y-115120185D01*
X150566214Y-115172989D01*
X150576158Y-115242147D01*
X150560808Y-115286497D01*
X150550090Y-115305062D01*
X150524500Y-115400565D01*
X150524500Y-115499435D01*
X150550090Y-115594938D01*
X150599525Y-115680562D01*
X150669438Y-115750475D01*
X150755062Y-115799910D01*
X150850565Y-115825500D01*
X150850567Y-115825500D01*
X150949432Y-115825500D01*
X150949435Y-115825500D01*
X151044938Y-115799910D01*
X151130562Y-115750475D01*
X151144218Y-115736819D01*
X151205541Y-115703334D01*
X151231899Y-115700500D01*
X152794877Y-115700500D01*
X152861916Y-115720185D01*
X152882558Y-115736819D01*
X155687636Y-118541897D01*
X155758103Y-118612364D01*
X155850172Y-118650500D01*
X158418101Y-118650500D01*
X158485140Y-118670185D01*
X158505782Y-118686819D01*
X158519438Y-118700475D01*
X158605062Y-118749910D01*
X158700565Y-118775500D01*
X158700567Y-118775500D01*
X158799432Y-118775500D01*
X158799435Y-118775500D01*
X158894938Y-118749910D01*
X158980562Y-118700475D01*
X159050475Y-118630562D01*
X159069214Y-118598105D01*
X159119780Y-118549890D01*
X159188387Y-118536668D01*
X159253252Y-118562636D01*
X159293780Y-118619550D01*
X159300600Y-118660106D01*
X159300600Y-121679100D01*
X159280915Y-121746139D01*
X159228111Y-121791894D01*
X159176600Y-121803100D01*
X158882105Y-121803100D01*
X158746777Y-121830018D01*
X158746767Y-121830021D01*
X158619295Y-121882821D01*
X158619282Y-121882828D01*
X158504558Y-121959485D01*
X158504554Y-121959488D01*
X158406988Y-122057054D01*
X158406985Y-122057058D01*
X158330328Y-122171782D01*
X158330321Y-122171795D01*
X158277521Y-122299267D01*
X158277518Y-122299277D01*
X158250600Y-122434604D01*
X158250600Y-122570201D01*
X158230915Y-122637240D01*
X158178111Y-122682995D01*
X158108953Y-122692939D01*
X158045397Y-122663914D01*
X158038919Y-122657882D01*
X157980563Y-122599526D01*
X157980562Y-122599525D01*
X157894938Y-122550090D01*
X157799435Y-122524500D01*
X157700565Y-122524500D01*
X157605062Y-122550090D01*
X157605060Y-122550091D01*
X157605059Y-122550091D01*
X157519436Y-122599526D01*
X157449526Y-122669436D01*
X157400091Y-122755059D01*
X157400091Y-122755060D01*
X157400090Y-122755062D01*
X157374500Y-122850565D01*
X157374500Y-122949435D01*
X157400090Y-123044938D01*
X157449525Y-123130562D01*
X157519438Y-123200475D01*
X157605062Y-123249910D01*
X157700565Y-123275500D01*
X157700567Y-123275500D01*
X157799432Y-123275500D01*
X157799435Y-123275500D01*
X157894938Y-123249910D01*
X157980562Y-123200475D01*
X158038919Y-123142118D01*
X158100242Y-123108633D01*
X158169934Y-123113617D01*
X158225867Y-123155489D01*
X158250284Y-123220953D01*
X158250600Y-123229799D01*
X158250600Y-125679100D01*
X158230915Y-125746139D01*
X158178111Y-125791894D01*
X158126600Y-125803100D01*
X143300600Y-125803100D01*
X143233561Y-125783415D01*
X143187806Y-125730611D01*
X143176600Y-125679100D01*
X143176600Y-123024755D01*
X143145837Y-122870103D01*
X143145835Y-122870098D01*
X143137744Y-122850565D01*
X145374500Y-122850565D01*
X145374500Y-122949435D01*
X145400090Y-123044938D01*
X145449525Y-123130562D01*
X145519438Y-123200475D01*
X145605062Y-123249910D01*
X145700565Y-123275500D01*
X145700567Y-123275500D01*
X145799432Y-123275500D01*
X145799435Y-123275500D01*
X145894938Y-123249910D01*
X145980562Y-123200475D01*
X146050475Y-123130562D01*
X146099910Y-123044938D01*
X146125500Y-122949435D01*
X146125500Y-122850565D01*
X146874500Y-122850565D01*
X146874500Y-122949435D01*
X146900090Y-123044938D01*
X146949525Y-123130562D01*
X147019438Y-123200475D01*
X147105062Y-123249910D01*
X147200565Y-123275500D01*
X147200567Y-123275500D01*
X147299432Y-123275500D01*
X147299435Y-123275500D01*
X147394938Y-123249910D01*
X147480562Y-123200475D01*
X147550475Y-123130562D01*
X147599910Y-123044938D01*
X147625500Y-122949435D01*
X147625500Y-122850565D01*
X148374500Y-122850565D01*
X148374500Y-122949435D01*
X148400090Y-123044938D01*
X148449525Y-123130562D01*
X148519438Y-123200475D01*
X148605062Y-123249910D01*
X148700565Y-123275500D01*
X148700567Y-123275500D01*
X148799432Y-123275500D01*
X148799435Y-123275500D01*
X148894938Y-123249910D01*
X148980562Y-123200475D01*
X149050475Y-123130562D01*
X149099910Y-123044938D01*
X149125500Y-122949435D01*
X149125500Y-122850565D01*
X149874500Y-122850565D01*
X149874500Y-122949435D01*
X149900090Y-123044938D01*
X149949525Y-123130562D01*
X150019438Y-123200475D01*
X150105062Y-123249910D01*
X150200565Y-123275500D01*
X150200567Y-123275500D01*
X150299432Y-123275500D01*
X150299435Y-123275500D01*
X150394938Y-123249910D01*
X150480562Y-123200475D01*
X150550475Y-123130562D01*
X150599910Y-123044938D01*
X150625500Y-122949435D01*
X150625500Y-122850565D01*
X151374500Y-122850565D01*
X151374500Y-122949435D01*
X151400090Y-123044938D01*
X151449525Y-123130562D01*
X151519438Y-123200475D01*
X151605062Y-123249910D01*
X151700565Y-123275500D01*
X151700567Y-123275500D01*
X151799432Y-123275500D01*
X151799435Y-123275500D01*
X151894938Y-123249910D01*
X151980562Y-123200475D01*
X152050475Y-123130562D01*
X152099910Y-123044938D01*
X152125500Y-122949435D01*
X152125500Y-122850565D01*
X152874500Y-122850565D01*
X152874500Y-122949435D01*
X152900090Y-123044938D01*
X152949525Y-123130562D01*
X153019438Y-123200475D01*
X153105062Y-123249910D01*
X153200565Y-123275500D01*
X153200567Y-123275500D01*
X153299432Y-123275500D01*
X153299435Y-123275500D01*
X153394938Y-123249910D01*
X153480562Y-123200475D01*
X153550475Y-123130562D01*
X153599910Y-123044938D01*
X153625500Y-122949435D01*
X153625500Y-122850565D01*
X154374500Y-122850565D01*
X154374500Y-122949435D01*
X154400090Y-123044938D01*
X154449525Y-123130562D01*
X154519438Y-123200475D01*
X154605062Y-123249910D01*
X154700565Y-123275500D01*
X154700567Y-123275500D01*
X154799432Y-123275500D01*
X154799435Y-123275500D01*
X154894938Y-123249910D01*
X154980562Y-123200475D01*
X155050475Y-123130562D01*
X155099910Y-123044938D01*
X155125500Y-122949435D01*
X155125500Y-122850565D01*
X155874500Y-122850565D01*
X155874500Y-122949435D01*
X155900090Y-123044938D01*
X155949525Y-123130562D01*
X156019438Y-123200475D01*
X156105062Y-123249910D01*
X156200565Y-123275500D01*
X156200567Y-123275500D01*
X156299432Y-123275500D01*
X156299435Y-123275500D01*
X156394938Y-123249910D01*
X156480562Y-123200475D01*
X156550475Y-123130562D01*
X156599910Y-123044938D01*
X156625500Y-122949435D01*
X156625500Y-122850565D01*
X156599910Y-122755062D01*
X156550475Y-122669438D01*
X156480562Y-122599525D01*
X156394938Y-122550090D01*
X156299435Y-122524500D01*
X156200565Y-122524500D01*
X156105062Y-122550090D01*
X156105060Y-122550091D01*
X156105059Y-122550091D01*
X156019436Y-122599526D01*
X155949526Y-122669436D01*
X155900091Y-122755059D01*
X155900091Y-122755060D01*
X155900090Y-122755062D01*
X155874500Y-122850565D01*
X155125500Y-122850565D01*
X155099910Y-122755062D01*
X155050475Y-122669438D01*
X154980562Y-122599525D01*
X154894938Y-122550090D01*
X154799435Y-122524500D01*
X154700565Y-122524500D01*
X154605062Y-122550090D01*
X154605060Y-122550091D01*
X154605059Y-122550091D01*
X154519436Y-122599526D01*
X154449526Y-122669436D01*
X154400091Y-122755059D01*
X154400091Y-122755060D01*
X154400090Y-122755062D01*
X154374500Y-122850565D01*
X153625500Y-122850565D01*
X153599910Y-122755062D01*
X153550475Y-122669438D01*
X153480562Y-122599525D01*
X153394938Y-122550090D01*
X153299435Y-122524500D01*
X153200565Y-122524500D01*
X153105062Y-122550090D01*
X153105060Y-122550091D01*
X153105059Y-122550091D01*
X153019436Y-122599526D01*
X152949526Y-122669436D01*
X152900091Y-122755059D01*
X152900091Y-122755060D01*
X152900090Y-122755062D01*
X152874500Y-122850565D01*
X152125500Y-122850565D01*
X152099910Y-122755062D01*
X152050475Y-122669438D01*
X151980562Y-122599525D01*
X151894938Y-122550090D01*
X151799435Y-122524500D01*
X151700565Y-122524500D01*
X151605062Y-122550090D01*
X151605060Y-122550091D01*
X151605059Y-122550091D01*
X151519436Y-122599526D01*
X151449526Y-122669436D01*
X151400091Y-122755059D01*
X151400091Y-122755060D01*
X151400090Y-122755062D01*
X151374500Y-122850565D01*
X150625500Y-122850565D01*
X150599910Y-122755062D01*
X150550475Y-122669438D01*
X150480562Y-122599525D01*
X150394938Y-122550090D01*
X150299435Y-122524500D01*
X150200565Y-122524500D01*
X150105062Y-122550090D01*
X150105060Y-122550091D01*
X150105059Y-122550091D01*
X150019436Y-122599526D01*
X149949526Y-122669436D01*
X149900091Y-122755059D01*
X149900091Y-122755060D01*
X149900090Y-122755062D01*
X149874500Y-122850565D01*
X149125500Y-122850565D01*
X149099910Y-122755062D01*
X149050475Y-122669438D01*
X148980562Y-122599525D01*
X148894938Y-122550090D01*
X148799435Y-122524500D01*
X148700565Y-122524500D01*
X148605062Y-122550090D01*
X148605060Y-122550091D01*
X148605059Y-122550091D01*
X148519436Y-122599526D01*
X148449526Y-122669436D01*
X148400091Y-122755059D01*
X148400091Y-122755060D01*
X148400090Y-122755062D01*
X148374500Y-122850565D01*
X147625500Y-122850565D01*
X147599910Y-122755062D01*
X147550475Y-122669438D01*
X147480562Y-122599525D01*
X147394938Y-122550090D01*
X147299435Y-122524500D01*
X147200565Y-122524500D01*
X147105062Y-122550090D01*
X147105060Y-122550091D01*
X147105059Y-122550091D01*
X147019436Y-122599526D01*
X146949526Y-122669436D01*
X146900091Y-122755059D01*
X146900091Y-122755060D01*
X146900090Y-122755062D01*
X146874500Y-122850565D01*
X146125500Y-122850565D01*
X146099910Y-122755062D01*
X146050475Y-122669438D01*
X145980562Y-122599525D01*
X145894938Y-122550090D01*
X145799435Y-122524500D01*
X145700565Y-122524500D01*
X145605062Y-122550090D01*
X145605060Y-122550091D01*
X145605059Y-122550091D01*
X145519436Y-122599526D01*
X145449526Y-122669436D01*
X145400091Y-122755059D01*
X145400091Y-122755060D01*
X145400090Y-122755062D01*
X145374500Y-122850565D01*
X143137744Y-122850565D01*
X143085497Y-122724427D01*
X143085490Y-122724414D01*
X142997889Y-122593311D01*
X142997886Y-122593307D01*
X142988868Y-122584289D01*
X142955383Y-122522966D01*
X142960367Y-122453274D01*
X143002239Y-122397341D01*
X143044456Y-122376833D01*
X143049431Y-122375500D01*
X143049435Y-122375500D01*
X143144938Y-122349910D01*
X143230562Y-122300475D01*
X143300475Y-122230562D01*
X143349910Y-122144938D01*
X143375500Y-122049435D01*
X143375500Y-121950565D01*
X143349910Y-121855062D01*
X143300475Y-121769438D01*
X143230562Y-121699525D01*
X143144938Y-121650090D01*
X143049435Y-121624500D01*
X142950565Y-121624500D01*
X142855062Y-121650090D01*
X142855060Y-121650091D01*
X142855059Y-121650091D01*
X142769436Y-121699526D01*
X142699526Y-121769436D01*
X142650091Y-121855059D01*
X142650091Y-121855060D01*
X142650090Y-121855062D01*
X142624500Y-121950565D01*
X142624500Y-122049435D01*
X142644501Y-122124080D01*
X142650092Y-122144945D01*
X142650234Y-122145287D01*
X142650267Y-122145597D01*
X142652194Y-122152788D01*
X142651071Y-122153088D01*
X142657696Y-122214757D01*
X142626414Y-122277233D01*
X142566322Y-122312879D01*
X142511476Y-122314345D01*
X142454944Y-122303100D01*
X142454942Y-122303100D01*
X142415982Y-122303100D01*
X142376100Y-122303100D01*
X142297258Y-122303100D01*
X142297255Y-122303100D01*
X142142610Y-122333861D01*
X142142598Y-122333864D01*
X141996927Y-122394202D01*
X141996914Y-122394209D01*
X141865811Y-122481810D01*
X141865807Y-122481813D01*
X141754313Y-122593307D01*
X141754310Y-122593311D01*
X141666709Y-122724414D01*
X141666702Y-122724427D01*
X141606364Y-122870098D01*
X141606361Y-122870110D01*
X141575600Y-123024753D01*
X141575600Y-125679100D01*
X141555915Y-125746139D01*
X141503111Y-125791894D01*
X141451600Y-125803100D01*
X140729500Y-125803100D01*
X140662461Y-125783415D01*
X140616706Y-125730611D01*
X140605500Y-125679100D01*
X140605500Y-123465772D01*
X140625185Y-123398733D01*
X140641814Y-123378095D01*
X140710995Y-123308915D01*
X140717342Y-123302178D01*
X140727132Y-123291147D01*
X140755192Y-123245721D01*
X140781159Y-123180856D01*
X140783745Y-123173921D01*
X140789486Y-123093633D01*
X140776262Y-123025026D01*
X140774689Y-123017793D01*
X140736111Y-122947147D01*
X140687895Y-122896582D01*
X140687894Y-122896581D01*
X140682276Y-122892163D01*
X140671247Y-122882374D01*
X140635501Y-122846628D01*
X140615794Y-122820946D01*
X140603152Y-122799049D01*
X140590765Y-122769142D01*
X140584225Y-122744733D01*
X140580000Y-122712641D01*
X140580000Y-122687357D01*
X140584223Y-122655271D01*
X140590767Y-122630848D01*
X140603151Y-122600950D01*
X140615798Y-122579044D01*
X140635498Y-122553372D01*
X140653372Y-122535498D01*
X140679044Y-122515799D01*
X140732810Y-122484758D01*
X140732809Y-122484757D01*
X140746387Y-122476919D01*
X140751556Y-122474096D01*
X140768348Y-122465440D01*
X140825869Y-122414387D01*
X140865032Y-122356525D01*
X140869034Y-122350298D01*
X140891712Y-122273066D01*
X140893375Y-122203216D01*
X140888120Y-122159268D01*
X140884223Y-122144726D01*
X140880000Y-122112638D01*
X140880000Y-122087361D01*
X140884224Y-122055270D01*
X140888121Y-122040728D01*
X140893244Y-122007862D01*
X140893244Y-122007856D01*
X140893245Y-122007852D01*
X140895747Y-121955176D01*
X140880893Y-121882828D01*
X140880275Y-121879817D01*
X140849730Y-121816978D01*
X140849728Y-121816973D01*
X140846338Y-121810402D01*
X140846337Y-121810400D01*
X140790776Y-121752159D01*
X140790773Y-121752157D01*
X140790772Y-121752156D01*
X140775860Y-121743071D01*
X140775860Y-121743072D01*
X140775591Y-121742908D01*
X140742436Y-121722711D01*
X140742414Y-121722746D01*
X140732098Y-121716477D01*
X140732812Y-121715243D01*
X140677846Y-121683508D01*
X140676656Y-121682785D01*
X140675384Y-121681389D01*
X140653372Y-121664499D01*
X140635498Y-121646625D01*
X140615795Y-121620948D01*
X140603152Y-121599050D01*
X140590768Y-121569152D01*
X140584224Y-121544726D01*
X140580000Y-121512636D01*
X140580000Y-121487357D01*
X140584223Y-121455271D01*
X140590767Y-121430848D01*
X140603151Y-121400950D01*
X140615798Y-121379044D01*
X140635498Y-121353372D01*
X140653371Y-121335499D01*
X140679046Y-121315797D01*
X140700948Y-121303153D01*
X140730851Y-121290766D01*
X140758432Y-121283376D01*
X140777265Y-121279864D01*
X140779965Y-121279573D01*
X140809055Y-121276446D01*
X140860566Y-121265240D01*
X140929342Y-121230813D01*
X140982146Y-121185058D01*
X140987621Y-121180080D01*
X141029516Y-121111350D01*
X141049201Y-121044311D01*
X141055500Y-121000500D01*
X141055500Y-120700565D01*
X146544500Y-120700565D01*
X146544500Y-120799435D01*
X146570090Y-120894938D01*
X146619525Y-120980562D01*
X146689438Y-121050475D01*
X146775062Y-121099910D01*
X146870565Y-121125500D01*
X146870567Y-121125500D01*
X146969432Y-121125500D01*
X146969435Y-121125500D01*
X147064938Y-121099910D01*
X147150562Y-121050475D01*
X147220475Y-120980562D01*
X147269910Y-120894938D01*
X147295500Y-120799435D01*
X147295500Y-120700565D01*
X147269910Y-120605062D01*
X147220475Y-120519438D01*
X147150562Y-120449525D01*
X147064938Y-120400090D01*
X146969435Y-120374500D01*
X146870565Y-120374500D01*
X146775062Y-120400090D01*
X146775060Y-120400091D01*
X146775059Y-120400091D01*
X146689436Y-120449526D01*
X146619526Y-120519436D01*
X146570091Y-120605059D01*
X146570091Y-120605060D01*
X146570090Y-120605062D01*
X146544500Y-120700565D01*
X141055500Y-120700565D01*
X141055500Y-120099500D01*
X141075185Y-120032461D01*
X141127989Y-119986706D01*
X141179500Y-119975500D01*
X141199432Y-119975500D01*
X141199435Y-119975500D01*
X141294938Y-119949910D01*
X141380562Y-119900475D01*
X141450475Y-119830562D01*
X141499910Y-119744938D01*
X141525500Y-119649435D01*
X141525500Y-119550565D01*
X157674500Y-119550565D01*
X157674500Y-119649435D01*
X157700090Y-119744938D01*
X157749525Y-119830562D01*
X157819438Y-119900475D01*
X157905062Y-119949910D01*
X158000565Y-119975500D01*
X158000567Y-119975500D01*
X158099432Y-119975500D01*
X158099435Y-119975500D01*
X158194938Y-119949910D01*
X158280562Y-119900475D01*
X158350475Y-119830562D01*
X158399910Y-119744938D01*
X158425500Y-119649435D01*
X158425500Y-119550565D01*
X158399910Y-119455062D01*
X158350475Y-119369438D01*
X158280562Y-119299525D01*
X158194938Y-119250090D01*
X158099435Y-119224500D01*
X158000565Y-119224500D01*
X157905062Y-119250090D01*
X157905060Y-119250091D01*
X157905059Y-119250091D01*
X157819436Y-119299526D01*
X157749526Y-119369436D01*
X157700091Y-119455059D01*
X157700091Y-119455060D01*
X157700090Y-119455062D01*
X157674500Y-119550565D01*
X141525500Y-119550565D01*
X141499910Y-119455062D01*
X141450475Y-119369438D01*
X141380562Y-119299525D01*
X141294938Y-119250090D01*
X141199435Y-119224500D01*
X141179500Y-119224500D01*
X141112461Y-119204815D01*
X141066706Y-119152011D01*
X141055500Y-119100500D01*
X141055500Y-118453250D01*
X141075185Y-118386211D01*
X141127989Y-118340456D01*
X141179500Y-118329250D01*
X141238056Y-118329250D01*
X141238059Y-118329250D01*
X141352636Y-118298549D01*
X141455363Y-118239239D01*
X141539239Y-118155363D01*
X141598549Y-118052636D01*
X141629250Y-117938059D01*
X141629250Y-117819441D01*
X141598549Y-117704864D01*
X141539239Y-117602137D01*
X141455363Y-117518261D01*
X141352636Y-117458951D01*
X141238059Y-117428250D01*
X141179500Y-117428250D01*
X141112461Y-117408565D01*
X141066706Y-117355761D01*
X141055500Y-117304250D01*
X141055500Y-115635104D01*
X141055271Y-115629598D01*
X141054961Y-115622155D01*
X141053244Y-115601592D01*
X141053242Y-115601587D01*
X141052245Y-115595956D01*
X141053771Y-115595685D01*
X141054884Y-115533181D01*
X141093187Y-115475514D01*
X141101632Y-115468377D01*
X141130562Y-115451675D01*
X141180523Y-115401713D01*
X141184485Y-115398366D01*
X141211877Y-115386264D01*
X141238160Y-115371913D01*
X141243500Y-115372294D01*
X141248396Y-115370132D01*
X141277982Y-115374760D01*
X141307851Y-115376897D01*
X141312135Y-115380104D01*
X141317426Y-115380932D01*
X141339818Y-115400826D01*
X141363785Y-115418768D01*
X141366650Y-115424667D01*
X141369658Y-115427339D01*
X141371987Y-115435652D01*
X141384293Y-115460982D01*
X141388201Y-115475567D01*
X141400090Y-115519939D01*
X141400091Y-115519940D01*
X141449525Y-115605562D01*
X141519438Y-115675475D01*
X141605062Y-115724910D01*
X141700565Y-115750500D01*
X141700567Y-115750500D01*
X141799432Y-115750500D01*
X141799435Y-115750500D01*
X141894938Y-115724910D01*
X141980562Y-115675475D01*
X142050475Y-115605562D01*
X142099910Y-115519938D01*
X142125500Y-115424435D01*
X142125500Y-115325565D01*
X142123334Y-115317481D01*
X142124997Y-115247634D01*
X142164159Y-115189771D01*
X142181109Y-115178003D01*
X142186153Y-115175091D01*
X142248940Y-115138841D01*
X142318853Y-115068928D01*
X142368288Y-114983304D01*
X142393878Y-114887801D01*
X142393878Y-114788931D01*
X142368288Y-114693428D01*
X142318853Y-114607804D01*
X142305197Y-114594148D01*
X142271712Y-114532825D01*
X142268878Y-114506467D01*
X142268878Y-113968551D01*
X142268877Y-113968548D01*
X142244521Y-113909747D01*
X142230742Y-113876481D01*
X142160275Y-113806014D01*
X141991897Y-113637636D01*
X141760819Y-113406558D01*
X141727334Y-113345235D01*
X141724500Y-113318877D01*
X141724500Y-111350565D01*
X142774500Y-111350565D01*
X142774500Y-111449435D01*
X142800090Y-111544938D01*
X142800091Y-111544939D01*
X142800091Y-111544940D01*
X142805935Y-111555062D01*
X142849525Y-111630562D01*
X142919438Y-111700475D01*
X143005062Y-111749910D01*
X143100565Y-111775500D01*
X143100567Y-111775500D01*
X143199432Y-111775500D01*
X143199435Y-111775500D01*
X143294938Y-111749910D01*
X143380562Y-111700475D01*
X143450475Y-111630562D01*
X143499910Y-111544938D01*
X143499910Y-111544935D01*
X143500878Y-111543260D01*
X143551445Y-111495045D01*
X143620052Y-111481821D01*
X143684917Y-111507789D01*
X143725445Y-111564703D01*
X143728770Y-111634494D01*
X143728047Y-111637326D01*
X143724500Y-111650565D01*
X143724500Y-111749435D01*
X143750090Y-111844938D01*
X143750091Y-111844939D01*
X143750091Y-111844940D01*
X143753339Y-111850565D01*
X143799525Y-111930562D01*
X143869438Y-112000475D01*
X143955062Y-112049910D01*
X144050565Y-112075500D01*
X144050567Y-112075500D01*
X144138986Y-112075500D01*
X144206025Y-112095185D01*
X144251780Y-112147989D01*
X144261724Y-112217147D01*
X144251451Y-112246827D01*
X144253201Y-112247552D01*
X144250090Y-112255060D01*
X144250090Y-112255062D01*
X144224500Y-112350565D01*
X144224500Y-112350567D01*
X144224500Y-112449436D01*
X144237513Y-112498003D01*
X144235850Y-112567853D01*
X144196686Y-112625715D01*
X144179740Y-112637481D01*
X144146601Y-112656614D01*
X144076691Y-112726524D01*
X144027256Y-112812147D01*
X144027256Y-112812148D01*
X144027255Y-112812150D01*
X144001665Y-112907653D01*
X144001665Y-113006523D01*
X144027255Y-113102026D01*
X144076690Y-113187650D01*
X144146603Y-113257563D01*
X144232227Y-113306998D01*
X144290368Y-113322576D01*
X144350026Y-113358939D01*
X144380556Y-113421785D01*
X144382273Y-113442350D01*
X144382273Y-113470353D01*
X144407863Y-113565856D01*
X144407864Y-113565857D01*
X144407864Y-113565858D01*
X144419715Y-113586385D01*
X144457298Y-113651480D01*
X144527211Y-113721393D01*
X144612835Y-113770828D01*
X144708338Y-113796418D01*
X144708340Y-113796418D01*
X144807205Y-113796418D01*
X144807208Y-113796418D01*
X144902711Y-113770828D01*
X144988335Y-113721393D01*
X145058248Y-113651480D01*
X145107683Y-113565856D01*
X145111780Y-113550565D01*
X145899498Y-113550565D01*
X145899498Y-113649435D01*
X145925088Y-113744938D01*
X145974523Y-113830562D01*
X146044436Y-113900475D01*
X146130060Y-113949910D01*
X146225563Y-113975500D01*
X146225565Y-113975500D01*
X146324430Y-113975500D01*
X146324433Y-113975500D01*
X146419936Y-113949910D01*
X146505560Y-113900475D01*
X146575473Y-113830562D01*
X146624908Y-113744938D01*
X146650498Y-113649435D01*
X146650498Y-113550565D01*
X146624908Y-113455062D01*
X146575473Y-113369438D01*
X146505560Y-113299525D01*
X146419936Y-113250090D01*
X146324433Y-113224500D01*
X146225563Y-113224500D01*
X146130060Y-113250090D01*
X146130058Y-113250091D01*
X146130057Y-113250091D01*
X146044434Y-113299526D01*
X145974524Y-113369436D01*
X145925089Y-113455059D01*
X145925089Y-113455060D01*
X145925088Y-113455062D01*
X145899498Y-113550565D01*
X145111780Y-113550565D01*
X145133273Y-113470353D01*
X145133273Y-113371483D01*
X145107683Y-113275980D01*
X145058248Y-113190356D01*
X144988335Y-113120443D01*
X144902713Y-113071009D01*
X144902712Y-113071008D01*
X144884668Y-113066173D01*
X144844569Y-113055428D01*
X144784911Y-113019065D01*
X144754382Y-112956218D01*
X144754197Y-112955084D01*
X144752665Y-112945427D01*
X144752665Y-112907653D01*
X144737974Y-112852826D01*
X144736958Y-112846421D01*
X144740630Y-112817945D01*
X144741314Y-112789235D01*
X144745043Y-112783724D01*
X144745895Y-112777125D01*
X144764383Y-112755150D01*
X144780477Y-112731373D01*
X144789885Y-112724840D01*
X144790877Y-112723662D01*
X144792149Y-112723268D01*
X144797414Y-112719612D01*
X144830562Y-112700475D01*
X144900475Y-112630562D01*
X144949910Y-112544938D01*
X144961800Y-112500565D01*
X145824500Y-112500565D01*
X145824500Y-112599435D01*
X145850090Y-112694938D01*
X145899525Y-112780562D01*
X145969438Y-112850475D01*
X146055062Y-112899910D01*
X146150565Y-112925500D01*
X146150567Y-112925500D01*
X146249432Y-112925500D01*
X146249435Y-112925500D01*
X146344938Y-112899910D01*
X146430562Y-112850475D01*
X146500475Y-112780562D01*
X146549910Y-112694938D01*
X146575500Y-112599435D01*
X146575500Y-112500565D01*
X146549910Y-112405062D01*
X146500475Y-112319438D01*
X146430562Y-112249525D01*
X146344938Y-112200090D01*
X146249435Y-112174500D01*
X146150565Y-112174500D01*
X146055062Y-112200090D01*
X146055060Y-112200091D01*
X146055059Y-112200091D01*
X145969436Y-112249526D01*
X145899526Y-112319436D01*
X145850091Y-112405059D01*
X145850091Y-112405060D01*
X145850090Y-112405062D01*
X145824500Y-112500565D01*
X144961800Y-112500565D01*
X144975500Y-112449435D01*
X144975500Y-112350565D01*
X144949910Y-112255062D01*
X144933819Y-112227192D01*
X144917346Y-112159295D01*
X144940197Y-112093268D01*
X144953525Y-112077512D01*
X144975978Y-112055059D01*
X145000475Y-112030562D01*
X145049910Y-111944938D01*
X145075500Y-111849435D01*
X145075500Y-111750565D01*
X145049910Y-111655062D01*
X145000475Y-111569438D01*
X145000473Y-111569436D01*
X145000472Y-111569434D01*
X144995526Y-111562988D01*
X144998250Y-111560897D01*
X144972364Y-111513489D01*
X144977348Y-111443797D01*
X145005849Y-111399449D01*
X145005954Y-111399343D01*
X145005959Y-111399341D01*
X145075872Y-111329428D01*
X145125307Y-111243804D01*
X145150897Y-111148301D01*
X145150897Y-111049431D01*
X145125307Y-110953928D01*
X145075872Y-110868304D01*
X145005959Y-110798391D01*
X144920335Y-110748956D01*
X144824832Y-110723366D01*
X144725962Y-110723366D01*
X144630459Y-110748956D01*
X144630457Y-110748957D01*
X144630456Y-110748957D01*
X144544833Y-110798392D01*
X144474923Y-110868302D01*
X144425488Y-110953925D01*
X144425488Y-110953926D01*
X144425487Y-110953928D01*
X144399897Y-111049431D01*
X144399897Y-111148301D01*
X144403241Y-111160782D01*
X144414983Y-111204603D01*
X144413320Y-111274453D01*
X144374157Y-111332315D01*
X144309928Y-111359819D01*
X144252850Y-111351959D01*
X144252788Y-111352194D01*
X144250920Y-111351693D01*
X144247757Y-111351258D01*
X144244941Y-111350092D01*
X144244938Y-111350090D01*
X144149435Y-111324500D01*
X144050565Y-111324500D01*
X144050563Y-111324500D01*
X144012351Y-111334739D01*
X143942501Y-111333076D01*
X143884639Y-111293913D01*
X143857136Y-111229684D01*
X143868723Y-111160782D01*
X143915722Y-111109082D01*
X143918198Y-111107612D01*
X143930562Y-111100475D01*
X144000475Y-111030562D01*
X144049910Y-110944938D01*
X144075500Y-110849435D01*
X144075500Y-110750565D01*
X144049910Y-110655062D01*
X144000475Y-110569438D01*
X143930562Y-110499525D01*
X143844938Y-110450090D01*
X143749435Y-110424500D01*
X143650565Y-110424500D01*
X143555062Y-110450090D01*
X143555060Y-110450091D01*
X143555059Y-110450091D01*
X143469436Y-110499526D01*
X143399526Y-110569436D01*
X143350091Y-110655059D01*
X143350091Y-110655060D01*
X143350090Y-110655062D01*
X143324500Y-110750565D01*
X143324500Y-110849435D01*
X143329665Y-110868714D01*
X143328003Y-110938562D01*
X143288841Y-110996425D01*
X143224612Y-111023929D01*
X143207562Y-111023829D01*
X143207562Y-111024500D01*
X143199435Y-111024500D01*
X143100565Y-111024500D01*
X143005062Y-111050090D01*
X143005060Y-111050091D01*
X143005059Y-111050091D01*
X142919436Y-111099526D01*
X142849526Y-111169436D01*
X142800091Y-111255059D01*
X142800091Y-111255060D01*
X142800090Y-111255062D01*
X142774500Y-111350565D01*
X141724500Y-111350565D01*
X141724500Y-110550565D01*
X142124500Y-110550565D01*
X142124500Y-110649435D01*
X142150090Y-110744938D01*
X142150091Y-110744939D01*
X142150091Y-110744940D01*
X142153065Y-110750091D01*
X142199525Y-110830562D01*
X142269438Y-110900475D01*
X142355062Y-110949910D01*
X142450565Y-110975500D01*
X142450567Y-110975500D01*
X142549432Y-110975500D01*
X142549435Y-110975500D01*
X142644938Y-110949910D01*
X142730562Y-110900475D01*
X142800475Y-110830562D01*
X142849910Y-110744938D01*
X142875500Y-110649435D01*
X142875500Y-110550565D01*
X142849910Y-110455062D01*
X142800475Y-110369438D01*
X142781602Y-110350565D01*
X145824500Y-110350565D01*
X145824500Y-110449435D01*
X145850090Y-110544938D01*
X145899525Y-110630562D01*
X145899526Y-110630563D01*
X145903589Y-110637600D01*
X145900607Y-110639321D01*
X145920078Y-110689669D01*
X145906047Y-110758116D01*
X145903376Y-110762280D01*
X145903588Y-110762403D01*
X145850091Y-110855062D01*
X145850091Y-110855063D01*
X145850090Y-110855065D01*
X145824500Y-110950568D01*
X145824500Y-111049438D01*
X145850090Y-111144941D01*
X145850091Y-111144942D01*
X145850091Y-111144943D01*
X145852885Y-111149782D01*
X145899525Y-111230565D01*
X145969438Y-111300478D01*
X146055062Y-111349913D01*
X146150565Y-111375503D01*
X146150567Y-111375503D01*
X146249432Y-111375503D01*
X146249435Y-111375503D01*
X146344938Y-111349913D01*
X146430562Y-111300478D01*
X146500475Y-111230565D01*
X146549910Y-111144941D01*
X146575198Y-111050565D01*
X150524500Y-111050565D01*
X150524500Y-111149435D01*
X150550090Y-111244938D01*
X150550091Y-111244939D01*
X150550091Y-111244940D01*
X150553339Y-111250565D01*
X150599525Y-111330562D01*
X150669438Y-111400475D01*
X150755062Y-111449910D01*
X150850565Y-111475500D01*
X150850567Y-111475500D01*
X150949432Y-111475500D01*
X150949435Y-111475500D01*
X151044938Y-111449910D01*
X151130562Y-111400475D01*
X151200475Y-111330562D01*
X151249910Y-111244938D01*
X151275500Y-111149435D01*
X151275500Y-111050565D01*
X151249910Y-110955062D01*
X151247314Y-110950565D01*
X152874500Y-110950565D01*
X152874500Y-111049435D01*
X152900090Y-111144938D01*
X152900091Y-111144939D01*
X152900091Y-111144940D01*
X152913337Y-111167882D01*
X152949525Y-111230562D01*
X153019438Y-111300475D01*
X153092424Y-111342614D01*
X153140639Y-111393181D01*
X153153861Y-111461788D01*
X153127893Y-111526652D01*
X153092425Y-111557385D01*
X153019525Y-111599475D01*
X153019435Y-111599527D01*
X152949526Y-111669436D01*
X152900091Y-111755059D01*
X152900091Y-111755060D01*
X152900090Y-111755062D01*
X152874500Y-111850565D01*
X152874500Y-111949435D01*
X152900090Y-112044938D01*
X152900091Y-112044939D01*
X152900091Y-112044940D01*
X152905933Y-112055059D01*
X152949525Y-112130562D01*
X153019438Y-112200475D01*
X153105062Y-112249910D01*
X153200565Y-112275500D01*
X153200567Y-112275500D01*
X153299432Y-112275500D01*
X153299435Y-112275500D01*
X153394938Y-112249910D01*
X153480562Y-112200475D01*
X153550475Y-112130562D01*
X153599910Y-112044938D01*
X153625500Y-111949435D01*
X153625500Y-111850565D01*
X153599910Y-111755062D01*
X153550475Y-111669438D01*
X153480562Y-111599525D01*
X153407575Y-111557385D01*
X153359360Y-111506820D01*
X153346137Y-111438213D01*
X153372106Y-111373348D01*
X153407574Y-111342614D01*
X153480562Y-111300475D01*
X153550475Y-111230562D01*
X153599910Y-111144938D01*
X153625500Y-111049435D01*
X153625500Y-110950565D01*
X153599910Y-110855062D01*
X153550475Y-110769438D01*
X153480562Y-110699525D01*
X153394938Y-110650090D01*
X153299435Y-110624500D01*
X153200565Y-110624500D01*
X153105062Y-110650090D01*
X153105060Y-110650091D01*
X153105059Y-110650091D01*
X153019436Y-110699526D01*
X152949526Y-110769436D01*
X152900091Y-110855059D01*
X152900091Y-110855060D01*
X152900090Y-110855062D01*
X152874500Y-110950565D01*
X151247314Y-110950565D01*
X151200475Y-110869438D01*
X151130562Y-110799525D01*
X151044938Y-110750090D01*
X150949435Y-110724500D01*
X150850565Y-110724500D01*
X150755062Y-110750090D01*
X150755060Y-110750091D01*
X150755059Y-110750091D01*
X150669436Y-110799526D01*
X150599526Y-110869436D01*
X150550091Y-110955059D01*
X150550091Y-110955060D01*
X150550090Y-110955062D01*
X150524500Y-111050565D01*
X146575198Y-111050565D01*
X146575500Y-111049438D01*
X146575500Y-110950568D01*
X146549910Y-110855065D01*
X146500475Y-110769441D01*
X146500473Y-110769439D01*
X146496411Y-110762403D01*
X146499398Y-110760678D01*
X146479925Y-110710378D01*
X146493931Y-110641926D01*
X146496629Y-110637727D01*
X146496411Y-110637601D01*
X146500475Y-110630562D01*
X146549910Y-110544938D01*
X146575500Y-110449435D01*
X146575500Y-110350565D01*
X146549910Y-110255062D01*
X146500475Y-110169438D01*
X146430562Y-110099525D01*
X146344938Y-110050090D01*
X146249435Y-110024500D01*
X146150565Y-110024500D01*
X146055062Y-110050090D01*
X146055060Y-110050091D01*
X146055059Y-110050091D01*
X145969436Y-110099526D01*
X145899526Y-110169436D01*
X145850091Y-110255059D01*
X145850091Y-110255060D01*
X145850090Y-110255062D01*
X145824500Y-110350565D01*
X142781602Y-110350565D01*
X142730562Y-110299525D01*
X142699184Y-110281408D01*
X142650971Y-110230844D01*
X142637749Y-110162236D01*
X142663717Y-110097372D01*
X142720631Y-110056844D01*
X142745006Y-110051084D01*
X142749421Y-110050502D01*
X142749435Y-110050502D01*
X142844938Y-110024912D01*
X142930562Y-109975477D01*
X143000475Y-109905564D01*
X143049910Y-109819940D01*
X143055102Y-109800565D01*
X146824500Y-109800565D01*
X146824500Y-109899435D01*
X146850090Y-109994938D01*
X146899525Y-110080562D01*
X146969438Y-110150475D01*
X147055062Y-110199910D01*
X147150565Y-110225500D01*
X147150567Y-110225500D01*
X147249432Y-110225500D01*
X147249435Y-110225500D01*
X147344938Y-110199910D01*
X147430562Y-110150475D01*
X147500475Y-110080562D01*
X147549910Y-109994938D01*
X147575500Y-109899435D01*
X147575500Y-109800565D01*
X147824500Y-109800565D01*
X147824500Y-109899435D01*
X147850090Y-109994938D01*
X147899525Y-110080562D01*
X147969438Y-110150475D01*
X148055062Y-110199910D01*
X148150565Y-110225500D01*
X148150567Y-110225500D01*
X148249432Y-110225500D01*
X148249435Y-110225500D01*
X148344938Y-110199910D01*
X148430562Y-110150475D01*
X148500475Y-110080562D01*
X148549910Y-109994938D01*
X148575500Y-109899435D01*
X148575500Y-109800565D01*
X148924500Y-109800565D01*
X148924500Y-109899435D01*
X148950090Y-109994938D01*
X148999525Y-110080562D01*
X149069438Y-110150475D01*
X149155062Y-110199910D01*
X149250565Y-110225500D01*
X149250567Y-110225500D01*
X149349432Y-110225500D01*
X149349435Y-110225500D01*
X149444938Y-110199910D01*
X149488502Y-110174758D01*
X149556399Y-110158286D01*
X149622426Y-110181138D01*
X149665617Y-110236059D01*
X149674500Y-110282146D01*
X149674500Y-110299435D01*
X149700090Y-110394938D01*
X149700091Y-110394939D01*
X149700091Y-110394940D01*
X149707691Y-110408103D01*
X149749525Y-110480562D01*
X149819438Y-110550475D01*
X149905062Y-110599910D01*
X150000565Y-110625500D01*
X150000567Y-110625500D01*
X150099432Y-110625500D01*
X150099435Y-110625500D01*
X150194938Y-110599910D01*
X150280562Y-110550475D01*
X150350475Y-110480562D01*
X150399910Y-110394938D01*
X150425500Y-110299435D01*
X150425500Y-110200565D01*
X150399910Y-110105062D01*
X150350475Y-110019438D01*
X150280562Y-109949525D01*
X150194938Y-109900090D01*
X150099435Y-109874500D01*
X150000565Y-109874500D01*
X149936896Y-109891560D01*
X149905061Y-109900090D01*
X149861499Y-109925241D01*
X149793599Y-109941713D01*
X149727572Y-109918860D01*
X149684382Y-109863938D01*
X149675500Y-109817853D01*
X149675500Y-109800567D01*
X149675500Y-109800565D01*
X149649910Y-109705062D01*
X149600475Y-109619438D01*
X149530562Y-109549525D01*
X149444938Y-109500090D01*
X149349435Y-109474500D01*
X149250565Y-109474500D01*
X149155062Y-109500090D01*
X149155060Y-109500091D01*
X149155059Y-109500091D01*
X149069436Y-109549526D01*
X148999526Y-109619436D01*
X148950091Y-109705059D01*
X148950091Y-109705060D01*
X148950090Y-109705062D01*
X148924500Y-109800565D01*
X148575500Y-109800565D01*
X148549910Y-109705062D01*
X148500475Y-109619438D01*
X148430562Y-109549525D01*
X148344938Y-109500090D01*
X148249435Y-109474500D01*
X148150565Y-109474500D01*
X148055062Y-109500090D01*
X148055060Y-109500091D01*
X148055059Y-109500091D01*
X147969436Y-109549526D01*
X147899526Y-109619436D01*
X147850091Y-109705059D01*
X147850091Y-109705060D01*
X147850090Y-109705062D01*
X147824500Y-109800565D01*
X147575500Y-109800565D01*
X147549910Y-109705062D01*
X147500475Y-109619438D01*
X147430562Y-109549525D01*
X147344938Y-109500090D01*
X147249435Y-109474500D01*
X147150565Y-109474500D01*
X147055062Y-109500090D01*
X147055060Y-109500091D01*
X147055059Y-109500091D01*
X146969436Y-109549526D01*
X146899526Y-109619436D01*
X146850091Y-109705059D01*
X146850091Y-109705060D01*
X146850090Y-109705062D01*
X146824500Y-109800565D01*
X143055102Y-109800565D01*
X143075500Y-109724437D01*
X143075500Y-109625567D01*
X143049910Y-109530064D01*
X143000475Y-109444440D01*
X142930562Y-109374527D01*
X142844938Y-109325092D01*
X142749435Y-109299502D01*
X142650565Y-109299502D01*
X142555062Y-109325092D01*
X142555060Y-109325093D01*
X142555059Y-109325093D01*
X142469436Y-109374528D01*
X142399526Y-109444438D01*
X142350091Y-109530061D01*
X142350091Y-109530062D01*
X142350090Y-109530064D01*
X142324500Y-109625567D01*
X142324500Y-109724437D01*
X142350090Y-109819940D01*
X142399525Y-109905564D01*
X142469438Y-109975477D01*
X142500813Y-109993591D01*
X142549027Y-110044157D01*
X142562251Y-110112764D01*
X142536283Y-110177628D01*
X142479369Y-110218157D01*
X142455004Y-110223915D01*
X142450572Y-110224498D01*
X142450565Y-110224500D01*
X142355062Y-110250090D01*
X142355060Y-110250091D01*
X142355059Y-110250091D01*
X142269436Y-110299526D01*
X142199526Y-110369436D01*
X142150091Y-110455059D01*
X142150091Y-110455060D01*
X142150090Y-110455062D01*
X142124500Y-110550565D01*
X141724500Y-110550565D01*
X141724500Y-108431123D01*
X141744185Y-108364084D01*
X141760819Y-108343442D01*
X142096822Y-108007439D01*
X142432995Y-107671265D01*
X142494316Y-107637782D01*
X142564007Y-107642766D01*
X142619941Y-107684637D01*
X142644358Y-107750102D01*
X142640449Y-107791040D01*
X142624500Y-107850563D01*
X142624500Y-107850565D01*
X142624500Y-107949435D01*
X142650090Y-108044938D01*
X142650091Y-108044939D01*
X142650091Y-108044940D01*
X142655048Y-108053525D01*
X142699525Y-108130562D01*
X142699526Y-108130563D01*
X142703589Y-108137600D01*
X142700632Y-108139306D01*
X142720093Y-108189864D01*
X142705954Y-108258288D01*
X142703386Y-108262283D01*
X142703589Y-108262400D01*
X142699526Y-108269436D01*
X142699525Y-108269438D01*
X142682154Y-108299525D01*
X142650091Y-108355059D01*
X142650091Y-108355060D01*
X142650090Y-108355062D01*
X142624500Y-108450565D01*
X142624500Y-108549435D01*
X142650090Y-108644938D01*
X142650091Y-108644939D01*
X142650091Y-108644940D01*
X142652686Y-108649435D01*
X142699525Y-108730562D01*
X142769438Y-108800475D01*
X142855062Y-108849910D01*
X142950565Y-108875500D01*
X142950567Y-108875500D01*
X143049432Y-108875500D01*
X143049435Y-108875500D01*
X143144938Y-108849910D01*
X143230562Y-108800475D01*
X143300475Y-108730562D01*
X143349910Y-108644938D01*
X143375500Y-108549435D01*
X143375500Y-108450565D01*
X143349910Y-108355062D01*
X143300475Y-108269438D01*
X143300473Y-108269436D01*
X143296411Y-108262400D01*
X143299392Y-108260678D01*
X143279922Y-108210331D01*
X143293953Y-108141884D01*
X143296626Y-108137724D01*
X143296411Y-108137600D01*
X143300473Y-108130563D01*
X143300475Y-108130562D01*
X143349910Y-108044938D01*
X143375500Y-107949435D01*
X143375500Y-107850565D01*
X143349910Y-107755062D01*
X143300475Y-107669438D01*
X143230562Y-107599525D01*
X143144938Y-107550090D01*
X143049435Y-107524500D01*
X142950565Y-107524500D01*
X142950563Y-107524500D01*
X142891040Y-107540449D01*
X142821190Y-107538786D01*
X142763328Y-107499623D01*
X142735825Y-107435394D01*
X142747412Y-107366492D01*
X142771264Y-107332996D01*
X143003695Y-107100565D01*
X143649502Y-107100565D01*
X143649502Y-107199435D01*
X143675092Y-107294938D01*
X143703959Y-107344938D01*
X143724528Y-107380563D01*
X143781284Y-107437319D01*
X143814769Y-107498642D01*
X143809785Y-107568334D01*
X143781284Y-107612681D01*
X143724528Y-107669436D01*
X143675093Y-107755059D01*
X143675093Y-107755060D01*
X143675092Y-107755062D01*
X143649502Y-107850565D01*
X143649502Y-107949435D01*
X143675092Y-108044938D01*
X143675093Y-108044939D01*
X143675093Y-108044940D01*
X143680050Y-108053525D01*
X143724527Y-108130562D01*
X143794440Y-108200475D01*
X143880064Y-108249910D01*
X143975567Y-108275500D01*
X143975569Y-108275500D01*
X144074434Y-108275500D01*
X144074437Y-108275500D01*
X144169940Y-108249910D01*
X144255564Y-108200475D01*
X144325477Y-108130562D01*
X144374912Y-108044938D01*
X144384960Y-108007437D01*
X144417051Y-107951852D01*
X145218338Y-107150565D01*
X145824500Y-107150565D01*
X145824500Y-107249435D01*
X145850090Y-107344938D01*
X145850091Y-107344939D01*
X145850091Y-107344940D01*
X145853065Y-107350091D01*
X145897974Y-107427876D01*
X145899526Y-107430563D01*
X145931282Y-107462319D01*
X145964767Y-107523642D01*
X145959783Y-107593334D01*
X145931282Y-107637681D01*
X145899526Y-107669436D01*
X145850091Y-107755059D01*
X145850091Y-107755060D01*
X145850090Y-107755062D01*
X145824500Y-107850565D01*
X145824500Y-107949435D01*
X145850090Y-108044938D01*
X145850091Y-108044939D01*
X145850091Y-108044940D01*
X145855048Y-108053525D01*
X145890648Y-108115187D01*
X145899526Y-108130563D01*
X145931282Y-108162319D01*
X145964767Y-108223642D01*
X145959783Y-108293334D01*
X145931282Y-108337681D01*
X145899526Y-108369436D01*
X145850091Y-108455059D01*
X145850091Y-108455060D01*
X145850090Y-108455062D01*
X145824500Y-108550565D01*
X145824500Y-108649435D01*
X145850090Y-108744938D01*
X145850091Y-108744939D01*
X145850091Y-108744940D01*
X145853065Y-108750091D01*
X145899525Y-108830562D01*
X145899526Y-108830563D01*
X145903589Y-108837600D01*
X145900607Y-108839321D01*
X145920078Y-108889669D01*
X145906047Y-108958116D01*
X145903376Y-108962280D01*
X145903588Y-108962403D01*
X145850091Y-109055062D01*
X145850091Y-109055063D01*
X145850090Y-109055065D01*
X145824500Y-109150568D01*
X145824500Y-109249438D01*
X145850090Y-109344941D01*
X145850091Y-109344942D01*
X145850091Y-109344943D01*
X145863337Y-109367885D01*
X145899525Y-109430565D01*
X145969438Y-109500478D01*
X146055062Y-109549913D01*
X146150565Y-109575503D01*
X146150567Y-109575503D01*
X146249432Y-109575503D01*
X146249435Y-109575503D01*
X146344938Y-109549913D01*
X146430562Y-109500478D01*
X146500475Y-109430565D01*
X146549910Y-109344941D01*
X146575500Y-109249438D01*
X146575500Y-109150568D01*
X146549910Y-109055065D01*
X146547312Y-109050565D01*
X152574500Y-109050565D01*
X152574500Y-109149435D01*
X152600090Y-109244938D01*
X152600091Y-109244939D01*
X152600091Y-109244940D01*
X152603339Y-109250565D01*
X152649525Y-109330562D01*
X152719438Y-109400475D01*
X152805062Y-109449910D01*
X152900565Y-109475500D01*
X152900567Y-109475500D01*
X152999432Y-109475500D01*
X152999435Y-109475500D01*
X153094938Y-109449910D01*
X153180562Y-109400475D01*
X153250475Y-109330562D01*
X153299910Y-109244938D01*
X153325500Y-109149435D01*
X153325500Y-109050565D01*
X153299910Y-108955062D01*
X153250475Y-108869438D01*
X153180562Y-108799525D01*
X153094938Y-108750090D01*
X152999435Y-108724500D01*
X152900565Y-108724500D01*
X152805062Y-108750090D01*
X152805060Y-108750091D01*
X152805059Y-108750091D01*
X152719436Y-108799526D01*
X152649526Y-108869436D01*
X152600091Y-108955059D01*
X152600091Y-108955060D01*
X152600090Y-108955062D01*
X152574500Y-109050565D01*
X146547312Y-109050565D01*
X146500475Y-108969441D01*
X146498703Y-108967669D01*
X146492641Y-108955577D01*
X146488438Y-108932369D01*
X146479925Y-108910378D01*
X146482329Y-108898627D01*
X146480192Y-108886825D01*
X146489203Y-108865029D01*
X146493931Y-108841926D01*
X146496629Y-108837727D01*
X146496411Y-108837601D01*
X146500475Y-108830562D01*
X146549910Y-108744938D01*
X146575197Y-108650565D01*
X154149502Y-108650565D01*
X154149502Y-108749435D01*
X154175092Y-108844938D01*
X154175093Y-108844939D01*
X154175093Y-108844940D01*
X154178341Y-108850565D01*
X154206089Y-108898627D01*
X154224528Y-108930563D01*
X154255625Y-108961660D01*
X154289110Y-109022983D01*
X154284126Y-109092675D01*
X154275332Y-109111339D01*
X154250092Y-109155057D01*
X154250090Y-109155060D01*
X154250090Y-109155062D01*
X154224500Y-109250565D01*
X154224500Y-109349435D01*
X154250090Y-109444938D01*
X154250091Y-109444939D01*
X154250091Y-109444940D01*
X154263337Y-109467882D01*
X154299237Y-109530064D01*
X154299526Y-109530563D01*
X154356282Y-109587319D01*
X154389767Y-109648642D01*
X154384783Y-109718334D01*
X154356282Y-109762681D01*
X154299526Y-109819436D01*
X154250091Y-109905059D01*
X154250091Y-109905060D01*
X154250090Y-109905062D01*
X154224500Y-110000565D01*
X154224500Y-110099435D01*
X154250090Y-110194938D01*
X154250091Y-110194939D01*
X154250091Y-110194940D01*
X154253286Y-110200473D01*
X154299525Y-110280562D01*
X154369438Y-110350475D01*
X154455062Y-110399910D01*
X154550565Y-110425500D01*
X154550567Y-110425500D01*
X154649432Y-110425500D01*
X154649435Y-110425500D01*
X154744938Y-110399910D01*
X154830562Y-110350475D01*
X154900475Y-110280562D01*
X154949910Y-110194938D01*
X154975500Y-110099435D01*
X154975500Y-110000565D01*
X154949910Y-109905062D01*
X154900475Y-109819438D01*
X154843718Y-109762681D01*
X154810233Y-109701358D01*
X154815217Y-109631666D01*
X154843718Y-109587319D01*
X154855534Y-109575503D01*
X154900475Y-109530562D01*
X154949910Y-109444938D01*
X154975500Y-109349435D01*
X154975500Y-109250565D01*
X154949910Y-109155062D01*
X154900475Y-109069438D01*
X154869376Y-109038339D01*
X154835891Y-108977016D01*
X154840875Y-108907324D01*
X154849670Y-108888658D01*
X154874912Y-108844938D01*
X154900502Y-108749435D01*
X154900502Y-108650565D01*
X154874912Y-108555062D01*
X154825477Y-108469438D01*
X154755564Y-108399525D01*
X154669940Y-108350090D01*
X154574437Y-108324500D01*
X154475567Y-108324500D01*
X154380064Y-108350090D01*
X154380062Y-108350091D01*
X154380061Y-108350091D01*
X154294438Y-108399526D01*
X154224528Y-108469436D01*
X154175093Y-108555059D01*
X154175093Y-108555060D01*
X154175092Y-108555062D01*
X154149502Y-108650565D01*
X146575197Y-108650565D01*
X146575500Y-108649435D01*
X146575500Y-108550565D01*
X146549910Y-108455062D01*
X146500475Y-108369438D01*
X146468718Y-108337681D01*
X146435233Y-108276358D01*
X146440217Y-108206666D01*
X146468718Y-108162319D01*
X146481129Y-108149908D01*
X146500475Y-108130562D01*
X146549910Y-108044938D01*
X146575500Y-107949435D01*
X146575500Y-107850565D01*
X146549910Y-107755062D01*
X146500475Y-107669438D01*
X146468718Y-107637681D01*
X146435233Y-107576358D01*
X146440217Y-107506666D01*
X146468718Y-107462319D01*
X146484562Y-107446475D01*
X146500475Y-107430562D01*
X146549910Y-107344938D01*
X146575500Y-107249435D01*
X146575500Y-107150565D01*
X146549910Y-107055062D01*
X146500475Y-106969438D01*
X146430562Y-106899525D01*
X146344938Y-106850090D01*
X146249435Y-106824500D01*
X146150565Y-106824500D01*
X146055062Y-106850090D01*
X146055060Y-106850091D01*
X146055059Y-106850091D01*
X145969436Y-106899526D01*
X145899526Y-106969436D01*
X145850091Y-107055059D01*
X145850091Y-107055060D01*
X145850090Y-107055062D01*
X145824500Y-107150565D01*
X145218338Y-107150565D01*
X146507085Y-105861819D01*
X146568408Y-105828334D01*
X146594766Y-105825500D01*
X146649432Y-105825500D01*
X146649435Y-105825500D01*
X146744938Y-105799910D01*
X146830562Y-105750475D01*
X146900475Y-105680562D01*
X146949910Y-105594938D01*
X146975500Y-105499435D01*
X146975500Y-105400565D01*
X146949910Y-105305062D01*
X146900475Y-105219438D01*
X146830562Y-105149525D01*
X146744938Y-105100090D01*
X146649435Y-105074500D01*
X146550565Y-105074500D01*
X146455062Y-105100090D01*
X146455060Y-105100091D01*
X146455059Y-105100091D01*
X146369436Y-105149526D01*
X146299526Y-105219436D01*
X146250091Y-105305059D01*
X146250091Y-105305060D01*
X146250090Y-105305062D01*
X146224500Y-105400565D01*
X146224500Y-105400567D01*
X146224500Y-105455232D01*
X146204815Y-105522271D01*
X146188181Y-105542913D01*
X145131263Y-106599830D01*
X145069940Y-106633315D01*
X145000248Y-106628331D01*
X144944315Y-106586459D01*
X144923808Y-106544245D01*
X144899912Y-106455062D01*
X144899909Y-106455058D01*
X144898353Y-106451299D01*
X144897984Y-106447868D01*
X144897808Y-106447211D01*
X144897910Y-106447183D01*
X144890884Y-106381829D01*
X144922159Y-106319350D01*
X144950910Y-106296461D01*
X145030562Y-106250475D01*
X145100475Y-106180562D01*
X145149910Y-106094938D01*
X145175500Y-105999435D01*
X145175500Y-105900565D01*
X145149910Y-105805062D01*
X145100475Y-105719438D01*
X145030562Y-105649525D01*
X144944938Y-105600090D01*
X144849435Y-105574500D01*
X144750565Y-105574500D01*
X144655062Y-105600090D01*
X144655060Y-105600091D01*
X144655059Y-105600091D01*
X144569436Y-105649526D01*
X144499526Y-105719436D01*
X144450091Y-105805059D01*
X144450091Y-105805060D01*
X144450090Y-105805062D01*
X144424500Y-105900565D01*
X144424500Y-105999435D01*
X144441443Y-106062667D01*
X144450091Y-106094943D01*
X144451650Y-106098705D01*
X144452018Y-106102132D01*
X144452194Y-106102788D01*
X144452091Y-106102815D01*
X144459116Y-106168175D01*
X144427838Y-106230653D01*
X144399088Y-106253539D01*
X144319439Y-106299525D01*
X144249528Y-106369436D01*
X144200093Y-106455059D01*
X144200093Y-106455060D01*
X144200092Y-106455062D01*
X144174502Y-106550565D01*
X144174502Y-106550567D01*
X144174502Y-106650500D01*
X144154817Y-106717539D01*
X144102013Y-106763294D01*
X144050502Y-106774500D01*
X143975567Y-106774500D01*
X143880064Y-106800090D01*
X143880062Y-106800091D01*
X143880061Y-106800091D01*
X143794438Y-106849526D01*
X143724528Y-106919436D01*
X143675093Y-107005059D01*
X143675093Y-107005060D01*
X143675092Y-107005062D01*
X143649502Y-107100565D01*
X143003695Y-107100565D01*
X143612364Y-106491897D01*
X143650500Y-106399828D01*
X143650500Y-106300173D01*
X143650500Y-104650565D01*
X144224500Y-104650565D01*
X144224500Y-104749435D01*
X144250090Y-104844938D01*
X144250091Y-104844939D01*
X144250091Y-104844940D01*
X144260640Y-104863212D01*
X144299525Y-104930562D01*
X144369438Y-105000475D01*
X144455062Y-105049910D01*
X144550565Y-105075500D01*
X144550567Y-105075500D01*
X144649432Y-105075500D01*
X144649435Y-105075500D01*
X144744938Y-105049910D01*
X144830562Y-105000475D01*
X144900475Y-104930562D01*
X144949910Y-104844938D01*
X144975500Y-104749435D01*
X144975500Y-104678128D01*
X145476193Y-104678128D01*
X145476193Y-104776998D01*
X145501783Y-104872501D01*
X145551218Y-104958125D01*
X145621131Y-105028038D01*
X145706755Y-105077473D01*
X145802258Y-105103063D01*
X145802260Y-105103063D01*
X145901125Y-105103063D01*
X145901128Y-105103063D01*
X145996631Y-105077473D01*
X146082255Y-105028038D01*
X146152168Y-104958125D01*
X146201603Y-104872501D01*
X146227193Y-104776998D01*
X146227193Y-104678128D01*
X146201603Y-104582625D01*
X146152168Y-104497001D01*
X146088839Y-104433672D01*
X146055354Y-104372349D01*
X146060338Y-104302657D01*
X146102210Y-104246724D01*
X146114515Y-104238606D01*
X146180562Y-104200475D01*
X146250475Y-104130562D01*
X146299910Y-104044938D01*
X146325500Y-103949435D01*
X146325500Y-103850565D01*
X146299910Y-103755062D01*
X146250475Y-103669438D01*
X146180562Y-103599525D01*
X146094938Y-103550090D01*
X145999435Y-103524500D01*
X145900565Y-103524500D01*
X145805062Y-103550090D01*
X145805060Y-103550091D01*
X145805059Y-103550091D01*
X145719436Y-103599526D01*
X145649526Y-103669436D01*
X145600091Y-103755059D01*
X145600091Y-103755060D01*
X145600090Y-103755062D01*
X145574500Y-103850565D01*
X145574500Y-103949435D01*
X145600090Y-104044938D01*
X145600091Y-104044939D01*
X145600091Y-104044940D01*
X145603065Y-104050091D01*
X145631606Y-104099526D01*
X145649526Y-104130563D01*
X145712853Y-104193890D01*
X145746338Y-104255213D01*
X145741354Y-104324905D01*
X145699482Y-104380838D01*
X145687174Y-104388957D01*
X145621129Y-104427089D01*
X145551219Y-104496999D01*
X145501784Y-104582622D01*
X145501784Y-104582623D01*
X145501783Y-104582625D01*
X145476193Y-104678128D01*
X144975500Y-104678128D01*
X144975500Y-104650565D01*
X144949910Y-104555062D01*
X144900475Y-104469438D01*
X144830562Y-104399525D01*
X144744938Y-104350090D01*
X144649435Y-104324500D01*
X144550565Y-104324500D01*
X144455062Y-104350090D01*
X144455060Y-104350091D01*
X144455059Y-104350091D01*
X144369436Y-104399526D01*
X144299526Y-104469436D01*
X144250091Y-104555059D01*
X144250091Y-104555060D01*
X144250090Y-104555062D01*
X144224500Y-104650565D01*
X143650500Y-104650565D01*
X143650500Y-103150565D01*
X144824500Y-103150565D01*
X144824500Y-103249435D01*
X144850090Y-103344938D01*
X144850091Y-103344939D01*
X144850091Y-103344940D01*
X144852686Y-103349435D01*
X144899525Y-103430562D01*
X144969438Y-103500475D01*
X145055062Y-103549910D01*
X145150565Y-103575500D01*
X145150567Y-103575500D01*
X145249432Y-103575500D01*
X145249435Y-103575500D01*
X145344938Y-103549910D01*
X145430562Y-103500475D01*
X145500475Y-103430562D01*
X145549910Y-103344938D01*
X145575500Y-103249435D01*
X145575500Y-103150565D01*
X145549910Y-103055062D01*
X145500475Y-102969438D01*
X145430562Y-102899525D01*
X145344938Y-102850090D01*
X145249435Y-102824500D01*
X145150565Y-102824500D01*
X145055062Y-102850090D01*
X145055060Y-102850091D01*
X145055059Y-102850091D01*
X144969436Y-102899526D01*
X144899526Y-102969436D01*
X144850091Y-103055059D01*
X144850091Y-103055060D01*
X144850090Y-103055062D01*
X144824500Y-103150565D01*
X143650500Y-103150565D01*
X143650500Y-102805123D01*
X143670185Y-102738084D01*
X143686819Y-102717442D01*
X144453696Y-101950565D01*
X145824500Y-101950565D01*
X145824500Y-102049435D01*
X145850090Y-102144938D01*
X145899525Y-102230562D01*
X145969438Y-102300475D01*
X146055062Y-102349910D01*
X146150565Y-102375500D01*
X146150567Y-102375500D01*
X146249432Y-102375500D01*
X146249435Y-102375500D01*
X146344938Y-102349910D01*
X146430562Y-102300475D01*
X146500475Y-102230562D01*
X146549910Y-102144938D01*
X146575500Y-102049435D01*
X146575500Y-101950565D01*
X146549910Y-101855062D01*
X146500475Y-101769438D01*
X146430562Y-101699525D01*
X146344938Y-101650090D01*
X146249435Y-101624500D01*
X146150565Y-101624500D01*
X146055062Y-101650090D01*
X146055060Y-101650091D01*
X146055059Y-101650091D01*
X145969436Y-101699526D01*
X145899526Y-101769436D01*
X145850091Y-101855059D01*
X145850091Y-101855060D01*
X145850090Y-101855062D01*
X145824500Y-101950565D01*
X144453696Y-101950565D01*
X146450187Y-99954074D01*
X146511510Y-99920589D01*
X146581202Y-99925573D01*
X146625549Y-99954074D01*
X147263181Y-100591706D01*
X147296666Y-100653029D01*
X147299500Y-100679387D01*
X147299500Y-106172475D01*
X147305503Y-106194877D01*
X147333646Y-106299910D01*
X147333717Y-106300173D01*
X147337016Y-106312485D01*
X147409490Y-106438015D01*
X148511986Y-107540510D01*
X148562091Y-107569438D01*
X148637515Y-107612984D01*
X148777525Y-107650500D01*
X148777526Y-107650500D01*
X148777528Y-107650500D01*
X151619101Y-107650500D01*
X151686140Y-107670185D01*
X151731895Y-107722989D01*
X151741839Y-107792147D01*
X151712814Y-107855703D01*
X151706782Y-107862181D01*
X151649526Y-107919436D01*
X151600091Y-108005059D01*
X151600091Y-108005060D01*
X151600090Y-108005062D01*
X151574500Y-108100565D01*
X151574500Y-108199435D01*
X151600090Y-108294938D01*
X151649525Y-108380562D01*
X151719438Y-108450475D01*
X151805062Y-108499910D01*
X151900565Y-108525500D01*
X151900567Y-108525500D01*
X151999432Y-108525500D01*
X151999435Y-108525500D01*
X152094938Y-108499910D01*
X152180562Y-108450475D01*
X152250475Y-108380562D01*
X152299910Y-108294938D01*
X152325500Y-108199435D01*
X152325500Y-108100565D01*
X152299910Y-108005062D01*
X152250475Y-107919438D01*
X152193218Y-107862181D01*
X152159733Y-107800858D01*
X152164717Y-107731166D01*
X152206589Y-107675233D01*
X152272053Y-107650816D01*
X152280899Y-107650500D01*
X154122472Y-107650500D01*
X154122475Y-107650500D01*
X154262485Y-107612984D01*
X154388015Y-107540509D01*
X154490509Y-107438015D01*
X154505240Y-107412499D01*
X154555807Y-107364284D01*
X154612627Y-107350500D01*
X156499826Y-107350500D01*
X156499828Y-107350500D01*
X156591897Y-107312364D01*
X157499382Y-106404878D01*
X157560703Y-106371395D01*
X157630394Y-106376379D01*
X157665031Y-106398639D01*
X157665886Y-106397525D01*
X157672332Y-106402471D01*
X157672334Y-106402472D01*
X157672336Y-106402474D01*
X157757960Y-106451909D01*
X157853463Y-106477499D01*
X157853465Y-106477499D01*
X157952330Y-106477499D01*
X157952333Y-106477499D01*
X158047836Y-106451909D01*
X158133460Y-106402474D01*
X158203373Y-106332561D01*
X158252808Y-106246937D01*
X158278398Y-106151434D01*
X158278398Y-106052564D01*
X158252808Y-105957061D01*
X158203373Y-105871437D01*
X158203371Y-105871435D01*
X158199309Y-105864399D01*
X158201509Y-105863128D01*
X158180901Y-105809804D01*
X158194946Y-105741361D01*
X158243766Y-105691376D01*
X158291675Y-105678846D01*
X158291375Y-105676561D01*
X158299432Y-105675500D01*
X158299435Y-105675500D01*
X158394938Y-105649910D01*
X158480562Y-105600475D01*
X158550475Y-105530562D01*
X158599910Y-105444938D01*
X158625500Y-105349435D01*
X158625500Y-105250565D01*
X158599910Y-105155062D01*
X158550475Y-105069438D01*
X158480562Y-104999525D01*
X158394938Y-104950090D01*
X158299435Y-104924500D01*
X158200565Y-104924500D01*
X158105062Y-104950090D01*
X158105060Y-104950091D01*
X158105059Y-104950091D01*
X158019436Y-104999526D01*
X158005782Y-105013181D01*
X157944459Y-105046666D01*
X157918101Y-105049500D01*
X157750170Y-105049500D01*
X157658102Y-105087636D01*
X157137636Y-105608102D01*
X157099500Y-105700170D01*
X157099500Y-106044877D01*
X157079815Y-106111916D01*
X157063181Y-106132558D01*
X156382558Y-106813181D01*
X156355630Y-106827884D01*
X156329812Y-106844477D01*
X156323611Y-106845368D01*
X156321235Y-106846666D01*
X156294877Y-106849500D01*
X156230899Y-106849500D01*
X156163860Y-106829815D01*
X156118105Y-106777011D01*
X156108161Y-106707853D01*
X156137186Y-106644297D01*
X156143218Y-106637819D01*
X156150475Y-106630562D01*
X156199910Y-106544938D01*
X156225500Y-106449435D01*
X156225500Y-106350565D01*
X156199910Y-106255062D01*
X156150475Y-106169438D01*
X156080562Y-106099525D01*
X155994938Y-106050090D01*
X155899435Y-106024500D01*
X155800565Y-106024500D01*
X155799500Y-106024500D01*
X155732461Y-106004815D01*
X155686706Y-105952011D01*
X155675500Y-105900500D01*
X155675500Y-105800567D01*
X155675500Y-105800565D01*
X155649910Y-105705062D01*
X155600475Y-105619438D01*
X155530562Y-105549525D01*
X155444938Y-105500090D01*
X155349435Y-105474500D01*
X155250565Y-105474500D01*
X155155062Y-105500090D01*
X155155060Y-105500091D01*
X155155059Y-105500091D01*
X155069436Y-105549526D01*
X154999526Y-105619436D01*
X154950091Y-105705059D01*
X154950091Y-105705060D01*
X154950090Y-105705062D01*
X154924500Y-105800565D01*
X154924500Y-105899435D01*
X154950090Y-105994938D01*
X154950091Y-105994939D01*
X154950091Y-105994940D01*
X154952686Y-105999435D01*
X154999525Y-106080562D01*
X155069438Y-106150475D01*
X155155062Y-106199910D01*
X155250565Y-106225500D01*
X155250567Y-106225500D01*
X155350500Y-106225500D01*
X155417539Y-106245185D01*
X155463294Y-106297989D01*
X155474500Y-106349500D01*
X155474500Y-106350565D01*
X155474500Y-106449435D01*
X155500090Y-106544938D01*
X155546602Y-106625500D01*
X155549526Y-106630563D01*
X155556782Y-106637819D01*
X155590267Y-106699142D01*
X155585283Y-106768834D01*
X155543411Y-106824767D01*
X155477947Y-106849184D01*
X155469101Y-106849500D01*
X154612627Y-106849500D01*
X154545588Y-106829815D01*
X154505240Y-106787500D01*
X154499184Y-106777011D01*
X154490509Y-106761985D01*
X154388015Y-106659491D01*
X154388013Y-106659490D01*
X154388011Y-106659488D01*
X154262488Y-106587017D01*
X154262489Y-106587017D01*
X154251006Y-106583940D01*
X154122475Y-106549500D01*
X154122472Y-106549500D01*
X149129386Y-106549500D01*
X149062347Y-106529815D01*
X149041705Y-106513181D01*
X148436819Y-105908294D01*
X148403334Y-105846971D01*
X148400500Y-105820613D01*
X148400500Y-104958718D01*
X149683566Y-104958718D01*
X149683566Y-105057588D01*
X149709156Y-105153091D01*
X149758591Y-105238715D01*
X149828504Y-105308628D01*
X149914128Y-105358063D01*
X150009631Y-105383653D01*
X150009633Y-105383653D01*
X150108498Y-105383653D01*
X150108501Y-105383653D01*
X150204004Y-105358063D01*
X150289628Y-105308628D01*
X150359541Y-105238715D01*
X150408976Y-105153091D01*
X150434566Y-105057588D01*
X150434566Y-105050565D01*
X156324500Y-105050565D01*
X156324500Y-105149435D01*
X156350090Y-105244938D01*
X156350091Y-105244939D01*
X156350091Y-105244940D01*
X156352686Y-105249435D01*
X156399525Y-105330562D01*
X156469438Y-105400475D01*
X156555062Y-105449910D01*
X156650565Y-105475500D01*
X156650567Y-105475500D01*
X156749432Y-105475500D01*
X156749435Y-105475500D01*
X156844938Y-105449910D01*
X156930562Y-105400475D01*
X157000475Y-105330562D01*
X157049910Y-105244938D01*
X157075500Y-105149435D01*
X157075500Y-105050565D01*
X157049910Y-104955062D01*
X157000475Y-104869438D01*
X156930562Y-104799525D01*
X156844938Y-104750090D01*
X156749435Y-104724500D01*
X156650565Y-104724500D01*
X156555062Y-104750090D01*
X156555060Y-104750091D01*
X156555059Y-104750091D01*
X156469436Y-104799526D01*
X156399526Y-104869436D01*
X156350091Y-104955059D01*
X156350091Y-104955060D01*
X156350090Y-104955062D01*
X156324500Y-105050565D01*
X150434566Y-105050565D01*
X150434566Y-104958718D01*
X150408976Y-104863215D01*
X150359541Y-104777591D01*
X150289628Y-104707678D01*
X150204004Y-104658243D01*
X150108501Y-104632653D01*
X150009631Y-104632653D01*
X149914128Y-104658243D01*
X149914126Y-104658244D01*
X149914125Y-104658244D01*
X149828502Y-104707679D01*
X149758592Y-104777589D01*
X149709157Y-104863212D01*
X149709157Y-104863213D01*
X149709156Y-104863215D01*
X149683566Y-104958718D01*
X148400500Y-104958718D01*
X148400500Y-103750565D01*
X149224500Y-103750565D01*
X149224500Y-103849435D01*
X149250090Y-103944938D01*
X149250091Y-103944939D01*
X149250091Y-103944940D01*
X149253065Y-103950091D01*
X149299525Y-104030562D01*
X149369438Y-104100475D01*
X149455062Y-104149910D01*
X149550565Y-104175500D01*
X149550567Y-104175500D01*
X149649432Y-104175500D01*
X149649435Y-104175500D01*
X149744938Y-104149910D01*
X149830562Y-104100475D01*
X149900475Y-104030562D01*
X149919338Y-103997889D01*
X149969902Y-103949677D01*
X150038509Y-103936453D01*
X150103374Y-103962421D01*
X150143903Y-104019335D01*
X150146494Y-104027788D01*
X150151090Y-104044937D01*
X150151091Y-104044940D01*
X150154065Y-104050091D01*
X150200525Y-104130562D01*
X150270438Y-104200475D01*
X150356062Y-104249910D01*
X150451565Y-104275500D01*
X150451567Y-104275500D01*
X150550432Y-104275500D01*
X150550435Y-104275500D01*
X150645938Y-104249910D01*
X150731562Y-104200475D01*
X150801475Y-104130562D01*
X150850910Y-104044938D01*
X150876197Y-103950565D01*
X154624500Y-103950565D01*
X154624500Y-104049435D01*
X154650090Y-104144938D01*
X154650091Y-104144939D01*
X154650091Y-104144940D01*
X154655935Y-104155062D01*
X154699525Y-104230562D01*
X154769438Y-104300475D01*
X154855062Y-104349910D01*
X154950565Y-104375500D01*
X154950567Y-104375500D01*
X155049432Y-104375500D01*
X155049435Y-104375500D01*
X155144938Y-104349910D01*
X155230562Y-104300475D01*
X155300475Y-104230562D01*
X155349910Y-104144938D01*
X155375500Y-104049435D01*
X155375500Y-103950565D01*
X155349910Y-103855062D01*
X155300475Y-103769438D01*
X155230562Y-103699525D01*
X155144938Y-103650090D01*
X155049435Y-103624500D01*
X154950565Y-103624500D01*
X154855062Y-103650090D01*
X154855060Y-103650091D01*
X154855059Y-103650091D01*
X154769436Y-103699526D01*
X154699526Y-103769436D01*
X154650091Y-103855059D01*
X154650091Y-103855060D01*
X154650090Y-103855062D01*
X154624500Y-103950565D01*
X150876197Y-103950565D01*
X150876500Y-103949435D01*
X150876500Y-103850565D01*
X150850910Y-103755062D01*
X150801475Y-103669438D01*
X150731562Y-103599525D01*
X150645938Y-103550090D01*
X150550435Y-103524500D01*
X150451565Y-103524500D01*
X150356062Y-103550090D01*
X150356060Y-103550091D01*
X150356059Y-103550091D01*
X150270436Y-103599526D01*
X150200526Y-103669436D01*
X150181662Y-103702109D01*
X150131094Y-103750324D01*
X150062486Y-103763545D01*
X149997622Y-103737576D01*
X149957095Y-103680661D01*
X149954510Y-103672231D01*
X149949910Y-103655062D01*
X149900475Y-103569438D01*
X149830562Y-103499525D01*
X149744938Y-103450090D01*
X149649435Y-103424500D01*
X149550565Y-103424500D01*
X149455062Y-103450090D01*
X149455060Y-103450091D01*
X149455059Y-103450091D01*
X149369436Y-103499526D01*
X149299526Y-103569436D01*
X149250091Y-103655059D01*
X149250091Y-103655060D01*
X149250090Y-103655062D01*
X149224500Y-103750565D01*
X148400500Y-103750565D01*
X148400500Y-103250565D01*
X152724500Y-103250565D01*
X152724500Y-103349435D01*
X152750090Y-103444938D01*
X152750091Y-103444939D01*
X152750091Y-103444940D01*
X152753065Y-103450091D01*
X152799525Y-103530562D01*
X152869438Y-103600475D01*
X152955062Y-103649910D01*
X153050565Y-103675500D01*
X153050567Y-103675500D01*
X153149432Y-103675500D01*
X153149435Y-103675500D01*
X153244938Y-103649910D01*
X153330562Y-103600475D01*
X153380472Y-103550565D01*
X155624500Y-103550565D01*
X155624500Y-103649435D01*
X155650090Y-103744938D01*
X155650091Y-103744939D01*
X155650091Y-103744940D01*
X155653339Y-103750565D01*
X155699525Y-103830562D01*
X155769438Y-103900475D01*
X155855062Y-103949910D01*
X155950565Y-103975500D01*
X155950567Y-103975500D01*
X156049432Y-103975500D01*
X156049435Y-103975500D01*
X156144938Y-103949910D01*
X156230562Y-103900475D01*
X156300475Y-103830562D01*
X156349910Y-103744938D01*
X156375500Y-103649435D01*
X156375500Y-103550565D01*
X156349910Y-103455062D01*
X156300475Y-103369438D01*
X156230562Y-103299525D01*
X156144938Y-103250090D01*
X156049435Y-103224500D01*
X155950565Y-103224500D01*
X155855062Y-103250090D01*
X155855060Y-103250091D01*
X155855059Y-103250091D01*
X155769436Y-103299526D01*
X155699526Y-103369436D01*
X155650091Y-103455059D01*
X155650091Y-103455060D01*
X155650090Y-103455062D01*
X155624500Y-103550565D01*
X153380472Y-103550565D01*
X153400475Y-103530562D01*
X153449910Y-103444938D01*
X153475500Y-103349435D01*
X153475500Y-103250565D01*
X153449910Y-103155062D01*
X153400475Y-103069438D01*
X153330562Y-102999525D01*
X153244938Y-102950090D01*
X153149435Y-102924500D01*
X153050565Y-102924500D01*
X152955062Y-102950090D01*
X152955060Y-102950091D01*
X152955059Y-102950091D01*
X152869436Y-102999526D01*
X152799526Y-103069436D01*
X152750091Y-103155059D01*
X152750091Y-103155060D01*
X152750090Y-103155062D01*
X152724500Y-103250565D01*
X148400500Y-103250565D01*
X148400500Y-102150565D01*
X156024500Y-102150565D01*
X156024500Y-102249435D01*
X156050090Y-102344938D01*
X156050091Y-102344939D01*
X156050091Y-102344940D01*
X156063337Y-102367882D01*
X156099525Y-102430562D01*
X156169438Y-102500475D01*
X156255062Y-102549910D01*
X156350565Y-102575500D01*
X156350567Y-102575500D01*
X156449432Y-102575500D01*
X156449435Y-102575500D01*
X156544938Y-102549910D01*
X156630562Y-102500475D01*
X156700475Y-102430562D01*
X156749910Y-102344938D01*
X156775500Y-102249435D01*
X156775500Y-102150565D01*
X156749910Y-102055062D01*
X156700475Y-101969438D01*
X156630562Y-101899525D01*
X156544938Y-101850090D01*
X156449435Y-101824500D01*
X156350565Y-101824500D01*
X156255062Y-101850090D01*
X156255060Y-101850091D01*
X156255059Y-101850091D01*
X156169436Y-101899526D01*
X156099526Y-101969436D01*
X156050091Y-102055059D01*
X156050091Y-102055060D01*
X156050090Y-102055062D01*
X156024500Y-102150565D01*
X148400500Y-102150565D01*
X148400500Y-101650565D01*
X149124500Y-101650565D01*
X149124500Y-101749435D01*
X149150090Y-101844938D01*
X149150091Y-101844939D01*
X149150091Y-101844940D01*
X149153065Y-101850091D01*
X149199525Y-101930562D01*
X149269438Y-102000475D01*
X149355062Y-102049910D01*
X149450565Y-102075500D01*
X149450567Y-102075500D01*
X149549432Y-102075500D01*
X149549435Y-102075500D01*
X149644938Y-102049910D01*
X149730562Y-102000475D01*
X149800475Y-101930562D01*
X149849910Y-101844938D01*
X149875500Y-101749435D01*
X149875500Y-101650565D01*
X149849910Y-101555062D01*
X149800475Y-101469438D01*
X149730562Y-101399525D01*
X149644938Y-101350090D01*
X149549435Y-101324500D01*
X149450565Y-101324500D01*
X149355062Y-101350090D01*
X149355060Y-101350091D01*
X149355059Y-101350091D01*
X149269436Y-101399526D01*
X149199526Y-101469436D01*
X149150091Y-101555059D01*
X149150091Y-101555060D01*
X149150090Y-101555062D01*
X149124500Y-101650565D01*
X148400500Y-101650565D01*
X148400500Y-101150565D01*
X153324500Y-101150565D01*
X153324500Y-101249435D01*
X153350090Y-101344938D01*
X153350091Y-101344939D01*
X153350091Y-101344940D01*
X153353065Y-101350091D01*
X153399525Y-101430562D01*
X153469438Y-101500475D01*
X153555062Y-101549910D01*
X153650565Y-101575500D01*
X153650567Y-101575500D01*
X153749432Y-101575500D01*
X153749435Y-101575500D01*
X153844938Y-101549910D01*
X153930562Y-101500475D01*
X154000475Y-101430562D01*
X154049910Y-101344938D01*
X154075500Y-101249435D01*
X154075500Y-101150565D01*
X154049910Y-101055062D01*
X154000475Y-100969438D01*
X153930562Y-100899525D01*
X153844938Y-100850090D01*
X153749435Y-100824500D01*
X153650565Y-100824500D01*
X153555062Y-100850090D01*
X153555060Y-100850091D01*
X153555059Y-100850091D01*
X153469436Y-100899526D01*
X153399526Y-100969436D01*
X153350091Y-101055059D01*
X153350091Y-101055060D01*
X153350090Y-101055062D01*
X153324500Y-101150565D01*
X148400500Y-101150565D01*
X148400500Y-100400565D01*
X153974500Y-100400565D01*
X153974500Y-100499435D01*
X154000090Y-100594938D01*
X154049525Y-100680562D01*
X154119438Y-100750475D01*
X154205062Y-100799910D01*
X154300565Y-100825500D01*
X154300567Y-100825500D01*
X154399432Y-100825500D01*
X154399435Y-100825500D01*
X154494938Y-100799910D01*
X154580562Y-100750475D01*
X154650475Y-100680562D01*
X154699910Y-100594938D01*
X154725500Y-100499435D01*
X154725500Y-100400565D01*
X154699910Y-100305062D01*
X154650475Y-100219438D01*
X154580562Y-100149525D01*
X154494938Y-100100090D01*
X154399435Y-100074500D01*
X154300565Y-100074500D01*
X154205062Y-100100090D01*
X154205060Y-100100091D01*
X154205059Y-100100091D01*
X154119436Y-100149526D01*
X154049526Y-100219436D01*
X154000091Y-100305059D01*
X154000091Y-100305060D01*
X154000090Y-100305062D01*
X153974500Y-100400565D01*
X148400500Y-100400565D01*
X148400500Y-100327527D01*
X148400500Y-100327525D01*
X148362984Y-100187515D01*
X148341273Y-100149910D01*
X148290510Y-100061985D01*
X147979090Y-99750565D01*
X149924500Y-99750565D01*
X149924500Y-99849435D01*
X149950090Y-99944938D01*
X149950091Y-99944939D01*
X149950091Y-99944940D01*
X149952686Y-99949435D01*
X149999525Y-100030562D01*
X150069438Y-100100475D01*
X150155062Y-100149910D01*
X150250565Y-100175500D01*
X150250567Y-100175500D01*
X150349432Y-100175500D01*
X150349435Y-100175500D01*
X150444938Y-100149910D01*
X150530562Y-100100475D01*
X150600475Y-100030562D01*
X150649910Y-99944938D01*
X150675197Y-99850565D01*
X152624500Y-99850565D01*
X152624500Y-99949435D01*
X152650090Y-100044938D01*
X152699525Y-100130562D01*
X152769438Y-100200475D01*
X152855062Y-100249910D01*
X152950565Y-100275500D01*
X152950567Y-100275500D01*
X153049432Y-100275500D01*
X153049435Y-100275500D01*
X153144938Y-100249910D01*
X153230562Y-100200475D01*
X153300475Y-100130562D01*
X153349910Y-100044938D01*
X153375500Y-99949435D01*
X153375500Y-99850565D01*
X153349910Y-99755062D01*
X153347314Y-99750565D01*
X156174500Y-99750565D01*
X156174500Y-99849435D01*
X156200090Y-99944938D01*
X156200091Y-99944939D01*
X156200091Y-99944940D01*
X156202686Y-99949435D01*
X156249525Y-100030562D01*
X156319438Y-100100475D01*
X156405062Y-100149910D01*
X156500565Y-100175500D01*
X156500567Y-100175500D01*
X156599432Y-100175500D01*
X156599435Y-100175500D01*
X156694938Y-100149910D01*
X156780562Y-100100475D01*
X156850475Y-100030562D01*
X156899910Y-99944938D01*
X156925500Y-99849435D01*
X156925500Y-99750565D01*
X156899910Y-99655062D01*
X156850475Y-99569438D01*
X156780562Y-99499525D01*
X156694938Y-99450090D01*
X156599435Y-99424500D01*
X156500565Y-99424500D01*
X156405062Y-99450090D01*
X156405060Y-99450091D01*
X156405059Y-99450091D01*
X156319436Y-99499526D01*
X156249526Y-99569436D01*
X156200091Y-99655059D01*
X156200091Y-99655060D01*
X156200090Y-99655062D01*
X156174500Y-99750565D01*
X153347314Y-99750565D01*
X153300475Y-99669438D01*
X153230562Y-99599525D01*
X153144938Y-99550090D01*
X153049435Y-99524500D01*
X152950565Y-99524500D01*
X152855062Y-99550090D01*
X152855060Y-99550091D01*
X152855059Y-99550091D01*
X152769436Y-99599526D01*
X152699526Y-99669436D01*
X152650091Y-99755059D01*
X152650091Y-99755060D01*
X152650090Y-99755062D01*
X152624500Y-99850565D01*
X150675197Y-99850565D01*
X150675500Y-99849435D01*
X150675500Y-99849432D01*
X150676280Y-99843504D01*
X150675776Y-99841236D01*
X150686462Y-99812167D01*
X150695185Y-99782461D01*
X150698410Y-99779666D01*
X150699884Y-99775657D01*
X150724599Y-99756973D01*
X150747989Y-99736706D01*
X150753179Y-99735368D01*
X150755620Y-99733523D01*
X150771853Y-99730554D01*
X150790072Y-99725859D01*
X150794779Y-99725500D01*
X150849435Y-99725500D01*
X150944938Y-99699910D01*
X151030562Y-99650475D01*
X151100475Y-99580562D01*
X151149910Y-99494938D01*
X151175500Y-99399435D01*
X151175500Y-99300565D01*
X151175500Y-99299500D01*
X151195185Y-99232461D01*
X151247989Y-99186706D01*
X151291465Y-99177247D01*
X151291375Y-99176561D01*
X151299432Y-99175500D01*
X151299435Y-99175500D01*
X151394938Y-99149910D01*
X151480562Y-99100475D01*
X151550475Y-99030562D01*
X151550477Y-99030557D01*
X151555421Y-99024116D01*
X151556483Y-99024931D01*
X151600906Y-98982565D01*
X151669511Y-98969334D01*
X151734379Y-98995295D01*
X151774914Y-99052205D01*
X151777513Y-99060680D01*
X151800090Y-99144939D01*
X151800091Y-99144940D01*
X151803065Y-99150091D01*
X151849525Y-99230562D01*
X151919438Y-99300475D01*
X152005062Y-99349910D01*
X152100565Y-99375500D01*
X152100567Y-99375500D01*
X152199432Y-99375500D01*
X152199435Y-99375500D01*
X152294938Y-99349910D01*
X152380562Y-99300475D01*
X152450475Y-99230562D01*
X152499910Y-99144938D01*
X152525500Y-99049435D01*
X152525500Y-98950565D01*
X152499910Y-98855062D01*
X152497314Y-98850565D01*
X153424500Y-98850565D01*
X153424500Y-98949435D01*
X153450090Y-99044938D01*
X153450091Y-99044939D01*
X153450091Y-99044940D01*
X153455984Y-99055147D01*
X153499525Y-99130562D01*
X153569438Y-99200475D01*
X153655062Y-99249910D01*
X153750565Y-99275500D01*
X153750567Y-99275500D01*
X153849432Y-99275500D01*
X153849435Y-99275500D01*
X153944938Y-99249910D01*
X154030562Y-99200475D01*
X154100475Y-99130562D01*
X154149910Y-99044938D01*
X154175500Y-98949435D01*
X154175500Y-98850565D01*
X154149910Y-98755062D01*
X154100475Y-98669438D01*
X154030562Y-98599525D01*
X153944938Y-98550090D01*
X153849435Y-98524500D01*
X153750565Y-98524500D01*
X153655062Y-98550090D01*
X153655060Y-98550091D01*
X153655059Y-98550091D01*
X153569436Y-98599526D01*
X153499526Y-98669436D01*
X153450091Y-98755059D01*
X153450091Y-98755060D01*
X153450090Y-98755062D01*
X153424500Y-98850565D01*
X152497314Y-98850565D01*
X152450475Y-98769438D01*
X152380562Y-98699525D01*
X152294938Y-98650090D01*
X152199435Y-98624500D01*
X152100565Y-98624500D01*
X152005062Y-98650090D01*
X152005060Y-98650091D01*
X152005059Y-98650091D01*
X151919436Y-98699526D01*
X151849524Y-98769438D01*
X151844579Y-98775884D01*
X151843519Y-98775070D01*
X151799074Y-98817444D01*
X151730466Y-98830663D01*
X151665603Y-98804691D01*
X151625078Y-98747774D01*
X151622491Y-98739335D01*
X151599910Y-98655062D01*
X151550475Y-98569438D01*
X151480562Y-98499525D01*
X151394938Y-98450090D01*
X151299435Y-98424500D01*
X151200565Y-98424500D01*
X151105062Y-98450090D01*
X151105060Y-98450091D01*
X151105059Y-98450091D01*
X151019436Y-98499526D01*
X150949526Y-98569436D01*
X150900091Y-98655059D01*
X150900091Y-98655060D01*
X150900090Y-98655062D01*
X150874500Y-98750565D01*
X150874500Y-98750567D01*
X150874500Y-98850500D01*
X150854815Y-98917539D01*
X150802011Y-98963294D01*
X150758534Y-98972752D01*
X150758625Y-98973439D01*
X150750567Y-98974499D01*
X150702813Y-98987295D01*
X150655062Y-99000090D01*
X150655060Y-99000091D01*
X150655059Y-99000091D01*
X150569436Y-99049526D01*
X150499526Y-99119436D01*
X150450091Y-99205059D01*
X150450091Y-99205060D01*
X150450090Y-99205062D01*
X150438074Y-99249908D01*
X150424499Y-99300567D01*
X150423439Y-99308625D01*
X150422163Y-99308457D01*
X150404815Y-99367539D01*
X150352011Y-99413294D01*
X150300500Y-99424500D01*
X150250565Y-99424500D01*
X150155062Y-99450090D01*
X150155060Y-99450091D01*
X150155059Y-99450091D01*
X150069436Y-99499526D01*
X149999526Y-99569436D01*
X149950091Y-99655059D01*
X149950091Y-99655060D01*
X149950090Y-99655062D01*
X149924500Y-99750565D01*
X147979090Y-99750565D01*
X147336819Y-99108294D01*
X147303334Y-99046971D01*
X147300500Y-99020613D01*
X147300500Y-94957147D01*
X153224500Y-94957147D01*
X153224500Y-95042853D01*
X153239583Y-95099142D01*
X153246682Y-95125637D01*
X153246685Y-95125644D01*
X153289530Y-95199855D01*
X153289534Y-95199860D01*
X153289535Y-95199862D01*
X153350138Y-95260465D01*
X153350140Y-95260466D01*
X153350144Y-95260469D01*
X153424355Y-95303314D01*
X153424362Y-95303318D01*
X153507147Y-95325500D01*
X153507149Y-95325500D01*
X153592851Y-95325500D01*
X153592853Y-95325500D01*
X153675638Y-95303318D01*
X153749862Y-95260465D01*
X153810465Y-95199862D01*
X153853318Y-95125638D01*
X153875500Y-95042853D01*
X153875500Y-94957147D01*
X153853318Y-94874362D01*
X153839579Y-94850565D01*
X153810469Y-94800144D01*
X153810463Y-94800136D01*
X153749863Y-94739536D01*
X153749855Y-94739530D01*
X153675644Y-94696685D01*
X153675640Y-94696683D01*
X153675638Y-94696682D01*
X153592853Y-94674500D01*
X153507147Y-94674500D01*
X153424362Y-94696682D01*
X153424355Y-94696685D01*
X153350144Y-94739530D01*
X153350136Y-94739536D01*
X153289536Y-94800136D01*
X153289530Y-94800144D01*
X153246685Y-94874355D01*
X153246682Y-94874362D01*
X153224500Y-94957147D01*
X147300500Y-94957147D01*
X147300500Y-93457147D01*
X151724500Y-93457147D01*
X151724500Y-93542852D01*
X151746682Y-93625637D01*
X151746685Y-93625644D01*
X151789530Y-93699855D01*
X151789534Y-93699860D01*
X151789535Y-93699862D01*
X151850138Y-93760465D01*
X151850140Y-93760466D01*
X151850144Y-93760469D01*
X151918854Y-93800138D01*
X151924362Y-93803318D01*
X152007147Y-93825500D01*
X152007149Y-93825500D01*
X152092851Y-93825500D01*
X152092853Y-93825500D01*
X152175638Y-93803318D01*
X152249862Y-93760465D01*
X152310465Y-93699862D01*
X152353318Y-93625638D01*
X152375500Y-93542853D01*
X152375500Y-93457147D01*
X152353318Y-93374362D01*
X152321607Y-93319436D01*
X152310469Y-93300144D01*
X152310463Y-93300136D01*
X152249863Y-93239536D01*
X152249855Y-93239530D01*
X152175644Y-93196685D01*
X152175640Y-93196683D01*
X152175638Y-93196682D01*
X152092853Y-93174500D01*
X152007147Y-93174500D01*
X151924362Y-93196682D01*
X151924355Y-93196685D01*
X151850144Y-93239530D01*
X151850136Y-93239536D01*
X151789536Y-93300136D01*
X151789530Y-93300144D01*
X151746685Y-93374355D01*
X151746682Y-93374362D01*
X151724500Y-93457147D01*
X147300500Y-93457147D01*
X147300500Y-92677527D01*
X147300500Y-92677525D01*
X147262984Y-92537515D01*
X147257776Y-92528495D01*
X147247687Y-92511019D01*
X147228142Y-92477168D01*
X147216583Y-92457147D01*
X152724500Y-92457147D01*
X152724500Y-92542853D01*
X152743016Y-92611954D01*
X152746682Y-92625637D01*
X152746685Y-92625644D01*
X152789530Y-92699855D01*
X152789534Y-92699860D01*
X152789535Y-92699862D01*
X152850138Y-92760465D01*
X152850140Y-92760466D01*
X152850144Y-92760469D01*
X152918854Y-92800138D01*
X152924362Y-92803318D01*
X153007147Y-92825500D01*
X153007149Y-92825500D01*
X153092851Y-92825500D01*
X153092853Y-92825500D01*
X153175638Y-92803318D01*
X153249862Y-92760465D01*
X153310465Y-92699862D01*
X153353318Y-92625638D01*
X153375500Y-92542853D01*
X153375500Y-92457147D01*
X153353318Y-92374362D01*
X153353314Y-92374355D01*
X153310469Y-92300144D01*
X153310463Y-92300136D01*
X153249863Y-92239536D01*
X153249855Y-92239530D01*
X153175644Y-92196685D01*
X153175640Y-92196683D01*
X153175638Y-92196682D01*
X153092853Y-92174500D01*
X153007147Y-92174500D01*
X152924362Y-92196682D01*
X152924355Y-92196685D01*
X152850144Y-92239530D01*
X152850136Y-92239536D01*
X152789536Y-92300136D01*
X152789530Y-92300144D01*
X152746685Y-92374355D01*
X152746682Y-92374362D01*
X152724500Y-92457147D01*
X147216583Y-92457147D01*
X147190509Y-92411985D01*
X147088015Y-92309491D01*
X147088013Y-92309490D01*
X147088011Y-92309488D01*
X146962488Y-92237017D01*
X146962489Y-92237017D01*
X146951006Y-92233940D01*
X146822475Y-92199500D01*
X146677525Y-92199500D01*
X146548993Y-92233940D01*
X146537511Y-92237017D01*
X146411988Y-92309488D01*
X146411982Y-92309493D01*
X146309493Y-92411982D01*
X146309488Y-92411988D01*
X146237017Y-92537511D01*
X146237016Y-92537515D01*
X146199500Y-92677525D01*
X146199500Y-92677527D01*
X146199500Y-99372476D01*
X146207125Y-99400933D01*
X146205462Y-99470783D01*
X146175031Y-99520706D01*
X143258103Y-102437636D01*
X143187637Y-102508101D01*
X143187636Y-102508102D01*
X143149500Y-102600170D01*
X143149500Y-106194877D01*
X143129815Y-106261916D01*
X143113181Y-106282558D01*
X141267181Y-108128558D01*
X141205858Y-108162043D01*
X141136166Y-108157059D01*
X141080233Y-108115187D01*
X141055816Y-108049723D01*
X141055500Y-108040877D01*
X141055500Y-106734832D01*
X141075185Y-106667793D01*
X141127989Y-106622038D01*
X141197147Y-106612094D01*
X141211582Y-106615054D01*
X141250565Y-106625500D01*
X141250568Y-106625500D01*
X141349432Y-106625500D01*
X141349435Y-106625500D01*
X141444938Y-106599910D01*
X141530562Y-106550475D01*
X141600475Y-106480562D01*
X141628355Y-106432271D01*
X141678921Y-106384057D01*
X141747528Y-106370834D01*
X141812393Y-106396802D01*
X141823422Y-106406592D01*
X141827335Y-106410505D01*
X141947164Y-106479688D01*
X142080817Y-106515500D01*
X142080819Y-106515500D01*
X142219181Y-106515500D01*
X142219183Y-106515500D01*
X142352836Y-106479688D01*
X142472665Y-106410505D01*
X142570505Y-106312665D01*
X142639688Y-106192836D01*
X142675500Y-106059183D01*
X142675500Y-105920817D01*
X142639688Y-105787164D01*
X142592287Y-105705062D01*
X142570507Y-105667338D01*
X142570503Y-105667333D01*
X142472666Y-105569496D01*
X142472661Y-105569492D01*
X142352838Y-105500313D01*
X142352837Y-105500312D01*
X142352836Y-105500312D01*
X142219183Y-105464500D01*
X142080817Y-105464500D01*
X141947164Y-105500312D01*
X141947161Y-105500313D01*
X141827338Y-105569492D01*
X141827333Y-105569496D01*
X141729496Y-105667333D01*
X141729492Y-105667338D01*
X141660313Y-105787161D01*
X141660312Y-105787162D01*
X141647078Y-105836555D01*
X141610712Y-105896215D01*
X141547865Y-105926744D01*
X141478490Y-105918449D01*
X141465313Y-105911853D01*
X141444938Y-105900090D01*
X141349435Y-105874500D01*
X141250565Y-105874500D01*
X141250560Y-105874500D01*
X141211591Y-105884942D01*
X141186600Y-105884346D01*
X141161853Y-105887905D01*
X141152270Y-105883528D01*
X141141742Y-105883278D01*
X141121040Y-105869266D01*
X141098297Y-105858880D01*
X141092602Y-105850018D01*
X141083880Y-105844115D01*
X141074039Y-105821134D01*
X141060523Y-105800102D01*
X141058242Y-105784243D01*
X141056377Y-105779886D01*
X141055500Y-105765167D01*
X141055500Y-105695818D01*
X141075185Y-105628779D01*
X141127989Y-105583024D01*
X141147406Y-105576043D01*
X141149432Y-105575500D01*
X141149435Y-105575500D01*
X141244938Y-105549910D01*
X141330562Y-105500475D01*
X141400475Y-105430562D01*
X141449910Y-105344938D01*
X141475500Y-105249435D01*
X141475500Y-105150565D01*
X141449910Y-105055062D01*
X141400475Y-104969438D01*
X141368718Y-104937681D01*
X141367653Y-104935731D01*
X141365741Y-104934600D01*
X141350987Y-104905209D01*
X141335233Y-104876358D01*
X141335391Y-104874142D01*
X141334395Y-104872157D01*
X141337871Y-104839463D01*
X141340217Y-104806666D01*
X141341621Y-104804195D01*
X141341783Y-104802679D01*
X141346526Y-104795570D01*
X141359758Y-104772305D01*
X141363965Y-104767071D01*
X141400475Y-104730562D01*
X141418711Y-104698976D01*
X141424683Y-104691548D01*
X141445842Y-104676821D01*
X141464502Y-104659028D01*
X141474051Y-104657187D01*
X141482030Y-104651634D01*
X141507789Y-104650684D01*
X141533109Y-104645804D01*
X141551274Y-104649081D01*
X141551852Y-104649060D01*
X141552157Y-104649240D01*
X141553418Y-104649468D01*
X141555057Y-104649907D01*
X141555062Y-104649910D01*
X141650565Y-104675500D01*
X141650568Y-104675500D01*
X141749432Y-104675500D01*
X141749435Y-104675500D01*
X141844938Y-104649910D01*
X141920358Y-104606365D01*
X141988254Y-104589894D01*
X142054281Y-104612746D01*
X142070036Y-104626073D01*
X142074525Y-104630562D01*
X142144438Y-104700475D01*
X142230062Y-104749910D01*
X142325565Y-104775500D01*
X142325567Y-104775500D01*
X142424432Y-104775500D01*
X142424435Y-104775500D01*
X142519938Y-104749910D01*
X142605562Y-104700475D01*
X142675475Y-104630562D01*
X142724910Y-104544938D01*
X142750500Y-104449435D01*
X142750500Y-104350565D01*
X142724910Y-104255062D01*
X142675475Y-104169438D01*
X142605562Y-104099525D01*
X142519938Y-104050090D01*
X142424435Y-104024500D01*
X142325565Y-104024500D01*
X142230062Y-104050090D01*
X142230060Y-104050090D01*
X142230060Y-104050091D01*
X142230055Y-104050093D01*
X142154643Y-104093632D01*
X142086743Y-104110105D01*
X142020716Y-104087252D01*
X142004963Y-104073926D01*
X141930563Y-103999526D01*
X141930562Y-103999525D01*
X141844938Y-103950090D01*
X141749435Y-103924500D01*
X141749433Y-103924500D01*
X141730122Y-103924500D01*
X141700681Y-103915855D01*
X141670695Y-103909332D01*
X141665679Y-103905577D01*
X141663083Y-103904815D01*
X141642445Y-103888185D01*
X141486816Y-103732556D01*
X141453334Y-103671235D01*
X141450500Y-103644877D01*
X141450500Y-103270094D01*
X141470185Y-103203055D01*
X141522989Y-103157300D01*
X141592147Y-103147356D01*
X141606566Y-103150313D01*
X141700565Y-103175500D01*
X141700569Y-103175500D01*
X141799432Y-103175500D01*
X141799435Y-103175500D01*
X141894938Y-103149910D01*
X141980562Y-103100475D01*
X142050475Y-103030562D01*
X142099910Y-102944938D01*
X142125500Y-102849435D01*
X142125500Y-102750565D01*
X142099910Y-102655062D01*
X142050475Y-102569438D01*
X141980562Y-102499525D01*
X141894938Y-102450090D01*
X141799435Y-102424500D01*
X141700565Y-102424500D01*
X141606592Y-102449679D01*
X141536744Y-102448017D01*
X141478881Y-102408854D01*
X141451377Y-102344626D01*
X141450500Y-102329905D01*
X141450500Y-101300565D01*
X141974500Y-101300565D01*
X141974500Y-101399435D01*
X142000090Y-101494938D01*
X142049525Y-101580562D01*
X142119438Y-101650475D01*
X142205062Y-101699910D01*
X142300565Y-101725500D01*
X142300567Y-101725500D01*
X142399432Y-101725500D01*
X142399435Y-101725500D01*
X142494938Y-101699910D01*
X142580562Y-101650475D01*
X142650475Y-101580562D01*
X142699910Y-101494938D01*
X142725500Y-101399435D01*
X142725500Y-101300565D01*
X142699910Y-101205062D01*
X142650475Y-101119438D01*
X142580562Y-101049525D01*
X142494938Y-101000090D01*
X142399435Y-100974500D01*
X142300565Y-100974500D01*
X142205062Y-101000090D01*
X142205060Y-101000091D01*
X142205059Y-101000091D01*
X142119436Y-101049526D01*
X142049526Y-101119436D01*
X142000091Y-101205059D01*
X142000091Y-101205060D01*
X142000090Y-101205062D01*
X141974500Y-101300565D01*
X141450500Y-101300565D01*
X141450500Y-101218290D01*
X141470185Y-101151251D01*
X141512502Y-101110902D01*
X141520362Y-101106363D01*
X141530562Y-101100475D01*
X141600475Y-101030562D01*
X141649910Y-100944938D01*
X141675500Y-100849435D01*
X141675500Y-100757617D01*
X141695185Y-100690578D01*
X141747989Y-100644823D01*
X141817147Y-100634879D01*
X141861499Y-100650229D01*
X141947164Y-100699688D01*
X142080817Y-100735500D01*
X142080819Y-100735500D01*
X142219181Y-100735500D01*
X142219183Y-100735500D01*
X142352836Y-100699688D01*
X142472665Y-100630505D01*
X142570505Y-100532665D01*
X142639688Y-100412836D01*
X142675500Y-100279183D01*
X142675500Y-100140817D01*
X142639688Y-100007164D01*
X142589704Y-99920589D01*
X142570507Y-99887338D01*
X142570503Y-99887333D01*
X142472666Y-99789496D01*
X142472661Y-99789492D01*
X142352838Y-99720313D01*
X142352837Y-99720312D01*
X142352836Y-99720312D01*
X142219183Y-99684500D01*
X142080817Y-99684500D01*
X141947164Y-99720312D01*
X141947161Y-99720313D01*
X141827338Y-99789492D01*
X141827333Y-99789496D01*
X141729496Y-99887333D01*
X141729492Y-99887338D01*
X141660313Y-100007161D01*
X141660312Y-100007164D01*
X141624500Y-100140817D01*
X141624500Y-100279183D01*
X141631434Y-100305060D01*
X141634057Y-100314850D01*
X141632394Y-100384700D01*
X141593231Y-100442562D01*
X141529002Y-100470066D01*
X141460100Y-100458479D01*
X141452282Y-100454330D01*
X141444940Y-100450091D01*
X141444939Y-100450090D01*
X141444938Y-100450090D01*
X141349435Y-100424500D01*
X141250565Y-100424500D01*
X141250560Y-100424500D01*
X141211591Y-100434942D01*
X141141742Y-100433278D01*
X141083880Y-100394115D01*
X141056377Y-100329886D01*
X141055500Y-100315167D01*
X141055500Y-99969023D01*
X141075185Y-99901984D01*
X141127989Y-99856229D01*
X141140796Y-99851625D01*
X141144929Y-99849912D01*
X141144938Y-99849910D01*
X141230562Y-99800475D01*
X141300475Y-99730562D01*
X141349910Y-99644938D01*
X141375500Y-99549435D01*
X141375500Y-99450565D01*
X141349910Y-99355062D01*
X141300475Y-99269438D01*
X141230562Y-99199525D01*
X141144938Y-99150090D01*
X141144936Y-99150089D01*
X141137431Y-99146981D01*
X141138193Y-99145139D01*
X141123619Y-99136253D01*
X141098297Y-99124689D01*
X141094201Y-99118316D01*
X141087733Y-99114372D01*
X141075573Y-99089330D01*
X141060523Y-99065911D01*
X141058975Y-99055147D01*
X141057214Y-99051520D01*
X141055500Y-99030976D01*
X141055500Y-98950565D01*
X145124500Y-98950565D01*
X145124500Y-99049435D01*
X145150090Y-99144938D01*
X145150091Y-99144939D01*
X145150091Y-99144940D01*
X145153065Y-99150091D01*
X145199525Y-99230562D01*
X145269438Y-99300475D01*
X145355062Y-99349910D01*
X145450565Y-99375500D01*
X145450567Y-99375500D01*
X145549432Y-99375500D01*
X145549435Y-99375500D01*
X145644938Y-99349910D01*
X145730562Y-99300475D01*
X145800475Y-99230562D01*
X145849910Y-99144938D01*
X145875500Y-99049435D01*
X145875500Y-98950565D01*
X145849910Y-98855062D01*
X145800475Y-98769438D01*
X145800471Y-98769434D01*
X145797216Y-98763796D01*
X145780743Y-98695896D01*
X145803595Y-98629869D01*
X145816917Y-98614119D01*
X145850475Y-98580562D01*
X145899910Y-98494938D01*
X145925500Y-98399435D01*
X145925500Y-98300565D01*
X145899910Y-98205062D01*
X145850475Y-98119438D01*
X145780562Y-98049525D01*
X145694938Y-98000090D01*
X145599435Y-97974500D01*
X145500565Y-97974500D01*
X145405062Y-98000090D01*
X145405060Y-98000091D01*
X145405059Y-98000091D01*
X145319436Y-98049526D01*
X145249526Y-98119436D01*
X145200091Y-98205059D01*
X145200091Y-98205060D01*
X145200090Y-98205062D01*
X145174500Y-98300565D01*
X145174500Y-98399435D01*
X145200090Y-98494938D01*
X145249525Y-98580562D01*
X145249526Y-98580563D01*
X145252783Y-98586204D01*
X145269256Y-98654104D01*
X145246404Y-98720131D01*
X145233078Y-98735884D01*
X145199526Y-98769436D01*
X145150091Y-98855059D01*
X145150091Y-98855060D01*
X145150090Y-98855062D01*
X145124500Y-98950565D01*
X141055500Y-98950565D01*
X141055500Y-98469023D01*
X141075185Y-98401984D01*
X141127989Y-98356229D01*
X141140796Y-98351625D01*
X141144929Y-98349912D01*
X141144938Y-98349910D01*
X141230562Y-98300475D01*
X141300475Y-98230562D01*
X141349910Y-98144938D01*
X141375500Y-98049435D01*
X141375500Y-97950565D01*
X141349910Y-97855062D01*
X141300475Y-97769438D01*
X141230562Y-97699525D01*
X141144938Y-97650090D01*
X141144936Y-97650089D01*
X141137431Y-97646981D01*
X141138193Y-97645139D01*
X141123619Y-97636253D01*
X141098297Y-97624689D01*
X141094201Y-97618316D01*
X141087733Y-97614372D01*
X141075573Y-97589330D01*
X141060523Y-97565911D01*
X141058975Y-97555147D01*
X141057214Y-97551520D01*
X141055500Y-97530976D01*
X141055500Y-97429500D01*
X141075185Y-97362461D01*
X141127989Y-97316706D01*
X141179500Y-97305500D01*
X143975991Y-97305500D01*
X143976000Y-97305500D01*
X144009055Y-97301946D01*
X144060566Y-97290740D01*
X144099396Y-97271302D01*
X144168155Y-97258896D01*
X144232706Y-97285634D01*
X144272555Y-97343025D01*
X144274676Y-97350092D01*
X144300090Y-97444939D01*
X144300091Y-97444940D01*
X144349525Y-97530562D01*
X144419438Y-97600475D01*
X144505062Y-97649910D01*
X144600565Y-97675500D01*
X144600567Y-97675500D01*
X144699432Y-97675500D01*
X144699435Y-97675500D01*
X144794938Y-97649910D01*
X144880562Y-97600475D01*
X144950475Y-97530562D01*
X144999910Y-97444938D01*
X145025500Y-97349435D01*
X145025500Y-97250565D01*
X144999910Y-97155062D01*
X144950475Y-97069438D01*
X144880562Y-96999525D01*
X144794938Y-96950090D01*
X144699435Y-96924500D01*
X144600565Y-96924500D01*
X144505062Y-96950090D01*
X144505060Y-96950090D01*
X144505060Y-96950091D01*
X144505055Y-96950093D01*
X144441499Y-96986787D01*
X144373599Y-97003260D01*
X144307572Y-96980407D01*
X144264382Y-96925486D01*
X144255500Y-96879400D01*
X144255500Y-96424008D01*
X144255499Y-96423991D01*
X144251946Y-96390945D01*
X144240740Y-96339434D01*
X144221070Y-96300138D01*
X144206313Y-96270657D01*
X144160563Y-96217860D01*
X144155577Y-96212376D01*
X144086854Y-96170486D01*
X144086848Y-96170483D01*
X144019812Y-96150799D01*
X144019807Y-96150798D01*
X143979161Y-96144954D01*
X143964718Y-96141991D01*
X143899439Y-96124500D01*
X143899435Y-96124500D01*
X143800565Y-96124500D01*
X143800563Y-96124500D01*
X143741690Y-96140275D01*
X143709598Y-96144500D01*
X143440402Y-96144500D01*
X143408310Y-96140275D01*
X143349436Y-96124500D01*
X143349435Y-96124500D01*
X143250565Y-96124500D01*
X143250563Y-96124500D01*
X143191690Y-96140275D01*
X143159598Y-96144500D01*
X142283894Y-96144500D01*
X142278268Y-96144734D01*
X142270942Y-96145039D01*
X142250389Y-96146756D01*
X142244756Y-96147755D01*
X142244486Y-96146232D01*
X142181954Y-96145106D01*
X142123866Y-96106279D01*
X142111646Y-96088788D01*
X142100475Y-96069438D01*
X142030562Y-95999525D01*
X141944938Y-95950090D01*
X141849435Y-95924500D01*
X141750565Y-95924500D01*
X141655062Y-95950090D01*
X141655060Y-95950091D01*
X141655059Y-95950091D01*
X141569436Y-95999526D01*
X141499525Y-96069437D01*
X141487412Y-96090417D01*
X141436844Y-96138631D01*
X141368236Y-96151852D01*
X141362384Y-96151152D01*
X141316114Y-96144500D01*
X141316106Y-96144500D01*
X141035107Y-96144500D01*
X140968068Y-96124815D01*
X140922313Y-96072011D01*
X140912369Y-96002853D01*
X140941394Y-95939297D01*
X140953903Y-95926788D01*
X140959473Y-95921961D01*
X140982146Y-95902315D01*
X140987621Y-95897337D01*
X141029516Y-95828607D01*
X141049201Y-95761568D01*
X141055500Y-95717757D01*
X141055500Y-94850565D01*
X143124500Y-94850565D01*
X143124500Y-94949435D01*
X143150090Y-95044938D01*
X143199525Y-95130562D01*
X143269438Y-95200475D01*
X143355062Y-95249910D01*
X143450565Y-95275500D01*
X143450567Y-95275500D01*
X143549432Y-95275500D01*
X143549435Y-95275500D01*
X143644938Y-95249910D01*
X143730562Y-95200475D01*
X143800475Y-95130562D01*
X143849910Y-95044938D01*
X143875500Y-94949435D01*
X143875500Y-94850565D01*
X143849910Y-94755062D01*
X143800475Y-94669438D01*
X143730562Y-94599525D01*
X143644938Y-94550090D01*
X143549435Y-94524500D01*
X143450565Y-94524500D01*
X143355062Y-94550090D01*
X143355060Y-94550091D01*
X143355059Y-94550091D01*
X143269436Y-94599526D01*
X143199526Y-94669436D01*
X143150091Y-94755059D01*
X143150091Y-94755060D01*
X143150090Y-94755062D01*
X143124500Y-94850565D01*
X141055500Y-94850565D01*
X141055500Y-93500565D01*
X142624500Y-93500565D01*
X142624500Y-93599435D01*
X142650090Y-93694938D01*
X142699525Y-93780562D01*
X142769438Y-93850475D01*
X142855062Y-93899910D01*
X142950565Y-93925500D01*
X142950567Y-93925500D01*
X143049432Y-93925500D01*
X143049435Y-93925500D01*
X143144938Y-93899910D01*
X143230562Y-93850475D01*
X143300475Y-93780562D01*
X143349910Y-93694938D01*
X143375500Y-93599435D01*
X143375500Y-93500565D01*
X143349910Y-93405062D01*
X143300475Y-93319438D01*
X143230562Y-93249525D01*
X143144938Y-93200090D01*
X143049435Y-93174500D01*
X142950565Y-93174500D01*
X142855062Y-93200090D01*
X142855060Y-93200091D01*
X142855059Y-93200091D01*
X142769436Y-93249526D01*
X142699526Y-93319436D01*
X142650091Y-93405059D01*
X142650091Y-93405060D01*
X142650090Y-93405062D01*
X142624500Y-93500565D01*
X141055500Y-93500565D01*
X141055500Y-90684165D01*
X145212600Y-90684165D01*
X145212600Y-90783035D01*
X145238190Y-90878538D01*
X145287625Y-90964162D01*
X145357538Y-91034075D01*
X145443162Y-91083510D01*
X145538665Y-91109100D01*
X145538667Y-91109100D01*
X145637532Y-91109100D01*
X145637535Y-91109100D01*
X145733038Y-91083510D01*
X145818662Y-91034075D01*
X145888575Y-90964162D01*
X145938010Y-90878538D01*
X145963600Y-90783035D01*
X145963600Y-90684165D01*
X145938010Y-90588662D01*
X145888575Y-90503038D01*
X145818662Y-90433125D01*
X145733038Y-90383690D01*
X145637535Y-90358100D01*
X145538665Y-90358100D01*
X145443162Y-90383690D01*
X145443160Y-90383691D01*
X145443159Y-90383691D01*
X145357536Y-90433126D01*
X145287626Y-90503036D01*
X145238191Y-90588659D01*
X145238191Y-90588660D01*
X145238190Y-90588662D01*
X145212600Y-90684165D01*
X141055500Y-90684165D01*
X141055500Y-90499500D01*
X141051946Y-90466445D01*
X141040740Y-90414934D01*
X141020431Y-90374362D01*
X141006313Y-90346157D01*
X140960563Y-90293360D01*
X140956756Y-90289173D01*
X140955580Y-90287879D01*
X140955579Y-90287878D01*
X140955577Y-90287876D01*
X140886854Y-90245986D01*
X140886848Y-90245983D01*
X140819812Y-90226299D01*
X140819802Y-90226297D01*
X140776003Y-90220000D01*
X140776000Y-90220000D01*
X138987365Y-90220000D01*
X138955272Y-90215775D01*
X138930849Y-90209231D01*
X138900941Y-90196842D01*
X138879052Y-90184204D01*
X138853372Y-90164499D01*
X138835501Y-90146628D01*
X138815794Y-90120946D01*
X138803152Y-90099049D01*
X138790765Y-90069142D01*
X138784225Y-90044733D01*
X138780000Y-90012641D01*
X138780000Y-89987357D01*
X138784223Y-89955271D01*
X138790767Y-89930848D01*
X138803151Y-89900950D01*
X138815798Y-89879044D01*
X138835498Y-89853372D01*
X138853371Y-89835499D01*
X138879046Y-89815797D01*
X138900948Y-89803153D01*
X138930851Y-89790766D01*
X138955268Y-89784224D01*
X138987359Y-89780000D01*
X140775991Y-89780000D01*
X140776000Y-89780000D01*
X140809055Y-89776446D01*
X140860566Y-89765240D01*
X140929342Y-89730813D01*
X140982146Y-89685058D01*
X140987621Y-89680080D01*
X141029516Y-89611350D01*
X141049201Y-89544311D01*
X141055500Y-89500500D01*
X141055500Y-88934165D01*
X143312600Y-88934165D01*
X143312600Y-89033035D01*
X143338190Y-89128538D01*
X143387625Y-89214162D01*
X143457538Y-89284075D01*
X143543162Y-89333510D01*
X143638665Y-89359100D01*
X143638667Y-89359100D01*
X143737532Y-89359100D01*
X143737535Y-89359100D01*
X143833038Y-89333510D01*
X143918662Y-89284075D01*
X143950919Y-89251818D01*
X144012242Y-89218333D01*
X144081934Y-89223317D01*
X144137867Y-89265189D01*
X144162284Y-89330653D01*
X144162600Y-89339499D01*
X144162600Y-89383035D01*
X144188190Y-89478538D01*
X144188191Y-89478539D01*
X144188191Y-89478540D01*
X144189359Y-89480563D01*
X144237625Y-89564162D01*
X144307538Y-89634075D01*
X144393162Y-89683510D01*
X144488665Y-89709100D01*
X144488667Y-89709100D01*
X144587532Y-89709100D01*
X144587535Y-89709100D01*
X144683038Y-89683510D01*
X144768662Y-89634075D01*
X144838575Y-89564162D01*
X144888010Y-89478538D01*
X144913600Y-89383035D01*
X144913600Y-89284165D01*
X144891199Y-89200565D01*
X145974500Y-89200565D01*
X145974500Y-89299435D01*
X146000090Y-89394938D01*
X146049525Y-89480562D01*
X146119438Y-89550475D01*
X146205062Y-89599910D01*
X146300565Y-89625500D01*
X146300567Y-89625500D01*
X146399432Y-89625500D01*
X146399435Y-89625500D01*
X146494938Y-89599910D01*
X146580562Y-89550475D01*
X146650475Y-89480562D01*
X146699910Y-89394938D01*
X146725500Y-89299435D01*
X146725500Y-89200565D01*
X146699910Y-89105062D01*
X146650475Y-89019438D01*
X146580562Y-88949525D01*
X146494938Y-88900090D01*
X146399435Y-88874500D01*
X146300565Y-88874500D01*
X146205062Y-88900090D01*
X146205060Y-88900091D01*
X146205059Y-88900091D01*
X146119436Y-88949526D01*
X146049526Y-89019436D01*
X146000091Y-89105059D01*
X146000091Y-89105060D01*
X146000090Y-89105062D01*
X145974500Y-89200565D01*
X144891199Y-89200565D01*
X144888010Y-89188662D01*
X144838575Y-89103038D01*
X144768662Y-89033125D01*
X144683038Y-88983690D01*
X144587535Y-88958100D01*
X144488665Y-88958100D01*
X144393162Y-88983690D01*
X144393160Y-88983691D01*
X144393159Y-88983691D01*
X144307536Y-89033126D01*
X144275281Y-89065382D01*
X144213958Y-89098867D01*
X144144266Y-89093883D01*
X144088333Y-89052011D01*
X144063916Y-88986547D01*
X144063600Y-88977701D01*
X144063600Y-88934167D01*
X144063600Y-88934165D01*
X144038010Y-88838662D01*
X143988575Y-88753038D01*
X143918662Y-88683125D01*
X143833038Y-88633690D01*
X143737535Y-88608100D01*
X143638665Y-88608100D01*
X143543162Y-88633690D01*
X143543160Y-88633691D01*
X143543159Y-88633691D01*
X143457536Y-88683126D01*
X143387626Y-88753036D01*
X143338191Y-88838659D01*
X143338191Y-88838660D01*
X143338190Y-88838662D01*
X143312600Y-88934165D01*
X141055500Y-88934165D01*
X141055500Y-88765771D01*
X141075185Y-88698732D01*
X141091819Y-88678090D01*
X141161809Y-88608100D01*
X141653424Y-88116484D01*
X141714745Y-88083001D01*
X141784436Y-88087985D01*
X141840370Y-88129856D01*
X141848490Y-88142166D01*
X141850089Y-88144936D01*
X141850090Y-88144938D01*
X141899525Y-88230562D01*
X141969438Y-88300475D01*
X142055062Y-88349910D01*
X142150565Y-88375500D01*
X142150567Y-88375500D01*
X142249432Y-88375500D01*
X142249435Y-88375500D01*
X142344938Y-88349910D01*
X142430562Y-88300475D01*
X142500475Y-88230562D01*
X142549910Y-88144938D01*
X142549910Y-88144935D01*
X142551255Y-88142607D01*
X142601822Y-88094392D01*
X142670429Y-88081168D01*
X142735294Y-88107136D01*
X142746323Y-88116926D01*
X142757384Y-88127987D01*
X142840706Y-88162500D01*
X142840707Y-88162500D01*
X142840708Y-88162500D01*
X145180992Y-88162500D01*
X145180994Y-88162500D01*
X145264316Y-88127987D01*
X145396884Y-87995417D01*
X145458205Y-87961934D01*
X145484564Y-87959100D01*
X145537532Y-87959100D01*
X145537535Y-87959100D01*
X145633038Y-87933510D01*
X145718662Y-87884075D01*
X145788575Y-87814162D01*
X145838010Y-87728538D01*
X145863600Y-87633035D01*
X145863600Y-87534165D01*
X145838010Y-87438662D01*
X145788575Y-87353038D01*
X145718662Y-87283125D01*
X145633038Y-87233690D01*
X145537535Y-87208100D01*
X145438665Y-87208100D01*
X145343162Y-87233690D01*
X145343160Y-87233691D01*
X145343159Y-87233691D01*
X145257536Y-87283126D01*
X145187626Y-87353036D01*
X145138191Y-87438659D01*
X145138191Y-87438660D01*
X145138190Y-87438662D01*
X145112600Y-87534165D01*
X145112600Y-87534167D01*
X145112600Y-87585100D01*
X145092915Y-87652139D01*
X145040111Y-87697894D01*
X144988600Y-87709100D01*
X144220741Y-87709100D01*
X144153702Y-87689415D01*
X144107947Y-87636611D01*
X144098003Y-87567453D01*
X144122365Y-87509613D01*
X144125463Y-87505573D01*
X144125475Y-87505562D01*
X144174910Y-87419938D01*
X144200500Y-87324435D01*
X144200500Y-87225565D01*
X144174910Y-87130062D01*
X144125475Y-87044438D01*
X144081602Y-87000565D01*
X151474500Y-87000565D01*
X151474500Y-87099435D01*
X151500090Y-87194938D01*
X151500091Y-87194939D01*
X151500091Y-87194940D01*
X151508490Y-87209488D01*
X151549525Y-87280562D01*
X151619438Y-87350475D01*
X151705062Y-87399910D01*
X151800565Y-87425500D01*
X151800567Y-87425500D01*
X151899432Y-87425500D01*
X151899435Y-87425500D01*
X151994938Y-87399910D01*
X152080562Y-87350475D01*
X152150475Y-87280562D01*
X152199910Y-87194938D01*
X152225500Y-87099435D01*
X152225500Y-87000565D01*
X152199910Y-86905062D01*
X152150475Y-86819438D01*
X152080562Y-86749525D01*
X151994938Y-86700090D01*
X151899435Y-86674500D01*
X151800565Y-86674500D01*
X151705062Y-86700090D01*
X151705060Y-86700091D01*
X151705059Y-86700091D01*
X151619436Y-86749526D01*
X151549526Y-86819436D01*
X151500091Y-86905059D01*
X151500091Y-86905060D01*
X151500090Y-86905062D01*
X151474500Y-87000565D01*
X144081602Y-87000565D01*
X144055562Y-86974525D01*
X143969938Y-86925090D01*
X143874435Y-86899500D01*
X143775565Y-86899500D01*
X143680062Y-86925090D01*
X143680060Y-86925091D01*
X143680059Y-86925091D01*
X143594436Y-86974526D01*
X143524526Y-87044436D01*
X143475091Y-87130059D01*
X143475091Y-87130060D01*
X143475090Y-87130062D01*
X143449500Y-87225565D01*
X143449500Y-87324435D01*
X143475090Y-87419938D01*
X143524525Y-87505562D01*
X143524531Y-87505568D01*
X143527635Y-87509613D01*
X143552829Y-87574782D01*
X143538791Y-87643227D01*
X143489977Y-87693217D01*
X143429259Y-87709100D01*
X143031065Y-87709100D01*
X142964026Y-87689415D01*
X142943384Y-87672781D01*
X142691160Y-87420557D01*
X142657675Y-87359234D01*
X142662659Y-87289542D01*
X142704531Y-87233609D01*
X142769995Y-87209192D01*
X142780538Y-87209507D01*
X142780538Y-87209100D01*
X142887532Y-87209100D01*
X142887535Y-87209100D01*
X142983038Y-87183510D01*
X143068662Y-87134075D01*
X143138575Y-87064162D01*
X143188010Y-86978538D01*
X143213600Y-86883035D01*
X143213600Y-86784165D01*
X143188010Y-86688662D01*
X143138575Y-86603038D01*
X143068662Y-86533125D01*
X143068659Y-86533123D01*
X143067170Y-86531981D01*
X143066227Y-86530690D01*
X143062915Y-86527378D01*
X143063431Y-86526861D01*
X143025963Y-86475557D01*
X143021803Y-86405811D01*
X143056011Y-86344888D01*
X143067170Y-86335219D01*
X143068654Y-86334079D01*
X143068662Y-86334075D01*
X143138575Y-86264162D01*
X143188010Y-86178538D01*
X143213600Y-86083035D01*
X143213600Y-85984165D01*
X143188010Y-85888662D01*
X143138575Y-85803038D01*
X143068662Y-85733125D01*
X142983038Y-85683690D01*
X142887535Y-85658100D01*
X142788665Y-85658100D01*
X142711593Y-85678751D01*
X142641743Y-85677088D01*
X142583880Y-85637925D01*
X142556377Y-85573696D01*
X142555500Y-85558976D01*
X142555500Y-84328100D01*
X142575185Y-84261061D01*
X142627989Y-84215306D01*
X142679500Y-84204100D01*
X145494025Y-84204100D01*
X145561064Y-84223785D01*
G37*
G04 #@! TD.AperFunction*
G04 #@! TD*
M02*
