%TF.GenerationSoftware,KiCad,Pcbnew,9.0.0+1*%
%TF.CreationDate,2025-04-09T20:19:07+02:00*%
%TF.ProjectId,P4_M.2_B+M-key,50345f4d-2e32-45f4-922b-4d2d6b65792e,rev?*%
%TF.SameCoordinates,Original*%
%TF.FileFunction,Drillmap*%
%TF.FilePolarity,Positive*%
%FSLAX45Y45*%
G04 Gerber Fmt 4.5, Leading zero omitted, Abs format (unit mm)*
G04 Created by KiCad (PCBNEW 9.0.0+1) date 2025-04-09 20:19:07*
%MOMM*%
%LPD*%
G01*
G04 APERTURE LIST*
%ADD10C,0.050000*%
%ADD11C,0.200000*%
%ADD12C,0.100000*%
%ADD13C,0.350000*%
G04 APERTURE END LIST*
D10*
X13750110Y-8450360D02*
X13750110Y-12180360D01*
X13770110Y-12200360D02*
X13805110Y-12200360D01*
X13855110Y-12250360D02*
X13855110Y-12580360D01*
X14177610Y-12310360D02*
X14177610Y-12600360D01*
X14177610Y-12600360D02*
X13875110Y-12600360D01*
X14297610Y-12310360D02*
X14297610Y-12600360D01*
X14297610Y-12600360D02*
X15470110Y-12600360D01*
X15470110Y-12600360D02*
X15825110Y-12600360D01*
X15845110Y-12580360D02*
X15845110Y-12250360D01*
X15895110Y-12200360D02*
X15930110Y-12200360D01*
X15900110Y-8400360D02*
X13800110Y-8400360D01*
X15950110Y-12180360D02*
X15950110Y-8450360D01*
X13750110Y-8450360D02*
G75*
G02*
X13800110Y-8400360I50000J0D01*
G01*
X13770110Y-12200360D02*
G75*
G02*
X13750110Y-12180360I0J20000D01*
G01*
X13805110Y-12200360D02*
G75*
G02*
X13855110Y-12250360I0J-50000D01*
G01*
X13875110Y-12600360D02*
G75*
G02*
X13855110Y-12580360I0J20000D01*
G01*
X14177610Y-12310360D02*
G75*
G02*
X14237610Y-12250360I60000J0D01*
G01*
X14237610Y-12250360D02*
G75*
G02*
X14297610Y-12310360I0J-60000D01*
G01*
X15845110Y-12250360D02*
G75*
G02*
X15895110Y-12200360I50000J0D01*
G01*
X15845110Y-12580360D02*
G75*
G02*
X15825110Y-12600360I-20000J0D01*
G01*
X15900110Y-8400360D02*
G75*
G02*
X15950110Y-8450360I0J-50000D01*
G01*
X15950110Y-12180360D02*
G75*
G02*
X15930110Y-12200360I-20000J0D01*
G01*
D11*
D12*
X15195000Y-9290000D02*
X15215000Y-9310000D01*
X15215000Y-9290000D02*
X15195000Y-9310000D01*
X15195000Y-9340000D02*
X15215000Y-9360000D01*
X15215000Y-9340000D02*
X15195000Y-9360000D01*
X15245000Y-9240000D02*
X15265000Y-9260000D01*
X15265000Y-9240000D02*
X15245000Y-9260000D01*
X15295000Y-9240000D02*
X15315000Y-9260000D01*
X15315000Y-9240000D02*
X15295000Y-9260000D01*
X15345000Y-9490000D02*
X15365000Y-9510000D01*
X15365000Y-9490000D02*
X15345000Y-9510000D01*
X15395000Y-9040000D02*
X15415000Y-9060000D01*
X15415000Y-9040000D02*
X15395000Y-9060000D01*
X15395000Y-9140000D02*
X15415000Y-9160000D01*
X15415000Y-9140000D02*
X15395000Y-9160000D01*
X15395000Y-9490000D02*
X15415000Y-9510000D01*
X15415000Y-9490000D02*
X15395000Y-9510000D01*
X15395000Y-9590000D02*
X15415000Y-9610000D01*
X15415000Y-9590000D02*
X15395000Y-9610000D01*
X15395000Y-9640000D02*
X15415000Y-9660000D01*
X15415000Y-9640000D02*
X15395000Y-9660000D01*
X15395000Y-9690000D02*
X15415000Y-9710000D01*
X15415000Y-9690000D02*
X15395000Y-9710000D01*
X15445000Y-9040000D02*
X15465000Y-9060000D01*
X15465000Y-9040000D02*
X15445000Y-9060000D01*
X15445000Y-9090000D02*
X15465000Y-9110000D01*
X15465000Y-9090000D02*
X15445000Y-9110000D01*
X15445000Y-9140000D02*
X15465000Y-9160000D01*
X15465000Y-9140000D02*
X15445000Y-9160000D01*
X15445000Y-9290000D02*
X15465000Y-9310000D01*
X15465000Y-9290000D02*
X15445000Y-9310000D01*
X15445000Y-9340000D02*
X15465000Y-9360000D01*
X15465000Y-9340000D02*
X15445000Y-9360000D01*
X15445000Y-9390000D02*
X15465000Y-9410000D01*
X15465000Y-9390000D02*
X15445000Y-9410000D01*
X15445000Y-9440000D02*
X15465000Y-9460000D01*
X15465000Y-9440000D02*
X15445000Y-9460000D01*
X15445000Y-9640000D02*
X15465000Y-9660000D01*
X15465000Y-9640000D02*
X15445000Y-9660000D01*
X15495000Y-9040000D02*
X15515000Y-9060000D01*
X15515000Y-9040000D02*
X15495000Y-9060000D01*
X15495000Y-9090000D02*
X15515000Y-9110000D01*
X15515000Y-9090000D02*
X15495000Y-9110000D01*
X15495000Y-9220000D02*
X15515000Y-9240000D01*
X15515000Y-9220000D02*
X15495000Y-9240000D01*
X15495000Y-9590000D02*
X15515000Y-9610000D01*
X15515000Y-9590000D02*
X15495000Y-9610000D01*
X15495000Y-9640000D02*
X15515000Y-9660000D01*
X15515000Y-9640000D02*
X15495000Y-9660000D01*
X15545000Y-9040000D02*
X15565000Y-9060000D01*
X15565000Y-9040000D02*
X15545000Y-9060000D01*
X15545000Y-9640000D02*
X15565000Y-9660000D01*
X15565000Y-9640000D02*
X15545000Y-9660000D01*
X15595000Y-9090000D02*
X15615000Y-9110000D01*
X15615000Y-9090000D02*
X15595000Y-9110000D01*
X15595000Y-9590000D02*
X15615000Y-9610000D01*
X15615000Y-9590000D02*
X15595000Y-9610000D01*
X15595000Y-9640000D02*
X15615000Y-9660000D01*
X15615000Y-9640000D02*
X15595000Y-9660000D01*
X13812500Y-9720000D02*
G75*
G02*
X13787500Y-9720000I-12500J0D01*
G01*
X13787500Y-9720000D02*
G75*
G02*
X13812500Y-9720000I12500J0D01*
G01*
X13817500Y-10335000D02*
G75*
G02*
X13792500Y-10335000I-12500J0D01*
G01*
X13792500Y-10335000D02*
G75*
G02*
X13817500Y-10335000I12500J0D01*
G01*
X13827500Y-10530000D02*
G75*
G02*
X13802500Y-10530000I-12500J0D01*
G01*
X13802500Y-10530000D02*
G75*
G02*
X13827500Y-10530000I12500J0D01*
G01*
X13830000Y-8615000D02*
G75*
G02*
X13805000Y-8615000I-12500J0D01*
G01*
X13805000Y-8615000D02*
G75*
G02*
X13830000Y-8615000I12500J0D01*
G01*
X13847500Y-10990000D02*
G75*
G02*
X13822500Y-10990000I-12500J0D01*
G01*
X13822500Y-10990000D02*
G75*
G02*
X13847500Y-10990000I12500J0D01*
G01*
X13847500Y-11060000D02*
G75*
G02*
X13822500Y-11060000I-12500J0D01*
G01*
X13822500Y-11060000D02*
G75*
G02*
X13847500Y-11060000I12500J0D01*
G01*
X13847500Y-11130000D02*
G75*
G02*
X13822500Y-11130000I-12500J0D01*
G01*
X13822500Y-11130000D02*
G75*
G02*
X13847500Y-11130000I12500J0D01*
G01*
X13852500Y-10070000D02*
G75*
G02*
X13827500Y-10070000I-12500J0D01*
G01*
X13827500Y-10070000D02*
G75*
G02*
X13852500Y-10070000I12500J0D01*
G01*
X13852500Y-10130000D02*
G75*
G02*
X13827500Y-10130000I-12500J0D01*
G01*
X13827500Y-10130000D02*
G75*
G02*
X13852500Y-10130000I12500J0D01*
G01*
X13862500Y-9280000D02*
G75*
G02*
X13837500Y-9280000I-12500J0D01*
G01*
X13837500Y-9280000D02*
G75*
G02*
X13862500Y-9280000I12500J0D01*
G01*
X13862500Y-9370000D02*
G75*
G02*
X13837500Y-9370000I-12500J0D01*
G01*
X13837500Y-9370000D02*
G75*
G02*
X13862500Y-9370000I12500J0D01*
G01*
X13882500Y-9960000D02*
G75*
G02*
X13857500Y-9960000I-12500J0D01*
G01*
X13857500Y-9960000D02*
G75*
G02*
X13882500Y-9960000I12500J0D01*
G01*
X13892500Y-10280000D02*
G75*
G02*
X13867500Y-10280000I-12500J0D01*
G01*
X13867500Y-10280000D02*
G75*
G02*
X13892500Y-10280000I12500J0D01*
G01*
X13892500Y-12195000D02*
G75*
G02*
X13867500Y-12195000I-12500J0D01*
G01*
X13867500Y-12195000D02*
G75*
G02*
X13892500Y-12195000I12500J0D01*
G01*
X13897500Y-9545000D02*
G75*
G02*
X13872500Y-9545000I-12500J0D01*
G01*
X13872500Y-9545000D02*
G75*
G02*
X13897500Y-9545000I12500J0D01*
G01*
X13912500Y-9000000D02*
G75*
G02*
X13887500Y-9000000I-12500J0D01*
G01*
X13887500Y-9000000D02*
G75*
G02*
X13912500Y-9000000I12500J0D01*
G01*
X13912500Y-10070000D02*
G75*
G02*
X13887500Y-10070000I-12500J0D01*
G01*
X13887500Y-10070000D02*
G75*
G02*
X13912500Y-10070000I12500J0D01*
G01*
X13912500Y-10130000D02*
G75*
G02*
X13887500Y-10130000I-12500J0D01*
G01*
X13887500Y-10130000D02*
G75*
G02*
X13912500Y-10130000I12500J0D01*
G01*
X13926250Y-11722500D02*
G75*
G02*
X13901250Y-11722500I-12500J0D01*
G01*
X13901250Y-11722500D02*
G75*
G02*
X13926250Y-11722500I12500J0D01*
G01*
X13926250Y-11847500D02*
G75*
G02*
X13901250Y-11847500I-12500J0D01*
G01*
X13901250Y-11847500D02*
G75*
G02*
X13926250Y-11847500I12500J0D01*
G01*
X13927500Y-12245000D02*
G75*
G02*
X13902500Y-12245000I-12500J0D01*
G01*
X13902500Y-12245000D02*
G75*
G02*
X13927500Y-12245000I12500J0D01*
G01*
X13930267Y-11567613D02*
G75*
G02*
X13905267Y-11567613I-12500J0D01*
G01*
X13905267Y-11567613D02*
G75*
G02*
X13930267Y-11567613I12500J0D01*
G01*
X13932500Y-10520000D02*
G75*
G02*
X13907500Y-10520000I-12500J0D01*
G01*
X13907500Y-10520000D02*
G75*
G02*
X13932500Y-10520000I12500J0D01*
G01*
X13952500Y-9280000D02*
G75*
G02*
X13927500Y-9280000I-12500J0D01*
G01*
X13927500Y-9280000D02*
G75*
G02*
X13952500Y-9280000I12500J0D01*
G01*
X13952500Y-9370000D02*
G75*
G02*
X13927500Y-9370000I-12500J0D01*
G01*
X13927500Y-9370000D02*
G75*
G02*
X13952500Y-9370000I12500J0D01*
G01*
X13952500Y-10674500D02*
G75*
G02*
X13927500Y-10674500I-12500J0D01*
G01*
X13927500Y-10674500D02*
G75*
G02*
X13952500Y-10674500I12500J0D01*
G01*
X13955000Y-12047380D02*
G75*
G02*
X13930000Y-12047380I-12500J0D01*
G01*
X13930000Y-12047380D02*
G75*
G02*
X13955000Y-12047380I12500J0D01*
G01*
X13955000Y-12107620D02*
G75*
G02*
X13930000Y-12107620I-12500J0D01*
G01*
X13930000Y-12107620D02*
G75*
G02*
X13955000Y-12107620I12500J0D01*
G01*
X13962500Y-12185000D02*
G75*
G02*
X13937500Y-12185000I-12500J0D01*
G01*
X13937500Y-12185000D02*
G75*
G02*
X13962500Y-12185000I12500J0D01*
G01*
X13965000Y-11454880D02*
G75*
G02*
X13940000Y-11454880I-12500J0D01*
G01*
X13940000Y-11454880D02*
G75*
G02*
X13965000Y-11454880I12500J0D01*
G01*
X13965000Y-11515120D02*
G75*
G02*
X13940000Y-11515120I-12500J0D01*
G01*
X13940000Y-11515120D02*
G75*
G02*
X13965000Y-11515120I12500J0D01*
G01*
X13977500Y-9000000D02*
G75*
G02*
X13952500Y-9000000I-12500J0D01*
G01*
X13952500Y-9000000D02*
G75*
G02*
X13977500Y-9000000I12500J0D01*
G01*
X14012500Y-10130000D02*
G75*
G02*
X13987500Y-10130000I-12500J0D01*
G01*
X13987500Y-10130000D02*
G75*
G02*
X14012500Y-10130000I12500J0D01*
G01*
X14012990Y-9650155D02*
G75*
G02*
X13987990Y-9650155I-12500J0D01*
G01*
X13987990Y-9650155D02*
G75*
G02*
X14012990Y-9650155I12500J0D01*
G01*
X14042500Y-9000000D02*
G75*
G02*
X14017500Y-9000000I-12500J0D01*
G01*
X14017500Y-9000000D02*
G75*
G02*
X14042500Y-9000000I12500J0D01*
G01*
X14047500Y-8585000D02*
G75*
G02*
X14022500Y-8585000I-12500J0D01*
G01*
X14022500Y-8585000D02*
G75*
G02*
X14047500Y-8585000I12500J0D01*
G01*
X14047500Y-8690000D02*
G75*
G02*
X14022500Y-8690000I-12500J0D01*
G01*
X14022500Y-8690000D02*
G75*
G02*
X14047500Y-8690000I12500J0D01*
G01*
X14055022Y-9607338D02*
G75*
G02*
X14030022Y-9607338I-12500J0D01*
G01*
X14030022Y-9607338D02*
G75*
G02*
X14055022Y-9607338I12500J0D01*
G01*
X14072500Y-10210000D02*
G75*
G02*
X14047500Y-10210000I-12500J0D01*
G01*
X14047500Y-10210000D02*
G75*
G02*
X14072500Y-10210000I12500J0D01*
G01*
X14092500Y-12150000D02*
G75*
G02*
X14067500Y-12150000I-12500J0D01*
G01*
X14067500Y-12150000D02*
G75*
G02*
X14092500Y-12150000I12500J0D01*
G01*
X14092500Y-12270000D02*
G75*
G02*
X14067500Y-12270000I-12500J0D01*
G01*
X14067500Y-12270000D02*
G75*
G02*
X14092500Y-12270000I12500J0D01*
G01*
X14097500Y-8635000D02*
G75*
G02*
X14072500Y-8635000I-12500J0D01*
G01*
X14072500Y-8635000D02*
G75*
G02*
X14097500Y-8635000I12500J0D01*
G01*
X14102500Y-8720000D02*
G75*
G02*
X14077500Y-8720000I-12500J0D01*
G01*
X14077500Y-8720000D02*
G75*
G02*
X14102500Y-8720000I12500J0D01*
G01*
X14102500Y-11454880D02*
G75*
G02*
X14077500Y-11454880I-12500J0D01*
G01*
X14077500Y-11454880D02*
G75*
G02*
X14102500Y-11454880I12500J0D01*
G01*
X14102500Y-11515120D02*
G75*
G02*
X14077500Y-11515120I-12500J0D01*
G01*
X14077500Y-11515120D02*
G75*
G02*
X14102500Y-11515120I12500J0D01*
G01*
X14107500Y-9000000D02*
G75*
G02*
X14082500Y-9000000I-12500J0D01*
G01*
X14082500Y-9000000D02*
G75*
G02*
X14107500Y-9000000I12500J0D01*
G01*
X14112500Y-9800000D02*
G75*
G02*
X14087500Y-9800000I-12500J0D01*
G01*
X14087500Y-9800000D02*
G75*
G02*
X14112500Y-9800000I12500J0D01*
G01*
X14112500Y-9950000D02*
G75*
G02*
X14087500Y-9950000I-12500J0D01*
G01*
X14087500Y-9950000D02*
G75*
G02*
X14112500Y-9950000I12500J0D01*
G01*
X14122500Y-10450000D02*
G75*
G02*
X14097500Y-10450000I-12500J0D01*
G01*
X14097500Y-10450000D02*
G75*
G02*
X14122500Y-10450000I12500J0D01*
G01*
X14122500Y-10520000D02*
G75*
G02*
X14097500Y-10520000I-12500J0D01*
G01*
X14097500Y-10520000D02*
G75*
G02*
X14122500Y-10520000I12500J0D01*
G01*
X14122500Y-12210000D02*
G75*
G02*
X14097500Y-12210000I-12500J0D01*
G01*
X14097500Y-12210000D02*
G75*
G02*
X14122500Y-12210000I12500J0D01*
G01*
X14127500Y-11960000D02*
G75*
G02*
X14102500Y-11960000I-12500J0D01*
G01*
X14102500Y-11960000D02*
G75*
G02*
X14127500Y-11960000I12500J0D01*
G01*
X14142500Y-10080000D02*
G75*
G02*
X14117500Y-10080000I-12500J0D01*
G01*
X14117500Y-10080000D02*
G75*
G02*
X14142500Y-10080000I12500J0D01*
G01*
X14142500Y-10625000D02*
G75*
G02*
X14117500Y-10625000I-12500J0D01*
G01*
X14117500Y-10625000D02*
G75*
G02*
X14142500Y-10625000I12500J0D01*
G01*
X14152500Y-12150000D02*
G75*
G02*
X14127500Y-12150000I-12500J0D01*
G01*
X14127500Y-12150000D02*
G75*
G02*
X14152500Y-12150000I12500J0D01*
G01*
X14165000Y-11449693D02*
G75*
G02*
X14140000Y-11449693I-12500J0D01*
G01*
X14140000Y-11449693D02*
G75*
G02*
X14165000Y-11449693I12500J0D01*
G01*
X14182500Y-10430000D02*
G75*
G02*
X14157500Y-10430000I-12500J0D01*
G01*
X14157500Y-10430000D02*
G75*
G02*
X14182500Y-10430000I12500J0D01*
G01*
X14187500Y-10280000D02*
G75*
G02*
X14162500Y-10280000I-12500J0D01*
G01*
X14162500Y-10280000D02*
G75*
G02*
X14187500Y-10280000I12500J0D01*
G01*
X14187500Y-11537500D02*
G75*
G02*
X14162500Y-11537500I-12500J0D01*
G01*
X14162500Y-11537500D02*
G75*
G02*
X14187500Y-11537500I12500J0D01*
G01*
X14192500Y-9630000D02*
G75*
G02*
X14167500Y-9630000I-12500J0D01*
G01*
X14167500Y-9630000D02*
G75*
G02*
X14192500Y-9630000I12500J0D01*
G01*
X14212500Y-12150000D02*
G75*
G02*
X14187500Y-12150000I-12500J0D01*
G01*
X14187500Y-12150000D02*
G75*
G02*
X14212500Y-12150000I12500J0D01*
G01*
X14214338Y-11483837D02*
G75*
G02*
X14189338Y-11483837I-12500J0D01*
G01*
X14189338Y-11483837D02*
G75*
G02*
X14214338Y-11483837I12500J0D01*
G01*
X14232500Y-8800000D02*
G75*
G02*
X14207500Y-8800000I-12500J0D01*
G01*
X14207500Y-8800000D02*
G75*
G02*
X14232500Y-8800000I12500J0D01*
G01*
X14247500Y-10135000D02*
G75*
G02*
X14222500Y-10135000I-12500J0D01*
G01*
X14222500Y-10135000D02*
G75*
G02*
X14247500Y-10135000I12500J0D01*
G01*
X14250000Y-10440000D02*
G75*
G02*
X14225000Y-10440000I-12500J0D01*
G01*
X14225000Y-10440000D02*
G75*
G02*
X14250000Y-10440000I12500J0D01*
G01*
X14262500Y-11060000D02*
G75*
G02*
X14237500Y-11060000I-12500J0D01*
G01*
X14237500Y-11060000D02*
G75*
G02*
X14262500Y-11060000I12500J0D01*
G01*
X14282500Y-9165000D02*
G75*
G02*
X14257500Y-9165000I-12500J0D01*
G01*
X14257500Y-9165000D02*
G75*
G02*
X14282500Y-9165000I12500J0D01*
G01*
X14282500Y-10967500D02*
G75*
G02*
X14257500Y-10967500I-12500J0D01*
G01*
X14257500Y-10967500D02*
G75*
G02*
X14282500Y-10967500I12500J0D01*
G01*
X14296310Y-8603360D02*
G75*
G02*
X14271310Y-8603360I-12500J0D01*
G01*
X14271310Y-8603360D02*
G75*
G02*
X14296310Y-8603360I12500J0D01*
G01*
X14296310Y-8683360D02*
G75*
G02*
X14271310Y-8683360I-12500J0D01*
G01*
X14271310Y-8683360D02*
G75*
G02*
X14296310Y-8683360I12500J0D01*
G01*
X14312500Y-9355000D02*
G75*
G02*
X14287500Y-9355000I-12500J0D01*
G01*
X14287500Y-9355000D02*
G75*
G02*
X14312500Y-9355000I12500J0D01*
G01*
X14312500Y-10790000D02*
G75*
G02*
X14287500Y-10790000I-12500J0D01*
G01*
X14287500Y-10790000D02*
G75*
G02*
X14312500Y-10790000I12500J0D01*
G01*
X14312500Y-10850000D02*
G75*
G02*
X14287500Y-10850000I-12500J0D01*
G01*
X14287500Y-10850000D02*
G75*
G02*
X14312500Y-10850000I12500J0D01*
G01*
X14312500Y-12200000D02*
G75*
G02*
X14287500Y-12200000I-12500J0D01*
G01*
X14287500Y-12200000D02*
G75*
G02*
X14312500Y-12200000I12500J0D01*
G01*
X14327500Y-11140000D02*
G75*
G02*
X14302500Y-11140000I-12500J0D01*
G01*
X14302500Y-11140000D02*
G75*
G02*
X14327500Y-11140000I12500J0D01*
G01*
X14342500Y-9650000D02*
G75*
G02*
X14317500Y-9650000I-12500J0D01*
G01*
X14317500Y-9650000D02*
G75*
G02*
X14342500Y-9650000I12500J0D01*
G01*
X14362500Y-9490000D02*
G75*
G02*
X14337500Y-9490000I-12500J0D01*
G01*
X14337500Y-9490000D02*
G75*
G02*
X14362500Y-9490000I12500J0D01*
G01*
X14381310Y-8898360D02*
G75*
G02*
X14356310Y-8898360I-12500J0D01*
G01*
X14356310Y-8898360D02*
G75*
G02*
X14381310Y-8898360I12500J0D01*
G01*
X14382500Y-11080000D02*
G75*
G02*
X14357500Y-11080000I-12500J0D01*
G01*
X14357500Y-11080000D02*
G75*
G02*
X14382500Y-11080000I12500J0D01*
G01*
X14395000Y-8727500D02*
G75*
G02*
X14370000Y-8727500I-12500J0D01*
G01*
X14370000Y-8727500D02*
G75*
G02*
X14395000Y-8727500I12500J0D01*
G01*
X14397500Y-9650000D02*
G75*
G02*
X14372500Y-9650000I-12500J0D01*
G01*
X14372500Y-9650000D02*
G75*
G02*
X14397500Y-9650000I12500J0D01*
G01*
X14402500Y-8515000D02*
G75*
G02*
X14377500Y-8515000I-12500J0D01*
G01*
X14377500Y-8515000D02*
G75*
G02*
X14402500Y-8515000I12500J0D01*
G01*
X14415000Y-10715000D02*
G75*
G02*
X14390000Y-10715000I-12500J0D01*
G01*
X14390000Y-10715000D02*
G75*
G02*
X14415000Y-10715000I12500J0D01*
G01*
X14415000Y-10790000D02*
G75*
G02*
X14390000Y-10790000I-12500J0D01*
G01*
X14390000Y-10790000D02*
G75*
G02*
X14415000Y-10790000I12500J0D01*
G01*
X14422500Y-11170000D02*
G75*
G02*
X14397500Y-11170000I-12500J0D01*
G01*
X14397500Y-11170000D02*
G75*
G02*
X14422500Y-11170000I12500J0D01*
G01*
X14450216Y-11295709D02*
G75*
G02*
X14425216Y-11295709I-12500J0D01*
G01*
X14425216Y-11295709D02*
G75*
G02*
X14450216Y-11295709I12500J0D01*
G01*
X14452500Y-11452500D02*
G75*
G02*
X14427500Y-11452500I-12500J0D01*
G01*
X14427500Y-11452500D02*
G75*
G02*
X14452500Y-11452500I12500J0D01*
G01*
X14452500Y-11552500D02*
G75*
G02*
X14427500Y-11552500I-12500J0D01*
G01*
X14427500Y-11552500D02*
G75*
G02*
X14452500Y-11552500I12500J0D01*
G01*
X14466310Y-8933360D02*
G75*
G02*
X14441310Y-8933360I-12500J0D01*
G01*
X14441310Y-8933360D02*
G75*
G02*
X14466310Y-8933360I12500J0D01*
G01*
X14467500Y-10660000D02*
G75*
G02*
X14442500Y-10660000I-12500J0D01*
G01*
X14442500Y-10660000D02*
G75*
G02*
X14467500Y-10660000I12500J0D01*
G01*
X14472500Y-10470000D02*
G75*
G02*
X14447500Y-10470000I-12500J0D01*
G01*
X14447500Y-10470000D02*
G75*
G02*
X14472500Y-10470000I12500J0D01*
G01*
X14472500Y-11240000D02*
G75*
G02*
X14447500Y-11240000I-12500J0D01*
G01*
X14447500Y-11240000D02*
G75*
G02*
X14472500Y-11240000I12500J0D01*
G01*
X14477500Y-9730000D02*
G75*
G02*
X14452500Y-9730000I-12500J0D01*
G01*
X14452500Y-9730000D02*
G75*
G02*
X14477500Y-9730000I12500J0D01*
G01*
X14477500Y-11725000D02*
G75*
G02*
X14452500Y-11725000I-12500J0D01*
G01*
X14452500Y-11725000D02*
G75*
G02*
X14477500Y-11725000I12500J0D01*
G01*
X14482500Y-11180000D02*
G75*
G02*
X14457500Y-11180000I-12500J0D01*
G01*
X14457500Y-11180000D02*
G75*
G02*
X14482500Y-11180000I12500J0D01*
G01*
X14487500Y-10410000D02*
G75*
G02*
X14462500Y-10410000I-12500J0D01*
G01*
X14462500Y-10410000D02*
G75*
G02*
X14487500Y-10410000I12500J0D01*
G01*
X14488277Y-11342092D02*
G75*
G02*
X14463277Y-11342092I-12500J0D01*
G01*
X14463277Y-11342092D02*
G75*
G02*
X14488277Y-11342092I12500J0D01*
G01*
X14490040Y-11109887D02*
G75*
G02*
X14465040Y-11109887I-12500J0D01*
G01*
X14465040Y-11109887D02*
G75*
G02*
X14490040Y-11109887I12500J0D01*
G01*
X14492500Y-10595000D02*
G75*
G02*
X14467500Y-10595000I-12500J0D01*
G01*
X14467500Y-10595000D02*
G75*
G02*
X14492500Y-10595000I12500J0D01*
G01*
X14496272Y-11493537D02*
G75*
G02*
X14471272Y-11493537I-12500J0D01*
G01*
X14471272Y-11493537D02*
G75*
G02*
X14496272Y-11493537I12500J0D01*
G01*
X14532500Y-10320000D02*
G75*
G02*
X14507500Y-10320000I-12500J0D01*
G01*
X14507500Y-10320000D02*
G75*
G02*
X14532500Y-10320000I12500J0D01*
G01*
X14561310Y-8758360D02*
G75*
G02*
X14536310Y-8758360I-12500J0D01*
G01*
X14536310Y-8758360D02*
G75*
G02*
X14561310Y-8758360I12500J0D01*
G01*
X14562500Y-9900000D02*
G75*
G02*
X14537500Y-9900000I-12500J0D01*
G01*
X14537500Y-9900000D02*
G75*
G02*
X14562500Y-9900000I12500J0D01*
G01*
X14562500Y-11620000D02*
G75*
G02*
X14537500Y-11620000I-12500J0D01*
G01*
X14537500Y-11620000D02*
G75*
G02*
X14562500Y-11620000I12500J0D01*
G01*
X14562500Y-11855000D02*
G75*
G02*
X14537500Y-11855000I-12500J0D01*
G01*
X14537500Y-11855000D02*
G75*
G02*
X14562500Y-11855000I12500J0D01*
G01*
X14567500Y-9835000D02*
G75*
G02*
X14542500Y-9835000I-12500J0D01*
G01*
X14542500Y-9835000D02*
G75*
G02*
X14567500Y-9835000I12500J0D01*
G01*
X14571310Y-9073360D02*
G75*
G02*
X14546310Y-9073360I-12500J0D01*
G01*
X14546310Y-9073360D02*
G75*
G02*
X14571310Y-9073360I12500J0D01*
G01*
X14587500Y-12290000D02*
G75*
G02*
X14562500Y-12290000I-12500J0D01*
G01*
X14562500Y-12290000D02*
G75*
G02*
X14587500Y-12290000I12500J0D01*
G01*
X14597669Y-10472756D02*
G75*
G02*
X14572669Y-10472756I-12500J0D01*
G01*
X14572669Y-10472756D02*
G75*
G02*
X14597669Y-10472756I12500J0D01*
G01*
X14607500Y-10390000D02*
G75*
G02*
X14582500Y-10390000I-12500J0D01*
G01*
X14582500Y-10390000D02*
G75*
G02*
X14607500Y-10390000I12500J0D01*
G01*
X14620000Y-11880000D02*
G75*
G02*
X14595000Y-11880000I-12500J0D01*
G01*
X14595000Y-11880000D02*
G75*
G02*
X14620000Y-11880000I12500J0D01*
G01*
X14632414Y-11555694D02*
G75*
G02*
X14607414Y-11555694I-12500J0D01*
G01*
X14607414Y-11555694D02*
G75*
G02*
X14632414Y-11555694I12500J0D01*
G01*
X14632500Y-10200000D02*
G75*
G02*
X14607500Y-10200000I-12500J0D01*
G01*
X14607500Y-10200000D02*
G75*
G02*
X14632500Y-10200000I12500J0D01*
G01*
X14632500Y-10720000D02*
G75*
G02*
X14607500Y-10720000I-12500J0D01*
G01*
X14607500Y-10720000D02*
G75*
G02*
X14632500Y-10720000I12500J0D01*
G01*
X14632500Y-10790000D02*
G75*
G02*
X14607500Y-10790000I-12500J0D01*
G01*
X14607500Y-10790000D02*
G75*
G02*
X14632500Y-10790000I12500J0D01*
G01*
X14632500Y-10860000D02*
G75*
G02*
X14607500Y-10860000I-12500J0D01*
G01*
X14607500Y-10860000D02*
G75*
G02*
X14632500Y-10860000I12500J0D01*
G01*
X14632500Y-10920000D02*
G75*
G02*
X14607500Y-10920000I-12500J0D01*
G01*
X14607500Y-10920000D02*
G75*
G02*
X14632500Y-10920000I12500J0D01*
G01*
X14632500Y-10980000D02*
G75*
G02*
X14607500Y-10980000I-12500J0D01*
G01*
X14607500Y-10980000D02*
G75*
G02*
X14632500Y-10980000I12500J0D01*
G01*
X14632500Y-11040000D02*
G75*
G02*
X14607500Y-11040000I-12500J0D01*
G01*
X14607500Y-11040000D02*
G75*
G02*
X14632500Y-11040000I12500J0D01*
G01*
X14632500Y-11100000D02*
G75*
G02*
X14607500Y-11100000I-12500J0D01*
G01*
X14607500Y-11100000D02*
G75*
G02*
X14632500Y-11100000I12500J0D01*
G01*
X14632500Y-11255000D02*
G75*
G02*
X14607500Y-11255000I-12500J0D01*
G01*
X14607500Y-11255000D02*
G75*
G02*
X14632500Y-11255000I12500J0D01*
G01*
X14632500Y-11440000D02*
G75*
G02*
X14607500Y-11440000I-12500J0D01*
G01*
X14607500Y-11440000D02*
G75*
G02*
X14632500Y-11440000I12500J0D01*
G01*
X14637500Y-8455000D02*
G75*
G02*
X14612500Y-8455000I-12500J0D01*
G01*
X14612500Y-8455000D02*
G75*
G02*
X14637500Y-8455000I12500J0D01*
G01*
X14640000Y-11360000D02*
G75*
G02*
X14615000Y-11360000I-12500J0D01*
G01*
X14615000Y-11360000D02*
G75*
G02*
X14640000Y-11360000I12500J0D01*
G01*
X14647500Y-8925000D02*
G75*
G02*
X14622500Y-8925000I-12500J0D01*
G01*
X14622500Y-8925000D02*
G75*
G02*
X14647500Y-8925000I12500J0D01*
G01*
X14672500Y-10545000D02*
G75*
G02*
X14647500Y-10545000I-12500J0D01*
G01*
X14647500Y-10545000D02*
G75*
G02*
X14672500Y-10545000I12500J0D01*
G01*
X14687500Y-9275000D02*
G75*
G02*
X14662500Y-9275000I-12500J0D01*
G01*
X14662500Y-9275000D02*
G75*
G02*
X14687500Y-9275000I12500J0D01*
G01*
X14687500Y-9335000D02*
G75*
G02*
X14662500Y-9335000I-12500J0D01*
G01*
X14662500Y-9335000D02*
G75*
G02*
X14687500Y-9335000I12500J0D01*
G01*
X14687500Y-9395000D02*
G75*
G02*
X14662500Y-9395000I-12500J0D01*
G01*
X14662500Y-9395000D02*
G75*
G02*
X14687500Y-9395000I12500J0D01*
G01*
X14704500Y-12075000D02*
G75*
G02*
X14679500Y-12075000I-12500J0D01*
G01*
X14679500Y-12075000D02*
G75*
G02*
X14704500Y-12075000I12500J0D01*
G01*
X14717500Y-11915000D02*
G75*
G02*
X14692500Y-11915000I-12500J0D01*
G01*
X14692500Y-11915000D02*
G75*
G02*
X14717500Y-11915000I12500J0D01*
G01*
X14722500Y-11845000D02*
G75*
G02*
X14697500Y-11845000I-12500J0D01*
G01*
X14697500Y-11845000D02*
G75*
G02*
X14722500Y-11845000I12500J0D01*
G01*
X14732500Y-10710000D02*
G75*
G02*
X14707500Y-10710000I-12500J0D01*
G01*
X14707500Y-10710000D02*
G75*
G02*
X14732500Y-10710000I12500J0D01*
G01*
X14732500Y-10985000D02*
G75*
G02*
X14707500Y-10985000I-12500J0D01*
G01*
X14707500Y-10985000D02*
G75*
G02*
X14732500Y-10985000I12500J0D01*
G01*
X14737500Y-12290000D02*
G75*
G02*
X14712500Y-12290000I-12500J0D01*
G01*
X14712500Y-12290000D02*
G75*
G02*
X14737500Y-12290000I12500J0D01*
G01*
X14752500Y-11435000D02*
G75*
G02*
X14727500Y-11435000I-12500J0D01*
G01*
X14727500Y-11435000D02*
G75*
G02*
X14752500Y-11435000I12500J0D01*
G01*
X14777289Y-11554168D02*
G75*
G02*
X14752289Y-11554168I-12500J0D01*
G01*
X14752289Y-11554168D02*
G75*
G02*
X14777289Y-11554168I12500J0D01*
G01*
X14832500Y-10985000D02*
G75*
G02*
X14807500Y-10985000I-12500J0D01*
G01*
X14807500Y-10985000D02*
G75*
G02*
X14832500Y-10985000I12500J0D01*
G01*
X14862500Y-8630000D02*
G75*
G02*
X14837500Y-8630000I-12500J0D01*
G01*
X14837500Y-8630000D02*
G75*
G02*
X14862500Y-8630000I12500J0D01*
G01*
X14887500Y-12290000D02*
G75*
G02*
X14862500Y-12290000I-12500J0D01*
G01*
X14862500Y-12290000D02*
G75*
G02*
X14887500Y-12290000I12500J0D01*
G01*
X14942500Y-10985000D02*
G75*
G02*
X14917500Y-10985000I-12500J0D01*
G01*
X14917500Y-10985000D02*
G75*
G02*
X14942500Y-10985000I12500J0D01*
G01*
X14947500Y-11420000D02*
G75*
G02*
X14922500Y-11420000I-12500J0D01*
G01*
X14922500Y-11420000D02*
G75*
G02*
X14947500Y-11420000I12500J0D01*
G01*
X14962500Y-10170000D02*
G75*
G02*
X14937500Y-10170000I-12500J0D01*
G01*
X14937500Y-10170000D02*
G75*
G02*
X14962500Y-10170000I12500J0D01*
G01*
X14972500Y-10380000D02*
G75*
G02*
X14947500Y-10380000I-12500J0D01*
G01*
X14947500Y-10380000D02*
G75*
G02*
X14972500Y-10380000I12500J0D01*
G01*
X15017500Y-11025000D02*
G75*
G02*
X14992500Y-11025000I-12500J0D01*
G01*
X14992500Y-11025000D02*
G75*
G02*
X15017500Y-11025000I12500J0D01*
G01*
X15018407Y-10500815D02*
G75*
G02*
X14993407Y-10500815I-12500J0D01*
G01*
X14993407Y-10500815D02*
G75*
G02*
X15018407Y-10500815I12500J0D01*
G01*
X15037500Y-12290000D02*
G75*
G02*
X15012500Y-12290000I-12500J0D01*
G01*
X15012500Y-12290000D02*
G75*
G02*
X15037500Y-12290000I12500J0D01*
G01*
X15042500Y-9980000D02*
G75*
G02*
X15017500Y-9980000I-12500J0D01*
G01*
X15017500Y-9980000D02*
G75*
G02*
X15042500Y-9980000I12500J0D01*
G01*
X15062600Y-10390000D02*
G75*
G02*
X15037600Y-10390000I-12500J0D01*
G01*
X15037600Y-10390000D02*
G75*
G02*
X15062600Y-10390000I12500J0D01*
G01*
X15082500Y-8455000D02*
G75*
G02*
X15057500Y-8455000I-12500J0D01*
G01*
X15057500Y-8455000D02*
G75*
G02*
X15082500Y-8455000I12500J0D01*
G01*
X15087500Y-10710000D02*
G75*
G02*
X15062500Y-10710000I-12500J0D01*
G01*
X15062500Y-10710000D02*
G75*
G02*
X15087500Y-10710000I12500J0D01*
G01*
X15092500Y-9935000D02*
G75*
G02*
X15067500Y-9935000I-12500J0D01*
G01*
X15067500Y-9935000D02*
G75*
G02*
X15092500Y-9935000I12500J0D01*
G01*
X15102500Y-11110000D02*
G75*
G02*
X15077500Y-11110000I-12500J0D01*
G01*
X15077500Y-11110000D02*
G75*
G02*
X15102500Y-11110000I12500J0D01*
G01*
X15102500Y-11545000D02*
G75*
G02*
X15077500Y-11545000I-12500J0D01*
G01*
X15077500Y-11545000D02*
G75*
G02*
X15102500Y-11545000I12500J0D01*
G01*
X15137500Y-9880000D02*
G75*
G02*
X15112500Y-9880000I-12500J0D01*
G01*
X15112500Y-9880000D02*
G75*
G02*
X15137500Y-9880000I12500J0D01*
G01*
X15187500Y-12290000D02*
G75*
G02*
X15162500Y-12290000I-12500J0D01*
G01*
X15162500Y-12290000D02*
G75*
G02*
X15187500Y-12290000I12500J0D01*
G01*
X15197500Y-8705000D02*
G75*
G02*
X15172500Y-8705000I-12500J0D01*
G01*
X15172500Y-8705000D02*
G75*
G02*
X15197500Y-8705000I12500J0D01*
G01*
X15207500Y-10815000D02*
G75*
G02*
X15182500Y-10815000I-12500J0D01*
G01*
X15182500Y-10815000D02*
G75*
G02*
X15207500Y-10815000I12500J0D01*
G01*
X15227500Y-9900000D02*
G75*
G02*
X15202500Y-9900000I-12500J0D01*
G01*
X15202500Y-9900000D02*
G75*
G02*
X15227500Y-9900000I12500J0D01*
G01*
X15307500Y-10910000D02*
G75*
G02*
X15282500Y-10910000I-12500J0D01*
G01*
X15282500Y-10910000D02*
G75*
G02*
X15307500Y-10910000I12500J0D01*
G01*
X15312500Y-9990000D02*
G75*
G02*
X15287500Y-9990000I-12500J0D01*
G01*
X15287500Y-9990000D02*
G75*
G02*
X15312500Y-9990000I12500J0D01*
G01*
X15322500Y-10330000D02*
G75*
G02*
X15297500Y-10330000I-12500J0D01*
G01*
X15297500Y-10330000D02*
G75*
G02*
X15322500Y-10330000I12500J0D01*
G01*
X15337500Y-11100000D02*
G75*
G02*
X15312500Y-11100000I-12500J0D01*
G01*
X15312500Y-11100000D02*
G75*
G02*
X15337500Y-11100000I12500J0D01*
G01*
X15337500Y-11190000D02*
G75*
G02*
X15312500Y-11190000I-12500J0D01*
G01*
X15312500Y-11190000D02*
G75*
G02*
X15337500Y-11190000I12500J0D01*
G01*
X15337500Y-12290000D02*
G75*
G02*
X15312500Y-12290000I-12500J0D01*
G01*
X15312500Y-12290000D02*
G75*
G02*
X15337500Y-12290000I12500J0D01*
G01*
X15382500Y-10120000D02*
G75*
G02*
X15357500Y-10120000I-12500J0D01*
G01*
X15357500Y-10120000D02*
G75*
G02*
X15382500Y-10120000I12500J0D01*
G01*
X15392500Y-9890000D02*
G75*
G02*
X15367500Y-9890000I-12500J0D01*
G01*
X15367500Y-9890000D02*
G75*
G02*
X15392500Y-9890000I12500J0D01*
G01*
X15442500Y-11860000D02*
G75*
G02*
X15417500Y-11860000I-12500J0D01*
G01*
X15417500Y-11860000D02*
G75*
G02*
X15442500Y-11860000I12500J0D01*
G01*
X15447500Y-10045000D02*
G75*
G02*
X15422500Y-10045000I-12500J0D01*
G01*
X15422500Y-10045000D02*
G75*
G02*
X15447500Y-10045000I12500J0D01*
G01*
X15456180Y-11537680D02*
G75*
G02*
X15431180Y-11537680I-12500J0D01*
G01*
X15431180Y-11537680D02*
G75*
G02*
X15456180Y-11537680I12500J0D01*
G01*
X15465000Y-10870000D02*
G75*
G02*
X15440000Y-10870000I-12500J0D01*
G01*
X15440000Y-10870000D02*
G75*
G02*
X15465000Y-10870000I12500J0D01*
G01*
X15472500Y-10930000D02*
G75*
G02*
X15447500Y-10930000I-12500J0D01*
G01*
X15447500Y-10930000D02*
G75*
G02*
X15472500Y-10930000I12500J0D01*
G01*
X15472500Y-11005000D02*
G75*
G02*
X15447500Y-11005000I-12500J0D01*
G01*
X15447500Y-11005000D02*
G75*
G02*
X15472500Y-11005000I12500J0D01*
G01*
X15472500Y-11065000D02*
G75*
G02*
X15447500Y-11065000I-12500J0D01*
G01*
X15447500Y-11065000D02*
G75*
G02*
X15472500Y-11065000I12500J0D01*
G01*
X15472500Y-11129900D02*
G75*
G02*
X15447500Y-11129900I-12500J0D01*
G01*
X15447500Y-11129900D02*
G75*
G02*
X15472500Y-11129900I12500J0D01*
G01*
X15477500Y-11220000D02*
G75*
G02*
X15452500Y-11220000I-12500J0D01*
G01*
X15452500Y-11220000D02*
G75*
G02*
X15477500Y-11220000I12500J0D01*
G01*
X15482500Y-11320000D02*
G75*
G02*
X15457500Y-11320000I-12500J0D01*
G01*
X15457500Y-11320000D02*
G75*
G02*
X15482500Y-11320000I12500J0D01*
G01*
X15482500Y-11390000D02*
G75*
G02*
X15457500Y-11390000I-12500J0D01*
G01*
X15457500Y-11390000D02*
G75*
G02*
X15482500Y-11390000I12500J0D01*
G01*
X15487500Y-12290000D02*
G75*
G02*
X15462500Y-12290000I-12500J0D01*
G01*
X15462500Y-12290000D02*
G75*
G02*
X15487500Y-12290000I12500J0D01*
G01*
X15512500Y-10400000D02*
G75*
G02*
X15487500Y-10400000I-12500J0D01*
G01*
X15487500Y-10400000D02*
G75*
G02*
X15512500Y-10400000I12500J0D01*
G01*
X15542500Y-10585000D02*
G75*
G02*
X15517500Y-10585000I-12500J0D01*
G01*
X15517500Y-10585000D02*
G75*
G02*
X15542500Y-10585000I12500J0D01*
G01*
X15572500Y-11650000D02*
G75*
G02*
X15547500Y-11650000I-12500J0D01*
G01*
X15547500Y-11650000D02*
G75*
G02*
X15572500Y-11650000I12500J0D01*
G01*
X15597500Y-10640000D02*
G75*
G02*
X15572500Y-10640000I-12500J0D01*
G01*
X15572500Y-10640000D02*
G75*
G02*
X15597500Y-10640000I12500J0D01*
G01*
X15612500Y-8655000D02*
G75*
G02*
X15587500Y-8655000I-12500J0D01*
G01*
X15587500Y-8655000D02*
G75*
G02*
X15612500Y-8655000I12500J0D01*
G01*
X15612500Y-10360000D02*
G75*
G02*
X15587500Y-10360000I-12500J0D01*
G01*
X15587500Y-10360000D02*
G75*
G02*
X15612500Y-10360000I12500J0D01*
G01*
X15616338Y-11177203D02*
G75*
G02*
X15591338Y-11177203I-12500J0D01*
G01*
X15591338Y-11177203D02*
G75*
G02*
X15616338Y-11177203I12500J0D01*
G01*
X15617500Y-10990000D02*
G75*
G02*
X15592500Y-10990000I-12500J0D01*
G01*
X15592500Y-10990000D02*
G75*
G02*
X15617500Y-10990000I12500J0D01*
G01*
X15622500Y-9820000D02*
G75*
G02*
X15597500Y-9820000I-12500J0D01*
G01*
X15597500Y-9820000D02*
G75*
G02*
X15622500Y-9820000I12500J0D01*
G01*
X15622500Y-11237500D02*
G75*
G02*
X15597500Y-11237500I-12500J0D01*
G01*
X15597500Y-11237500D02*
G75*
G02*
X15622500Y-11237500I12500J0D01*
G01*
X15622500Y-11297500D02*
G75*
G02*
X15597500Y-11297500I-12500J0D01*
G01*
X15597500Y-11297500D02*
G75*
G02*
X15622500Y-11297500I12500J0D01*
G01*
X15622500Y-11415000D02*
G75*
G02*
X15597500Y-11415000I-12500J0D01*
G01*
X15597500Y-11415000D02*
G75*
G02*
X15622500Y-11415000I12500J0D01*
G01*
X15637500Y-12290000D02*
G75*
G02*
X15612500Y-12290000I-12500J0D01*
G01*
X15612500Y-12290000D02*
G75*
G02*
X15637500Y-12290000I12500J0D01*
G01*
X15652500Y-10220000D02*
G75*
G02*
X15627500Y-10220000I-12500J0D01*
G01*
X15627500Y-10220000D02*
G75*
G02*
X15652500Y-10220000I12500J0D01*
G01*
X15667500Y-9980000D02*
G75*
G02*
X15642500Y-9980000I-12500J0D01*
G01*
X15642500Y-9980000D02*
G75*
G02*
X15667500Y-9980000I12500J0D01*
G01*
X15677500Y-10605000D02*
G75*
G02*
X15652500Y-10605000I-12500J0D01*
G01*
X15652500Y-10605000D02*
G75*
G02*
X15677500Y-10605000I12500J0D01*
G01*
X15682500Y-10510000D02*
G75*
G02*
X15657500Y-10510000I-12500J0D01*
G01*
X15657500Y-10510000D02*
G75*
G02*
X15682500Y-10510000I12500J0D01*
G01*
X15682500Y-11320000D02*
G75*
G02*
X15657500Y-11320000I-12500J0D01*
G01*
X15657500Y-11320000D02*
G75*
G02*
X15682500Y-11320000I12500J0D01*
G01*
X15692500Y-11590000D02*
G75*
G02*
X15667500Y-11590000I-12500J0D01*
G01*
X15667500Y-11590000D02*
G75*
G02*
X15692500Y-11590000I12500J0D01*
G01*
X15708630Y-10737600D02*
G75*
G02*
X15683630Y-10737600I-12500J0D01*
G01*
X15683630Y-10737600D02*
G75*
G02*
X15708630Y-10737600I12500J0D01*
G01*
X15767101Y-10751059D02*
G75*
G02*
X15742101Y-10751059I-12500J0D01*
G01*
X15742101Y-10751059D02*
G75*
G02*
X15767101Y-10751059I12500J0D01*
G01*
X15772500Y-10120000D02*
G75*
G02*
X15747500Y-10120000I-12500J0D01*
G01*
X15747500Y-10120000D02*
G75*
G02*
X15772500Y-10120000I12500J0D01*
G01*
X15782500Y-8560000D02*
G75*
G02*
X15757500Y-8560000I-12500J0D01*
G01*
X15757500Y-8560000D02*
G75*
G02*
X15782500Y-8560000I12500J0D01*
G01*
X15782500Y-11570000D02*
G75*
G02*
X15757500Y-11570000I-12500J0D01*
G01*
X15757500Y-11570000D02*
G75*
G02*
X15782500Y-11570000I12500J0D01*
G01*
X15787500Y-12290000D02*
G75*
G02*
X15762500Y-12290000I-12500J0D01*
G01*
X15762500Y-12290000D02*
G75*
G02*
X15787500Y-12290000I12500J0D01*
G01*
X15792500Y-10400000D02*
G75*
G02*
X15767500Y-10400000I-12500J0D01*
G01*
X15767500Y-10400000D02*
G75*
G02*
X15792500Y-10400000I12500J0D01*
G01*
X15802500Y-10890000D02*
G75*
G02*
X15777500Y-10890000I-12500J0D01*
G01*
X15777500Y-10890000D02*
G75*
G02*
X15802500Y-10890000I12500J0D01*
G01*
X15802500Y-11130000D02*
G75*
G02*
X15777500Y-11130000I-12500J0D01*
G01*
X15777500Y-11130000D02*
G75*
G02*
X15802500Y-11130000I12500J0D01*
G01*
X15802790Y-10610200D02*
G75*
G02*
X15777790Y-10610200I-12500J0D01*
G01*
X15777790Y-10610200D02*
G75*
G02*
X15802790Y-10610200I12500J0D01*
G01*
X15807500Y-11325000D02*
G75*
G02*
X15782500Y-11325000I-12500J0D01*
G01*
X15782500Y-11325000D02*
G75*
G02*
X15807500Y-11325000I12500J0D01*
G01*
X15812500Y-10320000D02*
G75*
G02*
X15787500Y-10320000I-12500J0D01*
G01*
X15787500Y-10320000D02*
G75*
G02*
X15812500Y-10320000I12500J0D01*
G01*
X15817500Y-11960000D02*
G75*
G02*
X15792500Y-11960000I-12500J0D01*
G01*
X15792500Y-11960000D02*
G75*
G02*
X15817500Y-11960000I12500J0D01*
G01*
X15820000Y-11415000D02*
G75*
G02*
X15795000Y-11415000I-12500J0D01*
G01*
X15795000Y-11415000D02*
G75*
G02*
X15820000Y-11415000I12500J0D01*
G01*
X15822500Y-10780000D02*
G75*
G02*
X15797500Y-10780000I-12500J0D01*
G01*
X15797500Y-10780000D02*
G75*
G02*
X15822500Y-10780000I12500J0D01*
G01*
X15837500Y-10530000D02*
G75*
G02*
X15812500Y-10530000I-12500J0D01*
G01*
X15812500Y-10530000D02*
G75*
G02*
X15837500Y-10530000I12500J0D01*
G01*
X15837500Y-11530000D02*
G75*
G02*
X15812500Y-11530000I-12500J0D01*
G01*
X15812500Y-11530000D02*
G75*
G02*
X15837500Y-11530000I12500J0D01*
G01*
X15872500Y-11710000D02*
G75*
G02*
X15847500Y-11710000I-12500J0D01*
G01*
X15847500Y-11710000D02*
G75*
G02*
X15872500Y-11710000I12500J0D01*
G01*
X15882500Y-10770000D02*
G75*
G02*
X15857500Y-10770000I-12500J0D01*
G01*
X15857500Y-10770000D02*
G75*
G02*
X15882500Y-10770000I12500J0D01*
G01*
X15882500Y-10890000D02*
G75*
G02*
X15857500Y-10890000I-12500J0D01*
G01*
X15857500Y-10890000D02*
G75*
G02*
X15882500Y-10890000I12500J0D01*
G01*
X15882500Y-11620000D02*
G75*
G02*
X15857500Y-11620000I-12500J0D01*
G01*
X15857500Y-11620000D02*
G75*
G02*
X15882500Y-11620000I12500J0D01*
G01*
X15887500Y-10090000D02*
G75*
G02*
X15862500Y-10090000I-12500J0D01*
G01*
X15862500Y-10090000D02*
G75*
G02*
X15887500Y-10090000I12500J0D01*
G01*
X15887500Y-11840000D02*
G75*
G02*
X15862500Y-11840000I-12500J0D01*
G01*
X15862500Y-11840000D02*
G75*
G02*
X15887500Y-11840000I12500J0D01*
G01*
X15892500Y-10320000D02*
G75*
G02*
X15867500Y-10320000I-12500J0D01*
G01*
X15867500Y-10320000D02*
G75*
G02*
X15892500Y-10320000I12500J0D01*
G01*
X15892500Y-11230000D02*
G75*
G02*
X15867500Y-11230000I-12500J0D01*
G01*
X15867500Y-11230000D02*
G75*
G02*
X15892500Y-11230000I12500J0D01*
G01*
X15902500Y-8460000D02*
G75*
G02*
X15877500Y-8460000I-12500J0D01*
G01*
X15877500Y-8460000D02*
G75*
G02*
X15902500Y-8460000I12500J0D01*
G01*
X13815000Y-12120000D02*
X13815000Y-12150000D01*
X13800000Y-12135000D02*
X13830000Y-12135000D01*
X14117875Y-11772875D02*
X14117875Y-11802875D01*
X14102875Y-11787875D02*
X14132875Y-11787875D01*
D13*
X14973855Y-8524105D02*
X14973855Y-8276615D01*
X14726365Y-8276615D01*
X14726365Y-8524105D01*
X14973855Y-8524105D01*
D11*
X14008387Y-12914344D02*
X14008387Y-12714344D01*
X14008387Y-12714344D02*
X14056006Y-12714344D01*
X14056006Y-12714344D02*
X14084577Y-12723868D01*
X14084577Y-12723868D02*
X14103625Y-12742915D01*
X14103625Y-12742915D02*
X14113149Y-12761963D01*
X14113149Y-12761963D02*
X14122672Y-12800058D01*
X14122672Y-12800058D02*
X14122672Y-12828629D01*
X14122672Y-12828629D02*
X14113149Y-12866725D01*
X14113149Y-12866725D02*
X14103625Y-12885772D01*
X14103625Y-12885772D02*
X14084577Y-12904820D01*
X14084577Y-12904820D02*
X14056006Y-12914344D01*
X14056006Y-12914344D02*
X14008387Y-12914344D01*
X14208387Y-12914344D02*
X14208387Y-12781010D01*
X14208387Y-12819106D02*
X14217911Y-12800058D01*
X14217911Y-12800058D02*
X14227434Y-12790534D01*
X14227434Y-12790534D02*
X14246482Y-12781010D01*
X14246482Y-12781010D02*
X14265530Y-12781010D01*
X14332196Y-12914344D02*
X14332196Y-12781010D01*
X14332196Y-12714344D02*
X14322672Y-12723868D01*
X14322672Y-12723868D02*
X14332196Y-12733391D01*
X14332196Y-12733391D02*
X14341720Y-12723868D01*
X14341720Y-12723868D02*
X14332196Y-12714344D01*
X14332196Y-12714344D02*
X14332196Y-12733391D01*
X14456006Y-12914344D02*
X14436958Y-12904820D01*
X14436958Y-12904820D02*
X14427434Y-12885772D01*
X14427434Y-12885772D02*
X14427434Y-12714344D01*
X14560768Y-12914344D02*
X14541720Y-12904820D01*
X14541720Y-12904820D02*
X14532196Y-12885772D01*
X14532196Y-12885772D02*
X14532196Y-12714344D01*
X14789339Y-12914344D02*
X14789339Y-12714344D01*
X14789339Y-12714344D02*
X14856006Y-12857201D01*
X14856006Y-12857201D02*
X14922672Y-12714344D01*
X14922672Y-12714344D02*
X14922672Y-12914344D01*
X15103625Y-12914344D02*
X15103625Y-12809582D01*
X15103625Y-12809582D02*
X15094101Y-12790534D01*
X15094101Y-12790534D02*
X15075053Y-12781010D01*
X15075053Y-12781010D02*
X15036958Y-12781010D01*
X15036958Y-12781010D02*
X15017911Y-12790534D01*
X15103625Y-12904820D02*
X15084577Y-12914344D01*
X15084577Y-12914344D02*
X15036958Y-12914344D01*
X15036958Y-12914344D02*
X15017911Y-12904820D01*
X15017911Y-12904820D02*
X15008387Y-12885772D01*
X15008387Y-12885772D02*
X15008387Y-12866725D01*
X15008387Y-12866725D02*
X15017911Y-12847677D01*
X15017911Y-12847677D02*
X15036958Y-12838153D01*
X15036958Y-12838153D02*
X15084577Y-12838153D01*
X15084577Y-12838153D02*
X15103625Y-12828629D01*
X15198863Y-12781010D02*
X15198863Y-12981010D01*
X15198863Y-12790534D02*
X15217911Y-12781010D01*
X15217911Y-12781010D02*
X15256006Y-12781010D01*
X15256006Y-12781010D02*
X15275053Y-12790534D01*
X15275053Y-12790534D02*
X15284577Y-12800058D01*
X15284577Y-12800058D02*
X15294101Y-12819106D01*
X15294101Y-12819106D02*
X15294101Y-12876248D01*
X15294101Y-12876248D02*
X15284577Y-12895296D01*
X15284577Y-12895296D02*
X15275053Y-12904820D01*
X15275053Y-12904820D02*
X15256006Y-12914344D01*
X15256006Y-12914344D02*
X15217911Y-12914344D01*
X15217911Y-12914344D02*
X15198863Y-12904820D01*
X15379815Y-12895296D02*
X15389339Y-12904820D01*
X15389339Y-12904820D02*
X15379815Y-12914344D01*
X15379815Y-12914344D02*
X15370292Y-12904820D01*
X15370292Y-12904820D02*
X15379815Y-12895296D01*
X15379815Y-12895296D02*
X15379815Y-12914344D01*
X15379815Y-12790534D02*
X15389339Y-12800058D01*
X15389339Y-12800058D02*
X15379815Y-12809582D01*
X15379815Y-12809582D02*
X15370292Y-12800058D01*
X15370292Y-12800058D02*
X15379815Y-12790534D01*
X15379815Y-12790534D02*
X15379815Y-12809582D01*
D12*
X13727610Y-13232860D02*
X13747610Y-13252860D01*
X13747610Y-13232860D02*
X13727610Y-13252860D01*
D11*
X14046482Y-13134344D02*
X14065530Y-13134344D01*
X14065530Y-13134344D02*
X14084577Y-13143868D01*
X14084577Y-13143868D02*
X14094101Y-13153391D01*
X14094101Y-13153391D02*
X14103625Y-13172439D01*
X14103625Y-13172439D02*
X14113149Y-13210534D01*
X14113149Y-13210534D02*
X14113149Y-13258153D01*
X14113149Y-13258153D02*
X14103625Y-13296248D01*
X14103625Y-13296248D02*
X14094101Y-13315296D01*
X14094101Y-13315296D02*
X14084577Y-13324820D01*
X14084577Y-13324820D02*
X14065530Y-13334344D01*
X14065530Y-13334344D02*
X14046482Y-13334344D01*
X14046482Y-13334344D02*
X14027434Y-13324820D01*
X14027434Y-13324820D02*
X14017911Y-13315296D01*
X14017911Y-13315296D02*
X14008387Y-13296248D01*
X14008387Y-13296248D02*
X13998863Y-13258153D01*
X13998863Y-13258153D02*
X13998863Y-13210534D01*
X13998863Y-13210534D02*
X14008387Y-13172439D01*
X14008387Y-13172439D02*
X14017911Y-13153391D01*
X14017911Y-13153391D02*
X14027434Y-13143868D01*
X14027434Y-13143868D02*
X14046482Y-13134344D01*
X14198863Y-13315296D02*
X14208387Y-13324820D01*
X14208387Y-13324820D02*
X14198863Y-13334344D01*
X14198863Y-13334344D02*
X14189339Y-13324820D01*
X14189339Y-13324820D02*
X14198863Y-13315296D01*
X14198863Y-13315296D02*
X14198863Y-13334344D01*
X14284577Y-13153391D02*
X14294101Y-13143868D01*
X14294101Y-13143868D02*
X14313149Y-13134344D01*
X14313149Y-13134344D02*
X14360768Y-13134344D01*
X14360768Y-13134344D02*
X14379815Y-13143868D01*
X14379815Y-13143868D02*
X14389339Y-13153391D01*
X14389339Y-13153391D02*
X14398863Y-13172439D01*
X14398863Y-13172439D02*
X14398863Y-13191487D01*
X14398863Y-13191487D02*
X14389339Y-13220058D01*
X14389339Y-13220058D02*
X14275053Y-13334344D01*
X14275053Y-13334344D02*
X14398863Y-13334344D01*
X14522672Y-13134344D02*
X14541720Y-13134344D01*
X14541720Y-13134344D02*
X14560768Y-13143868D01*
X14560768Y-13143868D02*
X14570292Y-13153391D01*
X14570292Y-13153391D02*
X14579815Y-13172439D01*
X14579815Y-13172439D02*
X14589339Y-13210534D01*
X14589339Y-13210534D02*
X14589339Y-13258153D01*
X14589339Y-13258153D02*
X14579815Y-13296248D01*
X14579815Y-13296248D02*
X14570292Y-13315296D01*
X14570292Y-13315296D02*
X14560768Y-13324820D01*
X14560768Y-13324820D02*
X14541720Y-13334344D01*
X14541720Y-13334344D02*
X14522672Y-13334344D01*
X14522672Y-13334344D02*
X14503625Y-13324820D01*
X14503625Y-13324820D02*
X14494101Y-13315296D01*
X14494101Y-13315296D02*
X14484577Y-13296248D01*
X14484577Y-13296248D02*
X14475053Y-13258153D01*
X14475053Y-13258153D02*
X14475053Y-13210534D01*
X14475053Y-13210534D02*
X14484577Y-13172439D01*
X14484577Y-13172439D02*
X14494101Y-13153391D01*
X14494101Y-13153391D02*
X14503625Y-13143868D01*
X14503625Y-13143868D02*
X14522672Y-13134344D01*
X14713149Y-13134344D02*
X14732196Y-13134344D01*
X14732196Y-13134344D02*
X14751244Y-13143868D01*
X14751244Y-13143868D02*
X14760768Y-13153391D01*
X14760768Y-13153391D02*
X14770292Y-13172439D01*
X14770292Y-13172439D02*
X14779815Y-13210534D01*
X14779815Y-13210534D02*
X14779815Y-13258153D01*
X14779815Y-13258153D02*
X14770292Y-13296248D01*
X14770292Y-13296248D02*
X14760768Y-13315296D01*
X14760768Y-13315296D02*
X14751244Y-13324820D01*
X14751244Y-13324820D02*
X14732196Y-13334344D01*
X14732196Y-13334344D02*
X14713149Y-13334344D01*
X14713149Y-13334344D02*
X14694101Y-13324820D01*
X14694101Y-13324820D02*
X14684577Y-13315296D01*
X14684577Y-13315296D02*
X14675053Y-13296248D01*
X14675053Y-13296248D02*
X14665530Y-13258153D01*
X14665530Y-13258153D02*
X14665530Y-13210534D01*
X14665530Y-13210534D02*
X14675053Y-13172439D01*
X14675053Y-13172439D02*
X14684577Y-13153391D01*
X14684577Y-13153391D02*
X14694101Y-13143868D01*
X14694101Y-13143868D02*
X14713149Y-13134344D01*
X14865530Y-13334344D02*
X14865530Y-13201010D01*
X14865530Y-13220058D02*
X14875053Y-13210534D01*
X14875053Y-13210534D02*
X14894101Y-13201010D01*
X14894101Y-13201010D02*
X14922673Y-13201010D01*
X14922673Y-13201010D02*
X14941720Y-13210534D01*
X14941720Y-13210534D02*
X14951244Y-13229582D01*
X14951244Y-13229582D02*
X14951244Y-13334344D01*
X14951244Y-13229582D02*
X14960768Y-13210534D01*
X14960768Y-13210534D02*
X14979815Y-13201010D01*
X14979815Y-13201010D02*
X15008387Y-13201010D01*
X15008387Y-13201010D02*
X15027434Y-13210534D01*
X15027434Y-13210534D02*
X15036958Y-13229582D01*
X15036958Y-13229582D02*
X15036958Y-13334344D01*
X15132196Y-13334344D02*
X15132196Y-13201010D01*
X15132196Y-13220058D02*
X15141720Y-13210534D01*
X15141720Y-13210534D02*
X15160768Y-13201010D01*
X15160768Y-13201010D02*
X15189339Y-13201010D01*
X15189339Y-13201010D02*
X15208387Y-13210534D01*
X15208387Y-13210534D02*
X15217911Y-13229582D01*
X15217911Y-13229582D02*
X15217911Y-13334344D01*
X15217911Y-13229582D02*
X15227434Y-13210534D01*
X15227434Y-13210534D02*
X15246482Y-13201010D01*
X15246482Y-13201010D02*
X15275053Y-13201010D01*
X15275053Y-13201010D02*
X15294101Y-13210534D01*
X15294101Y-13210534D02*
X15303625Y-13229582D01*
X15303625Y-13229582D02*
X15303625Y-13334344D01*
X15694101Y-13124820D02*
X15522673Y-13381963D01*
X15951244Y-13134344D02*
X15970292Y-13134344D01*
X15970292Y-13134344D02*
X15989339Y-13143868D01*
X15989339Y-13143868D02*
X15998863Y-13153391D01*
X15998863Y-13153391D02*
X16008387Y-13172439D01*
X16008387Y-13172439D02*
X16017911Y-13210534D01*
X16017911Y-13210534D02*
X16017911Y-13258153D01*
X16017911Y-13258153D02*
X16008387Y-13296248D01*
X16008387Y-13296248D02*
X15998863Y-13315296D01*
X15998863Y-13315296D02*
X15989339Y-13324820D01*
X15989339Y-13324820D02*
X15970292Y-13334344D01*
X15970292Y-13334344D02*
X15951244Y-13334344D01*
X15951244Y-13334344D02*
X15932196Y-13324820D01*
X15932196Y-13324820D02*
X15922673Y-13315296D01*
X15922673Y-13315296D02*
X15913149Y-13296248D01*
X15913149Y-13296248D02*
X15903625Y-13258153D01*
X15903625Y-13258153D02*
X15903625Y-13210534D01*
X15903625Y-13210534D02*
X15913149Y-13172439D01*
X15913149Y-13172439D02*
X15922673Y-13153391D01*
X15922673Y-13153391D02*
X15932196Y-13143868D01*
X15932196Y-13143868D02*
X15951244Y-13134344D01*
X16103625Y-13315296D02*
X16113149Y-13324820D01*
X16113149Y-13324820D02*
X16103625Y-13334344D01*
X16103625Y-13334344D02*
X16094101Y-13324820D01*
X16094101Y-13324820D02*
X16103625Y-13315296D01*
X16103625Y-13315296D02*
X16103625Y-13334344D01*
X16236958Y-13134344D02*
X16256006Y-13134344D01*
X16256006Y-13134344D02*
X16275054Y-13143868D01*
X16275054Y-13143868D02*
X16284577Y-13153391D01*
X16284577Y-13153391D02*
X16294101Y-13172439D01*
X16294101Y-13172439D02*
X16303625Y-13210534D01*
X16303625Y-13210534D02*
X16303625Y-13258153D01*
X16303625Y-13258153D02*
X16294101Y-13296248D01*
X16294101Y-13296248D02*
X16284577Y-13315296D01*
X16284577Y-13315296D02*
X16275054Y-13324820D01*
X16275054Y-13324820D02*
X16256006Y-13334344D01*
X16256006Y-13334344D02*
X16236958Y-13334344D01*
X16236958Y-13334344D02*
X16217911Y-13324820D01*
X16217911Y-13324820D02*
X16208387Y-13315296D01*
X16208387Y-13315296D02*
X16198863Y-13296248D01*
X16198863Y-13296248D02*
X16189339Y-13258153D01*
X16189339Y-13258153D02*
X16189339Y-13210534D01*
X16189339Y-13210534D02*
X16198863Y-13172439D01*
X16198863Y-13172439D02*
X16208387Y-13153391D01*
X16208387Y-13153391D02*
X16217911Y-13143868D01*
X16217911Y-13143868D02*
X16236958Y-13134344D01*
X16427435Y-13134344D02*
X16446482Y-13134344D01*
X16446482Y-13134344D02*
X16465530Y-13143868D01*
X16465530Y-13143868D02*
X16475054Y-13153391D01*
X16475054Y-13153391D02*
X16484577Y-13172439D01*
X16484577Y-13172439D02*
X16494101Y-13210534D01*
X16494101Y-13210534D02*
X16494101Y-13258153D01*
X16494101Y-13258153D02*
X16484577Y-13296248D01*
X16484577Y-13296248D02*
X16475054Y-13315296D01*
X16475054Y-13315296D02*
X16465530Y-13324820D01*
X16465530Y-13324820D02*
X16446482Y-13334344D01*
X16446482Y-13334344D02*
X16427435Y-13334344D01*
X16427435Y-13334344D02*
X16408387Y-13324820D01*
X16408387Y-13324820D02*
X16398863Y-13315296D01*
X16398863Y-13315296D02*
X16389339Y-13296248D01*
X16389339Y-13296248D02*
X16379816Y-13258153D01*
X16379816Y-13258153D02*
X16379816Y-13210534D01*
X16379816Y-13210534D02*
X16389339Y-13172439D01*
X16389339Y-13172439D02*
X16398863Y-13153391D01*
X16398863Y-13153391D02*
X16408387Y-13143868D01*
X16408387Y-13143868D02*
X16427435Y-13134344D01*
X16560768Y-13134344D02*
X16694101Y-13134344D01*
X16694101Y-13134344D02*
X16608387Y-13334344D01*
X16779816Y-13334344D02*
X16817911Y-13334344D01*
X16817911Y-13334344D02*
X16836959Y-13324820D01*
X16836959Y-13324820D02*
X16846482Y-13315296D01*
X16846482Y-13315296D02*
X16865530Y-13286725D01*
X16865530Y-13286725D02*
X16875054Y-13248629D01*
X16875054Y-13248629D02*
X16875054Y-13172439D01*
X16875054Y-13172439D02*
X16865530Y-13153391D01*
X16865530Y-13153391D02*
X16856006Y-13143868D01*
X16856006Y-13143868D02*
X16836959Y-13134344D01*
X16836959Y-13134344D02*
X16798863Y-13134344D01*
X16798863Y-13134344D02*
X16779816Y-13143868D01*
X16779816Y-13143868D02*
X16770292Y-13153391D01*
X16770292Y-13153391D02*
X16760768Y-13172439D01*
X16760768Y-13172439D02*
X16760768Y-13220058D01*
X16760768Y-13220058D02*
X16770292Y-13239106D01*
X16770292Y-13239106D02*
X16779816Y-13248629D01*
X16779816Y-13248629D02*
X16798863Y-13258153D01*
X16798863Y-13258153D02*
X16836959Y-13258153D01*
X16836959Y-13258153D02*
X16856006Y-13248629D01*
X16856006Y-13248629D02*
X16865530Y-13239106D01*
X16865530Y-13239106D02*
X16875054Y-13220058D01*
X16951244Y-13134344D02*
X16951244Y-13172439D01*
X17027435Y-13134344D02*
X17027435Y-13172439D01*
X17322673Y-13410534D02*
X17313149Y-13401010D01*
X17313149Y-13401010D02*
X17294101Y-13372439D01*
X17294101Y-13372439D02*
X17284578Y-13353391D01*
X17284578Y-13353391D02*
X17275054Y-13324820D01*
X17275054Y-13324820D02*
X17265530Y-13277201D01*
X17265530Y-13277201D02*
X17265530Y-13239106D01*
X17265530Y-13239106D02*
X17275054Y-13191487D01*
X17275054Y-13191487D02*
X17284578Y-13162915D01*
X17284578Y-13162915D02*
X17294101Y-13143868D01*
X17294101Y-13143868D02*
X17313149Y-13115296D01*
X17313149Y-13115296D02*
X17322673Y-13105772D01*
X17389340Y-13153391D02*
X17398863Y-13143868D01*
X17398863Y-13143868D02*
X17417911Y-13134344D01*
X17417911Y-13134344D02*
X17465530Y-13134344D01*
X17465530Y-13134344D02*
X17484578Y-13143868D01*
X17484578Y-13143868D02*
X17494101Y-13153391D01*
X17494101Y-13153391D02*
X17503625Y-13172439D01*
X17503625Y-13172439D02*
X17503625Y-13191487D01*
X17503625Y-13191487D02*
X17494101Y-13220058D01*
X17494101Y-13220058D02*
X17379816Y-13334344D01*
X17379816Y-13334344D02*
X17503625Y-13334344D01*
X17598863Y-13334344D02*
X17636959Y-13334344D01*
X17636959Y-13334344D02*
X17656006Y-13324820D01*
X17656006Y-13324820D02*
X17665530Y-13315296D01*
X17665530Y-13315296D02*
X17684578Y-13286725D01*
X17684578Y-13286725D02*
X17694101Y-13248629D01*
X17694101Y-13248629D02*
X17694101Y-13172439D01*
X17694101Y-13172439D02*
X17684578Y-13153391D01*
X17684578Y-13153391D02*
X17675054Y-13143868D01*
X17675054Y-13143868D02*
X17656006Y-13134344D01*
X17656006Y-13134344D02*
X17617911Y-13134344D01*
X17617911Y-13134344D02*
X17598863Y-13143868D01*
X17598863Y-13143868D02*
X17589340Y-13153391D01*
X17589340Y-13153391D02*
X17579816Y-13172439D01*
X17579816Y-13172439D02*
X17579816Y-13220058D01*
X17579816Y-13220058D02*
X17589340Y-13239106D01*
X17589340Y-13239106D02*
X17598863Y-13248629D01*
X17598863Y-13248629D02*
X17617911Y-13258153D01*
X17617911Y-13258153D02*
X17656006Y-13258153D01*
X17656006Y-13258153D02*
X17675054Y-13248629D01*
X17675054Y-13248629D02*
X17684578Y-13239106D01*
X17684578Y-13239106D02*
X17694101Y-13220058D01*
X17932197Y-13334344D02*
X17932197Y-13134344D01*
X18017911Y-13334344D02*
X18017911Y-13229582D01*
X18017911Y-13229582D02*
X18008387Y-13210534D01*
X18008387Y-13210534D02*
X17989340Y-13201010D01*
X17989340Y-13201010D02*
X17960768Y-13201010D01*
X17960768Y-13201010D02*
X17941721Y-13210534D01*
X17941721Y-13210534D02*
X17932197Y-13220058D01*
X18141721Y-13334344D02*
X18122673Y-13324820D01*
X18122673Y-13324820D02*
X18113149Y-13315296D01*
X18113149Y-13315296D02*
X18103625Y-13296248D01*
X18103625Y-13296248D02*
X18103625Y-13239106D01*
X18103625Y-13239106D02*
X18113149Y-13220058D01*
X18113149Y-13220058D02*
X18122673Y-13210534D01*
X18122673Y-13210534D02*
X18141721Y-13201010D01*
X18141721Y-13201010D02*
X18170292Y-13201010D01*
X18170292Y-13201010D02*
X18189340Y-13210534D01*
X18189340Y-13210534D02*
X18198863Y-13220058D01*
X18198863Y-13220058D02*
X18208387Y-13239106D01*
X18208387Y-13239106D02*
X18208387Y-13296248D01*
X18208387Y-13296248D02*
X18198863Y-13315296D01*
X18198863Y-13315296D02*
X18189340Y-13324820D01*
X18189340Y-13324820D02*
X18170292Y-13334344D01*
X18170292Y-13334344D02*
X18141721Y-13334344D01*
X18322673Y-13334344D02*
X18303625Y-13324820D01*
X18303625Y-13324820D02*
X18294102Y-13305772D01*
X18294102Y-13305772D02*
X18294102Y-13134344D01*
X18475054Y-13324820D02*
X18456006Y-13334344D01*
X18456006Y-13334344D02*
X18417911Y-13334344D01*
X18417911Y-13334344D02*
X18398863Y-13324820D01*
X18398863Y-13324820D02*
X18389340Y-13305772D01*
X18389340Y-13305772D02*
X18389340Y-13229582D01*
X18389340Y-13229582D02*
X18398863Y-13210534D01*
X18398863Y-13210534D02*
X18417911Y-13201010D01*
X18417911Y-13201010D02*
X18456006Y-13201010D01*
X18456006Y-13201010D02*
X18475054Y-13210534D01*
X18475054Y-13210534D02*
X18484578Y-13229582D01*
X18484578Y-13229582D02*
X18484578Y-13248629D01*
X18484578Y-13248629D02*
X18389340Y-13267677D01*
X18560768Y-13324820D02*
X18579816Y-13334344D01*
X18579816Y-13334344D02*
X18617911Y-13334344D01*
X18617911Y-13334344D02*
X18636959Y-13324820D01*
X18636959Y-13324820D02*
X18646483Y-13305772D01*
X18646483Y-13305772D02*
X18646483Y-13296248D01*
X18646483Y-13296248D02*
X18636959Y-13277201D01*
X18636959Y-13277201D02*
X18617911Y-13267677D01*
X18617911Y-13267677D02*
X18589340Y-13267677D01*
X18589340Y-13267677D02*
X18570292Y-13258153D01*
X18570292Y-13258153D02*
X18560768Y-13239106D01*
X18560768Y-13239106D02*
X18560768Y-13229582D01*
X18560768Y-13229582D02*
X18570292Y-13210534D01*
X18570292Y-13210534D02*
X18589340Y-13201010D01*
X18589340Y-13201010D02*
X18617911Y-13201010D01*
X18617911Y-13201010D02*
X18636959Y-13210534D01*
X18713149Y-13410534D02*
X18722673Y-13401010D01*
X18722673Y-13401010D02*
X18741721Y-13372439D01*
X18741721Y-13372439D02*
X18751244Y-13353391D01*
X18751244Y-13353391D02*
X18760768Y-13324820D01*
X18760768Y-13324820D02*
X18770292Y-13277201D01*
X18770292Y-13277201D02*
X18770292Y-13239106D01*
X18770292Y-13239106D02*
X18760768Y-13191487D01*
X18760768Y-13191487D02*
X18751244Y-13162915D01*
X18751244Y-13162915D02*
X18741721Y-13143868D01*
X18741721Y-13143868D02*
X18722673Y-13115296D01*
X18722673Y-13115296D02*
X18713149Y-13105772D01*
D12*
X13747610Y-13506860D02*
G75*
G02*
X13722610Y-13506860I-12500J0D01*
G01*
X13722610Y-13506860D02*
G75*
G02*
X13747610Y-13506860I12500J0D01*
G01*
D11*
X14046482Y-13398344D02*
X14065530Y-13398344D01*
X14065530Y-13398344D02*
X14084577Y-13407868D01*
X14084577Y-13407868D02*
X14094101Y-13417391D01*
X14094101Y-13417391D02*
X14103625Y-13436439D01*
X14103625Y-13436439D02*
X14113149Y-13474534D01*
X14113149Y-13474534D02*
X14113149Y-13522153D01*
X14113149Y-13522153D02*
X14103625Y-13560248D01*
X14103625Y-13560248D02*
X14094101Y-13579296D01*
X14094101Y-13579296D02*
X14084577Y-13588820D01*
X14084577Y-13588820D02*
X14065530Y-13598344D01*
X14065530Y-13598344D02*
X14046482Y-13598344D01*
X14046482Y-13598344D02*
X14027434Y-13588820D01*
X14027434Y-13588820D02*
X14017911Y-13579296D01*
X14017911Y-13579296D02*
X14008387Y-13560248D01*
X14008387Y-13560248D02*
X13998863Y-13522153D01*
X13998863Y-13522153D02*
X13998863Y-13474534D01*
X13998863Y-13474534D02*
X14008387Y-13436439D01*
X14008387Y-13436439D02*
X14017911Y-13417391D01*
X14017911Y-13417391D02*
X14027434Y-13407868D01*
X14027434Y-13407868D02*
X14046482Y-13398344D01*
X14198863Y-13579296D02*
X14208387Y-13588820D01*
X14208387Y-13588820D02*
X14198863Y-13598344D01*
X14198863Y-13598344D02*
X14189339Y-13588820D01*
X14189339Y-13588820D02*
X14198863Y-13579296D01*
X14198863Y-13579296D02*
X14198863Y-13598344D01*
X14284577Y-13417391D02*
X14294101Y-13407868D01*
X14294101Y-13407868D02*
X14313149Y-13398344D01*
X14313149Y-13398344D02*
X14360768Y-13398344D01*
X14360768Y-13398344D02*
X14379815Y-13407868D01*
X14379815Y-13407868D02*
X14389339Y-13417391D01*
X14389339Y-13417391D02*
X14398863Y-13436439D01*
X14398863Y-13436439D02*
X14398863Y-13455487D01*
X14398863Y-13455487D02*
X14389339Y-13484058D01*
X14389339Y-13484058D02*
X14275053Y-13598344D01*
X14275053Y-13598344D02*
X14398863Y-13598344D01*
X14579815Y-13398344D02*
X14484577Y-13398344D01*
X14484577Y-13398344D02*
X14475053Y-13493582D01*
X14475053Y-13493582D02*
X14484577Y-13484058D01*
X14484577Y-13484058D02*
X14503625Y-13474534D01*
X14503625Y-13474534D02*
X14551244Y-13474534D01*
X14551244Y-13474534D02*
X14570292Y-13484058D01*
X14570292Y-13484058D02*
X14579815Y-13493582D01*
X14579815Y-13493582D02*
X14589339Y-13512629D01*
X14589339Y-13512629D02*
X14589339Y-13560248D01*
X14589339Y-13560248D02*
X14579815Y-13579296D01*
X14579815Y-13579296D02*
X14570292Y-13588820D01*
X14570292Y-13588820D02*
X14551244Y-13598344D01*
X14551244Y-13598344D02*
X14503625Y-13598344D01*
X14503625Y-13598344D02*
X14484577Y-13588820D01*
X14484577Y-13588820D02*
X14475053Y-13579296D01*
X14713149Y-13398344D02*
X14732196Y-13398344D01*
X14732196Y-13398344D02*
X14751244Y-13407868D01*
X14751244Y-13407868D02*
X14760768Y-13417391D01*
X14760768Y-13417391D02*
X14770292Y-13436439D01*
X14770292Y-13436439D02*
X14779815Y-13474534D01*
X14779815Y-13474534D02*
X14779815Y-13522153D01*
X14779815Y-13522153D02*
X14770292Y-13560248D01*
X14770292Y-13560248D02*
X14760768Y-13579296D01*
X14760768Y-13579296D02*
X14751244Y-13588820D01*
X14751244Y-13588820D02*
X14732196Y-13598344D01*
X14732196Y-13598344D02*
X14713149Y-13598344D01*
X14713149Y-13598344D02*
X14694101Y-13588820D01*
X14694101Y-13588820D02*
X14684577Y-13579296D01*
X14684577Y-13579296D02*
X14675053Y-13560248D01*
X14675053Y-13560248D02*
X14665530Y-13522153D01*
X14665530Y-13522153D02*
X14665530Y-13474534D01*
X14665530Y-13474534D02*
X14675053Y-13436439D01*
X14675053Y-13436439D02*
X14684577Y-13417391D01*
X14684577Y-13417391D02*
X14694101Y-13407868D01*
X14694101Y-13407868D02*
X14713149Y-13398344D01*
X14865530Y-13598344D02*
X14865530Y-13465010D01*
X14865530Y-13484058D02*
X14875053Y-13474534D01*
X14875053Y-13474534D02*
X14894101Y-13465010D01*
X14894101Y-13465010D02*
X14922673Y-13465010D01*
X14922673Y-13465010D02*
X14941720Y-13474534D01*
X14941720Y-13474534D02*
X14951244Y-13493582D01*
X14951244Y-13493582D02*
X14951244Y-13598344D01*
X14951244Y-13493582D02*
X14960768Y-13474534D01*
X14960768Y-13474534D02*
X14979815Y-13465010D01*
X14979815Y-13465010D02*
X15008387Y-13465010D01*
X15008387Y-13465010D02*
X15027434Y-13474534D01*
X15027434Y-13474534D02*
X15036958Y-13493582D01*
X15036958Y-13493582D02*
X15036958Y-13598344D01*
X15132196Y-13598344D02*
X15132196Y-13465010D01*
X15132196Y-13484058D02*
X15141720Y-13474534D01*
X15141720Y-13474534D02*
X15160768Y-13465010D01*
X15160768Y-13465010D02*
X15189339Y-13465010D01*
X15189339Y-13465010D02*
X15208387Y-13474534D01*
X15208387Y-13474534D02*
X15217911Y-13493582D01*
X15217911Y-13493582D02*
X15217911Y-13598344D01*
X15217911Y-13493582D02*
X15227434Y-13474534D01*
X15227434Y-13474534D02*
X15246482Y-13465010D01*
X15246482Y-13465010D02*
X15275053Y-13465010D01*
X15275053Y-13465010D02*
X15294101Y-13474534D01*
X15294101Y-13474534D02*
X15303625Y-13493582D01*
X15303625Y-13493582D02*
X15303625Y-13598344D01*
X15694101Y-13388820D02*
X15522673Y-13645963D01*
X15951244Y-13398344D02*
X15970292Y-13398344D01*
X15970292Y-13398344D02*
X15989339Y-13407868D01*
X15989339Y-13407868D02*
X15998863Y-13417391D01*
X15998863Y-13417391D02*
X16008387Y-13436439D01*
X16008387Y-13436439D02*
X16017911Y-13474534D01*
X16017911Y-13474534D02*
X16017911Y-13522153D01*
X16017911Y-13522153D02*
X16008387Y-13560248D01*
X16008387Y-13560248D02*
X15998863Y-13579296D01*
X15998863Y-13579296D02*
X15989339Y-13588820D01*
X15989339Y-13588820D02*
X15970292Y-13598344D01*
X15970292Y-13598344D02*
X15951244Y-13598344D01*
X15951244Y-13598344D02*
X15932196Y-13588820D01*
X15932196Y-13588820D02*
X15922673Y-13579296D01*
X15922673Y-13579296D02*
X15913149Y-13560248D01*
X15913149Y-13560248D02*
X15903625Y-13522153D01*
X15903625Y-13522153D02*
X15903625Y-13474534D01*
X15903625Y-13474534D02*
X15913149Y-13436439D01*
X15913149Y-13436439D02*
X15922673Y-13417391D01*
X15922673Y-13417391D02*
X15932196Y-13407868D01*
X15932196Y-13407868D02*
X15951244Y-13398344D01*
X16103625Y-13579296D02*
X16113149Y-13588820D01*
X16113149Y-13588820D02*
X16103625Y-13598344D01*
X16103625Y-13598344D02*
X16094101Y-13588820D01*
X16094101Y-13588820D02*
X16103625Y-13579296D01*
X16103625Y-13579296D02*
X16103625Y-13598344D01*
X16236958Y-13398344D02*
X16256006Y-13398344D01*
X16256006Y-13398344D02*
X16275054Y-13407868D01*
X16275054Y-13407868D02*
X16284577Y-13417391D01*
X16284577Y-13417391D02*
X16294101Y-13436439D01*
X16294101Y-13436439D02*
X16303625Y-13474534D01*
X16303625Y-13474534D02*
X16303625Y-13522153D01*
X16303625Y-13522153D02*
X16294101Y-13560248D01*
X16294101Y-13560248D02*
X16284577Y-13579296D01*
X16284577Y-13579296D02*
X16275054Y-13588820D01*
X16275054Y-13588820D02*
X16256006Y-13598344D01*
X16256006Y-13598344D02*
X16236958Y-13598344D01*
X16236958Y-13598344D02*
X16217911Y-13588820D01*
X16217911Y-13588820D02*
X16208387Y-13579296D01*
X16208387Y-13579296D02*
X16198863Y-13560248D01*
X16198863Y-13560248D02*
X16189339Y-13522153D01*
X16189339Y-13522153D02*
X16189339Y-13474534D01*
X16189339Y-13474534D02*
X16198863Y-13436439D01*
X16198863Y-13436439D02*
X16208387Y-13417391D01*
X16208387Y-13417391D02*
X16217911Y-13407868D01*
X16217911Y-13407868D02*
X16236958Y-13398344D01*
X16427435Y-13398344D02*
X16446482Y-13398344D01*
X16446482Y-13398344D02*
X16465530Y-13407868D01*
X16465530Y-13407868D02*
X16475054Y-13417391D01*
X16475054Y-13417391D02*
X16484577Y-13436439D01*
X16484577Y-13436439D02*
X16494101Y-13474534D01*
X16494101Y-13474534D02*
X16494101Y-13522153D01*
X16494101Y-13522153D02*
X16484577Y-13560248D01*
X16484577Y-13560248D02*
X16475054Y-13579296D01*
X16475054Y-13579296D02*
X16465530Y-13588820D01*
X16465530Y-13588820D02*
X16446482Y-13598344D01*
X16446482Y-13598344D02*
X16427435Y-13598344D01*
X16427435Y-13598344D02*
X16408387Y-13588820D01*
X16408387Y-13588820D02*
X16398863Y-13579296D01*
X16398863Y-13579296D02*
X16389339Y-13560248D01*
X16389339Y-13560248D02*
X16379816Y-13522153D01*
X16379816Y-13522153D02*
X16379816Y-13474534D01*
X16379816Y-13474534D02*
X16389339Y-13436439D01*
X16389339Y-13436439D02*
X16398863Y-13417391D01*
X16398863Y-13417391D02*
X16408387Y-13407868D01*
X16408387Y-13407868D02*
X16427435Y-13398344D01*
X16589339Y-13598344D02*
X16627435Y-13598344D01*
X16627435Y-13598344D02*
X16646482Y-13588820D01*
X16646482Y-13588820D02*
X16656006Y-13579296D01*
X16656006Y-13579296D02*
X16675054Y-13550725D01*
X16675054Y-13550725D02*
X16684577Y-13512629D01*
X16684577Y-13512629D02*
X16684577Y-13436439D01*
X16684577Y-13436439D02*
X16675054Y-13417391D01*
X16675054Y-13417391D02*
X16665530Y-13407868D01*
X16665530Y-13407868D02*
X16646482Y-13398344D01*
X16646482Y-13398344D02*
X16608387Y-13398344D01*
X16608387Y-13398344D02*
X16589339Y-13407868D01*
X16589339Y-13407868D02*
X16579816Y-13417391D01*
X16579816Y-13417391D02*
X16570292Y-13436439D01*
X16570292Y-13436439D02*
X16570292Y-13484058D01*
X16570292Y-13484058D02*
X16579816Y-13503106D01*
X16579816Y-13503106D02*
X16589339Y-13512629D01*
X16589339Y-13512629D02*
X16608387Y-13522153D01*
X16608387Y-13522153D02*
X16646482Y-13522153D01*
X16646482Y-13522153D02*
X16665530Y-13512629D01*
X16665530Y-13512629D02*
X16675054Y-13503106D01*
X16675054Y-13503106D02*
X16684577Y-13484058D01*
X16798863Y-13484058D02*
X16779816Y-13474534D01*
X16779816Y-13474534D02*
X16770292Y-13465010D01*
X16770292Y-13465010D02*
X16760768Y-13445963D01*
X16760768Y-13445963D02*
X16760768Y-13436439D01*
X16760768Y-13436439D02*
X16770292Y-13417391D01*
X16770292Y-13417391D02*
X16779816Y-13407868D01*
X16779816Y-13407868D02*
X16798863Y-13398344D01*
X16798863Y-13398344D02*
X16836959Y-13398344D01*
X16836959Y-13398344D02*
X16856006Y-13407868D01*
X16856006Y-13407868D02*
X16865530Y-13417391D01*
X16865530Y-13417391D02*
X16875054Y-13436439D01*
X16875054Y-13436439D02*
X16875054Y-13445963D01*
X16875054Y-13445963D02*
X16865530Y-13465010D01*
X16865530Y-13465010D02*
X16856006Y-13474534D01*
X16856006Y-13474534D02*
X16836959Y-13484058D01*
X16836959Y-13484058D02*
X16798863Y-13484058D01*
X16798863Y-13484058D02*
X16779816Y-13493582D01*
X16779816Y-13493582D02*
X16770292Y-13503106D01*
X16770292Y-13503106D02*
X16760768Y-13522153D01*
X16760768Y-13522153D02*
X16760768Y-13560248D01*
X16760768Y-13560248D02*
X16770292Y-13579296D01*
X16770292Y-13579296D02*
X16779816Y-13588820D01*
X16779816Y-13588820D02*
X16798863Y-13598344D01*
X16798863Y-13598344D02*
X16836959Y-13598344D01*
X16836959Y-13598344D02*
X16856006Y-13588820D01*
X16856006Y-13588820D02*
X16865530Y-13579296D01*
X16865530Y-13579296D02*
X16875054Y-13560248D01*
X16875054Y-13560248D02*
X16875054Y-13522153D01*
X16875054Y-13522153D02*
X16865530Y-13503106D01*
X16865530Y-13503106D02*
X16856006Y-13493582D01*
X16856006Y-13493582D02*
X16836959Y-13484058D01*
X16951244Y-13398344D02*
X16951244Y-13436439D01*
X17027435Y-13398344D02*
X17027435Y-13436439D01*
X17322673Y-13674534D02*
X17313149Y-13665010D01*
X17313149Y-13665010D02*
X17294101Y-13636439D01*
X17294101Y-13636439D02*
X17284578Y-13617391D01*
X17284578Y-13617391D02*
X17275054Y-13588820D01*
X17275054Y-13588820D02*
X17265530Y-13541201D01*
X17265530Y-13541201D02*
X17265530Y-13503106D01*
X17265530Y-13503106D02*
X17275054Y-13455487D01*
X17275054Y-13455487D02*
X17284578Y-13426915D01*
X17284578Y-13426915D02*
X17294101Y-13407868D01*
X17294101Y-13407868D02*
X17313149Y-13379296D01*
X17313149Y-13379296D02*
X17322673Y-13369772D01*
X17389340Y-13417391D02*
X17398863Y-13407868D01*
X17398863Y-13407868D02*
X17417911Y-13398344D01*
X17417911Y-13398344D02*
X17465530Y-13398344D01*
X17465530Y-13398344D02*
X17484578Y-13407868D01*
X17484578Y-13407868D02*
X17494101Y-13417391D01*
X17494101Y-13417391D02*
X17503625Y-13436439D01*
X17503625Y-13436439D02*
X17503625Y-13455487D01*
X17503625Y-13455487D02*
X17494101Y-13484058D01*
X17494101Y-13484058D02*
X17379816Y-13598344D01*
X17379816Y-13598344D02*
X17503625Y-13598344D01*
X17579816Y-13417391D02*
X17589340Y-13407868D01*
X17589340Y-13407868D02*
X17608387Y-13398344D01*
X17608387Y-13398344D02*
X17656006Y-13398344D01*
X17656006Y-13398344D02*
X17675054Y-13407868D01*
X17675054Y-13407868D02*
X17684578Y-13417391D01*
X17684578Y-13417391D02*
X17694101Y-13436439D01*
X17694101Y-13436439D02*
X17694101Y-13455487D01*
X17694101Y-13455487D02*
X17684578Y-13484058D01*
X17684578Y-13484058D02*
X17570292Y-13598344D01*
X17570292Y-13598344D02*
X17694101Y-13598344D01*
X17865530Y-13465010D02*
X17865530Y-13598344D01*
X17817911Y-13388820D02*
X17770292Y-13531677D01*
X17770292Y-13531677D02*
X17894101Y-13531677D01*
X18122673Y-13598344D02*
X18122673Y-13398344D01*
X18208387Y-13598344D02*
X18208387Y-13493582D01*
X18208387Y-13493582D02*
X18198863Y-13474534D01*
X18198863Y-13474534D02*
X18179816Y-13465010D01*
X18179816Y-13465010D02*
X18151244Y-13465010D01*
X18151244Y-13465010D02*
X18132197Y-13474534D01*
X18132197Y-13474534D02*
X18122673Y-13484058D01*
X18332197Y-13598344D02*
X18313149Y-13588820D01*
X18313149Y-13588820D02*
X18303625Y-13579296D01*
X18303625Y-13579296D02*
X18294102Y-13560248D01*
X18294102Y-13560248D02*
X18294102Y-13503106D01*
X18294102Y-13503106D02*
X18303625Y-13484058D01*
X18303625Y-13484058D02*
X18313149Y-13474534D01*
X18313149Y-13474534D02*
X18332197Y-13465010D01*
X18332197Y-13465010D02*
X18360768Y-13465010D01*
X18360768Y-13465010D02*
X18379816Y-13474534D01*
X18379816Y-13474534D02*
X18389340Y-13484058D01*
X18389340Y-13484058D02*
X18398863Y-13503106D01*
X18398863Y-13503106D02*
X18398863Y-13560248D01*
X18398863Y-13560248D02*
X18389340Y-13579296D01*
X18389340Y-13579296D02*
X18379816Y-13588820D01*
X18379816Y-13588820D02*
X18360768Y-13598344D01*
X18360768Y-13598344D02*
X18332197Y-13598344D01*
X18513149Y-13598344D02*
X18494102Y-13588820D01*
X18494102Y-13588820D02*
X18484578Y-13569772D01*
X18484578Y-13569772D02*
X18484578Y-13398344D01*
X18665530Y-13588820D02*
X18646483Y-13598344D01*
X18646483Y-13598344D02*
X18608387Y-13598344D01*
X18608387Y-13598344D02*
X18589340Y-13588820D01*
X18589340Y-13588820D02*
X18579816Y-13569772D01*
X18579816Y-13569772D02*
X18579816Y-13493582D01*
X18579816Y-13493582D02*
X18589340Y-13474534D01*
X18589340Y-13474534D02*
X18608387Y-13465010D01*
X18608387Y-13465010D02*
X18646483Y-13465010D01*
X18646483Y-13465010D02*
X18665530Y-13474534D01*
X18665530Y-13474534D02*
X18675054Y-13493582D01*
X18675054Y-13493582D02*
X18675054Y-13512629D01*
X18675054Y-13512629D02*
X18579816Y-13531677D01*
X18751244Y-13588820D02*
X18770292Y-13598344D01*
X18770292Y-13598344D02*
X18808387Y-13598344D01*
X18808387Y-13598344D02*
X18827435Y-13588820D01*
X18827435Y-13588820D02*
X18836959Y-13569772D01*
X18836959Y-13569772D02*
X18836959Y-13560248D01*
X18836959Y-13560248D02*
X18827435Y-13541201D01*
X18827435Y-13541201D02*
X18808387Y-13531677D01*
X18808387Y-13531677D02*
X18779816Y-13531677D01*
X18779816Y-13531677D02*
X18760768Y-13522153D01*
X18760768Y-13522153D02*
X18751244Y-13503106D01*
X18751244Y-13503106D02*
X18751244Y-13493582D01*
X18751244Y-13493582D02*
X18760768Y-13474534D01*
X18760768Y-13474534D02*
X18779816Y-13465010D01*
X18779816Y-13465010D02*
X18808387Y-13465010D01*
X18808387Y-13465010D02*
X18827435Y-13474534D01*
X18903625Y-13674534D02*
X18913149Y-13665010D01*
X18913149Y-13665010D02*
X18932197Y-13636439D01*
X18932197Y-13636439D02*
X18941721Y-13617391D01*
X18941721Y-13617391D02*
X18951244Y-13588820D01*
X18951244Y-13588820D02*
X18960768Y-13541201D01*
X18960768Y-13541201D02*
X18960768Y-13503106D01*
X18960768Y-13503106D02*
X18951244Y-13455487D01*
X18951244Y-13455487D02*
X18941721Y-13426915D01*
X18941721Y-13426915D02*
X18932197Y-13407868D01*
X18932197Y-13407868D02*
X18913149Y-13379296D01*
X18913149Y-13379296D02*
X18903625Y-13369772D01*
D12*
X13732610Y-13755860D02*
X13732610Y-13785860D01*
X13717610Y-13770860D02*
X13747610Y-13770860D01*
D11*
X14046482Y-13662344D02*
X14065530Y-13662344D01*
X14065530Y-13662344D02*
X14084577Y-13671868D01*
X14084577Y-13671868D02*
X14094101Y-13681391D01*
X14094101Y-13681391D02*
X14103625Y-13700439D01*
X14103625Y-13700439D02*
X14113149Y-13738534D01*
X14113149Y-13738534D02*
X14113149Y-13786153D01*
X14113149Y-13786153D02*
X14103625Y-13824248D01*
X14103625Y-13824248D02*
X14094101Y-13843296D01*
X14094101Y-13843296D02*
X14084577Y-13852820D01*
X14084577Y-13852820D02*
X14065530Y-13862344D01*
X14065530Y-13862344D02*
X14046482Y-13862344D01*
X14046482Y-13862344D02*
X14027434Y-13852820D01*
X14027434Y-13852820D02*
X14017911Y-13843296D01*
X14017911Y-13843296D02*
X14008387Y-13824248D01*
X14008387Y-13824248D02*
X13998863Y-13786153D01*
X13998863Y-13786153D02*
X13998863Y-13738534D01*
X13998863Y-13738534D02*
X14008387Y-13700439D01*
X14008387Y-13700439D02*
X14017911Y-13681391D01*
X14017911Y-13681391D02*
X14027434Y-13671868D01*
X14027434Y-13671868D02*
X14046482Y-13662344D01*
X14198863Y-13843296D02*
X14208387Y-13852820D01*
X14208387Y-13852820D02*
X14198863Y-13862344D01*
X14198863Y-13862344D02*
X14189339Y-13852820D01*
X14189339Y-13852820D02*
X14198863Y-13843296D01*
X14198863Y-13843296D02*
X14198863Y-13862344D01*
X14275053Y-13662344D02*
X14398863Y-13662344D01*
X14398863Y-13662344D02*
X14332196Y-13738534D01*
X14332196Y-13738534D02*
X14360768Y-13738534D01*
X14360768Y-13738534D02*
X14379815Y-13748058D01*
X14379815Y-13748058D02*
X14389339Y-13757582D01*
X14389339Y-13757582D02*
X14398863Y-13776629D01*
X14398863Y-13776629D02*
X14398863Y-13824248D01*
X14398863Y-13824248D02*
X14389339Y-13843296D01*
X14389339Y-13843296D02*
X14379815Y-13852820D01*
X14379815Y-13852820D02*
X14360768Y-13862344D01*
X14360768Y-13862344D02*
X14303625Y-13862344D01*
X14303625Y-13862344D02*
X14284577Y-13852820D01*
X14284577Y-13852820D02*
X14275053Y-13843296D01*
X14522672Y-13662344D02*
X14541720Y-13662344D01*
X14541720Y-13662344D02*
X14560768Y-13671868D01*
X14560768Y-13671868D02*
X14570292Y-13681391D01*
X14570292Y-13681391D02*
X14579815Y-13700439D01*
X14579815Y-13700439D02*
X14589339Y-13738534D01*
X14589339Y-13738534D02*
X14589339Y-13786153D01*
X14589339Y-13786153D02*
X14579815Y-13824248D01*
X14579815Y-13824248D02*
X14570292Y-13843296D01*
X14570292Y-13843296D02*
X14560768Y-13852820D01*
X14560768Y-13852820D02*
X14541720Y-13862344D01*
X14541720Y-13862344D02*
X14522672Y-13862344D01*
X14522672Y-13862344D02*
X14503625Y-13852820D01*
X14503625Y-13852820D02*
X14494101Y-13843296D01*
X14494101Y-13843296D02*
X14484577Y-13824248D01*
X14484577Y-13824248D02*
X14475053Y-13786153D01*
X14475053Y-13786153D02*
X14475053Y-13738534D01*
X14475053Y-13738534D02*
X14484577Y-13700439D01*
X14484577Y-13700439D02*
X14494101Y-13681391D01*
X14494101Y-13681391D02*
X14503625Y-13671868D01*
X14503625Y-13671868D02*
X14522672Y-13662344D01*
X14713149Y-13662344D02*
X14732196Y-13662344D01*
X14732196Y-13662344D02*
X14751244Y-13671868D01*
X14751244Y-13671868D02*
X14760768Y-13681391D01*
X14760768Y-13681391D02*
X14770292Y-13700439D01*
X14770292Y-13700439D02*
X14779815Y-13738534D01*
X14779815Y-13738534D02*
X14779815Y-13786153D01*
X14779815Y-13786153D02*
X14770292Y-13824248D01*
X14770292Y-13824248D02*
X14760768Y-13843296D01*
X14760768Y-13843296D02*
X14751244Y-13852820D01*
X14751244Y-13852820D02*
X14732196Y-13862344D01*
X14732196Y-13862344D02*
X14713149Y-13862344D01*
X14713149Y-13862344D02*
X14694101Y-13852820D01*
X14694101Y-13852820D02*
X14684577Y-13843296D01*
X14684577Y-13843296D02*
X14675053Y-13824248D01*
X14675053Y-13824248D02*
X14665530Y-13786153D01*
X14665530Y-13786153D02*
X14665530Y-13738534D01*
X14665530Y-13738534D02*
X14675053Y-13700439D01*
X14675053Y-13700439D02*
X14684577Y-13681391D01*
X14684577Y-13681391D02*
X14694101Y-13671868D01*
X14694101Y-13671868D02*
X14713149Y-13662344D01*
X14865530Y-13862344D02*
X14865530Y-13729010D01*
X14865530Y-13748058D02*
X14875053Y-13738534D01*
X14875053Y-13738534D02*
X14894101Y-13729010D01*
X14894101Y-13729010D02*
X14922673Y-13729010D01*
X14922673Y-13729010D02*
X14941720Y-13738534D01*
X14941720Y-13738534D02*
X14951244Y-13757582D01*
X14951244Y-13757582D02*
X14951244Y-13862344D01*
X14951244Y-13757582D02*
X14960768Y-13738534D01*
X14960768Y-13738534D02*
X14979815Y-13729010D01*
X14979815Y-13729010D02*
X15008387Y-13729010D01*
X15008387Y-13729010D02*
X15027434Y-13738534D01*
X15027434Y-13738534D02*
X15036958Y-13757582D01*
X15036958Y-13757582D02*
X15036958Y-13862344D01*
X15132196Y-13862344D02*
X15132196Y-13729010D01*
X15132196Y-13748058D02*
X15141720Y-13738534D01*
X15141720Y-13738534D02*
X15160768Y-13729010D01*
X15160768Y-13729010D02*
X15189339Y-13729010D01*
X15189339Y-13729010D02*
X15208387Y-13738534D01*
X15208387Y-13738534D02*
X15217911Y-13757582D01*
X15217911Y-13757582D02*
X15217911Y-13862344D01*
X15217911Y-13757582D02*
X15227434Y-13738534D01*
X15227434Y-13738534D02*
X15246482Y-13729010D01*
X15246482Y-13729010D02*
X15275053Y-13729010D01*
X15275053Y-13729010D02*
X15294101Y-13738534D01*
X15294101Y-13738534D02*
X15303625Y-13757582D01*
X15303625Y-13757582D02*
X15303625Y-13862344D01*
X15694101Y-13652820D02*
X15522673Y-13909963D01*
X15951244Y-13662344D02*
X15970292Y-13662344D01*
X15970292Y-13662344D02*
X15989339Y-13671868D01*
X15989339Y-13671868D02*
X15998863Y-13681391D01*
X15998863Y-13681391D02*
X16008387Y-13700439D01*
X16008387Y-13700439D02*
X16017911Y-13738534D01*
X16017911Y-13738534D02*
X16017911Y-13786153D01*
X16017911Y-13786153D02*
X16008387Y-13824248D01*
X16008387Y-13824248D02*
X15998863Y-13843296D01*
X15998863Y-13843296D02*
X15989339Y-13852820D01*
X15989339Y-13852820D02*
X15970292Y-13862344D01*
X15970292Y-13862344D02*
X15951244Y-13862344D01*
X15951244Y-13862344D02*
X15932196Y-13852820D01*
X15932196Y-13852820D02*
X15922673Y-13843296D01*
X15922673Y-13843296D02*
X15913149Y-13824248D01*
X15913149Y-13824248D02*
X15903625Y-13786153D01*
X15903625Y-13786153D02*
X15903625Y-13738534D01*
X15903625Y-13738534D02*
X15913149Y-13700439D01*
X15913149Y-13700439D02*
X15922673Y-13681391D01*
X15922673Y-13681391D02*
X15932196Y-13671868D01*
X15932196Y-13671868D02*
X15951244Y-13662344D01*
X16103625Y-13843296D02*
X16113149Y-13852820D01*
X16113149Y-13852820D02*
X16103625Y-13862344D01*
X16103625Y-13862344D02*
X16094101Y-13852820D01*
X16094101Y-13852820D02*
X16103625Y-13843296D01*
X16103625Y-13843296D02*
X16103625Y-13862344D01*
X16236958Y-13662344D02*
X16256006Y-13662344D01*
X16256006Y-13662344D02*
X16275054Y-13671868D01*
X16275054Y-13671868D02*
X16284577Y-13681391D01*
X16284577Y-13681391D02*
X16294101Y-13700439D01*
X16294101Y-13700439D02*
X16303625Y-13738534D01*
X16303625Y-13738534D02*
X16303625Y-13786153D01*
X16303625Y-13786153D02*
X16294101Y-13824248D01*
X16294101Y-13824248D02*
X16284577Y-13843296D01*
X16284577Y-13843296D02*
X16275054Y-13852820D01*
X16275054Y-13852820D02*
X16256006Y-13862344D01*
X16256006Y-13862344D02*
X16236958Y-13862344D01*
X16236958Y-13862344D02*
X16217911Y-13852820D01*
X16217911Y-13852820D02*
X16208387Y-13843296D01*
X16208387Y-13843296D02*
X16198863Y-13824248D01*
X16198863Y-13824248D02*
X16189339Y-13786153D01*
X16189339Y-13786153D02*
X16189339Y-13738534D01*
X16189339Y-13738534D02*
X16198863Y-13700439D01*
X16198863Y-13700439D02*
X16208387Y-13681391D01*
X16208387Y-13681391D02*
X16217911Y-13671868D01*
X16217911Y-13671868D02*
X16236958Y-13662344D01*
X16494101Y-13862344D02*
X16379816Y-13862344D01*
X16436958Y-13862344D02*
X16436958Y-13662344D01*
X16436958Y-13662344D02*
X16417911Y-13690915D01*
X16417911Y-13690915D02*
X16398863Y-13709963D01*
X16398863Y-13709963D02*
X16379816Y-13719487D01*
X16684577Y-13862344D02*
X16570292Y-13862344D01*
X16627435Y-13862344D02*
X16627435Y-13662344D01*
X16627435Y-13662344D02*
X16608387Y-13690915D01*
X16608387Y-13690915D02*
X16589339Y-13709963D01*
X16589339Y-13709963D02*
X16570292Y-13719487D01*
X16798863Y-13748058D02*
X16779816Y-13738534D01*
X16779816Y-13738534D02*
X16770292Y-13729010D01*
X16770292Y-13729010D02*
X16760768Y-13709963D01*
X16760768Y-13709963D02*
X16760768Y-13700439D01*
X16760768Y-13700439D02*
X16770292Y-13681391D01*
X16770292Y-13681391D02*
X16779816Y-13671868D01*
X16779816Y-13671868D02*
X16798863Y-13662344D01*
X16798863Y-13662344D02*
X16836959Y-13662344D01*
X16836959Y-13662344D02*
X16856006Y-13671868D01*
X16856006Y-13671868D02*
X16865530Y-13681391D01*
X16865530Y-13681391D02*
X16875054Y-13700439D01*
X16875054Y-13700439D02*
X16875054Y-13709963D01*
X16875054Y-13709963D02*
X16865530Y-13729010D01*
X16865530Y-13729010D02*
X16856006Y-13738534D01*
X16856006Y-13738534D02*
X16836959Y-13748058D01*
X16836959Y-13748058D02*
X16798863Y-13748058D01*
X16798863Y-13748058D02*
X16779816Y-13757582D01*
X16779816Y-13757582D02*
X16770292Y-13767106D01*
X16770292Y-13767106D02*
X16760768Y-13786153D01*
X16760768Y-13786153D02*
X16760768Y-13824248D01*
X16760768Y-13824248D02*
X16770292Y-13843296D01*
X16770292Y-13843296D02*
X16779816Y-13852820D01*
X16779816Y-13852820D02*
X16798863Y-13862344D01*
X16798863Y-13862344D02*
X16836959Y-13862344D01*
X16836959Y-13862344D02*
X16856006Y-13852820D01*
X16856006Y-13852820D02*
X16865530Y-13843296D01*
X16865530Y-13843296D02*
X16875054Y-13824248D01*
X16875054Y-13824248D02*
X16875054Y-13786153D01*
X16875054Y-13786153D02*
X16865530Y-13767106D01*
X16865530Y-13767106D02*
X16856006Y-13757582D01*
X16856006Y-13757582D02*
X16836959Y-13748058D01*
X16951244Y-13662344D02*
X16951244Y-13700439D01*
X17027435Y-13662344D02*
X17027435Y-13700439D01*
X17322673Y-13938534D02*
X17313149Y-13929010D01*
X17313149Y-13929010D02*
X17294101Y-13900439D01*
X17294101Y-13900439D02*
X17284578Y-13881391D01*
X17284578Y-13881391D02*
X17275054Y-13852820D01*
X17275054Y-13852820D02*
X17265530Y-13805201D01*
X17265530Y-13805201D02*
X17265530Y-13767106D01*
X17265530Y-13767106D02*
X17275054Y-13719487D01*
X17275054Y-13719487D02*
X17284578Y-13690915D01*
X17284578Y-13690915D02*
X17294101Y-13671868D01*
X17294101Y-13671868D02*
X17313149Y-13643296D01*
X17313149Y-13643296D02*
X17322673Y-13633772D01*
X17389340Y-13681391D02*
X17398863Y-13671868D01*
X17398863Y-13671868D02*
X17417911Y-13662344D01*
X17417911Y-13662344D02*
X17465530Y-13662344D01*
X17465530Y-13662344D02*
X17484578Y-13671868D01*
X17484578Y-13671868D02*
X17494101Y-13681391D01*
X17494101Y-13681391D02*
X17503625Y-13700439D01*
X17503625Y-13700439D02*
X17503625Y-13719487D01*
X17503625Y-13719487D02*
X17494101Y-13748058D01*
X17494101Y-13748058D02*
X17379816Y-13862344D01*
X17379816Y-13862344D02*
X17503625Y-13862344D01*
X17741721Y-13862344D02*
X17741721Y-13662344D01*
X17827435Y-13862344D02*
X17827435Y-13757582D01*
X17827435Y-13757582D02*
X17817911Y-13738534D01*
X17817911Y-13738534D02*
X17798863Y-13729010D01*
X17798863Y-13729010D02*
X17770292Y-13729010D01*
X17770292Y-13729010D02*
X17751244Y-13738534D01*
X17751244Y-13738534D02*
X17741721Y-13748058D01*
X17951244Y-13862344D02*
X17932197Y-13852820D01*
X17932197Y-13852820D02*
X17922673Y-13843296D01*
X17922673Y-13843296D02*
X17913149Y-13824248D01*
X17913149Y-13824248D02*
X17913149Y-13767106D01*
X17913149Y-13767106D02*
X17922673Y-13748058D01*
X17922673Y-13748058D02*
X17932197Y-13738534D01*
X17932197Y-13738534D02*
X17951244Y-13729010D01*
X17951244Y-13729010D02*
X17979816Y-13729010D01*
X17979816Y-13729010D02*
X17998863Y-13738534D01*
X17998863Y-13738534D02*
X18008387Y-13748058D01*
X18008387Y-13748058D02*
X18017911Y-13767106D01*
X18017911Y-13767106D02*
X18017911Y-13824248D01*
X18017911Y-13824248D02*
X18008387Y-13843296D01*
X18008387Y-13843296D02*
X17998863Y-13852820D01*
X17998863Y-13852820D02*
X17979816Y-13862344D01*
X17979816Y-13862344D02*
X17951244Y-13862344D01*
X18132197Y-13862344D02*
X18113149Y-13852820D01*
X18113149Y-13852820D02*
X18103625Y-13833772D01*
X18103625Y-13833772D02*
X18103625Y-13662344D01*
X18284578Y-13852820D02*
X18265530Y-13862344D01*
X18265530Y-13862344D02*
X18227435Y-13862344D01*
X18227435Y-13862344D02*
X18208387Y-13852820D01*
X18208387Y-13852820D02*
X18198863Y-13833772D01*
X18198863Y-13833772D02*
X18198863Y-13757582D01*
X18198863Y-13757582D02*
X18208387Y-13738534D01*
X18208387Y-13738534D02*
X18227435Y-13729010D01*
X18227435Y-13729010D02*
X18265530Y-13729010D01*
X18265530Y-13729010D02*
X18284578Y-13738534D01*
X18284578Y-13738534D02*
X18294102Y-13757582D01*
X18294102Y-13757582D02*
X18294102Y-13776629D01*
X18294102Y-13776629D02*
X18198863Y-13795677D01*
X18370292Y-13852820D02*
X18389340Y-13862344D01*
X18389340Y-13862344D02*
X18427435Y-13862344D01*
X18427435Y-13862344D02*
X18446483Y-13852820D01*
X18446483Y-13852820D02*
X18456006Y-13833772D01*
X18456006Y-13833772D02*
X18456006Y-13824248D01*
X18456006Y-13824248D02*
X18446483Y-13805201D01*
X18446483Y-13805201D02*
X18427435Y-13795677D01*
X18427435Y-13795677D02*
X18398863Y-13795677D01*
X18398863Y-13795677D02*
X18379816Y-13786153D01*
X18379816Y-13786153D02*
X18370292Y-13767106D01*
X18370292Y-13767106D02*
X18370292Y-13757582D01*
X18370292Y-13757582D02*
X18379816Y-13738534D01*
X18379816Y-13738534D02*
X18398863Y-13729010D01*
X18398863Y-13729010D02*
X18427435Y-13729010D01*
X18427435Y-13729010D02*
X18446483Y-13738534D01*
X18522673Y-13938534D02*
X18532197Y-13929010D01*
X18532197Y-13929010D02*
X18551244Y-13900439D01*
X18551244Y-13900439D02*
X18560768Y-13881391D01*
X18560768Y-13881391D02*
X18570292Y-13852820D01*
X18570292Y-13852820D02*
X18579816Y-13805201D01*
X18579816Y-13805201D02*
X18579816Y-13767106D01*
X18579816Y-13767106D02*
X18570292Y-13719487D01*
X18570292Y-13719487D02*
X18560768Y-13690915D01*
X18560768Y-13690915D02*
X18551244Y-13671868D01*
X18551244Y-13671868D02*
X18532197Y-13643296D01*
X18532197Y-13643296D02*
X18522673Y-13633772D01*
X13718321Y-14105571D02*
X13718321Y-13964149D01*
X13576899Y-13964149D01*
X13576899Y-14105571D01*
X13718321Y-14105571D01*
X13989339Y-13926344D02*
X14113149Y-13926344D01*
X14113149Y-13926344D02*
X14046482Y-14002534D01*
X14046482Y-14002534D02*
X14075053Y-14002534D01*
X14075053Y-14002534D02*
X14094101Y-14012058D01*
X14094101Y-14012058D02*
X14103625Y-14021582D01*
X14103625Y-14021582D02*
X14113149Y-14040629D01*
X14113149Y-14040629D02*
X14113149Y-14088248D01*
X14113149Y-14088248D02*
X14103625Y-14107296D01*
X14103625Y-14107296D02*
X14094101Y-14116820D01*
X14094101Y-14116820D02*
X14075053Y-14126344D01*
X14075053Y-14126344D02*
X14017911Y-14126344D01*
X14017911Y-14126344D02*
X13998863Y-14116820D01*
X13998863Y-14116820D02*
X13989339Y-14107296D01*
X14198863Y-14107296D02*
X14208387Y-14116820D01*
X14208387Y-14116820D02*
X14198863Y-14126344D01*
X14198863Y-14126344D02*
X14189339Y-14116820D01*
X14189339Y-14116820D02*
X14198863Y-14107296D01*
X14198863Y-14107296D02*
X14198863Y-14126344D01*
X14389339Y-13926344D02*
X14294101Y-13926344D01*
X14294101Y-13926344D02*
X14284577Y-14021582D01*
X14284577Y-14021582D02*
X14294101Y-14012058D01*
X14294101Y-14012058D02*
X14313149Y-14002534D01*
X14313149Y-14002534D02*
X14360768Y-14002534D01*
X14360768Y-14002534D02*
X14379815Y-14012058D01*
X14379815Y-14012058D02*
X14389339Y-14021582D01*
X14389339Y-14021582D02*
X14398863Y-14040629D01*
X14398863Y-14040629D02*
X14398863Y-14088248D01*
X14398863Y-14088248D02*
X14389339Y-14107296D01*
X14389339Y-14107296D02*
X14379815Y-14116820D01*
X14379815Y-14116820D02*
X14360768Y-14126344D01*
X14360768Y-14126344D02*
X14313149Y-14126344D01*
X14313149Y-14126344D02*
X14294101Y-14116820D01*
X14294101Y-14116820D02*
X14284577Y-14107296D01*
X14522672Y-13926344D02*
X14541720Y-13926344D01*
X14541720Y-13926344D02*
X14560768Y-13935868D01*
X14560768Y-13935868D02*
X14570292Y-13945391D01*
X14570292Y-13945391D02*
X14579815Y-13964439D01*
X14579815Y-13964439D02*
X14589339Y-14002534D01*
X14589339Y-14002534D02*
X14589339Y-14050153D01*
X14589339Y-14050153D02*
X14579815Y-14088248D01*
X14579815Y-14088248D02*
X14570292Y-14107296D01*
X14570292Y-14107296D02*
X14560768Y-14116820D01*
X14560768Y-14116820D02*
X14541720Y-14126344D01*
X14541720Y-14126344D02*
X14522672Y-14126344D01*
X14522672Y-14126344D02*
X14503625Y-14116820D01*
X14503625Y-14116820D02*
X14494101Y-14107296D01*
X14494101Y-14107296D02*
X14484577Y-14088248D01*
X14484577Y-14088248D02*
X14475053Y-14050153D01*
X14475053Y-14050153D02*
X14475053Y-14002534D01*
X14475053Y-14002534D02*
X14484577Y-13964439D01*
X14484577Y-13964439D02*
X14494101Y-13945391D01*
X14494101Y-13945391D02*
X14503625Y-13935868D01*
X14503625Y-13935868D02*
X14522672Y-13926344D01*
X14713149Y-13926344D02*
X14732196Y-13926344D01*
X14732196Y-13926344D02*
X14751244Y-13935868D01*
X14751244Y-13935868D02*
X14760768Y-13945391D01*
X14760768Y-13945391D02*
X14770292Y-13964439D01*
X14770292Y-13964439D02*
X14779815Y-14002534D01*
X14779815Y-14002534D02*
X14779815Y-14050153D01*
X14779815Y-14050153D02*
X14770292Y-14088248D01*
X14770292Y-14088248D02*
X14760768Y-14107296D01*
X14760768Y-14107296D02*
X14751244Y-14116820D01*
X14751244Y-14116820D02*
X14732196Y-14126344D01*
X14732196Y-14126344D02*
X14713149Y-14126344D01*
X14713149Y-14126344D02*
X14694101Y-14116820D01*
X14694101Y-14116820D02*
X14684577Y-14107296D01*
X14684577Y-14107296D02*
X14675053Y-14088248D01*
X14675053Y-14088248D02*
X14665530Y-14050153D01*
X14665530Y-14050153D02*
X14665530Y-14002534D01*
X14665530Y-14002534D02*
X14675053Y-13964439D01*
X14675053Y-13964439D02*
X14684577Y-13945391D01*
X14684577Y-13945391D02*
X14694101Y-13935868D01*
X14694101Y-13935868D02*
X14713149Y-13926344D01*
X14865530Y-14126344D02*
X14865530Y-13993010D01*
X14865530Y-14012058D02*
X14875053Y-14002534D01*
X14875053Y-14002534D02*
X14894101Y-13993010D01*
X14894101Y-13993010D02*
X14922673Y-13993010D01*
X14922673Y-13993010D02*
X14941720Y-14002534D01*
X14941720Y-14002534D02*
X14951244Y-14021582D01*
X14951244Y-14021582D02*
X14951244Y-14126344D01*
X14951244Y-14021582D02*
X14960768Y-14002534D01*
X14960768Y-14002534D02*
X14979815Y-13993010D01*
X14979815Y-13993010D02*
X15008387Y-13993010D01*
X15008387Y-13993010D02*
X15027434Y-14002534D01*
X15027434Y-14002534D02*
X15036958Y-14021582D01*
X15036958Y-14021582D02*
X15036958Y-14126344D01*
X15132196Y-14126344D02*
X15132196Y-13993010D01*
X15132196Y-14012058D02*
X15141720Y-14002534D01*
X15141720Y-14002534D02*
X15160768Y-13993010D01*
X15160768Y-13993010D02*
X15189339Y-13993010D01*
X15189339Y-13993010D02*
X15208387Y-14002534D01*
X15208387Y-14002534D02*
X15217911Y-14021582D01*
X15217911Y-14021582D02*
X15217911Y-14126344D01*
X15217911Y-14021582D02*
X15227434Y-14002534D01*
X15227434Y-14002534D02*
X15246482Y-13993010D01*
X15246482Y-13993010D02*
X15275053Y-13993010D01*
X15275053Y-13993010D02*
X15294101Y-14002534D01*
X15294101Y-14002534D02*
X15303625Y-14021582D01*
X15303625Y-14021582D02*
X15303625Y-14126344D01*
X15694101Y-13916820D02*
X15522673Y-14173963D01*
X15951244Y-13926344D02*
X15970292Y-13926344D01*
X15970292Y-13926344D02*
X15989339Y-13935868D01*
X15989339Y-13935868D02*
X15998863Y-13945391D01*
X15998863Y-13945391D02*
X16008387Y-13964439D01*
X16008387Y-13964439D02*
X16017911Y-14002534D01*
X16017911Y-14002534D02*
X16017911Y-14050153D01*
X16017911Y-14050153D02*
X16008387Y-14088248D01*
X16008387Y-14088248D02*
X15998863Y-14107296D01*
X15998863Y-14107296D02*
X15989339Y-14116820D01*
X15989339Y-14116820D02*
X15970292Y-14126344D01*
X15970292Y-14126344D02*
X15951244Y-14126344D01*
X15951244Y-14126344D02*
X15932196Y-14116820D01*
X15932196Y-14116820D02*
X15922673Y-14107296D01*
X15922673Y-14107296D02*
X15913149Y-14088248D01*
X15913149Y-14088248D02*
X15903625Y-14050153D01*
X15903625Y-14050153D02*
X15903625Y-14002534D01*
X15903625Y-14002534D02*
X15913149Y-13964439D01*
X15913149Y-13964439D02*
X15922673Y-13945391D01*
X15922673Y-13945391D02*
X15932196Y-13935868D01*
X15932196Y-13935868D02*
X15951244Y-13926344D01*
X16103625Y-14107296D02*
X16113149Y-14116820D01*
X16113149Y-14116820D02*
X16103625Y-14126344D01*
X16103625Y-14126344D02*
X16094101Y-14116820D01*
X16094101Y-14116820D02*
X16103625Y-14107296D01*
X16103625Y-14107296D02*
X16103625Y-14126344D01*
X16303625Y-14126344D02*
X16189339Y-14126344D01*
X16246482Y-14126344D02*
X16246482Y-13926344D01*
X16246482Y-13926344D02*
X16227435Y-13954915D01*
X16227435Y-13954915D02*
X16208387Y-13973963D01*
X16208387Y-13973963D02*
X16189339Y-13983487D01*
X16370292Y-13926344D02*
X16494101Y-13926344D01*
X16494101Y-13926344D02*
X16427435Y-14002534D01*
X16427435Y-14002534D02*
X16456006Y-14002534D01*
X16456006Y-14002534D02*
X16475054Y-14012058D01*
X16475054Y-14012058D02*
X16484577Y-14021582D01*
X16484577Y-14021582D02*
X16494101Y-14040629D01*
X16494101Y-14040629D02*
X16494101Y-14088248D01*
X16494101Y-14088248D02*
X16484577Y-14107296D01*
X16484577Y-14107296D02*
X16475054Y-14116820D01*
X16475054Y-14116820D02*
X16456006Y-14126344D01*
X16456006Y-14126344D02*
X16398863Y-14126344D01*
X16398863Y-14126344D02*
X16379816Y-14116820D01*
X16379816Y-14116820D02*
X16370292Y-14107296D01*
X16560768Y-13926344D02*
X16694101Y-13926344D01*
X16694101Y-13926344D02*
X16608387Y-14126344D01*
X16798863Y-14012058D02*
X16779816Y-14002534D01*
X16779816Y-14002534D02*
X16770292Y-13993010D01*
X16770292Y-13993010D02*
X16760768Y-13973963D01*
X16760768Y-13973963D02*
X16760768Y-13964439D01*
X16760768Y-13964439D02*
X16770292Y-13945391D01*
X16770292Y-13945391D02*
X16779816Y-13935868D01*
X16779816Y-13935868D02*
X16798863Y-13926344D01*
X16798863Y-13926344D02*
X16836959Y-13926344D01*
X16836959Y-13926344D02*
X16856006Y-13935868D01*
X16856006Y-13935868D02*
X16865530Y-13945391D01*
X16865530Y-13945391D02*
X16875054Y-13964439D01*
X16875054Y-13964439D02*
X16875054Y-13973963D01*
X16875054Y-13973963D02*
X16865530Y-13993010D01*
X16865530Y-13993010D02*
X16856006Y-14002534D01*
X16856006Y-14002534D02*
X16836959Y-14012058D01*
X16836959Y-14012058D02*
X16798863Y-14012058D01*
X16798863Y-14012058D02*
X16779816Y-14021582D01*
X16779816Y-14021582D02*
X16770292Y-14031106D01*
X16770292Y-14031106D02*
X16760768Y-14050153D01*
X16760768Y-14050153D02*
X16760768Y-14088248D01*
X16760768Y-14088248D02*
X16770292Y-14107296D01*
X16770292Y-14107296D02*
X16779816Y-14116820D01*
X16779816Y-14116820D02*
X16798863Y-14126344D01*
X16798863Y-14126344D02*
X16836959Y-14126344D01*
X16836959Y-14126344D02*
X16856006Y-14116820D01*
X16856006Y-14116820D02*
X16865530Y-14107296D01*
X16865530Y-14107296D02*
X16875054Y-14088248D01*
X16875054Y-14088248D02*
X16875054Y-14050153D01*
X16875054Y-14050153D02*
X16865530Y-14031106D01*
X16865530Y-14031106D02*
X16856006Y-14021582D01*
X16856006Y-14021582D02*
X16836959Y-14012058D01*
X16951244Y-13926344D02*
X16951244Y-13964439D01*
X17027435Y-13926344D02*
X17027435Y-13964439D01*
X17322673Y-14202534D02*
X17313149Y-14193010D01*
X17313149Y-14193010D02*
X17294101Y-14164439D01*
X17294101Y-14164439D02*
X17284578Y-14145391D01*
X17284578Y-14145391D02*
X17275054Y-14116820D01*
X17275054Y-14116820D02*
X17265530Y-14069201D01*
X17265530Y-14069201D02*
X17265530Y-14031106D01*
X17265530Y-14031106D02*
X17275054Y-13983487D01*
X17275054Y-13983487D02*
X17284578Y-13954915D01*
X17284578Y-13954915D02*
X17294101Y-13935868D01*
X17294101Y-13935868D02*
X17313149Y-13907296D01*
X17313149Y-13907296D02*
X17322673Y-13897772D01*
X17503625Y-14126344D02*
X17389340Y-14126344D01*
X17446482Y-14126344D02*
X17446482Y-13926344D01*
X17446482Y-13926344D02*
X17427435Y-13954915D01*
X17427435Y-13954915D02*
X17408387Y-13973963D01*
X17408387Y-13973963D02*
X17389340Y-13983487D01*
X17741721Y-14126344D02*
X17741721Y-13926344D01*
X17827435Y-14126344D02*
X17827435Y-14021582D01*
X17827435Y-14021582D02*
X17817911Y-14002534D01*
X17817911Y-14002534D02*
X17798863Y-13993010D01*
X17798863Y-13993010D02*
X17770292Y-13993010D01*
X17770292Y-13993010D02*
X17751244Y-14002534D01*
X17751244Y-14002534D02*
X17741721Y-14012058D01*
X17951244Y-14126344D02*
X17932197Y-14116820D01*
X17932197Y-14116820D02*
X17922673Y-14107296D01*
X17922673Y-14107296D02*
X17913149Y-14088248D01*
X17913149Y-14088248D02*
X17913149Y-14031106D01*
X17913149Y-14031106D02*
X17922673Y-14012058D01*
X17922673Y-14012058D02*
X17932197Y-14002534D01*
X17932197Y-14002534D02*
X17951244Y-13993010D01*
X17951244Y-13993010D02*
X17979816Y-13993010D01*
X17979816Y-13993010D02*
X17998863Y-14002534D01*
X17998863Y-14002534D02*
X18008387Y-14012058D01*
X18008387Y-14012058D02*
X18017911Y-14031106D01*
X18017911Y-14031106D02*
X18017911Y-14088248D01*
X18017911Y-14088248D02*
X18008387Y-14107296D01*
X18008387Y-14107296D02*
X17998863Y-14116820D01*
X17998863Y-14116820D02*
X17979816Y-14126344D01*
X17979816Y-14126344D02*
X17951244Y-14126344D01*
X18132197Y-14126344D02*
X18113149Y-14116820D01*
X18113149Y-14116820D02*
X18103625Y-14097772D01*
X18103625Y-14097772D02*
X18103625Y-13926344D01*
X18284578Y-14116820D02*
X18265530Y-14126344D01*
X18265530Y-14126344D02*
X18227435Y-14126344D01*
X18227435Y-14126344D02*
X18208387Y-14116820D01*
X18208387Y-14116820D02*
X18198863Y-14097772D01*
X18198863Y-14097772D02*
X18198863Y-14021582D01*
X18198863Y-14021582D02*
X18208387Y-14002534D01*
X18208387Y-14002534D02*
X18227435Y-13993010D01*
X18227435Y-13993010D02*
X18265530Y-13993010D01*
X18265530Y-13993010D02*
X18284578Y-14002534D01*
X18284578Y-14002534D02*
X18294102Y-14021582D01*
X18294102Y-14021582D02*
X18294102Y-14040629D01*
X18294102Y-14040629D02*
X18198863Y-14059677D01*
X18360768Y-14202534D02*
X18370292Y-14193010D01*
X18370292Y-14193010D02*
X18389340Y-14164439D01*
X18389340Y-14164439D02*
X18398863Y-14145391D01*
X18398863Y-14145391D02*
X18408387Y-14116820D01*
X18408387Y-14116820D02*
X18417911Y-14069201D01*
X18417911Y-14069201D02*
X18417911Y-14031106D01*
X18417911Y-14031106D02*
X18408387Y-13983487D01*
X18408387Y-13983487D02*
X18398863Y-13954915D01*
X18398863Y-13954915D02*
X18389340Y-13935868D01*
X18389340Y-13935868D02*
X18370292Y-13907296D01*
X18370292Y-13907296D02*
X18360768Y-13897772D01*
M02*
