M48
; DRILL file {KiCad 9.0.0+1} date 2025-04-09T20:19:07+0200
; FORMAT={-:-/ absolute / metric / decimal}
; #@! TF.CreationDate,2025-04-09T20:19:07+02:00
; #@! TF.GenerationSoftware,Kicad,Pcbnew,9.0.0+1
; #@! TF.FileFunction,Plated,1,4,PTH
FMAT,2
METRIC
; #@! TA.AperFunction,Plated,PTH,ViaDrill
T1C0.200
; #@! TA.AperFunction,Plated,PTH,ViaDrill
T2C0.250
; #@! TA.AperFunction,Plated,PTH,ViaDrill
T3C0.300
; #@! TA.AperFunction,Plated,PTH,ComponentDrill
T4C3.500
%
G90
G05
T1
X152.05Y-93.0
X152.05Y-93.5
X152.55Y-92.5
X153.05Y-92.5
X153.55Y-95.0
X154.05Y-90.5
X154.05Y-91.5
X154.05Y-95.0
X154.05Y-96.0
X154.05Y-96.5
X154.05Y-97.0
X154.55Y-90.5
X154.55Y-91.0
X154.55Y-91.5
X154.55Y-93.0
X154.55Y-93.5
X154.55Y-94.0
X154.55Y-94.5
X154.55Y-96.5
X155.05Y-90.5
X155.05Y-91.0
X155.05Y-92.3
X155.05Y-96.0
X155.05Y-96.5
X155.55Y-90.5
X155.55Y-96.5
X156.05Y-91.0
X156.05Y-96.0
X156.05Y-96.5
T2
X138.0Y-97.2
X138.05Y-103.35
X138.15Y-105.3
X138.175Y-86.15
X138.35Y-109.9
X138.35Y-110.6
X138.35Y-111.3
X138.4Y-100.7
X138.4Y-101.3
X138.5Y-92.8
X138.5Y-93.7
X138.7Y-99.6
X138.8Y-102.8
X138.8Y-121.95
X138.85Y-95.45
X139.0Y-90.0
X139.0Y-100.7
X139.0Y-101.3
X139.137Y-117.225
X139.137Y-118.475
X139.15Y-122.45
X139.178Y-115.676
X139.2Y-105.2
X139.4Y-92.8
X139.4Y-93.7
X139.4Y-106.745
X139.425Y-120.474
X139.425Y-121.076
X139.5Y-121.85
X139.525Y-114.549
X139.525Y-115.151
X139.65Y-90.0
X140.0Y-101.3
X140.005Y-96.502
X140.3Y-90.0
X140.35Y-85.85
X140.35Y-86.9
X140.425Y-96.073
X140.6Y-102.1
X140.8Y-121.5
X140.8Y-122.7
X140.85Y-86.35
X140.9Y-87.2
X140.9Y-114.549
X140.9Y-115.151
X140.95Y-90.0
X141.0Y-98.0
X141.0Y-99.5
X141.1Y-104.5
X141.1Y-105.2
X141.1Y-122.1
X141.15Y-119.6
X141.3Y-100.8
X141.3Y-106.25
X141.4Y-121.5
X141.525Y-114.497
X141.7Y-104.3
X141.75Y-102.8
X141.75Y-115.375
X141.8Y-96.3
X142.0Y-121.5
X142.018Y-114.838
X142.2Y-88.0
X142.35Y-101.35
X142.375Y-104.4
X142.5Y-110.6
X142.7Y-91.65
X142.7Y-109.675
X142.838Y-86.034
X142.838Y-86.834
X143.0Y-93.55
X143.0Y-107.9
X143.0Y-108.5
X143.0Y-122.0
X143.15Y-111.4
X143.3Y-96.5
X143.5Y-94.9
X143.688Y-88.984
X143.7Y-110.8
X143.825Y-87.275
X143.85Y-96.5
X143.9Y-85.15
X144.025Y-107.15
X144.025Y-107.9
X144.1Y-111.7
X144.377Y-112.957
X144.4Y-114.525
X144.4Y-115.525
X144.538Y-89.334
X144.55Y-106.6
X144.6Y-104.7
X144.6Y-112.4
X144.65Y-97.3
X144.65Y-117.25
X144.7Y-111.8
X144.75Y-104.1
X144.758Y-113.421
X144.775Y-111.099
X144.8Y-105.95
X144.838Y-114.935
X145.2Y-103.2
X145.488Y-87.584
X145.5Y-99.0
X145.5Y-116.2
X145.5Y-118.55
X145.55Y-98.35
X145.588Y-90.734
X145.75Y-122.9
X145.852Y-104.728
X145.95Y-103.9
X146.075Y-118.8
X146.199Y-115.557
X146.2Y-102.0
X146.2Y-107.2
X146.2Y-107.9
X146.2Y-108.6
X146.2Y-109.2
X146.2Y-109.8
X146.2Y-110.4
X146.2Y-111.0
X146.2Y-112.55
X146.2Y-114.4
X146.25Y-84.55
X146.275Y-113.6
X146.35Y-89.25
X146.6Y-105.45
X146.75Y-92.75
X146.75Y-93.35
X146.75Y-93.95
X146.92Y-120.75
X147.05Y-119.15
X147.1Y-118.45
X147.2Y-107.1
X147.2Y-109.85
X147.25Y-122.9
X147.4Y-114.35
X147.648Y-115.542
X148.2Y-109.85
X148.5Y-86.3
X148.75Y-122.9
X149.3Y-109.85
X149.35Y-114.2
X149.5Y-101.7
X149.6Y-103.8
X150.05Y-110.25
X150.059Y-105.008
X150.25Y-122.9
X150.3Y-99.8
X150.501Y-103.9
X150.7Y-84.55
X150.75Y-107.1
X150.8Y-99.35
X150.9Y-111.1
X150.9Y-115.45
X151.25Y-98.8
X151.75Y-122.9
X151.85Y-87.05
X151.95Y-108.15
X152.15Y-99.0
X152.95Y-109.1
X153.0Y-99.9
X153.1Y-103.3
X153.25Y-111.0
X153.25Y-111.9
X153.25Y-122.9
X153.7Y-101.2
X153.8Y-98.9
X154.3Y-118.6
X154.35Y-100.45
X154.437Y-115.377
X154.525Y-108.7
X154.6Y-109.3
X154.6Y-110.05
X154.6Y-110.65
X154.6Y-111.299
X154.65Y-112.2
X154.7Y-113.2
X154.7Y-113.9
X154.75Y-122.9
X155.0Y-104.0
X155.3Y-105.85
X155.6Y-116.5
X155.85Y-106.4
X156.0Y-86.55
X156.0Y-103.6
X156.038Y-111.772
X156.05Y-109.9
X156.1Y-98.2
X156.1Y-112.375
X156.1Y-112.975
X156.1Y-114.15
X156.25Y-122.9
X156.4Y-102.2
X156.55Y-99.8
X156.65Y-106.05
X156.7Y-105.1
X156.7Y-113.2
X156.8Y-115.9
X156.961Y-107.376
X157.546Y-107.511
X157.6Y-101.2
X157.7Y-85.6
X157.7Y-115.7
X157.75Y-122.9
X157.8Y-104.0
X157.9Y-108.9
X157.9Y-111.3
X157.903Y-106.102
X157.95Y-113.25
X158.0Y-103.2
X158.05Y-119.6
X158.075Y-114.15
X158.1Y-107.8
X158.25Y-105.3
X158.25Y-115.3
X158.6Y-117.1
X158.7Y-107.7
X158.7Y-108.9
X158.7Y-116.2
X158.75Y-100.9
X158.75Y-118.4
X158.8Y-103.2
X158.8Y-112.3
X158.9Y-84.6
T3
X138.15Y-121.35
X141.179Y-117.879
T4
X148.501Y-84.004
M30
