G04 #@! TF.GenerationSoftware,KiCad,Pcbnew,9.0.0+1*
G04 #@! TF.CreationDate,2025-04-09T20:19:07+02:00*
G04 #@! TF.ProjectId,P4_M.2_B+M-key,50345f4d-2e32-45f4-922b-4d2d6b65792e,rev?*
G04 #@! TF.SameCoordinates,Original*
G04 #@! TF.FileFunction,Copper,L4,Bot*
G04 #@! TF.FilePolarity,Positive*
%FSLAX46Y46*%
G04 Gerber Fmt 4.6, Leading zero omitted, Abs format (unit mm)*
G04 Created by KiCad (PCBNEW 9.0.0+1) date 2025-04-09 20:19:07*
%MOMM*%
%LPD*%
G01*
G04 APERTURE LIST*
G04 #@! TA.AperFunction,ConnectorPad*
%ADD10R,0.350000X2.500000*%
G04 #@! TD*
G04 #@! TA.AperFunction,CastellatedPad*
%ADD11C,5.500000*%
G04 #@! TD*
G04 #@! TA.AperFunction,ConnectorPad*
%ADD12R,6.000000X2.000000*%
G04 #@! TD*
G04 #@! TA.AperFunction,ConnectorPad*
%ADD13C,6.000000*%
G04 #@! TD*
G04 #@! TA.AperFunction,SMDPad,CuDef*
%ADD14R,1.450000X0.600000*%
G04 #@! TD*
G04 #@! TA.AperFunction,SMDPad,CuDef*
%ADD15R,1.450000X0.300000*%
G04 #@! TD*
G04 #@! TA.AperFunction,HeatsinkPad*
%ADD16R,2.000000X2.180000*%
G04 #@! TD*
G04 #@! TA.AperFunction,ViaPad*
%ADD17C,0.450000*%
G04 #@! TD*
G04 #@! TA.AperFunction,ViaPad*
%ADD18C,0.350000*%
G04 #@! TD*
G04 #@! TA.AperFunction,ViaPad*
%ADD19C,0.600000*%
G04 #@! TD*
G04 #@! TA.AperFunction,Conductor*
%ADD20C,0.150000*%
G04 #@! TD*
G04 #@! TA.AperFunction,Conductor*
%ADD21C,0.800000*%
G04 #@! TD*
G04 #@! TA.AperFunction,Conductor*
%ADD22C,0.200000*%
G04 #@! TD*
G04 #@! TA.AperFunction,Conductor*
%ADD23C,0.179578*%
G04 #@! TD*
G04 APERTURE END LIST*
D10*
G04 #@! TO.P,U4,2*
G04 #@! TO.N,/I2S_DATA*
X157501100Y-124753600D03*
G04 #@! TO.P,U4,4*
G04 #@! TO.N,/I2S_LRCK*
X157001100Y-124753600D03*
G04 #@! TO.P,U4,6*
G04 #@! TO.N,/I2S_MCLK*
X156501100Y-124753600D03*
G04 #@! TO.P,U4,8*
G04 #@! TO.N,/I2S_SCLK*
X156001100Y-124753600D03*
G04 #@! TO.P,U4,10*
G04 #@! TO.N,/SD2_DATA0*
X155501100Y-124753600D03*
G04 #@! TO.P,U4,12*
G04 #@! TO.N,/SD2_DATA1*
X155001100Y-124753600D03*
G04 #@! TO.P,U4,14*
G04 #@! TO.N,/SD2_DATA2*
X154501100Y-124753600D03*
G04 #@! TO.P,U4,16*
G04 #@! TO.N,/SD2_DATA3*
X154001100Y-124753600D03*
G04 #@! TO.P,U4,18*
G04 #@! TO.N,/SD2_CLK*
X153501100Y-124753600D03*
G04 #@! TO.P,U4,20*
G04 #@! TO.N,/SD2_CMD*
X153001100Y-124753600D03*
G04 #@! TO.P,U4,22*
G04 #@! TO.N,/GPIO2*
X152501100Y-124753600D03*
G04 #@! TO.P,U4,24*
G04 #@! TO.N,/GPIO4*
X152001100Y-124753600D03*
G04 #@! TO.P,U4,26*
G04 #@! TO.N,/GPIO6*
X151501100Y-124753600D03*
G04 #@! TO.P,U4,28*
G04 #@! TO.N,/GPIO8*
X151001100Y-124753600D03*
G04 #@! TO.P,U4,30*
G04 #@! TO.N,/GPIO10*
X150501100Y-124753600D03*
G04 #@! TO.P,U4,32*
G04 #@! TO.N,/GPIO12*
X150001100Y-124753600D03*
G04 #@! TO.P,U4,34*
G04 #@! TO.N,/GPIO13*
X149501100Y-124753600D03*
G04 #@! TO.P,U4,36*
G04 #@! TO.N,/GPIO14*
X149001100Y-124753600D03*
G04 #@! TO.P,U4,38*
G04 #@! TO.N,/GPIO15*
X148501100Y-124753600D03*
G04 #@! TO.P,U4,40*
G04 #@! TO.N,/GPIO16*
X148001100Y-124753600D03*
G04 #@! TO.P,U4,42*
G04 #@! TO.N,/GPIO17*
X147501100Y-124753600D03*
G04 #@! TO.P,U4,44*
G04 #@! TO.N,/GPIO19*
X147001100Y-124753600D03*
G04 #@! TO.P,U4,46*
G04 #@! TO.N,/GPIO18*
X146501100Y-124753600D03*
G04 #@! TO.P,U4,48*
G04 #@! TO.N,/GPIO20*
X146001100Y-124753600D03*
G04 #@! TO.P,U4,50*
G04 #@! TO.N,/GPIO22*
X145501100Y-124753600D03*
G04 #@! TO.P,U4,52*
G04 #@! TO.N,/GPIO9*
X145001100Y-124753600D03*
G04 #@! TO.P,U4,54*
G04 #@! TO.N,/GPIO7*
X144501100Y-124753600D03*
G04 #@! TO.P,U4,56*
G04 #@! TO.N,/GPIO5*
X144001100Y-124753600D03*
G04 #@! TO.P,U4,58*
G04 #@! TO.N,/GPIO3*
X143501100Y-124753600D03*
G04 #@! TO.P,U4,68*
G04 #@! TO.N,/3.3V*
X141001100Y-124753600D03*
G04 #@! TO.P,U4,70*
X140501100Y-124753600D03*
G04 #@! TO.P,U4,72*
X140001100Y-124753600D03*
G04 #@! TO.P,U4,74*
X139501100Y-124753600D03*
D11*
G04 #@! TO.P,U4,MP,screw*
G04 #@! TO.N,GND*
X148501100Y-84003600D03*
D12*
X148501100Y-84003600D03*
D13*
X148501100Y-85003600D03*
G04 #@! TD*
D14*
G04 #@! TO.P,J2,A1,GND*
G04 #@! TO.N,GND*
X143450000Y-106350000D03*
G04 #@! TO.P,J2,A4,VBUS*
G04 #@! TO.N,Net-(D2-A)*
X143450000Y-105550000D03*
D15*
G04 #@! TO.P,J2,A5,CC1*
G04 #@! TO.N,Net-(J2-CC1)*
X143450000Y-104350000D03*
G04 #@! TO.P,J2,A6,D+*
G04 #@! TO.N,/USBJTAG_D+*
X143450000Y-103350000D03*
G04 #@! TO.P,J2,A7,D-*
G04 #@! TO.N,/USBJTAG_D-*
X143450000Y-102850000D03*
G04 #@! TO.P,J2,A8,SBU1*
G04 #@! TO.N,unconnected-(J2-SBU1-PadA8)*
X143450000Y-101850000D03*
D14*
G04 #@! TO.P,J2,A9,VBUS*
G04 #@! TO.N,Net-(D2-A)*
X143450000Y-100650000D03*
G04 #@! TO.P,J2,A12,GND*
G04 #@! TO.N,GND*
X143450000Y-99850000D03*
G04 #@! TO.P,J2,B1,GND*
X143450000Y-99850000D03*
G04 #@! TO.P,J2,B4,VBUS*
G04 #@! TO.N,Net-(D2-A)*
X143450000Y-100650000D03*
D15*
G04 #@! TO.P,J2,B5,CC2*
G04 #@! TO.N,Net-(J2-CC2)*
X143450000Y-101350000D03*
G04 #@! TO.P,J2,B6,D+*
G04 #@! TO.N,/USBJTAG_D+*
X143450000Y-102350000D03*
G04 #@! TO.P,J2,B7,D-*
G04 #@! TO.N,/USBJTAG_D-*
X143450000Y-103850000D03*
G04 #@! TO.P,J2,B8,SBU2*
G04 #@! TO.N,unconnected-(J2-SBU2-PadB8)*
X143450000Y-104850000D03*
D14*
G04 #@! TO.P,J2,B9,VBUS*
G04 #@! TO.N,Net-(D2-A)*
X143450000Y-105550000D03*
G04 #@! TO.P,J2,B12,GND*
G04 #@! TO.N,GND*
X143450000Y-106350000D03*
D16*
G04 #@! TO.P,J2,S1,SHIELD*
X138720000Y-108210000D03*
X142650000Y-108210000D03*
X138720000Y-97990000D03*
X142650000Y-97990000D03*
G04 #@! TD*
D17*
G04 #@! TO.N,/3.3V*
X156700000Y-113200000D03*
X146200000Y-114400000D03*
X154436801Y-115376801D03*
X147200000Y-107100000D03*
D18*
X152050000Y-93000000D03*
D17*
X155600000Y-116500000D03*
X154600000Y-110650003D03*
D18*
X154550000Y-94500000D03*
X154050000Y-95000000D03*
D17*
X142000000Y-121500000D03*
X156650000Y-106050000D03*
X140950000Y-90000000D03*
X156100000Y-112374997D03*
X146200000Y-109800000D03*
X144750000Y-104100000D03*
D18*
X152550000Y-92500000D03*
D17*
X143900000Y-85150000D03*
X139650000Y-90000000D03*
X141400000Y-121500000D03*
X140300000Y-90000000D03*
X156961297Y-107376000D03*
X158750000Y-100900000D03*
X140800000Y-122700000D03*
X158800000Y-112300000D03*
X142700000Y-91650000D03*
X141100000Y-122100000D03*
X140800000Y-121500000D03*
X139000000Y-90000000D03*
G04 #@! TO.N,/EN_ESP*
X145851693Y-104727563D03*
X144600000Y-104700000D03*
G04 #@! TO.N,/1.2V*
X142018378Y-114838366D03*
X146750000Y-93350000D03*
X146750000Y-92750000D03*
X140004896Y-96501548D03*
X143000000Y-93550000D03*
X146750000Y-93950000D03*
X158250000Y-105300000D03*
X150750000Y-107100000D03*
G04 #@! TO.N,/GPIO35*
X144025002Y-107150000D03*
X141100000Y-104500000D03*
X154600000Y-111299000D03*
G04 #@! TO.N,/VFLASH*
X156050000Y-109900000D03*
X145500000Y-118550000D03*
X144400000Y-115525000D03*
G04 #@! TO.N,/VMIPI*
X158750000Y-118400000D03*
X150900000Y-115450000D03*
X154525002Y-108700000D03*
G04 #@! TO.N,/V{slash}SDMMC*
X157800000Y-104000000D03*
D18*
X155550000Y-90500000D03*
X156050000Y-96000000D03*
X154550000Y-90500000D03*
D17*
X158100000Y-107800000D03*
D18*
X154050000Y-96000000D03*
D17*
X157600000Y-101200000D03*
D18*
X155050000Y-91000000D03*
D17*
X157700000Y-85600000D03*
G04 #@! TO.N,Net-(U2A-GPIO0)*
X145500000Y-99000000D03*
X145200000Y-103200000D03*
G04 #@! TO.N,/RTC*
X146600000Y-105450000D03*
X144025002Y-107900000D03*
X143000000Y-122000000D03*
G04 #@! TO.N,GND*
X143688100Y-88983600D03*
X141750000Y-102800000D03*
D18*
X153550000Y-95000000D03*
D17*
X138350000Y-110600000D03*
X158050000Y-119600000D03*
X150501000Y-103900000D03*
X144538100Y-89333600D03*
X148750000Y-122900000D03*
D18*
X154050000Y-97000000D03*
D17*
X138150000Y-105300000D03*
X151950000Y-108150000D03*
X156800000Y-115900000D03*
X146200000Y-102000000D03*
D18*
X152050000Y-93500000D03*
D17*
X158900000Y-84600000D03*
X158800000Y-103200000D03*
X139400000Y-92800000D03*
D18*
X153050000Y-92500000D03*
D17*
X157950000Y-113250000D03*
X149300000Y-109850000D03*
X144650000Y-117250000D03*
X153100000Y-103300000D03*
X145750000Y-122900000D03*
D18*
X154550000Y-93000000D03*
D17*
X149500000Y-101700000D03*
X138175000Y-86150000D03*
X154300000Y-118600000D03*
X138500000Y-93700000D03*
X157902898Y-106101999D03*
X151850000Y-87050000D03*
X158700000Y-108900000D03*
X141800000Y-96300000D03*
X142838100Y-86033600D03*
X147200000Y-109850000D03*
X146250000Y-84550000D03*
D18*
X154050000Y-90500000D03*
D17*
X157546009Y-107510590D03*
X144650000Y-97300000D03*
X153250000Y-111000000D03*
D18*
X155050000Y-96000000D03*
X154550000Y-91000000D03*
D17*
X157750000Y-122900000D03*
X138350000Y-109900000D03*
X152950000Y-109100000D03*
X143825000Y-87275000D03*
D19*
X141178750Y-117878750D03*
D17*
X141150000Y-119600000D03*
X150700000Y-84550000D03*
X153250000Y-111900000D03*
X149350000Y-114200000D03*
X149600000Y-103800000D03*
X141000000Y-99500000D03*
X147100000Y-118450000D03*
X145588100Y-90733600D03*
X157900000Y-108900000D03*
X150250000Y-122900000D03*
X150050000Y-110250000D03*
X141000000Y-98000000D03*
X142838100Y-86833600D03*
D18*
X155050000Y-90500000D03*
D17*
X154750000Y-122900000D03*
X147400000Y-114350000D03*
X139400000Y-93700000D03*
X138000000Y-97200000D03*
X138350000Y-111300000D03*
X138500000Y-92800000D03*
D18*
X156050000Y-91000000D03*
D17*
X145950000Y-103900000D03*
X156250000Y-122900000D03*
X146920000Y-120750000D03*
X143000000Y-108500000D03*
X148200000Y-109850000D03*
X148500000Y-86300000D03*
X158000000Y-103200000D03*
X147250000Y-122900000D03*
X150900000Y-111100000D03*
X153250000Y-122900000D03*
X158700000Y-107700000D03*
X143000000Y-107900000D03*
D18*
X154550000Y-94000000D03*
D17*
X151750000Y-122900000D03*
X157900000Y-111300000D03*
G04 #@! TO.N,Net-(IC2-SW)*
X143500000Y-94900000D03*
X138850000Y-95450000D03*
G04 #@! TO.N,/USB5V*
X140850000Y-86350000D03*
X143300000Y-96500000D03*
X139150000Y-122450000D03*
X138050000Y-103350000D03*
X140350000Y-85850000D03*
D19*
X138150000Y-121350000D03*
D17*
X139500000Y-121850000D03*
X140350000Y-86900000D03*
X138400000Y-100700000D03*
X145488100Y-87583600D03*
X143850000Y-96500000D03*
X141300000Y-106250000D03*
X138400000Y-101300000D03*
X140900000Y-87200000D03*
X139000000Y-101300000D03*
X139000000Y-100700000D03*
X138800000Y-121950000D03*
G04 #@! TO.N,Net-(IC4-SW)*
X142200000Y-88000000D03*
X146350000Y-89250000D03*
G04 #@! TO.N,/USBJTAG_D+*
X139425000Y-120473800D03*
X140900000Y-115151200D03*
X139525000Y-115151200D03*
G04 #@! TO.N,/USBJTAG_D-*
X139425000Y-121076200D03*
X140900000Y-114548800D03*
X139525000Y-114548800D03*
G04 #@! TO.N,/FLASH_CS*
X145500000Y-116200000D03*
X141750000Y-115375000D03*
X139177673Y-115676131D03*
G04 #@! TO.N,/FLASH_Q*
X139137498Y-117225000D03*
X146199140Y-115556944D03*
G04 #@! TO.N,/FLASH_HOLD*
X147050000Y-119150000D03*
X147647895Y-115541679D03*
G04 #@! TO.N,/FLASH_WP*
X139137498Y-118475000D03*
X146075000Y-118800000D03*
G04 #@! TO.N,/EN_DCDC*
X155300000Y-105850000D03*
X140425220Y-96073376D03*
G04 #@! TO.N,/DTR*
X140000000Y-101300000D03*
X141525000Y-114496928D03*
G04 #@! TO.N,/RTS*
X141100000Y-105200000D03*
X142700000Y-109675002D03*
X139200000Y-105200000D03*
G04 #@! TO.N,/GPIO37*
X144550002Y-106600000D03*
X158075000Y-114150000D03*
X139400000Y-106744998D03*
X154600000Y-110050000D03*
G04 #@! TO.N,/GPIO38*
X144800000Y-105950000D03*
X154600000Y-109300000D03*
X156700000Y-105100000D03*
G04 #@! TO.N,/SD_DATA1*
X155000000Y-104000000D03*
X156000000Y-103600000D03*
G04 #@! TO.N,/SD_DATA2*
X154350000Y-100450000D03*
X156550000Y-99800000D03*
D18*
G04 #@! TO.N,/SD_DATA3*
X156050000Y-96500000D03*
D17*
X153800000Y-98900000D03*
G04 #@! TO.N,/SD_DATA4*
X152150000Y-99000000D03*
D18*
X155550000Y-96500000D03*
D17*
G04 #@! TO.N,/SD_DATA5*
X151250000Y-98800000D03*
D18*
X155050000Y-96500000D03*
D17*
G04 #@! TO.N,/SD_DATA6*
X150800000Y-99350000D03*
D18*
X154550000Y-96500000D03*
G04 #@! TO.N,/SD_DATA7*
X154050000Y-96500000D03*
D17*
X150300000Y-99800000D03*
G04 #@! TO.N,Net-(U3A-CLK)*
X153700000Y-101200000D03*
D18*
X154050000Y-91500000D03*
D17*
G04 #@! TO.N,/SD_CMD*
X153000000Y-99900000D03*
D18*
X154550000Y-91500000D03*
D17*
X156000000Y-86550000D03*
G04 #@! TO.N,/REST_N*
X156400000Y-102200000D03*
D18*
X155050000Y-92300000D03*
D17*
X150059066Y-105008153D03*
D18*
G04 #@! TO.N,Net-(U3A-DS)*
X154550000Y-93500000D03*
D17*
X156100000Y-98200000D03*
G04 #@! TO.N,/GPIO22*
X144837724Y-114935367D03*
G04 #@! TO.N,/I2S_LRCK*
X158700000Y-116200000D03*
G04 #@! TO.N,/GPIO19*
X146274998Y-113600000D03*
G04 #@! TO.N,/GPIO20*
X144400000Y-114525000D03*
G04 #@! TO.N,/GPIO2*
X146200000Y-107200000D03*
G04 #@! TO.N,/GPIO12*
X146200000Y-111000003D03*
G04 #@! TO.N,/GPIO9*
X144100000Y-111700000D03*
G04 #@! TO.N,/GPIO4*
X146200000Y-107900000D03*
G04 #@! TO.N,/GPIO16*
X146200000Y-112550000D03*
G04 #@! TO.N,/GPIO8*
X146200000Y-109200003D03*
G04 #@! TO.N,/I2S_DATA*
X158600000Y-117100000D03*
G04 #@! TO.N,/GPIO3*
X142500000Y-110600000D03*
G04 #@! TO.N,/GPIO6*
X146200000Y-108600000D03*
G04 #@! TO.N,/GPIO7*
X143700000Y-110800000D03*
G04 #@! TO.N,/GPIO14*
X144700000Y-111800000D03*
G04 #@! TO.N,/GPIO13*
X144775397Y-111098866D03*
G04 #@! TO.N,/GPIO5*
X143150000Y-111400000D03*
G04 #@! TO.N,/GPIO15*
X144600000Y-112400000D03*
G04 #@! TO.N,/GPIO18*
X144757773Y-113420918D03*
G04 #@! TO.N,/I2S_MCLK*
X158250000Y-115300000D03*
G04 #@! TO.N,/GPIO17*
X144377165Y-112957088D03*
G04 #@! TO.N,/GPIO10*
X146200000Y-110400000D03*
G04 #@! TO.N,/I2S_SCLK*
X157700000Y-115700000D03*
G04 #@! TO.N,Net-(D2-A)*
X141700000Y-104300000D03*
X138700000Y-99600000D03*
X141300000Y-100800000D03*
G04 #@! TO.N,Net-(J2-CC1)*
X142375000Y-104400000D03*
G04 #@! TO.N,Net-(J2-CC2)*
X142350000Y-101350000D03*
G04 #@! TO.N,Net-(Q2A-B1)*
X140600000Y-102100000D03*
X138800000Y-102800000D03*
G04 #@! TO.N,/SD2_DATA1*
X156100000Y-112975000D03*
G04 #@! TO.N,/SD2_DATA2*
X154700000Y-113200000D03*
G04 #@! TO.N,/SD2_CLK*
X154650000Y-112200000D03*
G04 #@! TO.N,/SD2_CMD*
X156038382Y-111772027D03*
G04 #@! TO.N,/SD2_DATA0*
X156100000Y-114150000D03*
G04 #@! TO.N,/SD2_DATA3*
X154700000Y-113900000D03*
G04 #@! TO.N,Net-(U2A-FB_DCDC)*
X155850000Y-106400000D03*
X145550000Y-98350000D03*
G04 #@! TD*
D20*
G04 #@! TO.N,/3.3V*
X142650000Y-85150000D02*
X143900000Y-85150000D01*
X142700000Y-91650000D02*
X141550000Y-90500000D01*
X141550000Y-90500000D02*
X141550000Y-86250000D01*
X141550000Y-86250000D02*
X142650000Y-85150000D01*
G04 #@! TO.N,/EN_ESP*
X145851693Y-104727563D02*
X145027563Y-104727563D01*
X144600000Y-104700000D02*
X145000000Y-104700000D01*
X145000000Y-104700000D02*
X145027563Y-104727563D01*
G04 #@! TO.N,/1.2V*
X138250000Y-95250000D02*
X139350000Y-94150000D01*
X139350000Y-94150000D02*
X142400000Y-94150000D01*
X140004896Y-96501548D02*
X138751548Y-96501548D01*
X138250000Y-96000000D02*
X138751548Y-96501548D01*
X138250000Y-96000000D02*
X138250000Y-95250000D01*
X142400000Y-94150000D02*
X143000000Y-93550000D01*
G04 #@! TO.N,/GPIO35*
X149901000Y-106751000D02*
X150250000Y-107100000D01*
X147407107Y-106600000D02*
X147558107Y-106751000D01*
X146992893Y-106600000D02*
X147407107Y-106600000D01*
X150250000Y-107100000D02*
X150250000Y-107307107D01*
X150542893Y-107600000D02*
X150750000Y-107600000D01*
X150750000Y-107600000D02*
X154449000Y-111299000D01*
X146843893Y-106749000D02*
X146992893Y-106600000D01*
X145150000Y-107150000D02*
X145551000Y-106749000D01*
X147558107Y-106751000D02*
X149901000Y-106751000D01*
X154449000Y-111299000D02*
X154600000Y-111299000D01*
X145150000Y-107150000D02*
X144025002Y-107150000D01*
X150250000Y-107307107D02*
X150542893Y-107600000D01*
X145551000Y-106749000D02*
X146843893Y-106749000D01*
G04 #@! TO.N,/VMIPI*
X156750000Y-108550000D02*
X154600000Y-108550000D01*
X158525000Y-112875000D02*
X158125000Y-112475000D01*
X158575000Y-110375000D02*
X156750000Y-108550000D01*
X159150000Y-115250000D02*
X158525000Y-114625000D01*
X158750000Y-118400000D02*
X159150000Y-118000000D01*
X158575000Y-111575000D02*
X158575000Y-110375000D01*
X158125000Y-112025000D02*
X158575000Y-111575000D01*
X158525000Y-114625000D02*
X158525000Y-112875000D01*
X154525002Y-108624998D02*
X154525002Y-108700000D01*
X154600000Y-108550000D02*
X154525002Y-108624998D01*
X158125000Y-112475000D02*
X158125000Y-112025000D01*
X159150000Y-118000000D02*
X159150000Y-115250000D01*
G04 #@! TO.N,/V{slash}SDMMC*
X158750000Y-105507107D02*
X158750000Y-104950000D01*
X158100000Y-107500000D02*
X158500000Y-107100000D01*
X158500000Y-105757107D02*
X158750000Y-105507107D01*
X158750000Y-104950000D02*
X157800000Y-104000000D01*
X158100000Y-107800000D02*
X158100000Y-107500000D01*
X158500000Y-107100000D02*
X158500000Y-105757107D01*
G04 #@! TO.N,Net-(U2A-GPIO0)*
X145200000Y-103200000D02*
X145200000Y-99800000D01*
X145200000Y-99300000D02*
X145500000Y-99000000D01*
X145200000Y-99800000D02*
X145200000Y-99300000D01*
G04 #@! TO.N,/RTC*
X142500000Y-114600000D02*
X142500000Y-115400000D01*
X141800000Y-113900000D02*
X142000000Y-114100000D01*
X142051000Y-110149000D02*
X141800000Y-110400000D01*
X143253000Y-110149000D02*
X142051000Y-110149000D01*
X142800000Y-119000000D02*
X142800000Y-121300000D01*
X144025002Y-107900000D02*
X144025002Y-109376998D01*
X142800000Y-121300000D02*
X142800000Y-121800000D01*
X144025002Y-109376998D02*
X143253000Y-110149000D01*
X142500000Y-115400000D02*
X142500000Y-118700000D01*
X142500000Y-118700000D02*
X142800000Y-119000000D01*
X141800000Y-113700000D02*
X141800000Y-113900000D01*
X141800000Y-110400000D02*
X141800000Y-113700000D01*
X142000000Y-114100000D02*
X142500000Y-114600000D01*
X142800000Y-121800000D02*
X143000000Y-122000000D01*
G04 #@! TO.N,GND*
X138720000Y-108210000D02*
X138720000Y-106980000D01*
D21*
X138150000Y-105300000D02*
X138150000Y-106661725D01*
X138200000Y-111300000D02*
X138200000Y-108730000D01*
X138200000Y-108730000D02*
X138720000Y-108210000D01*
X138720000Y-107231725D02*
X138720000Y-108210000D01*
D20*
X142650000Y-97990000D02*
X143960000Y-97990000D01*
D22*
X143450000Y-106350000D02*
X143450000Y-107410000D01*
X143100000Y-99500000D02*
X141000000Y-99500000D01*
X143450000Y-107410000D02*
X142650000Y-108210000D01*
D21*
X138150000Y-106661725D02*
X138720000Y-107231725D01*
D22*
X143450000Y-99850000D02*
X143100000Y-99500000D01*
D20*
X143960000Y-97990000D02*
X144650000Y-97300000D01*
G04 #@! TO.N,Net-(IC2-SW)*
X138850000Y-95450000D02*
X142950000Y-95450000D01*
X142950000Y-95450000D02*
X143500000Y-94900000D01*
G04 #@! TO.N,Net-(IC4-SW)*
X145100000Y-88000000D02*
X146350000Y-89250000D01*
X142200000Y-88000000D02*
X145100000Y-88000000D01*
D23*
G04 #@! TO.N,/USBJTAG_D+*
X138718755Y-120609011D02*
X139289789Y-120609011D01*
D20*
X142450000Y-102350000D02*
X142350000Y-102450000D01*
D23*
X138465989Y-115468755D02*
X138465989Y-120356245D01*
X143450000Y-103350000D02*
X142362499Y-103350000D01*
X140059011Y-104106245D02*
X140059011Y-114493755D01*
X140581245Y-115015989D02*
X140764789Y-115015989D01*
X140731245Y-103434011D02*
X140059011Y-104106245D01*
D20*
X142350000Y-102450000D02*
X142350000Y-103337501D01*
D23*
X139289789Y-120609011D02*
X139425000Y-120473800D01*
D20*
X143450000Y-102350000D02*
X142450000Y-102350000D01*
D23*
X140059011Y-114493755D02*
X140581245Y-115015989D01*
X139389789Y-115015989D02*
X138918755Y-115015989D01*
X140764789Y-115015989D02*
X140900000Y-115151200D01*
X138465989Y-120356245D02*
X138718755Y-120609011D01*
D20*
X142350000Y-103337501D02*
X142362499Y-103350000D01*
D23*
X139525000Y-115151200D02*
X139389789Y-115015989D01*
X142278488Y-103434011D02*
X140731245Y-103434011D01*
X138918755Y-115015989D02*
X138465989Y-115468755D01*
X142362499Y-103350000D02*
X142278488Y-103434011D01*
G04 #@! TO.N,/USBJTAG_D-*
X138581245Y-120940989D02*
X139289789Y-120940989D01*
X142278488Y-103765989D02*
X140868755Y-103765989D01*
X138134011Y-115331245D02*
X138134011Y-120493755D01*
D20*
X144300000Y-103850000D02*
X143450000Y-103850000D01*
D23*
X139389789Y-114684011D02*
X138781245Y-114684011D01*
D20*
X143450000Y-102850000D02*
X144350000Y-102850000D01*
X144450000Y-103700000D02*
X144300000Y-103850000D01*
D23*
X140718755Y-114684011D02*
X140764789Y-114684011D01*
X140390989Y-114356245D02*
X140718755Y-114684011D01*
X139289789Y-120940989D02*
X139425000Y-121076200D01*
D20*
X144350000Y-102850000D02*
X144450000Y-102950000D01*
X144450000Y-102950000D02*
X144450000Y-103700000D01*
D23*
X140764789Y-114684011D02*
X140900000Y-114548800D01*
X143450000Y-103850000D02*
X142362499Y-103850000D01*
X140868755Y-103765989D02*
X140390989Y-104243755D01*
X142362499Y-103850000D02*
X142278488Y-103765989D01*
X139525000Y-114548800D02*
X139389789Y-114684011D01*
X140390989Y-104243755D02*
X140390989Y-114356245D01*
X138781245Y-114684011D02*
X138134011Y-115331245D01*
X138134011Y-120493755D02*
X138581245Y-120940989D01*
D20*
G04 #@! TO.N,/FLASH_CS*
X141448869Y-115676131D02*
X141750000Y-115375000D01*
X139177673Y-115676131D02*
X141448869Y-115676131D01*
G04 #@! TO.N,/FLASH_HOLD*
X147318905Y-118868905D02*
X147050000Y-119137810D01*
X147318905Y-118868905D02*
X147223313Y-118964498D01*
X147338582Y-115850992D02*
X147647895Y-115541679D01*
X147338582Y-116250000D02*
X147338582Y-117511418D01*
X147551000Y-118636811D02*
X147318905Y-118868905D01*
X147551000Y-117723836D02*
X147551000Y-118636811D01*
X147050000Y-119137810D02*
X147050000Y-119150000D01*
X147338582Y-117511418D02*
X147551000Y-117723836D01*
X147338582Y-116250000D02*
X147338582Y-115850992D01*
G04 #@! TO.N,/EN_DCDC*
X145249000Y-95849000D02*
X140601000Y-95849000D01*
X155300000Y-105850000D02*
X154950000Y-105500000D01*
X148800000Y-105500000D02*
X147950000Y-104650000D01*
X140601000Y-95849000D02*
X140400000Y-96050000D01*
X154950000Y-105500000D02*
X148800000Y-105500000D01*
X147950000Y-98550000D02*
X145249000Y-95849000D01*
X147950000Y-104650000D02*
X147950000Y-98550000D01*
G04 #@! TO.N,/RTS*
X141207161Y-107463017D02*
X141207161Y-107202239D01*
X141200000Y-109500000D02*
X141200000Y-107470178D01*
X140850000Y-106437811D02*
X140850000Y-105450000D01*
X141200000Y-107195078D02*
X141200000Y-106787811D01*
X142700000Y-109675002D02*
X141375002Y-109675002D01*
X141200000Y-107470178D02*
X141207161Y-107463017D01*
X141375002Y-109675002D02*
X141200000Y-109500000D01*
X141200000Y-106787811D02*
X140850000Y-106437811D01*
X140850000Y-105450000D02*
X141100000Y-105200000D01*
X141207161Y-107202239D02*
X141200000Y-107195078D01*
G04 #@! TO.N,/GPIO37*
X144701002Y-106449000D02*
X144550002Y-106600000D01*
X154600000Y-110050000D02*
X153850000Y-110050000D01*
X157300000Y-113825000D02*
X157600000Y-114125000D01*
X147681371Y-106450000D02*
X147531371Y-106300000D01*
X147531371Y-106300000D02*
X146868629Y-106300000D01*
X157300000Y-112100000D02*
X157300000Y-113200000D01*
X158050000Y-114125000D02*
X158075000Y-114150000D01*
X157300000Y-113200000D02*
X157300000Y-113825000D01*
X153850000Y-110050000D02*
X153575000Y-109775000D01*
X153575000Y-109025000D02*
X151000000Y-106450000D01*
X156200000Y-111000000D02*
X157300000Y-112100000D01*
X144701002Y-106449000D02*
X146719629Y-106449000D01*
X146868629Y-106300000D02*
X146719629Y-106449000D01*
X157600000Y-114125000D02*
X158050000Y-114125000D01*
X151000000Y-106450000D02*
X147681371Y-106450000D01*
X155250000Y-110050000D02*
X156200000Y-111000000D01*
X154600000Y-110050000D02*
X155250000Y-110050000D01*
X153575000Y-109775000D02*
X153575000Y-109025000D01*
G04 #@! TO.N,/GPIO38*
X147805635Y-106150000D02*
X147655635Y-106000000D01*
X146744365Y-106000000D02*
X146595365Y-106149000D01*
X152151000Y-106851000D02*
X152050000Y-106750000D01*
X156486811Y-106851000D02*
X152151000Y-106851000D01*
X154000000Y-108700000D02*
X152050000Y-106750000D01*
X156700000Y-105100000D02*
X157101000Y-105501000D01*
X157101000Y-106236811D02*
X156486811Y-106851000D01*
X157101000Y-105501000D02*
X157101000Y-106236811D01*
X147655635Y-106000000D02*
X146744365Y-106000000D01*
X144999000Y-106149000D02*
X144800000Y-105950000D01*
X146595365Y-106149000D02*
X144999000Y-106149000D01*
X154000000Y-109150000D02*
X154000000Y-108700000D01*
X152050000Y-106750000D02*
X151450000Y-106150000D01*
X154150000Y-109300000D02*
X154000000Y-109150000D01*
X151450000Y-106150000D02*
X147805635Y-106150000D01*
X154600000Y-109300000D02*
X154150000Y-109300000D01*
G04 #@! TO.N,/SD_DATA1*
X156000000Y-103600000D02*
X155400000Y-103600000D01*
X155400000Y-103600000D02*
X155000000Y-104000000D01*
G04 #@! TO.N,/SD_DATA2*
X155900000Y-100450000D02*
X156550000Y-99800000D01*
X154350000Y-100450000D02*
X155900000Y-100450000D01*
G04 #@! TO.N,/SD_DATA3*
X156050000Y-96500000D02*
X156050000Y-97550000D01*
X154700000Y-98900000D02*
X156050000Y-97550000D01*
X154700000Y-98900000D02*
X153800000Y-98900000D01*
G04 #@! TO.N,/SD_DATA4*
X152750000Y-98400000D02*
X154600000Y-98400000D01*
X152150000Y-99000000D02*
X152750000Y-98400000D01*
X155550000Y-96500000D02*
X155550000Y-97450000D01*
X154600000Y-98400000D02*
X155550000Y-97450000D01*
G04 #@! TO.N,/SD_DATA5*
X154500000Y-97900000D02*
X155050000Y-97350000D01*
X151250000Y-98800000D02*
X151250000Y-98650000D01*
X151250000Y-98650000D02*
X152000000Y-97900000D01*
X155050000Y-96500000D02*
X155050000Y-97350000D01*
X154500000Y-97900000D02*
X152000000Y-97900000D01*
G04 #@! TO.N,/SD_DATA6*
X150800000Y-98300000D02*
X151651000Y-97449000D01*
X154351000Y-97449000D02*
X154550000Y-97250000D01*
X150800000Y-99350000D02*
X150800000Y-98300000D01*
X151651000Y-97449000D02*
X154351000Y-97449000D01*
X154550000Y-97250000D02*
X154550000Y-96500000D01*
G04 #@! TO.N,/SD_DATA7*
X151800000Y-96500000D02*
X154050000Y-96500000D01*
X150300000Y-99800000D02*
X150300000Y-98000000D01*
X150300000Y-98000000D02*
X151800000Y-96500000D01*
G04 #@! TO.N,Net-(U3A-CLK)*
X149500000Y-100300000D02*
X149500000Y-93900000D01*
X150400000Y-101200000D02*
X149500000Y-100300000D01*
X153700000Y-101200000D02*
X150400000Y-101200000D01*
X151900000Y-91500000D02*
X154050000Y-91500000D01*
X149500000Y-93900000D02*
X151900000Y-91500000D01*
G04 #@! TO.N,/SD_CMD*
X156450000Y-91500000D02*
X156900000Y-91050000D01*
X155876257Y-93073743D02*
X155323743Y-93073743D01*
X154550000Y-92432900D02*
X154550000Y-91500000D01*
X156900000Y-98100000D02*
X156900000Y-94097487D01*
X154550000Y-91500000D02*
X156450000Y-91500000D01*
X156900000Y-87450000D02*
X156000000Y-86550000D01*
X155323743Y-93073743D02*
X155000000Y-92750000D01*
X155000000Y-92750000D02*
X154867100Y-92750000D01*
X156900000Y-91050000D02*
X156900000Y-87450000D01*
X153000000Y-99900000D02*
X155100000Y-99900000D01*
X156900000Y-94097487D02*
X155876257Y-93073743D01*
X155100000Y-99900000D02*
X156900000Y-98100000D01*
X154867100Y-92750000D02*
X154550000Y-92432900D01*
G04 #@! TO.N,/REST_N*
X153191847Y-105008153D02*
X156000000Y-102200000D01*
X156400000Y-102200000D02*
X156000000Y-102200000D01*
X157500000Y-100200000D02*
X157500000Y-93200000D01*
X156400000Y-102200000D02*
X156400000Y-101300000D01*
X150059066Y-105008153D02*
X153191847Y-105008153D01*
X156600000Y-92300000D02*
X157500000Y-93200000D01*
X156400000Y-101300000D02*
X157500000Y-100200000D01*
X155050000Y-92300000D02*
X156600000Y-92300000D01*
G04 #@! TO.N,Net-(U3A-DS)*
X154550000Y-93500000D02*
X154797487Y-93500000D01*
X156451000Y-95153513D02*
X156451000Y-97849000D01*
X156451000Y-97849000D02*
X156100000Y-98200000D01*
X154797487Y-93500000D02*
X156451000Y-95153513D01*
G04 #@! TO.N,/GPIO22*
X144837724Y-114935367D02*
X144900000Y-114997643D01*
X145101000Y-117063189D02*
X145101000Y-117436811D01*
X144900000Y-114997643D02*
X144900000Y-115675000D01*
X145299000Y-123086811D02*
X145501100Y-123288911D01*
X145101000Y-117436811D02*
X144931406Y-117606406D01*
X145501100Y-123288911D02*
X145501100Y-124753600D01*
X144931406Y-117606406D02*
X144400000Y-118137811D01*
X145299000Y-121599000D02*
X145299000Y-123086811D01*
X144575000Y-116000000D02*
X144575000Y-116537190D01*
X144400000Y-120700000D02*
X145299000Y-121599000D01*
X144400000Y-118137811D02*
X144400000Y-120700000D01*
X144900000Y-115675000D02*
X144575000Y-116000000D01*
X144575000Y-116537190D02*
X145101000Y-117063189D01*
G04 #@! TO.N,/I2S_LRCK*
X157001100Y-123213175D02*
X157000000Y-123212075D01*
X157001100Y-124753600D02*
X157001100Y-123213175D01*
X157000000Y-122575736D02*
X157001100Y-122574636D01*
X157001100Y-122574636D02*
X157001100Y-117898900D01*
X157000000Y-123212075D02*
X157000000Y-122575736D01*
X157001100Y-117898900D02*
X158700000Y-116200000D01*
G04 #@! TO.N,/GPIO19*
X146599000Y-119599000D02*
X146600000Y-119600000D01*
X146500000Y-113600000D02*
X146900000Y-114000000D01*
X146274998Y-113600000D02*
X146500000Y-113600000D01*
X146469000Y-119731000D02*
X146469000Y-120936811D01*
X146900000Y-114000000D02*
X146900000Y-115200000D01*
X146887582Y-118012418D02*
X146599000Y-118301000D01*
X146599000Y-118301000D02*
X146599000Y-119599000D01*
X146900000Y-115200000D02*
X146887582Y-115212418D01*
X146887582Y-115212418D02*
X146887582Y-118012418D01*
X147001100Y-123301100D02*
X147001100Y-124753600D01*
X147000000Y-122500000D02*
X146800000Y-122700000D01*
X146800000Y-122700000D02*
X146800000Y-123100000D01*
X146600000Y-119600000D02*
X146469000Y-119731000D01*
X146616094Y-121083906D02*
X147000000Y-121467811D01*
X146469000Y-120936811D02*
X146616094Y-121083906D01*
X146800000Y-123100000D02*
X147001100Y-123301100D01*
X147000000Y-121467811D02*
X147000000Y-122500000D01*
G04 #@! TO.N,/GPIO20*
X144700000Y-120400000D02*
X146200000Y-121900000D01*
X145401000Y-117561075D02*
X144700000Y-118262075D01*
X145300000Y-114600000D02*
X145300000Y-115700678D01*
X144700000Y-118262075D02*
X144700000Y-120400000D01*
X145401000Y-116926000D02*
X145401000Y-117561075D01*
X144875000Y-116400000D02*
X145401000Y-116926000D01*
X144875000Y-116125678D02*
X144875000Y-116400000D01*
X145300000Y-115700678D02*
X144875000Y-116125678D01*
X144700000Y-114300000D02*
X145000000Y-114300000D01*
X144475000Y-114525000D02*
X144700000Y-114300000D01*
X145000000Y-114300000D02*
X145300000Y-114600000D01*
X146001100Y-123298900D02*
X146001100Y-124753600D01*
X146200000Y-123100000D02*
X146001100Y-123298900D01*
X146200000Y-121900000D02*
X146200000Y-123100000D01*
X144400000Y-114525000D02*
X144475000Y-114525000D01*
G04 #@! TO.N,/GPIO2*
X152700000Y-116172792D02*
X152700000Y-110200000D01*
X146592893Y-107200000D02*
X146200000Y-107200000D01*
X152501100Y-116371692D02*
X152700000Y-116172792D01*
X146992893Y-107600000D02*
X146592893Y-107200000D01*
X146992893Y-107600000D02*
X150100000Y-107600000D01*
X152500000Y-122425736D02*
X152501100Y-122424636D01*
X152501100Y-124753600D02*
X152501100Y-123213175D01*
X152501100Y-122424636D02*
X152501100Y-116371692D01*
X152500000Y-123212075D02*
X152500000Y-122425736D01*
X152501100Y-123213175D02*
X152500000Y-123212075D01*
X150100000Y-107600000D02*
X152700000Y-110200000D01*
G04 #@! TO.N,/GPIO12*
X150506095Y-115206095D02*
X150900000Y-114812190D01*
X146200000Y-111000003D02*
X149300003Y-111000003D01*
X149800000Y-123087811D02*
X149800000Y-122600000D01*
X150000000Y-122400000D02*
X150000000Y-115712189D01*
X149500000Y-111200000D02*
X149400000Y-111100000D01*
X150001100Y-123288911D02*
X149800000Y-123087811D01*
X150506095Y-115206095D02*
X150812189Y-114900000D01*
X150812189Y-114900000D02*
X150900000Y-114900000D01*
X149800000Y-122600000D02*
X150000000Y-122400000D01*
X150001100Y-124753600D02*
X150001100Y-123288911D01*
X149300003Y-111000003D02*
X149500000Y-111200000D01*
X150900000Y-112600000D02*
X149500000Y-111200000D01*
X150900000Y-114812190D02*
X150900000Y-112600000D01*
X150000000Y-115712189D02*
X150506095Y-115206095D01*
G04 #@! TO.N,/GPIO9*
X143900000Y-112700000D02*
X144100000Y-112500000D01*
X145001100Y-124753600D02*
X144997001Y-124749501D01*
X144100000Y-120900000D02*
X144100000Y-118100000D01*
X143900000Y-117900000D02*
X143900000Y-112700000D01*
X144100000Y-112500000D02*
X144100000Y-111700000D01*
X144100000Y-118100000D02*
X143900000Y-117900000D01*
X144997001Y-121797001D02*
X144100000Y-120900000D01*
X144997001Y-124749501D02*
X144997001Y-121797001D01*
G04 #@! TO.N,/GPIO4*
X152001100Y-123286711D02*
X152200000Y-123087811D01*
X150000000Y-108200000D02*
X146500000Y-108200000D01*
X152200000Y-122700000D02*
X152000000Y-122500000D01*
X152000000Y-122500000D02*
X152000000Y-116448528D01*
X152200000Y-123087811D02*
X152200000Y-122700000D01*
X152001100Y-124753600D02*
X152001100Y-123286711D01*
X152400000Y-116048528D02*
X152400000Y-110600000D01*
X152000000Y-116448528D02*
X152400000Y-116048528D01*
X146500000Y-108200000D02*
X146200000Y-107900000D01*
X152400000Y-110600000D02*
X150000000Y-108200000D01*
G04 #@! TO.N,/GPIO16*
X148200000Y-116120945D02*
X148200000Y-119024264D01*
X148447895Y-115047895D02*
X148447895Y-115873050D01*
X148200000Y-114800000D02*
X148447895Y-115047895D01*
X146200000Y-112550000D02*
X146250000Y-112600000D01*
X148001100Y-123125364D02*
X148001100Y-124753600D01*
X148100000Y-119124264D02*
X148100000Y-122375736D01*
X146250000Y-112600000D02*
X147700000Y-112600000D01*
X148200000Y-119024264D02*
X148100000Y-119124264D01*
X148100000Y-122375736D02*
X148000000Y-122475736D01*
X148000000Y-122475736D02*
X148000000Y-123124264D01*
X148200000Y-113100000D02*
X148200000Y-114800000D01*
X148447895Y-115873050D02*
X148200000Y-116120945D01*
X148000000Y-123124264D02*
X148001100Y-123125364D01*
X147700000Y-112600000D02*
X148200000Y-113100000D01*
G04 #@! TO.N,/GPIO8*
X151800000Y-111300000D02*
X151800000Y-115800000D01*
X151001100Y-116598900D02*
X151001100Y-122124636D01*
X151001100Y-122124636D02*
X150999000Y-122126736D01*
X149800000Y-109300000D02*
X151800000Y-111300000D01*
X151800000Y-115800000D02*
X151001100Y-116598900D01*
X151000000Y-122525736D02*
X151000000Y-123212075D01*
X150999000Y-122126736D02*
X150999000Y-122524736D01*
X151001100Y-123213175D02*
X151001100Y-124753600D01*
X151000000Y-123212075D02*
X151001100Y-123213175D01*
X146200000Y-109300000D02*
X149800000Y-109300000D01*
X150999000Y-122524736D02*
X151000000Y-122525736D01*
G04 #@! TO.N,/I2S_DATA*
X157300000Y-122700000D02*
X157600000Y-122400000D01*
X157300000Y-123087811D02*
X157300000Y-122700000D01*
X157501100Y-123288911D02*
X157300000Y-123087811D01*
X157600000Y-122400000D02*
X157600000Y-118100000D01*
X157600000Y-118100000D02*
X158600000Y-117100000D01*
X157501100Y-124753600D02*
X157501100Y-123288911D01*
G04 #@! TO.N,/GPIO3*
X142425000Y-110675000D02*
X142500000Y-110600000D01*
X143501100Y-124753600D02*
X143501100Y-122398900D01*
X142849000Y-111736811D02*
X142425000Y-111312811D01*
X143200000Y-121500000D02*
X143200000Y-118651000D01*
X143700000Y-122000000D02*
X143200000Y-121500000D01*
X142849000Y-118300000D02*
X142849000Y-111736811D01*
X143700000Y-122200000D02*
X143700000Y-122000000D01*
X142425000Y-111312811D02*
X142425000Y-110675000D01*
X143200000Y-118651000D02*
X142849000Y-118300000D01*
X143501100Y-122398900D02*
X143700000Y-122200000D01*
G04 #@! TO.N,/GPIO6*
X152100000Y-115924264D02*
X151550000Y-116474264D01*
X151300000Y-122600000D02*
X151300000Y-123087811D01*
X151501100Y-123288911D02*
X151501100Y-124753600D01*
X151550000Y-116474264D02*
X151550000Y-122350000D01*
X151300000Y-123087811D02*
X151501100Y-123288911D01*
X151550000Y-122350000D02*
X151300000Y-122600000D01*
X152100000Y-110800000D02*
X152100000Y-115924264D01*
X146200000Y-108600000D02*
X149900000Y-108600000D01*
X149900000Y-108600000D02*
X152100000Y-110800000D01*
G04 #@! TO.N,/GPIO7*
X143800000Y-121100000D02*
X143800000Y-118300000D01*
X143800000Y-118300000D02*
X143600000Y-118100000D01*
X143700000Y-110900000D02*
X143700000Y-110800000D01*
X144501100Y-121801100D02*
X143800000Y-121100000D01*
X143600000Y-118100000D02*
X143600000Y-111000000D01*
X143600000Y-111000000D02*
X143700000Y-110900000D01*
X144501100Y-124753600D02*
X144501100Y-121801100D01*
G04 #@! TO.N,/GPIO14*
X149001100Y-124753600D02*
X149001100Y-123286711D01*
X149200000Y-122700000D02*
X149000000Y-122500000D01*
X149800000Y-113200000D02*
X148400000Y-111800000D01*
X149800000Y-114800000D02*
X149800000Y-113200000D01*
X149200000Y-123087811D02*
X149200000Y-122700000D01*
X149047895Y-116121578D02*
X149047895Y-115552105D01*
X149000000Y-116169473D02*
X149047895Y-116121578D01*
X148400000Y-111800000D02*
X144700000Y-111800000D01*
X149001100Y-123286711D02*
X149200000Y-123087811D01*
X149047895Y-115552105D02*
X149800000Y-114800000D01*
X149000000Y-122500000D02*
X149000000Y-116169473D01*
G04 #@! TO.N,/GPIO13*
X144775397Y-111098866D02*
X145127534Y-111451003D01*
X146386811Y-111451003D02*
X146537814Y-111300000D01*
X149499000Y-122574736D02*
X149500000Y-122575736D01*
X146537814Y-111300000D02*
X148800000Y-111300000D01*
X149500000Y-122575736D02*
X149500000Y-123212075D01*
X150400000Y-114800000D02*
X149501100Y-115698900D01*
X150400000Y-112900000D02*
X150400000Y-114800000D01*
X149501100Y-122224636D02*
X149499000Y-122226736D01*
X149501100Y-123213175D02*
X149501100Y-124753600D01*
X149501100Y-115698900D02*
X149501100Y-122224636D01*
X149500000Y-123212075D02*
X149501100Y-123213175D01*
X149499000Y-122226736D02*
X149499000Y-122574736D01*
X148800000Y-111300000D02*
X150400000Y-112900000D01*
X145127534Y-111451003D02*
X146386811Y-111451003D01*
G04 #@! TO.N,/GPIO5*
X143500000Y-118500000D02*
X143200000Y-118200000D01*
X143200000Y-118200000D02*
X143200000Y-111450000D01*
X143200000Y-111500000D02*
X143200000Y-111450000D01*
X143200000Y-111450000D02*
X143150000Y-111400000D01*
X143500000Y-121300000D02*
X143500000Y-118500000D01*
X144001100Y-124753600D02*
X144001100Y-122298900D01*
X143200000Y-111400000D02*
X143200000Y-111500000D01*
X144001100Y-122298900D02*
X144100000Y-122200000D01*
X144100000Y-121900000D02*
X143500000Y-121300000D01*
X144100000Y-122200000D02*
X144100000Y-121900000D01*
G04 #@! TO.N,/GPIO15*
X148500000Y-119148528D02*
X148600000Y-119048528D01*
X147800000Y-112100000D02*
X145100000Y-112100000D01*
X148900000Y-113200000D02*
X147800000Y-112100000D01*
X148300000Y-123000000D02*
X148300000Y-122600000D01*
X148600000Y-117751472D02*
X148500000Y-117651472D01*
X148500000Y-122400000D02*
X148500000Y-119148528D01*
X148900000Y-115000000D02*
X148900000Y-113200000D01*
X148500000Y-116245209D02*
X148747895Y-115997314D01*
X148300000Y-122600000D02*
X148500000Y-122400000D01*
X148501100Y-123288911D02*
X148301100Y-123088911D01*
X148747895Y-115152105D02*
X148900000Y-115000000D01*
X148747895Y-115997314D02*
X148747895Y-115152105D01*
X148301100Y-123001100D02*
X148300000Y-123000000D01*
X148301100Y-123088911D02*
X148301100Y-123001100D01*
X148501100Y-124753600D02*
X148501100Y-123288911D01*
X145100000Y-112100000D02*
X144800000Y-112400000D01*
X148500000Y-117651472D02*
X148500000Y-116245209D01*
X148600000Y-119048528D02*
X148600000Y-117751472D01*
X144800000Y-112400000D02*
X144600000Y-112400000D01*
G04 #@! TO.N,/GPIO18*
X145336339Y-118050000D02*
X145000000Y-118386339D01*
X145700000Y-113900000D02*
X145700000Y-115700000D01*
X146175000Y-117700000D02*
X145825000Y-118050000D01*
X145825000Y-118050000D02*
X145336339Y-118050000D01*
X145220918Y-113420918D02*
X145700000Y-113900000D01*
X145700000Y-115700000D02*
X146175000Y-116175000D01*
X146500000Y-122575736D02*
X146500000Y-123224264D01*
X146501100Y-121601100D02*
X146501100Y-122574636D01*
X146501100Y-122574636D02*
X146500000Y-122575736D01*
X146501100Y-123225364D02*
X146501100Y-124753600D01*
X146500000Y-123224264D02*
X146501100Y-123225364D01*
X146175000Y-116175000D02*
X146175000Y-117700000D01*
X145000000Y-120100000D02*
X146501100Y-121601100D01*
X144757773Y-113420918D02*
X145220918Y-113420918D01*
X145000000Y-118386339D02*
X145000000Y-120100000D01*
G04 #@! TO.N,/I2S_MCLK*
X156700000Y-123087811D02*
X156501100Y-123286711D01*
X156700000Y-122697800D02*
X156700000Y-123087811D01*
X158250000Y-115300000D02*
X158250000Y-115900000D01*
X156501100Y-123286711D02*
X156501100Y-124753600D01*
X156501100Y-122498900D02*
X156700000Y-122697800D01*
X158250000Y-115900000D02*
X156501100Y-117648900D01*
X156501100Y-122498900D02*
X156501100Y-117648900D01*
G04 #@! TO.N,/GPIO17*
X147100000Y-113000000D02*
X147900000Y-113800000D01*
X145957088Y-112957088D02*
X146001000Y-113001000D01*
X146001000Y-113001000D02*
X147099000Y-113001000D01*
X147500000Y-119300000D02*
X147500000Y-122300000D01*
X148147895Y-115748786D02*
X147900000Y-115996681D01*
X147900000Y-115086677D02*
X148147895Y-115334572D01*
X147700000Y-122500000D02*
X147500000Y-122300000D01*
X148147895Y-115334572D02*
X148147895Y-115748786D01*
X147900000Y-113800000D02*
X147900000Y-115086677D01*
X147696999Y-123103004D02*
X147696999Y-123003001D01*
X147900000Y-118900000D02*
X147500000Y-119300000D01*
X147696999Y-123003001D02*
X147700000Y-123000000D01*
X147700000Y-123000000D02*
X147700000Y-122500000D01*
X147900000Y-115996681D02*
X147900000Y-118900000D01*
X147099000Y-113001000D02*
X147100000Y-113000000D01*
X144377165Y-112957088D02*
X145957088Y-112957088D01*
X147501100Y-124753600D02*
X147501100Y-123298900D01*
X147501100Y-123298900D02*
X147696999Y-123103004D01*
G04 #@! TO.N,/GPIO10*
X151500000Y-112400000D02*
X151500000Y-115600000D01*
X146200000Y-110400000D02*
X149500000Y-110400000D01*
X150501100Y-123286711D02*
X150501100Y-124753600D01*
X150700000Y-123087811D02*
X150501100Y-123286711D01*
X150700000Y-122650000D02*
X150700000Y-123087811D01*
X149500000Y-110400000D02*
X151500000Y-112400000D01*
X150500000Y-116600000D02*
X150500000Y-122450000D01*
X151500000Y-115600000D02*
X150500000Y-116600000D01*
X150500000Y-122450000D02*
X150700000Y-122650000D01*
G04 #@! TO.N,/I2S_SCLK*
X156050000Y-117350000D02*
X157700000Y-115700000D01*
X156050000Y-122450000D02*
X156050000Y-117350000D01*
X156001100Y-124753600D02*
X156001100Y-123288911D01*
X156001100Y-123288911D02*
X155800000Y-123087811D01*
X155800000Y-123087811D02*
X155800000Y-122700000D01*
X155800000Y-122700000D02*
X156050000Y-122450000D01*
D22*
G04 #@! TO.N,Net-(D2-A)*
X141836000Y-100836000D02*
X141800000Y-100800000D01*
X143450000Y-100650000D02*
X143264000Y-100836000D01*
X142773000Y-105550000D02*
X141700000Y-104477000D01*
X141800000Y-100800000D02*
X140300000Y-100800000D01*
X141700000Y-104477000D02*
X141700000Y-104300000D01*
X143264000Y-100836000D02*
X141836000Y-100836000D01*
X143450000Y-105550000D02*
X142773000Y-105550000D01*
X139100000Y-99600000D02*
X138700000Y-99600000D01*
X139100000Y-99600000D02*
X140300000Y-100800000D01*
D20*
G04 #@! TO.N,Net-(J2-CC1)*
X143450000Y-104350000D02*
X142425000Y-104350000D01*
X142425000Y-104350000D02*
X142375000Y-104400000D01*
G04 #@! TO.N,Net-(J2-CC2)*
X143450000Y-101350000D02*
X142350000Y-101350000D01*
G04 #@! TO.N,Net-(Q2A-B1)*
X138800000Y-102800000D02*
X139500000Y-102100000D01*
X139500000Y-102100000D02*
X140600000Y-102100000D01*
G04 #@! TO.N,/SD2_DATA1*
X155650000Y-115742893D02*
X155650000Y-114850000D01*
X155001100Y-119030271D02*
X155100000Y-118931371D01*
X155649000Y-114849000D02*
X155649000Y-113426000D01*
X155650000Y-114850000D02*
X155649000Y-114849000D01*
X155001100Y-124753600D02*
X155001100Y-123286711D01*
X155001100Y-122501100D02*
X155001100Y-119030271D01*
X155001100Y-123286711D02*
X155200000Y-123087811D01*
X155649000Y-113426000D02*
X156100000Y-112975000D01*
X155200000Y-123087811D02*
X155200000Y-122700000D01*
X155100000Y-116292893D02*
X155650000Y-115742893D01*
X155100000Y-118931371D02*
X155100000Y-116292893D01*
X155200000Y-122700000D02*
X155001100Y-122501100D01*
G04 #@! TO.N,/SD2_DATA2*
X154800000Y-118807107D02*
X154800000Y-118100000D01*
X154500000Y-119107107D02*
X154800000Y-118807107D01*
X154500000Y-117800000D02*
X154500000Y-116450000D01*
X154900000Y-113200000D02*
X154700000Y-113200000D01*
X154300000Y-122700000D02*
X154500000Y-122500000D01*
X154501100Y-123288911D02*
X154300000Y-123087811D01*
X155300000Y-115650000D02*
X155300000Y-113600000D01*
X154501100Y-124753600D02*
X154501100Y-123288911D01*
X154300000Y-123087811D02*
X154300000Y-122700000D01*
X154500000Y-116450000D02*
X155300000Y-115650000D01*
X155300000Y-113600000D02*
X154900000Y-113200000D01*
X154800000Y-118100000D02*
X154500000Y-117800000D01*
X154500000Y-122500000D02*
X154500000Y-119107107D01*
G04 #@! TO.N,/SD2_CLK*
X153700000Y-122700000D02*
X153501100Y-122501100D01*
X153501100Y-122501100D02*
X153501100Y-113348900D01*
X153501100Y-123286711D02*
X153700000Y-123087811D01*
X153501100Y-124753600D02*
X153501100Y-123286711D01*
X153700000Y-123087811D02*
X153700000Y-122700000D01*
X153501100Y-113348900D02*
X154650000Y-112200000D01*
G04 #@! TO.N,/SD2_CMD*
X154401000Y-111749000D02*
X156015355Y-111749000D01*
X156015355Y-111749000D02*
X156038382Y-111772027D01*
X153001100Y-123288911D02*
X152800000Y-123087811D01*
X153001100Y-122348900D02*
X153001100Y-113148900D01*
X152800000Y-123087811D02*
X152800000Y-122550000D01*
X153001100Y-113148900D02*
X154401000Y-111749000D01*
X153001100Y-124753600D02*
X153001100Y-123288911D01*
X152800000Y-122550000D02*
X153001100Y-122348900D01*
G04 #@! TO.N,/SD2_DATA0*
X155501100Y-122574636D02*
X155501100Y-117406007D01*
X155501100Y-124753600D02*
X155501100Y-123213175D01*
X155501100Y-123213175D02*
X155500000Y-123212075D01*
X156200000Y-116292893D02*
X156100000Y-116192893D01*
X155500000Y-123212075D02*
X155500000Y-122575736D01*
X156100000Y-116192893D02*
X156100000Y-114150000D01*
X155501100Y-117406007D02*
X156200000Y-116707107D01*
X155500000Y-122575736D02*
X155501100Y-122574636D01*
X156200000Y-116707107D02*
X156200000Y-116292893D01*
G04 #@! TO.N,/SD2_DATA3*
X154001100Y-123213175D02*
X154001100Y-124753600D01*
X153802100Y-118097900D02*
X153802100Y-119001000D01*
X154001100Y-117900000D02*
X154000000Y-117900000D01*
X154700000Y-113900000D02*
X154900000Y-114100000D01*
X154001100Y-122474636D02*
X154000000Y-122475736D01*
X153802100Y-119001000D02*
X154001100Y-119200000D01*
X154000000Y-117900000D02*
X153802100Y-118097900D01*
X154900000Y-115550000D02*
X154001100Y-116448900D01*
X154000000Y-122475736D02*
X154000000Y-123212075D01*
X154000000Y-123212075D02*
X154001100Y-123213175D01*
X154900000Y-114100000D02*
X154900000Y-115550000D01*
X154001100Y-119200000D02*
X154001100Y-122474636D01*
X154001100Y-116448900D02*
X154001100Y-117900000D01*
G04 #@! TO.N,Net-(U2A-FB_DCDC)*
X148100000Y-105800000D02*
X147500000Y-105200000D01*
X151900000Y-105800000D02*
X148100000Y-105800000D01*
X147500000Y-100300000D02*
X146100000Y-98900000D01*
X146100000Y-98792893D02*
X145657107Y-98350000D01*
X152500000Y-106400000D02*
X151900000Y-105800000D01*
X146100000Y-98900000D02*
X146100000Y-98792893D01*
X155850000Y-106400000D02*
X152500000Y-106400000D01*
X147500000Y-105200000D02*
X147500000Y-100300000D01*
X145657107Y-98350000D02*
X145550000Y-98350000D01*
G04 #@! TD*
G04 #@! TA.AperFunction,Conductor*
G04 #@! TO.N,/3.3V*
G36*
X142493039Y-120119685D02*
G01*
X142538794Y-120172489D01*
X142550000Y-120224000D01*
X142550000Y-122179100D01*
X142530315Y-122246139D01*
X142477511Y-122291894D01*
X142426000Y-122303100D01*
X142297255Y-122303100D01*
X142142610Y-122333861D01*
X142142598Y-122333864D01*
X141996927Y-122394202D01*
X141996914Y-122394209D01*
X141865811Y-122481810D01*
X141865807Y-122481813D01*
X141754313Y-122593307D01*
X141754310Y-122593311D01*
X141666709Y-122724414D01*
X141666702Y-122724427D01*
X141606364Y-122870098D01*
X141606361Y-122870110D01*
X141575600Y-123024753D01*
X141575600Y-123426000D01*
X141555915Y-123493039D01*
X141503111Y-123538794D01*
X141451600Y-123550000D01*
X139274000Y-123550000D01*
X139206961Y-123530315D01*
X139161206Y-123477511D01*
X139150000Y-123426000D01*
X139150000Y-122933894D01*
X139169685Y-122866855D01*
X139222489Y-122821100D01*
X139241900Y-122814121D01*
X139294938Y-122799910D01*
X139380562Y-122750475D01*
X139450475Y-122680562D01*
X139499910Y-122594938D01*
X139525500Y-122499435D01*
X139525500Y-122400565D01*
X139515430Y-122362983D01*
X139517093Y-122293134D01*
X139556256Y-122235272D01*
X139603108Y-122211118D01*
X139644938Y-122199910D01*
X139730562Y-122150475D01*
X139800475Y-122080562D01*
X139849910Y-121994938D01*
X139875500Y-121899435D01*
X139875500Y-121800565D01*
X139849910Y-121705062D01*
X139800475Y-121619438D01*
X139730562Y-121549525D01*
X139713377Y-121539603D01*
X139665163Y-121489036D01*
X139651942Y-121420429D01*
X139677911Y-121355565D01*
X139687692Y-121344544D01*
X139725475Y-121306762D01*
X139774910Y-121221138D01*
X139800500Y-121125635D01*
X139800500Y-121026765D01*
X139774910Y-120931262D01*
X139725475Y-120845638D01*
X139725473Y-120845636D01*
X139721411Y-120838600D01*
X139724018Y-120837094D01*
X139704001Y-120785331D01*
X139718032Y-120716884D01*
X139721516Y-120711461D01*
X139721411Y-120711400D01*
X139725473Y-120704363D01*
X139725475Y-120704362D01*
X139774910Y-120618738D01*
X139800500Y-120523235D01*
X139800500Y-120424365D01*
X139774910Y-120328862D01*
X139750162Y-120285997D01*
X139733690Y-120218101D01*
X139756542Y-120152074D01*
X139811463Y-120108883D01*
X139857550Y-120100000D01*
X142426000Y-120100000D01*
X142493039Y-120119685D01*
G37*
G04 #@! TD.AperFunction*
G04 #@! TD*
M02*
