G04 #@! TF.GenerationSoftware,KiCad,Pcbnew,9.0.0+1*
G04 #@! TF.CreationDate,2025-04-14T19:52:18+02:00*
G04 #@! TF.ProjectId,P4_M.2_B+M-key,50345f4d-2e32-45f4-922b-4d2d6b65792e,rev?*
G04 #@! TF.SameCoordinates,Original*
G04 #@! TF.FileFunction,Copper,L1,Top*
G04 #@! TF.FilePolarity,Positive*
%FSLAX46Y46*%
G04 Gerber Fmt 4.6, Leading zero omitted, Abs format (unit mm)*
G04 Created by KiCad (PCBNEW 9.0.0+1) date 2025-04-14 19:52:18*
%MOMM*%
%LPD*%
G01*
G04 APERTURE LIST*
G04 Aperture macros list*
%AMRoundRect*
0 Rectangle with rounded corners*
0 $1 Rounding radius*
0 $2 $3 $4 $5 $6 $7 $8 $9 X,Y pos of 4 corners*
0 Add a 4 corners polygon primitive as box body*
4,1,4,$2,$3,$4,$5,$6,$7,$8,$9,$2,$3,0*
0 Add four circle primitives for the rounded corners*
1,1,$1+$1,$2,$3*
1,1,$1+$1,$4,$5*
1,1,$1+$1,$6,$7*
1,1,$1+$1,$8,$9*
0 Add four rect primitives between the rounded corners*
20,1,$1+$1,$2,$3,$4,$5,0*
20,1,$1+$1,$4,$5,$6,$7,0*
20,1,$1+$1,$6,$7,$8,$9,0*
20,1,$1+$1,$8,$9,$2,$3,0*%
G04 Aperture macros list end*
%ADD10C,0.200000*%
G04 #@! TA.AperFunction,NonConductor*
%ADD11C,0.200000*%
G04 #@! TD*
G04 #@! TA.AperFunction,SMDPad,CuDef*
%ADD12RoundRect,0.100000X0.100000X-0.130000X0.100000X0.130000X-0.100000X0.130000X-0.100000X-0.130000X0*%
G04 #@! TD*
G04 #@! TA.AperFunction,SMDPad,CuDef*
%ADD13RoundRect,0.100000X-0.100000X0.130000X-0.100000X-0.130000X0.100000X-0.130000X0.100000X0.130000X0*%
G04 #@! TD*
G04 #@! TA.AperFunction,SMDPad,CuDef*
%ADD14RoundRect,0.100000X-0.130000X-0.100000X0.130000X-0.100000X0.130000X0.100000X-0.130000X0.100000X0*%
G04 #@! TD*
G04 #@! TA.AperFunction,SMDPad,CuDef*
%ADD15RoundRect,0.225000X0.225000X0.250000X-0.225000X0.250000X-0.225000X-0.250000X0.225000X-0.250000X0*%
G04 #@! TD*
G04 #@! TA.AperFunction,SMDPad,CuDef*
%ADD16RoundRect,0.100000X0.130000X0.100000X-0.130000X0.100000X-0.130000X-0.100000X0.130000X-0.100000X0*%
G04 #@! TD*
G04 #@! TA.AperFunction,SMDPad,CuDef*
%ADD17R,1.500000X0.800000*%
G04 #@! TD*
G04 #@! TA.AperFunction,SMDPad,CuDef*
%ADD18R,2.000000X1.500000*%
G04 #@! TD*
G04 #@! TA.AperFunction,SMDPad,CuDef*
%ADD19RoundRect,0.090000X-0.235000X-0.000010X0.235000X-0.000010X0.235000X0.000010X-0.235000X0.000010X0*%
G04 #@! TD*
G04 #@! TA.AperFunction,SMDPad,CuDef*
%ADD20RoundRect,0.090000X-0.000010X-0.235000X0.000010X-0.235000X0.000010X0.235000X-0.000010X0.235000X0*%
G04 #@! TD*
G04 #@! TA.AperFunction,SMDPad,CuDef*
%ADD21R,7.500000X7.500000*%
G04 #@! TD*
G04 #@! TA.AperFunction,SMDPad,CuDef*
%ADD22RoundRect,0.087500X0.250000X0.087500X-0.250000X0.087500X-0.250000X-0.087500X0.250000X-0.087500X0*%
G04 #@! TD*
G04 #@! TA.AperFunction,ConnectorPad*
%ADD23R,0.350000X2.500000*%
G04 #@! TD*
G04 #@! TA.AperFunction,CastellatedPad*
%ADD24C,5.500000*%
G04 #@! TD*
G04 #@! TA.AperFunction,SMDPad,CuDef*
%ADD25RoundRect,0.212500X-0.787500X0.212500X-0.787500X-0.212500X0.787500X-0.212500X0.787500X0.212500X0*%
G04 #@! TD*
G04 #@! TA.AperFunction,SMDPad,CuDef*
%ADD26RoundRect,0.218750X0.256250X-0.218750X0.256250X0.218750X-0.256250X0.218750X-0.256250X-0.218750X0*%
G04 #@! TD*
G04 #@! TA.AperFunction,SMDPad,CuDef*
%ADD27R,1.800000X1.000000*%
G04 #@! TD*
G04 #@! TA.AperFunction,SMDPad,CuDef*
%ADD28RoundRect,0.225000X-0.225000X-0.250000X0.225000X-0.250000X0.225000X0.250000X-0.225000X0.250000X0*%
G04 #@! TD*
G04 #@! TA.AperFunction,SMDPad,CuDef*
%ADD29R,4.400000X1.300000*%
G04 #@! TD*
G04 #@! TA.AperFunction,SMDPad,CuDef*
%ADD30RoundRect,0.125000X-0.262500X-0.125000X0.262500X-0.125000X0.262500X0.125000X-0.262500X0.125000X0*%
G04 #@! TD*
G04 #@! TA.AperFunction,HeatsinkPad*
%ADD31R,3.400000X4.000000*%
G04 #@! TD*
G04 #@! TA.AperFunction,SMDPad,CuDef*
%ADD32R,0.800000X0.900000*%
G04 #@! TD*
G04 #@! TA.AperFunction,SMDPad,CuDef*
%ADD33RoundRect,0.087500X-0.250000X-0.087500X0.250000X-0.087500X0.250000X0.087500X-0.250000X0.087500X0*%
G04 #@! TD*
G04 #@! TA.AperFunction,SMDPad,CuDef*
%ADD34RoundRect,0.100000X0.100000X-0.225000X0.100000X0.225000X-0.100000X0.225000X-0.100000X-0.225000X0*%
G04 #@! TD*
G04 #@! TA.AperFunction,SMDPad,CuDef*
%ADD35RoundRect,0.250000X0.300000X-0.300000X0.300000X0.300000X-0.300000X0.300000X-0.300000X-0.300000X0*%
G04 #@! TD*
G04 #@! TA.AperFunction,SMDPad,CuDef*
%ADD36RoundRect,0.150000X0.150000X-0.687500X0.150000X0.687500X-0.150000X0.687500X-0.150000X-0.687500X0*%
G04 #@! TD*
G04 #@! TA.AperFunction,HeatsinkPad*
%ADD37R,3.300000X2.100000*%
G04 #@! TD*
G04 #@! TA.AperFunction,SMDPad,CuDef*
%ADD38RoundRect,0.147500X-0.172500X0.147500X-0.172500X-0.147500X0.172500X-0.147500X0.172500X0.147500X0*%
G04 #@! TD*
G04 #@! TA.AperFunction,ViaPad*
%ADD39C,0.450000*%
G04 #@! TD*
G04 #@! TA.AperFunction,ViaPad*
%ADD40C,0.600000*%
G04 #@! TD*
G04 #@! TA.AperFunction,Conductor*
%ADD41C,0.150000*%
G04 #@! TD*
G04 #@! TA.AperFunction,Conductor*
%ADD42C,0.200000*%
G04 #@! TD*
G04 #@! TA.AperFunction,Conductor*
%ADD43C,0.450000*%
G04 #@! TD*
G04 #@! TA.AperFunction,Conductor*
%ADD44C,0.152400*%
G04 #@! TD*
G04 #@! TA.AperFunction,Conductor*
%ADD45C,0.179578*%
G04 #@! TD*
G04 APERTURE END LIST*
D10*
D11*
X145255387Y-96867219D02*
X145255387Y-97581504D01*
X145255387Y-97581504D02*
X145207768Y-97724361D01*
X145207768Y-97724361D02*
X145112530Y-97819600D01*
X145112530Y-97819600D02*
X144969673Y-97867219D01*
X144969673Y-97867219D02*
X144874435Y-97867219D01*
X145636340Y-96867219D02*
X145874435Y-97867219D01*
X145874435Y-97867219D02*
X146064911Y-97152933D01*
X146064911Y-97152933D02*
X146255387Y-97867219D01*
X146255387Y-97867219D02*
X146493483Y-96867219D01*
D12*
G04 #@! TO.P,R18,1,1*
G04 #@! TO.N,/SD_CLK*
X153100000Y-102320000D03*
G04 #@! TO.P,R18,2,2*
G04 #@! TO.N,Net-(J1-CLK)*
X153100000Y-101680000D03*
G04 #@! TD*
G04 #@! TO.P,C3,1,1*
G04 #@! TO.N,GND*
X147100000Y-117920000D03*
G04 #@! TO.P,C3,2,2*
G04 #@! TO.N,/3.3V*
X147100000Y-117280000D03*
G04 #@! TD*
D13*
G04 #@! TO.P,R6,1,1*
G04 #@! TO.N,/3.3V*
X158650000Y-113455000D03*
G04 #@! TO.P,R6,2,2*
G04 #@! TO.N,/GPIO37*
X158650000Y-114095000D03*
G04 #@! TD*
D14*
G04 #@! TO.P,R10,1,1*
G04 #@! TO.N,/V{slash}SDMMC*
X147380000Y-96800000D03*
G04 #@! TO.P,R10,2,2*
G04 #@! TO.N,/SD_DATA0*
X148020000Y-96800000D03*
G04 #@! TD*
D15*
G04 #@! TO.P,C33,1,1*
G04 #@! TO.N,/1.2V*
X142300000Y-94350000D03*
G04 #@! TO.P,C33,2,2*
G04 #@! TO.N,GND*
X140750000Y-94350000D03*
G04 #@! TD*
D16*
G04 #@! TO.P,R26,1,1*
G04 #@! TO.N,GND*
X140920000Y-97400000D03*
G04 #@! TO.P,R26,2,2*
G04 #@! TO.N,/FB2*
X140280000Y-97400000D03*
G04 #@! TD*
D17*
G04 #@! TO.P,J1,1,DAT2*
G04 #@! TO.N,/SD_DATA2*
X150100000Y-90150000D03*
G04 #@! TO.P,J1,2,DAT3/CD*
G04 #@! TO.N,/SD_DATA3*
X150100000Y-91250000D03*
G04 #@! TO.P,J1,3,CMD*
G04 #@! TO.N,/SD_CMD*
X150100000Y-92350000D03*
G04 #@! TO.P,J1,4,VDD*
G04 #@! TO.N,/V{slash}SDMMC*
X150100000Y-93450000D03*
G04 #@! TO.P,J1,5,CLK*
G04 #@! TO.N,Net-(J1-CLK)*
X150100000Y-94550000D03*
G04 #@! TO.P,J1,6,VSS*
G04 #@! TO.N,GND*
X150100000Y-95650000D03*
G04 #@! TO.P,J1,7,DAT0*
G04 #@! TO.N,/SD_DATA0*
X150100000Y-96750000D03*
G04 #@! TO.P,J1,8,DAT1*
G04 #@! TO.N,/SD_DATA1*
X150100000Y-97850000D03*
G04 #@! TO.P,J1,9,DET_B*
G04 #@! TO.N,/SD_DET*
X150100000Y-89050000D03*
G04 #@! TO.P,J1,10,DET_A*
G04 #@! TO.N,Net-(J1-DET_A)*
X150100000Y-87700000D03*
D18*
G04 #@! TO.P,J1,11,SHIELD*
G04 #@! TO.N,GND*
X158200000Y-100200000D03*
X158200000Y-86000000D03*
G04 #@! TD*
D12*
G04 #@! TO.P,C11,1,1*
G04 #@! TO.N,GND*
X158200000Y-112620000D03*
G04 #@! TO.P,C11,2,2*
G04 #@! TO.N,/GPIO35*
X158200000Y-111980000D03*
G04 #@! TD*
G04 #@! TO.P,R7,1,1*
G04 #@! TO.N,/3.3V*
X157400000Y-105720000D03*
G04 #@! TO.P,R7,2,2*
G04 #@! TO.N,/GPIO38*
X157400000Y-105080000D03*
G04 #@! TD*
G04 #@! TO.P,C28,1,1*
G04 #@! TO.N,Net-(U2A-XTAL_P)*
X146200000Y-103220000D03*
G04 #@! TO.P,C28,2,2*
G04 #@! TO.N,GND*
X146200000Y-102580000D03*
G04 #@! TD*
G04 #@! TO.P,R22,1,1*
G04 #@! TO.N,/FB*
X145438100Y-86803600D03*
G04 #@! TO.P,R22,2,2*
G04 #@! TO.N,/3.3V*
X145438100Y-86163600D03*
G04 #@! TD*
D19*
G04 #@! TO.P,U2,1,GPIO1*
G04 #@! TO.N,Net-(U2A-GPIO1)*
X145475000Y-106925000D03*
G04 #@! TO.P,U2,2,GPIO2*
G04 #@! TO.N,/GPIO2*
X145475000Y-107275000D03*
G04 #@! TO.P,U2,3,GPIO3*
G04 #@! TO.N,/GPIO3*
X145475000Y-107625000D03*
G04 #@! TO.P,U2,4,GPIO4*
G04 #@! TO.N,/GPIO4*
X145475000Y-107975000D03*
G04 #@! TO.P,U2,5,GPIO5*
G04 #@! TO.N,/GPIO5*
X145475000Y-108325000D03*
G04 #@! TO.P,U2,6,GPIO6*
G04 #@! TO.N,/GPIO6*
X145475000Y-108675000D03*
G04 #@! TO.P,U2,7,GPIO7*
G04 #@! TO.N,/GPIO7*
X145475000Y-109025000D03*
G04 #@! TO.P,U2,8,GPIO8*
G04 #@! TO.N,/GPIO8*
X145475000Y-109375000D03*
G04 #@! TO.P,U2,9,VDDPST_1*
G04 #@! TO.N,/3.3V*
X145475000Y-109725000D03*
G04 #@! TO.P,U2,10,GPIO9*
G04 #@! TO.N,/GPIO9*
X145475000Y-110075000D03*
G04 #@! TO.P,U2,11,GPIO10*
G04 #@! TO.N,/GPIO10*
X145475000Y-110425000D03*
G04 #@! TO.P,U2,12,GPIO11*
G04 #@! TO.N,/GPIO11*
X145475000Y-110775000D03*
G04 #@! TO.P,U2,13,GPIO12*
G04 #@! TO.N,/GPIO12*
X145475000Y-111125000D03*
G04 #@! TO.P,U2,14,GPIO13*
G04 #@! TO.N,/GPIO13*
X145475000Y-111475000D03*
G04 #@! TO.P,U2,15,GPIO14*
G04 #@! TO.N,/GPIO14*
X145475000Y-111825000D03*
G04 #@! TO.P,U2,16,GPIO15*
G04 #@! TO.N,/GPIO15*
X145475000Y-112175000D03*
G04 #@! TO.P,U2,17,GPIO16*
G04 #@! TO.N,/GPIO16*
X145475000Y-112525000D03*
G04 #@! TO.P,U2,18,GPIO17*
G04 #@! TO.N,/GPIO17*
X145475000Y-112875000D03*
G04 #@! TO.P,U2,19,GPIO18*
G04 #@! TO.N,/GPIO18*
X145475000Y-113225000D03*
G04 #@! TO.P,U2,20,GPIO19*
G04 #@! TO.N,/GPIO19*
X145475000Y-113575000D03*
G04 #@! TO.P,U2,21,VDDPST_2*
G04 #@! TO.N,/3.3V*
X145475000Y-113925000D03*
G04 #@! TO.P,U2,22,GPIO20*
G04 #@! TO.N,/GPIO20*
X145475000Y-114275000D03*
G04 #@! TO.P,U2,23,GPIO21*
G04 #@! TO.N,/GPIO21*
X145475000Y-114625000D03*
G04 #@! TO.P,U2,24,GPIO22*
G04 #@! TO.N,/GPIO22*
X145475000Y-114975000D03*
G04 #@! TO.P,U2,25,GPIO23*
G04 #@! TO.N,unconnected-(U2A-GPIO23-Pad25)*
X145475000Y-115325000D03*
G04 #@! TO.P,U2,26,VDD_HP_0*
G04 #@! TO.N,/1.2V*
X145475000Y-115675000D03*
D20*
G04 #@! TO.P,U2,27,FLASH_CS*
G04 #@! TO.N,/FLASH_CS*
X146025000Y-116225000D03*
G04 #@! TO.P,U2,28,FLASH_Q*
G04 #@! TO.N,/FLASH_Q*
X146375000Y-116225000D03*
G04 #@! TO.P,U2,29,FLASH_WP*
G04 #@! TO.N,/FLASH_WP*
X146725000Y-116225000D03*
G04 #@! TO.P,U2,30,VDDPST_3*
G04 #@! TO.N,/3.3V*
X147075000Y-116225000D03*
G04 #@! TO.P,U2,31,FLASH_HOLD*
G04 #@! TO.N,/FLASH_HOLD*
X147425000Y-116225000D03*
G04 #@! TO.P,U2,32,FLASH_CK*
G04 #@! TO.N,/FLASH_CK*
X147775000Y-116225000D03*
G04 #@! TO.P,U2,33,FLASH_D*
G04 #@! TO.N,/FLASH_D*
X148125000Y-116225000D03*
G04 #@! TO.P,U2,34,DSI_REXT*
G04 #@! TO.N,/DSI_REXT*
X148475000Y-116225000D03*
G04 #@! TO.P,U2,35,DSI_DATAP1*
G04 #@! TO.N,/DSI_DATAP1*
X148825000Y-116225000D03*
G04 #@! TO.P,U2,36,DSI_DATAN1*
G04 #@! TO.N,/DSI_DATAN1*
X149175000Y-116225000D03*
G04 #@! TO.P,U2,37,DSI_CLKN*
G04 #@! TO.N,/DSI_CLKN*
X149525000Y-116225000D03*
G04 #@! TO.P,U2,38,DSI_CLKP*
G04 #@! TO.N,/DSI_CLKP*
X149875000Y-116225000D03*
G04 #@! TO.P,U2,39,DSI_DATAP0*
G04 #@! TO.N,/DSI_DATAP0*
X150225000Y-116225000D03*
G04 #@! TO.P,U2,40,DSI_DATAN0*
G04 #@! TO.N,/DSI_DATAN0*
X150575000Y-116225000D03*
G04 #@! TO.P,U2,41,VDD_MIPI_DPHY*
G04 #@! TO.N,/VMIPI*
X150925000Y-116225000D03*
G04 #@! TO.P,U2,42,CSI_DATAN0*
G04 #@! TO.N,/CSI_DATAN0*
X151275000Y-116225000D03*
G04 #@! TO.P,U2,43,CSI_DATAP0*
G04 #@! TO.N,/CSI_DATAP0*
X151625000Y-116225000D03*
G04 #@! TO.P,U2,44,CSI_CLKP*
G04 #@! TO.N,/CSI_CLKP*
X151975000Y-116225000D03*
G04 #@! TO.P,U2,45,CSI_CLKN*
G04 #@! TO.N,/CSI_CLKN*
X152325000Y-116225000D03*
G04 #@! TO.P,U2,46,CSI_DATAN1*
G04 #@! TO.N,/CSI_DATAN1*
X152675000Y-116225000D03*
G04 #@! TO.P,U2,47,CSI_DATAP1*
G04 #@! TO.N,/CSI_DATAP1*
X153025000Y-116225000D03*
G04 #@! TO.P,U2,48,CSI_REXT*
G04 #@! TO.N,/CSI_REXT*
X153375000Y-116225000D03*
G04 #@! TO.P,U2,49,DM*
G04 #@! TO.N,/USB2HS_D-*
X153725000Y-116225000D03*
G04 #@! TO.P,U2,50,DP*
G04 #@! TO.N,/USB2HS_D+*
X154075000Y-116225000D03*
G04 #@! TO.P,U2,51,VCCA*
G04 #@! TO.N,/3.3V*
X154425000Y-116225000D03*
G04 #@! TO.P,U2,52,GPIO24*
G04 #@! TO.N,/I2S_DATA*
X154775000Y-116225000D03*
D19*
G04 #@! TO.P,U2,53,GPIO25*
G04 #@! TO.N,/I2S_SCLK*
X155325000Y-115675000D03*
G04 #@! TO.P,U2,54,NC*
G04 #@! TO.N,unconnected-(U2A-NC-Pad54)*
X155325000Y-115325000D03*
G04 #@! TO.P,U2,55,GPIO26*
G04 #@! TO.N,/I2S_MCLK*
X155325000Y-114975000D03*
G04 #@! TO.P,U2,56,GPIO27*
G04 #@! TO.N,/I2S_LRCK*
X155325000Y-114625000D03*
G04 #@! TO.P,U2,57,GPIO28*
G04 #@! TO.N,/SD2_DATA0*
X155325000Y-114275000D03*
G04 #@! TO.P,U2,58,GPIO29*
G04 #@! TO.N,/SD2_DATA3*
X155325000Y-113925000D03*
G04 #@! TO.P,U2,59,VDDPST*
G04 #@! TO.N,/3.3V*
X155325000Y-113575000D03*
G04 #@! TO.P,U2,60,GPIO30*
G04 #@! TO.N,/SD2_DATA2*
X155325000Y-113225000D03*
G04 #@! TO.P,U2,61,GPIO31*
G04 #@! TO.N,/SD2_DATA1*
X155325000Y-112875000D03*
G04 #@! TO.P,U2,62,VDDPST_4*
G04 #@! TO.N,/3.3V*
X155325000Y-112525000D03*
G04 #@! TO.P,U2,63,GPIO32*
G04 #@! TO.N,/SD2_CLK*
X155325000Y-112175000D03*
G04 #@! TO.P,U2,64,GPIO33*
G04 #@! TO.N,/SD2_CMD*
X155325000Y-111825000D03*
G04 #@! TO.P,U2,65,GPIO34*
G04 #@! TO.N,unconnected-(U2A-GPIO34-Pad65)*
X155325000Y-111475000D03*
G04 #@! TO.P,U2,66,GPIO35*
G04 #@! TO.N,/GPIO35*
X155325000Y-111125000D03*
G04 #@! TO.P,U2,67,VDDPST*
G04 #@! TO.N,/3.3V*
X155325000Y-110775000D03*
G04 #@! TO.P,U2,68,GPIO36*
G04 #@! TO.N,Net-(U2A-GPIO36)*
X155325000Y-110425000D03*
G04 #@! TO.P,U2,69,GPIO37*
G04 #@! TO.N,/GPIO37*
X155325000Y-110075000D03*
G04 #@! TO.P,U2,70,GPIO38*
G04 #@! TO.N,/GPIO38*
X155325000Y-109725000D03*
G04 #@! TO.P,U2,71,VFB1/VO1*
G04 #@! TO.N,/VFLASH*
X155325000Y-109375000D03*
G04 #@! TO.P,U2,72,VFB2/VO2*
G04 #@! TO.N,/VPSRAM*
X155325000Y-109025000D03*
G04 #@! TO.P,U2,73,VFB3/VO3*
G04 #@! TO.N,/VMIPI*
X155325000Y-108675000D03*
G04 #@! TO.P,U2,74,VFB4/VO4*
G04 #@! TO.N,/V{slash}SDMMC*
X155325000Y-108325000D03*
G04 #@! TO.P,U2,75,VDDPST_LDO*
G04 #@! TO.N,/3.3V*
X155325000Y-107975000D03*
G04 #@! TO.P,U2,76,VDD_HP_2*
G04 #@! TO.N,/1.2V*
X155325000Y-107625000D03*
G04 #@! TO.P,U2,77,VDDPST_DCDC*
G04 #@! TO.N,/3.3V*
X155325000Y-107275000D03*
G04 #@! TO.P,U2,78,FB_DCDC*
G04 #@! TO.N,Net-(U2A-FB_DCDC)*
X155325000Y-106925000D03*
D20*
G04 #@! TO.P,U2,79,EN_DCDC*
G04 #@! TO.N,/EN_DCDC*
X154775000Y-106375000D03*
G04 #@! TO.P,U2,80,GPIO39*
G04 #@! TO.N,/SD_DATA0*
X154425000Y-106375000D03*
G04 #@! TO.P,U2,81,GPIO40*
G04 #@! TO.N,/SD_DATA1*
X154075000Y-106375000D03*
G04 #@! TO.P,U2,82,GPIO41*
G04 #@! TO.N,/SD_DATA2*
X153725000Y-106375000D03*
G04 #@! TO.P,U2,83,GPIO42*
G04 #@! TO.N,/SD_DATA3*
X153375000Y-106375000D03*
G04 #@! TO.P,U2,84,GPIO43*
G04 #@! TO.N,/SD_CLK*
X153025000Y-106375000D03*
G04 #@! TO.P,U2,85,VDDPST_5*
G04 #@! TO.N,/V{slash}SDMMC*
X152675000Y-106375000D03*
G04 #@! TO.P,U2,86,GPIO44*
G04 #@! TO.N,/SD_CMD*
X152325000Y-106375000D03*
G04 #@! TO.P,U2,87,GPIO45*
G04 #@! TO.N,unconnected-(U2A-GPIO45-Pad87)*
X151975000Y-106375000D03*
G04 #@! TO.P,U2,88,GPIO46*
G04 #@! TO.N,/SD_DET*
X151625000Y-106375000D03*
G04 #@! TO.P,U2,89,GPIO47*
G04 #@! TO.N,unconnected-(U2A-GPIO47-Pad89)*
X151275000Y-106375000D03*
G04 #@! TO.P,U2,90,GPIO48*
G04 #@! TO.N,unconnected-(U2A-GPIO48-Pad90)*
X150925000Y-106375000D03*
G04 #@! TO.P,U2,91,VDD_HP_3*
G04 #@! TO.N,/1.2V*
X150575000Y-106375000D03*
G04 #@! TO.P,U2,92,GPIO49*
G04 #@! TO.N,/REST_N*
X150225000Y-106375000D03*
G04 #@! TO.P,U2,93,GPIO50*
G04 #@! TO.N,unconnected-(U2A-GPIO50-Pad93)*
X149875000Y-106375000D03*
G04 #@! TO.P,U2,94,GPIO51*
G04 #@! TO.N,Net-(U2A-GPIO51)*
X149525000Y-106375000D03*
G04 #@! TO.P,U2,95,GPIO52*
G04 #@! TO.N,unconnected-(U2A-GPIO52-Pad95)*
X149175000Y-106375000D03*
G04 #@! TO.P,U2,96,VDDPST_6*
G04 #@! TO.N,/3.3V*
X148825000Y-106375000D03*
G04 #@! TO.P,U2,97,GPIO53*
G04 #@! TO.N,unconnected-(U2A-GPIO53-Pad97)*
X148475000Y-106375000D03*
G04 #@! TO.P,U2,98,GPIO54*
G04 #@! TO.N,unconnected-(U2A-GPIO54-Pad98)*
X148125000Y-106375000D03*
G04 #@! TO.P,U2,99,XTAL_N*
G04 #@! TO.N,Net-(U2A-XTAL_N)*
X147775000Y-106375000D03*
G04 #@! TO.P,U2,100,XTAL_P*
G04 #@! TO.N,Net-(U2A-XTAL_P)*
X147425000Y-106375000D03*
G04 #@! TO.P,U2,101,VDDA*
G04 #@! TO.N,/3.3V*
X147075000Y-106375000D03*
G04 #@! TO.P,U2,102,VBAT*
G04 #@! TO.N,/RTC*
X146725000Y-106375000D03*
G04 #@! TO.P,U2,103,CHIP_PU*
G04 #@! TO.N,/EN_ESP*
X146375000Y-106375000D03*
G04 #@! TO.P,U2,104,GPIO0*
G04 #@! TO.N,Net-(U2A-GPIO0)*
X146025000Y-106375000D03*
D21*
G04 #@! TO.P,U2,105,GND*
G04 #@! TO.N,GND*
X150400000Y-111300000D03*
G04 #@! TD*
D13*
G04 #@! TO.P,R24,1,1*
G04 #@! TO.N,GND*
X144688100Y-86163600D03*
G04 #@! TO.P,R24,2,2*
G04 #@! TO.N,/FB*
X144688100Y-86803600D03*
G04 #@! TD*
D12*
G04 #@! TO.P,R25,1,1*
G04 #@! TO.N,/FB2*
X139500000Y-96970000D03*
G04 #@! TO.P,R25,2,2*
G04 #@! TO.N,/1.2V*
X139500000Y-96330000D03*
G04 #@! TD*
D16*
G04 #@! TO.P,C16,1,1*
G04 #@! TO.N,GND*
X158720000Y-109500000D03*
G04 #@! TO.P,C16,2,2*
G04 #@! TO.N,/VPSRAM*
X158080000Y-109500000D03*
G04 #@! TD*
D12*
G04 #@! TO.P,C7,1,1*
G04 #@! TO.N,GND*
X145225000Y-117920000D03*
G04 #@! TO.P,C7,2,2*
G04 #@! TO.N,/1.2V*
X145225000Y-117280000D03*
G04 #@! TD*
D13*
G04 #@! TO.P,R28,1*
G04 #@! TO.N,/CSI_REXT*
X153470000Y-117340000D03*
G04 #@! TO.P,R28,2*
G04 #@! TO.N,GND*
X153470000Y-117980000D03*
G04 #@! TD*
D16*
G04 #@! TO.P,C15,1,1*
G04 #@! TO.N,GND*
X157320000Y-110000000D03*
G04 #@! TO.P,C15,2,2*
G04 #@! TO.N,/VFLASH*
X156680000Y-110000000D03*
G04 #@! TD*
D13*
G04 #@! TO.P,C25,1,1*
G04 #@! TO.N,GND*
X148800000Y-104680000D03*
G04 #@! TO.P,C25,2,2*
G04 #@! TO.N,/3.3V*
X148800000Y-105320000D03*
G04 #@! TD*
D14*
G04 #@! TO.P,R14,1,1*
G04 #@! TO.N,/V{slash}SDMMC*
X147380000Y-88000000D03*
G04 #@! TO.P,R14,2,2*
G04 #@! TO.N,Net-(J1-DET_A)*
X148020000Y-88000000D03*
G04 #@! TD*
G04 #@! TO.P,C9,1,1*
G04 #@! TO.N,GND*
X143780000Y-113950000D03*
G04 #@! TO.P,C9,2,2*
G04 #@! TO.N,/3.3V*
X144420000Y-113950000D03*
G04 #@! TD*
G04 #@! TO.P,R5,1,1*
G04 #@! TO.N,/3.3V*
X156780000Y-111800000D03*
G04 #@! TO.P,R5,2,2*
G04 #@! TO.N,/GPIO35*
X157420000Y-111800000D03*
G04 #@! TD*
D22*
G04 #@! TO.P,IC2,1,VIN*
G04 #@! TO.N,/USB5V*
X142512500Y-96525000D03*
G04 #@! TO.P,IC2,2,SW*
G04 #@! TO.N,Net-(IC2-SW)*
X142512500Y-96025000D03*
G04 #@! TO.P,IC2,3,GND*
G04 #@! TO.N,GND*
X142512500Y-95525000D03*
G04 #@! TO.P,IC2,4,BST*
G04 #@! TO.N,Net-(IC2-BST)*
X141087500Y-95525000D03*
G04 #@! TO.P,IC2,5,EN*
G04 #@! TO.N,/EN_DCDC*
X141087500Y-96025000D03*
G04 #@! TO.P,IC2,6,FB*
G04 #@! TO.N,/FB2*
X141087500Y-96525000D03*
G04 #@! TD*
D23*
G04 #@! TO.P,U4,1*
G04 #@! TO.N,GND*
X157751100Y-124753600D03*
G04 #@! TO.P,U4,3*
G04 #@! TO.N,/USB2HS_D+*
X157251100Y-124753600D03*
G04 #@! TO.P,U4,5*
G04 #@! TO.N,/USB2HS_D-*
X156751100Y-124753600D03*
G04 #@! TO.P,U4,7*
G04 #@! TO.N,GND*
X156251100Y-124753600D03*
G04 #@! TO.P,U4,9*
G04 #@! TO.N,/CSI_DATAP1*
X155751100Y-124753600D03*
G04 #@! TO.P,U4,11*
G04 #@! TO.N,/CSI_DATAN1*
X155251100Y-124753600D03*
G04 #@! TO.P,U4,13*
G04 #@! TO.N,GND*
X154751100Y-124753600D03*
G04 #@! TO.P,U4,15*
G04 #@! TO.N,/CSI_CLKN*
X154251100Y-124753600D03*
G04 #@! TO.P,U4,17*
G04 #@! TO.N,/CSI_CLKP*
X153751100Y-124753600D03*
G04 #@! TO.P,U4,19*
G04 #@! TO.N,GND*
X153251100Y-124753600D03*
G04 #@! TO.P,U4,21*
G04 #@! TO.N,/CSI_DATAP0*
X152751100Y-124753600D03*
G04 #@! TO.P,U4,23*
G04 #@! TO.N,/CSI_DATAN0*
X152251100Y-124753600D03*
G04 #@! TO.P,U4,25*
G04 #@! TO.N,GND*
X151751100Y-124753600D03*
G04 #@! TO.P,U4,27*
G04 #@! TO.N,/DSI_DATAN0*
X151251100Y-124753600D03*
G04 #@! TO.P,U4,29*
G04 #@! TO.N,/DSI_DATAP0*
X150751100Y-124753600D03*
G04 #@! TO.P,U4,31*
G04 #@! TO.N,GND*
X150251100Y-124753600D03*
G04 #@! TO.P,U4,33*
G04 #@! TO.N,/DSI_CLKP*
X149751100Y-124753600D03*
G04 #@! TO.P,U4,35*
G04 #@! TO.N,/DSI_CLKN*
X149251100Y-124753600D03*
G04 #@! TO.P,U4,37*
G04 #@! TO.N,GND*
X148751100Y-124753600D03*
G04 #@! TO.P,U4,39*
G04 #@! TO.N,/DSI_DATAN1*
X148251100Y-124753600D03*
G04 #@! TO.P,U4,41*
G04 #@! TO.N,/DSI_DATAP1*
X147751100Y-124753600D03*
G04 #@! TO.P,U4,43*
G04 #@! TO.N,GND*
X147251100Y-124753600D03*
G04 #@! TO.P,U4,45*
G04 #@! TO.N,/USBJTAG_D+*
X146751100Y-124753600D03*
G04 #@! TO.P,U4,47*
G04 #@! TO.N,/USBJTAG_D-*
X146251100Y-124753600D03*
G04 #@! TO.P,U4,49*
G04 #@! TO.N,GND*
X145751100Y-124753600D03*
G04 #@! TO.P,U4,51*
G04 #@! TO.N,unconnected-(U4-Pad51)*
X145251100Y-124753600D03*
G04 #@! TO.P,U4,53*
G04 #@! TO.N,unconnected-(U4-Pad53)*
X144751100Y-124753600D03*
G04 #@! TO.P,U4,55*
G04 #@! TO.N,unconnected-(U4-Pad55)*
X144251100Y-124753600D03*
G04 #@! TO.P,U4,57*
G04 #@! TO.N,unconnected-(U4-Pad57)*
X143751100Y-124753600D03*
G04 #@! TO.P,U4,67*
G04 #@! TO.N,/RTC*
X141251100Y-124753600D03*
G04 #@! TO.P,U4,69*
G04 #@! TO.N,/USB5V*
X140751100Y-124753600D03*
G04 #@! TO.P,U4,71*
X140251100Y-124753600D03*
G04 #@! TO.P,U4,73*
X139751100Y-124753600D03*
G04 #@! TO.P,U4,75*
X139251100Y-124753600D03*
D24*
G04 #@! TO.P,U4,MP,screw*
G04 #@! TO.N,GND*
X148501100Y-84003600D03*
G04 #@! TD*
D14*
G04 #@! TO.P,C4,1,1*
G04 #@! TO.N,GND*
X157530000Y-118400000D03*
G04 #@! TO.P,C4,2,2*
G04 #@! TO.N,/VMIPI*
X158170000Y-118400000D03*
G04 #@! TD*
D13*
G04 #@! TO.P,C26,1,1*
G04 #@! TO.N,GND*
X150600000Y-104680000D03*
G04 #@! TO.P,C26,2,2*
G04 #@! TO.N,/1.2V*
X150600000Y-105320000D03*
G04 #@! TD*
D14*
G04 #@! TO.P,R12,1,1*
G04 #@! TO.N,/V{slash}SDMMC*
X147380000Y-89500000D03*
G04 #@! TO.P,R12,2,2*
G04 #@! TO.N,/SD_DATA2*
X148020000Y-89500000D03*
G04 #@! TD*
G04 #@! TO.P,C13,1,1*
G04 #@! TO.N,GND*
X143830000Y-103350000D03*
G04 #@! TO.P,C13,2,2*
G04 #@! TO.N,Net-(U2A-GPIO1)*
X144470000Y-103350000D03*
G04 #@! TD*
G04 #@! TO.P,C32,1,1*
G04 #@! TO.N,Net-(IC2-SW)*
X139480000Y-95500000D03*
G04 #@! TO.P,C32,2,2*
G04 #@! TO.N,Net-(IC2-BST)*
X140120000Y-95500000D03*
G04 #@! TD*
D16*
G04 #@! TO.P,C14,1,1*
G04 #@! TO.N,GND*
X157420000Y-110900000D03*
G04 #@! TO.P,C14,2,2*
G04 #@! TO.N,/3.3V*
X156780000Y-110900000D03*
G04 #@! TD*
D13*
G04 #@! TO.P,R31,1,1*
G04 #@! TO.N,/RTS*
X139550000Y-102285000D03*
G04 #@! TO.P,R31,2,2*
G04 #@! TO.N,Net-(Q2B-B2)*
X139550000Y-102925000D03*
G04 #@! TD*
D14*
G04 #@! TO.P,R30,1,1*
G04 #@! TO.N,/DTR*
X140330000Y-102842500D03*
G04 #@! TO.P,R30,2,2*
G04 #@! TO.N,Net-(Q2A-B1)*
X140970000Y-102842500D03*
G04 #@! TD*
D25*
G04 #@! TO.P,L2,1,1*
G04 #@! TO.N,/1.2V*
X144600000Y-93625000D03*
G04 #@! TO.P,L2,2,2*
G04 #@! TO.N,Net-(IC2-SW)*
X144600000Y-95275000D03*
G04 #@! TD*
D26*
G04 #@! TO.P,D3,1,K*
G04 #@! TO.N,GND*
X138750000Y-86737500D03*
G04 #@! TO.P,D3,2,A*
G04 #@! TO.N,Net-(D3-A)*
X138750000Y-85162500D03*
G04 #@! TD*
D13*
G04 #@! TO.P,R3,1,1*
G04 #@! TO.N,/FLASH_CS*
X146000000Y-117280000D03*
G04 #@! TO.P,R3,2,2*
G04 #@! TO.N,/VFLASH*
X146000000Y-117920000D03*
G04 #@! TD*
G04 #@! TO.P,R23,1,1*
G04 #@! TO.N,/FB2*
X140250000Y-98310000D03*
G04 #@! TO.P,R23,2,2*
G04 #@! TO.N,Net-(U2A-FB_DCDC)*
X140250000Y-98950000D03*
G04 #@! TD*
G04 #@! TO.P,C2,1,1*
G04 #@! TO.N,GND*
X138150000Y-105780000D03*
G04 #@! TO.P,C2,2,2*
G04 #@! TO.N,Net-(U5-V3)*
X138150000Y-106420000D03*
G04 #@! TD*
G04 #@! TO.P,R2,1,1*
G04 #@! TO.N,Net-(J2-CC2)*
X141800000Y-101360000D03*
G04 #@! TO.P,R2,2,2*
G04 #@! TO.N,GND*
X141800000Y-102000000D03*
G04 #@! TD*
D15*
G04 #@! TO.P,C37,1,1*
G04 #@! TO.N,/USB5V*
X143575000Y-97750000D03*
G04 #@! TO.P,C37,2,2*
G04 #@! TO.N,GND*
X142025000Y-97750000D03*
G04 #@! TD*
D27*
G04 #@! TO.P,Y1,1,1*
G04 #@! TO.N,Net-(U2A-GPIO1)*
X144500000Y-102200000D03*
G04 #@! TO.P,Y1,2,2*
G04 #@! TO.N,Net-(U2A-GPIO0)*
X144500000Y-99700000D03*
G04 #@! TD*
D28*
G04 #@! TO.P,C46,1,1*
G04 #@! TO.N,/3.3V*
X143425000Y-91400000D03*
G04 #@! TO.P,C46,2,2*
G04 #@! TO.N,GND*
X144975000Y-91400000D03*
G04 #@! TD*
D14*
G04 #@! TO.P,R13,1,1*
G04 #@! TO.N,/V{slash}SDMMC*
X147380000Y-90900000D03*
G04 #@! TO.P,R13,2,2*
G04 #@! TO.N,/SD_DATA3*
X148020000Y-90900000D03*
G04 #@! TD*
D13*
G04 #@! TO.P,C29,1,1*
G04 #@! TO.N,Net-(U2A-XTAL_N)*
X149600000Y-102580000D03*
G04 #@! TO.P,C29,2,2*
G04 #@! TO.N,GND*
X149600000Y-103220000D03*
G04 #@! TD*
D12*
G04 #@! TO.P,C21,1,1*
G04 #@! TO.N,GND*
X146100000Y-100220000D03*
G04 #@! TO.P,C21,2,2*
G04 #@! TO.N,Net-(U2A-GPIO0)*
X146100000Y-99580000D03*
G04 #@! TD*
G04 #@! TO.P,R1,1,1*
G04 #@! TO.N,Net-(J2-CC1)*
X142350000Y-103470000D03*
G04 #@! TO.P,R1,2,2*
G04 #@! TO.N,GND*
X142350000Y-102830000D03*
G04 #@! TD*
D15*
G04 #@! TO.P,C34,1,1*
G04 #@! TO.N,/1.2V*
X142300000Y-92875000D03*
G04 #@! TO.P,C34,2,2*
G04 #@! TO.N,GND*
X140750000Y-92875000D03*
G04 #@! TD*
D13*
G04 #@! TO.P,C23,1,1*
G04 #@! TO.N,GND*
X146400000Y-104430000D03*
G04 #@! TO.P,C23,2,2*
G04 #@! TO.N,/RTC*
X146400000Y-105070000D03*
G04 #@! TD*
D29*
G04 #@! TO.P,L1,1,1*
G04 #@! TO.N,/3.3V*
X140138100Y-91233600D03*
G04 #@! TO.P,L1,2,2*
G04 #@! TO.N,Net-(IC4-SW)*
X140138100Y-88433600D03*
G04 #@! TD*
D12*
G04 #@! TO.P,C50,1,1*
G04 #@! TO.N,GND*
X138050000Y-104720000D03*
G04 #@! TO.P,C50,2,2*
G04 #@! TO.N,/USB5V*
X138050000Y-104080000D03*
G04 #@! TD*
D30*
G04 #@! TO.P,IC1,1,CS#*
G04 #@! TO.N,/FLASH_CS*
X138550000Y-115940000D03*
G04 #@! TO.P,IC1,2,SO_(IO1)*
G04 #@! TO.N,/FLASH_Q*
X138550000Y-117210000D03*
G04 #@! TO.P,IC1,3,WP#_(IO2)*
G04 #@! TO.N,/FLASH_WP*
X138550000Y-118480000D03*
G04 #@! TO.P,IC1,4,VSS*
G04 #@! TO.N,GND*
X138550000Y-119750000D03*
G04 #@! TO.P,IC1,5,SI_(IO0)*
G04 #@! TO.N,/FLASH_D*
X143875000Y-119750000D03*
G04 #@! TO.P,IC1,6,SCLK*
G04 #@! TO.N,/FLASH_CK*
X143875000Y-118480000D03*
G04 #@! TO.P,IC1,7,HOLD#/_RESET#_(IO3)*
G04 #@! TO.N,/FLASH_HOLD*
X143875000Y-117210000D03*
G04 #@! TO.P,IC1,8,VCC*
G04 #@! TO.N,/VFLASH*
X143875000Y-115940000D03*
D31*
G04 #@! TO.P,IC1,9,EP*
G04 #@! TO.N,GND*
X141212500Y-117845000D03*
G04 #@! TD*
D16*
G04 #@! TO.P,C5,1,1*
G04 #@! TO.N,GND*
X157060000Y-116520000D03*
G04 #@! TO.P,C5,2,2*
G04 #@! TO.N,/3.3V*
X156420000Y-116520000D03*
G04 #@! TD*
G04 #@! TO.P,C10,1,1*
G04 #@! TO.N,GND*
X157420000Y-113700000D03*
G04 #@! TO.P,C10,2,2*
G04 #@! TO.N,/3.3V*
X156780000Y-113700000D03*
G04 #@! TD*
G04 #@! TO.P,C17,1,1*
G04 #@! TO.N,GND*
X157320000Y-108900000D03*
G04 #@! TO.P,C17,2,2*
G04 #@! TO.N,/VMIPI*
X156680000Y-108900000D03*
G04 #@! TD*
D32*
G04 #@! TO.P,Y2,1,1*
G04 #@! TO.N,Net-(U2A-XTAL_P)*
X147400000Y-101950000D03*
G04 #@! TO.P,Y2,2,2*
G04 #@! TO.N,GND*
X147400000Y-103350000D03*
G04 #@! TO.P,Y2,3,3*
G04 #@! TO.N,Net-(U2A-XTAL_N)*
X148500000Y-103350000D03*
G04 #@! TO.P,Y2,4,4*
G04 #@! TO.N,GND*
X148500000Y-101950000D03*
G04 #@! TD*
D33*
G04 #@! TO.P,IC4,1,VIN*
G04 #@! TO.N,/USB5V*
X143125600Y-87733600D03*
G04 #@! TO.P,IC4,2,SW*
G04 #@! TO.N,Net-(IC4-SW)*
X143125600Y-88233600D03*
G04 #@! TO.P,IC4,3,GND*
G04 #@! TO.N,GND*
X143125600Y-88733600D03*
G04 #@! TO.P,IC4,4,BST*
G04 #@! TO.N,Net-(IC4-BST)*
X144550600Y-88733600D03*
G04 #@! TO.P,IC4,5,EN*
G04 #@! TO.N,/USB5V*
X144550600Y-88233600D03*
G04 #@! TO.P,IC4,6,FB*
G04 #@! TO.N,/FB*
X144550600Y-87733600D03*
G04 #@! TD*
D16*
G04 #@! TO.P,C19,1,1*
G04 #@! TO.N,GND*
X157320000Y-107900000D03*
G04 #@! TO.P,C19,2,2*
G04 #@! TO.N,/3.3V*
X156680000Y-107900000D03*
G04 #@! TD*
D28*
G04 #@! TO.P,C49,1,1*
G04 #@! TO.N,/USB5V*
X141725000Y-86450000D03*
G04 #@! TO.P,C49,2,2*
G04 #@! TO.N,GND*
X143275000Y-86450000D03*
G04 #@! TD*
D16*
G04 #@! TO.P,C12,1,1*
G04 #@! TO.N,GND*
X157420000Y-112600000D03*
G04 #@! TO.P,C12,2,2*
G04 #@! TO.N,/3.3V*
X156780000Y-112600000D03*
G04 #@! TD*
D13*
G04 #@! TO.P,C27,1,1*
G04 #@! TO.N,GND*
X152900000Y-103980000D03*
G04 #@! TO.P,C27,2,2*
G04 #@! TO.N,/V{slash}SDMMC*
X152900000Y-104620000D03*
G04 #@! TD*
D12*
G04 #@! TO.P,R27,1,1*
G04 #@! TO.N,Net-(U2A-GPIO51)*
X149500000Y-105290000D03*
G04 #@! TO.P,R27,2,2*
G04 #@! TO.N,Net-(D1-A)*
X149500000Y-104650000D03*
G04 #@! TD*
D16*
G04 #@! TO.P,C22,1,1*
G04 #@! TO.N,GND*
X157320000Y-106500000D03*
G04 #@! TO.P,C22,2,2*
G04 #@! TO.N,/3.3V*
X156680000Y-106500000D03*
G04 #@! TD*
D34*
G04 #@! TO.P,Q2,1,E1*
G04 #@! TO.N,/RTS*
X139300000Y-105892500D03*
G04 #@! TO.P,Q2,2,B1*
G04 #@! TO.N,Net-(Q2A-B1)*
X139950000Y-105892500D03*
G04 #@! TO.P,Q2,3,C2*
G04 #@! TO.N,/EN_ESP*
X140600000Y-105892500D03*
G04 #@! TO.P,Q2,4,E2*
G04 #@! TO.N,/DTR*
X140600000Y-103992500D03*
G04 #@! TO.P,Q2,5,B2*
G04 #@! TO.N,Net-(Q2B-B2)*
X139950000Y-103992500D03*
G04 #@! TO.P,Q2,6,C1*
G04 #@! TO.N,/GPIO35*
X139300000Y-103992500D03*
G04 #@! TD*
D14*
G04 #@! TO.P,R9,1,1*
G04 #@! TO.N,Net-(D3-A)*
X140030000Y-84850000D03*
G04 #@! TO.P,R9,2,2*
G04 #@! TO.N,/USB5V*
X140670000Y-84850000D03*
G04 #@! TD*
D16*
G04 #@! TO.P,C18,1,1*
G04 #@! TO.N,GND*
X158720000Y-108300000D03*
G04 #@! TO.P,C18,2,2*
G04 #@! TO.N,/V{slash}SDMMC*
X158080000Y-108300000D03*
G04 #@! TD*
D14*
G04 #@! TO.P,C38,1,1*
G04 #@! TO.N,/V{slash}SDMMC*
X147380000Y-95600000D03*
G04 #@! TO.P,C38,2,2*
G04 #@! TO.N,GND*
X148020000Y-95600000D03*
G04 #@! TD*
G04 #@! TO.P,R19,1,1*
G04 #@! TO.N,/V{slash}SDMMC*
X147380000Y-91800000D03*
G04 #@! TO.P,R19,2,2*
G04 #@! TO.N,/SD_CMD*
X148020000Y-91800000D03*
G04 #@! TD*
D13*
G04 #@! TO.P,R8,1,1*
G04 #@! TO.N,Net-(U2A-GPIO36)*
X158500000Y-110580000D03*
G04 #@! TO.P,R8,2,2*
G04 #@! TO.N,/3.3V*
X158500000Y-111220000D03*
G04 #@! TD*
D14*
G04 #@! TO.P,R11,1,1*
G04 #@! TO.N,/V{slash}SDMMC*
X147380000Y-97900000D03*
G04 #@! TO.P,R11,2,2*
G04 #@! TO.N,/SD_DATA1*
X148020000Y-97900000D03*
G04 #@! TD*
D13*
G04 #@! TO.P,R4,1,1*
G04 #@! TO.N,/3.3V*
X143800000Y-104080000D03*
G04 #@! TO.P,R4,2,2*
G04 #@! TO.N,/EN_ESP*
X143800000Y-104720000D03*
G04 #@! TD*
G04 #@! TO.P,C24,1,1*
G04 #@! TO.N,GND*
X147200000Y-104680000D03*
G04 #@! TO.P,C24,2,2*
G04 #@! TO.N,/3.3V*
X147200000Y-105320000D03*
G04 #@! TD*
D16*
G04 #@! TO.P,R29,1*
G04 #@! TO.N,/DSI_REXT*
X148090000Y-120750000D03*
G04 #@! TO.P,R29,2*
G04 #@! TO.N,GND*
X147450000Y-120750000D03*
G04 #@! TD*
D35*
G04 #@! TO.P,D2,1,K*
G04 #@! TO.N,/USB5V*
X138700000Y-101000000D03*
G04 #@! TO.P,D2,2,A*
G04 #@! TO.N,Net-(D2-A)*
X138700000Y-98200000D03*
G04 #@! TD*
D36*
G04 #@! TO.P,U5,1,UD+*
G04 #@! TO.N,/USBJTAG_D+*
X138300000Y-113237500D03*
G04 #@! TO.P,U5,2,UD-*
G04 #@! TO.N,/USBJTAG_D-*
X139300000Y-113237500D03*
G04 #@! TO.P,U5,3,GND*
G04 #@! TO.N,GND*
X140300000Y-113237500D03*
G04 #@! TO.P,U5,4,~{DTR}*
G04 #@! TO.N,/DTR*
X141300000Y-113237500D03*
G04 #@! TO.P,U5,5,~{CTS}*
G04 #@! TO.N,unconnected-(U5-~{CTS}-Pad5)*
X142300000Y-113237500D03*
G04 #@! TO.P,U5,6,~{RTS}*
G04 #@! TO.N,/RTS*
X142300000Y-107962500D03*
G04 #@! TO.P,U5,7,VCC*
G04 #@! TO.N,/USB5V*
X141300000Y-107962500D03*
G04 #@! TO.P,U5,8,TXD*
G04 #@! TO.N,/GPIO38*
X140300000Y-107962500D03*
G04 #@! TO.P,U5,9,RXD*
G04 #@! TO.N,/GPIO37*
X139300000Y-107962500D03*
G04 #@! TO.P,U5,10,V3*
G04 #@! TO.N,Net-(U5-V3)*
X138300000Y-107962500D03*
D37*
G04 #@! TO.P,U5,11,GND*
G04 #@! TO.N,GND*
X140300000Y-110600000D03*
G04 #@! TD*
D38*
G04 #@! TO.P,D1,1,K*
G04 #@! TO.N,GND*
X150500000Y-102230000D03*
G04 #@! TO.P,D1,2,A*
G04 #@! TO.N,Net-(D1-A)*
X150500000Y-103200000D03*
G04 #@! TD*
D16*
G04 #@! TO.P,C20,1,1*
G04 #@! TO.N,GND*
X158740000Y-107100000D03*
G04 #@! TO.P,C20,2,2*
G04 #@! TO.N,/1.2V*
X158100000Y-107100000D03*
G04 #@! TD*
D28*
G04 #@! TO.P,C47,1,1*
G04 #@! TO.N,/3.3V*
X143400000Y-89925000D03*
G04 #@! TO.P,C47,2,2*
G04 #@! TO.N,GND*
X144950000Y-89925000D03*
G04 #@! TD*
D12*
G04 #@! TO.P,C48,1,1*
G04 #@! TO.N,Net-(IC4-SW)*
X146000000Y-88800000D03*
G04 #@! TO.P,C48,2,2*
G04 #@! TO.N,Net-(IC4-BST)*
X146000000Y-88160000D03*
G04 #@! TD*
D13*
G04 #@! TO.P,C6,1,1*
G04 #@! TO.N,GND*
X143100000Y-104080000D03*
G04 #@! TO.P,C6,2,2*
G04 #@! TO.N,/EN_ESP*
X143100000Y-104720000D03*
G04 #@! TD*
D39*
G04 #@! TO.N,/3.3V*
X156700000Y-113200000D03*
X146200000Y-114400000D03*
X154436801Y-115376801D03*
X147200000Y-107100000D03*
X155600000Y-116500000D03*
X154600000Y-110650003D03*
X142000000Y-121500000D03*
X156650000Y-106050000D03*
X140950000Y-90000000D03*
X156100000Y-112374997D03*
X146200000Y-109800000D03*
X144750000Y-104100000D03*
X143900000Y-85150000D03*
X139650000Y-90000000D03*
X141400000Y-121500000D03*
X140300000Y-90000000D03*
X156961297Y-107376000D03*
X140800000Y-122700000D03*
X158800000Y-112300000D03*
X142700000Y-91650000D03*
X141100000Y-122100000D03*
X140800000Y-121500000D03*
X139000000Y-90000000D03*
G04 #@! TO.N,/EN_ESP*
X145851693Y-104727563D03*
X144600000Y-104700000D03*
G04 #@! TO.N,/1.2V*
X142018378Y-114838366D03*
X146750000Y-93350000D03*
X146750000Y-92750000D03*
X140004896Y-96501548D03*
X143000000Y-93550000D03*
X146750000Y-93950000D03*
X158250000Y-105300000D03*
X150750000Y-107100000D03*
G04 #@! TO.N,/GPIO35*
X144025002Y-107150000D03*
X141100000Y-104500000D03*
X154600000Y-111299000D03*
G04 #@! TO.N,/VFLASH*
X156050000Y-109900000D03*
X145500000Y-118550000D03*
X144400000Y-115525000D03*
G04 #@! TO.N,/VMIPI*
X158750000Y-118400000D03*
X150900000Y-115450000D03*
X154525002Y-108700000D03*
G04 #@! TO.N,/V{slash}SDMMC*
X158100000Y-107800000D03*
X152000000Y-93400000D03*
G04 #@! TO.N,Net-(U2A-GPIO0)*
X145500000Y-99000000D03*
X145200000Y-103200000D03*
G04 #@! TO.N,/RTC*
X146600000Y-105450000D03*
X144025002Y-107900000D03*
X143000000Y-122000000D03*
G04 #@! TO.N,GND*
X143688100Y-88983600D03*
X141750000Y-102800000D03*
X138350000Y-110600000D03*
X158050000Y-119600000D03*
X150501000Y-103900000D03*
X158200000Y-101400000D03*
X144538100Y-89333600D03*
X148750000Y-122900000D03*
X138150000Y-105300000D03*
X151950000Y-108150000D03*
X151400000Y-95600000D03*
X156800000Y-115900000D03*
X146200000Y-102000000D03*
X139400000Y-92800000D03*
X157950000Y-113250000D03*
X149300000Y-109850000D03*
X144650000Y-117250000D03*
X153100000Y-103300000D03*
X145750000Y-122900000D03*
X149500000Y-101700000D03*
X138175000Y-86150000D03*
X154300000Y-118600000D03*
X138500000Y-93700000D03*
X157902898Y-106101999D03*
X158700000Y-108900000D03*
X141800000Y-96300000D03*
X142838100Y-86033600D03*
X147200000Y-109850000D03*
X146250000Y-84550000D03*
X157546009Y-107510590D03*
X144650000Y-97300000D03*
X153250000Y-111000000D03*
X157750000Y-122900000D03*
X138350000Y-109900000D03*
X152950000Y-109100000D03*
X143825000Y-87275000D03*
D40*
X141178750Y-117878750D03*
D39*
X141150000Y-119600000D03*
X150700000Y-84550000D03*
X153250000Y-111900000D03*
X149350000Y-114200000D03*
X149600000Y-103800000D03*
X141000000Y-99500000D03*
X147100000Y-118450000D03*
X145588100Y-90733600D03*
X157900000Y-108900000D03*
X150250000Y-122900000D03*
X150050000Y-110250000D03*
X141000000Y-98000000D03*
X142838100Y-86833600D03*
X154750000Y-122900000D03*
X147400000Y-114350000D03*
X139400000Y-93700000D03*
X138000000Y-97200000D03*
X138350000Y-111300000D03*
X138500000Y-92800000D03*
X145950000Y-103900000D03*
X156250000Y-122900000D03*
X146920000Y-120750000D03*
X143000000Y-108500000D03*
X148200000Y-109850000D03*
X156300000Y-85700000D03*
X148500000Y-86300000D03*
X147250000Y-122900000D03*
X150900000Y-111100000D03*
X153250000Y-122900000D03*
X158700000Y-107700000D03*
X143000000Y-107900000D03*
X151750000Y-122900000D03*
X157900000Y-111300000D03*
G04 #@! TO.N,Net-(IC2-SW)*
X143500000Y-94900000D03*
X138850000Y-95450000D03*
G04 #@! TO.N,/USB5V*
X140850000Y-86350000D03*
X143300000Y-96500000D03*
X139150000Y-122450000D03*
X138050000Y-103350000D03*
X140350000Y-85850000D03*
D40*
X138150000Y-121350000D03*
D39*
X139500000Y-121850000D03*
X140350000Y-86900000D03*
X138400000Y-100700000D03*
X145488100Y-87583600D03*
X143850000Y-96500000D03*
X141300000Y-106250000D03*
X138400000Y-101300000D03*
X140900000Y-87200000D03*
X139000000Y-101300000D03*
X139000000Y-100700000D03*
X138800000Y-121950000D03*
G04 #@! TO.N,Net-(IC4-SW)*
X142200000Y-88000000D03*
X146350000Y-89250000D03*
G04 #@! TO.N,/USBJTAG_D+*
X139425000Y-120473800D03*
X140900000Y-115151200D03*
X139525000Y-115151200D03*
G04 #@! TO.N,/USBJTAG_D-*
X139425000Y-121076200D03*
X140900000Y-114548800D03*
X139525000Y-114548800D03*
G04 #@! TO.N,/FLASH_CS*
X145500000Y-116200000D03*
X141750000Y-115375000D03*
X139177673Y-115676131D03*
G04 #@! TO.N,/FLASH_Q*
X139137498Y-117225000D03*
X146199140Y-115556944D03*
G04 #@! TO.N,/FLASH_HOLD*
X147050000Y-119150000D03*
X147647895Y-115541679D03*
G04 #@! TO.N,/FLASH_WP*
X139137498Y-118475000D03*
X146075000Y-118800000D03*
G04 #@! TO.N,/EN_DCDC*
X155300000Y-105850000D03*
X140425220Y-96073376D03*
G04 #@! TO.N,/DTR*
X140000000Y-101300000D03*
X141525000Y-114496928D03*
G04 #@! TO.N,/RTS*
X141100000Y-105200000D03*
X142700000Y-109675002D03*
X139200000Y-105200000D03*
G04 #@! TO.N,/GPIO37*
X144550002Y-106600000D03*
X158075000Y-114150000D03*
X139400000Y-106744998D03*
X154600000Y-110050000D03*
G04 #@! TO.N,/GPIO38*
X144800000Y-105950000D03*
X154600000Y-109300000D03*
X156700000Y-105100000D03*
G04 #@! TO.N,/SD_DATA0*
X156200000Y-97000000D03*
X151300000Y-96800000D03*
G04 #@! TO.N,/SD_DET*
X149700000Y-99000000D03*
X151400000Y-89100000D03*
G04 #@! TO.N,/SD_CMD*
X150600000Y-99000000D03*
X151600000Y-92400000D03*
G04 #@! TO.N,/GPIO22*
X144837724Y-114935367D03*
G04 #@! TO.N,/I2S_LRCK*
X158700000Y-116200000D03*
G04 #@! TO.N,/GPIO19*
X146274998Y-113600000D03*
G04 #@! TO.N,/GPIO20*
X144400000Y-114525000D03*
G04 #@! TO.N,/GPIO2*
X146200000Y-107200000D03*
G04 #@! TO.N,/GPIO12*
X146200000Y-111000003D03*
G04 #@! TO.N,/GPIO9*
X144100000Y-111700000D03*
G04 #@! TO.N,/GPIO4*
X146200000Y-107900000D03*
G04 #@! TO.N,/GPIO16*
X146200000Y-112550000D03*
G04 #@! TO.N,/GPIO8*
X146200000Y-109200003D03*
G04 #@! TO.N,/I2S_DATA*
X158600000Y-117100000D03*
G04 #@! TO.N,/GPIO3*
X142500000Y-110600000D03*
G04 #@! TO.N,/GPIO6*
X146200000Y-108600000D03*
G04 #@! TO.N,/GPIO7*
X143700000Y-110800000D03*
G04 #@! TO.N,/GPIO14*
X144700000Y-111800000D03*
G04 #@! TO.N,/GPIO13*
X144775397Y-111098866D03*
G04 #@! TO.N,/GPIO5*
X143150000Y-111400000D03*
G04 #@! TO.N,/GPIO15*
X144600000Y-112400000D03*
G04 #@! TO.N,/GPIO18*
X144757773Y-113420918D03*
G04 #@! TO.N,/I2S_MCLK*
X158250000Y-115300000D03*
G04 #@! TO.N,/GPIO17*
X144377165Y-112957088D03*
G04 #@! TO.N,/GPIO10*
X146200000Y-110400000D03*
G04 #@! TO.N,/I2S_SCLK*
X157700000Y-115700000D03*
G04 #@! TO.N,Net-(D2-A)*
X141700000Y-104300000D03*
X138700000Y-99600000D03*
X141300000Y-100800000D03*
G04 #@! TO.N,Net-(J2-CC1)*
X142375000Y-104400000D03*
G04 #@! TO.N,Net-(J2-CC2)*
X142350000Y-101350000D03*
G04 #@! TO.N,Net-(Q2A-B1)*
X140600000Y-102100000D03*
X138800000Y-102800000D03*
G04 #@! TO.N,/SD2_DATA1*
X156100000Y-112975000D03*
G04 #@! TO.N,/SD2_DATA2*
X154700000Y-113200000D03*
G04 #@! TO.N,/SD2_CLK*
X154650000Y-112200000D03*
G04 #@! TO.N,/SD2_CMD*
X156038382Y-111772027D03*
G04 #@! TO.N,/SD2_DATA0*
X156100000Y-114150000D03*
G04 #@! TO.N,/SD2_DATA3*
X154700000Y-113900000D03*
G04 #@! TO.N,Net-(U2A-FB_DCDC)*
X155850000Y-106400000D03*
X145550000Y-98350000D03*
G04 #@! TO.N,/SD_DATA1*
X151300000Y-97900000D03*
X155600000Y-99200000D03*
G04 #@! TD*
D41*
G04 #@! TO.N,/3.3V*
X156680000Y-106080000D02*
X156650000Y-106050000D01*
X155325000Y-110775000D02*
X154625000Y-110775000D01*
X157400000Y-105720000D02*
X156980000Y-105720000D01*
X145475000Y-113925000D02*
X144445000Y-113925000D01*
X158800000Y-111500000D02*
X158800000Y-112300000D01*
X154724997Y-110775000D02*
X154600000Y-110650003D01*
X145809386Y-113925000D02*
X146200000Y-114315614D01*
X155325000Y-107975000D02*
X156100000Y-107975000D01*
X154425000Y-115388602D02*
X154436801Y-115376801D01*
X154425000Y-116225000D02*
X154425000Y-115388602D01*
X145475000Y-113925000D02*
X145809386Y-113925000D01*
X148825000Y-106375000D02*
X148825000Y-107025000D01*
X147075000Y-116225000D02*
X147075000Y-117255000D01*
X148825000Y-105345000D02*
X148800000Y-105320000D01*
X156675000Y-113575000D02*
X156800000Y-113700000D01*
X155325000Y-113575000D02*
X156675000Y-113575000D01*
D42*
X145150000Y-85150000D02*
X143900000Y-85150000D01*
D41*
X147075000Y-106975000D02*
X147200000Y-107100000D01*
X147075000Y-106375000D02*
X147075000Y-106975000D01*
X156800000Y-111800000D02*
X156800000Y-112600000D01*
X156680000Y-106500000D02*
X156680000Y-106080000D01*
X156961297Y-107376000D02*
X156680000Y-107657297D01*
X158800000Y-112300000D02*
X158800000Y-113355000D01*
X156100000Y-107975000D02*
X156605000Y-107975000D01*
X156680000Y-107657297D02*
X156680000Y-107900000D01*
X156200000Y-110900000D02*
X156780000Y-110900000D01*
X155949997Y-112525000D02*
X156100000Y-112374997D01*
X146200000Y-114400000D02*
X146200000Y-114919993D01*
X146125000Y-109725000D02*
X146200000Y-109800000D01*
X156800000Y-113700000D02*
X156800000Y-113300000D01*
X155325000Y-112525000D02*
X156725000Y-112525000D01*
X158800000Y-112300000D02*
X158800000Y-113305000D01*
X156725000Y-112525000D02*
X156800000Y-112600000D01*
X155325000Y-110775000D02*
X154724997Y-110775000D01*
X155325000Y-107275000D02*
X155925000Y-107275000D01*
X155620000Y-116520000D02*
X155600000Y-116500000D01*
X155325000Y-110775000D02*
X156075000Y-110775000D01*
X143800000Y-104080000D02*
X144730000Y-104080000D01*
X145475000Y-109725000D02*
X146125000Y-109725000D01*
X156800000Y-113300000D02*
X156700000Y-113200000D01*
X156980000Y-105720000D02*
X156650000Y-106050000D01*
X144445000Y-113925000D02*
X144420000Y-113950000D01*
D42*
X145150000Y-85150000D02*
X145438100Y-85438100D01*
D41*
X148750000Y-107100000D02*
X147200000Y-107100000D01*
X144730000Y-104080000D02*
X144750000Y-104100000D01*
X147075000Y-105445000D02*
X147200000Y-105320000D01*
X146200000Y-114919993D02*
X147075000Y-115794993D01*
X156680000Y-106520000D02*
X156680000Y-106500000D01*
X148825000Y-106375000D02*
X148825000Y-105345000D01*
X146200000Y-114315614D02*
X146200000Y-114400000D01*
X147075000Y-106375000D02*
X147075000Y-105445000D01*
X158500000Y-111200000D02*
X158800000Y-111500000D01*
X158800000Y-113305000D02*
X158650000Y-113455000D01*
D42*
X145438100Y-86163600D02*
X145438100Y-85438100D01*
D41*
X156420000Y-116520000D02*
X155620000Y-116520000D01*
X147075000Y-115794993D02*
X147075000Y-116225000D01*
X156100000Y-107975000D02*
X156405000Y-107975000D01*
X156075000Y-110775000D02*
X156200000Y-110900000D01*
X147075000Y-117255000D02*
X147100000Y-117280000D01*
X155325000Y-112525000D02*
X155949997Y-112525000D01*
X155925000Y-107275000D02*
X156680000Y-106520000D01*
X148825000Y-107025000D02*
X148750000Y-107100000D01*
G04 #@! TO.N,/EN_ESP*
X140600000Y-105892500D02*
X140693500Y-105799000D01*
X141300000Y-105799000D02*
X141749500Y-105349500D01*
X143820000Y-104700000D02*
X143800000Y-104720000D01*
X146375000Y-106375000D02*
X146375000Y-106000000D01*
X144600000Y-104700000D02*
X143820000Y-104700000D01*
X143800000Y-104720000D02*
X143100000Y-104720000D01*
X145851693Y-105351693D02*
X145851693Y-104727563D01*
X146375000Y-106000000D02*
X146375000Y-105875000D01*
X146375000Y-105875000D02*
X145851693Y-105351693D01*
X146375000Y-106000000D02*
X146375000Y-105932107D01*
X141749500Y-105349500D02*
X142470500Y-105349500D01*
X142470500Y-105349500D02*
X143100000Y-104720000D01*
X140693500Y-105799000D02*
X141300000Y-105799000D01*
D42*
G04 #@! TO.N,/1.2V*
X142600000Y-115100000D02*
X142300000Y-114800000D01*
X143400000Y-116500000D02*
X145025000Y-116500000D01*
D41*
X139500000Y-96330000D02*
X139833348Y-96330000D01*
D42*
X158400000Y-106450000D02*
X158400000Y-105450000D01*
D41*
X150575000Y-106375000D02*
X150575000Y-105345000D01*
D42*
X145475000Y-115675000D02*
X145125000Y-115675000D01*
X143400000Y-116500000D02*
X143175000Y-116275000D01*
D41*
X156061196Y-107625000D02*
X156760196Y-106926000D01*
D42*
X158400000Y-105450000D02*
X158250000Y-105300000D01*
X145025000Y-116500000D02*
X145225000Y-116700000D01*
D41*
X157870001Y-107100000D02*
X158100000Y-107100000D01*
D42*
X142600000Y-115100000D02*
X142338366Y-114838366D01*
X143175000Y-116275000D02*
X143175000Y-115675000D01*
D41*
X156760196Y-106926000D02*
X157696001Y-106926000D01*
D42*
X145025000Y-115775000D02*
X145025000Y-116500000D01*
D41*
X150575000Y-105345000D02*
X150600000Y-105320000D01*
X139833348Y-96330000D02*
X140004896Y-96501548D01*
D42*
X142338366Y-114838366D02*
X142018378Y-114838366D01*
X158100000Y-107100000D02*
X158100000Y-106750000D01*
D41*
X150575000Y-106375000D02*
X150575000Y-106925000D01*
X157696001Y-106926000D02*
X157870001Y-107100000D01*
D42*
X143175000Y-115675000D02*
X142600000Y-115100000D01*
X145125000Y-115675000D02*
X145025000Y-115775000D01*
D41*
X155325000Y-107625000D02*
X156061196Y-107625000D01*
D42*
X145225000Y-116700000D02*
X145225000Y-117280000D01*
D41*
X150575000Y-106925000D02*
X150750000Y-107100000D01*
D42*
X158100000Y-106750000D02*
X158400000Y-106450000D01*
D41*
G04 #@! TO.N,/GPIO35*
X158000000Y-111800000D02*
X158200000Y-112000000D01*
X155999322Y-111125000D02*
X156248322Y-111374000D01*
X157400000Y-111800000D02*
X158000000Y-111800000D01*
X157420000Y-111600001D02*
X157420000Y-111800000D01*
X141056500Y-104543500D02*
X141100000Y-104500000D01*
X154774000Y-111125000D02*
X154600000Y-111299000D01*
X139300000Y-104168629D02*
X139674871Y-104543500D01*
X155325000Y-111125000D02*
X154774000Y-111125000D01*
X156248322Y-111374000D02*
X157193999Y-111374000D01*
X157193999Y-111374000D02*
X157420000Y-111600001D01*
X139300000Y-103992500D02*
X139300000Y-104168629D01*
X155325000Y-111125000D02*
X155999322Y-111125000D01*
X139674871Y-104543500D02*
X141056500Y-104543500D01*
G04 #@! TO.N,Net-(U2A-GPIO1)*
X145475000Y-105899264D02*
X145475000Y-106925000D01*
X145100000Y-105524264D02*
X145475000Y-105899264D01*
X144650000Y-103170000D02*
X144470000Y-103350000D01*
X144699999Y-103350000D02*
X145200000Y-103850001D01*
X145100000Y-104407107D02*
X145100000Y-105524264D01*
X145200000Y-104307107D02*
X145100000Y-104407107D01*
X144650000Y-102200000D02*
X144650000Y-103170000D01*
X144470000Y-103350000D02*
X144699999Y-103350000D01*
X145200000Y-103850001D02*
X145200000Y-104307107D01*
G04 #@! TO.N,/VFLASH*
X143985000Y-115940000D02*
X144400000Y-115525000D01*
X143875000Y-115940000D02*
X143985000Y-115940000D01*
X155775000Y-109375000D02*
X156250000Y-109850000D01*
D42*
X156100000Y-109850000D02*
X156050000Y-109900000D01*
D41*
X156400000Y-110000000D02*
X156680000Y-110000000D01*
D42*
X156250000Y-109850000D02*
X156100000Y-109850000D01*
D41*
X156250000Y-109850000D02*
X156400000Y-110000000D01*
D42*
X146000000Y-118050000D02*
X145500000Y-118550000D01*
D41*
X155325000Y-109375000D02*
X155775000Y-109375000D01*
D42*
X146000000Y-117920000D02*
X146000000Y-118050000D01*
D41*
G04 #@! TO.N,/VPSRAM*
X156400000Y-109500000D02*
X158080000Y-109500000D01*
X155925000Y-109025000D02*
X156400000Y-109500000D01*
X155325000Y-109025000D02*
X155925000Y-109025000D01*
G04 #@! TO.N,/VMIPI*
X150925000Y-116225000D02*
X150925000Y-115475000D01*
X155325000Y-108675000D02*
X154725000Y-108675000D01*
X156455000Y-108675000D02*
X156680000Y-108900000D01*
X150925000Y-115475000D02*
X150900000Y-115450000D01*
X154550002Y-108675000D02*
X154525002Y-108700000D01*
X155325000Y-108675000D02*
X156455000Y-108675000D01*
X155325000Y-108675000D02*
X154550002Y-108675000D01*
X158750000Y-118400000D02*
X158170000Y-118400000D01*
G04 #@! TO.N,/V{slash}SDMMC*
X158080000Y-108300000D02*
X158080000Y-107820000D01*
X152675000Y-106375000D02*
X152675000Y-105600620D01*
X152675000Y-107025000D02*
X152675000Y-106375000D01*
D42*
X147380000Y-93500000D02*
X147380000Y-97900000D01*
D41*
X152702000Y-105573620D02*
X152702000Y-104818000D01*
D42*
X150150000Y-93400000D02*
X152000000Y-93400000D01*
D41*
X152800000Y-107150000D02*
X152675000Y-107025000D01*
X154787813Y-108325000D02*
X154600000Y-108137187D01*
D42*
X147380000Y-96800000D02*
X147380000Y-97900000D01*
D41*
X152702000Y-104818000D02*
X152900000Y-104620000D01*
X152675000Y-105600620D02*
X152702000Y-105573620D01*
D42*
X147380000Y-93500000D02*
X147380000Y-91800000D01*
X147430000Y-93450000D02*
X147380000Y-93500000D01*
D41*
X154600000Y-108137187D02*
X154600000Y-107350000D01*
X154400000Y-107150000D02*
X152800000Y-107150000D01*
X154600000Y-107350000D02*
X154400000Y-107150000D01*
X158080000Y-108300000D02*
X158055000Y-108325000D01*
D42*
X150150000Y-93400000D02*
X150100000Y-93450000D01*
X150100000Y-93450000D02*
X147430000Y-93450000D01*
X147380000Y-88000000D02*
X147380000Y-91800000D01*
D41*
X155325000Y-108325000D02*
X154787813Y-108325000D01*
X158055000Y-108325000D02*
X155325000Y-108325000D01*
D42*
X147460000Y-95520000D02*
X147380000Y-95600000D01*
D41*
X158080000Y-107820000D02*
X158100000Y-107800000D01*
G04 #@! TO.N,Net-(U2A-GPIO0)*
X145350000Y-99000000D02*
X144650000Y-99700000D01*
X144770000Y-99580000D02*
X144650000Y-99700000D01*
X145500000Y-99000000D02*
X145350000Y-99000000D01*
X145500000Y-103500000D02*
X145200000Y-103200000D01*
X146200000Y-99580000D02*
X144770000Y-99580000D01*
X145500000Y-104431371D02*
X145500000Y-103500000D01*
X146025000Y-106375000D02*
X146025000Y-106025000D01*
X145400693Y-104530678D02*
X145500000Y-104431371D01*
X146025000Y-106025000D02*
X145400693Y-105400693D01*
X145400693Y-105400693D02*
X145400693Y-104530678D01*
G04 #@! TO.N,/RTC*
X141251100Y-124753600D02*
X141251100Y-122748900D01*
X146400000Y-105020000D02*
X146400000Y-105250000D01*
X141251100Y-122748900D02*
X142000000Y-122000000D01*
X146725000Y-105575000D02*
X146600000Y-105450000D01*
X146400000Y-105250000D02*
X146600000Y-105450000D01*
X143000000Y-122000000D02*
X142000000Y-122000000D01*
X146725000Y-106375000D02*
X146725000Y-105575000D01*
D42*
G04 #@! TO.N,GND*
X154751100Y-124753600D02*
X154751100Y-122901100D01*
D43*
X139307500Y-119750000D02*
X141178750Y-117878750D01*
D42*
X138750000Y-86737500D02*
X138750000Y-86725000D01*
D41*
X147400000Y-103350000D02*
X147400000Y-103200000D01*
D42*
X158200000Y-86000000D02*
X156600000Y-86000000D01*
D41*
X149573000Y-101773000D02*
X149500000Y-101700000D01*
X157320000Y-110000000D02*
X158419999Y-110000000D01*
X148800000Y-104700000D02*
X148800000Y-104350000D01*
X149250000Y-104150000D02*
X149600000Y-103800000D01*
D42*
X156251100Y-122901100D02*
X156250000Y-122900000D01*
D41*
X149000000Y-104150000D02*
X149250000Y-104150000D01*
X138050000Y-105200000D02*
X138150000Y-105300000D01*
X158720000Y-107720000D02*
X158700000Y-107700000D01*
D42*
X151751100Y-122901100D02*
X151750000Y-122900000D01*
D41*
X142930000Y-102830000D02*
X143450000Y-103350000D01*
D42*
X153251100Y-124753600D02*
X153251100Y-122901100D01*
D41*
X157060000Y-116160000D02*
X156800000Y-115900000D01*
X157400000Y-113700000D02*
X157400000Y-113100000D01*
D42*
X151751100Y-124753600D02*
X151751100Y-122901100D01*
X148100000Y-95600000D02*
X148020000Y-95600000D01*
D41*
X142350000Y-102830000D02*
X142930000Y-102830000D01*
X146900000Y-104380000D02*
X146400000Y-104380000D01*
D43*
X138550000Y-119750000D02*
X139307500Y-119750000D01*
D41*
X138150000Y-105780000D02*
X138150000Y-105300000D01*
D42*
X156600000Y-86000000D02*
X156300000Y-85700000D01*
X150100000Y-95650000D02*
X148150000Y-95650000D01*
D41*
X152900000Y-103980000D02*
X152900000Y-103500000D01*
X158720000Y-108300000D02*
X158720000Y-107720000D01*
X147400000Y-103200000D02*
X148600000Y-102000000D01*
X157400000Y-112600000D02*
X158200000Y-112600000D01*
X141800000Y-102000000D02*
X141800000Y-102750000D01*
X145025001Y-117920000D02*
X144650000Y-117544999D01*
X146400000Y-104380000D02*
X146400000Y-104350000D01*
D42*
X157530000Y-119080000D02*
X158050000Y-119600000D01*
D41*
X146200000Y-102000000D02*
X146200000Y-100220000D01*
X148800000Y-104350000D02*
X149000000Y-104150000D01*
D42*
X140300000Y-110600000D02*
X138200000Y-110600000D01*
D41*
X142350000Y-102830000D02*
X141780000Y-102830000D01*
X148751100Y-122901100D02*
X148750000Y-122900000D01*
D42*
X157751100Y-124753600D02*
X157751100Y-122901100D01*
X140300000Y-110600000D02*
X139600000Y-109900000D01*
X143908100Y-86163600D02*
X143588100Y-86483600D01*
D41*
X152900000Y-103500000D02*
X153100000Y-103300000D01*
X147100000Y-117920000D02*
X147100000Y-118450000D01*
X157600000Y-111000000D02*
X157900000Y-111300000D01*
D42*
X140300000Y-110600000D02*
X141600000Y-110600000D01*
X157530000Y-118400000D02*
X157530000Y-119080000D01*
X157751100Y-122901100D02*
X157750000Y-122900000D01*
D41*
X150600000Y-104680000D02*
X150600000Y-103999000D01*
D42*
X150100000Y-95650000D02*
X151350000Y-95650000D01*
D41*
X157320000Y-108900000D02*
X157900000Y-108900000D01*
D42*
X150251100Y-124753600D02*
X150251100Y-122901100D01*
D41*
X158419999Y-110000000D02*
X158720000Y-109699999D01*
X146400000Y-104350000D02*
X145950000Y-103900000D01*
D42*
X158200000Y-100200000D02*
X158200000Y-101400000D01*
X156251100Y-124753600D02*
X156251100Y-122901100D01*
D41*
X144650000Y-117544999D02*
X144650000Y-117250000D01*
X158740000Y-107100000D02*
X158740000Y-107660000D01*
X157060000Y-116520000D02*
X157060000Y-116160000D01*
X157320000Y-107900000D02*
X157320000Y-107736599D01*
X141780000Y-102830000D02*
X141750000Y-102800000D01*
X147200000Y-104680000D02*
X146900000Y-104380000D01*
X147251100Y-122901100D02*
X147250000Y-122900000D01*
X157400000Y-113100000D02*
X157400000Y-112600000D01*
D42*
X148751100Y-124753600D02*
X148751100Y-122901100D01*
D41*
X158720000Y-108880000D02*
X158700000Y-108900000D01*
X138050000Y-104720000D02*
X138050000Y-105200000D01*
X149600000Y-103220000D02*
X149600000Y-103800000D01*
X143100000Y-104080000D02*
X143100000Y-103700000D01*
X150600000Y-103999000D02*
X150501000Y-103900000D01*
X158720000Y-109500000D02*
X158720000Y-108920000D01*
D42*
X139600000Y-111300000D02*
X138200000Y-111300000D01*
X144688100Y-86163600D02*
X143908100Y-86163600D01*
D41*
X157320000Y-107736599D02*
X157546009Y-107510590D01*
X147450000Y-120750000D02*
X146920000Y-120750000D01*
D43*
X141178750Y-117878750D02*
X141212500Y-117845000D01*
D41*
X153470000Y-117980000D02*
X153680000Y-117980000D01*
X158740000Y-107660000D02*
X158700000Y-107700000D01*
X158720000Y-108920000D02*
X158700000Y-108900000D01*
D42*
X147251100Y-124753600D02*
X147251100Y-122901100D01*
X149500000Y-101700000D02*
X148900000Y-101700000D01*
X154751100Y-122901100D02*
X154750000Y-122900000D01*
X157504897Y-106500000D02*
X157902898Y-106101999D01*
X140300000Y-113237500D02*
X140300000Y-110600000D01*
D41*
X157400000Y-111000000D02*
X157600000Y-111000000D01*
X157400000Y-113100000D02*
X157800000Y-113100000D01*
X153680000Y-117980000D02*
X154300000Y-118600000D01*
D42*
X157320000Y-106500000D02*
X157504897Y-106500000D01*
D41*
X158720000Y-109699999D02*
X158720000Y-109500000D01*
X150000000Y-101773000D02*
X149573000Y-101773000D01*
D42*
X138750000Y-86725000D02*
X138175000Y-86150000D01*
X141600000Y-110600000D02*
X143780000Y-112780000D01*
D41*
X143100000Y-103700000D02*
X143450000Y-103350000D01*
D42*
X145751100Y-124753600D02*
X145751100Y-122901100D01*
X151350000Y-95650000D02*
X151400000Y-95600000D01*
X145751100Y-122901100D02*
X145750000Y-122900000D01*
D41*
X141800000Y-102750000D02*
X141750000Y-102800000D01*
X150500000Y-102230000D02*
X150457000Y-102230000D01*
X143450000Y-103350000D02*
X143830000Y-103350000D01*
X158720000Y-108300000D02*
X158720000Y-108880000D01*
D42*
X148900000Y-101700000D02*
X148600000Y-102000000D01*
D41*
X152900000Y-103980000D02*
X152900000Y-103550000D01*
D42*
X148150000Y-95650000D02*
X148100000Y-95600000D01*
X153251100Y-122901100D02*
X153250000Y-122900000D01*
D41*
X145225000Y-117920000D02*
X145025001Y-117920000D01*
X146200000Y-102580000D02*
X146200000Y-102000000D01*
D42*
X143780000Y-112780000D02*
X143780000Y-113950000D01*
X140300000Y-110600000D02*
X139600000Y-111300000D01*
D41*
X150457000Y-102230000D02*
X150000000Y-101773000D01*
X157800000Y-113100000D02*
X157950000Y-113250000D01*
D42*
X139600000Y-109900000D02*
X138200000Y-109900000D01*
X150251100Y-122901100D02*
X150250000Y-122900000D01*
D41*
G04 #@! TO.N,Net-(U2A-XTAL_P)*
X147425000Y-106375000D02*
X147425000Y-105925000D01*
X147850000Y-105500000D02*
X147850000Y-104350000D01*
X146700000Y-102650000D02*
X147400000Y-101950000D01*
X146680000Y-103220000D02*
X146700000Y-103200000D01*
X147576000Y-104076000D02*
X146926000Y-104076000D01*
X146200000Y-103220000D02*
X146680000Y-103220000D01*
X147850000Y-104350000D02*
X147576000Y-104076000D01*
X146700000Y-103200000D02*
X146700000Y-102650000D01*
X147425000Y-105925000D02*
X147850000Y-105500000D01*
X146700000Y-103850000D02*
X146700000Y-103200000D01*
X146926000Y-104076000D02*
X146700000Y-103850000D01*
G04 #@! TO.N,Net-(U2A-XTAL_N)*
X147775000Y-106025000D02*
X148350000Y-105450000D01*
X149600000Y-102580000D02*
X149420000Y-102580000D01*
X147775000Y-106375000D02*
X147775000Y-106025000D01*
X148350000Y-105450000D02*
X148350000Y-103650000D01*
X148350000Y-103650000D02*
X148600000Y-103400000D01*
X149420000Y-102580000D02*
X148600000Y-103400000D01*
G04 #@! TO.N,Net-(IC2-SW)*
X139530000Y-95450000D02*
X138850000Y-95450000D01*
G04 #@! TO.N,Net-(IC2-BST)*
X140962000Y-95500000D02*
X140220000Y-95500000D01*
X140220000Y-95500000D02*
X140170000Y-95450000D01*
G04 #@! TO.N,/USB5V*
X141300000Y-106250000D02*
X141300000Y-107962500D01*
D42*
X140670000Y-85530000D02*
X140350000Y-85850000D01*
D41*
X138050000Y-104080000D02*
X138050000Y-103350000D01*
D44*
X145066000Y-88233600D02*
X145140800Y-88158800D01*
X144676100Y-88233600D02*
X145066000Y-88233600D01*
X145140800Y-88158800D02*
X145140800Y-87930900D01*
X145140800Y-87930900D02*
X145488100Y-87583600D01*
D42*
X140670000Y-84850000D02*
X140670000Y-85530000D01*
D41*
G04 #@! TO.N,Net-(IC4-BST)*
X145650000Y-88313600D02*
X145230000Y-88733600D01*
X145850000Y-88313600D02*
X145650000Y-88313600D01*
X145230000Y-88733600D02*
X144676100Y-88733600D01*
G04 #@! TO.N,Net-(IC4-SW)*
X146350000Y-89150000D02*
X146000000Y-88800000D01*
X146350000Y-89250000D02*
X146350000Y-89150000D01*
D45*
G04 #@! TO.N,/USBJTAG_D+*
X139660211Y-115015989D02*
X140764789Y-115015989D01*
X138634011Y-114543755D02*
X139106245Y-115015989D01*
X146667089Y-121507345D02*
X146667089Y-122794588D01*
X139389789Y-115015989D02*
X139525000Y-115151200D01*
X139106245Y-115015989D02*
X139389789Y-115015989D01*
X138300000Y-113775000D02*
X138634011Y-114109011D01*
X145768755Y-120609011D02*
X146667089Y-121507345D01*
X139525000Y-115151200D02*
X139660211Y-115015989D01*
X146667089Y-122794588D02*
X146751100Y-122878599D01*
X140764789Y-115015989D02*
X140900000Y-115151200D01*
X138634011Y-114109011D02*
X138634011Y-114543755D01*
X139560211Y-120609011D02*
X145768755Y-120609011D01*
X146751100Y-122878599D02*
X146751100Y-124753600D01*
X138300000Y-113237500D02*
X138300000Y-113775000D01*
X139425000Y-120473800D02*
X139560211Y-120609011D01*
D41*
G04 #@! TO.N,/USB2HS_D+*
X154075000Y-116573644D02*
X154075000Y-116225000D01*
X157251100Y-120471100D02*
X154197000Y-117417000D01*
X157251100Y-124753600D02*
X157251100Y-120471100D01*
X154197000Y-116695644D02*
X154075000Y-116573644D01*
X154197000Y-117417000D02*
X154197000Y-116695644D01*
D45*
G04 #@! TO.N,/USBJTAG_D-*
X140764789Y-114684011D02*
X140900000Y-114548800D01*
X146251100Y-122878599D02*
X146251100Y-124753600D01*
X146335111Y-121644855D02*
X146335111Y-122794588D01*
X139525000Y-114548800D02*
X139660211Y-114684011D01*
X138965989Y-114406245D02*
X139243755Y-114684011D01*
X146335111Y-122794588D02*
X146251100Y-122878599D01*
X139243755Y-114684011D02*
X139389789Y-114684011D01*
X139389789Y-114684011D02*
X139525000Y-114548800D01*
X139300000Y-113775000D02*
X138965989Y-114109011D01*
X145631245Y-120940989D02*
X146335111Y-121644855D01*
X139660211Y-114684011D02*
X140764789Y-114684011D01*
X139425000Y-121076200D02*
X139560211Y-120940989D01*
X138965989Y-114109011D02*
X138965989Y-114406245D01*
X139300000Y-113237500D02*
X139300000Y-113775000D01*
X139560211Y-120940989D02*
X145631245Y-120940989D01*
D41*
G04 #@! TO.N,/USB2HS_D-*
X153896000Y-117541678D02*
X156751100Y-120396778D01*
X153725000Y-116649322D02*
X153896000Y-116820322D01*
X153896000Y-117541678D02*
X153896000Y-116820322D01*
X156751100Y-120396778D02*
X156751100Y-124753600D01*
X153725000Y-116225000D02*
X153725000Y-116649322D01*
G04 #@! TO.N,/FLASH_CS*
X146025000Y-116225000D02*
X146025000Y-117255000D01*
X146025000Y-117255000D02*
X146000000Y-117280000D01*
D42*
X138913804Y-115940000D02*
X139177673Y-115676131D01*
D41*
X145525000Y-116225000D02*
X145500000Y-116200000D01*
D42*
X138550000Y-115940000D02*
X138913804Y-115940000D01*
D41*
X146025000Y-116225000D02*
X145525000Y-116225000D01*
G04 #@! TO.N,/FLASH_D*
X148125000Y-119425000D02*
X147450000Y-120100000D01*
X147450000Y-120100000D02*
X145000000Y-120100000D01*
X148125000Y-116225000D02*
X148125000Y-119425000D01*
X144650000Y-119750000D02*
X143875000Y-119750000D01*
X145000000Y-120100000D02*
X144650000Y-119750000D01*
G04 #@! TO.N,/FLASH_Q*
X146375000Y-115732804D02*
X146199140Y-115556944D01*
X146375000Y-116225000D02*
X146375000Y-115732804D01*
X146375000Y-116225000D02*
X146375000Y-115684012D01*
X146375000Y-115684012D02*
X146320028Y-115629040D01*
X139137498Y-117225000D02*
X138565000Y-117225000D01*
X138565000Y-117225000D02*
X138550000Y-117210000D01*
G04 #@! TO.N,/FLASH_HOLD*
X144488500Y-118073499D02*
X143875000Y-117459999D01*
X143875000Y-117459999D02*
X143875000Y-117210000D01*
X144488500Y-118313500D02*
X144488500Y-118073499D01*
X145475000Y-119300000D02*
X146900000Y-119300000D01*
X147425000Y-116225000D02*
X147425000Y-115693286D01*
X146900000Y-119300000D02*
X147050000Y-119150000D01*
X147425000Y-115764574D02*
X147647895Y-115541679D01*
X145475000Y-119300000D02*
X144488500Y-118313500D01*
X147425000Y-116225000D02*
X147425000Y-115764574D01*
G04 #@! TO.N,/FLASH_CK*
X147775000Y-119300000D02*
X147775000Y-116225000D01*
X143875000Y-118480000D02*
X145095000Y-119700000D01*
X145095000Y-119700000D02*
X147375000Y-119700000D01*
X147375000Y-119700000D02*
X147775000Y-119300000D01*
G04 #@! TO.N,/FLASH_WP*
X146475000Y-118475000D02*
X146550000Y-118400000D01*
X139137498Y-118475000D02*
X138555000Y-118475000D01*
X146725000Y-116225000D02*
X146725000Y-116875000D01*
X138555000Y-118475000D02*
X138550000Y-118480000D01*
X146475000Y-118475000D02*
X146150000Y-118800000D01*
X146550000Y-117050000D02*
X146550000Y-118400000D01*
X146225000Y-118725000D02*
X146175000Y-118775000D01*
X146225000Y-118725000D02*
X146475000Y-118475000D01*
X146150000Y-118800000D02*
X146075000Y-118800000D01*
X146725000Y-116875000D02*
X146550000Y-117050000D01*
X146225000Y-118725000D02*
X146150000Y-118800000D01*
G04 #@! TO.N,/FB2*
X140280000Y-96970000D02*
X140750000Y-96500000D01*
X140750000Y-96500000D02*
X140962000Y-96500000D01*
X140280000Y-96970000D02*
X139500000Y-96970000D01*
X140280000Y-97400000D02*
X140280000Y-96970000D01*
X140280000Y-97400000D02*
X140280000Y-98280000D01*
X140280000Y-98280000D02*
X140250000Y-98310000D01*
G04 #@! TO.N,/EN_DCDC*
X140962000Y-96000000D02*
X140498596Y-96000000D01*
X154775000Y-106375000D02*
X154775000Y-105925000D01*
X140498596Y-96000000D02*
X140425220Y-96073376D01*
X154775000Y-105925000D02*
X154850000Y-105850000D01*
X154850000Y-105850000D02*
X155300000Y-105850000D01*
G04 #@! TO.N,/FB*
X144758100Y-87651600D02*
X144676100Y-87733600D01*
X145438100Y-86913600D02*
X144778100Y-86913600D01*
X144778100Y-86913600D02*
X144758100Y-86933600D01*
X144758100Y-86933600D02*
X144758100Y-87651600D01*
D42*
G04 #@! TO.N,Net-(D3-A)*
X140030000Y-84850000D02*
X139062500Y-84850000D01*
X139062500Y-84850000D02*
X138750000Y-85162500D01*
D41*
G04 #@! TO.N,/DTR*
X141300000Y-113237500D02*
X141300000Y-114271928D01*
X140330000Y-102842500D02*
X140000000Y-102512500D01*
X140600000Y-103312499D02*
X140600000Y-103992500D01*
X140330000Y-103042499D02*
X140600000Y-103312499D01*
X140330000Y-102842500D02*
X140330000Y-103042499D01*
X140000000Y-102512500D02*
X140000000Y-101300000D01*
X141300000Y-114271928D02*
X141525000Y-114496928D01*
G04 #@! TO.N,/RTS*
X142300000Y-107962500D02*
X142300000Y-108799999D01*
X138943906Y-105456094D02*
X139200000Y-105200000D01*
X138500000Y-103162189D02*
X138500000Y-105012189D01*
X139300000Y-105812189D02*
X139300000Y-105892500D01*
X142700000Y-109199999D02*
X142700000Y-109675002D01*
X138607893Y-102285000D02*
X139550000Y-102285000D01*
X138607893Y-102285000D02*
X138300000Y-102592893D01*
X138500000Y-105012189D02*
X138943906Y-105456094D01*
X138300000Y-102592893D02*
X138300000Y-102962189D01*
X138943906Y-105456094D02*
X139300000Y-105812189D01*
X142300000Y-108799999D02*
X142700000Y-109199999D01*
X138300000Y-102962189D02*
X138500000Y-103162189D01*
G04 #@! TO.N,/GPIO37*
X158595000Y-114150000D02*
X158650000Y-114095000D01*
X139300000Y-106844998D02*
X139400000Y-106744998D01*
X154625000Y-110075000D02*
X154600000Y-110050000D01*
X155325000Y-110075000D02*
X154625000Y-110075000D01*
X139300000Y-107962500D02*
X139300000Y-106844998D01*
X158075000Y-114150000D02*
X158595000Y-114150000D01*
G04 #@! TO.N,/GPIO38*
X143474000Y-109426000D02*
X143474000Y-106776000D01*
X143151000Y-109749000D02*
X143474000Y-109426000D01*
X157380000Y-105100000D02*
X157400000Y-105080000D01*
X156700000Y-105100000D02*
X157380000Y-105100000D01*
X142208947Y-109458947D02*
X142208947Y-109891056D01*
X154600000Y-109334386D02*
X154600000Y-109300000D01*
X142466891Y-110149000D02*
X142863813Y-110149000D01*
X142208947Y-109891056D02*
X142466891Y-110149000D01*
X144300000Y-105950000D02*
X144800000Y-105950000D01*
X140300000Y-108950000D02*
X140500000Y-109150000D01*
X143151000Y-109861813D02*
X143151000Y-109749000D01*
X154990614Y-109725000D02*
X154600000Y-109334386D01*
X140500000Y-109150000D02*
X141900000Y-109150000D01*
X155325000Y-109725000D02*
X154990614Y-109725000D01*
X140300000Y-107962500D02*
X140300000Y-108950000D01*
X141900000Y-109150000D02*
X142208947Y-109458947D01*
X142863813Y-110149000D02*
X143151000Y-109861813D01*
X143474000Y-106776000D02*
X144300000Y-105950000D01*
G04 #@! TO.N,Net-(U2A-GPIO36)*
X158394000Y-110474000D02*
X158500000Y-110580000D01*
X155325000Y-110425000D02*
X156225000Y-110425000D01*
X156225000Y-110425000D02*
X156274000Y-110474000D01*
X156274000Y-110474000D02*
X158394000Y-110474000D01*
G04 #@! TO.N,/SD_DATA0*
X154425000Y-106375000D02*
X154425000Y-105825000D01*
D42*
X150100000Y-96750000D02*
X148070000Y-96750000D01*
D41*
X151300000Y-96800000D02*
X150150000Y-96800000D01*
X150150000Y-96800000D02*
X150100000Y-96750000D01*
X154425000Y-105825000D02*
X156200000Y-104050000D01*
X156200000Y-104050000D02*
X156200000Y-97000000D01*
D42*
X148070000Y-96750000D02*
X148020000Y-96800000D01*
G04 #@! TO.N,Net-(J1-DET_A)*
X150050000Y-88000000D02*
X150100000Y-87950000D01*
X148020000Y-88000000D02*
X148320000Y-87700000D01*
X148320000Y-87700000D02*
X150100000Y-87700000D01*
D41*
G04 #@! TO.N,Net-(J1-CLK)*
X151750000Y-94550000D02*
X150100000Y-94550000D01*
X153100000Y-101680000D02*
X153100000Y-100100000D01*
X152000000Y-99000000D02*
X152000000Y-94800000D01*
X152000000Y-94800000D02*
X151750000Y-94550000D01*
X153100000Y-100100000D02*
X152000000Y-99000000D01*
G04 #@! TO.N,/SD_DATA3*
X153375000Y-106375000D02*
X153375000Y-105525000D01*
X153650000Y-91250000D02*
X150100000Y-91250000D01*
X154200000Y-91800000D02*
X153650000Y-91250000D01*
D42*
X148950000Y-91250000D02*
X150100000Y-91250000D01*
X148600000Y-90900000D02*
X148950000Y-91250000D01*
D41*
X154200000Y-97200000D02*
X154200000Y-91800000D01*
X154500000Y-98700000D02*
X154500000Y-97500000D01*
X154500000Y-97500000D02*
X154200000Y-97200000D01*
D42*
X148020000Y-90900000D02*
X148600000Y-90900000D01*
D41*
X154300000Y-98900000D02*
X154500000Y-98700000D01*
X153375000Y-105525000D02*
X154300000Y-104600000D01*
X154300000Y-104600000D02*
X154300000Y-98900000D01*
G04 #@! TO.N,/SD_DET*
X149700000Y-99200000D02*
X151625000Y-101125000D01*
X150150000Y-89100000D02*
X150100000Y-89050000D01*
X149700000Y-99200000D02*
X149700000Y-99000000D01*
X151625000Y-106375000D02*
X151625000Y-101125000D01*
X151400000Y-89100000D02*
X150150000Y-89100000D01*
G04 #@! TO.N,/SD_CLK*
X153025000Y-105399264D02*
X153400000Y-105024264D01*
X153700000Y-103337811D02*
X153700000Y-102900000D01*
X153400000Y-105024264D02*
X153400000Y-103637811D01*
X153400000Y-103637811D02*
X153700000Y-103337811D01*
X153120000Y-102320000D02*
X153100000Y-102320000D01*
X153700000Y-102900000D02*
X153120000Y-102320000D01*
X153025000Y-106375000D02*
X153025000Y-105399264D01*
G04 #@! TO.N,/SD_CMD*
X152325000Y-106375000D02*
X152325000Y-100325000D01*
D42*
X148020000Y-91800000D02*
X148200000Y-91800000D01*
D41*
X151000000Y-99000000D02*
X152325000Y-100325000D01*
X151550000Y-92350000D02*
X150100000Y-92350000D01*
D42*
X148200000Y-91800000D02*
X148750000Y-92350000D01*
X148750000Y-92350000D02*
X150100000Y-92350000D01*
D41*
X151600000Y-92400000D02*
X151550000Y-92350000D01*
X151000000Y-99000000D02*
X150600000Y-99000000D01*
D45*
G04 #@! TO.N,/DSI_DATAN1*
X148251100Y-124753600D02*
X148251100Y-122878599D01*
X149165989Y-121658755D02*
X149165989Y-116721512D01*
X148167089Y-122794588D02*
X148167089Y-122657655D01*
X148251100Y-122878599D02*
X148167089Y-122794588D01*
X148167089Y-122657655D02*
X149165989Y-121658755D01*
X149175000Y-116712501D02*
X149175000Y-116225000D01*
X149165989Y-116721512D02*
X149175000Y-116712501D01*
D41*
G04 #@! TO.N,/GPIO22*
X144877357Y-114975000D02*
X144837724Y-114935367D01*
X145475000Y-114975000D02*
X144877357Y-114975000D01*
G04 #@! TO.N,/I2S_LRCK*
X155325000Y-114625000D02*
X158275000Y-114625000D01*
X158700000Y-115050000D02*
X158700000Y-116200000D01*
X158275000Y-114625000D02*
X158700000Y-115050000D01*
G04 #@! TO.N,/GPIO19*
X145475000Y-113575000D02*
X146249998Y-113575000D01*
X145995990Y-113575000D02*
X146113850Y-113692860D01*
X145475000Y-113575000D02*
X145995990Y-113575000D01*
X146249998Y-113575000D02*
X146274998Y-113600000D01*
G04 #@! TO.N,/GPIO20*
X144788804Y-114275000D02*
X144538804Y-114525000D01*
X144538804Y-114525000D02*
X144400000Y-114525000D01*
X145475000Y-114275000D02*
X144788804Y-114275000D01*
D45*
G04 #@! TO.N,/CSI_DATAP1*
X155667089Y-121082345D02*
X155667089Y-122794588D01*
X153025000Y-116712501D02*
X153015989Y-116721512D01*
X155751100Y-122878599D02*
X155751100Y-124753600D01*
X153025000Y-116225000D02*
X153025000Y-116712501D01*
X153015989Y-118431245D02*
X155667089Y-121082345D01*
X155667089Y-122794588D02*
X155751100Y-122878599D01*
X153015989Y-116721512D02*
X153015989Y-118431245D01*
D41*
G04 #@! TO.N,/GPIO2*
X145475000Y-107275000D02*
X146125000Y-107275000D01*
X146125000Y-107275000D02*
X146200000Y-107200000D01*
G04 #@! TO.N,/GPIO12*
X146175000Y-111125000D02*
X146200000Y-111100000D01*
X146075003Y-111125000D02*
X146200000Y-111000003D01*
X145475000Y-111125000D02*
X146075003Y-111125000D01*
X145475000Y-111125000D02*
X146175000Y-111125000D01*
D45*
G04 #@! TO.N,/DSI_CLKN*
X149525000Y-116712501D02*
X149525000Y-116225000D01*
X149335311Y-123347381D02*
X149452253Y-123230439D01*
X149452253Y-122569561D02*
X149534011Y-122487803D01*
X149534011Y-122487803D02*
X149534011Y-116721512D01*
X149251100Y-124753600D02*
X149335311Y-124669389D01*
X149335311Y-124669389D02*
X149335311Y-123347381D01*
X149534011Y-116721512D02*
X149525000Y-116712501D01*
X149452253Y-123230439D02*
X149452253Y-122569561D01*
D41*
G04 #@! TO.N,/GPIO9*
X144100000Y-111115614D02*
X145140614Y-110075000D01*
X145140614Y-110075000D02*
X145475000Y-110075000D01*
X144100000Y-111700000D02*
X144100000Y-111115614D01*
G04 #@! TO.N,/GPIO4*
X145475000Y-107975000D02*
X146125000Y-107975000D01*
X146125000Y-107975000D02*
X146200000Y-107900000D01*
G04 #@! TO.N,/CSI_REXT*
X153375000Y-116225000D02*
X153375000Y-116725000D01*
X153375000Y-116725000D02*
X153490000Y-116840000D01*
X153490000Y-116840000D02*
X153490000Y-117270000D01*
G04 #@! TO.N,/GPIO16*
X146175000Y-112525000D02*
X146200000Y-112550000D01*
X145475000Y-112525000D02*
X146175000Y-112525000D01*
G04 #@! TO.N,/GPIO8*
X145475000Y-109375000D02*
X146025003Y-109375000D01*
X146025003Y-109375000D02*
X146200000Y-109200003D01*
G04 #@! TO.N,/I2S_DATA*
X154775000Y-116225000D02*
X154775000Y-116825000D01*
X155050000Y-117100000D02*
X158600000Y-117100000D01*
X154775000Y-116825000D02*
X155050000Y-117100000D01*
D45*
G04 #@! TO.N,/CSI_DATAN0*
X151275000Y-116712501D02*
X151284011Y-116721512D01*
X151284011Y-116721512D02*
X151284011Y-121018755D01*
X151284011Y-121018755D02*
X152335111Y-122069855D01*
X152335111Y-122794588D02*
X152251100Y-122878599D01*
X151275000Y-116225000D02*
X151275000Y-116712501D01*
X152251100Y-122878599D02*
X152251100Y-124753600D01*
X152335111Y-122069855D02*
X152335111Y-122794588D01*
D41*
G04 #@! TO.N,/GPIO3*
X142837077Y-110600000D02*
X142500000Y-110600000D01*
X143467549Y-109969528D02*
X142837077Y-110600000D01*
X144300000Y-108300000D02*
X144975000Y-107625000D01*
X145475000Y-107625000D02*
X144975000Y-107625000D01*
X144235097Y-109200000D02*
X144117549Y-109317549D01*
X144117549Y-109317549D02*
X143467549Y-109967549D01*
X144300000Y-109135097D02*
X144117549Y-109317549D01*
X144300000Y-108300000D02*
X144300000Y-109135097D01*
X143467549Y-109967549D02*
X143467549Y-109969528D01*
D45*
G04 #@! TO.N,/DSI_DATAP0*
X150225000Y-116225000D02*
X150225000Y-116712501D01*
X150751100Y-122878599D02*
X150751100Y-124753600D01*
X150835111Y-121719855D02*
X150835111Y-122794588D01*
X150234011Y-116721512D02*
X150234011Y-121118755D01*
X150234011Y-121118755D02*
X150835111Y-121719855D01*
X150835111Y-122794588D02*
X150751100Y-122878599D01*
X150225000Y-116712501D02*
X150234011Y-116721512D01*
D41*
G04 #@! TO.N,/GPIO6*
X146125000Y-108675000D02*
X146200000Y-108600000D01*
X145475000Y-108675000D02*
X146125000Y-108675000D01*
G04 #@! TO.N,/GPIO7*
X145100000Y-109025000D02*
X144900000Y-109225000D01*
X145475000Y-109025000D02*
X145100000Y-109025000D01*
X144900000Y-109225000D02*
X144900000Y-109700000D01*
X143800000Y-110800000D02*
X143700000Y-110800000D01*
X144900000Y-109700000D02*
X143800000Y-110800000D01*
G04 #@! TO.N,/GPIO14*
X145475000Y-111825000D02*
X144725000Y-111825000D01*
X144725000Y-111825000D02*
X144700000Y-111800000D01*
D45*
G04 #@! TO.N,/DSI_DATAP1*
X148834011Y-116721512D02*
X148825000Y-116712501D01*
X147835111Y-122520145D02*
X148834011Y-121521245D01*
X147751100Y-124753600D02*
X147751100Y-122878599D01*
X147751100Y-122878599D02*
X147835111Y-122794588D01*
X148834011Y-121521245D02*
X148834011Y-116721512D01*
X147835111Y-122794588D02*
X147835111Y-122520145D01*
X148825000Y-116712501D02*
X148825000Y-116225000D01*
D41*
G04 #@! TO.N,/DSI_REXT*
X148475000Y-120365000D02*
X148090000Y-120750000D01*
X148475000Y-116225000D02*
X148475000Y-120365000D01*
D45*
G04 #@! TO.N,/DSI_CLKP*
X149865989Y-116721512D02*
X149875000Y-116712501D01*
X149875000Y-116712501D02*
X149875000Y-116225000D01*
X149751100Y-124723088D02*
X149784211Y-124689977D01*
X149865989Y-122625285D02*
X149865989Y-116721512D01*
X149751100Y-124753600D02*
X149751100Y-124723088D01*
X149784211Y-122707063D02*
X149865989Y-122625285D01*
X149784211Y-124689977D02*
X149784211Y-122707063D01*
D41*
G04 #@! TO.N,/GPIO13*
X145140614Y-111475000D02*
X144775397Y-111109783D01*
X145475000Y-111475000D02*
X145140614Y-111475000D01*
X144775397Y-111109783D02*
X144775397Y-111098866D01*
G04 #@! TO.N,/GPIO5*
X143818906Y-110281094D02*
X143581094Y-110281094D01*
X143281094Y-110581094D02*
X143200000Y-110662189D01*
X143150000Y-110712188D02*
X143281094Y-110581094D01*
X143581094Y-110281094D02*
X143281094Y-110581094D01*
X145475000Y-108325000D02*
X145140614Y-108325000D01*
X145140614Y-108325000D02*
X144600000Y-108865614D01*
X143150000Y-111400000D02*
X143150000Y-110712188D01*
X144600000Y-109500000D02*
X143818906Y-110281094D01*
X144600000Y-108865614D02*
X144600000Y-109500000D01*
G04 #@! TO.N,/GPIO15*
X144737811Y-112400000D02*
X144600000Y-112400000D01*
X144962811Y-112175000D02*
X144737811Y-112400000D01*
X145475000Y-112175000D02*
X144962811Y-112175000D01*
G04 #@! TO.N,/GPIO18*
X144953691Y-113225000D02*
X144757773Y-113420918D01*
X145475000Y-113225000D02*
X144953691Y-113225000D01*
D45*
G04 #@! TO.N,/CSI_DATAN1*
X155251100Y-122878599D02*
X155251100Y-124753600D01*
X155335111Y-122794588D02*
X155251100Y-122878599D01*
X152684011Y-118568755D02*
X155335111Y-121219855D01*
X152675000Y-116225000D02*
X152675000Y-116712501D01*
X155335111Y-121219855D02*
X155335111Y-122794588D01*
X152675000Y-116712501D02*
X152684011Y-116721512D01*
X152684011Y-116721512D02*
X152684011Y-118568755D01*
D41*
G04 #@! TO.N,/I2S_MCLK*
X157925000Y-114975000D02*
X158250000Y-115300000D01*
X155325000Y-114975000D02*
X157925000Y-114975000D01*
G04 #@! TO.N,/GPIO17*
X144459253Y-112875000D02*
X144377165Y-112957088D01*
X145475000Y-112875000D02*
X144459253Y-112875000D01*
D45*
G04 #@! TO.N,/DSI_DATAN0*
X150565989Y-116721512D02*
X150565989Y-120981245D01*
X151167089Y-122794588D02*
X151251100Y-122878599D01*
X150565989Y-120981245D02*
X151167089Y-121582345D01*
X150575000Y-116225000D02*
X150575000Y-116712501D01*
X151167089Y-121582345D02*
X151167089Y-122794588D01*
X150575000Y-116712501D02*
X150565989Y-116721512D01*
X151251100Y-122878599D02*
X151251100Y-124753600D01*
G04 #@! TO.N,/CSI_CLKN*
X154167089Y-122794588D02*
X154251100Y-122878599D01*
X152315989Y-118931245D02*
X154167089Y-120782345D01*
X152325000Y-116712501D02*
X152315989Y-116721512D01*
X154251100Y-122878599D02*
X154251100Y-124753600D01*
X152315989Y-116721512D02*
X152315989Y-118931245D01*
X154167089Y-120782345D02*
X154167089Y-122794588D01*
X152325000Y-116225000D02*
X152325000Y-116712501D01*
D41*
G04 #@! TO.N,/GPIO10*
X146175000Y-110425000D02*
X146200000Y-110400000D01*
X145475000Y-110425000D02*
X146175000Y-110425000D01*
D45*
G04 #@! TO.N,/CSI_DATAP0*
X151625000Y-116712501D02*
X151615989Y-116721512D01*
X151615989Y-116721512D02*
X151615989Y-120881245D01*
X152667089Y-122794588D02*
X152751100Y-122878599D01*
X151625000Y-116225000D02*
X151625000Y-116712501D01*
X152667089Y-121932345D02*
X152667089Y-122794588D01*
X151615989Y-120881245D02*
X152667089Y-121932345D01*
X152751100Y-122878599D02*
X152751100Y-124753600D01*
D41*
G04 #@! TO.N,/I2S_SCLK*
X155325000Y-115675000D02*
X155825000Y-115675000D01*
X155825000Y-115675000D02*
X156100000Y-115400000D01*
X156100000Y-115400000D02*
X157400000Y-115400000D01*
X157400000Y-115400000D02*
X157700000Y-115700000D01*
D45*
G04 #@! TO.N,/CSI_CLKP*
X151984011Y-116721512D02*
X151984011Y-119068755D01*
X151984011Y-119068755D02*
X153835111Y-120919855D01*
X151975000Y-116712501D02*
X151984011Y-116721512D01*
X151975000Y-116225000D02*
X151975000Y-116712501D01*
X153835111Y-120919855D02*
X153835111Y-122794588D01*
X153835111Y-122794588D02*
X153751100Y-122878599D01*
X153751100Y-122878599D02*
X153751100Y-124753600D01*
D41*
G04 #@! TO.N,Net-(U2A-GPIO51)*
X149525000Y-106375000D02*
X149525000Y-105415000D01*
G04 #@! TO.N,Net-(U5-V3)*
X138300000Y-107962500D02*
X138300000Y-106570000D01*
X138300000Y-106570000D02*
X138150000Y-106420000D01*
D42*
G04 #@! TO.N,Net-(D2-A)*
X138700000Y-99600000D02*
X138700000Y-98200000D01*
D41*
G04 #@! TO.N,Net-(J2-CC1)*
X142375000Y-103495000D02*
X142350000Y-103470000D01*
X142375000Y-104400000D02*
X142375000Y-103495000D01*
G04 #@! TO.N,Net-(J2-CC2)*
X141810000Y-101350000D02*
X141800000Y-101360000D01*
X142350000Y-101350000D02*
X141810000Y-101350000D01*
G04 #@! TO.N,Net-(Q2B-B2)*
X139950000Y-103992500D02*
X139950000Y-103325000D01*
X139950000Y-103325000D02*
X139550000Y-102925000D01*
G04 #@! TO.N,Net-(Q2A-B1)*
X138800000Y-104400000D02*
X138800000Y-102800000D01*
X139100000Y-104700000D02*
X138800000Y-104400000D01*
X140970000Y-102470000D02*
X140970000Y-102842500D01*
X139407107Y-104700000D02*
X139100000Y-104700000D01*
X140600000Y-102100000D02*
X140970000Y-102470000D01*
X139950000Y-105242893D02*
X139407107Y-104700000D01*
X139950000Y-105892500D02*
X139950000Y-105242893D01*
G04 #@! TO.N,/SD2_DATA1*
X155325000Y-112875000D02*
X156000000Y-112875000D01*
X156000000Y-112875000D02*
X156100000Y-112975000D01*
G04 #@! TO.N,/SD2_DATA2*
X154725000Y-113225000D02*
X154700000Y-113200000D01*
X155325000Y-113225000D02*
X154725000Y-113225000D01*
G04 #@! TO.N,/SD2_CLK*
X155325000Y-112175000D02*
X154675000Y-112175000D01*
X154675000Y-112175000D02*
X154650000Y-112200000D01*
G04 #@! TO.N,/SD2_CMD*
X155985409Y-111825000D02*
X156038382Y-111772027D01*
X155325000Y-111825000D02*
X155985409Y-111825000D01*
G04 #@! TO.N,/SD2_DATA0*
X155325000Y-114275000D02*
X155975000Y-114275000D01*
X155975000Y-114275000D02*
X156100000Y-114150000D01*
G04 #@! TO.N,/SD2_DATA3*
X155325000Y-113925000D02*
X154725000Y-113925000D01*
X154725000Y-113925000D02*
X154700000Y-113900000D01*
G04 #@! TO.N,Net-(U2A-FB_DCDC)*
X155750000Y-106700000D02*
X155750000Y-106500000D01*
X155325000Y-106925000D02*
X155625000Y-106925000D01*
X144842893Y-98950000D02*
X145442893Y-98350000D01*
X155750000Y-106500000D02*
X155850000Y-106400000D01*
X155800000Y-106750000D02*
X155750000Y-106700000D01*
X155625000Y-106925000D02*
X155800000Y-106750000D01*
X140250000Y-98950000D02*
X144842893Y-98950000D01*
X145442893Y-98350000D02*
X145550000Y-98350000D01*
G04 #@! TO.N,Net-(D1-A)*
X149650000Y-104387811D02*
X150051000Y-103986811D01*
X150051000Y-103986811D02*
X150051000Y-103329001D01*
X149650000Y-104650000D02*
X149650000Y-104387811D01*
X150180001Y-103200000D02*
X150500000Y-103200000D01*
X150051000Y-103329001D02*
X150180001Y-103200000D01*
G04 #@! TO.N,/SD_DATA1*
X154075000Y-105725000D02*
X155600000Y-104200000D01*
X151300000Y-97900000D02*
X150150000Y-97900000D01*
D42*
X150050000Y-97900000D02*
X150100000Y-97850000D01*
D41*
X154075000Y-106375000D02*
X154075000Y-105725000D01*
X155600000Y-104200000D02*
X155600000Y-99200000D01*
X150150000Y-97900000D02*
X150100000Y-97850000D01*
D42*
X148020000Y-97900000D02*
X150050000Y-97900000D01*
G04 #@! TO.N,/SD_DATA2*
X148750000Y-90150000D02*
X150100000Y-90150000D01*
D41*
X154900000Y-91400000D02*
X153700000Y-90200000D01*
X153725000Y-106375000D02*
X153725000Y-105625000D01*
X154900000Y-104450000D02*
X154900000Y-91400000D01*
X150150000Y-90200000D02*
X150100000Y-90150000D01*
X151400000Y-90200000D02*
X150150000Y-90200000D01*
D42*
X148100000Y-89500000D02*
X148750000Y-90150000D01*
D41*
X153725000Y-105625000D02*
X154900000Y-104450000D01*
X153700000Y-90200000D02*
X151400000Y-90200000D01*
D42*
X148020000Y-89500000D02*
X148100000Y-89500000D01*
G04 #@! TD*
G04 #@! TA.AperFunction,Conductor*
G04 #@! TO.N,Net-(IC4-SW)*
G36*
X142360866Y-87760866D02*
G01*
X142387474Y-87787474D01*
X142397388Y-87808153D01*
X142397895Y-87808071D01*
X142398056Y-87809065D01*
X142409259Y-87860564D01*
X142409259Y-87860565D01*
X142409260Y-87860566D01*
X142443687Y-87929342D01*
X142443691Y-87929347D01*
X142443741Y-87929421D01*
X142443762Y-87929492D01*
X142444726Y-87931417D01*
X142444396Y-87931581D01*
X142450000Y-87950043D01*
X142450000Y-88000000D01*
X142500000Y-88050000D01*
X142633095Y-88050000D01*
X142638375Y-88050378D01*
X142674000Y-88055500D01*
X142830406Y-88055500D01*
X142837643Y-88056212D01*
X142852158Y-88059100D01*
X142852161Y-88059100D01*
X143212900Y-88059100D01*
X143239134Y-88069966D01*
X143250000Y-88096200D01*
X143250000Y-88362900D01*
X143239134Y-88389134D01*
X143212900Y-88400000D01*
X142856439Y-88400000D01*
X142835827Y-88393747D01*
X142832200Y-88391323D01*
X142832198Y-88391322D01*
X142790946Y-88371812D01*
X142790944Y-88371811D01*
X142770335Y-88365560D01*
X142770330Y-88365558D01*
X142770327Y-88365558D01*
X142770320Y-88365556D01*
X142745499Y-88360197D01*
X142745497Y-88360197D01*
X142665693Y-88370702D01*
X142639459Y-88381569D01*
X142616144Y-88395030D01*
X142597594Y-88400000D01*
X142500000Y-88400000D01*
X142450000Y-88450000D01*
X142450000Y-88450001D01*
X142450000Y-89034632D01*
X142439134Y-89060866D01*
X142360866Y-89139134D01*
X142334632Y-89150000D01*
X137887100Y-89150000D01*
X137860866Y-89139134D01*
X137850000Y-89112900D01*
X137850000Y-87787100D01*
X137860866Y-87760866D01*
X137887100Y-87750000D01*
X142334632Y-87750000D01*
X142360866Y-87760866D01*
G37*
G04 #@! TD.AperFunction*
G04 #@! TD*
G04 #@! TA.AperFunction,Conductor*
G04 #@! TO.N,Net-(IC2-SW)*
G36*
X145693039Y-94619685D02*
G01*
X145738794Y-94672489D01*
X145750000Y-94724000D01*
X145750000Y-96026000D01*
X145730315Y-96093039D01*
X145677511Y-96138794D01*
X145626000Y-96150000D01*
X144010928Y-96150000D01*
X143978835Y-96145775D01*
X143944322Y-96136527D01*
X143899435Y-96124500D01*
X143800565Y-96124500D01*
X143721165Y-96145775D01*
X143689072Y-96150000D01*
X143460928Y-96150000D01*
X143428835Y-96145775D01*
X143394322Y-96136527D01*
X143349435Y-96124500D01*
X143250565Y-96124500D01*
X143171165Y-96145775D01*
X143139072Y-96150000D01*
X142524000Y-96150000D01*
X142515314Y-96147449D01*
X142506353Y-96148738D01*
X142482312Y-96137759D01*
X142456961Y-96130315D01*
X142451033Y-96123474D01*
X142442797Y-96119713D01*
X142428507Y-96097478D01*
X142411206Y-96077511D01*
X142408918Y-96066996D01*
X142405023Y-96060935D01*
X142400000Y-96026000D01*
X142400000Y-95974500D01*
X142419685Y-95907461D01*
X142472489Y-95861706D01*
X142524000Y-95850500D01*
X142786932Y-95850500D01*
X142797110Y-95850000D01*
X142950000Y-95850000D01*
X143250000Y-95550000D01*
X143250000Y-94801362D01*
X143258644Y-94771921D01*
X143265168Y-94741935D01*
X143268922Y-94736919D01*
X143269685Y-94734323D01*
X143286319Y-94713681D01*
X143363681Y-94636319D01*
X143425004Y-94602834D01*
X143451362Y-94600000D01*
X145626000Y-94600000D01*
X145693039Y-94619685D01*
G37*
G04 #@! TD.AperFunction*
G04 #@! TD*
G04 #@! TA.AperFunction,Conductor*
G04 #@! TO.N,GND*
G36*
X144177234Y-85794466D02*
G01*
X144188100Y-85820700D01*
X144188100Y-87415198D01*
X144177234Y-87441432D01*
X144171612Y-87446045D01*
X144129010Y-87474511D01*
X144076410Y-87553235D01*
X144076408Y-87553238D01*
X144062600Y-87622652D01*
X144062600Y-87844547D01*
X144076408Y-87913961D01*
X144076410Y-87913965D01*
X144109166Y-87962989D01*
X144114705Y-87990838D01*
X144109166Y-88004211D01*
X144076410Y-88053234D01*
X144076408Y-88053238D01*
X144062600Y-88122652D01*
X144062600Y-88344547D01*
X144076408Y-88413961D01*
X144076410Y-88413965D01*
X144109166Y-88462989D01*
X144114705Y-88490838D01*
X144109166Y-88504211D01*
X144076410Y-88553234D01*
X144076408Y-88553238D01*
X144062600Y-88622652D01*
X144062600Y-88844547D01*
X144076408Y-88913961D01*
X144076410Y-88913964D01*
X144129009Y-88992687D01*
X144129011Y-88992689D01*
X144207737Y-89045291D01*
X144242924Y-89052290D01*
X144277152Y-89059099D01*
X144277154Y-89059099D01*
X144277158Y-89059100D01*
X144277161Y-89059100D01*
X144348232Y-89059100D01*
X144374465Y-89069966D01*
X144388099Y-89083599D01*
X144388100Y-89083600D01*
X145022732Y-89083600D01*
X145048966Y-89094466D01*
X145338100Y-89383600D01*
X145768245Y-89383600D01*
X145794479Y-89394466D01*
X145799114Y-89400121D01*
X145881869Y-89524253D01*
X145888100Y-89544832D01*
X145888100Y-91896500D01*
X145877234Y-91922734D01*
X145851000Y-91933600D01*
X144275200Y-91933600D01*
X144248966Y-91922734D01*
X144238100Y-91896500D01*
X144238100Y-89383601D01*
X144238100Y-89383600D01*
X144088100Y-89233600D01*
X144088099Y-89233600D01*
X142903468Y-89233600D01*
X142877234Y-89222734D01*
X142698966Y-89044466D01*
X142688100Y-89018232D01*
X142688100Y-88551466D01*
X142698966Y-88525232D01*
X142725200Y-88514366D01*
X142745809Y-88520617D01*
X142782737Y-88545291D01*
X142813780Y-88551466D01*
X142852152Y-88559099D01*
X142852154Y-88559099D01*
X142852158Y-88559100D01*
X142852161Y-88559100D01*
X143399039Y-88559100D01*
X143399042Y-88559100D01*
X143468463Y-88545291D01*
X143547189Y-88492689D01*
X143599791Y-88413963D01*
X143613600Y-88344542D01*
X143613600Y-88122658D01*
X143611819Y-88113707D01*
X143599791Y-88053238D01*
X143599791Y-88053237D01*
X143567032Y-88004210D01*
X143561494Y-87976362D01*
X143567033Y-87962989D01*
X143599791Y-87913963D01*
X143613600Y-87844542D01*
X143613600Y-87622658D01*
X143599791Y-87553237D01*
X143547189Y-87474511D01*
X143547187Y-87474509D01*
X143468464Y-87421910D01*
X143468463Y-87421909D01*
X143468462Y-87421908D01*
X143468461Y-87421908D01*
X143399047Y-87408100D01*
X143399042Y-87408100D01*
X143377968Y-87408100D01*
X143351735Y-87397234D01*
X143288100Y-87333600D01*
X142818878Y-87333600D01*
X142792644Y-87322734D01*
X142598966Y-87129056D01*
X142588100Y-87102822D01*
X142588100Y-85820700D01*
X142598966Y-85794466D01*
X142625200Y-85783600D01*
X144151000Y-85783600D01*
X144177234Y-85794466D01*
G37*
G04 #@! TD.AperFunction*
G04 #@! TD*
G04 #@! TA.AperFunction,Conductor*
G04 #@! TO.N,/USB5V*
G36*
X138992539Y-120419685D02*
G01*
X139038294Y-120472489D01*
X139047604Y-120515284D01*
X139048439Y-120515175D01*
X139049499Y-120523232D01*
X139049500Y-120523235D01*
X139075090Y-120618738D01*
X139124525Y-120704362D01*
X139124526Y-120704363D01*
X139128589Y-120711400D01*
X139125986Y-120712902D01*
X139146002Y-120764718D01*
X139131944Y-120833159D01*
X139128485Y-120838540D01*
X139128589Y-120838600D01*
X139124526Y-120845636D01*
X139124525Y-120845638D01*
X139104228Y-120880793D01*
X139075091Y-120931259D01*
X139075091Y-120931260D01*
X139075090Y-120931262D01*
X139049500Y-121026765D01*
X139049500Y-121125635D01*
X139075090Y-121221138D01*
X139124525Y-121306762D01*
X139194438Y-121376675D01*
X139280062Y-121426110D01*
X139375565Y-121451700D01*
X139375567Y-121451700D01*
X139474432Y-121451700D01*
X139474435Y-121451700D01*
X139569938Y-121426110D01*
X139655562Y-121376675D01*
X139725475Y-121306762D01*
X139762128Y-121243276D01*
X139812694Y-121195062D01*
X139869514Y-121181278D01*
X140336495Y-121181278D01*
X140403534Y-121200963D01*
X140449289Y-121253767D01*
X140459233Y-121322925D01*
X140451055Y-121352732D01*
X140450091Y-121355056D01*
X140436492Y-121405809D01*
X140424500Y-121450565D01*
X140424500Y-121549435D01*
X140450090Y-121644938D01*
X140499525Y-121730562D01*
X140569438Y-121800475D01*
X140655062Y-121849910D01*
X140655067Y-121849911D01*
X140662569Y-121853019D01*
X140661537Y-121855510D01*
X140709877Y-121884958D01*
X140740422Y-121947797D01*
X140737919Y-122000483D01*
X140724500Y-122050563D01*
X140724500Y-122050565D01*
X140724500Y-122149435D01*
X140731834Y-122176807D01*
X140737919Y-122199515D01*
X140736256Y-122269365D01*
X140697093Y-122327227D01*
X140661901Y-122345370D01*
X140662569Y-122346981D01*
X140655059Y-122350091D01*
X140569436Y-122399526D01*
X140499526Y-122469436D01*
X140450091Y-122555059D01*
X140450091Y-122555060D01*
X140450090Y-122555062D01*
X140424500Y-122650565D01*
X140424500Y-122749435D01*
X140450090Y-122844938D01*
X140499525Y-122930562D01*
X140569438Y-123000475D01*
X140655062Y-123049910D01*
X140750565Y-123075500D01*
X140750567Y-123075500D01*
X140826000Y-123075500D01*
X140834685Y-123078050D01*
X140843647Y-123076762D01*
X140867687Y-123087740D01*
X140893039Y-123095185D01*
X140898966Y-123102025D01*
X140907203Y-123105787D01*
X140921492Y-123128021D01*
X140938794Y-123147989D01*
X140941081Y-123158503D01*
X140944977Y-123164565D01*
X140950000Y-123199500D01*
X140950000Y-123383815D01*
X140935775Y-123432258D01*
X140939006Y-123433597D01*
X140934332Y-123444880D01*
X140933275Y-123450194D01*
X140900888Y-123512104D01*
X140840172Y-123546677D01*
X140811658Y-123550000D01*
X138875600Y-123550000D01*
X138808561Y-123530315D01*
X138762806Y-123477511D01*
X138751600Y-123426000D01*
X138751600Y-122434604D01*
X138724681Y-122299277D01*
X138724680Y-122299276D01*
X138724680Y-122299272D01*
X138702174Y-122244938D01*
X138671878Y-122171795D01*
X138671871Y-122171782D01*
X138595214Y-122057058D01*
X138595211Y-122057054D01*
X138497645Y-121959488D01*
X138497641Y-121959485D01*
X138382917Y-121882828D01*
X138382904Y-121882821D01*
X138255432Y-121830021D01*
X138255422Y-121830018D01*
X138120095Y-121803100D01*
X138120093Y-121803100D01*
X138090982Y-121803100D01*
X137825600Y-121803100D01*
X137758561Y-121783415D01*
X137712806Y-121730611D01*
X137701600Y-121679100D01*
X137701600Y-120524000D01*
X137721285Y-120456961D01*
X137774089Y-120411206D01*
X137825600Y-120400000D01*
X138925500Y-120400000D01*
X138992539Y-120419685D01*
G37*
G04 #@! TD.AperFunction*
G04 #@! TD*
G04 #@! TA.AperFunction,Conductor*
G04 #@! TO.N,/1.2V*
G36*
X147072539Y-92319685D02*
G01*
X147118294Y-92372489D01*
X147129500Y-92424000D01*
X147129500Y-94076000D01*
X147109815Y-94143039D01*
X147057011Y-94188794D01*
X147005500Y-94200000D01*
X143399999Y-94200000D01*
X142836319Y-94763681D01*
X142774996Y-94797166D01*
X142748638Y-94800000D01*
X141824000Y-94800000D01*
X141756961Y-94780315D01*
X141711206Y-94727511D01*
X141700000Y-94676000D01*
X141700000Y-92424000D01*
X141719685Y-92356961D01*
X141772489Y-92311206D01*
X141824000Y-92300000D01*
X147005500Y-92300000D01*
X147072539Y-92319685D01*
G37*
G04 #@! TD.AperFunction*
G04 #@! TD*
G04 #@! TA.AperFunction,Conductor*
G04 #@! TO.N,GND*
G36*
X141478326Y-92321674D02*
G01*
X141500000Y-92374000D01*
X141500000Y-94850000D01*
X141750000Y-95100000D01*
X142826000Y-95100000D01*
X142878326Y-95121674D01*
X142900000Y-95174000D01*
X142900000Y-95526000D01*
X142878326Y-95578326D01*
X142826000Y-95600000D01*
X142200000Y-95600000D01*
X142200000Y-95653467D01*
X142178326Y-95705793D01*
X142167112Y-95714996D01*
X142090911Y-95765910D01*
X142090910Y-95765911D01*
X142038309Y-95844636D01*
X142038309Y-95844637D01*
X142024500Y-95914058D01*
X142024500Y-96135942D01*
X142038309Y-96205363D01*
X142055508Y-96231103D01*
X142057369Y-96233889D01*
X142068417Y-96289438D01*
X142057368Y-96316111D01*
X142038309Y-96344637D01*
X142024500Y-96414058D01*
X142024500Y-96635942D01*
X142038309Y-96705363D01*
X142090911Y-96784089D01*
X142169637Y-96836691D01*
X142231325Y-96848961D01*
X142269213Y-96869213D01*
X142378326Y-96978326D01*
X142400000Y-97030652D01*
X142400000Y-98326000D01*
X142378326Y-98378326D01*
X142326000Y-98400000D01*
X140774000Y-98400000D01*
X140721674Y-98378326D01*
X140700000Y-98326000D01*
X140700000Y-97230652D01*
X140721674Y-97178326D01*
X140878326Y-97021674D01*
X140930652Y-97000000D01*
X141400000Y-97000000D01*
X141400000Y-96896532D01*
X141421674Y-96844206D01*
X141432889Y-96835003D01*
X141462339Y-96815326D01*
X141509089Y-96784089D01*
X141561691Y-96705363D01*
X141575500Y-96635942D01*
X141575500Y-96414058D01*
X141561691Y-96344637D01*
X141542630Y-96316111D01*
X141531582Y-96260563D01*
X141542631Y-96233888D01*
X141551587Y-96220484D01*
X141561691Y-96205363D01*
X141575500Y-96135942D01*
X141575500Y-95914058D01*
X141561691Y-95844637D01*
X141542630Y-95816111D01*
X141531582Y-95760563D01*
X141542631Y-95733888D01*
X141561691Y-95705363D01*
X141575500Y-95635942D01*
X141575500Y-95414058D01*
X141561691Y-95344637D01*
X141509089Y-95265911D01*
X141430363Y-95213309D01*
X141360942Y-95199500D01*
X141330152Y-95199500D01*
X141277826Y-95177826D01*
X141200000Y-95100000D01*
X139004343Y-95100000D01*
X138985190Y-95097478D01*
X138899437Y-95074500D01*
X138899435Y-95074500D01*
X138800565Y-95074500D01*
X138800563Y-95074500D01*
X138714810Y-95097478D01*
X138695657Y-95100000D01*
X137974000Y-95100000D01*
X137921674Y-95078326D01*
X137900000Y-95026000D01*
X137900000Y-92374000D01*
X137921674Y-92321674D01*
X137974000Y-92300000D01*
X141426000Y-92300000D01*
X141478326Y-92321674D01*
G37*
G04 #@! TD.AperFunction*
G04 #@! TD*
G04 #@! TA.AperFunction,Conductor*
G04 #@! TO.N,/USB5V*
G36*
X142343039Y-85519685D02*
G01*
X142388794Y-85572489D01*
X142400000Y-85624000D01*
X142400000Y-87150000D01*
X142750000Y-87500000D01*
X143126000Y-87500000D01*
X143134685Y-87502550D01*
X143143647Y-87501262D01*
X143167687Y-87512240D01*
X143193039Y-87519685D01*
X143198966Y-87526525D01*
X143207203Y-87530287D01*
X143221492Y-87552521D01*
X143238794Y-87572489D01*
X143241081Y-87583003D01*
X143244977Y-87589065D01*
X143250000Y-87624000D01*
X143250000Y-87776000D01*
X143230315Y-87843039D01*
X143177511Y-87888794D01*
X143126000Y-87900000D01*
X142674000Y-87900000D01*
X142606961Y-87880315D01*
X142561206Y-87827511D01*
X142550000Y-87776000D01*
X142550000Y-87700000D01*
X142400000Y-87550000D01*
X140151362Y-87550000D01*
X140121921Y-87541355D01*
X140091935Y-87534832D01*
X140086919Y-87531077D01*
X140084323Y-87530315D01*
X140063681Y-87513681D01*
X140036319Y-87486319D01*
X140002834Y-87424996D01*
X140000000Y-87398638D01*
X140000000Y-85624000D01*
X140019685Y-85556961D01*
X140072489Y-85511206D01*
X140124000Y-85500000D01*
X142276000Y-85500000D01*
X142343039Y-85519685D01*
G37*
G04 #@! TD.AperFunction*
G04 #@! TD*
G04 #@! TA.AperFunction,Conductor*
G04 #@! TO.N,/3.3V*
G36*
X143989134Y-89560866D02*
G01*
X144000000Y-89587100D01*
X144000000Y-91912900D01*
X143989134Y-91939134D01*
X143962900Y-91950000D01*
X137887100Y-91950000D01*
X137860866Y-91939134D01*
X137850000Y-91912900D01*
X137850000Y-89915368D01*
X137860866Y-89889134D01*
X138189134Y-89560866D01*
X138215368Y-89550000D01*
X143962900Y-89550000D01*
X143989134Y-89560866D01*
G37*
G04 #@! TD.AperFunction*
G04 #@! TD*
G04 #@! TA.AperFunction,Conductor*
G04 #@! TO.N,/USB5V*
G36*
X144043039Y-96369685D02*
G01*
X144088794Y-96422489D01*
X144100000Y-96474000D01*
X144100000Y-98226000D01*
X144080315Y-98293039D01*
X144027511Y-98338794D01*
X143976000Y-98350000D01*
X142824000Y-98350000D01*
X142756961Y-98330315D01*
X142711206Y-98277511D01*
X142700000Y-98226000D01*
X142700000Y-97000000D01*
X142436319Y-96736319D01*
X142421615Y-96709391D01*
X142405023Y-96683573D01*
X142404131Y-96677372D01*
X142402834Y-96674996D01*
X142400000Y-96648638D01*
X142400000Y-96474500D01*
X142419685Y-96407461D01*
X142472489Y-96361706D01*
X142524000Y-96350500D01*
X142786932Y-96350500D01*
X142797110Y-96350000D01*
X143976000Y-96350000D01*
X144043039Y-96369685D01*
G37*
G04 #@! TD.AperFunction*
G04 #@! TD*
M02*
