G04 #@! TF.GenerationSoftware,KiCad,Pcbnew,9.0.0+1*
G04 #@! TF.CreationDate,2025-04-09T20:19:07+02:00*
G04 #@! TF.ProjectId,P4_M.2_B+M-key,50345f4d-2e32-45f4-922b-4d2d6b65792e,rev?*
G04 #@! TF.SameCoordinates,Original*
G04 #@! TF.FileFunction,Profile,NP*
%FSLAX46Y46*%
G04 Gerber Fmt 4.6, Leading zero omitted, Abs format (unit mm)*
G04 Created by KiCad (PCBNEW 9.0.0+1) date 2025-04-09 20:19:07*
%MOMM*%
%LPD*%
G01*
G04 APERTURE LIST*
G04 #@! TA.AperFunction,Profile*
%ADD10C,0.050000*%
G04 #@! TD*
G04 APERTURE END LIST*
D10*
G04 #@! TO.C,U4*
X137501100Y-84503600D02*
X137501100Y-121803600D01*
X137701100Y-122003600D02*
X138051100Y-122003600D01*
X138551100Y-122503600D02*
X138551100Y-125803600D01*
X141776100Y-123103600D02*
X141776100Y-126003600D01*
X141776100Y-126003600D02*
X138751100Y-126003600D01*
X142976100Y-123103600D02*
X142976100Y-126003600D01*
X142976100Y-126003600D02*
X154701100Y-126003600D01*
X154701100Y-126003600D02*
X158251100Y-126003600D01*
X158451100Y-125803600D02*
X158451100Y-122503600D01*
X158951100Y-122003600D02*
X159301100Y-122003600D01*
X159001100Y-84003600D02*
X138001100Y-84003600D01*
X159501100Y-121803600D02*
X159501100Y-84503600D01*
X137501100Y-84503600D02*
G75*
G02*
X138001100Y-84003600I500001J-1D01*
G01*
X137701100Y-122003600D02*
G75*
G02*
X137501100Y-121803600I1J200001D01*
G01*
X138051100Y-122003600D02*
G75*
G02*
X138551100Y-122503600I-1J-500001D01*
G01*
X138751100Y-126003600D02*
G75*
G02*
X138551100Y-125803600I1J200001D01*
G01*
X141776100Y-123103600D02*
G75*
G02*
X142376100Y-122503600I600000J0D01*
G01*
X142376100Y-122503600D02*
G75*
G02*
X142976100Y-123103600I0J-600000D01*
G01*
X158451100Y-122503600D02*
G75*
G02*
X158951100Y-122003600I500000J0D01*
G01*
X158451100Y-125803600D02*
G75*
G02*
X158251100Y-126003600I-200000J0D01*
G01*
X159001100Y-84003600D02*
G75*
G02*
X159501100Y-84503600I0J-500000D01*
G01*
X159501100Y-121803600D02*
G75*
G02*
X159301100Y-122003600I-200000J0D01*
G01*
G04 #@! TD*
M02*
