0
SECTION
2
HEADER
9
$INSUNITS
70
4
9
$ACADVER
1
AC1014
9
$HANDSEED
5
FFFF
0
ENDSEC
0
SECTION
2
TABLES
0
TABLE
2
VPORT
5
8
100
AcDbSymbolTable
0
ENDTAB
0
TABLE
2
LTYPE
5
5
100
AcDbSymbolTable
0
LTYPE
5
14
100
AcDbSymbolTableRecord
100
AcDbLinetypeTableRecord
2
BYBLOCK
70
0
0
LTYPE
5
15
100
AcDbSymbolTableRecord
100
AcDbLinetypeTableRecord
2
BYLAYER
70
0
0
LTYPE
5
16
100
AcDbSymbolTableRecord
100
AcDbLinetypeTableRecord
2
DASHED
70
0
3
Dashed __ __ __ __ __ __ __ __ __ __ __ __ __ _
72
65
73
2
40
0.75
49
0.5
74
0
49
-0.25
74
0
0
ENDTAB
0
TABLE
2
LAYER
5
2
100
AcDbSymbolTable
70
2
0
LAYER
5
50
100
AcDbSymbolTableRecord
100
AcDbLayerTableRecord
2
0
70
0
62
7
6
CONTINUOUS
0
ENDTAB
0
TABLE
2
STYLE
5
3
100
AcDbSymbolTable
70
1
0
STYLE
5
11
100
AcDbSymbolTableRecord
100
AcDbTextStyleTableRecord
2
STANDARD
70
0
0
ENDTAB
0
TABLE
2
VIEW
5
6
100
AcDbSymbolTable
70
0
0
ENDTAB
0
TABLE
2
UCS
5
7
100
AcDbSymbolTable
70
0
0
ENDTAB
0
TABLE
2
APPID
5
9
100
AcDbSymbolTable
70
2
0
APPID
5
12
100
AcDbSymbolTableRecord
100
AcDbRegAppTableRecord
2
ACAD
70
0
0
ENDTAB
0
TABLE
2
DIMSTYLE
5
A
100
AcDbSymbolTable
70
1
0
ENDTAB
0
TABLE
2
BLOCK_RECORD
5
1
100
AcDbSymbolTable
70
1
0
BLOCK_RECORD
5
1F
100
AcDbSymbolTableRecord
100
AcDbBlockTableRecord
2
*MODEL_SPACE
0
BLOCK_RECORD
5
1B
100
AcDbSymbolTableRecord
100
AcDbBlockTableRecord
2
*PAPER_SPACE
0
ENDTAB
0
ENDSEC
0
SECTION
2
BLOCKS
0
BLOCK
5
20
100
AcDbEntity
100
AcDbBlockBegin
2
*MODEL_SPACE
0
ENDBLK
5
21
100
AcDbEntity
100
AcDbBlockEnd
0
BLOCK
5
1C
100
AcDbEntity
100
AcDbBlockBegin
2
*PAPER_SPACE
0
ENDBLK
5
1D
100
AcDbEntity
100
AcDbBlockEnd
0
ENDSEC
0
SECTION
2
ENTITIES
0
LINE
5
100
100
AcDbEntity
8
0
100
AcDbLine
10
-23.029667546798336
20
-41.489652401841006
30
0
11
-23.029666640564201
21
-35.473437660673795
31
0
0
SPLINE
5
101
100
AcDbEntity
8
0
100
AcDbSpline
70
0
71
3
72
11
73
7
74
0
42
0.000000001
43
0.0000000001
44
0.0000000001
40
13
40
13
40
13
40
13
40
14
40
14
40
14
40
15
40
15
40
15
40
15
10
-23.029666640564201
20
-35.473437660673802
30
0
10
-23.029645108717403
20
-35.125913653599198
30
0
10
-23.082288505679401
20
-34.776364819558502
30
0
10
-23.2177688540588
20
-34.456359346040898
30
0
10
-23.625597638543301
20
-33.493065076029502
30
0
10
-24.548544644470503
20
-32.913667119592802
30
0
10
-25.529470988355101
20
-32.913667119592802
30
0
0
LINE
5
102
100
AcDbEntity
8
0
100
AcDbLine
10
-25.529470988355101
20
-32.913667119592802
30
0
11
-43.127341704713004
21
-32.913667119592802
31
0
0
SPLINE
5
103
100
AcDbEntity
8
0
100
AcDbSpline
70
0
71
3
72
8
73
4
74
0
42
0.000000001
43
0.0000000001
44
0.0000000001
40
16
40
16
40
16
40
16
40
17
40
17
40
17
40
17
10
-43.127341704713004
20
-32.913667119592802
30
0
10
-43.403466107855699
20
-32.913667119592802
30
0
10
-43.6273327188566
20
-33.137533730593702
30
0
10
-43.6273327188566
20
-33.413658133736405
30
0
0
LINE
5
104
100
AcDbEntity
8
0
100
AcDbLine
10
-43.627332718856607
20
-33.413658133736405
30
0
11
-43.6273327188566
21
-36.515880490816798
31
0
0
SPLINE
5
105
100
AcDbEntity
8
0
100
AcDbSpline
70
0
71
3
72
8
73
4
74
0
42
0.000000001
43
0.0000000001
44
0.0000000001
40
18
40
18
40
18
40
18
40
19
40
19
40
19
40
19
10
-43.6273327188566
20
-36.515880490816798
30
0
10
-43.6273327188566
20
-37.067655596473102
30
0
10
-44.074635303922697
20
-37.5149581815392
30
0
10
-44.626410409579108
20
-37.5149581815392
30
0
0
LINE
5
106
100
AcDbEntity
8
0
100
AcDbLine
10
-44.626410409579108
20
-37.5149581815392
30
0
11
-47.627820660022302
21
-37.5149581815392
31
0
0
SPLINE
5
107
100
AcDbEntity
8
0
100
AcDbSpline
70
0
71
3
72
8
73
4
74
0
42
0.000000001
43
0.0000000001
44
0.0000000001
40
20
40
20
40
20
40
20
40
21
40
21
40
21
40
21
10
-47.627820660022302
20
-37.5149581815392
30
0
10
-48.1803709121628
20
-37.5149581815392
30
0
10
-48.628297920785606
20
-37.067031172916401
30
0
10
-48.628297920785606
20
-36.514480920775902
30
0
0
LINE
5
108
100
AcDbEntity
8
0
100
AcDbLine
10
-48.628297920785606
20
-36.514480920775902
30
0
11
-48.628297920785606
21
-33.413658133736405
31
0
0
SPLINE
5
109
100
AcDbEntity
8
0
100
AcDbSpline
70
0
71
3
72
8
73
4
74
0
42
0.000000001
43
0.0000000001
44
0.0000000001
40
22
40
22
40
22
40
22
40
23
40
23
40
23
40
23
10
-48.628297920785606
20
-33.413658133736405
30
0
10
-48.628297920785606
20
-33.137533730593702
30
0
10
-48.852164531786499
20
-32.913667119592802
30
0
10
-49.128288934929301
20
-32.913667119592802
30
0
0
LINE
5
110
100
AcDbEntity
8
0
100
AcDbLine
10
-49.128288934929294
20
-32.913667119592802
30
0
11
-86.926821538598205
21
-32.913667119592802
31
0
0
SPLINE
5
111
100
AcDbEntity
8
0
100
AcDbSpline
70
0
71
3
72
8
73
4
74
0
42
0.000000001
43
0.0000000001
44
0.0000000001
40
24
40
24
40
24
40
24
40
25
40
25
40
25
40
25
10
-86.926821538598205
20
-32.913667119592802
30
0
10
-87.202945941740907
20
-32.913667119592802
30
0
10
-87.426812552741794
20
-33.137533730593702
30
0
10
-87.426812552741794
20
-33.413658133736405
30
0
0
LINE
5
112
100
AcDbEntity
8
0
100
AcDbLine
10
-87.426812552741794
20
-33.413658133736405
30
0
11
-87.426812552741794
21
-36.515880490816798
31
0
0
SPLINE
5
113
100
AcDbEntity
8
0
100
AcDbSpline
70
0
71
3
72
8
73
4
74
0
42
0.000000001
43
0.0000000001
44
0.0000000001
40
26
40
26
40
26
40
26
40
27
40
27
40
27
40
27
10
-87.426812552741794
20
-36.515880490816798
30
0
10
-87.426812552741794
20
-37.067655596473102
30
0
10
-87.874115137808019
20
-37.5149581815392
30
0
10
-88.425890243464295
20
-37.5149581815392
30
0
0
LINE
5
114
100
AcDbEntity
8
0
100
AcDbLine
10
-88.425890243464295
20
-37.5149581815392
30
0
11
-91.427300493907495
21
-37.5149581815392
31
0
0
SPLINE
5
115
100
AcDbEntity
8
0
100
AcDbSpline
70
0
71
3
72
8
73
4
74
0
42
0.000000001
43
0.0000000001
44
0.0000000001
40
28
40
28
40
28
40
28
40
29
40
29
40
29
40
29
10
-91.427300493907495
20
-37.5149581815392
30
0
10
-91.979075599563799
20
-37.5149581815392
30
0
10
-92.426378184630011
20
-37.067655596473102
30
0
10
-92.426378184630011
20
-36.515880490816798
30
0
0
LINE
5
116
100
AcDbEntity
8
0
100
AcDbLine
10
-92.426378184630011
20
-36.515880490816798
30
0
11
-92.426378184630011
21
-33.413658133736405
31
0
0
SPLINE
5
117
100
AcDbEntity
8
0
100
AcDbSpline
70
0
71
3
72
8
73
4
74
0
42
0.000000001
43
0.0000000001
44
0.0000000001
40
30
40
30
40
30
40
30
40
31
40
31
40
31
40
31
10
-92.426378184630011
20
-33.413658133736405
30
0
10
-92.426378184630011
20
-33.137533730593702
30
0
10
-92.650244795630798
20
-32.913667119592802
30
0
10
-92.9263691987736
20
-32.913667119592802
30
0
0
LINE
5
118
100
AcDbEntity
8
0
100
AcDbLine
10
-92.926369198773614
20
-32.913667119592802
30
0
11
-110.529515217593
21
-32.913667119592802
31
0
0
LINE
5
119
100
AcDbEntity
8
0
100
AcDbLine
10
-110.529515217593
20
-32.913667119592802
30
0
11
-110.529515217593
21
-32.916487791521298
31
0
0
SPLINE
5
120
100
AcDbEntity
8
0
100
AcDbSpline
70
0
71
3
72
8
73
4
74
0
42
0.000000001
43
0.0000000001
44
0.0000000001
40
33
40
33
40
33
40
33
40
34
40
34
40
34
40
34
10
-110.529515217593
20
-32.916487791521298
30
0
10
-111.507663953243
20
-32.916487791521298
30
0
10
-112.42586518733302
20
-33.489557893645802
30
0
10
-112.836437281904
20
-34.449749069078507
30
0
0
ELLIPSE
5
121
100
AcDbEntity
8
0
100
AcDbEllipse
10
-107.00849059573301
20
-38.857844108196701
30
0
11
-5.4976419480625083
21
4.9299821033739963
31
0.0
40
0.49672165173147098
41
0.16682178655765728
42
0.41900965502092863
0
LINE
5
122
100
AcDbEntity
8
0
100
AcDbLine
10
-113.02686493485048
20
-35.465384749977282
30
0
11
-113.02685938855942
21
-41.489687149133864
31
0
0
ARC
5
123
100
AcDbEntity
8
0
100
AcDbCircle
10
-110.97463265772205
20
-41.889652401840969
30
0
40
0.39999999999996483
210
0
220
-0
230
1
100
AcDbArc
50
89.999999999995936
51
90.746577789087553
0
LINE
5
124
100
AcDbEntity
8
0
100
AcDbLine
10
-110.97463265772203
20
-41.489652401841006
30
0
11
-41.329688172411032
21
-41.489652401841028
31
0
0
SPLINE
5
125
100
AcDbEntity
8
0
100
AcDbSpline
70
2
71
3
72
17
73
13
74
0
42
0.000000001
43
0.0000000001
44
0.0000000001
40
0
40
0
40
0
40
0
40
0.99968255790937066
40
0.99968255790937066
40
0.99968255790937066
40
2
40
2
40
2
40
3.0003174417068306
40
3.0003174417068306
40
3.0003174417068306
40
4
40
4
40
4
40
4
10
-110.02928735313502
20
-34.5618438634298
30
0
10
-109.28269232341798
20
-34.5618438634298
30
0
10
-108.67743188472302
20
-35.167793546566067
30
0
10
-108.67743188472302
20
-35.913677799995099
30
0
10
-108.67743188472302
20
-36.661458661127469
30
0
10
-109.28221817152803
20
-37.266932838448
30
0
10
-110.02928735313502
20
-37.266932838448
30
0
10
-110.77635653445533
20
-37.266932838448
30
0
10
-111.3811212897
20
-36.660037558235452
30
0
10
-111.3811212897
20
-35.913677799995099
30
0
10
-111.3811212897
20
-35.169211044522278
30
0
10
-110.77588238313866
20
-34.5618438634298
30
0
10
-110.02928735313502
20
-34.5618438634298
30
0
0
SPLINE
5
126
100
AcDbEntity
8
0
100
AcDbSpline
70
0
71
3
72
17
73
13
74
0
42
0.000000001
43
0.0000000001
44
0.0000000001
40
0
40
0
40
0
40
0
40
0.99968255790936944
40
0.99968255790936944
40
0.99968255790936944
40
2.0002356187183237
40
2.0002356187183237
40
2.0002356187183237
40
3.0003174417068306
40
3.0003174417068306
40
3.0003174417068306
40
4
40
4
40
4
40
4
10
-26.029354343264799
20
-34.5618438634298
30
0
10
-25.282759313547977
20
-34.5618438634298
30
0
10
-24.677520406699603
20
-35.167793546566067
30
0
10
-24.677520406699603
20
-35.913677799995099
30
0
10
-24.677520406699603
20
-36.661634796382813
30
0
10
-25.282636270034466
20
-37.266932838448
30
0
10
-26.029354343264799
20
-37.266932838448
30
0
10
-26.774666326638958
20
-37.266932838448
30
0
10
-27.381209811676804
20
-36.659861757712228
30
0
10
-27.381209811676804
20
-35.913677799995099
30
0
10
-27.381209811676804
20
-35.169211044522278
30
0
10
-26.774894647696172
20
-34.5618438634298
30
0
10
-26.029354343264799
20
-34.5618438634298
30
0
0
LINE
5
127
100
AcDbEntity
8
0
100
AcDbLine
10
-113.02685938855942
20
-41.489687149133864
30
0
11
-110.97984460644884
21
-41.489686358795623
31
0
0
LINE
5
128
100
AcDbEntity
8
0
100
AcDbLine
10
-41.329688172408297
20
-41.489659467352304
30
0
11
-23.029667546798336
21
-41.489652401841006
31
0
0
ENDSEC
0
SECTION
2
OBJECTS
0
DICTIONARY
5
C
100
AcDbDictionary
3
ACAD_GROUP
350
D
3
ACAD_MLINESTYLE
350
17
0
DICTIONARY
5
D
100
AcDbDictionary
0
DICTIONARY
5
1A
330
C
100
AcDbDictionary
0
DICTIONARY
5
17
100
AcDbDictionary
0
ENDSEC
0
EOF
