0
SECTION
2
HEADER
9
$INSUNITS
70
4
9
$ACADVER
1
AC1014
9
$HANDSEED
5
FFFF
0
ENDSEC
0
SECTION
2
TABLES
0
TABLE
2
VPORT
5
8
100
AcDbSymbolTable
0
ENDTAB
0
TABLE
2
LTYPE
5
5
100
AcDbSymbolTable
0
LTYPE
5
14
100
AcDbSymbolTableRecord
100
AcDbLinetypeTableRecord
2
BYBLOCK
70
0
0
LTYPE
5
15
100
AcDbSymbolTableRecord
100
AcDbLinetypeTableRecord
2
BYLAYER
70
0
0
LTYPE
5
16
100
AcDbSymbolTableRecord
100
AcDbLinetypeTableRecord
2
DASHED
70
0
3
Dashed __ __ __ __ __ __ __ __ __ __ __ __ __ _
72
65
73
2
40
0.75
49
0.5
74
0
49
-0.25
74
0
0
ENDTAB
0
TABLE
2
LAYER
5
2
100
AcDbSymbolTable
70
2
0
LAYER
5
50
100
AcDbSymbolTableRecord
100
AcDbLayerTableRecord
2
0
70
0
62
7
6
CONTINUOUS
0
ENDTAB
0
TABLE
2
STYLE
5
3
100
AcDbSymbolTable
70
1
0
STYLE
5
11
100
AcDbSymbolTableRecord
100
AcDbTextStyleTableRecord
2
STANDARD
70
0
0
ENDTAB
0
TABLE
2
VIEW
5
6
100
AcDbSymbolTable
70
0
0
ENDTAB
0
TABLE
2
UCS
5
7
100
AcDbSymbolTable
70
0
0
ENDTAB
0
TABLE
2
APPID
5
9
100
AcDbSymbolTable
70
2
0
APPID
5
12
100
AcDbSymbolTableRecord
100
AcDbRegAppTableRecord
2
ACAD
70
0
0
ENDTAB
0
TABLE
2
DIMSTYLE
5
A
100
AcDbSymbolTable
70
1
0
ENDTAB
0
TABLE
2
BLOCK_RECORD
5
1
100
AcDbSymbolTable
70
1
0
BLOCK_RECORD
5
1F
100
AcDbSymbolTableRecord
100
AcDbBlockTableRecord
2
*MODEL_SPACE
0
BLOCK_RECORD
5
1B
100
AcDbSymbolTableRecord
100
AcDbBlockTableRecord
2
*PAPER_SPACE
0
ENDTAB
0
ENDSEC
0
SECTION
2
BLOCKS
0
BLOCK
5
20
100
AcDbEntity
100
AcDbBlockBegin
2
*MODEL_SPACE
0
ENDBLK
5
21
100
AcDbEntity
100
AcDbBlockEnd
0
BLOCK
5
1C
100
AcDbEntity
100
AcDbBlockBegin
2
*PAPER_SPACE
0
ENDBLK
5
1D
100
AcDbEntity
100
AcDbBlockEnd
0
ENDSEC
0
SECTION
2
ENTITIES
0
LINE
5
100
100
AcDbEntity
8
0
100
AcDbLine
10
-113.02682187115801
20
-43.216648514215237
30
0
11
-113.02682187115801
21
-45.419686505958978
31
0
0
SPLINE
5
101
100
AcDbEntity
8
0
100
AcDbSpline
70
0
71
3
72
17
73
13
74
0
42
0.000000001
43
0.0000000001
44
0.0000000001
40
7
40
7
40
7
40
7
40
7.5893298460006378
40
7.5893298460006378
40
7.5893298460006378
40
7.9406540235438312
40
7.9406540235438312
40
7.9406540235438312
40
8.1397736055782168
40
8.1397736055782168
40
8.1397736055782168
40
9
40
9
40
9
40
9
10
-113.02682187115801
20
-45.419686505958978
30
0
10
-113.02682187115801
20
-45.995428145548125
30
0
10
-112.81730983868388
20
-46.542126854269661
30
0
10
-112.51099198284348
20
-46.941185193026946
30
0
10
-112.32838309327127
20
-47.179080564535951
30
0
10
-112.11445867832401
20
-47.366512757122301
30
0
10
-111.90708398565778
20
-47.503948278084032
30
0
10
-111.78955048022993
20
-47.581842443188052
30
0
10
-111.67189229242138
20
-47.6500858057857
30
0
10
-111.49719947570702
20
-47.725036745454972
30
0
10
-111.24596049706361
20
-47.832829371877565
30
0
10
-110.77919458608747
20
-47.916648649975002
30
0
10
-110.47994890630001
20
-47.916648649975002
30
0
0
LINE
5
102
100
AcDbEntity
8
0
100
AcDbLine
10
-110.47994890630001
20
-47.916648649975002
30
0
11
-25.529470988355101
21
-47.916648649975002
31
0
0
SPLINE
5
103
100
AcDbEntity
8
0
100
AcDbSpline
70
0
71
3
72
8
73
4
74
0
42
0.000000001
43
0.0000000001
44
0.0000000001
40
10
40
10
40
10
40
10
40
11
40
11
40
11
40
11
10
-25.529470988355101
20
-47.916648649975002
30
0
10
-25.299101759625803
20
-47.916648649975002
30
0
10
-25.067268365315201
20
-47.891564048472972
30
0
10
-24.8464592765575
20
-47.825870383938991
30
0
0
SPLINE
5
104
100
AcDbEntity
8
0
100
AcDbSpline
70
0
71
3
72
8
73
4
74
0
42
0.000000001
43
0.0000000001
44
0.0000000001
40
11
40
11
40
11
40
11
40
12
40
12
40
12
40
12
10
-24.8464592765575
20
-47.825870383938991
30
0
10
-23.716575616629399
20
-47.489650596425008
30
0
10
-23.029688172410999
20
-46.487773765621014
30
0
10
-23.029688172410999
20
-45.416865834030986
30
0
0
LINE
5
105
100
AcDbEntity
8
0
100
AcDbLine
10
-23.029688172410999
20
-45.416865834030979
30
0
11
-23.029687840987997
21
-43.216648574467946
31
0
0
LINE
5
106
100
AcDbEntity
8
0
100
AcDbLine
10
-23.930432471889116
20
-42.816648514215174
30
0
11
-105.64468817241099
21
-42.831355750188003
31
0
0
ARC
5
107
100
AcDbEntity
8
0
100
AcDbCircle
10
-105.64468817241105
20
-42.331355750188031
30
0
40
0.49999999999995487
210
0
220
0
230
1
100
AcDbArc
50
256.06880114822519
51
270.00000000000648
0
SPLINE
5
108
100
AcDbEntity
8
0
100
AcDbSpline
70
2
71
3
72
17
73
13
74
0
42
0.000000001
43
0.0000000001
44
0.0000000001
40
0
40
0
40
0
40
0
40
1.000081667550665
40
1.000081667550665
40
1.000081667550665
40
2
40
2
40
2
40
2.9999183324428089
40
2.9999183324428089
40
2.9999183324428089
40
4
40
4
40
4
40
4
10
-110.02928735313502
20
-46.268105864741997
30
0
10
-110.77618045074584
20
-46.268105864741997
30
0
10
-111.3811212897
20
-45.663326619267011
30
0
10
-111.3811212897
20
-44.91625039633
30
0
10
-111.3811212897
20
-44.169662109093402
30
0
10
-110.77605846684818
20
-43.564416459764992
30
0
10
-110.02928735313502
20
-43.564416459764992
30
0
10
-109.28251623942666
20
-43.564416459764992
30
0
10
-108.67743188472302
20
-44.169296306761581
30
0
10
-108.67743188472302
20
-44.91625039633
30
0
10
-108.67743188472302
20
-45.66369266068012
30
0
10
-109.28239425551929
20
-46.268105864741997
30
0
10
-110.02928735313502
20
-46.268105864741997
30
0
0
SPLINE
5
109
100
AcDbEntity
8
0
100
AcDbSpline
70
0
71
3
72
17
73
13
74
0
42
0.000000001
43
0.0000000001
44
0.0000000001
40
0
40
0
40
0
40
0
40
1.0000816675506663
40
1.0000816675506663
40
1.0000816675506663
40
1.999764381151903
40
1.999764381151903
40
1.999764381151903
40
2.9999183324333729
40
2.9999183324333729
40
2.9999183324333729
40
4
40
4
40
4
40
4
10
-26.029354343264799
20
-46.268105864741997
30
0
10
-26.775192294218925
20
-46.268105864741997
30
0
10
-27.381209811676804
20
-45.663326619270563
30
0
10
-27.381209811676804
20
-44.91625039633
30
0
10
-27.381209811676804
20
-44.169838033729434
30
0
10
-26.775422049964476
20
-43.564416459764992
30
0
10
-26.029354343264799
20
-43.564416459764992
30
0
10
-25.281878980533445
20
-43.564416459764992
30
0
10
-24.677520406699603
20
-44.169120468513299
30
0
10
-24.677520406699603
20
-44.91625039633
30
0
10
-24.677520406699603
20
-45.663692488033902
30
0
10
-25.282461245642253
20
-46.268105864741997
30
0
10
-26.029354343264799
20
-46.268105864741997
30
0
0
LINE
5
110
100
AcDbEntity
8
0
100
AcDbLine
10
-105.76506646440251
20
-42.816648514215245
30
0
11
-112.62682187115801
21
-42.816648514215245
31
0
0
LINE
5
111
100
AcDbEntity
8
0
100
AcDbLine
10
-23.429687840987992
20
-42.816648514215174
30
0
11
-23.930432471889116
21
-42.816648514215174
31
0
0
ARC
5
112
100
AcDbEntity
8
0
100
AcDbCircle
10
-23.429687840987988
20
-43.216648514215166
30
0
40
0.39999999999999597
210
0
220
0
230
1
100
AcDbArc
50
-8.6226911645016995e-06
51
90.000000000000512
0
ARC
5
113
100
AcDbEntity
8
0
100
AcDbCircle
10
-112.62682187115803
20
-43.216648514215208
30
0
40
0.39999999999996483
210
0
220
-0
230
1
100
AcDbArc
50
89.999999999997954
51
180
0
ENDSEC
0
SECTION
2
OBJECTS
0
DICTIONARY
5
C
100
AcDbDictionary
3
ACAD_GROUP
350
D
3
ACAD_MLINESTYLE
350
17
0
DICTIONARY
5
D
100
AcDbDictionary
0
DICTIONARY
5
1A
330
C
100
AcDbDictionary
0
DICTIONARY
5
17
100
AcDbDictionary
0
ENDSEC
0
EOF
