0
SECTION
2
HEADER
9
$INSUNITS
70
4
9
$ACADVER
1
AC1014
9
$HANDSEED
5
FFFF
0
ENDSEC
0
SECTION
2
TABLES
0
TABLE
2
VPORT
5
8
100
AcDbSymbolTable
0
ENDTAB
0
TABLE
2
LTYPE
5
5
100
AcDbSymbolTable
0
LTYPE
5
14
100
AcDbSymbolTableRecord
100
AcDbLinetypeTableRecord
2
BYBLOCK
70
0
0
LTYPE
5
15
100
AcDbSymbolTableRecord
100
AcDbLinetypeTableRecord
2
BYLAYER
70
0
0
LTYPE
5
16
100
AcDbSymbolTableRecord
100
AcDbLinetypeTableRecord
2
DASHED
70
0
3
Dashed __ __ __ __ __ __ __ __ __ __ __ __ __ _
72
65
73
2
40
0.75
49
0.5
74
0
49
-0.25
74
0
0
ENDTAB
0
TABLE
2
LAYER
5
2
100
AcDbSymbolTable
70
2
0
LAYER
5
50
100
AcDbSymbolTableRecord
100
AcDbLayerTableRecord
2
0
70
0
62
7
6
CONTINUOUS
0
ENDTAB
0
TABLE
2
STYLE
5
3
100
AcDbSymbolTable
70
1
0
STYLE
5
11
100
AcDbSymbolTableRecord
100
AcDbTextStyleTableRecord
2
STANDARD
70
0
0
ENDTAB
0
TABLE
2
VIEW
5
6
100
AcDbSymbolTable
70
0
0
ENDTAB
0
TABLE
2
UCS
5
7
100
AcDbSymbolTable
70
0
0
ENDTAB
0
TABLE
2
APPID
5
9
100
AcDbSymbolTable
70
2
0
APPID
5
12
100
AcDbSymbolTableRecord
100
AcDbRegAppTableRecord
2
ACAD
70
0
0
ENDTAB
0
TABLE
2
DIMSTYLE
5
A
100
AcDbSymbolTable
70
1
0
ENDTAB
0
TABLE
2
BLOCK_RECORD
5
1
100
AcDbSymbolTable
70
1
0
BLOCK_RECORD
5
1F
100
AcDbSymbolTableRecord
100
AcDbBlockTableRecord
2
*MODEL_SPACE
0
BLOCK_RECORD
5
1B
100
AcDbSymbolTableRecord
100
AcDbBlockTableRecord
2
*PAPER_SPACE
0
ENDTAB
0
ENDSEC
0
SECTION
2
BLOCKS
0
BLOCK
5
20
100
AcDbEntity
100
AcDbBlockBegin
2
*MODEL_SPACE
0
ENDBLK
5
21
100
AcDbEntity
100
AcDbBlockEnd
0
BLOCK
5
1C
100
AcDbEntity
100
AcDbBlockBegin
2
*PAPER_SPACE
0
ENDBLK
5
1D
100
AcDbEntity
100
AcDbBlockEnd
0
ENDSEC
0
SECTION
2
ENTITIES
0
SPLINE
5
100
100
AcDbEntity
8
0
100
AcDbSpline
70
0
71
3
72
10
73
6
74
0
42
0.000000001
43
0.0000000001
44
0.0000000001
40
0
40
0
40
0
40
0
40
0.030101133962334416
40
0.030101133962334416
40
0.060202267924669817
40
0.060202267924669817
40
0.060202267924669817
40
0.060202267924669817
10
24.977594644613589
20
-175.57300768589624
30
0
10
25.07786832205721
20
-175.57657502367161
30
0
10
25.177501455744814
20
-175.59054085477212
30
0
10
25.372281453567844
20
-175.63882022506161
30
0
10
25.466903332797855
20
-175.67300363825748
30
0
10
25.557235106955133
20
-175.71668094202579
30
0
0
ARC
5
101
100
AcDbEntity
8
0
100
AcDbCircle
10
25.024527274868753
20
-174.25378654001088
30
0
40
1.3200557198595058
210
0
220
0
230
1
100
AcDbArc
50
214.07553606435823
51
267.96250383051444
0
LINE
5
102
100
AcDbEntity
8
0
100
AcDbLine
10
23.931125599104163
20
-174.99339446247316
30
0
11
23.931053257528291
21
-174.10963351105755
31
0
0
SPLINE
5
103
100
AcDbEntity
8
0
100
AcDbSpline
70
0
71
3
72
8
73
4
74
0
42
0.000000001
43
0.0000000001
44
0.0000000001
40
0
40
0
40
0
40
0
40
0.0058429270822392939
40
0.0058429270822392939
40
0.0058429270822392939
40
0.0058429270822392939
10
23.929836456008129
20
-174.05127631284304
30
0
10
23.929836456135362
20
-174.07075273645052
30
0
10
23.930242878436392
20
-174.0902092666567
30
0
10
23.931053257528411
20
-174.10963351105761
30
0
0
LINE
5
104
100
AcDbEntity
8
0
100
AcDbLine
10
23.929836456008129
20
-174.05127631284304
30
0
11
23.929836359275139
21
-159.24339451523949
31
0
0
ARC
5
105
100
AcDbEntity
8
0
100
AcDbCircle
10
25.023882732089483
20
-159.98421764352128
30
0
40
1.321270741848718
210
0
220
0
230
1
100
AcDbArc
50
91.622900691442467
51
145.89647930644171
0
SPLINE
5
106
100
AcDbEntity
8
0
100
AcDbSpline
70
0
71
3
72
11
73
7
74
0
42
0.000000001
43
0.0000000001
44
0.0000000001
40
9
40
9
40
9
40
9
40
9.9303782627823853
40
9.9303782627823853
40
9.9303782627823853
40
10.042571876132431
40
10.042571876132431
40
10.042571876132431
40
10.042571876132431
10
25.461159200026099
20
-158.16637925326299
30
0
10
25.461159237743637
20
-158.41622584344486
30
0
10
25.273700367545487
20
-158.61057064051241
30
0
10
25.063856153915754
20
-158.6537173453342
30
0
10
25.038551198383672
20
-158.65892037394283
30
0
10
25.013472865703392
20
-158.6621600586287
30
0
10
24.986462794675617
20
-158.6634768961828
30
0
0
ARC
5
107
100
AcDbEntity
8
0
100
AcDbCircle
10
18.961159027237873
20
-157.02182792031269
30
0
40
6.6000000000004029
210
0
220
0
230
1
100
AcDbArc
50
-9.9865427975146268
51
8.6226911565613789e-06
0
LINE
5
108
100
AcDbEntity
8
0
100
AcDbLine
10
25.561159027238205
20
-157.02182692395823
30
0
11
25.561153828697243
21
-123.32735852239408
31
0
0
ARC
5
109
100
AcDbEntity
8
0
100
AcDbCircle
10
25.529679874171375
20
-122.32785395354973
30
0
40
0.9999999964771038
210
0
220
0
230
1
100
AcDbArc
50
271.80362262994174
51
360
0
LINE
5
110
100
AcDbEntity
8
0
100
AcDbLine
10
26.529679874171389
20
-122.32785395354975
30
0
11
26.529679874171389
21
-112.326863148282
31
0
0
ARC
5
111
100
AcDbEntity
8
0
100
AcDbCircle
10
25.529679874171411
20
-112.32686314828199
30
0
40
0.99999999999997868
210
0
220
0
230
1
100
AcDbArc
50
0
51
88.19637747292829
0
LINE
5
112
100
AcDbEntity
8
0
100
AcDbLine
10
25.561153827013626
20
-111.32735857586
30
0
11
25.561151469366521
21
-106.957359641614
31
0
0
ARC
5
113
100
AcDbEntity
8
0
100
AcDbCircle
10
23.811151469366191
20
-106.9573599057989
30
0
40
1.7500000000003513
210
0
220
-0
230
1
100
AcDbArc
50
8.6226911565613789e-06
51
62.295612878095035
0
LINE
5
114
100
AcDbEntity
8
0
100
AcDbLine
10
24.624743687101006
20
-105.40798335271654
30
0
11
24.624743687101002
21
-44.619652414540951
31
0
0
LINE
5
115
100
AcDbEntity
8
0
100
AcDbLine
10
24.624743687101002
20
-44.619652414540951
30
0
11
24.630331201340997
21
-44.48884106238097
31
0
0
LINE
5
116
100
AcDbEntity
8
0
100
AcDbLine
10
24.630331201340997
20
-44.48884106238097
30
0
11
24.647346743260993
21
-44.359047089970964
31
0
0
LINE
5
117
100
AcDbEntity
8
0
100
AcDbLine
10
24.647346743260993
20
-44.359047089970964
30
0
11
24.675795695830999
21
-44.231282494120983
31
0
0
LINE
5
118
100
AcDbEntity
8
0
100
AcDbLine
10
24.675795695830999
20
-44.231282494120983
30
0
11
24.715166677671
21
-44.106575420520961
31
0
0
LINE
5
119
100
AcDbEntity
8
0
100
AcDbLine
10
24.715166677671
20
-44.106575420520961
30
0
11
24.765201306631003
21
-43.985663334910967
31
0
0
LINE
5
120
100
AcDbEntity
8
0
100
AcDbLine
10
24.765201306631003
20
-43.985663334910967
30
0
11
24.825657349430998
21
-43.869590531870983
31
0
0
LINE
5
121
100
AcDbEntity
8
0
100
AcDbLine
10
24.825657349430998
20
-43.869590531870983
30
0
11
24.896012658801002
21
-43.759347476340977
31
0
0
LINE
5
122
100
AcDbEntity
8
0
100
AcDbLine
10
24.896012658801002
20
-43.759347476340977
30
0
11
24.975519003040997
21
-43.655467081530972
31
0
0
LINE
5
123
100
AcDbEntity
8
0
100
AcDbLine
10
24.975519003040997
20
-43.655467081530972
30
0
11
25.063907234090998
21
-43.558945195370953
31
0
0
LINE
5
124
100
AcDbEntity
8
0
100
AcDbLine
10
25.063907234090998
20
-43.558945195370953
30
0
11
25.160423737290994
21
-43.470551581360972
31
0
0
LINE
5
125
100
AcDbEntity
8
0
100
AcDbLine
10
25.160423737290994
20
-43.470551581360972
30
0
11
25.264314898020995
21
-43.390797620880974
31
0
0
LINE
5
126
100
AcDbEntity
8
0
100
AcDbLine
10
25.264314898020995
20
-43.390797620880974
30
0
11
25.374547187620994
21
-43.32068992775099
31
0
0
LINE
5
127
100
AcDbEntity
8
0
100
AcDbLine
10
25.374547187620994
20
-43.32068992775099
30
0
11
25.490625373630994
21
-43.260239267910983
31
0
0
LINE
5
128
100
AcDbEntity
8
0
100
AcDbLine
10
25.490625373630994
20
-43.260239267910983
30
0
11
25.611532076271001
21
-43.209951639750983
31
0
0
LINE
5
129
100
AcDbEntity
8
0
100
AcDbLine
10
25.611532076271001
20
-43.209951639750983
30
0
11
25.736497532041
21
-43.17083365711099
31
0
0
LINE
5
130
100
AcDbEntity
8
0
100
AcDbLine
10
25.736497532041
20
-43.17083365711099
30
0
11
25.864262127890999
21
-43.142384704550949
31
0
0
LINE
5
131
100
AcDbEntity
8
0
100
AcDbLine
10
25.864262127890999
20
-43.142384704550949
30
0
11
25.993803101090997
21
-43.125369162630989
31
0
0
LINE
5
132
100
AcDbEntity
8
0
100
AcDbLine
10
25.993803101090997
20
-43.125369162630989
30
0
11
26.124614453260996
21
-43.11952326622098
31
0
0
LINE
5
133
100
AcDbEntity
8
0
100
AcDbLine
10
26.124614453260996
20
-43.11952326622098
30
0
11
37.329688172411032
21
-43.11952326622098
31
0
0
ARC
5
134
100
AcDbEntity
8
0
100
AcDbCircle
10
37.329688172411018
20
-42.619523266220966
30
0
40
0.50000000000001599
210
0
220
0
230
1
100
AcDbArc
50
270.00000000000159
51
360
0
LINE
5
135
100
AcDbEntity
8
0
100
AcDbLine
10
37.829688172411039
20
-42.619523266220995
30
0
11
37.829688172411032
21
-42.489652401840992
31
0
0
SPLINE
5
136
100
AcDbEntity
8
0
100
AcDbSpline
70
0
71
3
72
16
73
12
74
0
42
0.000000001
43
0.0000000001
44
0.0000000001
40
0
40
0
40
0
40
0
40
0.057307467592538595
40
0.057307467592538595
40
0.093282300887919695
40
0.093282300887919695
40
0.1251439841206213
40
0.1251439841206213
40
0.16114715315764519
40
0.16114715315764519
40
0.2078079973513845
40
0.2078079973513845
40
0.2078079973513845
40
0.2078079973513845
10
38.829688172411032
20
-41.489652401841006
30
0
10
38.638663280435907
20
-41.489652401841006
30
0
10
38.460055173321159
20
-41.502959210557421
30
0
10
38.221458350304502
20
-41.570775098218995
30
0
10
38.146433347567687
20
-41.606856254722622
30
0
10
38.030865360712298
20
-41.69619820707274
30
0
10
37.987759925019887
20
-41.746748611510903
30
0
10
37.914711773580613
20
-41.87316463440861
30
0
10
37.885753250911051
20
-41.9539303223887
30
0
10
37.839483211183207
20
-42.178744381295886
30
0
10
37.829688172411039
20
-42.326212825566913
30
0
10
37.829688172411032
20
-42.489652401840992
30
0
0
LINE
5
137
100
AcDbEntity
8
0
100
AcDbLine
10
38.829688172411032
20
-41.489652401841006
30
0
11
41.329688172411032
21
-41.489652401841006
31
0
0
SPLINE
5
138
100
AcDbEntity
8
0
100
AcDbSpline
70
0
71
3
72
16
73
12
74
0
42
0.000000001
43
0.0000000001
44
0.0000000001
40
0
40
0
40
0
40
0
40
0.057307467592554492
40
0.057307467592554492
40
0.093282300888042513
40
0.093282300888042513
40
0.12514398412090671
40
0.12514398412090671
40
0.16114715315713796
40
0.16114715315713796
40
0.20780799734883415
40
0.20780799734883415
40
0.20780799734883415
40
0.20780799734883415
10
42.329688172411025
20
-42.489652401840992
30
0
10
42.329688172411025
20
-42.29862750986581
30
0
10
42.31638136369461
20
-42.120019402751119
30
0
10
42.248565476032965
20
-41.88142257973422
30
0
10
42.212484319529267
20
-41.806397576997476
30
0
10
42.123142367179298
20
-41.690829590142272
30
0
10
42.072591962741164
20
-41.647724154449861
30
0
10
41.946175939845205
20
-41.574676003011596
30
0
10
41.865410251865953
20
-41.545717480341565
30
0
10
41.640596192955506
20
-41.499447440613054
30
0
10
41.493127748683953
20
-41.489652401841006
30
0
10
41.329688172411032
20
-41.489652401841006
30
0
0
LINE
5
139
100
AcDbEntity
8
0
100
AcDbLine
10
42.329688172411025
20
-42.489652401840992
30
0
11
42.329688172411039
21
-42.619523266220995
31
0
0
ARC
5
140
100
AcDbEntity
8
0
100
AcDbCircle
10
42.829688172411025
20
-42.619523266220973
30
0
40
0.49999999999998934
210
0
220
0
230
1
100
AcDbArc
50
180
51
270
0
LINE
5
141
100
AcDbEntity
8
0
100
AcDbLine
10
42.829688172411025
20
-43.119523266220973
30
0
11
51.338488172411033
21
-43.11952326622098
31
0
0
ARC
5
142
100
AcDbEntity
8
0
100
AcDbCircle
10
51.338488172411033
20
-42.61952326622098
30
0
40
0.49999999999999822
210
0
220
0
230
1
100
AcDbArc
50
270
51
360
0
LINE
5
143
100
AcDbEntity
8
0
100
AcDbLine
10
51.838488172411033
20
-42.619523266220995
30
0
11
51.838488172411033
21
-42.489652401840992
31
0
0
SPLINE
5
144
100
AcDbEntity
8
0
100
AcDbSpline
70
0
71
3
72
16
73
12
74
0
42
0.000000001
43
0.0000000001
44
0.0000000001
40
0
40
0
40
0
40
0
40
0.057307467592586571
40
0.057307467592586571
40
0.093282300888994488
40
0.093282300888994488
40
0.1251439841234584
40
0.1251439841234584
40
0.16114715316240319
40
0.16114715316240319
40
0.20780799735856084
40
0.20780799735856084
40
0.20780799735856084
40
0.20780799735856084
10
52.838488172411019
20
-41.489652401841006
30
0
10
52.64746328043573
20
-41.489652401841006
30
0
10
52.468855173321145
20
-41.502959210557442
30
0
10
52.230258350302002
20
-41.570775098219713
30
0
10
52.155233347566011
20
-41.606856254723922
30
0
10
52.039665360712306
20
-41.696198207072747
30
0
10
51.996559925019888
20
-41.746748611510903
30
0
10
51.923511773580671
20
-41.873164634408511
30
0
10
51.894553250911088
20
-41.953930322388551
30
0
10
51.848283211183187
20
-42.178744381295999
30
0
10
51.838488172411033
20
-42.326212825567069
30
0
10
51.838488172411033
20
-42.489652401840992
30
0
0
LINE
5
145
100
AcDbEntity
8
0
100
AcDbLine
10
52.838488172411019
20
-41.489652401841006
30
0
11
55.338488172411033
21
-41.489652401841006
31
0
0
SPLINE
5
146
100
AcDbEntity
8
0
100
AcDbSpline
70
0
71
3
72
16
73
12
74
0
42
0.000000001
43
0.0000000001
44
0.0000000001
40
0
40
0
40
0
40
0
40
0.057307467592539053
40
0.057307467592539053
40
0.093282300888180014
40
0.093282300888180014
40
0.12514398412134448
40
0.12514398412134448
40
0.16114715315863648
40
0.16114715315863648
40
0.20780799735244657
40
0.20780799735244657
40
0.20780799735244657
40
0.20780799735244657
10
56.338488172411026
20
-42.489652401840992
30
0
10
56.338488172411026
20
-42.298627509865867
30
0
10
56.325181363694611
20
-42.120019402751119
30
0
10
56.257365476032845
20
-41.881422579733787
30
0
10
56.221284319529055
20
-41.806397576997192
30
0
10
56.131942367179278
20
-41.690829590142243
30
0
10
56.081391962741101
20
-41.647724154449833
30
0
10
55.954975939843919
20
-41.574676003010858
30
0
10
55.874210251864056
20
-41.54571748034116
30
0
10
55.649396192955926
20
-41.499447440613139
30
0
10
55.501927748684722
20
-41.489652401841006
30
0
10
55.338488172411033
20
-41.489652401841006
30
0
0
LINE
5
147
100
AcDbEntity
8
0
100
AcDbLine
10
56.338488172411026
20
-42.489652401840992
30
0
11
56.338488172411033
21
-42.619523266220995
31
0
0
ARC
5
148
100
AcDbEntity
8
0
100
AcDbCircle
10
56.838488172411026
20
-42.61952326622098
30
0
40
0.49999999999998934
210
0
220
0
230
1
100
AcDbArc
50
180
51
270
0
LINE
5
149
100
AcDbEntity
8
0
100
AcDbLine
10
56.838488172411026
20
-43.11952326622098
30
0
11
79.338488172411047
21
-43.11952326622098
31
0
0
ARC
5
150
100
AcDbEntity
8
0
100
AcDbCircle
10
79.338488172411047
20
-42.61952326622098
30
0
40
0.49999999999999822
210
0
220
0
230
1
100
AcDbArc
50
270
51
360
0
LINE
5
151
100
AcDbEntity
8
0
100
AcDbLine
10
79.838488172411047
20
-42.619523266220995
30
0
11
79.838488172411047
21
-42.489652401840992
31
0
0
SPLINE
5
152
100
AcDbEntity
8
0
100
AcDbSpline
70
0
71
3
72
16
73
12
74
0
42
0.000000001
43
0.0000000001
44
0.0000000001
40
0
40
0
40
0
40
0
40
0.057307467592513962
40
0.057307467592513962
40
0.093282300888344633
40
0.093282300888344633
40
0.12514398412185596
40
0.12514398412185596
40
0.16114715315871286
40
0.16114715315871286
40
0.20780799735085126
40
0.20780799735085126
40
0.20780799735085126
40
0.20780799735085126
10
80.838488172411033
20
-41.489652401841006
30
0
10
80.647463280435986
20
-41.489652401841006
30
0
10
80.468855173321174
20
-41.502959210557421
30
0
10
80.230258350303302
20
-41.57077509821935
30
0
10
80.155233347566863
20
-41.606856254723262
30
0
10
80.039665360712263
20
-41.696198207072783
30
0
10
79.996559925019838
20
-41.746748611510974
30
0
10
79.923511773581765
20
-41.873164634406599
30
0
10
79.894553250911656
20
-41.953930322385716
30
0
10
79.848283211183173
20
-42.178744381296141
30
0
10
79.838488172411047
20
-42.326212825567325
30
0
10
79.838488172411047
20
-42.489652401840992
30
0
0
LINE
5
153
100
AcDbEntity
8
0
100
AcDbLine
10
80.838488172411033
20
-41.489652401841006
30
0
11
83.338488172411047
21
-41.489652401841006
31
0
0
SPLINE
5
154
100
AcDbEntity
8
0
100
AcDbSpline
70
0
71
3
72
16
73
12
74
0
42
0.000000001
43
0.0000000001
44
0.0000000001
40
0
40
0
40
0
40
0
40
0.057307467592524503
40
0.057307467592524503
40
0.093282300887918224
40
0.093282300887918224
40
0.12514398412063188
40
0.12514398412063188
40
0.16114715315660699
40
0.16114715315660699
40
0.20780799734779418
40
0.20780799734779418
40
0.20780799734779418
40
0.20780799734779418
10
84.338488172411047
20
-42.489652401840992
30
0
10
84.338488172411047
20
-42.298627509865909
30
0
10
84.325181363694654
20
-42.120019402751147
30
0
10
84.257365476033073
20
-41.881422579734426
30
0
10
84.221284319529431
20
-41.806397576997618
30
0
10
84.131942367179349
20
-41.690829590142265
30
0
10
84.081391962741193
20
-41.647724154449861
30
0
10
83.954975939845511
20
-41.574676003011746
30
0
10
83.874210251866373
20
-41.545717480341644
30
0
10
83.649396192955621
20
-41.499447440613068
30
0
10
83.501927748684068
20
-41.489652401841006
30
0
10
83.338488172411047
20
-41.489652401841006
30
0
0
LINE
5
155
100
AcDbEntity
8
0
100
AcDbLine
10
84.338488172411047
20
-42.489652401840992
30
0
11
84.338488172411047
21
-42.619523266220995
31
0
0
ARC
5
156
100
AcDbEntity
8
0
100
AcDbCircle
10
84.838488172411047
20
-42.619523266220973
30
0
40
0.50000000000000711
210
0
220
0
230
1
100
AcDbArc
50
180
51
270
0
LINE
5
157
100
AcDbEntity
8
0
100
AcDbLine
10
84.838488172411047
20
-43.11952326622098
30
0
11
93.188488172411027
21
-43.119523266220973
31
0
0
ARC
5
158
100
AcDbEntity
8
0
100
AcDbCircle
10
93.188488172411027
20
-42.619523266220952
30
0
40
0.50000000000001599
210
0
220
0
230
1
100
AcDbArc
50
270
51
360
0
LINE
5
159
100
AcDbEntity
8
0
100
AcDbLine
10
93.688488172411041
20
-42.619523266220995
30
0
11
93.688488172411027
21
-42.489652401840992
31
0
0
SPLINE
5
160
100
AcDbEntity
8
0
100
AcDbSpline
70
0
71
3
72
16
73
12
74
0
42
0.000000001
43
0.0000000001
44
0.0000000001
40
0
40
0
40
0
40
0
40
0.057307467592531407
40
0.057307467592531407
40
0.093282300888617178
40
0.093282300888617178
40
0.12514398412258401
40
0.12514398412258401
40
0.16114715316012665
40
0.16114715316012665
40
0.20780799735326938
40
0.20780799735326938
40
0.20780799735326938
40
0.20780799735326938
10
94.688488172411027
20
-41.489652401841006
30
0
10
94.497463280435909
20
-41.489652401841006
30
0
10
94.318855173321168
20
-41.502959210557421
30
0
10
94.080258350302657
20
-41.570775098219514
30
0
10
94.005233347566431
20
-41.606856254723553
30
0
10
93.889665360712215
20
-41.696198207072754
30
0
10
93.846559925019818
20
-41.746748611510966
30
0
10
93.773511773581617
20
-41.873164634406834
30
0
10
93.744553250911594
20
-41.953930322386114
30
0
10
93.69828321118321
20
-42.178744381295836
30
0
10
93.688488172411027
20
-42.326212825566778
30
0
10
93.688488172411027
20
-42.489652401840992
30
0
0
LINE
5
161
100
AcDbEntity
8
0
100
AcDbLine
10
94.688488172411027
20
-41.489652401841006
30
0
11
97.188488172411041
21
-41.489652401841006
31
0
0
SPLINE
5
162
100
AcDbEntity
8
0
100
AcDbSpline
70
0
71
3
72
16
73
12
74
0
42
0.000000001
43
0.0000000001
44
0.0000000001
40
0
40
0
40
0
40
0
40
0.057307467592589457
40
0.057307467592589457
40
0.093282300889231923
40
0.093282300889231923
40
0.1251439841241439
40
0.1251439841241439
40
0.16114715316297695
40
0.16114715316297695
40
0.20780799735828726
40
0.20780799735828726
40
0.20780799735828726
40
0.20780799735828726
10
98.188488172411041
20
-42.489652401840992
30
0
10
98.188488172411041
20
-42.298627509865696
30
0
10
98.175181363694591
20
-42.120019402751083
30
0
10
98.107365476032157
20
-41.88142257973135
30
0
10
98.071284319527834
20
-41.806397576995586
30
0
10
97.981942367179315
20
-41.690829590142229
30
0
10
97.931391962741088
20
-41.647724154449804
30
0
10
97.80497593984478
20
-41.574676003011348
30
0
10
97.72421025186533
20
-41.54571748034143
30
0
10
97.499396192955714
20
-41.499447440613089
30
0
10
97.351927748684304
20
-41.489652401841006
30
0
10
97.188488172411041
20
-41.489652401841006
30
0
0
LINE
5
163
100
AcDbEntity
8
0
100
AcDbLine
10
98.188488172411041
20
-42.489652401840992
30
0
11
98.188488172411041
21
-42.619523266220973
31
0
0
ARC
5
164
100
AcDbEntity
8
0
100
AcDbCircle
10
98.688488172411027
20
-42.619523266220973
30
0
40
0.49999999999998934
210
0
220
0
230
1
100
AcDbArc
50
180
51
270.00000000000159
0
LINE
5
165
100
AcDbEntity
8
0
100
AcDbLine
10
98.688488172411041
20
-43.119523266220966
30
0
11
109.87475650860202
21
-43.11952326622098
31
0
0
LINE
5
166
100
AcDbEntity
8
0
100
AcDbLine
10
109.87475650860202
20
-43.11952326622098
30
0
11
110.00531486156902
21
-43.125369162631024
31
0
0
LINE
5
167
100
AcDbEntity
8
0
100
AcDbLine
10
110.00531486156902
20
-43.125369162631024
30
0
11
110.13510883397601
21
-43.142384704550985
31
0
0
LINE
5
168
100
AcDbEntity
8
0
100
AcDbLine
10
110.13510883397601
20
-43.142384704550985
30
0
11
110.26287881278503
21
-43.170833657111025
31
0
0
LINE
5
169
100
AcDbEntity
8
0
100
AcDbLine
10
110.26287881278503
20
-43.170833657111025
30
0
11
110.38758050342801
21
-43.209951639751019
31
0
0
LINE
5
170
100
AcDbEntity
8
0
100
AcDbLine
10
110.38758050342801
20
-43.209951639751019
30
0
11
110.50849258903702
21
-43.260239267911018
31
0
0
LINE
5
171
100
AcDbEntity
8
0
100
AcDbLine
10
110.50849258903702
20
-43.260239267911018
30
0
11
110.62457077504303
21
-43.32068992775099
31
0
0
LINE
5
172
100
AcDbEntity
8
0
100
AcDbLine
10
110.62457077504303
20
-43.32068992775099
30
0
11
110.73505068088501
21
-43.39079762088101
31
0
0
LINE
5
173
100
AcDbEntity
8
0
100
AcDbLine
10
110.73505068088501
20
-43.39079762088101
30
0
11
110.83894184161203
21
-43.470551581361008
31
0
0
LINE
5
174
100
AcDbEntity
8
0
100
AcDbLine
10
110.83894184161203
20
-43.470551581361008
30
0
11
110.935210728578
21
-43.558945195370953
31
0
0
LINE
5
175
100
AcDbEntity
8
0
100
AcDbLine
10
110.935210728578
20
-43.558945195370953
30
0
11
111.02359895962202
21
-43.655467081531008
31
0
0
LINE
5
176
100
AcDbEntity
8
0
100
AcDbLine
10
111.02359895962202
20
-43.655467081531008
30
0
11
111.10335292010502
21
-43.759347476341013
31
0
0
LINE
5
177
100
AcDbEntity
8
0
100
AcDbLine
10
111.10335292010502
20
-43.759347476341013
30
0
11
111.17370822946802
21
-43.869590531871019
31
0
0
LINE
5
178
100
AcDbEntity
8
0
100
AcDbLine
10
111.17370822946802
20
-43.869590531871019
30
0
11
111.23416965523401
21
-43.985663334911003
31
0
0
LINE
5
179
100
AcDbEntity
8
0
100
AcDbLine
10
111.23416965523401
20
-43.985663334911003
30
0
11
111.28419890123402
21
-44.106575420520997
31
0
0
LINE
5
180
100
AcDbEntity
8
0
100
AcDbLine
10
111.28419890123402
20
-44.106575420520997
30
0
11
111.32356988307703
21
-44.231282494120983
31
0
0
LINE
5
181
100
AcDbEntity
8
0
100
AcDbLine
10
111.32356988307703
20
-44.231282494120983
30
0
11
111.351765836439
21
-44.359047089970964
31
0
0
LINE
5
182
100
AcDbEntity
8
0
100
AcDbLine
10
111.351765836439
20
-44.359047089970964
30
0
11
111.36904514348203
21
-44.48884106238097
31
0
0
LINE
5
183
100
AcDbEntity
8
0
100
AcDbLine
10
111.36904514348203
20
-44.48884106238097
30
0
11
111.374632657722
21
-44.619652414540987
31
0
0
LINE
5
184
100
AcDbEntity
8
0
100
AcDbLine
10
111.374632657722
20
-44.619652414540987
30
0
11
111.374632657722
21
-93.919517870559019
31
0
0
LINE
5
185
100
AcDbEntity
8
0
100
AcDbLine
10
111.374632657722
20
-93.919517870559019
30
0
11
111.36904514348201
21
-94.050334605687993
31
0
0
LINE
5
186
100
AcDbEntity
8
0
100
AcDbLine
10
111.36904514348201
20
-94.050334605687993
30
0
11
111.35176583643899
21
-94.18012857809498
31
0
0
LINE
5
187
100
AcDbEntity
8
0
100
AcDbLine
10
111.35176583643899
20
-94.18012857809498
30
0
11
111.323569883077
21
-94.307887790980971
31
0
0
LINE
5
188
100
AcDbEntity
8
0
100
AcDbLine
10
111.323569883077
20
-94.307887790980971
30
0
11
111.28419890123399
21
-94.432600247546958
31
0
0
LINE
5
189
100
AcDbEntity
8
0
100
AcDbLine
10
111.28419890123399
20
-94.432600247546958
30
0
11
111.23416965523398
21
-94.553512333155965
31
0
0
LINE
5
190
100
AcDbEntity
8
0
100
AcDbLine
10
111.23416965523398
20
-94.553512333155965
30
0
11
111.17370822946799
21
-94.669590519162028
31
0
0
LINE
5
191
100
AcDbEntity
8
0
100
AcDbLine
10
111.17370822946799
20
-94.669590519162028
30
0
11
111.10335292010501
21
-94.78007042500397
31
0
0
LINE
5
192
100
AcDbEntity
8
0
100
AcDbLine
10
111.10335292010501
20
-94.78007042500397
30
0
11
111.02359895962201
21
-94.883713969492973
31
0
0
LINE
5
193
100
AcDbEntity
8
0
100
AcDbLine
10
111.02359895962201
20
-94.883713969492973
30
0
11
110.93521072857799
21
-94.980230472697002
31
0
0
LINE
5
194
100
AcDbEntity
8
0
100
AcDbLine
10
110.93521072857799
20
-94.980230472697002
30
0
11
110.83894184161201
21
-95.068618703740981
31
0
0
LINE
5
195
100
AcDbEntity
8
0
100
AcDbLine
10
110.83894184161201
20
-95.068618703740981
30
0
11
110.735050680885
21
-95.14837266422397
31
0
0
LINE
5
196
100
AcDbEntity
8
0
100
AcDbLine
10
110.735050680885
20
-95.14837266422397
30
0
11
110.624570775043
21
-95.218727973586994
31
0
0
LINE
5
197
100
AcDbEntity
8
0
100
AcDbLine
10
110.624570775043
20
-95.218727973586994
30
0
11
110.50849258903699
21
-95.279189399353015
31
0
0
LINE
5
198
100
AcDbEntity
8
0
100
AcDbLine
10
110.50849258903699
20
-95.279189399353015
30
0
11
110.387580503428
21
-95.329218645352995
31
0
0
LINE
5
199
100
AcDbEntity
8
0
100
AcDbLine
10
110.387580503428
20
-95.329218645352995
30
0
11
110.262878812785
21
-95.368589627195988
31
0
0
LINE
5
200
100
AcDbEntity
8
0
100
AcDbLine
10
110.262878812785
20
-95.368589627195988
30
0
11
110.13510883397599
21
-95.396785580557975
31
0
0
LINE
5
201
100
AcDbEntity
8
0
100
AcDbLine
10
110.13510883397599
20
-95.396785580557975
30
0
11
110.005314861569
21
-95.413806505438998
31
0
0
LINE
5
202
100
AcDbEntity
8
0
100
AcDbLine
10
110.005314861569
20
-95.413806505438998
30
0
11
109.87475650860199
21
-95.419652401840978
31
0
0
LINE
5
203
100
AcDbEntity
8
0
100
AcDbLine
10
109.87475650860199
20
-95.419652401840978
30
0
11
99.988488172411024
21
-95.419652401840978
31
0
0
ARC
5
204
100
AcDbEntity
8
0
100
AcDbCircle
10
99.988488172411039
20
-95.919652401841006
30
0
40
0.50000000000002487
210
0
220
0
230
1
100
AcDbArc
50
90.000000000001634
51
180
0
LINE
5
205
100
AcDbEntity
8
0
100
AcDbLine
10
99.48848817241101
20
-95.919652401840978
30
0
11
99.48848817241101
21
-96.003279266217135
31
0
0
SPLINE
5
206
100
AcDbEntity
8
0
100
AcDbSpline
70
0
71
3
72
16
73
12
74
0
42
0.000000001
43
0.0000000001
44
0.0000000001
40
0
40
0
40
0
40
0
40
0.057307467592645191
40
0.057307467592645191
40
0.093282300887076064
40
0.093282300887076064
40
0.12514398411800859
40
0.12514398411800859
40
0.16114715315065745
40
0.16114715315065745
40
0.20780799733639965
40
0.20780799733639965
40
0.20780799733639965
40
0.20780799733639965
10
98.488488172411024
20
-97.003279266217135
30
0
10
98.679513064386498
20
-97.003279266217135
30
0
10
98.858121171500954
20
-96.98997245750067
30
0
10
99.096717994514876
20
-96.922156569839885
30
0
10
99.171742997252593
20
-96.88607541333684
30
0
10
99.287310984109723
20
-96.796733460985394
30
0
10
99.330416419802134
20
-96.746183056547267
30
0
10
99.403464571238914
20
-96.619767033653915
30
0
10
99.432423093909648
20
-96.539001345675914
30
0
10
99.478693133639226
20
-96.314187286760273
30
0
10
99.48848817241101
20
-96.166718842487541
30
0
10
99.48848817241101
20
-96.003279266217135
30
0
0
LINE
5
207
100
AcDbEntity
8
0
100
AcDbLine
10
98.488488172411024
20
-97.003279266217135
30
0
11
95.988488172411024
21
-97.003279266217135
31
0
0
SPLINE
5
208
100
AcDbEntity
8
0
100
AcDbSpline
70
0
71
3
72
16
73
12
74
0
42
0.000000001
43
0.0000000001
44
0.0000000001
40
0
40
0
40
0
40
0
40
0.057307467592491237
40
0.057307467592491237
40
0.093282300887580966
40
0.093282300887580966
40
0.12514398411980088
40
0.12514398411980088
40
0.16114715315630906
40
0.16114715315630906
40
0.20780799734935396
40
0.20780799734935396
40
0.20780799734935396
40
0.20780799734935396
10
94.988488172411039
20
-96.003279266217135
30
0
10
94.988488172411039
20
-96.194304158192097
30
0
10
95.001794981127418
20
-96.372912265306951
30
0
10
95.069610868788814
20
-96.61150908832299
30
0
10
95.105692025292313
20
-96.686534091060054
30
0
10
95.195033977642794
20
-96.802102077915904
30
0
10
95.245584382081006
20
-96.845207513608329
30
0
10
95.37200040497865
20
-96.918255665047582
30
0
10
95.452766092958754
20
-96.947214187717137
30
0
10
95.677580151865868
20
-96.993484227444952
30
0
10
95.825048596136838
20
-97.003279266217135
30
0
10
95.988488172411024
20
-97.003279266217135
30
0
0
LINE
5
209
100
AcDbEntity
8
0
100
AcDbLine
10
94.988488172411039
20
-96.003279266217135
30
0
11
94.988488172411039
21
-95.919652401840978
31
0
0
ARC
5
210
100
AcDbEntity
8
0
100
AcDbCircle
10
94.488488172411024
20
-95.919652401840978
30
0
40
0.50000000000000711
210
0
220
0
230
1
100
AcDbArc
50
0
51
90
0
LINE
5
211
100
AcDbEntity
8
0
100
AcDbLine
10
94.488488172411024
20
-95.419652401840978
30
0
11
85.373488172411029
21
-95.419652401840978
31
0
0
ARC
5
212
100
AcDbEntity
8
0
100
AcDbCircle
10
85.373488172411029
20
-95.919652401840978
30
0
40
0.50000000000000711
210
0
220
-0
230
1
100
AcDbArc
50
90
51
180
0
LINE
5
213
100
AcDbEntity
8
0
100
AcDbLine
10
84.873488172411015
20
-95.919652401840978
30
0
11
84.873488172411015
21
-96.008279266217158
31
0
0
SPLINE
5
214
100
AcDbEntity
8
0
100
AcDbSpline
70
0
71
3
72
16
73
12
74
0
42
0.000000001
43
0.0000000001
44
0.0000000001
40
0
40
0
40
0
40
0
40
0.05730746759254212
40
0.05730746759254212
40
0.0932823008887365
40
0.0932823008887365
40
0.12514398412287123
40
0.12514398412287123
40
0.16114715316059805
40
0.16114715316059805
40
0.20780799735418259
40
0.20780799735418259
40
0.20780799735418259
40
0.20780799735418259
10
83.873488172411029
20
-97.008279266217158
30
0
10
84.064513064386176
20
-97.008279266217158
30
0
10
84.243121171500874
20
-96.994972457500737
30
0
10
84.481717994519613
20
-96.927156569838587
30
0
10
84.556742997255753
20
-96.891075413334477
30
0
10
84.672310984109828
20
-96.801733460985389
30
0
10
84.715416419802239
20
-96.751183056547134
30
0
10
84.788464571240425
20
-96.624767033651324
30
0
10
84.817423093910463
20
-96.544001345672086
30
0
10
84.863693133638961
20
-96.319187286761618
30
0
10
84.873488172411015
20
-96.171718842490122
30
0
10
84.873488172411015
20
-96.008279266217158
30
0
0
LINE
5
215
100
AcDbEntity
8
0
100
AcDbLine
10
83.873488172411029
20
-97.008279266217158
30
0
11
81.373488172411044
21
-97.008279266217158
31
0
0
SPLINE
5
216
100
AcDbEntity
8
0
100
AcDbSpline
70
0
71
3
72
16
73
12
74
0
42
0.000000001
43
0.0000000001
44
0.0000000001
40
0
40
0
40
0
40
0
40
0.057307467592543765
40
0.057307467592543765
40
0.093282300888809608
40
0.093282300888809608
40
0.12514398412309419
40
0.12514398412309419
40
0.16114715316149597
40
0.16114715316149597
40
0.20780799735684291
40
0.20780799735684291
40
0.20780799735684291
40
0.20780799735684291
10
80.373488172411044
20
-96.008279266217158
30
0
10
80.373488172411044
20
-96.199304158192291
30
0
10
80.386794981127451
20
-96.377912265307032
30
0
10
80.454610868789658
20
-96.616509088325969
30
0
10
80.490692025293797
20
-96.691534091062024
30
0
10
80.580033977642799
20
-96.807102077915943
30
0
10
80.630584382081054
20
-96.850207513608382
30
0
10
80.757000404977774
20
-96.92325566504708
30
0
10
80.837766092957452
20
-96.952214187716876
30
0
10
81.062580151867124
20
-96.998484227445218
30
0
10
81.210048596139188
20
-97.008279266217158
30
0
10
81.373488172411044
20
-97.008279266217158
30
0
0
LINE
5
217
100
AcDbEntity
8
0
100
AcDbLine
10
80.373488172411044
20
-96.008279266217158
30
0
11
80.373488172411044
21
-95.919652401840978
31
0
0
ARC
5
218
100
AcDbEntity
8
0
100
AcDbCircle
10
79.873488172411015
20
-95.919652401841006
30
0
40
0.50000000000003375
210
0
220
-0
230
1
100
AcDbArc
50
0
51
89.999999999996746
0
LINE
5
219
100
AcDbEntity
8
0
100
AcDbLine
10
79.873488172411044
20
-95.419652401840978
30
0
11
75.790366522531471
21
-95.419652401840978
31
0
0
ARC
5
220
100
AcDbEntity
8
0
100
AcDbCircle
10
75.790366522531471
20
-96.419652401840978
30
0
40
0.99999999999999645
210
0
220
-0
230
1
100
AcDbArc
50
90
51
175.79765201547434
0
ARC
5
221
100
AcDbEntity
8
0
100
AcDbCircle
10
70.803809147125151
20
-96.053257066471048
30
0
40
3.9999999999999973
210
-0
220
0
230
1
100
AcDbArc
50
287.62252706540977
51
355.79765201547519
0
ARC
5
222
100
AcDbEntity
8
0
100
AcDbCircle
10
72.090473844764475
20
-100.10381183783862
30
0
40
0.24999999999999439
210
0
220
0
230
1
100
AcDbArc
50
107.62252706540519
51
270.00000000000324
0
LINE
5
223
100
AcDbEntity
8
0
100
AcDbLine
10
72.090473844764489
20
-100.35381183783861
30
0
11
105.64468817241099
21
-100.35381183783862
31
0
0
ARC
5
224
100
AcDbEntity
8
0
100
AcDbCircle
10
105.64468817241099
20
-100.85381183783863
30
0
40
0.50000000000000711
210
0
220
-0
230
1
100
AcDbArc
50
0
51
90
0
LINE
5
225
100
AcDbEntity
8
0
100
AcDbLine
10
106.14468817241101
20
-100.85381183783863
30
0
11
106.14468817241101
21
-175.33135575018801
31
0
0
ARC
5
226
100
AcDbEntity
8
0
100
AcDbCircle
10
105.64468817241099
20
-175.33135575018801
30
0
40
0.50000000000000711
210
-0
220
0
230
1
100
AcDbArc
50
-90
51
0
0
LINE
5
227
100
AcDbEntity
8
0
100
AcDbLine
10
105.64468817241099
20
-175.83135575018801
30
0
11
26.529684271043827
21
-175.83135575018801
31
0
0
LINE
5
228
100
AcDbEntity
8
0
100
AcDbLine
10
26.529684271043827
20
-175.83135575018801
30
0
11
26.057836523842724
21
-175.8313557571588
31
0
0
SPLINE
5
229
100
AcDbEntity
8
0
100
AcDbSpline
70
0
71
3
72
9
73
5
74
0
42
0.000000001
43
0.0000000001
44
0.0000000001
40
0.37554838177725192
40
0.37554838177725192
40
0.37554838177725192
40
0.37554838177725192
40
0.66666666666666663
40
1
40
1
40
1
40
1
10
25.557235106955126
20
-175.71668094202579
30
0
10
25.629694819519383
20
-175.75171672988847
30
0
10
25.793039428397478
20
-175.81050278533607
30
0
10
25.965678450023695
20
-175.83135575852026
30
0
10
26.057836523842724
20
-175.8313557571588
30
0
0
SPLINE
5
230
100
AcDbEntity
8
0
100
AcDbSpline
70
0
71
3
72
17
73
13
74
0
42
0.000000001
43
0.0000000001
44
0.0000000001
40
0
40
0
40
0
40
0
40
0.99968255790936944
40
0.99968255790936944
40
0.99968255790936944
40
2.0002356187183237
40
2.0002356187183237
40
2.0002356187183237
40
3.0003174417068306
40
3.0003174417068306
40
3.0003174417068306
40
4
40
4
40
4
40
4
10
26.029354343264799
20
-34.5618438634298
30
0
10
25.282759313547977
20
-34.5618438634298
30
0
10
24.677520406699603
20
-35.167793546566067
30
0
10
24.677520406699603
20
-35.913677799995099
30
0
10
24.677520406699603
20
-36.661634796382813
30
0
10
25.282636270034466
20
-37.266932838448
30
0
10
26.029354343264799
20
-37.266932838448
30
0
10
26.774666326638958
20
-37.266932838448
30
0
10
27.381209811676804
20
-36.659861757712228
30
0
10
27.381209811676804
20
-35.913677799995099
30
0
10
27.381209811676804
20
-35.169211044522278
30
0
10
26.774894647696172
20
-34.5618438634298
30
0
10
26.029354343264799
20
-34.5618438634298
30
0
0
SPLINE
5
231
100
AcDbEntity
8
0
100
AcDbSpline
70
2
71
3
72
17
73
13
74
0
42
0.000000001
43
0.0000000001
44
0.0000000001
40
0
40
0
40
0
40
0
40
1.000081667550665
40
1.000081667550665
40
1.000081667550665
40
2
40
2
40
2
40
2.9999183324428089
40
2.9999183324428089
40
2.9999183324428089
40
4
40
4
40
4
40
4
10
110.02928735313502
20
-179.26810586474201
30
0
10
110.77618045074584
20
-179.26810586474201
30
0
10
111.3811212897
20
-178.66332661926702
30
0
10
111.3811212897
20
-177.91625039633001
30
0
10
111.3811212897
20
-177.16966210909339
30
0
10
110.77605846684818
20
-176.564416459765
30
0
10
110.02928735313502
20
-176.564416459765
30
0
10
109.28251623942666
20
-176.564416459765
30
0
10
108.67743188472302
20
-177.16929630676159
30
0
10
108.67743188472302
20
-177.91625039633001
30
0
10
108.67743188472302
20
-178.66369266068011
30
0
10
109.28239425551929
20
-179.26810586474201
30
0
10
110.02928735313502
20
-179.26810586474201
30
0
0
SPLINE
5
232
100
AcDbEntity
8
0
100
AcDbSpline
70
2
71
3
72
17
73
13
74
0
42
0.000000001
43
0.0000000001
44
0.0000000001
40
0
40
0
40
0
40
0
40
0.99968255790937066
40
0.99968255790937066
40
0.99968255790937066
40
2
40
2
40
2
40
3.0003174417068306
40
3.0003174417068306
40
3.0003174417068306
40
4
40
4
40
4
40
4
10
110.02928735313502
20
-34.5618438634298
30
0
10
109.28269232341798
20
-34.5618438634298
30
0
10
108.67743188472302
20
-35.167793546566067
30
0
10
108.67743188472302
20
-35.913677799995099
30
0
10
108.67743188472302
20
-36.661458661127469
30
0
10
109.28221817152803
20
-37.266932838448
30
0
10
110.02928735313502
20
-37.266932838448
30
0
10
110.77635653445533
20
-37.266932838448
30
0
10
111.3811212897
20
-36.660037558235452
30
0
10
111.3811212897
20
-35.913677799995099
30
0
10
111.3811212897
20
-35.169211044522278
30
0
10
110.77588238313866
20
-34.5618438634298
30
0
10
110.02928735313502
20
-34.5618438634298
30
0
0
SPLINE
5
233
100
AcDbEntity
8
0
100
AcDbSpline
70
0
71
3
72
17
73
13
74
0
42
0.000000001
43
0.0000000001
44
0.0000000001
40
0
40
0
40
0
40
0
40
1.0000816675506663
40
1.0000816675506663
40
1.0000816675506663
40
1.999764381151903
40
1.999764381151903
40
1.999764381151903
40
2.9999183324333729
40
2.9999183324333729
40
2.9999183324333729
40
4
40
4
40
4
40
4
10
26.029354343264799
20
-179.26810586474201
30
0
10
26.775192294218925
20
-179.26810586474201
30
0
10
27.381209811676804
20
-178.66332661927058
30
0
10
27.381209811676804
20
-177.91625039633001
30
0
10
27.381209811676804
20
-177.16983803372943
30
0
10
26.775422049964476
20
-176.564416459765
30
0
10
26.029354343264799
20
-176.564416459765
30
0
10
25.281878980533445
20
-176.564416459765
30
0
10
24.677520406699603
20
-177.16912046851331
30
0
10
24.677520406699603
20
-177.91625039633001
30
0
10
24.677520406699603
20
-178.66369248803392
30
0
10
25.282461245642253
20
-179.26810586474201
30
0
10
26.029354343264799
20
-179.26810586474201
30
0
0
LINE
5
234
100
AcDbEntity
8
0
100
AcDbLine
10
113.02682187115801
20
-178.41968650595899
30
0
11
113.02682187115801
21
-154.60442308067982
31
0
0
ARC
5
235
100
AcDbEntity
8
0
100
AcDbCircle
10
112.52668206320918
20
-154.60442308067985
30
0
40
0.50013980794883395
210
0
220
-0
230
1
100
AcDbArc
50
0
51
89.99999999999838
0
LINE
5
236
100
AcDbEntity
8
0
100
AcDbLine
10
112.52668206320919
20
-154.10428327273101
30
0
11
112.12437741425003
21
-154.10428327273101
31
0
0
ARC
5
237
100
AcDbEntity
8
0
100
AcDbCircle
10
112.12437741425003
20
-152.60428327273101
30
0
40
1.5000000000000036
210
0
220
0
230
1
100
AcDbArc
50
180
51
270
0
LINE
5
238
100
AcDbEntity
8
0
100
AcDbLine
10
110.62437741425002
20
-152.60428327273101
30
0
11
110.62437741425002
21
-150.50245222006902
31
0
0
ARC
5
239
100
AcDbEntity
8
0
100
AcDbCircle
10
112.12437741425003
20
-150.50245222006902
30
0
40
1.5000000000000036
210
-0
220
0
230
1
100
AcDbArc
50
90
51
180
0
LINE
5
240
100
AcDbEntity
8
0
100
AcDbLine
10
112.12437741425003
20
-149.00245222006899
30
0
11
112.52668148412701
21
-149.00245222006899
31
0
0
ARC
5
241
100
AcDbEntity
8
0
100
AcDbCircle
10
112.52668148412702
20
-148.50231241212043
30
0
40
0.50013980794856749
210
0
220
0
230
1
100
AcDbArc
50
269.99999999999835
51
359.99997788413117
0
LINE
5
242
100
AcDbEntity
8
0
100
AcDbLine
10
113.02682129207555
20
-148.50231260522096
30
0
11
113.02686493485101
21
-35.465384749976998
31
0
0
ELLIPSE
5
243
100
AcDbEntity
8
0
100
AcDbEllipse
10
107.00849059573301
20
-38.857844108196701
30
0
11
5.4976419480625083
21
4.9299821033739972
31
0.0
40
0.49672165173147081
41
5.864175652158651
42
6.1163635206219196
0
SPLINE
5
244
100
AcDbEntity
8
0
100
AcDbSpline
70
0
71
3
72
8
73
4
74
0
42
0.000000001
43
0.0000000001
44
0.0000000001
40
33
40
33
40
33
40
33
40
34
40
34
40
34
40
34
10
110.529515217593
20
-32.916487791521298
30
0
10
111.507663953243
20
-32.916487791521298
30
0
10
112.42586518733302
20
-33.489557893645802
30
0
10
112.836437281904
20
-34.449749069078507
30
0
0
LINE
5
245
100
AcDbEntity
8
0
100
AcDbLine
10
110.529515217593
20
-32.916487791521298
30
0
11
110.529515217593
21
-32.913667119592802
31
0
0
LINE
5
246
100
AcDbEntity
8
0
100
AcDbLine
10
110.529515217593
20
-32.913667119592802
30
0
11
92.9263691987736
21
-32.913667119592802
31
0
0
SPLINE
5
247
100
AcDbEntity
8
0
100
AcDbSpline
70
0
71
3
72
8
73
4
74
0
42
0.000000001
43
0.0000000001
44
0.0000000001
40
30
40
30
40
30
40
30
40
31
40
31
40
31
40
31
10
92.426378184630011
20
-33.413658133736405
30
0
10
92.426378184630011
20
-33.137533730593702
30
0
10
92.650244795630798
20
-32.913667119592802
30
0
10
92.9263691987736
20
-32.913667119592802
30
0
0
LINE
5
248
100
AcDbEntity
8
0
100
AcDbLine
10
92.426378184630011
20
-33.413658133736405
30
0
11
92.426378184630011
21
-36.515880490816798
31
0
0
SPLINE
5
249
100
AcDbEntity
8
0
100
AcDbSpline
70
0
71
3
72
8
73
4
74
0
42
0.000000001
43
0.0000000001
44
0.0000000001
40
28
40
28
40
28
40
28
40
29
40
29
40
29
40
29
10
91.427300493907495
20
-37.5149581815392
30
0
10
91.979075599563799
20
-37.5149581815392
30
0
10
92.426378184630011
20
-37.067655596473102
30
0
10
92.426378184630011
20
-36.515880490816798
30
0
0
LINE
5
250
100
AcDbEntity
8
0
100
AcDbLine
10
91.427300493907495
20
-37.5149581815392
30
0
11
88.425890243464295
21
-37.5149581815392
31
0
0
SPLINE
5
251
100
AcDbEntity
8
0
100
AcDbSpline
70
0
71
3
72
8
73
4
74
0
42
0.000000001
43
0.0000000001
44
0.0000000001
40
26
40
26
40
26
40
26
40
27
40
27
40
27
40
27
10
87.426812552741794
20
-36.515880490816798
30
0
10
87.426812552741794
20
-37.067655596473102
30
0
10
87.874115137808019
20
-37.5149581815392
30
0
10
88.425890243464295
20
-37.5149581815392
30
0
0
LINE
5
252
100
AcDbEntity
8
0
100
AcDbLine
10
87.426812552741794
20
-36.515880490816798
30
0
11
87.426812552741794
21
-33.413658133736405
31
0
0
SPLINE
5
253
100
AcDbEntity
8
0
100
AcDbSpline
70
0
71
3
72
8
73
4
74
0
42
0.000000001
43
0.0000000001
44
0.0000000001
40
24
40
24
40
24
40
24
40
25
40
25
40
25
40
25
10
86.926821538598205
20
-32.913667119592802
30
0
10
87.202945941740907
20
-32.913667119592802
30
0
10
87.426812552741794
20
-33.137533730593702
30
0
10
87.426812552741794
20
-33.413658133736405
30
0
0
LINE
5
254
100
AcDbEntity
8
0
100
AcDbLine
10
86.926821538598205
20
-32.913667119592802
30
0
11
49.128288934929301
21
-32.913667119592802
31
0
0
SPLINE
5
255
100
AcDbEntity
8
0
100
AcDbSpline
70
0
71
3
72
8
73
4
74
0
42
0.000000001
43
0.0000000001
44
0.0000000001
40
22
40
22
40
22
40
22
40
23
40
23
40
23
40
23
10
48.628297920785606
20
-33.413658133736405
30
0
10
48.628297920785606
20
-33.137533730593702
30
0
10
48.852164531786499
20
-32.913667119592802
30
0
10
49.128288934929301
20
-32.913667119592802
30
0
0
LINE
5
256
100
AcDbEntity
8
0
100
AcDbLine
10
48.628297920785606
20
-33.413658133736405
30
0
11
48.628297920785606
21
-36.514480920775902
31
0
0
SPLINE
5
257
100
AcDbEntity
8
0
100
AcDbSpline
70
0
71
3
72
8
73
4
74
0
42
0.000000001
43
0.0000000001
44
0.0000000001
40
20
40
20
40
20
40
20
40
21
40
21
40
21
40
21
10
47.627820660022302
20
-37.5149581815392
30
0
10
48.1803709121628
20
-37.5149581815392
30
0
10
48.628297920785606
20
-37.067031172916401
30
0
10
48.628297920785606
20
-36.514480920775902
30
0
0
LINE
5
258
100
AcDbEntity
8
0
100
AcDbLine
10
47.627820660022302
20
-37.5149581815392
30
0
11
44.626410409579108
21
-37.5149581815392
31
0
0
SPLINE
5
259
100
AcDbEntity
8
0
100
AcDbSpline
70
0
71
3
72
8
73
4
74
0
42
0.000000001
43
0.0000000001
44
0.0000000001
40
18
40
18
40
18
40
18
40
19
40
19
40
19
40
19
10
43.6273327188566
20
-36.515880490816798
30
0
10
43.6273327188566
20
-37.067655596473102
30
0
10
44.074635303922697
20
-37.5149581815392
30
0
10
44.626410409579108
20
-37.5149581815392
30
0
0
LINE
5
260
100
AcDbEntity
8
0
100
AcDbLine
10
43.6273327188566
20
-36.515880490816798
30
0
11
43.6273327188566
21
-33.413658133736405
31
0
0
SPLINE
5
261
100
AcDbEntity
8
0
100
AcDbSpline
70
0
71
3
72
8
73
4
74
0
42
0.000000001
43
0.0000000001
44
0.0000000001
40
16
40
16
40
16
40
16
40
17
40
17
40
17
40
17
10
43.127341704713004
20
-32.913667119592802
30
0
10
43.403466107855699
20
-32.913667119592802
30
0
10
43.6273327188566
20
-33.137533730593702
30
0
10
43.6273327188566
20
-33.413658133736405
30
0
0
LINE
5
262
100
AcDbEntity
8
0
100
AcDbLine
10
43.127341704713004
20
-32.913667119592802
30
0
11
25.529470988355101
21
-32.913667119592802
31
0
0
SPLINE
5
263
100
AcDbEntity
8
0
100
AcDbSpline
70
0
71
3
72
11
73
7
74
0
42
0.000000001
43
0.0000000001
44
0.0000000001
40
13
40
13
40
13
40
13
40
14
40
14
40
14
40
15
40
15
40
15
40
15
10
23.029666640564201
20
-35.473437660673802
30
0
10
23.029645108717403
20
-35.125913653599198
30
0
10
23.082288505679401
20
-34.776364819558502
30
0
10
23.2177688540588
20
-34.456359346040898
30
0
10
23.625597638543301
20
-33.493065076029502
30
0
10
24.548544644470503
20
-32.913667119592802
30
0
10
25.529470988355101
20
-32.913667119592802
30
0
0
LINE
5
264
100
AcDbEntity
8
0
100
AcDbLine
10
23.029666640564201
20
-35.473437660673802
30
0
11
23.029688172410999
21
-178.416865834031
31
0
0
SPLINE
5
265
100
AcDbEntity
8
0
100
AcDbSpline
70
0
71
3
72
8
73
4
74
0
42
0.000000001
43
0.0000000001
44
0.0000000001
40
11
40
11
40
11
40
11
40
12
40
12
40
12
40
12
10
24.8464592765575
20
-180.82587038393899
30
0
10
23.716575616629399
20
-180.48965059642501
30
0
10
23.029688172410999
20
-179.48777376562103
30
0
10
23.029688172410999
20
-178.416865834031
30
0
0
SPLINE
5
266
100
AcDbEntity
8
0
100
AcDbSpline
70
0
71
3
72
8
73
4
74
0
42
0.000000001
43
0.0000000001
44
0.0000000001
40
10
40
10
40
10
40
10
40
11
40
11
40
11
40
11
10
25.529470988355101
20
-180.916648649975
30
0
10
25.299101759625803
20
-180.916648649975
30
0
10
25.067268365315201
20
-180.89156404847299
30
0
10
24.8464592765575
20
-180.82587038393899
30
0
0
LINE
5
267
100
AcDbEntity
8
0
100
AcDbLine
10
25.529470988355101
20
-180.916648649975
30
0
11
110.47994890630001
21
-180.916648649975
31
0
0
SPLINE
5
268
100
AcDbEntity
8
0
100
AcDbSpline
70
0
71
3
72
17
73
13
74
0
42
0.000000001
43
0.0000000001
44
0.0000000001
40
7
40
7
40
7
40
7
40
7.5893298460006378
40
7.5893298460006378
40
7.5893298460006378
40
7.9406540235438312
40
7.9406540235438312
40
7.9406540235438312
40
8.1397736055782168
40
8.1397736055782168
40
8.1397736055782168
40
9
40
9
40
9
40
9
10
113.02682187115801
20
-178.41968650595899
30
0
10
113.02682187115801
20
-178.99542814554815
30
0
10
112.81730983868388
20
-179.54212685426967
30
0
10
112.51099198284348
20
-179.94118519302697
30
0
10
112.32838309327127
20
-180.17908056453595
30
0
10
112.11445867832401
20
-180.36651275712231
30
0
10
111.90708398565778
20
-180.50394827808404
30
0
10
111.78955048022993
20
-180.58184244318807
30
0
10
111.67189229242138
20
-180.65008580578569
30
0
10
111.49719947570702
20
-180.72503674545499
30
0
10
111.24596049706361
20
-180.83282937187758
30
0
10
110.77919458608747
20
-180.916648649975
30
0
10
110.47994890630001
20
-180.916648649975
30
0
0
ENDSEC
0
SECTION
2
OBJECTS
0
DICTIONARY
5
C
100
AcDbDictionary
3
ACAD_GROUP
350
D
3
ACAD_MLINESTYLE
350
17
0
DICTIONARY
5
D
100
AcDbDictionary
0
DICTIONARY
5
1A
330
C
100
AcDbDictionary
0
DICTIONARY
5
17
100
AcDbDictionary
0
ENDSEC
0
EOF
