%TF.GenerationSoftware,KiCad,Pcbnew,9.0.2*%
%TF.CreationDate,2025-07-24T16:09:36+02:00*%
%TF.ProjectId,Oscilli,4f736369-6c6c-4692-9e6b-696361645f70,rev?*%
%TF.SameCoordinates,Original*%
%TF.FileFunction,Copper,L1,Top*%
%TF.FilePolarity,Positive*%
%FSLAX46Y46*%
G04 Gerber Fmt 4.6, Leading zero omitted, Abs format (unit mm)*
G04 Created by KiCad (PCBNEW 9.0.2) date 2025-07-24 16:09:36*
%MOMM*%
%LPD*%
G01*
G04 APERTURE LIST*
G04 Aperture macros list*
%AMRoundRect*
0 Rectangle with rounded corners*
0 $1 Rounding radius*
0 $2 $3 $4 $5 $6 $7 $8 $9 X,Y pos of 4 corners*
0 Add a 4 corners polygon primitive as box body*
4,1,4,$2,$3,$4,$5,$6,$7,$8,$9,$2,$3,0*
0 Add four circle primitives for the rounded corners*
1,1,$1+$1,$2,$3*
1,1,$1+$1,$4,$5*
1,1,$1+$1,$6,$7*
1,1,$1+$1,$8,$9*
0 Add four rect primitives between the rounded corners*
20,1,$1+$1,$2,$3,$4,$5,0*
20,1,$1+$1,$4,$5,$6,$7,0*
20,1,$1+$1,$6,$7,$8,$9,0*
20,1,$1+$1,$8,$9,$2,$3,0*%
G04 Aperture macros list end*
%TA.AperFunction,SMDPad,CuDef*%
%ADD10RoundRect,0.250000X-0.250000X-0.475000X0.250000X-0.475000X0.250000X0.475000X-0.250000X0.475000X0*%
%TD*%
%TA.AperFunction,SMDPad,CuDef*%
%ADD11RoundRect,0.250000X0.262500X0.450000X-0.262500X0.450000X-0.262500X-0.450000X0.262500X-0.450000X0*%
%TD*%
%TA.AperFunction,SMDPad,CuDef*%
%ADD12RoundRect,0.250000X0.250000X0.475000X-0.250000X0.475000X-0.250000X-0.475000X0.250000X-0.475000X0*%
%TD*%
%TA.AperFunction,SMDPad,CuDef*%
%ADD13RoundRect,0.250000X-0.450000X0.262500X-0.450000X-0.262500X0.450000X-0.262500X0.450000X0.262500X0*%
%TD*%
%TA.AperFunction,SMDPad,CuDef*%
%ADD14RoundRect,0.218750X-0.218750X-0.381250X0.218750X-0.381250X0.218750X0.381250X-0.218750X0.381250X0*%
%TD*%
%TA.AperFunction,SMDPad,CuDef*%
%ADD15RoundRect,0.250000X-0.262500X-0.450000X0.262500X-0.450000X0.262500X0.450000X-0.262500X0.450000X0*%
%TD*%
%TA.AperFunction,SMDPad,CuDef*%
%ADD16RoundRect,0.250000X0.450000X-0.262500X0.450000X0.262500X-0.450000X0.262500X-0.450000X-0.262500X0*%
%TD*%
%TA.AperFunction,ComponentPad*%
%ADD17C,4.000000*%
%TD*%
%TA.AperFunction,ComponentPad*%
%ADD18R,1.600000X1.600000*%
%TD*%
%TA.AperFunction,ComponentPad*%
%ADD19C,1.600000*%
%TD*%
%TA.AperFunction,SMDPad,CuDef*%
%ADD20R,1.200000X1.950000*%
%TD*%
%TA.AperFunction,ComponentPad*%
%ADD21R,1.700000X1.700000*%
%TD*%
%TA.AperFunction,ComponentPad*%
%ADD22C,1.700000*%
%TD*%
%TA.AperFunction,ComponentPad*%
%ADD23C,1.460000*%
%TD*%
%TA.AperFunction,ComponentPad*%
%ADD24C,3.140000*%
%TD*%
%TA.AperFunction,SMDPad,CuDef*%
%ADD25RoundRect,0.150000X-0.825000X-0.150000X0.825000X-0.150000X0.825000X0.150000X-0.825000X0.150000X0*%
%TD*%
%TA.AperFunction,SMDPad,CuDef*%
%ADD26RoundRect,0.075000X-0.715000X-0.225000X0.715000X-0.225000X0.715000X0.225000X-0.715000X0.225000X0*%
%TD*%
%TA.AperFunction,ViaPad*%
%ADD27C,0.600000*%
%TD*%
%TA.AperFunction,Conductor*%
%ADD28C,0.150000*%
%TD*%
%TA.AperFunction,Conductor*%
%ADD29C,0.400000*%
%TD*%
%TA.AperFunction,Conductor*%
%ADD30C,0.500000*%
%TD*%
%TA.AperFunction,Conductor*%
%ADD31C,0.200000*%
%TD*%
G04 APERTURE END LIST*
D10*
%TO.P,C3,1*%
%TO.N,GND*%
X68815000Y-135280000D03*
%TO.P,C3,2*%
%TO.N,+3.3V*%
X70715000Y-135280000D03*
%TD*%
D11*
%TO.P,R5,1*%
%TO.N,Net-(C2-Pad2)*%
X85120000Y-134400000D03*
%TO.P,R5,2*%
%TO.N,Net-(R11-Pad1)*%
X83295000Y-134400000D03*
%TD*%
D12*
%TO.P,C4,1*%
%TO.N,GND*%
X97555000Y-144177500D03*
%TO.P,C4,2*%
%TO.N,+5V*%
X95655000Y-144177500D03*
%TD*%
D13*
%TO.P,R2,1*%
%TO.N,Net-(R2-Pad1)*%
X45370000Y-144937500D03*
%TO.P,R2,2*%
%TO.N,+3.3V*%
X45370000Y-146762500D03*
%TD*%
D11*
%TO.P,R1,1*%
%TO.N,Net-(C1-Pad2)*%
X56477500Y-134400000D03*
%TO.P,R1,2*%
%TO.N,Net-(R1-Pad2)*%
X54652500Y-134400000D03*
%TD*%
D14*
%TO.P,FB1,1*%
%TO.N,Net-(J1-In)*%
X51067500Y-132470000D03*
%TO.P,FB1,2*%
%TO.N,Net-(FB1-Pad2)*%
X53192500Y-132470000D03*
%TD*%
D15*
%TO.P,R12,1*%
%TO.N,Net-(R11-Pad1)*%
X79820000Y-136475000D03*
%TO.P,R12,2*%
%TO.N,GND*%
X81645000Y-136475000D03*
%TD*%
D16*
%TO.P,R7,1*%
%TO.N,GND*%
X75845000Y-146735000D03*
%TO.P,R7,2*%
%TO.N,Net-(R6-Pad1)*%
X75845000Y-144910000D03*
%TD*%
D11*
%TO.P,R8,1*%
%TO.N,Net-(U1B--)*%
X70740000Y-143230000D03*
%TO.P,R8,2*%
%TO.N,GPIO8*%
X68915000Y-143230000D03*
%TD*%
%TO.P,R11,1*%
%TO.N,Net-(R11-Pad1)*%
X81645000Y-134400000D03*
%TO.P,R11,2*%
%TO.N,Net-(FB2-Pad2)*%
X79820000Y-134400000D03*
%TD*%
D15*
%TO.P,R10,1*%
%TO.N,Net-(R1-Pad2)*%
X51152500Y-136475000D03*
%TO.P,R10,2*%
%TO.N,GND*%
X52977500Y-136475000D03*
%TD*%
D12*
%TO.P,C2,1*%
%TO.N,Net-(C2-Pad1)*%
X85170000Y-136500000D03*
%TO.P,C2,2*%
%TO.N,Net-(C2-Pad2)*%
X83270000Y-136500000D03*
%TD*%
D13*
%TO.P,R6,1*%
%TO.N,Net-(R6-Pad1)*%
X73820000Y-144927500D03*
%TO.P,R6,2*%
%TO.N,+3.3V*%
X73820000Y-146752500D03*
%TD*%
D17*
%TO.P,J3,0,PAD*%
%TO.N,unconnected-(J3-PAD-Pad0)*%
X122950000Y-131220000D03*
X97950000Y-131220000D03*
D18*
%TO.P,J3,1,1*%
%TO.N,GND*%
X104910000Y-134060000D03*
D19*
%TO.P,J3,2,2*%
%TO.N,unconnected-(J3-Pad2)*%
X107680000Y-134060000D03*
%TO.P,J3,3,3*%
%TO.N,/CAN_P*%
X110450000Y-134060000D03*
%TO.P,J3,4,4*%
%TO.N,unconnected-(J3-Pad4)*%
X113220000Y-134060000D03*
%TO.P,J3,5,5*%
%TO.N,/CAN_N*%
X115990000Y-134060000D03*
%TO.P,J3,6,6*%
%TO.N,unconnected-(J3-Pad6)*%
X106295000Y-131220000D03*
%TO.P,J3,7,7*%
%TO.N,unconnected-(J3-Pad7)*%
X109065000Y-131220000D03*
%TO.P,J3,8,8*%
%TO.N,unconnected-(J3-Pad8)*%
X111835000Y-131220000D03*
%TO.P,J3,9,9*%
%TO.N,unconnected-(J3-Pad9)*%
X114605000Y-131220000D03*
%TD*%
D12*
%TO.P,C5,1*%
%TO.N,+3.3V*%
X101165000Y-144195000D03*
%TO.P,C5,2*%
%TO.N,GND*%
X99265000Y-144195000D03*
%TD*%
D16*
%TO.P,R13,1*%
%TO.N,/CAN_N*%
X103525000Y-141197500D03*
%TO.P,R13,2*%
%TO.N,/CAN_P*%
X103525000Y-139372500D03*
%TD*%
D20*
%TO.P,SW2,1,A*%
%TO.N,Net-(C2-Pad1)*%
X85050000Y-140647500D03*
%TO.P,SW2,2,B*%
%TO.N,Net-(U1B-+)*%
X82550000Y-140647500D03*
%TO.P,SW2,3,C*%
%TO.N,Net-(C2-Pad2)*%
X80050000Y-140647500D03*
%TO.P,SW2,4,A*%
%TO.N,Net-(R6-Pad1)*%
X85050000Y-146297500D03*
%TO.P,SW2,5,B*%
%TO.N,Net-(U1B-+)*%
X82550000Y-146297500D03*
%TO.P,SW2,6,C*%
%TO.N,unconnected-(SW2-C-Pad6)*%
X80050000Y-146297500D03*
%TD*%
D21*
%TO.P,J5,1,Pin_1*%
%TO.N,+3.3V*%
X110330000Y-151000000D03*
D22*
%TO.P,J5,2,Pin_2*%
%TO.N,unconnected-(J5-Pin_2-Pad2)*%
X107790000Y-151000000D03*
%TO.P,J5,3,Pin_3*%
%TO.N,GND*%
X105250000Y-151000000D03*
%TO.P,J5,4,Pin_4*%
%TO.N,unconnected-(J5-Pin_4-Pad4)*%
X102710000Y-151000000D03*
%TO.P,J5,5,Pin_5*%
%TO.N,unconnected-(J5-Pin_5-Pad5)*%
X100170000Y-151000000D03*
%TO.P,J5,6,Pin_6*%
%TO.N,unconnected-(J5-Pin_6-Pad6)*%
X97630000Y-151000000D03*
%TO.P,J5,7,Pin_7*%
%TO.N,I2C2.SDA*%
X95090000Y-151000000D03*
%TO.P,J5,8,Pin_8*%
%TO.N,I2C2.SCL*%
X92550000Y-151000000D03*
%TO.P,J5,9,Pin_9*%
%TO.N,unconnected-(J5-Pin_9-Pad9)*%
X90010000Y-151000000D03*
%TO.P,J5,10,Pin_10*%
%TO.N,GND*%
X87470000Y-151000000D03*
%TD*%
D21*
%TO.P,J4,1,Pin_1*%
%TO.N,+5V*%
X77310000Y-151000000D03*
D22*
%TO.P,J4,2,Pin_2*%
%TO.N,unconnected-(J4-Pin_2-Pad2)*%
X74770000Y-151000000D03*
%TO.P,J4,3,Pin_3*%
%TO.N,UART0N*%
X72230000Y-151000000D03*
%TO.P,J4,4,Pin_4*%
%TO.N,UART0P*%
X69690000Y-151000000D03*
%TO.P,J4,5,Pin_5*%
%TO.N,GPIO3*%
X67150000Y-151000000D03*
%TO.P,J4,6,Pin_6*%
%TO.N,GPIO8*%
X64610000Y-151000000D03*
%TO.P,J4,7,Pin_7*%
%TO.N,GPIO10*%
X62070000Y-151000000D03*
%TO.P,J4,8,Pin_8*%
%TO.N,GND*%
X59530000Y-151000000D03*
%TD*%
D23*
%TO.P,J2,1,In*%
%TO.N,Net-(J2-In)*%
X79800000Y-128290000D03*
%TO.P,J2,2,Ext*%
%TO.N,GND*%
X77260000Y-128290000D03*
D24*
%TO.P,J2,3*%
%TO.N,N/C*%
X84880000Y-123210000D03*
%TO.P,J2,4*%
X74720000Y-123210000D03*
%TD*%
D11*
%TO.P,R9,1*%
%TO.N,Net-(R1-Pad2)*%
X52977500Y-134400000D03*
%TO.P,R9,2*%
%TO.N,Net-(FB1-Pad2)*%
X51152500Y-134400000D03*
%TD*%
D12*
%TO.P,C1,1*%
%TO.N,Net-(C1-Pad1)*%
X56527500Y-136500000D03*
%TO.P,C1,2*%
%TO.N,Net-(C1-Pad2)*%
X54627500Y-136500000D03*
%TD*%
D23*
%TO.P,J1,1,In*%
%TO.N,Net-(J1-In)*%
X51180000Y-128290000D03*
%TO.P,J1,2,Ext*%
%TO.N,GND*%
X48640000Y-128290000D03*
D24*
%TO.P,J1,3*%
%TO.N,N/C*%
X56260000Y-123210000D03*
%TO.P,J1,4*%
X46100000Y-123210000D03*
%TD*%
D16*
%TO.P,R3,1*%
%TO.N,GND*%
X47420000Y-146755000D03*
%TO.P,R3,2*%
%TO.N,Net-(R2-Pad1)*%
X47420000Y-144930000D03*
%TD*%
D11*
%TO.P,R4,1*%
%TO.N,Net-(U1A--)*%
X66652500Y-143205000D03*
%TO.P,R4,2*%
%TO.N,GPIO3*%
X64827500Y-143205000D03*
%TD*%
D25*
%TO.P,U2,1,TXD*%
%TO.N,UART0P*%
X96215000Y-138385000D03*
%TO.P,U2,2,GND*%
%TO.N,GND*%
X96215000Y-139655000D03*
%TO.P,U2,3,VCC*%
%TO.N,+5V*%
X96215000Y-140925000D03*
%TO.P,U2,4,RXD*%
%TO.N,UART0N*%
X96215000Y-142195000D03*
%TO.P,U2,5,VIO*%
%TO.N,+3.3V*%
X101165000Y-142195000D03*
%TO.P,U2,6,CANL*%
%TO.N,/CAN_N*%
X101165000Y-140925000D03*
%TO.P,U2,7,CANH*%
%TO.N,/CAN_P*%
X101165000Y-139655000D03*
%TO.P,U2,8,S*%
%TO.N,GND*%
X101165000Y-138385000D03*
%TD*%
D26*
%TO.P,U1,1*%
%TO.N,Net-(U1A--)*%
X65102500Y-137295000D03*
%TO.P,U1,2,-*%
X65102500Y-138565000D03*
%TO.P,U1,3,+*%
%TO.N,Net-(U1A-+)*%
X65102500Y-139835000D03*
%TO.P,U1,4,V-*%
%TO.N,GND*%
X65102500Y-141105000D03*
%TO.P,U1,5,+*%
%TO.N,Net-(U1B-+)*%
X70442500Y-141105000D03*
%TO.P,U1,6,-*%
%TO.N,Net-(U1B--)*%
X70442500Y-139835000D03*
%TO.P,U1,7*%
X70442500Y-138565000D03*
%TO.P,U1,8,V+*%
%TO.N,+3.3V*%
X70442500Y-137295000D03*
%TD*%
D20*
%TO.P,SW1,1,A*%
%TO.N,Net-(C1-Pad1)*%
X56180000Y-140647500D03*
%TO.P,SW1,2,B*%
%TO.N,Net-(U1A-+)*%
X53680000Y-140647500D03*
%TO.P,SW1,3,C*%
%TO.N,Net-(C1-Pad2)*%
X51180000Y-140647500D03*
%TO.P,SW1,4,A*%
%TO.N,Net-(R2-Pad1)*%
X56180000Y-146297500D03*
%TO.P,SW1,5,B*%
%TO.N,Net-(U1A-+)*%
X53680000Y-146297500D03*
%TO.P,SW1,6,C*%
%TO.N,unconnected-(SW1-C-Pad6)*%
X51180000Y-146297500D03*
%TD*%
D14*
%TO.P,FB2,1*%
%TO.N,Net-(J2-In)*%
X79737500Y-132470000D03*
%TO.P,FB2,2*%
%TO.N,Net-(FB2-Pad2)*%
X81862500Y-132470000D03*
%TD*%
D27*
%TO.N,+3.3V*%
X72630000Y-146730000D03*
X69815000Y-135310000D03*
X82870000Y-153490000D03*
%TO.N,GND*%
X127500000Y-126772233D03*
X69800000Y-145710000D03*
X66500000Y-154710000D03*
X98540000Y-139660000D03*
X60500000Y-154710000D03*
X53900000Y-131210000D03*
X48430000Y-115500000D03*
X74430000Y-115500000D03*
X78500000Y-154710000D03*
X58500000Y-154710000D03*
X125500000Y-126772233D03*
X65400000Y-145710000D03*
X77000000Y-133410000D03*
X70430000Y-115500000D03*
X49500000Y-135610000D03*
X44430000Y-115500000D03*
X126500000Y-154710000D03*
X88500000Y-154710000D03*
X129500000Y-147710000D03*
X97500000Y-126772233D03*
X40500000Y-147710000D03*
X77000000Y-137710000D03*
X78100000Y-130110000D03*
X56430000Y-115500000D03*
X67600000Y-148910000D03*
X81500000Y-131210000D03*
X62100000Y-145710000D03*
X67600000Y-144610000D03*
X46500000Y-154710000D03*
X67600000Y-147810000D03*
X62100000Y-147810000D03*
X90400000Y-123510000D03*
X129500000Y-137710000D03*
X63440000Y-141110000D03*
X56500000Y-154710000D03*
X121500000Y-126772233D03*
X40500000Y-127710000D03*
X51670000Y-137960000D03*
X66430000Y-115500000D03*
X78430000Y-115500000D03*
X40500000Y-121710000D03*
X60430000Y-115500000D03*
X70500000Y-154710000D03*
X69800000Y-144610000D03*
X52800000Y-131210000D03*
X68430000Y-115500000D03*
X48400000Y-135610000D03*
X42500000Y-154710000D03*
X93300000Y-126710000D03*
X46430000Y-115500000D03*
X40500000Y-139710000D03*
X129500000Y-153710000D03*
X78100000Y-132310000D03*
X129500000Y-145710000D03*
X68700000Y-148910000D03*
X51800000Y-131210000D03*
X106500000Y-154710000D03*
X49500000Y-131210000D03*
X117500000Y-126772233D03*
X90430000Y-119500000D03*
X64300000Y-145710000D03*
X68700000Y-147810000D03*
X104500000Y-154710000D03*
X40500000Y-123710000D03*
X48400000Y-132310000D03*
X90430000Y-117500000D03*
X66500000Y-144610000D03*
X40500000Y-133710000D03*
X124500000Y-154710000D03*
X40500000Y-143710000D03*
X108500000Y-154710000D03*
X40500000Y-131710000D03*
X68500000Y-154710000D03*
X80180000Y-137950000D03*
X79200000Y-130110000D03*
X113500000Y-126772233D03*
X129500000Y-151710000D03*
X63200000Y-148910000D03*
X82500000Y-154710000D03*
X52800000Y-130110000D03*
X86430000Y-115500000D03*
X49500000Y-132310000D03*
X78100000Y-133410000D03*
X72430000Y-115500000D03*
X69800000Y-148910000D03*
X40500000Y-151710000D03*
X100500000Y-154710000D03*
X129500000Y-129610000D03*
X58430000Y-115500000D03*
X63200000Y-146810000D03*
X94500000Y-154710000D03*
X40500000Y-117710000D03*
X62430000Y-115500000D03*
X90500000Y-154710000D03*
X66500000Y-145710000D03*
X118500000Y-154710000D03*
X107500000Y-126772233D03*
X105500000Y-126772233D03*
X50600000Y-131210000D03*
X48400000Y-131210000D03*
X48400000Y-133410000D03*
X129500000Y-149710000D03*
X80430000Y-115500000D03*
X84500000Y-154710000D03*
X52430000Y-115500000D03*
X129500000Y-131710000D03*
X77000000Y-131210000D03*
X63200000Y-144610000D03*
X123500000Y-126772233D03*
X49500000Y-130110000D03*
X40500000Y-145710000D03*
X110500000Y-154710000D03*
X52500000Y-154710000D03*
X82500000Y-130110000D03*
X79200000Y-131210000D03*
X50500000Y-154710000D03*
X49500000Y-134510000D03*
X69800000Y-147810000D03*
X49500000Y-133410000D03*
X78100000Y-135510000D03*
X64430000Y-115500000D03*
X101500000Y-126772233D03*
X40500000Y-119710000D03*
X64500000Y-154710000D03*
X86500000Y-154710000D03*
X115500000Y-126772233D03*
X74500000Y-154710000D03*
X77000000Y-130110000D03*
X92500000Y-154710000D03*
X48400000Y-134510000D03*
X72500000Y-154710000D03*
X129500000Y-155710000D03*
X88430000Y-115500000D03*
X40500000Y-129710000D03*
X51800000Y-130110000D03*
X66500000Y-148910000D03*
X48400000Y-136710000D03*
X48400000Y-130110000D03*
X95500000Y-126772233D03*
X78100000Y-131210000D03*
X68700000Y-146810000D03*
X80400000Y-131210000D03*
X65400000Y-146810000D03*
X40500000Y-135710000D03*
X69800000Y-146810000D03*
X65400000Y-144610000D03*
X116500000Y-154710000D03*
X96500000Y-154710000D03*
X62100000Y-144610000D03*
X111500000Y-126772233D03*
X120500000Y-154710000D03*
X129500000Y-141710000D03*
X90430000Y-121500000D03*
X82600000Y-131210000D03*
X64300000Y-144610000D03*
X49500000Y-137810000D03*
X77000000Y-134510000D03*
X50600000Y-130110000D03*
X80500000Y-154710000D03*
X49500000Y-136710000D03*
X64300000Y-147810000D03*
X84430000Y-115500000D03*
X82430000Y-115500000D03*
X78100000Y-134510000D03*
X48400000Y-137810000D03*
X114500000Y-154710000D03*
X129500000Y-133710000D03*
X103500000Y-126772233D03*
X50430000Y-115500000D03*
X76500000Y-154710000D03*
X77000000Y-132310000D03*
X129500000Y-139710000D03*
X63200000Y-145710000D03*
X40500000Y-137710000D03*
X48500000Y-154710000D03*
X42400000Y-115510000D03*
X54500000Y-154710000D03*
X78100000Y-137710000D03*
X102500000Y-154710000D03*
X99500000Y-126772233D03*
X81400000Y-130110000D03*
X122500000Y-154710000D03*
X128200000Y-154810000D03*
X129500000Y-143710000D03*
X44500000Y-154710000D03*
X40500000Y-125710000D03*
X40500000Y-155710000D03*
X77000000Y-135510000D03*
X53900000Y-130110000D03*
X109500000Y-126772233D03*
X62500000Y-154710000D03*
X78100000Y-136610000D03*
X119500000Y-126772233D03*
X77000000Y-136610000D03*
X112500000Y-154710000D03*
X129500000Y-135710000D03*
X40500000Y-153710000D03*
X40500000Y-149710000D03*
X40500000Y-141710000D03*
X98500000Y-154710000D03*
X76430000Y-115500000D03*
X54430000Y-115500000D03*
X62100000Y-146810000D03*
X80400000Y-130110000D03*
%TO.N,+5V*%
X98520000Y-140910000D03*
X94530000Y-144177500D03*
%TO.N,Net-(R2-Pad1)*%
X56150000Y-144910000D03*
X48620000Y-144930000D03*
%TO.N,Net-(R6-Pad1)*%
X76977500Y-144937500D03*
X85050000Y-144910000D03*
%TD*%
D28*
%TO.N,Net-(C1-Pad1)*%
X56527500Y-136500000D02*
X56527500Y-138632500D01*
X56180000Y-138980000D02*
X56180000Y-140647500D01*
X56527500Y-138632500D02*
X56180000Y-138980000D01*
%TO.N,Net-(C1-Pad2)*%
X56477500Y-134650000D02*
X54627500Y-136500000D01*
X54627500Y-136500000D02*
X51180000Y-139947500D01*
X56477500Y-134400000D02*
X56477500Y-134650000D01*
X51180000Y-139947500D02*
X51180000Y-140647500D01*
%TO.N,Net-(C2-Pad2)*%
X85120000Y-134650000D02*
X83270000Y-136500000D01*
X80140000Y-139630000D02*
X80130000Y-139630000D01*
X80130000Y-140567500D02*
X80050000Y-140647500D01*
X80130000Y-139630000D02*
X80130000Y-140567500D01*
X85120000Y-134400000D02*
X85120000Y-134650000D01*
X83270000Y-136500000D02*
X80140000Y-139630000D01*
%TO.N,Net-(C2-Pad1)*%
X85170000Y-138900000D02*
X85050000Y-139020000D01*
X85170000Y-136500000D02*
X85170000Y-138900000D01*
X85050000Y-139020000D02*
X85050000Y-140647500D01*
D29*
%TO.N,+3.3V*%
X69815000Y-135310000D02*
X70685000Y-135310000D01*
X110330000Y-153220000D02*
X110330000Y-151000000D01*
X110060000Y-153490000D02*
X110330000Y-153220000D01*
X70715000Y-137022500D02*
X70442500Y-137295000D01*
D30*
X101165000Y-142225000D02*
X101165000Y-144195000D01*
D29*
X49830000Y-153490000D02*
X45350000Y-149010000D01*
X70715000Y-135280000D02*
X70715000Y-137022500D01*
X82870000Y-153490000D02*
X49830000Y-153490000D01*
X103525000Y-144195000D02*
X101165000Y-144195000D01*
X72630000Y-146730000D02*
X73797500Y-146730000D01*
X45350000Y-149010000D02*
X45350000Y-146817500D01*
X73797500Y-146730000D02*
X73820000Y-146752500D01*
X82870000Y-153490000D02*
X110060000Y-153490000D01*
X110330000Y-151000000D02*
X103525000Y-144195000D01*
X70685000Y-135310000D02*
X70715000Y-135280000D01*
%TO.N,GND*%
X52977500Y-136652500D02*
X51670000Y-137960000D01*
X52977500Y-136475000D02*
X52977500Y-136652500D01*
X99815000Y-138385000D02*
X98540000Y-139660000D01*
X101165000Y-138385000D02*
X99815000Y-138385000D01*
X81645000Y-136485000D02*
X80180000Y-137950000D01*
X96215000Y-139655000D02*
X98535000Y-139655000D01*
X98535000Y-139655000D02*
X98540000Y-139660000D01*
X63445000Y-141105000D02*
X63440000Y-141110000D01*
X65102500Y-141105000D02*
X63445000Y-141105000D01*
X81645000Y-136475000D02*
X81645000Y-136485000D01*
D30*
X97555000Y-144177500D02*
X99247500Y-144177500D01*
X99247500Y-144177500D02*
X99265000Y-144195000D01*
%TO.N,+5V*%
X77310000Y-151000000D02*
X83920000Y-151000000D01*
X94530000Y-144177500D02*
X95655000Y-144177500D01*
X83920000Y-151000000D02*
X90742500Y-144177500D01*
X90742500Y-144177500D02*
X94530000Y-144177500D01*
D29*
X98505000Y-140925000D02*
X98520000Y-140910000D01*
X96215000Y-140925000D02*
X98505000Y-140925000D01*
D28*
%TO.N,Net-(J1-In)*%
X51180000Y-132357500D02*
X51180000Y-128290000D01*
X51067500Y-132470000D02*
X51180000Y-132357500D01*
%TO.N,Net-(J2-In)*%
X79800000Y-132407500D02*
X79800000Y-128290000D01*
X79737500Y-132470000D02*
X79800000Y-132407500D01*
X79804800Y-132402700D02*
X79737500Y-132470000D01*
%TO.N,Net-(R1-Pad2)*%
X52977500Y-134400000D02*
X52977500Y-134650000D01*
X52977500Y-134400000D02*
X54652500Y-134400000D01*
X52977500Y-134650000D02*
X51152500Y-136475000D01*
D29*
%TO.N,Net-(R2-Pad1)*%
X48620000Y-144930000D02*
X47420000Y-144930000D01*
X56150000Y-144910000D02*
X56150000Y-146267500D01*
X56150000Y-146267500D02*
X56180000Y-146297500D01*
D28*
%TO.N,Net-(U1A--)*%
X65892499Y-138565000D02*
X65102500Y-138565000D01*
X66652500Y-143205000D02*
X66652500Y-139325001D01*
X66652500Y-139325001D02*
X65892499Y-138565000D01*
X65102500Y-137295000D02*
X65102500Y-138565000D01*
%TO.N,Net-(R11-Pad1)*%
X81645000Y-134650000D02*
X79820000Y-136475000D01*
X81645000Y-134400000D02*
X81645000Y-134650000D01*
X81645000Y-134400000D02*
X83295000Y-134400000D01*
D29*
%TO.N,Net-(R6-Pad1)*%
X75862500Y-144927500D02*
X76977500Y-144927500D01*
X73837500Y-144910000D02*
X75845000Y-144910000D01*
X76977500Y-144927500D02*
X76977500Y-144937500D01*
X85050000Y-144910000D02*
X85050000Y-146297500D01*
X75845000Y-144910000D02*
X75862500Y-144927500D01*
D28*
%TO.N,Net-(U1B--)*%
X70740000Y-143230000D02*
X68975000Y-141465000D01*
X69395000Y-139835000D02*
X70442500Y-139835000D01*
X68975000Y-141465000D02*
X68975000Y-140255000D01*
X68975000Y-140255000D02*
X69395000Y-139835000D01*
X70442500Y-138565000D02*
X70442500Y-139835000D01*
D31*
%TO.N,/CAN_N*%
X103285000Y-140515000D02*
X103290000Y-140510000D01*
X102250000Y-140515000D02*
X103285000Y-140515000D01*
X101840000Y-140925000D02*
X102250000Y-140515000D01*
X103525000Y-140745000D02*
X103290000Y-140510000D01*
X113445001Y-136604999D02*
X113445001Y-137373197D01*
X103525000Y-141197500D02*
X103525000Y-140745000D01*
X110308198Y-140510000D02*
X103290000Y-140510000D01*
X115990000Y-134060000D02*
X113445001Y-136604999D01*
X101165000Y-140925000D02*
X101840000Y-140925000D01*
X113445001Y-137373197D02*
X110308198Y-140510000D01*
%TO.N,Net-(U1A-+)*%
X61920000Y-139835000D02*
X60142500Y-139835000D01*
X60142500Y-139835000D02*
X53680000Y-146297500D01*
X53680000Y-140647500D02*
X53680000Y-146297500D01*
X61920000Y-139835000D02*
X65102500Y-139835000D01*
D28*
%TO.N,Net-(U1B-+)*%
X82550000Y-140647500D02*
X82550000Y-146297500D01*
X70442500Y-141105000D02*
X77357500Y-141105000D01*
X77357500Y-141105000D02*
X82550000Y-146297500D01*
%TO.N,GPIO3*%
X62070000Y-148910000D02*
X62070000Y-151000000D01*
X64827500Y-146152500D02*
X62070000Y-148910000D01*
X64827500Y-143205000D02*
X64827500Y-146152500D01*
D31*
%TO.N,/CAN_P*%
X112994999Y-136604999D02*
X112994999Y-137186803D01*
X110450000Y-134060000D02*
X112994999Y-136604999D01*
X110121802Y-140060000D02*
X103310000Y-140060000D01*
X103525000Y-139372500D02*
X103525000Y-139845000D01*
X101165000Y-139655000D02*
X101840000Y-139655000D01*
X101840000Y-139655000D02*
X102250000Y-140065000D01*
X112994999Y-137186803D02*
X110121802Y-140060000D01*
X102255000Y-140060000D02*
X102250000Y-140065000D01*
X103310000Y-140060000D02*
X102255000Y-140060000D01*
X103525000Y-139845000D02*
X103310000Y-140060000D01*
D28*
%TO.N,GPIO8*%
X64610000Y-149510000D02*
X64610000Y-151000000D01*
X68915000Y-144885000D02*
X64620000Y-149180000D01*
X64620000Y-149500000D02*
X64610000Y-149510000D01*
X68915000Y-143230000D02*
X68915000Y-144885000D01*
X64620000Y-149180000D02*
X64620000Y-149500000D01*
D31*
%TO.N,UART0N*%
X93860000Y-140515000D02*
X95540000Y-142195000D01*
X85033198Y-148825000D02*
X93343198Y-140515000D01*
X95540000Y-142195000D02*
X96215000Y-142195000D01*
X72501397Y-148825000D02*
X85033198Y-148825000D01*
X72230000Y-151000000D02*
X72230000Y-149096397D01*
X72230000Y-149096397D02*
X72501397Y-148825000D01*
X93343198Y-140515000D02*
X93860000Y-140515000D01*
%TO.N,UART0P*%
X95540000Y-138385000D02*
X96215000Y-138385000D01*
X72315000Y-148375000D02*
X84846802Y-148375000D01*
X69690000Y-151000000D02*
X72315000Y-148375000D01*
X84846802Y-148375000D02*
X93156802Y-140065000D01*
X93156802Y-140065000D02*
X93860000Y-140065000D01*
X93860000Y-140065000D02*
X95540000Y-138385000D01*
D28*
%TO.N,Net-(FB1-Pad2)*%
X53082500Y-132470000D02*
X51152500Y-134400000D01*
X53192500Y-132470000D02*
X53082500Y-132470000D01*
%TO.N,Net-(FB2-Pad2)*%
X79807500Y-134387500D02*
X79820000Y-134400000D01*
X81750000Y-132470000D02*
X79820000Y-134400000D01*
X81862500Y-132470000D02*
X81750000Y-132470000D01*
%TD*%
%TA.AperFunction,Conductor*%
%TO.N,GND*%
G36*
X67872779Y-143695131D02*
G01*
X67904384Y-143757444D01*
X67905831Y-143767505D01*
X67912501Y-143832797D01*
X67912501Y-143832799D01*
X67943883Y-143927501D01*
X67967686Y-143999334D01*
X68059788Y-144148656D01*
X68183844Y-144272712D01*
X68280597Y-144332389D01*
X68287419Y-144339974D01*
X68296703Y-144344214D01*
X68310390Y-144365512D01*
X68327321Y-144384335D01*
X68329965Y-144395971D01*
X68334477Y-144402992D01*
X68339500Y-144437927D01*
X68339500Y-144595257D01*
X68319815Y-144662296D01*
X68303181Y-144682938D01*
X64249193Y-148736925D01*
X64249194Y-148736926D01*
X64159485Y-148826635D01*
X64083719Y-148957863D01*
X64044500Y-149104234D01*
X64044500Y-149380588D01*
X64040275Y-149412680D01*
X64034500Y-149434232D01*
X64034500Y-149701542D01*
X64014815Y-149768581D01*
X63966796Y-149812026D01*
X63902182Y-149844949D01*
X63730213Y-149969890D01*
X63579890Y-150120213D01*
X63454949Y-150292182D01*
X63450484Y-150300946D01*
X63402509Y-150351742D01*
X63334688Y-150368536D01*
X63268553Y-150345998D01*
X63229516Y-150300946D01*
X63225050Y-150292182D01*
X63100109Y-150120213D01*
X62949786Y-149969890D01*
X62777817Y-149844949D01*
X62713204Y-149812026D01*
X62662408Y-149764051D01*
X62645500Y-149701542D01*
X62645500Y-149199742D01*
X62665185Y-149132703D01*
X62681819Y-149112061D01*
X63984739Y-147809141D01*
X65288015Y-146505865D01*
X65363781Y-146374635D01*
X65403000Y-146228266D01*
X65403000Y-146076733D01*
X65403000Y-144412927D01*
X65422685Y-144345888D01*
X65461901Y-144307390D01*
X65558656Y-144247712D01*
X65652319Y-144154049D01*
X65713642Y-144120564D01*
X65783334Y-144125548D01*
X65827681Y-144154049D01*
X65921344Y-144247712D01*
X66070666Y-144339814D01*
X66237203Y-144394999D01*
X66339991Y-144405500D01*
X66965008Y-144405499D01*
X66965016Y-144405498D01*
X66965019Y-144405498D01*
X67021708Y-144399707D01*
X67067797Y-144394999D01*
X67234334Y-144339814D01*
X67383656Y-144247712D01*
X67507712Y-144123656D01*
X67599814Y-143974334D01*
X67654999Y-143807797D01*
X67659115Y-143767504D01*
X67685511Y-143702814D01*
X67742691Y-143662662D01*
X67812502Y-143659798D01*
X67872779Y-143695131D01*
G37*
%TD.AperFunction*%
%TA.AperFunction,Conductor*%
G36*
X77134797Y-141700185D02*
G01*
X77155439Y-141716819D01*
X80048939Y-144610319D01*
X80082424Y-144671642D01*
X80077440Y-144741334D01*
X80035568Y-144797267D01*
X79970104Y-144821684D01*
X79961258Y-144822000D01*
X79402129Y-144822000D01*
X79402123Y-144822001D01*
X79342516Y-144828408D01*
X79207671Y-144878702D01*
X79207664Y-144878706D01*
X79092455Y-144964952D01*
X79092452Y-144964955D01*
X79006206Y-145080164D01*
X79006202Y-145080171D01*
X78955908Y-145215017D01*
X78950781Y-145262710D01*
X78949501Y-145274623D01*
X78949500Y-145274635D01*
X78949500Y-147320370D01*
X78949501Y-147320376D01*
X78955908Y-147379983D01*
X79006202Y-147514828D01*
X79006206Y-147514835D01*
X79052136Y-147576189D01*
X79076554Y-147641653D01*
X79061703Y-147709926D01*
X79012298Y-147759332D01*
X78952870Y-147774500D01*
X76878023Y-147774500D01*
X76810984Y-147754815D01*
X76765229Y-147702011D01*
X76755285Y-147632853D01*
X76784310Y-147569297D01*
X76790342Y-147562819D01*
X76887315Y-147465845D01*
X76979356Y-147316624D01*
X76979358Y-147316619D01*
X77034505Y-147150197D01*
X77034506Y-147150190D01*
X77044999Y-147047486D01*
X77045000Y-147047473D01*
X77045000Y-146985000D01*
X75969000Y-146985000D01*
X75901961Y-146965315D01*
X75856206Y-146912511D01*
X75845000Y-146861000D01*
X75845000Y-146609000D01*
X75864685Y-146541961D01*
X75917489Y-146496206D01*
X75969000Y-146485000D01*
X77044999Y-146485000D01*
X77044999Y-146422528D01*
X77044998Y-146422513D01*
X77034505Y-146319802D01*
X76979358Y-146153380D01*
X76979356Y-146153375D01*
X76887315Y-146004154D01*
X76832842Y-145949681D01*
X76799357Y-145888358D01*
X76804341Y-145818666D01*
X76846213Y-145762733D01*
X76911677Y-145738316D01*
X76920523Y-145738000D01*
X77056344Y-145738000D01*
X77056345Y-145737999D01*
X77210997Y-145707237D01*
X77356679Y-145646894D01*
X77487789Y-145559289D01*
X77599289Y-145447789D01*
X77686894Y-145316679D01*
X77690004Y-145309172D01*
X77709248Y-145262712D01*
X77747237Y-145170997D01*
X77778000Y-145016342D01*
X77778000Y-144858658D01*
X77778000Y-144858655D01*
X77777999Y-144858653D01*
X77767054Y-144803628D01*
X77747237Y-144704003D01*
X77746618Y-144702509D01*
X77686897Y-144558327D01*
X77686890Y-144558314D01*
X77599289Y-144427211D01*
X77599286Y-144427207D01*
X77487792Y-144315713D01*
X77487788Y-144315710D01*
X77356685Y-144228109D01*
X77356672Y-144228102D01*
X77211001Y-144167764D01*
X77210989Y-144167761D01*
X77056345Y-144137000D01*
X77056342Y-144137000D01*
X76898658Y-144137000D01*
X76897230Y-144137000D01*
X76830191Y-144117315D01*
X76809549Y-144100681D01*
X76763657Y-144054789D01*
X76763656Y-144054788D01*
X76670888Y-143997569D01*
X76614336Y-143962687D01*
X76614331Y-143962685D01*
X76560961Y-143945000D01*
X76447797Y-143907501D01*
X76447795Y-143907500D01*
X76345010Y-143897000D01*
X75344998Y-143897000D01*
X75344980Y-143897001D01*
X75242203Y-143907500D01*
X75242200Y-143907501D01*
X75075668Y-143962685D01*
X75075663Y-143962687D01*
X74926342Y-144054789D01*
X74911431Y-144069701D01*
X74850108Y-144103186D01*
X74780416Y-144098202D01*
X74745243Y-144075597D01*
X74744319Y-144076766D01*
X74738658Y-144072290D01*
X74738656Y-144072288D01*
X74620373Y-143999331D01*
X74589336Y-143980187D01*
X74589331Y-143980185D01*
X74571665Y-143974331D01*
X74422797Y-143925001D01*
X74422795Y-143925000D01*
X74320010Y-143914500D01*
X73319998Y-143914500D01*
X73319980Y-143914501D01*
X73217203Y-143925000D01*
X73217200Y-143925001D01*
X73050668Y-143980185D01*
X73050663Y-143980187D01*
X72901342Y-144072289D01*
X72777289Y-144196342D01*
X72685187Y-144345663D01*
X72685185Y-144345668D01*
X72667277Y-144399711D01*
X72630001Y-144512203D01*
X72630001Y-144512204D01*
X72630000Y-144512204D01*
X72619500Y-144614983D01*
X72619500Y-145240001D01*
X72619501Y-145240019D01*
X72630000Y-145342796D01*
X72630001Y-145342799D01*
X72664792Y-145447789D01*
X72685186Y-145509334D01*
X72770033Y-145646894D01*
X72777289Y-145658657D01*
X72843332Y-145724700D01*
X72876817Y-145786023D01*
X72871833Y-145855715D01*
X72829961Y-145911648D01*
X72764497Y-145936065D01*
X72731462Y-145933999D01*
X72708842Y-145929500D01*
X72551158Y-145929500D01*
X72551155Y-145929500D01*
X72396510Y-145960261D01*
X72396498Y-145960264D01*
X72250827Y-146020602D01*
X72250814Y-146020609D01*
X72119711Y-146108210D01*
X72119707Y-146108213D01*
X72008213Y-146219707D01*
X72008210Y-146219711D01*
X71920609Y-146350814D01*
X71920602Y-146350827D01*
X71860264Y-146496498D01*
X71860261Y-146496510D01*
X71829500Y-146651153D01*
X71829500Y-146808846D01*
X71860261Y-146963489D01*
X71860264Y-146963501D01*
X71920602Y-147109172D01*
X71920609Y-147109185D01*
X72008210Y-147240288D01*
X72008213Y-147240292D01*
X72119707Y-147351786D01*
X72119711Y-147351789D01*
X72250814Y-147439390D01*
X72250827Y-147439397D01*
X72362964Y-147485845D01*
X72396503Y-147499737D01*
X72396507Y-147499737D01*
X72396508Y-147499738D01*
X72543026Y-147528883D01*
X72563599Y-147539644D01*
X72585873Y-147546185D01*
X72593972Y-147555532D01*
X72604937Y-147561268D01*
X72616427Y-147581446D01*
X72631628Y-147598989D01*
X72633388Y-147611231D01*
X72639511Y-147621984D01*
X72638268Y-147645169D01*
X72641572Y-147668147D01*
X72636433Y-147679399D01*
X72635771Y-147691753D01*
X72622191Y-147710583D01*
X72612547Y-147731703D01*
X72602139Y-147738391D01*
X72594904Y-147748425D01*
X72573301Y-147756924D01*
X72553769Y-147769477D01*
X72534272Y-147772280D01*
X72529886Y-147774006D01*
X72518834Y-147774500D01*
X72401670Y-147774500D01*
X72401654Y-147774499D01*
X72394058Y-147774499D01*
X72235943Y-147774499D01*
X72159579Y-147794961D01*
X72083214Y-147815423D01*
X72083209Y-147815426D01*
X71946290Y-147894475D01*
X71946282Y-147894481D01*
X70174522Y-149666241D01*
X70113199Y-149699726D01*
X70048523Y-149696491D01*
X70006245Y-149682754D01*
X69866272Y-149660584D01*
X69796287Y-149649500D01*
X69583713Y-149649500D01*
X69535042Y-149657208D01*
X69373760Y-149682753D01*
X69171585Y-149748444D01*
X68982179Y-149844951D01*
X68810213Y-149969890D01*
X68659890Y-150120213D01*
X68534949Y-150292182D01*
X68530484Y-150300946D01*
X68482509Y-150351742D01*
X68414688Y-150368536D01*
X68348553Y-150345998D01*
X68309516Y-150300946D01*
X68305050Y-150292182D01*
X68180109Y-150120213D01*
X68029786Y-149969890D01*
X67857820Y-149844951D01*
X67668414Y-149748444D01*
X67668413Y-149748443D01*
X67668412Y-149748443D01*
X67466243Y-149682754D01*
X67466241Y-149682753D01*
X67466240Y-149682753D01*
X67304957Y-149657208D01*
X67256287Y-149649500D01*
X67043713Y-149649500D01*
X66995042Y-149657208D01*
X66833760Y-149682753D01*
X66631585Y-149748444D01*
X66442179Y-149844951D01*
X66270213Y-149969890D01*
X66119890Y-150120213D01*
X65994949Y-150292182D01*
X65990484Y-150300946D01*
X65942509Y-150351742D01*
X65874688Y-150368536D01*
X65808553Y-150345998D01*
X65769516Y-150300946D01*
X65765050Y-150292182D01*
X65640109Y-150120213D01*
X65489786Y-149969890D01*
X65317817Y-149844949D01*
X65253204Y-149812026D01*
X65242140Y-149801577D01*
X65228297Y-149795255D01*
X65217255Y-149778073D01*
X65202408Y-149764051D01*
X65198166Y-149748370D01*
X65190523Y-149736477D01*
X65185500Y-149701542D01*
X65185500Y-149629412D01*
X65189725Y-149597319D01*
X65195500Y-149575767D01*
X65195500Y-149469740D01*
X65215185Y-149402701D01*
X65231814Y-149382064D01*
X69258155Y-145355722D01*
X69258160Y-145355719D01*
X69268363Y-145345515D01*
X69268365Y-145345515D01*
X69375515Y-145238365D01*
X69451281Y-145107135D01*
X69481577Y-144994069D01*
X69490500Y-144960767D01*
X69490500Y-144809234D01*
X69490500Y-144437927D01*
X69510185Y-144370888D01*
X69549401Y-144332390D01*
X69646156Y-144272712D01*
X69739819Y-144179049D01*
X69801142Y-144145564D01*
X69870834Y-144150548D01*
X69915181Y-144179049D01*
X70008844Y-144272712D01*
X70158166Y-144364814D01*
X70324703Y-144419999D01*
X70427491Y-144430500D01*
X71052508Y-144430499D01*
X71052516Y-144430498D01*
X71052519Y-144430498D01*
X71108802Y-144424748D01*
X71155297Y-144419999D01*
X71321834Y-144364814D01*
X71471156Y-144272712D01*
X71595212Y-144148656D01*
X71687314Y-143999334D01*
X71742499Y-143832797D01*
X71753000Y-143730009D01*
X71752999Y-142729992D01*
X71742499Y-142627203D01*
X71687314Y-142460666D01*
X71595212Y-142311344D01*
X71471156Y-142187288D01*
X71324211Y-142096652D01*
X71277488Y-142044705D01*
X71266265Y-141975742D01*
X71294109Y-141911660D01*
X71341855Y-141876554D01*
X71447728Y-141832700D01*
X71447729Y-141832700D01*
X71447729Y-141832699D01*
X71447733Y-141832698D01*
X71567951Y-141740451D01*
X71576729Y-141729011D01*
X71633157Y-141687810D01*
X71675103Y-141680500D01*
X77067758Y-141680500D01*
X77134797Y-141700185D01*
G37*
%TD.AperFunction*%
%TA.AperFunction,Conductor*%
G36*
X88434043Y-115500765D02*
G01*
X88682895Y-115517075D01*
X88698953Y-115519190D01*
X88906105Y-115560395D01*
X88939535Y-115567045D01*
X88955202Y-115571243D01*
X89124947Y-115628863D01*
X89187481Y-115650091D01*
X89202458Y-115656294D01*
X89411799Y-115759529D01*
X89422460Y-115764787D01*
X89436508Y-115772897D01*
X89640464Y-115909177D01*
X89653328Y-115919048D01*
X89837749Y-116080781D01*
X89849218Y-116092250D01*
X90010951Y-116276671D01*
X90020825Y-116289539D01*
X90157102Y-116493492D01*
X90165212Y-116507539D01*
X90273702Y-116727534D01*
X90279909Y-116742520D01*
X90358756Y-116974797D01*
X90362954Y-116990464D01*
X90410807Y-117231035D01*
X90412925Y-117247116D01*
X90429235Y-117495956D01*
X90429500Y-117504066D01*
X90429500Y-123698737D01*
X90429499Y-123698755D01*
X90429499Y-123720845D01*
X90429466Y-123720957D01*
X90429468Y-123929485D01*
X90429469Y-123929490D01*
X90462347Y-124242266D01*
X90462348Y-124242270D01*
X90527737Y-124549885D01*
X90527737Y-124549888D01*
X90624931Y-124849007D01*
X90752842Y-125136296D01*
X90752849Y-125136308D01*
X90910101Y-125408671D01*
X91094962Y-125663106D01*
X91094964Y-125663108D01*
X91094965Y-125663110D01*
X91305404Y-125896823D01*
X91539120Y-126107259D01*
X91539122Y-126107261D01*
X91539125Y-126107263D01*
X91793562Y-126292120D01*
X92065928Y-126449369D01*
X92353238Y-126577287D01*
X92452940Y-126609682D01*
X92652331Y-126674468D01*
X92652337Y-126674469D01*
X92652345Y-126674472D01*
X92959973Y-126739859D01*
X93272750Y-126772733D01*
X93364108Y-126772733D01*
X127434108Y-126772733D01*
X127495933Y-126772733D01*
X127504043Y-126772998D01*
X127752893Y-126789308D01*
X127768951Y-126791423D01*
X128009542Y-126839280D01*
X128025186Y-126843472D01*
X128257474Y-126922324D01*
X128272456Y-126928529D01*
X128492462Y-127037025D01*
X128506481Y-127045118D01*
X128710452Y-127181410D01*
X128723316Y-127191281D01*
X128907734Y-127353013D01*
X128919204Y-127364483D01*
X129080933Y-127548902D01*
X129090807Y-127561770D01*
X129227082Y-127765723D01*
X129235192Y-127779770D01*
X129343678Y-127999764D01*
X129349885Y-128014749D01*
X129428731Y-128247026D01*
X129432929Y-128262695D01*
X129480778Y-128503268D01*
X129482895Y-128519348D01*
X129499234Y-128768675D01*
X129499499Y-128776784D01*
X129499499Y-128848105D01*
X129499500Y-128848118D01*
X129499500Y-155210535D01*
X129479815Y-155277574D01*
X129427011Y-155323329D01*
X129357853Y-155333273D01*
X129302615Y-155310853D01*
X129136433Y-155190115D01*
X129136428Y-155190112D01*
X128864075Y-155032869D01*
X128864068Y-155032866D01*
X128576759Y-154904947D01*
X128576754Y-154904945D01*
X128576751Y-154904944D01*
X128277649Y-154807761D01*
X128277647Y-154807760D01*
X128012415Y-154751384D01*
X127970026Y-154742374D01*
X127657250Y-154709500D01*
X127565892Y-154709500D01*
X42565892Y-154709500D01*
X42500000Y-154709500D01*
X42342750Y-154709500D01*
X42029974Y-154742374D01*
X42029970Y-154742374D01*
X42029968Y-154742375D01*
X41722352Y-154807760D01*
X41722350Y-154807761D01*
X41423248Y-154904944D01*
X41135931Y-155032866D01*
X41135924Y-155032869D01*
X40863571Y-155190112D01*
X40863566Y-155190115D01*
X40697385Y-155310853D01*
X40631579Y-155334333D01*
X40563525Y-155318507D01*
X40514830Y-155268401D01*
X40500500Y-155210535D01*
X40500500Y-144624983D01*
X44169500Y-144624983D01*
X44169500Y-145250001D01*
X44169501Y-145250019D01*
X44180000Y-145352796D01*
X44180001Y-145352799D01*
X44235185Y-145519331D01*
X44235187Y-145519336D01*
X44327289Y-145668657D01*
X44420951Y-145762319D01*
X44454436Y-145823642D01*
X44449452Y-145893334D01*
X44420951Y-145937681D01*
X44327289Y-146031342D01*
X44235187Y-146180663D01*
X44235185Y-146180668D01*
X44219413Y-146228265D01*
X44180001Y-146347203D01*
X44180001Y-146347204D01*
X44180000Y-146347204D01*
X44169500Y-146449983D01*
X44169500Y-147075001D01*
X44169501Y-147075019D01*
X44180000Y-147177796D01*
X44180001Y-147177799D01*
X44226002Y-147316619D01*
X44235186Y-147344334D01*
X44327288Y-147493656D01*
X44451344Y-147617712D01*
X44590597Y-147703603D01*
X44637321Y-147755549D01*
X44649500Y-147809141D01*
X44649500Y-148941006D01*
X44649500Y-149078994D01*
X44649500Y-149078996D01*
X44649499Y-149078996D01*
X44676418Y-149214322D01*
X44676421Y-149214332D01*
X44729222Y-149341807D01*
X44805887Y-149456545D01*
X49383454Y-154034112D01*
X49498192Y-154110777D01*
X49625667Y-154163578D01*
X49625672Y-154163580D01*
X49625676Y-154163580D01*
X49625677Y-154163581D01*
X49761003Y-154190500D01*
X49761006Y-154190500D01*
X49761007Y-154190500D01*
X82444684Y-154190500D01*
X82492136Y-154199939D01*
X82636498Y-154259735D01*
X82636503Y-154259737D01*
X82791153Y-154290499D01*
X82791156Y-154290500D01*
X82791158Y-154290500D01*
X82948844Y-154290500D01*
X82948845Y-154290499D01*
X83103497Y-154259737D01*
X83178963Y-154228478D01*
X83247864Y-154199939D01*
X83295316Y-154190500D01*
X110128996Y-154190500D01*
X110220040Y-154172389D01*
X110264328Y-154163580D01*
X110328069Y-154137177D01*
X110391807Y-154110777D01*
X110391808Y-154110776D01*
X110391811Y-154110775D01*
X110506543Y-154034114D01*
X110874114Y-153666543D01*
X110950775Y-153551811D01*
X111003580Y-153424328D01*
X111030500Y-153288994D01*
X111030500Y-153151006D01*
X111030500Y-152474499D01*
X111050185Y-152407460D01*
X111102989Y-152361705D01*
X111154500Y-152350499D01*
X111227871Y-152350499D01*
X111227872Y-152350499D01*
X111287483Y-152344091D01*
X111422331Y-152293796D01*
X111537546Y-152207546D01*
X111623796Y-152092331D01*
X111674091Y-151957483D01*
X111680500Y-151897873D01*
X111680499Y-150102128D01*
X111674091Y-150042517D01*
X111672810Y-150039083D01*
X111623797Y-149907671D01*
X111623793Y-149907664D01*
X111537547Y-149792455D01*
X111537544Y-149792452D01*
X111422335Y-149706206D01*
X111422328Y-149706202D01*
X111287482Y-149655908D01*
X111287483Y-149655908D01*
X111227883Y-149649501D01*
X111227881Y-149649500D01*
X111227873Y-149649500D01*
X111227865Y-149649500D01*
X110021519Y-149649500D01*
X109954480Y-149629815D01*
X109933838Y-149613181D01*
X103971546Y-143650888D01*
X103971545Y-143650887D01*
X103856807Y-143574222D01*
X103729332Y-143521421D01*
X103729322Y-143521418D01*
X103593996Y-143494500D01*
X103593994Y-143494500D01*
X103593993Y-143494500D01*
X102220449Y-143494500D01*
X102153410Y-143474815D01*
X102107655Y-143422011D01*
X102102744Y-143409507D01*
X102099814Y-143400667D01*
X102099814Y-143400666D01*
X102007712Y-143251344D01*
X101963549Y-143207181D01*
X101930064Y-143145858D01*
X101935048Y-143076166D01*
X101976920Y-143020233D01*
X102042384Y-142995816D01*
X102051230Y-142995500D01*
X102055686Y-142995500D01*
X102055694Y-142995500D01*
X102092569Y-142992598D01*
X102092571Y-142992597D01*
X102092573Y-142992597D01*
X102159736Y-142973084D01*
X102250398Y-142946744D01*
X102391865Y-142863081D01*
X102508081Y-142746865D01*
X102591744Y-142605398D01*
X102637598Y-142447569D01*
X102640500Y-142410694D01*
X102640500Y-142278371D01*
X102660185Y-142211332D01*
X102712989Y-142165577D01*
X102782147Y-142155633D01*
X102803493Y-142160662D01*
X102922203Y-142199999D01*
X103024991Y-142210500D01*
X104025008Y-142210499D01*
X104025016Y-142210498D01*
X104025019Y-142210498D01*
X104098399Y-142203002D01*
X104127797Y-142199999D01*
X104294334Y-142144814D01*
X104443656Y-142052712D01*
X104567712Y-141928656D01*
X104659814Y-141779334D01*
X104714999Y-141612797D01*
X104725500Y-141510009D01*
X104725499Y-141234498D01*
X104745183Y-141167461D01*
X104797987Y-141121706D01*
X104849499Y-141110500D01*
X110221529Y-141110500D01*
X110221545Y-141110501D01*
X110229141Y-141110501D01*
X110387252Y-141110501D01*
X110387255Y-141110501D01*
X110539983Y-141069577D01*
X110590102Y-141040639D01*
X110676914Y-140990520D01*
X110788718Y-140878716D01*
X110788718Y-140878714D01*
X110798926Y-140868507D01*
X110798928Y-140868504D01*
X113803507Y-137863925D01*
X113803512Y-137863921D01*
X113813715Y-137853717D01*
X113813717Y-137853717D01*
X113925521Y-137741913D01*
X114004578Y-137604981D01*
X114034535Y-137493178D01*
X114045501Y-137452255D01*
X114045501Y-137294140D01*
X114045501Y-136905095D01*
X114065186Y-136838056D01*
X114081815Y-136817419D01*
X115545158Y-135354075D01*
X115606479Y-135320592D01*
X115671151Y-135323825D01*
X115685466Y-135328477D01*
X115887648Y-135360500D01*
X115887649Y-135360500D01*
X116092351Y-135360500D01*
X116092352Y-135360500D01*
X116294534Y-135328477D01*
X116489219Y-135265220D01*
X116671610Y-135172287D01*
X116768234Y-135102086D01*
X116837213Y-135051971D01*
X116837215Y-135051968D01*
X116837219Y-135051966D01*
X116981966Y-134907219D01*
X116981968Y-134907215D01*
X116981971Y-134907213D01*
X117092549Y-134755013D01*
X117102287Y-134741610D01*
X117195220Y-134559219D01*
X117258477Y-134364534D01*
X117290500Y-134162352D01*
X117290500Y-133957648D01*
X117269346Y-133824089D01*
X117258477Y-133755465D01*
X117216593Y-133626560D01*
X117195220Y-133560781D01*
X117195218Y-133560778D01*
X117195218Y-133560776D01*
X117151859Y-133475681D01*
X117102287Y-133378390D01*
X117086956Y-133357288D01*
X116981971Y-133212786D01*
X116837213Y-133068028D01*
X116671613Y-132947715D01*
X116671612Y-132947714D01*
X116671610Y-132947713D01*
X116583487Y-132902812D01*
X116489223Y-132854781D01*
X116294534Y-132791522D01*
X116119995Y-132763878D01*
X116092352Y-132759500D01*
X115887648Y-132759500D01*
X115863329Y-132763351D01*
X115685465Y-132791522D01*
X115490776Y-132854781D01*
X115308386Y-132947715D01*
X115142786Y-133068028D01*
X114998028Y-133212786D01*
X114877715Y-133378386D01*
X114784781Y-133560776D01*
X114722931Y-133751131D01*
X114683493Y-133808806D01*
X114619134Y-133836004D01*
X114550288Y-133824089D01*
X114498812Y-133776845D01*
X114487069Y-133751131D01*
X114435618Y-133592784D01*
X114425220Y-133560781D01*
X114425218Y-133560778D01*
X114425218Y-133560776D01*
X114381859Y-133475681D01*
X114332287Y-133378390D01*
X114316956Y-133357288D01*
X114211971Y-133212786D01*
X114067213Y-133068028D01*
X113901613Y-132947715D01*
X113901612Y-132947714D01*
X113901610Y-132947713D01*
X113813487Y-132902812D01*
X113719223Y-132854781D01*
X113524534Y-132791522D01*
X113349995Y-132763878D01*
X113322352Y-132759500D01*
X113117648Y-132759500D01*
X113093329Y-132763351D01*
X112915465Y-132791522D01*
X112720776Y-132854781D01*
X112538386Y-132947715D01*
X112372786Y-133068028D01*
X112228028Y-133212786D01*
X112107715Y-133378386D01*
X112014781Y-133560776D01*
X111952931Y-133751131D01*
X111913493Y-133808806D01*
X111849134Y-133836004D01*
X111780288Y-133824089D01*
X111728812Y-133776845D01*
X111717069Y-133751131D01*
X111665618Y-133592784D01*
X111655220Y-133560781D01*
X111655218Y-133560778D01*
X111655218Y-133560776D01*
X111611859Y-133475681D01*
X111562287Y-133378390D01*
X111546956Y-133357288D01*
X111441971Y-133212786D01*
X111297213Y-133068028D01*
X111131613Y-132947715D01*
X111131612Y-132947714D01*
X111131610Y-132947713D01*
X111043487Y-132902812D01*
X110949223Y-132854781D01*
X110754534Y-132791522D01*
X110579995Y-132763878D01*
X110552352Y-132759500D01*
X110347648Y-132759500D01*
X110323329Y-132763351D01*
X110145465Y-132791522D01*
X109950776Y-132854781D01*
X109768386Y-132947715D01*
X109602786Y-133068028D01*
X109458028Y-133212786D01*
X109337715Y-133378386D01*
X109244781Y-133560776D01*
X109182931Y-133751131D01*
X109143493Y-133808806D01*
X109079134Y-133836004D01*
X109010288Y-133824089D01*
X108958812Y-133776845D01*
X108947069Y-133751131D01*
X108895618Y-133592784D01*
X108885220Y-133560781D01*
X108885218Y-133560778D01*
X108885218Y-133560776D01*
X108841859Y-133475681D01*
X108792287Y-133378390D01*
X108776956Y-133357288D01*
X108671971Y-133212786D01*
X108527213Y-133068028D01*
X108361613Y-132947715D01*
X108361612Y-132947714D01*
X108361610Y-132947713D01*
X108273487Y-132902812D01*
X108179223Y-132854781D01*
X107984534Y-132791522D01*
X107809995Y-132763878D01*
X107782352Y-132759500D01*
X107577648Y-132759500D01*
X107553329Y-132763351D01*
X107375465Y-132791522D01*
X107180776Y-132854781D01*
X106998386Y-132947715D01*
X106832786Y-133068028D01*
X106688028Y-133212786D01*
X106567715Y-133378386D01*
X106474781Y-133560776D01*
X106451931Y-133631103D01*
X106412493Y-133688778D01*
X106348134Y-133715976D01*
X106279288Y-133704061D01*
X106227812Y-133656816D01*
X106210000Y-133592784D01*
X106210000Y-133212172D01*
X106209999Y-133212155D01*
X106203598Y-133152627D01*
X106203596Y-133152620D01*
X106153354Y-133017913D01*
X106153350Y-133017906D01*
X106067190Y-132902812D01*
X106067187Y-132902809D01*
X105952093Y-132816649D01*
X105952086Y-132816645D01*
X105817379Y-132766403D01*
X105817372Y-132766401D01*
X105757844Y-132760000D01*
X105160000Y-132760000D01*
X105160000Y-133626988D01*
X105102993Y-133594075D01*
X104975826Y-133560000D01*
X104844174Y-133560000D01*
X104717007Y-133594075D01*
X104660000Y-133626988D01*
X104660000Y-132760000D01*
X104062155Y-132760000D01*
X104002627Y-132766401D01*
X104002620Y-132766403D01*
X103867913Y-132816645D01*
X103867906Y-132816649D01*
X103752812Y-132902809D01*
X103752809Y-132902812D01*
X103666649Y-133017906D01*
X103666645Y-133017913D01*
X103616403Y-133152620D01*
X103616401Y-133152627D01*
X103610000Y-133212155D01*
X103610000Y-133810000D01*
X104476988Y-133810000D01*
X104444075Y-133867007D01*
X104410000Y-133994174D01*
X104410000Y-134125826D01*
X104444075Y-134252993D01*
X104476988Y-134310000D01*
X103610000Y-134310000D01*
X103610000Y-134907844D01*
X103616401Y-134967372D01*
X103616403Y-134967379D01*
X103666645Y-135102086D01*
X103666649Y-135102093D01*
X103752809Y-135217187D01*
X103752812Y-135217190D01*
X103867906Y-135303350D01*
X103867913Y-135303354D01*
X104002620Y-135353596D01*
X104002627Y-135353598D01*
X104062155Y-135359999D01*
X104062172Y-135360000D01*
X104660000Y-135360000D01*
X104660000Y-134493012D01*
X104717007Y-134525925D01*
X104844174Y-134560000D01*
X104975826Y-134560000D01*
X105102993Y-134525925D01*
X105160000Y-134493012D01*
X105160000Y-135360000D01*
X105757828Y-135360000D01*
X105757844Y-135359999D01*
X105817372Y-135353598D01*
X105817379Y-135353596D01*
X105952086Y-135303354D01*
X105952093Y-135303350D01*
X106067187Y-135217190D01*
X106067190Y-135217187D01*
X106153350Y-135102093D01*
X106153354Y-135102086D01*
X106203596Y-134967379D01*
X106203598Y-134967372D01*
X106209999Y-134907844D01*
X106210000Y-134907827D01*
X106210000Y-134527215D01*
X106229685Y-134460176D01*
X106282489Y-134414421D01*
X106351647Y-134404477D01*
X106415203Y-134433502D01*
X106451931Y-134488896D01*
X106474781Y-134559223D01*
X106567715Y-134741613D01*
X106688028Y-134907213D01*
X106832786Y-135051971D01*
X106987749Y-135164556D01*
X106998390Y-135172287D01*
X107086517Y-135217190D01*
X107180776Y-135265218D01*
X107180778Y-135265218D01*
X107180781Y-135265220D01*
X107285137Y-135299127D01*
X107375465Y-135328477D01*
X107425287Y-135336368D01*
X107577648Y-135360500D01*
X107577649Y-135360500D01*
X107782351Y-135360500D01*
X107782352Y-135360500D01*
X107984534Y-135328477D01*
X108179219Y-135265220D01*
X108361610Y-135172287D01*
X108458234Y-135102086D01*
X108527213Y-135051971D01*
X108527215Y-135051968D01*
X108527219Y-135051966D01*
X108671966Y-134907219D01*
X108671968Y-134907215D01*
X108671971Y-134907213D01*
X108782549Y-134755013D01*
X108792287Y-134741610D01*
X108885220Y-134559219D01*
X108947069Y-134368868D01*
X108986507Y-134311193D01*
X109050866Y-134283995D01*
X109119712Y-134295910D01*
X109171188Y-134343154D01*
X109182931Y-134368868D01*
X109244781Y-134559223D01*
X109337715Y-134741613D01*
X109458028Y-134907213D01*
X109602786Y-135051971D01*
X109757749Y-135164556D01*
X109768390Y-135172287D01*
X109856517Y-135217190D01*
X109950776Y-135265218D01*
X109950778Y-135265218D01*
X109950781Y-135265220D01*
X110055137Y-135299127D01*
X110145465Y-135328477D01*
X110195287Y-135336368D01*
X110347648Y-135360500D01*
X110347649Y-135360500D01*
X110552351Y-135360500D01*
X110552352Y-135360500D01*
X110754534Y-135328477D01*
X110768842Y-135323827D01*
X110838682Y-135321831D01*
X110894842Y-135354077D01*
X112348985Y-136808220D01*
X112382470Y-136869543D01*
X112377486Y-136939235D01*
X112348985Y-136983582D01*
X109909386Y-139423181D01*
X109848063Y-139456666D01*
X109821705Y-139459500D01*
X104849500Y-139459500D01*
X104782461Y-139439815D01*
X104736706Y-139387011D01*
X104725500Y-139335500D01*
X104725499Y-139059999D01*
X104725498Y-139059980D01*
X104714999Y-138957203D01*
X104714998Y-138957200D01*
X104697447Y-138904234D01*
X104659814Y-138790666D01*
X104567712Y-138641344D01*
X104443656Y-138517288D01*
X104350888Y-138460069D01*
X104294336Y-138425187D01*
X104294331Y-138425185D01*
X104247887Y-138409795D01*
X104127797Y-138370001D01*
X104127795Y-138370000D01*
X104025010Y-138359500D01*
X103024998Y-138359500D01*
X103024980Y-138359501D01*
X102922203Y-138370000D01*
X102922200Y-138370001D01*
X102755668Y-138425185D01*
X102755663Y-138425187D01*
X102606342Y-138517289D01*
X102524951Y-138598681D01*
X102463628Y-138632166D01*
X102437270Y-138635000D01*
X99692705Y-138635000D01*
X99692704Y-138635001D01*
X99692899Y-138637486D01*
X99738718Y-138795198D01*
X99822314Y-138936552D01*
X99827100Y-138942722D01*
X99824640Y-138944629D01*
X99851210Y-138993288D01*
X99846226Y-139062980D01*
X99825162Y-139095781D01*
X99826699Y-139096974D01*
X99821915Y-139103140D01*
X99738255Y-139244603D01*
X99738254Y-139244606D01*
X99692402Y-139402426D01*
X99692401Y-139402432D01*
X99689500Y-139439298D01*
X99689500Y-139870701D01*
X99692401Y-139907567D01*
X99692402Y-139907573D01*
X99738254Y-140065393D01*
X99738255Y-140065396D01*
X99821917Y-140206862D01*
X99826702Y-140213031D01*
X99824256Y-140214927D01*
X99850857Y-140263642D01*
X99845873Y-140333334D01*
X99825069Y-140365703D01*
X99826702Y-140366969D01*
X99821917Y-140373137D01*
X99738255Y-140514603D01*
X99738254Y-140514606D01*
X99692402Y-140672426D01*
X99692401Y-140672432D01*
X99689500Y-140709298D01*
X99689500Y-141140701D01*
X99692401Y-141177567D01*
X99692402Y-141177573D01*
X99738254Y-141335393D01*
X99738255Y-141335396D01*
X99738256Y-141335398D01*
X99770094Y-141389234D01*
X99821917Y-141476862D01*
X99826702Y-141483031D01*
X99824256Y-141484927D01*
X99850857Y-141533642D01*
X99845873Y-141603334D01*
X99825069Y-141635703D01*
X99826702Y-141636969D01*
X99821917Y-141643137D01*
X99738255Y-141784603D01*
X99738254Y-141784606D01*
X99692402Y-141942426D01*
X99692401Y-141942432D01*
X99689500Y-141979298D01*
X99689500Y-142410701D01*
X99692401Y-142447567D01*
X99692402Y-142447573D01*
X99738254Y-142605393D01*
X99738255Y-142605396D01*
X99738256Y-142605398D01*
X99751152Y-142627204D01*
X99821917Y-142746862D01*
X99821923Y-142746870D01*
X99877804Y-142802751D01*
X99911289Y-142864074D01*
X99906305Y-142933766D01*
X99864433Y-142989699D01*
X99798969Y-143014116D01*
X99751119Y-143008138D01*
X99667697Y-142980494D01*
X99667690Y-142980493D01*
X99564986Y-142970000D01*
X99515000Y-142970000D01*
X99515000Y-145419999D01*
X99564972Y-145419999D01*
X99564986Y-145419998D01*
X99667697Y-145409505D01*
X99834119Y-145354358D01*
X99834124Y-145354356D01*
X99983345Y-145262315D01*
X100107318Y-145138342D01*
X100109165Y-145135348D01*
X100110969Y-145133724D01*
X100111798Y-145132677D01*
X100111976Y-145132818D01*
X100161110Y-145088621D01*
X100230073Y-145077396D01*
X100294156Y-145105236D01*
X100320243Y-145135341D01*
X100322288Y-145138656D01*
X100446344Y-145262712D01*
X100595666Y-145354814D01*
X100762203Y-145409999D01*
X100864991Y-145420500D01*
X101465008Y-145420499D01*
X101465016Y-145420498D01*
X101465019Y-145420498D01*
X101521302Y-145414748D01*
X101567797Y-145409999D01*
X101734334Y-145354814D01*
X101883656Y-145262712D01*
X102007712Y-145138656D01*
X102099814Y-144989334D01*
X102101757Y-144983468D01*
X102102744Y-144980493D01*
X102142518Y-144923049D01*
X102207035Y-144896228D01*
X102220449Y-144895500D01*
X103183481Y-144895500D01*
X103250520Y-144915185D01*
X103271162Y-144931819D01*
X107777162Y-149437819D01*
X107810647Y-149499142D01*
X107805663Y-149568834D01*
X107763791Y-149624767D01*
X107698327Y-149649184D01*
X107689481Y-149649500D01*
X107683713Y-149649500D01*
X107635042Y-149657208D01*
X107473760Y-149682753D01*
X107271585Y-149748444D01*
X107082179Y-149844951D01*
X106910213Y-149969890D01*
X106759890Y-150120213D01*
X106634949Y-150292182D01*
X106630202Y-150301499D01*
X106582227Y-150352293D01*
X106514405Y-150369087D01*
X106448271Y-150346548D01*
X106409234Y-150301495D01*
X106404626Y-150292452D01*
X106365270Y-150238282D01*
X106365269Y-150238282D01*
X105732962Y-150870590D01*
X105715925Y-150807007D01*
X105650099Y-150692993D01*
X105557007Y-150599901D01*
X105442993Y-150534075D01*
X105379409Y-150517037D01*
X106011716Y-149884728D01*
X105957550Y-149845375D01*
X105768217Y-149748904D01*
X105566129Y-149683242D01*
X105356246Y-149650000D01*
X105143754Y-149650000D01*
X104933872Y-149683242D01*
X104933869Y-149683242D01*
X104731782Y-149748904D01*
X104542439Y-149845380D01*
X104488282Y-149884727D01*
X104488282Y-149884728D01*
X105120591Y-150517037D01*
X105057007Y-150534075D01*
X104942993Y-150599901D01*
X104849901Y-150692993D01*
X104784075Y-150807007D01*
X104767037Y-150870591D01*
X104134728Y-150238282D01*
X104134727Y-150238282D01*
X104095380Y-150292440D01*
X104095376Y-150292446D01*
X104090760Y-150301505D01*
X104042781Y-150352297D01*
X103974959Y-150369087D01*
X103908826Y-150346543D01*
X103869794Y-150301493D01*
X103865051Y-150292184D01*
X103865049Y-150292181D01*
X103865048Y-150292179D01*
X103740109Y-150120213D01*
X103589786Y-149969890D01*
X103417820Y-149844951D01*
X103228414Y-149748444D01*
X103228413Y-149748443D01*
X103228412Y-149748443D01*
X103026243Y-149682754D01*
X103026241Y-149682753D01*
X103026240Y-149682753D01*
X102864957Y-149657208D01*
X102816287Y-149649500D01*
X102603713Y-149649500D01*
X102555042Y-149657208D01*
X102393760Y-149682753D01*
X102191585Y-149748444D01*
X102002179Y-149844951D01*
X101830213Y-149969890D01*
X101679890Y-150120213D01*
X101554949Y-150292182D01*
X101550484Y-150300946D01*
X101502509Y-150351742D01*
X101434688Y-150368536D01*
X101368553Y-150345998D01*
X101329516Y-150300946D01*
X101325050Y-150292182D01*
X101200109Y-150120213D01*
X101049786Y-149969890D01*
X100877820Y-149844951D01*
X100688414Y-149748444D01*
X100688413Y-149748443D01*
X100688412Y-149748443D01*
X100486243Y-149682754D01*
X100486241Y-149682753D01*
X100486240Y-149682753D01*
X100324957Y-149657208D01*
X100276287Y-149649500D01*
X100063713Y-149649500D01*
X100015042Y-149657208D01*
X99853760Y-149682753D01*
X99651585Y-149748444D01*
X99462179Y-149844951D01*
X99290213Y-149969890D01*
X99139890Y-150120213D01*
X99014949Y-150292182D01*
X99010484Y-150300946D01*
X98962509Y-150351742D01*
X98894688Y-150368536D01*
X98828553Y-150345998D01*
X98789516Y-150300946D01*
X98785050Y-150292182D01*
X98660109Y-150120213D01*
X98509786Y-149969890D01*
X98337820Y-149844951D01*
X98148414Y-149748444D01*
X98148413Y-149748443D01*
X98148412Y-149748443D01*
X97946243Y-149682754D01*
X97946241Y-149682753D01*
X97946240Y-149682753D01*
X97784957Y-149657208D01*
X97736287Y-149649500D01*
X97523713Y-149649500D01*
X97475042Y-149657208D01*
X97313760Y-149682753D01*
X97111585Y-149748444D01*
X96922179Y-149844951D01*
X96750213Y-149969890D01*
X96599890Y-150120213D01*
X96474949Y-150292182D01*
X96470484Y-150300946D01*
X96422509Y-150351742D01*
X96354688Y-150368536D01*
X96288553Y-150345998D01*
X96249516Y-150300946D01*
X96245050Y-150292182D01*
X96120109Y-150120213D01*
X95969786Y-149969890D01*
X95797820Y-149844951D01*
X95608414Y-149748444D01*
X95608413Y-149748443D01*
X95608412Y-149748443D01*
X95406243Y-149682754D01*
X95406241Y-149682753D01*
X95406240Y-149682753D01*
X95244957Y-149657208D01*
X95196287Y-149649500D01*
X94983713Y-149649500D01*
X94935042Y-149657208D01*
X94773760Y-149682753D01*
X94571585Y-149748444D01*
X94382179Y-149844951D01*
X94210213Y-149969890D01*
X94059890Y-150120213D01*
X93934949Y-150292182D01*
X93930484Y-150300946D01*
X93882509Y-150351742D01*
X93814688Y-150368536D01*
X93748553Y-150345998D01*
X93709516Y-150300946D01*
X93705050Y-150292182D01*
X93580109Y-150120213D01*
X93429786Y-149969890D01*
X93257820Y-149844951D01*
X93068414Y-149748444D01*
X93068413Y-149748443D01*
X93068412Y-149748443D01*
X92866243Y-149682754D01*
X92866241Y-149682753D01*
X92866240Y-149682753D01*
X92704957Y-149657208D01*
X92656287Y-149649500D01*
X92443713Y-149649500D01*
X92395042Y-149657208D01*
X92233760Y-149682753D01*
X92031585Y-149748444D01*
X91842179Y-149844951D01*
X91670213Y-149969890D01*
X91519890Y-150120213D01*
X91394949Y-150292182D01*
X91390484Y-150300946D01*
X91342509Y-150351742D01*
X91274688Y-150368536D01*
X91208553Y-150345998D01*
X91169516Y-150300946D01*
X91165050Y-150292182D01*
X91040109Y-150120213D01*
X90889786Y-149969890D01*
X90717820Y-149844951D01*
X90528414Y-149748444D01*
X90528413Y-149748443D01*
X90528412Y-149748443D01*
X90326243Y-149682754D01*
X90326241Y-149682753D01*
X90326240Y-149682753D01*
X90164957Y-149657208D01*
X90116287Y-149649500D01*
X89903713Y-149649500D01*
X89855042Y-149657208D01*
X89693760Y-149682753D01*
X89491585Y-149748444D01*
X89302179Y-149844951D01*
X89130213Y-149969890D01*
X88979890Y-150120213D01*
X88854949Y-150292182D01*
X88850202Y-150301499D01*
X88802227Y-150352293D01*
X88734405Y-150369087D01*
X88668271Y-150346548D01*
X88629234Y-150301495D01*
X88624626Y-150292452D01*
X88585270Y-150238282D01*
X88585269Y-150238282D01*
X87952962Y-150870590D01*
X87935925Y-150807007D01*
X87870099Y-150692993D01*
X87777007Y-150599901D01*
X87662993Y-150534075D01*
X87599409Y-150517037D01*
X88231716Y-149884728D01*
X88177550Y-149845375D01*
X87988217Y-149748904D01*
X87786129Y-149683242D01*
X87576246Y-149650000D01*
X87363754Y-149650000D01*
X87153872Y-149683242D01*
X87153869Y-149683242D01*
X86951782Y-149748904D01*
X86762439Y-149845380D01*
X86708282Y-149884727D01*
X86708282Y-149884728D01*
X87340591Y-150517037D01*
X87277007Y-150534075D01*
X87162993Y-150599901D01*
X87069901Y-150692993D01*
X87004075Y-150807007D01*
X86987037Y-150870591D01*
X86354728Y-150238282D01*
X86354727Y-150238282D01*
X86315380Y-150292439D01*
X86218904Y-150481782D01*
X86153242Y-150683869D01*
X86153242Y-150683872D01*
X86120000Y-150893753D01*
X86120000Y-151106246D01*
X86153242Y-151316127D01*
X86153242Y-151316130D01*
X86218904Y-151518217D01*
X86315375Y-151707550D01*
X86354728Y-151761716D01*
X86987037Y-151129408D01*
X87004075Y-151192993D01*
X87069901Y-151307007D01*
X87162993Y-151400099D01*
X87277007Y-151465925D01*
X87340590Y-151482962D01*
X86708282Y-152115269D01*
X86708282Y-152115270D01*
X86762449Y-152154624D01*
X86951782Y-152251095D01*
X87153870Y-152316757D01*
X87363754Y-152350000D01*
X87576246Y-152350000D01*
X87786127Y-152316757D01*
X87786130Y-152316757D01*
X87988217Y-152251095D01*
X88177554Y-152154622D01*
X88231716Y-152115270D01*
X88231717Y-152115270D01*
X87599408Y-151482962D01*
X87662993Y-151465925D01*
X87777007Y-151400099D01*
X87870099Y-151307007D01*
X87935925Y-151192993D01*
X87952962Y-151129409D01*
X88585270Y-151761717D01*
X88585270Y-151761716D01*
X88624622Y-151707555D01*
X88629232Y-151698507D01*
X88677205Y-151647709D01*
X88745025Y-151630912D01*
X88811161Y-151653447D01*
X88850204Y-151698504D01*
X88854949Y-151707817D01*
X88979890Y-151879786D01*
X89130213Y-152030109D01*
X89302179Y-152155048D01*
X89302181Y-152155049D01*
X89302184Y-152155051D01*
X89491588Y-152251557D01*
X89693757Y-152317246D01*
X89903713Y-152350500D01*
X89903714Y-152350500D01*
X90116286Y-152350500D01*
X90116287Y-152350500D01*
X90326243Y-152317246D01*
X90528412Y-152251557D01*
X90717816Y-152155051D01*
X90804138Y-152092335D01*
X90889786Y-152030109D01*
X90889788Y-152030106D01*
X90889792Y-152030104D01*
X91040104Y-151879792D01*
X91040106Y-151879788D01*
X91040109Y-151879786D01*
X91165048Y-151707820D01*
X91165047Y-151707820D01*
X91165051Y-151707816D01*
X91169514Y-151699054D01*
X91217488Y-151648259D01*
X91285308Y-151631463D01*
X91351444Y-151653999D01*
X91390486Y-151699056D01*
X91394951Y-151707820D01*
X91519890Y-151879786D01*
X91670213Y-152030109D01*
X91842179Y-152155048D01*
X91842181Y-152155049D01*
X91842184Y-152155051D01*
X92031588Y-152251557D01*
X92233757Y-152317246D01*
X92443713Y-152350500D01*
X92443714Y-152350500D01*
X92656286Y-152350500D01*
X92656287Y-152350500D01*
X92866243Y-152317246D01*
X93068412Y-152251557D01*
X93257816Y-152155051D01*
X93344138Y-152092335D01*
X93429786Y-152030109D01*
X93429788Y-152030106D01*
X93429792Y-152030104D01*
X93580104Y-151879792D01*
X93580106Y-151879788D01*
X93580109Y-151879786D01*
X93705048Y-151707820D01*
X93705047Y-151707820D01*
X93705051Y-151707816D01*
X93709514Y-151699054D01*
X93757488Y-151648259D01*
X93825308Y-151631463D01*
X93891444Y-151653999D01*
X93930486Y-151699056D01*
X93934951Y-151707820D01*
X94059890Y-151879786D01*
X94210213Y-152030109D01*
X94382179Y-152155048D01*
X94382181Y-152155049D01*
X94382184Y-152155051D01*
X94571588Y-152251557D01*
X94773757Y-152317246D01*
X94983713Y-152350500D01*
X94983714Y-152350500D01*
X95196286Y-152350500D01*
X95196287Y-152350500D01*
X95406243Y-152317246D01*
X95608412Y-152251557D01*
X95797816Y-152155051D01*
X95884138Y-152092335D01*
X95969786Y-152030109D01*
X95969788Y-152030106D01*
X95969792Y-152030104D01*
X96120104Y-151879792D01*
X96120106Y-151879788D01*
X96120109Y-151879786D01*
X96245048Y-151707820D01*
X96245047Y-151707820D01*
X96245051Y-151707816D01*
X96249514Y-151699054D01*
X96297488Y-151648259D01*
X96365308Y-151631463D01*
X96431444Y-151653999D01*
X96470486Y-151699056D01*
X96474951Y-151707820D01*
X96599890Y-151879786D01*
X96750213Y-152030109D01*
X96922179Y-152155048D01*
X96922181Y-152155049D01*
X96922184Y-152155051D01*
X97111588Y-152251557D01*
X97313757Y-152317246D01*
X97523713Y-152350500D01*
X97523714Y-152350500D01*
X97736286Y-152350500D01*
X97736287Y-152350500D01*
X97946243Y-152317246D01*
X98148412Y-152251557D01*
X98337816Y-152155051D01*
X98424138Y-152092335D01*
X98509786Y-152030109D01*
X98509788Y-152030106D01*
X98509792Y-152030104D01*
X98660104Y-151879792D01*
X98660106Y-151879788D01*
X98660109Y-151879786D01*
X98785048Y-151707820D01*
X98785047Y-151707820D01*
X98785051Y-151707816D01*
X98789514Y-151699054D01*
X98837488Y-151648259D01*
X98905308Y-151631463D01*
X98971444Y-151653999D01*
X99010486Y-151699056D01*
X99014951Y-151707820D01*
X99139890Y-151879786D01*
X99290213Y-152030109D01*
X99462179Y-152155048D01*
X99462181Y-152155049D01*
X99462184Y-152155051D01*
X99651588Y-152251557D01*
X99853757Y-152317246D01*
X100063713Y-152350500D01*
X100063714Y-152350500D01*
X100276286Y-152350500D01*
X100276287Y-152350500D01*
X100486243Y-152317246D01*
X100688412Y-152251557D01*
X100877816Y-152155051D01*
X100964138Y-152092335D01*
X101049786Y-152030109D01*
X101049788Y-152030106D01*
X101049792Y-152030104D01*
X101200104Y-151879792D01*
X101200106Y-151879788D01*
X101200109Y-151879786D01*
X101325048Y-151707820D01*
X101325047Y-151707820D01*
X101325051Y-151707816D01*
X101329514Y-151699054D01*
X101377488Y-151648259D01*
X101445308Y-151631463D01*
X101511444Y-151653999D01*
X101550486Y-151699056D01*
X101554951Y-151707820D01*
X101679890Y-151879786D01*
X101830213Y-152030109D01*
X102002179Y-152155048D01*
X102002181Y-152155049D01*
X102002184Y-152155051D01*
X102191588Y-152251557D01*
X102393757Y-152317246D01*
X102603713Y-152350500D01*
X102603714Y-152350500D01*
X102816286Y-152350500D01*
X102816287Y-152350500D01*
X103026243Y-152317246D01*
X103228412Y-152251557D01*
X103417816Y-152155051D01*
X103504138Y-152092335D01*
X103589786Y-152030109D01*
X103589788Y-152030106D01*
X103589792Y-152030104D01*
X103740104Y-151879792D01*
X103740106Y-151879788D01*
X103740109Y-151879786D01*
X103825890Y-151761717D01*
X103865051Y-151707816D01*
X103869793Y-151698508D01*
X103917763Y-151647711D01*
X103985583Y-151630911D01*
X104051719Y-151653445D01*
X104090763Y-151698500D01*
X104095373Y-151707547D01*
X104134728Y-151761716D01*
X104767037Y-151129408D01*
X104784075Y-151192993D01*
X104849901Y-151307007D01*
X104942993Y-151400099D01*
X105057007Y-151465925D01*
X105120590Y-151482962D01*
X104488282Y-152115269D01*
X104488282Y-152115270D01*
X104542449Y-152154624D01*
X104731782Y-152251095D01*
X104933870Y-152316757D01*
X105143754Y-152350000D01*
X105356246Y-152350000D01*
X105566127Y-152316757D01*
X105566130Y-152316757D01*
X105768217Y-152251095D01*
X105957554Y-152154622D01*
X106011716Y-152115270D01*
X106011717Y-152115270D01*
X105379408Y-151482962D01*
X105442993Y-151465925D01*
X105557007Y-151400099D01*
X105650099Y-151307007D01*
X105715925Y-151192993D01*
X105732962Y-151129408D01*
X106365270Y-151761717D01*
X106365270Y-151761716D01*
X106404622Y-151707555D01*
X106409232Y-151698507D01*
X106457205Y-151647709D01*
X106525025Y-151630912D01*
X106591161Y-151653447D01*
X106630204Y-151698504D01*
X106634949Y-151707817D01*
X106759890Y-151879786D01*
X106910213Y-152030109D01*
X107082179Y-152155048D01*
X107082181Y-152155049D01*
X107082184Y-152155051D01*
X107271588Y-152251557D01*
X107473757Y-152317246D01*
X107683713Y-152350500D01*
X107683714Y-152350500D01*
X107896286Y-152350500D01*
X107896287Y-152350500D01*
X108106243Y-152317246D01*
X108308412Y-152251557D01*
X108497816Y-152155051D01*
X108584147Y-152092328D01*
X108669784Y-152030110D01*
X108669784Y-152030109D01*
X108669792Y-152030104D01*
X108783329Y-151916566D01*
X108844648Y-151883084D01*
X108914340Y-151888068D01*
X108970274Y-151929939D01*
X108987189Y-151960917D01*
X109036202Y-152092328D01*
X109036206Y-152092335D01*
X109122452Y-152207544D01*
X109122455Y-152207547D01*
X109237664Y-152293793D01*
X109237671Y-152293797D01*
X109282618Y-152310561D01*
X109372517Y-152344091D01*
X109432127Y-152350500D01*
X109505500Y-152350499D01*
X109514184Y-152353049D01*
X109523147Y-152351761D01*
X109547186Y-152362739D01*
X109572538Y-152370183D01*
X109578466Y-152377024D01*
X109586703Y-152380786D01*
X109600989Y-152403016D01*
X109618294Y-152422986D01*
X109620581Y-152433502D01*
X109624477Y-152439564D01*
X109629500Y-152474499D01*
X109629500Y-152665500D01*
X109609815Y-152732539D01*
X109557011Y-152778294D01*
X109505500Y-152789500D01*
X83295316Y-152789500D01*
X83247864Y-152780061D01*
X83103501Y-152720264D01*
X83103489Y-152720261D01*
X82948845Y-152689500D01*
X82948842Y-152689500D01*
X82791158Y-152689500D01*
X82791155Y-152689500D01*
X82636510Y-152720261D01*
X82636498Y-152720264D01*
X82492136Y-152780061D01*
X82444684Y-152789500D01*
X50171519Y-152789500D01*
X50104480Y-152769815D01*
X50083838Y-152753181D01*
X46086819Y-148756162D01*
X46053334Y-148694839D01*
X46050500Y-148668481D01*
X46050500Y-147828792D01*
X46070185Y-147761753D01*
X46122989Y-147715998D01*
X46135499Y-147711085D01*
X46139331Y-147709815D01*
X46139331Y-147709814D01*
X46139334Y-147709814D01*
X46288656Y-147617712D01*
X46311421Y-147594946D01*
X46372741Y-147561461D01*
X46442432Y-147566443D01*
X46486784Y-147594945D01*
X46501654Y-147609815D01*
X46650875Y-147701856D01*
X46650880Y-147701858D01*
X46817302Y-147757005D01*
X46817309Y-147757006D01*
X46920019Y-147767499D01*
X47169999Y-147767499D01*
X47670000Y-147767499D01*
X47919972Y-147767499D01*
X47919986Y-147767498D01*
X48022697Y-147757005D01*
X48189119Y-147701858D01*
X48189124Y-147701856D01*
X48338345Y-147609815D01*
X48462315Y-147485845D01*
X48554356Y-147336624D01*
X48554358Y-147336619D01*
X48609505Y-147170197D01*
X48609506Y-147170190D01*
X48619999Y-147067486D01*
X48620000Y-147067473D01*
X48620000Y-147005000D01*
X47670000Y-147005000D01*
X47670000Y-147767499D01*
X47169999Y-147767499D01*
X47170000Y-147767498D01*
X47170000Y-146879000D01*
X47189685Y-146811961D01*
X47242489Y-146766206D01*
X47294000Y-146755000D01*
X47420000Y-146755000D01*
X47420000Y-146629000D01*
X47439685Y-146561961D01*
X47492489Y-146516206D01*
X47544000Y-146505000D01*
X48619999Y-146505000D01*
X48619999Y-146442528D01*
X48619998Y-146442513D01*
X48609505Y-146339802D01*
X48554358Y-146173380D01*
X48554356Y-146173375D01*
X48462315Y-146024154D01*
X48368695Y-145930534D01*
X48364350Y-145922577D01*
X48357093Y-145917142D01*
X48347867Y-145892391D01*
X48335210Y-145869211D01*
X48335856Y-145860167D01*
X48332690Y-145851672D01*
X48338309Y-145825865D01*
X48340194Y-145799519D01*
X48346021Y-145790453D01*
X48347557Y-145783403D01*
X48368712Y-145755155D01*
X48371041Y-145752827D01*
X48432371Y-145719355D01*
X48482893Y-145718910D01*
X48541158Y-145730500D01*
X48698844Y-145730500D01*
X48698845Y-145730499D01*
X48853497Y-145699737D01*
X48999179Y-145639394D01*
X49130289Y-145551789D01*
X49241789Y-145440289D01*
X49329394Y-145309179D01*
X49329397Y-145309172D01*
X49343703Y-145274635D01*
X50079500Y-145274635D01*
X50079500Y-147320370D01*
X50079501Y-147320376D01*
X50085908Y-147379983D01*
X50136202Y-147514828D01*
X50136206Y-147514835D01*
X50222452Y-147630044D01*
X50222455Y-147630047D01*
X50337664Y-147716293D01*
X50337671Y-147716297D01*
X50472517Y-147766591D01*
X50472516Y-147766591D01*
X50479444Y-147767335D01*
X50532127Y-147773000D01*
X51827872Y-147772999D01*
X51887483Y-147766591D01*
X52022331Y-147716296D01*
X52137546Y-147630046D01*
X52223796Y-147514831D01*
X52274091Y-147379983D01*
X52280500Y-147320373D01*
X52280499Y-145274628D01*
X52274091Y-145215017D01*
X52270202Y-145204591D01*
X52223797Y-145080171D01*
X52223793Y-145080164D01*
X52137547Y-144964955D01*
X52137544Y-144964952D01*
X52022335Y-144878706D01*
X52022328Y-144878702D01*
X51887482Y-144828408D01*
X51887483Y-144828408D01*
X51827883Y-144822001D01*
X51827881Y-144822000D01*
X51827873Y-144822000D01*
X51827864Y-144822000D01*
X50532129Y-144822000D01*
X50532123Y-144822001D01*
X50472516Y-144828408D01*
X50337671Y-144878702D01*
X50337664Y-144878706D01*
X50222455Y-144964952D01*
X50222452Y-144964955D01*
X50136206Y-145080164D01*
X50136202Y-145080171D01*
X50085908Y-145215017D01*
X50080781Y-145262710D01*
X50079501Y-145274623D01*
X50079500Y-145274635D01*
X49343703Y-145274635D01*
X49364737Y-145223854D01*
X49386630Y-145170997D01*
X49389737Y-145163497D01*
X49420500Y-145008842D01*
X49420500Y-144851158D01*
X49420500Y-144851155D01*
X49420499Y-144851153D01*
X49415975Y-144828408D01*
X49389737Y-144696503D01*
X49389735Y-144696498D01*
X49329397Y-144550827D01*
X49329390Y-144550814D01*
X49241789Y-144419711D01*
X49241786Y-144419707D01*
X49130292Y-144308213D01*
X49130288Y-144308210D01*
X48999185Y-144220609D01*
X48999172Y-144220602D01*
X48853501Y-144160264D01*
X48853489Y-144160261D01*
X48698845Y-144129500D01*
X48698842Y-144129500D01*
X48541158Y-144129500D01*
X48541155Y-144129500D01*
X48482893Y-144141089D01*
X48413302Y-144134862D01*
X48371021Y-144107153D01*
X48338657Y-144074789D01*
X48338656Y-144074788D01*
X48189334Y-143982686D01*
X48022797Y-143927501D01*
X48022795Y-143927500D01*
X47920010Y-143917000D01*
X46919998Y-143917000D01*
X46919980Y-143917001D01*
X46817203Y-143927500D01*
X46817200Y-143927501D01*
X46650668Y-143982685D01*
X46650663Y-143982687D01*
X46501342Y-144074789D01*
X46478931Y-144097201D01*
X46417608Y-144130686D01*
X46347916Y-144125702D01*
X46303569Y-144097201D01*
X46288657Y-144082289D01*
X46288656Y-144082288D01*
X46154169Y-143999336D01*
X46139336Y-143990187D01*
X46139331Y-143990185D01*
X46137862Y-143989698D01*
X45972797Y-143935001D01*
X45972795Y-143935000D01*
X45870010Y-143924500D01*
X44869998Y-143924500D01*
X44869980Y-143924501D01*
X44767203Y-143935000D01*
X44767200Y-143935001D01*
X44600668Y-143990185D01*
X44600663Y-143990187D01*
X44451342Y-144082289D01*
X44327289Y-144206342D01*
X44235187Y-144355663D01*
X44235185Y-144355668D01*
X44210389Y-144430498D01*
X44180001Y-144522203D01*
X44180001Y-144522204D01*
X44180000Y-144522204D01*
X44169500Y-144624983D01*
X40500500Y-144624983D01*
X40500500Y-128193197D01*
X47410000Y-128193197D01*
X47410000Y-128386802D01*
X47440286Y-128578022D01*
X47500116Y-128762158D01*
X47588011Y-128934662D01*
X47610638Y-128965806D01*
X47610639Y-128965806D01*
X48169284Y-128407161D01*
X48188052Y-128477203D01*
X48251903Y-128587797D01*
X48342203Y-128678097D01*
X48452797Y-128741948D01*
X48522837Y-128760715D01*
X47964192Y-129319358D01*
X47964192Y-129319359D01*
X47995343Y-129341991D01*
X48167841Y-129429883D01*
X48351977Y-129489713D01*
X48543198Y-129520000D01*
X48736802Y-129520000D01*
X48928022Y-129489713D01*
X49112158Y-129429883D01*
X49284652Y-129341993D01*
X49284665Y-129341985D01*
X49315806Y-129319360D01*
X49315807Y-129319359D01*
X48757163Y-128760715D01*
X48827203Y-128741948D01*
X48937797Y-128678097D01*
X49028097Y-128587797D01*
X49091948Y-128477203D01*
X49110715Y-128407163D01*
X49669359Y-128965807D01*
X49669360Y-128965806D01*
X49691985Y-128934665D01*
X49691993Y-128934652D01*
X49779882Y-128762160D01*
X49791804Y-128725469D01*
X49831241Y-128667793D01*
X49895599Y-128640593D01*
X49964446Y-128652507D01*
X50015922Y-128699750D01*
X50027666Y-128725464D01*
X50039651Y-128762349D01*
X50078259Y-128838121D01*
X50127582Y-128934923D01*
X50241427Y-129091617D01*
X50378383Y-129228573D01*
X50535077Y-129342418D01*
X50536787Y-129343289D01*
X50537318Y-129343791D01*
X50539225Y-129344959D01*
X50538979Y-129345359D01*
X50587585Y-129391257D01*
X50604500Y-129453777D01*
X50604500Y-131325133D01*
X50584815Y-131392172D01*
X50545597Y-131430671D01*
X50399612Y-131520716D01*
X50399608Y-131520719D01*
X50280719Y-131639608D01*
X50280716Y-131639612D01*
X50192455Y-131782704D01*
X50192451Y-131782713D01*
X50139564Y-131942315D01*
X50139564Y-131942316D01*
X50139563Y-131942316D01*
X50129500Y-132040818D01*
X50129500Y-132899181D01*
X50139563Y-132997683D01*
X50192450Y-133157284D01*
X50192455Y-133157295D01*
X50280716Y-133300387D01*
X50280719Y-133300391D01*
X50291843Y-133311515D01*
X50325328Y-133372838D01*
X50320344Y-133442530D01*
X50301433Y-133476101D01*
X50297291Y-133481339D01*
X50205187Y-133630663D01*
X50205185Y-133630668D01*
X50185838Y-133689054D01*
X50150001Y-133797203D01*
X50150001Y-133797204D01*
X50150000Y-133797204D01*
X50139500Y-133899983D01*
X50139500Y-134900001D01*
X50139501Y-134900019D01*
X50150000Y-135002796D01*
X50150001Y-135002799D01*
X50205185Y-135169331D01*
X50205187Y-135169336D01*
X50207007Y-135172287D01*
X50295005Y-135314955D01*
X50297289Y-135318657D01*
X50328451Y-135349819D01*
X50361936Y-135411142D01*
X50356952Y-135480834D01*
X50328451Y-135525181D01*
X50297289Y-135556342D01*
X50205187Y-135705663D01*
X50205186Y-135705666D01*
X50150001Y-135872203D01*
X50150001Y-135872204D01*
X50150000Y-135872204D01*
X50139500Y-135974983D01*
X50139500Y-136975001D01*
X50139501Y-136975019D01*
X50150000Y-137077796D01*
X50150001Y-137077799D01*
X50205185Y-137244331D01*
X50205187Y-137244336D01*
X50235906Y-137294140D01*
X50297288Y-137393656D01*
X50421344Y-137517712D01*
X50570666Y-137609814D01*
X50737203Y-137664999D01*
X50839991Y-137675500D01*
X51465008Y-137675499D01*
X51465016Y-137675498D01*
X51465019Y-137675498D01*
X51521302Y-137669748D01*
X51567797Y-137664999D01*
X51734334Y-137609814D01*
X51883656Y-137517712D01*
X51977675Y-137423692D01*
X52038994Y-137390210D01*
X52108686Y-137395194D01*
X52153034Y-137423695D01*
X52246654Y-137517315D01*
X52395875Y-137609356D01*
X52395878Y-137609357D01*
X52436677Y-137622877D01*
X52494121Y-137662650D01*
X52520944Y-137727166D01*
X52508629Y-137795942D01*
X52485353Y-137828264D01*
X51177937Y-139135681D01*
X51116614Y-139169166D01*
X51090256Y-139172000D01*
X50532129Y-139172000D01*
X50532123Y-139172001D01*
X50472516Y-139178408D01*
X50337671Y-139228702D01*
X50337664Y-139228706D01*
X50222455Y-139314952D01*
X50222452Y-139314955D01*
X50136206Y-139430164D01*
X50136202Y-139430171D01*
X50085908Y-139565017D01*
X50079507Y-139624560D01*
X50079501Y-139624623D01*
X50079500Y-139624635D01*
X50079500Y-141670370D01*
X50079501Y-141670376D01*
X50085908Y-141729983D01*
X50136202Y-141864828D01*
X50136206Y-141864835D01*
X50222452Y-141980044D01*
X50222455Y-141980047D01*
X50337664Y-142066293D01*
X50337671Y-142066297D01*
X50472517Y-142116591D01*
X50472516Y-142116591D01*
X50479444Y-142117335D01*
X50532127Y-142123000D01*
X51827872Y-142122999D01*
X51887483Y-142116591D01*
X52022331Y-142066296D01*
X52137546Y-141980046D01*
X52223796Y-141864831D01*
X52274091Y-141729983D01*
X52280500Y-141670373D01*
X52280499Y-139712240D01*
X52289143Y-139682800D01*
X52295667Y-139652814D01*
X52299421Y-139647798D01*
X52300184Y-139645202D01*
X52316813Y-139624565D01*
X52367821Y-139573557D01*
X52429142Y-139540074D01*
X52498834Y-139545058D01*
X52554767Y-139586930D01*
X52579184Y-139652394D01*
X52579500Y-139661240D01*
X52579500Y-141670370D01*
X52579501Y-141670376D01*
X52585908Y-141729983D01*
X52636202Y-141864828D01*
X52636206Y-141864835D01*
X52722452Y-141980044D01*
X52722455Y-141980047D01*
X52837664Y-142066293D01*
X52837671Y-142066297D01*
X52972517Y-142116591D01*
X52980062Y-142118374D01*
X52979523Y-142120651D01*
X53033287Y-142142908D01*
X53073147Y-142200293D01*
X53079500Y-142239475D01*
X53079500Y-144705523D01*
X53059815Y-144772562D01*
X53007011Y-144818317D01*
X52979865Y-144825766D01*
X52980068Y-144826624D01*
X52972520Y-144828407D01*
X52837671Y-144878702D01*
X52837664Y-144878706D01*
X52722455Y-144964952D01*
X52722452Y-144964955D01*
X52636206Y-145080164D01*
X52636202Y-145080171D01*
X52585908Y-145215017D01*
X52580781Y-145262710D01*
X52579501Y-145274623D01*
X52579500Y-145274635D01*
X52579500Y-147320370D01*
X52579501Y-147320376D01*
X52585908Y-147379983D01*
X52636202Y-147514828D01*
X52636206Y-147514835D01*
X52722452Y-147630044D01*
X52722455Y-147630047D01*
X52837664Y-147716293D01*
X52837671Y-147716297D01*
X52972517Y-147766591D01*
X52972516Y-147766591D01*
X52979444Y-147767335D01*
X53032127Y-147773000D01*
X54327872Y-147772999D01*
X54387483Y-147766591D01*
X54522331Y-147716296D01*
X54637546Y-147630046D01*
X54723796Y-147514831D01*
X54774091Y-147379983D01*
X54780500Y-147320373D01*
X54780499Y-146097595D01*
X54789143Y-146068155D01*
X54795667Y-146038169D01*
X54799421Y-146033153D01*
X54800184Y-146030557D01*
X54816813Y-146009920D01*
X54867821Y-145958912D01*
X54929142Y-145925429D01*
X54998834Y-145930413D01*
X55054767Y-145972285D01*
X55079184Y-146037749D01*
X55079500Y-146046595D01*
X55079500Y-147320370D01*
X55079501Y-147320376D01*
X55085908Y-147379983D01*
X55136202Y-147514828D01*
X55136206Y-147514835D01*
X55222452Y-147630044D01*
X55222455Y-147630047D01*
X55337664Y-147716293D01*
X55337671Y-147716297D01*
X55472517Y-147766591D01*
X55472516Y-147766591D01*
X55479444Y-147767335D01*
X55532127Y-147773000D01*
X56827872Y-147772999D01*
X56887483Y-147766591D01*
X57022331Y-147716296D01*
X57137546Y-147630046D01*
X57223796Y-147514831D01*
X57274091Y-147379983D01*
X57280500Y-147320373D01*
X57280499Y-145274628D01*
X57274091Y-145215017D01*
X57270202Y-145204591D01*
X57223797Y-145080171D01*
X57223793Y-145080164D01*
X57170401Y-145008842D01*
X57137546Y-144964954D01*
X57022331Y-144878704D01*
X57019748Y-144877740D01*
X57017543Y-144876090D01*
X57014544Y-144874452D01*
X57014779Y-144874020D01*
X56963816Y-144835869D01*
X56941468Y-144785751D01*
X56925509Y-144705523D01*
X56919737Y-144676503D01*
X56917724Y-144671642D01*
X56859397Y-144530827D01*
X56859390Y-144530814D01*
X56771789Y-144399711D01*
X56771786Y-144399707D01*
X56687087Y-144315008D01*
X56653602Y-144253685D01*
X56658586Y-144183993D01*
X56687085Y-144139648D01*
X60354916Y-140471819D01*
X60416239Y-140438334D01*
X60442597Y-140435500D01*
X61840943Y-140435500D01*
X63763663Y-140435500D01*
X63830702Y-140455185D01*
X63876457Y-140507989D01*
X63886401Y-140577147D01*
X63878224Y-140606952D01*
X63827301Y-140729891D01*
X63827300Y-140729895D01*
X63812500Y-140842302D01*
X63812500Y-140855000D01*
X64978500Y-140855000D01*
X65045539Y-140874685D01*
X65091294Y-140927489D01*
X65102500Y-140979000D01*
X65102500Y-141231000D01*
X65082815Y-141298039D01*
X65030011Y-141343794D01*
X64978500Y-141355000D01*
X63812500Y-141355000D01*
X63812500Y-141367697D01*
X63827300Y-141480104D01*
X63827301Y-141480108D01*
X63885236Y-141619978D01*
X63977405Y-141740094D01*
X64097521Y-141832263D01*
X64192879Y-141871761D01*
X64247283Y-141915601D01*
X64269348Y-141981895D01*
X64252069Y-142049595D01*
X64210524Y-142091860D01*
X64096347Y-142162285D01*
X64096343Y-142162288D01*
X63972289Y-142286342D01*
X63880187Y-142435663D01*
X63880185Y-142435668D01*
X63876240Y-142447573D01*
X63825001Y-142602203D01*
X63825001Y-142602204D01*
X63825000Y-142602204D01*
X63814500Y-142704983D01*
X63814500Y-143705001D01*
X63814501Y-143705019D01*
X63825000Y-143807796D01*
X63825001Y-143807799D01*
X63880185Y-143974331D01*
X63880187Y-143974336D01*
X63889964Y-143990187D01*
X63972288Y-144123656D01*
X64096344Y-144247712D01*
X64193097Y-144307389D01*
X64239821Y-144359335D01*
X64252000Y-144412927D01*
X64252000Y-145862758D01*
X64232315Y-145929797D01*
X64215681Y-145950439D01*
X61609487Y-148556632D01*
X61609485Y-148556635D01*
X61533719Y-148687863D01*
X61494500Y-148834234D01*
X61494500Y-149701542D01*
X61474815Y-149768581D01*
X61426796Y-149812026D01*
X61362182Y-149844949D01*
X61190213Y-149969890D01*
X61039890Y-150120213D01*
X60914949Y-150292182D01*
X60910202Y-150301499D01*
X60862227Y-150352293D01*
X60794405Y-150369087D01*
X60728271Y-150346548D01*
X60689234Y-150301495D01*
X60684626Y-150292452D01*
X60645270Y-150238282D01*
X60645269Y-150238282D01*
X60012962Y-150870590D01*
X59995925Y-150807007D01*
X59930099Y-150692993D01*
X59837007Y-150599901D01*
X59722993Y-150534075D01*
X59659409Y-150517037D01*
X60291716Y-149884728D01*
X60237550Y-149845375D01*
X60048217Y-149748904D01*
X59846129Y-149683242D01*
X59636246Y-149650000D01*
X59423754Y-149650000D01*
X59213872Y-149683242D01*
X59213869Y-149683242D01*
X59011782Y-149748904D01*
X58822439Y-149845380D01*
X58768282Y-149884727D01*
X58768282Y-149884728D01*
X59400591Y-150517037D01*
X59337007Y-150534075D01*
X59222993Y-150599901D01*
X59129901Y-150692993D01*
X59064075Y-150807007D01*
X59047037Y-150870591D01*
X58414728Y-150238282D01*
X58414727Y-150238282D01*
X58375380Y-150292439D01*
X58278904Y-150481782D01*
X58213242Y-150683869D01*
X58213242Y-150683872D01*
X58180000Y-150893753D01*
X58180000Y-151106246D01*
X58213242Y-151316127D01*
X58213242Y-151316130D01*
X58278904Y-151518217D01*
X58375375Y-151707550D01*
X58414728Y-151761716D01*
X59047037Y-151129408D01*
X59064075Y-151192993D01*
X59129901Y-151307007D01*
X59222993Y-151400099D01*
X59337007Y-151465925D01*
X59400590Y-151482962D01*
X58768282Y-152115269D01*
X58768282Y-152115270D01*
X58822449Y-152154624D01*
X59011782Y-152251095D01*
X59213870Y-152316757D01*
X59423754Y-152350000D01*
X59636246Y-152350000D01*
X59846127Y-152316757D01*
X59846130Y-152316757D01*
X60048217Y-152251095D01*
X60237554Y-152154622D01*
X60291716Y-152115270D01*
X60291717Y-152115270D01*
X59659408Y-151482962D01*
X59722993Y-151465925D01*
X59837007Y-151400099D01*
X59930099Y-151307007D01*
X59995925Y-151192993D01*
X60012962Y-151129408D01*
X60645270Y-151761717D01*
X60645270Y-151761716D01*
X60684622Y-151707555D01*
X60689232Y-151698507D01*
X60737205Y-151647709D01*
X60805025Y-151630912D01*
X60871161Y-151653447D01*
X60910204Y-151698504D01*
X60914949Y-151707817D01*
X61039890Y-151879786D01*
X61190213Y-152030109D01*
X61362179Y-152155048D01*
X61362181Y-152155049D01*
X61362184Y-152155051D01*
X61551588Y-152251557D01*
X61753757Y-152317246D01*
X61963713Y-152350500D01*
X61963714Y-152350500D01*
X62176286Y-152350500D01*
X62176287Y-152350500D01*
X62386243Y-152317246D01*
X62588412Y-152251557D01*
X62777816Y-152155051D01*
X62864138Y-152092335D01*
X62949786Y-152030109D01*
X62949788Y-152030106D01*
X62949792Y-152030104D01*
X63100104Y-151879792D01*
X63100106Y-151879788D01*
X63100109Y-151879786D01*
X63225048Y-151707820D01*
X63225047Y-151707820D01*
X63225051Y-151707816D01*
X63229514Y-151699054D01*
X63277488Y-151648259D01*
X63345308Y-151631463D01*
X63411444Y-151653999D01*
X63450486Y-151699056D01*
X63454951Y-151707820D01*
X63579890Y-151879786D01*
X63730213Y-152030109D01*
X63902179Y-152155048D01*
X63902181Y-152155049D01*
X63902184Y-152155051D01*
X64091588Y-152251557D01*
X64293757Y-152317246D01*
X64503713Y-152350500D01*
X64503714Y-152350500D01*
X64716286Y-152350500D01*
X64716287Y-152350500D01*
X64926243Y-152317246D01*
X65128412Y-152251557D01*
X65317816Y-152155051D01*
X65404138Y-152092335D01*
X65489786Y-152030109D01*
X65489788Y-152030106D01*
X65489792Y-152030104D01*
X65640104Y-151879792D01*
X65640106Y-151879788D01*
X65640109Y-151879786D01*
X65765048Y-151707820D01*
X65765047Y-151707820D01*
X65765051Y-151707816D01*
X65769514Y-151699054D01*
X65817488Y-151648259D01*
X65885308Y-151631463D01*
X65951444Y-151653999D01*
X65990486Y-151699056D01*
X65994951Y-151707820D01*
X66119890Y-151879786D01*
X66270213Y-152030109D01*
X66442179Y-152155048D01*
X66442181Y-152155049D01*
X66442184Y-152155051D01*
X66631588Y-152251557D01*
X66833757Y-152317246D01*
X67043713Y-152350500D01*
X67043714Y-152350500D01*
X67256286Y-152350500D01*
X67256287Y-152350500D01*
X67466243Y-152317246D01*
X67668412Y-152251557D01*
X67857816Y-152155051D01*
X67944138Y-152092335D01*
X68029786Y-152030109D01*
X68029788Y-152030106D01*
X68029792Y-152030104D01*
X68180104Y-151879792D01*
X68180106Y-151879788D01*
X68180109Y-151879786D01*
X68305048Y-151707820D01*
X68305047Y-151707820D01*
X68305051Y-151707816D01*
X68309514Y-151699054D01*
X68357488Y-151648259D01*
X68425308Y-151631463D01*
X68491444Y-151653999D01*
X68530486Y-151699056D01*
X68534951Y-151707820D01*
X68659890Y-151879786D01*
X68810213Y-152030109D01*
X68982179Y-152155048D01*
X68982181Y-152155049D01*
X68982184Y-152155051D01*
X69171588Y-152251557D01*
X69373757Y-152317246D01*
X69583713Y-152350500D01*
X69583714Y-152350500D01*
X69796286Y-152350500D01*
X69796287Y-152350500D01*
X70006243Y-152317246D01*
X70208412Y-152251557D01*
X70397816Y-152155051D01*
X70484138Y-152092335D01*
X70569786Y-152030109D01*
X70569788Y-152030106D01*
X70569792Y-152030104D01*
X70720104Y-151879792D01*
X70720106Y-151879788D01*
X70720109Y-151879786D01*
X70845048Y-151707820D01*
X70845047Y-151707820D01*
X70845051Y-151707816D01*
X70849514Y-151699054D01*
X70897488Y-151648259D01*
X70965308Y-151631463D01*
X71031444Y-151653999D01*
X71070486Y-151699056D01*
X71074951Y-151707820D01*
X71199890Y-151879786D01*
X71350213Y-152030109D01*
X71522179Y-152155048D01*
X71522181Y-152155049D01*
X71522184Y-152155051D01*
X71711588Y-152251557D01*
X71913757Y-152317246D01*
X72123713Y-152350500D01*
X72123714Y-152350500D01*
X72336286Y-152350500D01*
X72336287Y-152350500D01*
X72546243Y-152317246D01*
X72748412Y-152251557D01*
X72937816Y-152155051D01*
X73024138Y-152092335D01*
X73109786Y-152030109D01*
X73109788Y-152030106D01*
X73109792Y-152030104D01*
X73260104Y-151879792D01*
X73260106Y-151879788D01*
X73260109Y-151879786D01*
X73385048Y-151707820D01*
X73385047Y-151707820D01*
X73385051Y-151707816D01*
X73389514Y-151699054D01*
X73437488Y-151648259D01*
X73505308Y-151631463D01*
X73571444Y-151653999D01*
X73610486Y-151699056D01*
X73614951Y-151707820D01*
X73739890Y-151879786D01*
X73890213Y-152030109D01*
X74062179Y-152155048D01*
X74062181Y-152155049D01*
X74062184Y-152155051D01*
X74251588Y-152251557D01*
X74453757Y-152317246D01*
X74663713Y-152350500D01*
X74663714Y-152350500D01*
X74876286Y-152350500D01*
X74876287Y-152350500D01*
X75086243Y-152317246D01*
X75288412Y-152251557D01*
X75477816Y-152155051D01*
X75564147Y-152092328D01*
X75649784Y-152030110D01*
X75649784Y-152030109D01*
X75649792Y-152030104D01*
X75763329Y-151916566D01*
X75824648Y-151883084D01*
X75894340Y-151888068D01*
X75950274Y-151929939D01*
X75967189Y-151960917D01*
X76016202Y-152092328D01*
X76016206Y-152092335D01*
X76102452Y-152207544D01*
X76102455Y-152207547D01*
X76217664Y-152293793D01*
X76217671Y-152293797D01*
X76352517Y-152344091D01*
X76352516Y-152344091D01*
X76359444Y-152344835D01*
X76412127Y-152350500D01*
X78207872Y-152350499D01*
X78267483Y-152344091D01*
X78402331Y-152293796D01*
X78517546Y-152207546D01*
X78603796Y-152092331D01*
X78654091Y-151957483D01*
X78660500Y-151897873D01*
X78660500Y-151862036D01*
X78662979Y-151849827D01*
X78673712Y-151829504D01*
X78680185Y-151807461D01*
X78689716Y-151799201D01*
X78695609Y-151788045D01*
X78715624Y-151776752D01*
X78732989Y-151761706D01*
X78748132Y-151758411D01*
X78756462Y-151753712D01*
X78766957Y-151754316D01*
X78784500Y-151750500D01*
X83993920Y-151750500D01*
X84091462Y-151731096D01*
X84138913Y-151721658D01*
X84275495Y-151665084D01*
X84372151Y-151600501D01*
X84398416Y-151582952D01*
X91017049Y-144964319D01*
X91078372Y-144930834D01*
X91104730Y-144928000D01*
X94225396Y-144928000D01*
X94272844Y-144937437D01*
X94296503Y-144947237D01*
X94296508Y-144947238D01*
X94296511Y-144947239D01*
X94451153Y-144977999D01*
X94451156Y-144978000D01*
X94451158Y-144978000D01*
X94608841Y-144978000D01*
X94608842Y-144978000D01*
X94626903Y-144974407D01*
X94696493Y-144980633D01*
X94751672Y-145023494D01*
X94756630Y-145030919D01*
X94812288Y-145121156D01*
X94936344Y-145245212D01*
X95085666Y-145337314D01*
X95252203Y-145392499D01*
X95354991Y-145403000D01*
X95955008Y-145402999D01*
X95955016Y-145402998D01*
X95955019Y-145402998D01*
X96011302Y-145397248D01*
X96057797Y-145392499D01*
X96224334Y-145337314D01*
X96373656Y-145245212D01*
X96497712Y-145121156D01*
X96499752Y-145117847D01*
X96501745Y-145116055D01*
X96502193Y-145115489D01*
X96502289Y-145115565D01*
X96551694Y-145071123D01*
X96620656Y-145059895D01*
X96684740Y-145087734D01*
X96710829Y-145117839D01*
X96712681Y-145120841D01*
X96712683Y-145120844D01*
X96836654Y-145244815D01*
X96985875Y-145336856D01*
X96985880Y-145336858D01*
X97152302Y-145392005D01*
X97152309Y-145392006D01*
X97255019Y-145402499D01*
X97805000Y-145402499D01*
X97854972Y-145402499D01*
X97854986Y-145402498D01*
X97957697Y-145392005D01*
X98124119Y-145336858D01*
X98124124Y-145336856D01*
X98273344Y-145244815D01*
X98313567Y-145204593D01*
X98374890Y-145171107D01*
X98444581Y-145176091D01*
X98488930Y-145204591D01*
X98546657Y-145262317D01*
X98695875Y-145354356D01*
X98695880Y-145354358D01*
X98862302Y-145409505D01*
X98862309Y-145409506D01*
X98965019Y-145419999D01*
X99014999Y-145419998D01*
X99015000Y-145419998D01*
X99015000Y-144445000D01*
X98203862Y-144445000D01*
X98144264Y-144427500D01*
X97805000Y-144427500D01*
X97805000Y-145402499D01*
X97255019Y-145402499D01*
X97304999Y-145402498D01*
X97305000Y-145402498D01*
X97305000Y-143927500D01*
X97805000Y-143927500D01*
X98616138Y-143927500D01*
X98675736Y-143945000D01*
X99015000Y-143945000D01*
X99015000Y-142970000D01*
X99014999Y-142969999D01*
X98965029Y-142970000D01*
X98965011Y-142970001D01*
X98862302Y-142980494D01*
X98695880Y-143035641D01*
X98695875Y-143035643D01*
X98546654Y-143127684D01*
X98506428Y-143167909D01*
X98445104Y-143201393D01*
X98375413Y-143196407D01*
X98331068Y-143167907D01*
X98273345Y-143110184D01*
X98124124Y-143018143D01*
X98124119Y-143018141D01*
X97957697Y-142962994D01*
X97957690Y-142962993D01*
X97854986Y-142952500D01*
X97805000Y-142952500D01*
X97805000Y-143927500D01*
X97305000Y-143927500D01*
X97305000Y-143014751D01*
X97306196Y-143010676D01*
X97305273Y-143006534D01*
X97315955Y-142977441D01*
X97324685Y-142947712D01*
X97328307Y-142943800D01*
X97329356Y-142940946D01*
X97339034Y-142932220D01*
X97354186Y-142915863D01*
X97359810Y-142911607D01*
X97441865Y-142863081D01*
X97558081Y-142746865D01*
X97641744Y-142605398D01*
X97687598Y-142447569D01*
X97690500Y-142410694D01*
X97690500Y-141979306D01*
X97687598Y-141942431D01*
X97685559Y-141935414D01*
X97641597Y-141784095D01*
X97641796Y-141714226D01*
X97679738Y-141655556D01*
X97743376Y-141626712D01*
X97760673Y-141625500D01*
X98130898Y-141625500D01*
X98178349Y-141634938D01*
X98286503Y-141679737D01*
X98286506Y-141679737D01*
X98286511Y-141679739D01*
X98441153Y-141710499D01*
X98441156Y-141710500D01*
X98441158Y-141710500D01*
X98598844Y-141710500D01*
X98598845Y-141710499D01*
X98753497Y-141679737D01*
X98899179Y-141619394D01*
X99030289Y-141531789D01*
X99141789Y-141420289D01*
X99229394Y-141289179D01*
X99289737Y-141143497D01*
X99320500Y-140988842D01*
X99320500Y-140831158D01*
X99320500Y-140831155D01*
X99320499Y-140831153D01*
X99300357Y-140729895D01*
X99289737Y-140676503D01*
X99272753Y-140635500D01*
X99229397Y-140530827D01*
X99229390Y-140530814D01*
X99141789Y-140399711D01*
X99141786Y-140399707D01*
X99030292Y-140288213D01*
X99030288Y-140288210D01*
X98899185Y-140200609D01*
X98899172Y-140200602D01*
X98753501Y-140140264D01*
X98753489Y-140140261D01*
X98598845Y-140109500D01*
X98598842Y-140109500D01*
X98441158Y-140109500D01*
X98441155Y-140109500D01*
X98286510Y-140140261D01*
X98286498Y-140140264D01*
X98140824Y-140200604D01*
X98136336Y-140203603D01*
X98069658Y-140224480D01*
X98067446Y-140224500D01*
X97760153Y-140224500D01*
X97693114Y-140204815D01*
X97647359Y-140152011D01*
X97637415Y-140082853D01*
X97641077Y-140065905D01*
X97687099Y-139907494D01*
X97687100Y-139907488D01*
X97687295Y-139905001D01*
X97687295Y-139905000D01*
X96339000Y-139905000D01*
X96271961Y-139885315D01*
X96226206Y-139832511D01*
X96215000Y-139781000D01*
X96215000Y-139529000D01*
X96234685Y-139461961D01*
X96287489Y-139416206D01*
X96339000Y-139405000D01*
X97687295Y-139405000D01*
X97687295Y-139404998D01*
X97687100Y-139402513D01*
X97641281Y-139244801D01*
X97557685Y-139103447D01*
X97552900Y-139097278D01*
X97555366Y-139095364D01*
X97528802Y-139046776D01*
X97533749Y-138977082D01*
X97554856Y-138944232D01*
X97553301Y-138943026D01*
X97558077Y-138936868D01*
X97558081Y-138936865D01*
X97641744Y-138795398D01*
X97675505Y-138679191D01*
X97687597Y-138637573D01*
X97687598Y-138637567D01*
X97690500Y-138600694D01*
X97690500Y-138169306D01*
X97687800Y-138134998D01*
X99692704Y-138134998D01*
X99692705Y-138135000D01*
X100915000Y-138135000D01*
X101415000Y-138135000D01*
X102637295Y-138135000D01*
X102637295Y-138134998D01*
X102637100Y-138132513D01*
X102591281Y-137974801D01*
X102507685Y-137833447D01*
X102507678Y-137833438D01*
X102391561Y-137717321D01*
X102391552Y-137717314D01*
X102250196Y-137633717D01*
X102250193Y-137633716D01*
X102092495Y-137587900D01*
X102092489Y-137587899D01*
X102055649Y-137585000D01*
X101415000Y-137585000D01*
X101415000Y-138135000D01*
X100915000Y-138135000D01*
X100915000Y-137585000D01*
X100274350Y-137585000D01*
X100237510Y-137587899D01*
X100237504Y-137587900D01*
X100079806Y-137633716D01*
X100079803Y-137633717D01*
X99938447Y-137717314D01*
X99938438Y-137717321D01*
X99822321Y-137833438D01*
X99822314Y-137833447D01*
X99738718Y-137974801D01*
X99692899Y-138132513D01*
X99692704Y-138134998D01*
X97687800Y-138134998D01*
X97687598Y-138132431D01*
X97641744Y-137974602D01*
X97558081Y-137833135D01*
X97558079Y-137833133D01*
X97558076Y-137833129D01*
X97441870Y-137716923D01*
X97441862Y-137716917D01*
X97338873Y-137656010D01*
X97300398Y-137633256D01*
X97300397Y-137633255D01*
X97300396Y-137633255D01*
X97300393Y-137633254D01*
X97142573Y-137587402D01*
X97142567Y-137587401D01*
X97105701Y-137584500D01*
X97105694Y-137584500D01*
X95324306Y-137584500D01*
X95324298Y-137584500D01*
X95287432Y-137587401D01*
X95287426Y-137587402D01*
X95129606Y-137633254D01*
X95129603Y-137633255D01*
X94988137Y-137716917D01*
X94988129Y-137716923D01*
X94871923Y-137833129D01*
X94871917Y-137833137D01*
X94788255Y-137974603D01*
X94788254Y-137974606D01*
X94742402Y-138132426D01*
X94742401Y-138132432D01*
X94739500Y-138169298D01*
X94739500Y-138284902D01*
X94719815Y-138351941D01*
X94703181Y-138372583D01*
X93647584Y-139428181D01*
X93586261Y-139461666D01*
X93559903Y-139464500D01*
X93243472Y-139464500D01*
X93243456Y-139464499D01*
X93235860Y-139464499D01*
X93077745Y-139464499D01*
X93024453Y-139478779D01*
X92925016Y-139505423D01*
X92925011Y-139505426D01*
X92788092Y-139584475D01*
X92788084Y-139584481D01*
X86362180Y-146010386D01*
X86300857Y-146043871D01*
X86231165Y-146038887D01*
X86175232Y-145997015D01*
X86150815Y-145931551D01*
X86150499Y-145922705D01*
X86150499Y-145274629D01*
X86150498Y-145274623D01*
X86150497Y-145274616D01*
X86144091Y-145215017D01*
X86140202Y-145204591D01*
X86093797Y-145080171D01*
X86093793Y-145080164D01*
X86007547Y-144964955D01*
X86006697Y-144964319D01*
X85951568Y-144923049D01*
X85892329Y-144878702D01*
X85850459Y-144822768D01*
X85845024Y-144803627D01*
X85825509Y-144705523D01*
X85819737Y-144676503D01*
X85817724Y-144671642D01*
X85759397Y-144530827D01*
X85759390Y-144530814D01*
X85671789Y-144399711D01*
X85671786Y-144399707D01*
X85560292Y-144288213D01*
X85560288Y-144288210D01*
X85429185Y-144200609D01*
X85429172Y-144200602D01*
X85283501Y-144140264D01*
X85283489Y-144140261D01*
X85128845Y-144109500D01*
X85128842Y-144109500D01*
X84971158Y-144109500D01*
X84971155Y-144109500D01*
X84816510Y-144140261D01*
X84816498Y-144140264D01*
X84670827Y-144200602D01*
X84670814Y-144200609D01*
X84539711Y-144288210D01*
X84539707Y-144288213D01*
X84428213Y-144399707D01*
X84428210Y-144399711D01*
X84340609Y-144530814D01*
X84340602Y-144530827D01*
X84280264Y-144676498D01*
X84280261Y-144676508D01*
X84254975Y-144803628D01*
X84222590Y-144865539D01*
X84207670Y-144878702D01*
X84092452Y-144964955D01*
X84006206Y-145080164D01*
X84006202Y-145080171D01*
X83955908Y-145215017D01*
X83950781Y-145262710D01*
X83949501Y-145274623D01*
X83949500Y-145274635D01*
X83949500Y-147320370D01*
X83949501Y-147320376D01*
X83955908Y-147379983D01*
X84006202Y-147514828D01*
X84006206Y-147514835D01*
X84052136Y-147576189D01*
X84076554Y-147641653D01*
X84061703Y-147709926D01*
X84012298Y-147759332D01*
X83952870Y-147774500D01*
X83647130Y-147774500D01*
X83580091Y-147754815D01*
X83534336Y-147702011D01*
X83524392Y-147632853D01*
X83547864Y-147576189D01*
X83593793Y-147514835D01*
X83593792Y-147514835D01*
X83593796Y-147514831D01*
X83644091Y-147379983D01*
X83650500Y-147320373D01*
X83650499Y-145274628D01*
X83644091Y-145215017D01*
X83640202Y-145204591D01*
X83593797Y-145080171D01*
X83593793Y-145080164D01*
X83507547Y-144964955D01*
X83507544Y-144964952D01*
X83392335Y-144878706D01*
X83392328Y-144878702D01*
X83257483Y-144828408D01*
X83236243Y-144826125D01*
X83171692Y-144799386D01*
X83131845Y-144741993D01*
X83125500Y-144702836D01*
X83125500Y-142242163D01*
X83145185Y-142175124D01*
X83197989Y-142129369D01*
X83236248Y-142118873D01*
X83257483Y-142116591D01*
X83392331Y-142066296D01*
X83507546Y-141980046D01*
X83593796Y-141864831D01*
X83644091Y-141729983D01*
X83650500Y-141670373D01*
X83650499Y-139624628D01*
X83644091Y-139565017D01*
X83611926Y-139478779D01*
X83593797Y-139430171D01*
X83593793Y-139430164D01*
X83507547Y-139314955D01*
X83507544Y-139314952D01*
X83392335Y-139228706D01*
X83392328Y-139228702D01*
X83257482Y-139178408D01*
X83257483Y-139178408D01*
X83197883Y-139172001D01*
X83197881Y-139172000D01*
X83197873Y-139172000D01*
X83197864Y-139172000D01*
X81902129Y-139172000D01*
X81902123Y-139172001D01*
X81842516Y-139178408D01*
X81707671Y-139228702D01*
X81707665Y-139228706D01*
X81693529Y-139239288D01*
X81628064Y-139263704D01*
X81559791Y-139248851D01*
X81510387Y-139199445D01*
X81495536Y-139131172D01*
X81519954Y-139065708D01*
X81531532Y-139052346D01*
X82827061Y-137756817D01*
X82888382Y-137723334D01*
X82927338Y-137721142D01*
X82969991Y-137725500D01*
X83570008Y-137725499D01*
X83570016Y-137725498D01*
X83570019Y-137725498D01*
X83626302Y-137719748D01*
X83672797Y-137714999D01*
X83839334Y-137659814D01*
X83988656Y-137567712D01*
X84112712Y-137443656D01*
X84114461Y-137440819D01*
X84116169Y-137439283D01*
X84117193Y-137437989D01*
X84117414Y-137438163D01*
X84166406Y-137394096D01*
X84235368Y-137382872D01*
X84299451Y-137410713D01*
X84325537Y-137440817D01*
X84327288Y-137443656D01*
X84327289Y-137443657D01*
X84327290Y-137443658D01*
X84451345Y-137567713D01*
X84451348Y-137567715D01*
X84535595Y-137619678D01*
X84582321Y-137671625D01*
X84594500Y-137725217D01*
X84594500Y-138624723D01*
X84577887Y-138686722D01*
X84565450Y-138708265D01*
X84513719Y-138797863D01*
X84474500Y-138944234D01*
X84474500Y-139052836D01*
X84454815Y-139119875D01*
X84402011Y-139165630D01*
X84363754Y-139176126D01*
X84342516Y-139178409D01*
X84207671Y-139228702D01*
X84207664Y-139228706D01*
X84092455Y-139314952D01*
X84092452Y-139314955D01*
X84006206Y-139430164D01*
X84006202Y-139430171D01*
X83955908Y-139565017D01*
X83949507Y-139624560D01*
X83949501Y-139624623D01*
X83949500Y-139624635D01*
X83949500Y-141670370D01*
X83949501Y-141670376D01*
X83955908Y-141729983D01*
X84006202Y-141864828D01*
X84006206Y-141864835D01*
X84092452Y-141980044D01*
X84092455Y-141980047D01*
X84207664Y-142066293D01*
X84207671Y-142066297D01*
X84342517Y-142116591D01*
X84342516Y-142116591D01*
X84349444Y-142117335D01*
X84402127Y-142123000D01*
X85697872Y-142122999D01*
X85757483Y-142116591D01*
X85892331Y-142066296D01*
X86007546Y-141980046D01*
X86093796Y-141864831D01*
X86144091Y-141729983D01*
X86150500Y-141670373D01*
X86150499Y-139624628D01*
X86144091Y-139565017D01*
X86111926Y-139478779D01*
X86093797Y-139430171D01*
X86093793Y-139430164D01*
X86007547Y-139314955D01*
X86007544Y-139314952D01*
X85892335Y-139228706D01*
X85892328Y-139228702D01*
X85802841Y-139195326D01*
X85746907Y-139153455D01*
X85722490Y-139087991D01*
X85726399Y-139047051D01*
X85726473Y-139046776D01*
X85745500Y-138975766D01*
X85745500Y-138824233D01*
X85745500Y-137725217D01*
X85765185Y-137658178D01*
X85804405Y-137619678D01*
X85888651Y-137567715D01*
X85888654Y-137567713D01*
X85888653Y-137567713D01*
X85888656Y-137567712D01*
X86012712Y-137443656D01*
X86104814Y-137294334D01*
X86159999Y-137127797D01*
X86170500Y-137025009D01*
X86170499Y-135974992D01*
X86165552Y-135926568D01*
X86159999Y-135872203D01*
X86159998Y-135872200D01*
X86137725Y-135804986D01*
X86104814Y-135705666D01*
X86012712Y-135556344D01*
X85962799Y-135506431D01*
X85929314Y-135445108D01*
X85934298Y-135375416D01*
X85962799Y-135331068D01*
X85975212Y-135318656D01*
X86067314Y-135169334D01*
X86122499Y-135002797D01*
X86133000Y-134900009D01*
X86132999Y-133899992D01*
X86122499Y-133797203D01*
X86067314Y-133630666D01*
X85975212Y-133481344D01*
X85851156Y-133357288D01*
X85701834Y-133265186D01*
X85535297Y-133210001D01*
X85535295Y-133210000D01*
X85432510Y-133199500D01*
X84807498Y-133199500D01*
X84807480Y-133199501D01*
X84704703Y-133210000D01*
X84704700Y-133210001D01*
X84538168Y-133265185D01*
X84538163Y-133265187D01*
X84388842Y-133357289D01*
X84295181Y-133450951D01*
X84233858Y-133484436D01*
X84164166Y-133479452D01*
X84119819Y-133450951D01*
X84026157Y-133357289D01*
X84026156Y-133357288D01*
X83876834Y-133265186D01*
X83710297Y-133210001D01*
X83710295Y-133210000D01*
X83607510Y-133199500D01*
X82982498Y-133199500D01*
X82982477Y-133199502D01*
X82905046Y-133207411D01*
X82836353Y-133194641D01*
X82785470Y-133146759D01*
X82768550Y-133078969D01*
X82774741Y-133045048D01*
X82790436Y-132997685D01*
X82800500Y-132899174D01*
X82800500Y-132040826D01*
X82790436Y-131942315D01*
X82737549Y-131782713D01*
X82737545Y-131782707D01*
X82737544Y-131782704D01*
X82649283Y-131639612D01*
X82649280Y-131639608D01*
X82530391Y-131520719D01*
X82530387Y-131520716D01*
X82387295Y-131432455D01*
X82387289Y-131432452D01*
X82387287Y-131432451D01*
X82227685Y-131379564D01*
X82227683Y-131379563D01*
X82129181Y-131369500D01*
X82129174Y-131369500D01*
X81595826Y-131369500D01*
X81595818Y-131369500D01*
X81497316Y-131379563D01*
X81497315Y-131379564D01*
X81459267Y-131392172D01*
X81337715Y-131432450D01*
X81337704Y-131432455D01*
X81194612Y-131520716D01*
X81194608Y-131520719D01*
X81075719Y-131639608D01*
X81075716Y-131639612D01*
X80987455Y-131782704D01*
X80987451Y-131782713D01*
X80934564Y-131942315D01*
X80934564Y-131942316D01*
X80934563Y-131942316D01*
X80924500Y-132040818D01*
X80924500Y-132430258D01*
X80915855Y-132459698D01*
X80909332Y-132489685D01*
X80905577Y-132494700D01*
X80904815Y-132497297D01*
X80888181Y-132517939D01*
X80887181Y-132518939D01*
X80825858Y-132552424D01*
X80756166Y-132547440D01*
X80700233Y-132505568D01*
X80675816Y-132440104D01*
X80675500Y-132431258D01*
X80675500Y-132040831D01*
X80675499Y-132040818D01*
X80665436Y-131942316D01*
X80655827Y-131913317D01*
X80612549Y-131782713D01*
X80612545Y-131782707D01*
X80612544Y-131782704D01*
X80524283Y-131639612D01*
X80524282Y-131639611D01*
X80524281Y-131639609D01*
X80411818Y-131527146D01*
X80378334Y-131465823D01*
X80375500Y-131439465D01*
X80375500Y-131079568D01*
X95449500Y-131079568D01*
X95449500Y-131360431D01*
X95480942Y-131639494D01*
X95480945Y-131639512D01*
X95543439Y-131913317D01*
X95543443Y-131913329D01*
X95636200Y-132178411D01*
X95758053Y-132431442D01*
X95758055Y-132431445D01*
X95907477Y-132669248D01*
X96082584Y-132888825D01*
X96281175Y-133087416D01*
X96500752Y-133262523D01*
X96738555Y-133411945D01*
X96738557Y-133411946D01*
X96819552Y-133450951D01*
X96991592Y-133533801D01*
X97160156Y-133592784D01*
X97256670Y-133626556D01*
X97256682Y-133626560D01*
X97530491Y-133689055D01*
X97530497Y-133689055D01*
X97530505Y-133689057D01*
X97716547Y-133710018D01*
X97809569Y-133720499D01*
X97809572Y-133720500D01*
X97809575Y-133720500D01*
X98090428Y-133720500D01*
X98090429Y-133720499D01*
X98236326Y-133704061D01*
X98369494Y-133689057D01*
X98369499Y-133689056D01*
X98369509Y-133689055D01*
X98643318Y-133626560D01*
X98908408Y-133533801D01*
X99161445Y-133411945D01*
X99399248Y-133262523D01*
X99588118Y-133111903D01*
X99588120Y-133111903D01*
X99618818Y-133087422D01*
X99618820Y-133087419D01*
X99618825Y-133087416D01*
X99817416Y-132888825D01*
X99992523Y-132669248D01*
X100141945Y-132431445D01*
X100263801Y-132178408D01*
X100356560Y-131913318D01*
X100419055Y-131639509D01*
X100426082Y-131577147D01*
X100435961Y-131489466D01*
X100450500Y-131360425D01*
X100450500Y-131117648D01*
X104994500Y-131117648D01*
X104994500Y-131322352D01*
X104998878Y-131349995D01*
X105026522Y-131524534D01*
X105089781Y-131719223D01*
X105182715Y-131901613D01*
X105303028Y-132067213D01*
X105447786Y-132211971D01*
X105602749Y-132324556D01*
X105613390Y-132332287D01*
X105729607Y-132391503D01*
X105795776Y-132425218D01*
X105795778Y-132425218D01*
X105795781Y-132425220D01*
X105900137Y-132459127D01*
X105990465Y-132488477D01*
X106091557Y-132504488D01*
X106192648Y-132520500D01*
X106192649Y-132520500D01*
X106397351Y-132520500D01*
X106397352Y-132520500D01*
X106599534Y-132488477D01*
X106794219Y-132425220D01*
X106976610Y-132332287D01*
X107069590Y-132264732D01*
X107142213Y-132211971D01*
X107142215Y-132211968D01*
X107142219Y-132211966D01*
X107286966Y-132067219D01*
X107286968Y-132067215D01*
X107286971Y-132067213D01*
X107339732Y-131994590D01*
X107407287Y-131901610D01*
X107500220Y-131719219D01*
X107562069Y-131528868D01*
X107601507Y-131471193D01*
X107665866Y-131443995D01*
X107734712Y-131455910D01*
X107786188Y-131503154D01*
X107797931Y-131528868D01*
X107859781Y-131719223D01*
X107952715Y-131901613D01*
X108073028Y-132067213D01*
X108217786Y-132211971D01*
X108372749Y-132324556D01*
X108383390Y-132332287D01*
X108499607Y-132391503D01*
X108565776Y-132425218D01*
X108565778Y-132425218D01*
X108565781Y-132425220D01*
X108670137Y-132459127D01*
X108760465Y-132488477D01*
X108861557Y-132504488D01*
X108962648Y-132520500D01*
X108962649Y-132520500D01*
X109167351Y-132520500D01*
X109167352Y-132520500D01*
X109369534Y-132488477D01*
X109564219Y-132425220D01*
X109746610Y-132332287D01*
X109839590Y-132264732D01*
X109912213Y-132211971D01*
X109912215Y-132211968D01*
X109912219Y-132211966D01*
X110056966Y-132067219D01*
X110056968Y-132067215D01*
X110056971Y-132067213D01*
X110109732Y-131994590D01*
X110177287Y-131901610D01*
X110270220Y-131719219D01*
X110332069Y-131528868D01*
X110371507Y-131471193D01*
X110435866Y-131443995D01*
X110504712Y-131455910D01*
X110556188Y-131503154D01*
X110567931Y-131528868D01*
X110629781Y-131719223D01*
X110722715Y-131901613D01*
X110843028Y-132067213D01*
X110987786Y-132211971D01*
X111142749Y-132324556D01*
X111153390Y-132332287D01*
X111269607Y-132391503D01*
X111335776Y-132425218D01*
X111335778Y-132425218D01*
X111335781Y-132425220D01*
X111440137Y-132459127D01*
X111530465Y-132488477D01*
X111631557Y-132504488D01*
X111732648Y-132520500D01*
X111732649Y-132520500D01*
X111937351Y-132520500D01*
X111937352Y-132520500D01*
X112139534Y-132488477D01*
X112334219Y-132425220D01*
X112516610Y-132332287D01*
X112609590Y-132264732D01*
X112682213Y-132211971D01*
X112682215Y-132211968D01*
X112682219Y-132211966D01*
X112826966Y-132067219D01*
X112826968Y-132067215D01*
X112826971Y-132067213D01*
X112879732Y-131994590D01*
X112947287Y-131901610D01*
X113040220Y-131719219D01*
X113102069Y-131528868D01*
X113141507Y-131471193D01*
X113205866Y-131443995D01*
X113274712Y-131455910D01*
X113326188Y-131503154D01*
X113337931Y-131528868D01*
X113399781Y-131719223D01*
X113492715Y-131901613D01*
X113613028Y-132067213D01*
X113757786Y-132211971D01*
X113912749Y-132324556D01*
X113923390Y-132332287D01*
X114039607Y-132391503D01*
X114105776Y-132425218D01*
X114105778Y-132425218D01*
X114105781Y-132425220D01*
X114210137Y-132459127D01*
X114300465Y-132488477D01*
X114401557Y-132504488D01*
X114502648Y-132520500D01*
X114502649Y-132520500D01*
X114707351Y-132520500D01*
X114707352Y-132520500D01*
X114909534Y-132488477D01*
X115104219Y-132425220D01*
X115286610Y-132332287D01*
X115379590Y-132264732D01*
X115452213Y-132211971D01*
X115452215Y-132211968D01*
X115452219Y-132211966D01*
X115596966Y-132067219D01*
X115596968Y-132067215D01*
X115596971Y-132067213D01*
X115649732Y-131994590D01*
X115717287Y-131901610D01*
X115810220Y-131719219D01*
X115873477Y-131524534D01*
X115905500Y-131322352D01*
X115905500Y-131117648D01*
X115899469Y-131079568D01*
X120449500Y-131079568D01*
X120449500Y-131360431D01*
X120480942Y-131639494D01*
X120480945Y-131639512D01*
X120543439Y-131913317D01*
X120543443Y-131913329D01*
X120636200Y-132178411D01*
X120758053Y-132431442D01*
X120758055Y-132431445D01*
X120907477Y-132669248D01*
X121082584Y-132888825D01*
X121281175Y-133087416D01*
X121500752Y-133262523D01*
X121738555Y-133411945D01*
X121738557Y-133411946D01*
X121819552Y-133450951D01*
X121991592Y-133533801D01*
X122160156Y-133592784D01*
X122256670Y-133626556D01*
X122256682Y-133626560D01*
X122530491Y-133689055D01*
X122530497Y-133689055D01*
X122530505Y-133689057D01*
X122716547Y-133710018D01*
X122809569Y-133720499D01*
X122809572Y-133720500D01*
X122809575Y-133720500D01*
X123090428Y-133720500D01*
X123090429Y-133720499D01*
X123236326Y-133704061D01*
X123369494Y-133689057D01*
X123369499Y-133689056D01*
X123369509Y-133689055D01*
X123643318Y-133626560D01*
X123908408Y-133533801D01*
X124161445Y-133411945D01*
X124399248Y-133262523D01*
X124618825Y-133087416D01*
X124817416Y-132888825D01*
X124992523Y-132669248D01*
X125141945Y-132431445D01*
X125263801Y-132178408D01*
X125356560Y-131913318D01*
X125419055Y-131639509D01*
X125426082Y-131577147D01*
X125435961Y-131489466D01*
X125450500Y-131360425D01*
X125450500Y-131079575D01*
X125434418Y-130936845D01*
X125419057Y-130800505D01*
X125419054Y-130800487D01*
X125356560Y-130526682D01*
X125356556Y-130526670D01*
X125302709Y-130372786D01*
X125263801Y-130261592D01*
X125141945Y-130008555D01*
X124992523Y-129770752D01*
X124817416Y-129551175D01*
X124618825Y-129352584D01*
X124605544Y-129341993D01*
X124463320Y-129228573D01*
X124399248Y-129177477D01*
X124161445Y-129028055D01*
X124161442Y-129028053D01*
X123908411Y-128906200D01*
X123643329Y-128813443D01*
X123643317Y-128813439D01*
X123369512Y-128750945D01*
X123369494Y-128750942D01*
X123090431Y-128719500D01*
X123090425Y-128719500D01*
X122809575Y-128719500D01*
X122809568Y-128719500D01*
X122530505Y-128750942D01*
X122530487Y-128750945D01*
X122256682Y-128813439D01*
X122256670Y-128813443D01*
X121991588Y-128906200D01*
X121738557Y-129028053D01*
X121500753Y-129177476D01*
X121281175Y-129352583D01*
X121082583Y-129551175D01*
X120907476Y-129770753D01*
X120758053Y-130008557D01*
X120636200Y-130261588D01*
X120543443Y-130526670D01*
X120543439Y-130526682D01*
X120480945Y-130800487D01*
X120480942Y-130800505D01*
X120449500Y-131079568D01*
X115899469Y-131079568D01*
X115873477Y-130915466D01*
X115872068Y-130911131D01*
X115810218Y-130720776D01*
X115776503Y-130654607D01*
X115717287Y-130538390D01*
X115708772Y-130526670D01*
X115596971Y-130372786D01*
X115452213Y-130228028D01*
X115286613Y-130107715D01*
X115286612Y-130107714D01*
X115286610Y-130107713D01*
X115229653Y-130078691D01*
X115104223Y-130014781D01*
X114909534Y-129951522D01*
X114734995Y-129923878D01*
X114707352Y-129919500D01*
X114502648Y-129919500D01*
X114478329Y-129923351D01*
X114300465Y-129951522D01*
X114105776Y-130014781D01*
X113923386Y-130107715D01*
X113757786Y-130228028D01*
X113613028Y-130372786D01*
X113492715Y-130538386D01*
X113399781Y-130720776D01*
X113337931Y-130911131D01*
X113298493Y-130968806D01*
X113234134Y-130996004D01*
X113165288Y-130984089D01*
X113113812Y-130936845D01*
X113102069Y-130911131D01*
X113040218Y-130720776D01*
X113006503Y-130654607D01*
X112947287Y-130538390D01*
X112938772Y-130526670D01*
X112826971Y-130372786D01*
X112682213Y-130228028D01*
X112516613Y-130107715D01*
X112516612Y-130107714D01*
X112516610Y-130107713D01*
X112459653Y-130078691D01*
X112334223Y-130014781D01*
X112139534Y-129951522D01*
X111964995Y-129923878D01*
X111937352Y-129919500D01*
X111732648Y-129919500D01*
X111708329Y-129923351D01*
X111530465Y-129951522D01*
X111335776Y-130014781D01*
X111153386Y-130107715D01*
X110987786Y-130228028D01*
X110843028Y-130372786D01*
X110722715Y-130538386D01*
X110629781Y-130720776D01*
X110567931Y-130911131D01*
X110528493Y-130968806D01*
X110464134Y-130996004D01*
X110395288Y-130984089D01*
X110343812Y-130936845D01*
X110332069Y-130911131D01*
X110270218Y-130720776D01*
X110236503Y-130654607D01*
X110177287Y-130538390D01*
X110168772Y-130526670D01*
X110056971Y-130372786D01*
X109912213Y-130228028D01*
X109746613Y-130107715D01*
X109746612Y-130107714D01*
X109746610Y-130107713D01*
X109689653Y-130078691D01*
X109564223Y-130014781D01*
X109369534Y-129951522D01*
X109194995Y-129923878D01*
X109167352Y-129919500D01*
X108962648Y-129919500D01*
X108938329Y-129923351D01*
X108760465Y-129951522D01*
X108565776Y-130014781D01*
X108383386Y-130107715D01*
X108217786Y-130228028D01*
X108073028Y-130372786D01*
X107952715Y-130538386D01*
X107859781Y-130720776D01*
X107797931Y-130911131D01*
X107758493Y-130968806D01*
X107694134Y-130996004D01*
X107625288Y-130984089D01*
X107573812Y-130936845D01*
X107562069Y-130911131D01*
X107500218Y-130720776D01*
X107466503Y-130654607D01*
X107407287Y-130538390D01*
X107398772Y-130526670D01*
X107286971Y-130372786D01*
X107142213Y-130228028D01*
X106976613Y-130107715D01*
X106976612Y-130107714D01*
X106976610Y-130107713D01*
X106919653Y-130078691D01*
X106794223Y-130014781D01*
X106599534Y-129951522D01*
X106424995Y-129923878D01*
X106397352Y-129919500D01*
X106192648Y-129919500D01*
X106168329Y-129923351D01*
X105990465Y-129951522D01*
X105795776Y-130014781D01*
X105613386Y-130107715D01*
X105447786Y-130228028D01*
X105303028Y-130372786D01*
X105182715Y-130538386D01*
X105089781Y-130720776D01*
X105026522Y-130915465D01*
X105000531Y-131079568D01*
X104994500Y-131117648D01*
X100450500Y-131117648D01*
X100450500Y-131079575D01*
X100434418Y-130936845D01*
X100419057Y-130800505D01*
X100419054Y-130800487D01*
X100356560Y-130526682D01*
X100356556Y-130526670D01*
X100302709Y-130372786D01*
X100263801Y-130261592D01*
X100141945Y-130008555D01*
X99992523Y-129770752D01*
X99817416Y-129551175D01*
X99618825Y-129352584D01*
X99605544Y-129341993D01*
X99463320Y-129228573D01*
X99399248Y-129177477D01*
X99161445Y-129028055D01*
X99161442Y-129028053D01*
X98908411Y-128906200D01*
X98643329Y-128813443D01*
X98643317Y-128813439D01*
X98369512Y-128750945D01*
X98369494Y-128750942D01*
X98090431Y-128719500D01*
X98090425Y-128719500D01*
X97809575Y-128719500D01*
X97809568Y-128719500D01*
X97530505Y-128750942D01*
X97530487Y-128750945D01*
X97256682Y-128813439D01*
X97256670Y-128813443D01*
X96991588Y-128906200D01*
X96738557Y-129028053D01*
X96500753Y-129177476D01*
X96281175Y-129352583D01*
X96082583Y-129551175D01*
X95907476Y-129770753D01*
X95758053Y-130008557D01*
X95636200Y-130261588D01*
X95543443Y-130526670D01*
X95543439Y-130526682D01*
X95480945Y-130800487D01*
X95480942Y-130800505D01*
X95449500Y-131079568D01*
X80375500Y-131079568D01*
X80375500Y-129453777D01*
X80395185Y-129386738D01*
X80440986Y-129345303D01*
X80440775Y-129344959D01*
X80442608Y-129343835D01*
X80443211Y-129343289D01*
X80444923Y-129342418D01*
X80601617Y-129228573D01*
X80738573Y-129091617D01*
X80852418Y-128934923D01*
X80940349Y-128762348D01*
X81000201Y-128578143D01*
X81012060Y-128503268D01*
X81030500Y-128386847D01*
X81030500Y-128193152D01*
X81000201Y-128001856D01*
X80940347Y-127817647D01*
X80878100Y-127695481D01*
X80852418Y-127645077D01*
X80738573Y-127488383D01*
X80601617Y-127351427D01*
X80444923Y-127237582D01*
X80272352Y-127149652D01*
X80088143Y-127089798D01*
X79896847Y-127059500D01*
X79896842Y-127059500D01*
X79703158Y-127059500D01*
X79703153Y-127059500D01*
X79511856Y-127089798D01*
X79327647Y-127149652D01*
X79155076Y-127237582D01*
X79065677Y-127302534D01*
X78998383Y-127351427D01*
X78998381Y-127351429D01*
X78998380Y-127351429D01*
X78861429Y-127488380D01*
X78861429Y-127488381D01*
X78861427Y-127488383D01*
X78817457Y-127548902D01*
X78747582Y-127645076D01*
X78659651Y-127817650D01*
X78647666Y-127854535D01*
X78608227Y-127912210D01*
X78543867Y-127939406D01*
X78475021Y-127927490D01*
X78423547Y-127880244D01*
X78411805Y-127854531D01*
X78399884Y-127817843D01*
X78311991Y-127645343D01*
X78289359Y-127614192D01*
X78289358Y-127614192D01*
X77730715Y-128172836D01*
X77711948Y-128102797D01*
X77648097Y-127992203D01*
X77557797Y-127901903D01*
X77447203Y-127838052D01*
X77377162Y-127819284D01*
X77935806Y-127260639D01*
X77935806Y-127260638D01*
X77904662Y-127238011D01*
X77732158Y-127150116D01*
X77548022Y-127090286D01*
X77356802Y-127060000D01*
X77163198Y-127060000D01*
X76971977Y-127090286D01*
X76787841Y-127150116D01*
X76615337Y-127238011D01*
X76584192Y-127260639D01*
X76584191Y-127260639D01*
X77142838Y-127819284D01*
X77072797Y-127838052D01*
X76962203Y-127901903D01*
X76871903Y-127992203D01*
X76808052Y-128102797D01*
X76789284Y-128172837D01*
X76230639Y-127614191D01*
X76230639Y-127614192D01*
X76208011Y-127645337D01*
X76120116Y-127817841D01*
X76060286Y-128001977D01*
X76030000Y-128193197D01*
X76030000Y-128386802D01*
X76060286Y-128578022D01*
X76120116Y-128762158D01*
X76208011Y-128934662D01*
X76230639Y-128965806D01*
X76789284Y-128407161D01*
X76808052Y-128477203D01*
X76871903Y-128587797D01*
X76962203Y-128678097D01*
X77072797Y-128741948D01*
X77142837Y-128760715D01*
X76584192Y-129319358D01*
X76584192Y-129319359D01*
X76615343Y-129341991D01*
X76787841Y-129429883D01*
X76971977Y-129489713D01*
X77163198Y-129520000D01*
X77356802Y-129520000D01*
X77548022Y-129489713D01*
X77732158Y-129429883D01*
X77904652Y-129341993D01*
X77904665Y-129341985D01*
X77935806Y-129319360D01*
X77935807Y-129319359D01*
X77377163Y-128760715D01*
X77447203Y-128741948D01*
X77557797Y-128678097D01*
X77648097Y-128587797D01*
X77711948Y-128477203D01*
X77730715Y-128407163D01*
X78289359Y-128965807D01*
X78289360Y-128965806D01*
X78311985Y-128934665D01*
X78311993Y-128934652D01*
X78399882Y-128762160D01*
X78411804Y-128725469D01*
X78451241Y-128667793D01*
X78515599Y-128640593D01*
X78584446Y-128652507D01*
X78635922Y-128699750D01*
X78647666Y-128725464D01*
X78659651Y-128762349D01*
X78698259Y-128838121D01*
X78747582Y-128934923D01*
X78861427Y-129091617D01*
X78998383Y-129228573D01*
X79155077Y-129342418D01*
X79156787Y-129343289D01*
X79157318Y-129343791D01*
X79159225Y-129344959D01*
X79158979Y-129345359D01*
X79207585Y-129391257D01*
X79224500Y-129453777D01*
X79224500Y-131355973D01*
X79204815Y-131423012D01*
X79165598Y-131461511D01*
X79069609Y-131520718D01*
X78950719Y-131639608D01*
X78950716Y-131639612D01*
X78862455Y-131782704D01*
X78862451Y-131782713D01*
X78809564Y-131942315D01*
X78809564Y-131942316D01*
X78809563Y-131942316D01*
X78799500Y-132040818D01*
X78799500Y-132899181D01*
X78809563Y-132997683D01*
X78862450Y-133157284D01*
X78862455Y-133157295D01*
X78950716Y-133300387D01*
X78950719Y-133300391D01*
X78960549Y-133310221D01*
X78994034Y-133371544D01*
X78989050Y-133441236D01*
X78967705Y-133474447D01*
X78969266Y-133475681D01*
X78964790Y-133481341D01*
X78872687Y-133630663D01*
X78872685Y-133630668D01*
X78853338Y-133689054D01*
X78817501Y-133797203D01*
X78817501Y-133797204D01*
X78817500Y-133797204D01*
X78807000Y-133899983D01*
X78807000Y-134900001D01*
X78807001Y-134900019D01*
X78817500Y-135002796D01*
X78817501Y-135002799D01*
X78872685Y-135169331D01*
X78872687Y-135169336D01*
X78874507Y-135172287D01*
X78962505Y-135314955D01*
X78964789Y-135318657D01*
X78995951Y-135349819D01*
X79029436Y-135411142D01*
X79024452Y-135480834D01*
X78995951Y-135525181D01*
X78964789Y-135556342D01*
X78872687Y-135705663D01*
X78872686Y-135705666D01*
X78817501Y-135872203D01*
X78817501Y-135872204D01*
X78817500Y-135872204D01*
X78807000Y-135974983D01*
X78807000Y-136975001D01*
X78807001Y-136975019D01*
X78817500Y-137077796D01*
X78817501Y-137077799D01*
X78872685Y-137244331D01*
X78872687Y-137244336D01*
X78903406Y-137294140D01*
X78964788Y-137393656D01*
X79088844Y-137517712D01*
X79238166Y-137609814D01*
X79404703Y-137664999D01*
X79507491Y-137675500D01*
X80132508Y-137675499D01*
X80132516Y-137675498D01*
X80132519Y-137675498D01*
X80188802Y-137669748D01*
X80235297Y-137664999D01*
X80401834Y-137609814D01*
X80551156Y-137517712D01*
X80645175Y-137423692D01*
X80706494Y-137390210D01*
X80776186Y-137395194D01*
X80820534Y-137423695D01*
X80914154Y-137517315D01*
X81063376Y-137609356D01*
X81085397Y-137616653D01*
X81142842Y-137656425D01*
X81169667Y-137720940D01*
X81157353Y-137789716D01*
X81134076Y-137822041D01*
X79820437Y-139135681D01*
X79759114Y-139169166D01*
X79732756Y-139172000D01*
X79402130Y-139172000D01*
X79402123Y-139172001D01*
X79342516Y-139178408D01*
X79207671Y-139228702D01*
X79207664Y-139228706D01*
X79092455Y-139314952D01*
X79092452Y-139314955D01*
X79006206Y-139430164D01*
X79006202Y-139430171D01*
X78955908Y-139565017D01*
X78949507Y-139624560D01*
X78949501Y-139624623D01*
X78949500Y-139624635D01*
X78949500Y-141583758D01*
X78929815Y-141650797D01*
X78877011Y-141696552D01*
X78807853Y-141706496D01*
X78744297Y-141677471D01*
X78737819Y-141671439D01*
X77710867Y-140644487D01*
X77710865Y-140644485D01*
X77594233Y-140577147D01*
X77579636Y-140568719D01*
X77438218Y-140530827D01*
X77433266Y-140529500D01*
X77433265Y-140529500D01*
X71771473Y-140529500D01*
X71704434Y-140509815D01*
X71658679Y-140457011D01*
X71648735Y-140387853D01*
X71658894Y-140358490D01*
X71657088Y-140357742D01*
X71685147Y-140290000D01*
X71718187Y-140210236D01*
X71733000Y-140097720D01*
X71733000Y-139572280D01*
X71718187Y-139459764D01*
X71660198Y-139319767D01*
X71626220Y-139275486D01*
X71601026Y-139210317D01*
X71615064Y-139141872D01*
X71626220Y-139124514D01*
X71642385Y-139103447D01*
X71660198Y-139080233D01*
X71718187Y-138940236D01*
X71733000Y-138827720D01*
X71733000Y-138302280D01*
X71718187Y-138189764D01*
X71660198Y-138049767D01*
X71626220Y-138005486D01*
X71601026Y-137940317D01*
X71615064Y-137871872D01*
X71626220Y-137854514D01*
X71642623Y-137833137D01*
X71660198Y-137810233D01*
X71718187Y-137670236D01*
X71733000Y-137557720D01*
X71733000Y-137032280D01*
X71718187Y-136919764D01*
X71660198Y-136779767D01*
X71567951Y-136659549D01*
X71546315Y-136642947D01*
X71464013Y-136579793D01*
X71461765Y-136576715D01*
X71458297Y-136575131D01*
X71441323Y-136548719D01*
X71422810Y-136523365D01*
X71421984Y-136518626D01*
X71420523Y-136516353D01*
X71415500Y-136481418D01*
X71415500Y-136417230D01*
X71435185Y-136350191D01*
X71451819Y-136329549D01*
X71557712Y-136223656D01*
X71649814Y-136074334D01*
X71704999Y-135907797D01*
X71715500Y-135805009D01*
X71715499Y-134754992D01*
X71715179Y-134751864D01*
X71704999Y-134652203D01*
X71704998Y-134652200D01*
X71674187Y-134559219D01*
X71649814Y-134485666D01*
X71557712Y-134336344D01*
X71433656Y-134212288D01*
X71284334Y-134120186D01*
X71117797Y-134065001D01*
X71117795Y-134065000D01*
X71015010Y-134054500D01*
X70414998Y-134054500D01*
X70414980Y-134054501D01*
X70312203Y-134065000D01*
X70312200Y-134065001D01*
X70145668Y-134120185D01*
X70145663Y-134120187D01*
X69996342Y-134212289D01*
X69872288Y-134336343D01*
X69872283Y-134336349D01*
X69870241Y-134339661D01*
X69868247Y-134341453D01*
X69867807Y-134342011D01*
X69867711Y-134341935D01*
X69818291Y-134386383D01*
X69749328Y-134397602D01*
X69685247Y-134369755D01*
X69659168Y-134339656D01*
X69657319Y-134336659D01*
X69657316Y-134336655D01*
X69533345Y-134212684D01*
X69384124Y-134120643D01*
X69384119Y-134120641D01*
X69217697Y-134065494D01*
X69217690Y-134065493D01*
X69114986Y-134055000D01*
X69065000Y-134055000D01*
X69065000Y-135004189D01*
X69055562Y-135051636D01*
X69045263Y-135076503D01*
X69045262Y-135076507D01*
X69045261Y-135076510D01*
X69045260Y-135076511D01*
X69014500Y-135231153D01*
X69014500Y-135388846D01*
X69045261Y-135543489D01*
X69045263Y-135543497D01*
X69050584Y-135556344D01*
X69055561Y-135568358D01*
X69065000Y-135615811D01*
X69065000Y-136504999D01*
X69114972Y-136504999D01*
X69114984Y-136504998D01*
X69176938Y-136498669D01*
X69245631Y-136511438D01*
X69296516Y-136559319D01*
X69313437Y-136627108D01*
X69291022Y-136693285D01*
X69287917Y-136697513D01*
X69224802Y-136779766D01*
X69224800Y-136779769D01*
X69166813Y-136919763D01*
X69166813Y-136919764D01*
X69152000Y-137032272D01*
X69152000Y-137557727D01*
X69166813Y-137670235D01*
X69166813Y-137670236D01*
X69224801Y-137810233D01*
X69258779Y-137854514D01*
X69283973Y-137919684D01*
X69269934Y-137988129D01*
X69258779Y-138005486D01*
X69224801Y-138049766D01*
X69166813Y-138189763D01*
X69166813Y-138189764D01*
X69152000Y-138302272D01*
X69152000Y-138827727D01*
X69166813Y-138940235D01*
X69166813Y-138940236D01*
X69224801Y-139080233D01*
X69242029Y-139102684D01*
X69267224Y-139167853D01*
X69253186Y-139236298D01*
X69204372Y-139286288D01*
X69175759Y-139297943D01*
X69172866Y-139298718D01*
X69172865Y-139298718D01*
X69041635Y-139374485D01*
X69041632Y-139374487D01*
X68514487Y-139901632D01*
X68514485Y-139901635D01*
X68438719Y-140032863D01*
X68399500Y-140179234D01*
X68399500Y-141540765D01*
X68438719Y-141687136D01*
X68454360Y-141714226D01*
X68514485Y-141818365D01*
X68514487Y-141818367D01*
X68535125Y-141839005D01*
X68568610Y-141900328D01*
X68563626Y-141970020D01*
X68521754Y-142025953D01*
X68486449Y-142044392D01*
X68333166Y-142095186D01*
X68333163Y-142095187D01*
X68183842Y-142187289D01*
X68059789Y-142311342D01*
X67967687Y-142460663D01*
X67967686Y-142460666D01*
X67912501Y-142627203D01*
X67912501Y-142627204D01*
X67912500Y-142627204D01*
X67908384Y-142667496D01*
X67881987Y-142732188D01*
X67824805Y-142772338D01*
X67754994Y-142775200D01*
X67694718Y-142739865D01*
X67663114Y-142677552D01*
X67661668Y-142667492D01*
X67654999Y-142602203D01*
X67654998Y-142602200D01*
X67599814Y-142435666D01*
X67507712Y-142286344D01*
X67383656Y-142162288D01*
X67286902Y-142102610D01*
X67240179Y-142050663D01*
X67228000Y-141997072D01*
X67228000Y-139249237D01*
X67228000Y-139249235D01*
X67188781Y-139102866D01*
X67184690Y-139095781D01*
X67165753Y-139062980D01*
X67113015Y-138971636D01*
X67005865Y-138864486D01*
X66415083Y-138273704D01*
X66381598Y-138212381D01*
X66379825Y-138202207D01*
X66378187Y-138189766D01*
X66378187Y-138189764D01*
X66320198Y-138049767D01*
X66286220Y-138005486D01*
X66261026Y-137940317D01*
X66275064Y-137871872D01*
X66286220Y-137854514D01*
X66302623Y-137833137D01*
X66320198Y-137810233D01*
X66378187Y-137670236D01*
X66393000Y-137557720D01*
X66393000Y-137032280D01*
X66378187Y-136919764D01*
X66320198Y-136779767D01*
X66227951Y-136659549D01*
X66107733Y-136567302D01*
X66107729Y-136567300D01*
X65990219Y-136518626D01*
X65967736Y-136509313D01*
X65953671Y-136507461D01*
X65855227Y-136494500D01*
X65855220Y-136494500D01*
X64349780Y-136494500D01*
X64349772Y-136494500D01*
X64237264Y-136509313D01*
X64237263Y-136509313D01*
X64097270Y-136567300D01*
X64097267Y-136567301D01*
X64097267Y-136567302D01*
X64019327Y-136627108D01*
X63977049Y-136659549D01*
X63884800Y-136779770D01*
X63826813Y-136919763D01*
X63826813Y-136919764D01*
X63812000Y-137032272D01*
X63812000Y-137557727D01*
X63826813Y-137670235D01*
X63826813Y-137670236D01*
X63884801Y-137810233D01*
X63918779Y-137854514D01*
X63943973Y-137919684D01*
X63929934Y-137988129D01*
X63918779Y-138005486D01*
X63884801Y-138049766D01*
X63826813Y-138189763D01*
X63826813Y-138189764D01*
X63812000Y-138302272D01*
X63812000Y-138827727D01*
X63826813Y-138940235D01*
X63826813Y-138940236D01*
X63877683Y-139063047D01*
X63885152Y-139132517D01*
X63853877Y-139194996D01*
X63793788Y-139230648D01*
X63763122Y-139234500D01*
X60063443Y-139234500D01*
X59910713Y-139275423D01*
X59879504Y-139293443D01*
X59879503Y-139293443D01*
X59773787Y-139354477D01*
X59773782Y-139354481D01*
X59661978Y-139466286D01*
X57492180Y-141636083D01*
X57430857Y-141669568D01*
X57361165Y-141664584D01*
X57305232Y-141622712D01*
X57280815Y-141557248D01*
X57280499Y-141548428D01*
X57280499Y-139624628D01*
X57274091Y-139565017D01*
X57241926Y-139478779D01*
X57223797Y-139430171D01*
X57223793Y-139430164D01*
X57137547Y-139314955D01*
X57137544Y-139314952D01*
X57022335Y-139228706D01*
X57022327Y-139228702D01*
X57001247Y-139220839D01*
X56945314Y-139178966D01*
X56920899Y-139113501D01*
X56935752Y-139045229D01*
X56956900Y-139016979D01*
X56988015Y-138985865D01*
X57063781Y-138854635D01*
X57103000Y-138708266D01*
X57103000Y-137725217D01*
X57122685Y-137658178D01*
X57161905Y-137619678D01*
X57246151Y-137567715D01*
X57246154Y-137567713D01*
X57246153Y-137567713D01*
X57246156Y-137567712D01*
X57370212Y-137443656D01*
X57462314Y-137294334D01*
X57517499Y-137127797D01*
X57528000Y-137025009D01*
X57527999Y-135974992D01*
X57523052Y-135926568D01*
X57517499Y-135872203D01*
X57517498Y-135872200D01*
X57495225Y-135804986D01*
X67815001Y-135804986D01*
X67825494Y-135907697D01*
X67880641Y-136074119D01*
X67880643Y-136074124D01*
X67972684Y-136223345D01*
X68096654Y-136347315D01*
X68245875Y-136439356D01*
X68245880Y-136439358D01*
X68412302Y-136494505D01*
X68412309Y-136494506D01*
X68515019Y-136504999D01*
X68564999Y-136504998D01*
X68565000Y-136504998D01*
X68565000Y-135530000D01*
X67815001Y-135530000D01*
X67815001Y-135804986D01*
X57495225Y-135804986D01*
X57462314Y-135705666D01*
X57370212Y-135556344D01*
X57319896Y-135506028D01*
X57319550Y-135505676D01*
X57303304Y-135475308D01*
X57286814Y-135445108D01*
X57286853Y-135444555D01*
X57286592Y-135444067D01*
X57289344Y-135409730D01*
X57291798Y-135375416D01*
X57292136Y-135374889D01*
X57292174Y-135374421D01*
X57293855Y-135372214D01*
X57320299Y-135331068D01*
X57332712Y-135318656D01*
X57424814Y-135169334D01*
X57479999Y-135002797D01*
X57490500Y-134900009D01*
X57490500Y-134755013D01*
X67815000Y-134755013D01*
X67815000Y-135030000D01*
X68565000Y-135030000D01*
X68565000Y-134055000D01*
X68564999Y-134054999D01*
X68515029Y-134055000D01*
X68515011Y-134055001D01*
X68412302Y-134065494D01*
X68245880Y-134120641D01*
X68245875Y-134120643D01*
X68096654Y-134212684D01*
X67972684Y-134336654D01*
X67880643Y-134485875D01*
X67880641Y-134485880D01*
X67825494Y-134652302D01*
X67825493Y-134652309D01*
X67815000Y-134755013D01*
X57490500Y-134755013D01*
X57490499Y-134397602D01*
X57490499Y-133899998D01*
X57490498Y-133899980D01*
X57479999Y-133797203D01*
X57479998Y-133797200D01*
X57454582Y-133720500D01*
X57424814Y-133630666D01*
X57332712Y-133481344D01*
X57208656Y-133357288D01*
X57059334Y-133265186D01*
X56892797Y-133210001D01*
X56892795Y-133210000D01*
X56790010Y-133199500D01*
X56164998Y-133199500D01*
X56164980Y-133199501D01*
X56062203Y-133210000D01*
X56062200Y-133210001D01*
X55895668Y-133265185D01*
X55895663Y-133265187D01*
X55746342Y-133357289D01*
X55652681Y-133450951D01*
X55591358Y-133484436D01*
X55521666Y-133479452D01*
X55477319Y-133450951D01*
X55383657Y-133357289D01*
X55383656Y-133357288D01*
X55234334Y-133265186D01*
X55067797Y-133210001D01*
X55067795Y-133210000D01*
X54965010Y-133199500D01*
X54339998Y-133199500D01*
X54339980Y-133199501D01*
X54234083Y-133210319D01*
X54165390Y-133197549D01*
X54114506Y-133149668D01*
X54097586Y-133081878D01*
X54103775Y-133047962D01*
X54120436Y-132997685D01*
X54130500Y-132899174D01*
X54130500Y-132040826D01*
X54120436Y-131942315D01*
X54067549Y-131782713D01*
X54067545Y-131782707D01*
X54067544Y-131782704D01*
X53979283Y-131639612D01*
X53979280Y-131639608D01*
X53860391Y-131520719D01*
X53860387Y-131520716D01*
X53717295Y-131432455D01*
X53717289Y-131432452D01*
X53717287Y-131432451D01*
X53557685Y-131379564D01*
X53557683Y-131379563D01*
X53459181Y-131369500D01*
X53459174Y-131369500D01*
X52925826Y-131369500D01*
X52925818Y-131369500D01*
X52827316Y-131379563D01*
X52827315Y-131379564D01*
X52789267Y-131392172D01*
X52667715Y-131432450D01*
X52667704Y-131432455D01*
X52524612Y-131520716D01*
X52524608Y-131520719D01*
X52405719Y-131639608D01*
X52405716Y-131639612D01*
X52317455Y-131782704D01*
X52317451Y-131782713D01*
X52264564Y-131942315D01*
X52264564Y-131942316D01*
X52264563Y-131942316D01*
X52254500Y-132040818D01*
X52254500Y-132432758D01*
X52245855Y-132462198D01*
X52239332Y-132492185D01*
X52235577Y-132497200D01*
X52234815Y-132499797D01*
X52218181Y-132520439D01*
X52217181Y-132521439D01*
X52155858Y-132554924D01*
X52086166Y-132549940D01*
X52030233Y-132508068D01*
X52005816Y-132442604D01*
X52005500Y-132433758D01*
X52005500Y-132040831D01*
X52005499Y-132040818D01*
X51995436Y-131942316D01*
X51985827Y-131913317D01*
X51942549Y-131782713D01*
X51942545Y-131782707D01*
X51942544Y-131782704D01*
X51854283Y-131639612D01*
X51854280Y-131639608D01*
X51791819Y-131577147D01*
X51758334Y-131515824D01*
X51755500Y-131489466D01*
X51755500Y-129453777D01*
X51775185Y-129386738D01*
X51820986Y-129345303D01*
X51820775Y-129344959D01*
X51822608Y-129343835D01*
X51823211Y-129343289D01*
X51824923Y-129342418D01*
X51981617Y-129228573D01*
X52118573Y-129091617D01*
X52232418Y-128934923D01*
X52320349Y-128762348D01*
X52380201Y-128578143D01*
X52392060Y-128503268D01*
X52410500Y-128386847D01*
X52410500Y-128193152D01*
X52380201Y-128001856D01*
X52320347Y-127817647D01*
X52258100Y-127695481D01*
X52232418Y-127645077D01*
X52118573Y-127488383D01*
X51981617Y-127351427D01*
X51824923Y-127237582D01*
X51652352Y-127149652D01*
X51468143Y-127089798D01*
X51276847Y-127059500D01*
X51276842Y-127059500D01*
X51083158Y-127059500D01*
X51083153Y-127059500D01*
X50891856Y-127089798D01*
X50707647Y-127149652D01*
X50535076Y-127237582D01*
X50445677Y-127302534D01*
X50378383Y-127351427D01*
X50378381Y-127351429D01*
X50378380Y-127351429D01*
X50241429Y-127488380D01*
X50241429Y-127488381D01*
X50241427Y-127488383D01*
X50197457Y-127548902D01*
X50127582Y-127645076D01*
X50039651Y-127817650D01*
X50027666Y-127854535D01*
X49988227Y-127912210D01*
X49923867Y-127939406D01*
X49855021Y-127927490D01*
X49803547Y-127880244D01*
X49791805Y-127854531D01*
X49779884Y-127817843D01*
X49691991Y-127645343D01*
X49669359Y-127614192D01*
X49669358Y-127614192D01*
X49110715Y-128172836D01*
X49091948Y-128102797D01*
X49028097Y-127992203D01*
X48937797Y-127901903D01*
X48827203Y-127838052D01*
X48757162Y-127819284D01*
X49315806Y-127260639D01*
X49315806Y-127260638D01*
X49284662Y-127238011D01*
X49112158Y-127150116D01*
X48928022Y-127090286D01*
X48736802Y-127060000D01*
X48543198Y-127060000D01*
X48351977Y-127090286D01*
X48167841Y-127150116D01*
X47995337Y-127238011D01*
X47964192Y-127260639D01*
X47964191Y-127260639D01*
X48522838Y-127819284D01*
X48452797Y-127838052D01*
X48342203Y-127901903D01*
X48251903Y-127992203D01*
X48188052Y-128102797D01*
X48169284Y-128172837D01*
X47610639Y-127614191D01*
X47610639Y-127614192D01*
X47588011Y-127645337D01*
X47500116Y-127817841D01*
X47440286Y-128001977D01*
X47410000Y-128193197D01*
X40500500Y-128193197D01*
X40500500Y-123074291D01*
X44029500Y-123074291D01*
X44029500Y-123345708D01*
X44064925Y-123614797D01*
X44135175Y-123876973D01*
X44239038Y-124127720D01*
X44239043Y-124127731D01*
X44374743Y-124362769D01*
X44374754Y-124362785D01*
X44539973Y-124578103D01*
X44539979Y-124578110D01*
X44731889Y-124770020D01*
X44731895Y-124770025D01*
X44947223Y-124935252D01*
X44947230Y-124935256D01*
X45182268Y-125070956D01*
X45182273Y-125070958D01*
X45182276Y-125070960D01*
X45433031Y-125174826D01*
X45695199Y-125245074D01*
X45897018Y-125271643D01*
X45964291Y-125280500D01*
X45964292Y-125280500D01*
X46235709Y-125280500D01*
X46289526Y-125273414D01*
X46504801Y-125245074D01*
X46766969Y-125174826D01*
X47017724Y-125070960D01*
X47252777Y-124935252D01*
X47468105Y-124770025D01*
X47660025Y-124578105D01*
X47825252Y-124362777D01*
X47960960Y-124127724D01*
X48064826Y-123876969D01*
X48135074Y-123614801D01*
X48170500Y-123345708D01*
X48170500Y-123074292D01*
X48170500Y-123074291D01*
X54189500Y-123074291D01*
X54189500Y-123345708D01*
X54224925Y-123614797D01*
X54295175Y-123876973D01*
X54399038Y-124127720D01*
X54399043Y-124127731D01*
X54534743Y-124362769D01*
X54534754Y-124362785D01*
X54699973Y-124578103D01*
X54699979Y-124578110D01*
X54891889Y-124770020D01*
X54891895Y-124770025D01*
X55107223Y-124935252D01*
X55107230Y-124935256D01*
X55342268Y-125070956D01*
X55342273Y-125070958D01*
X55342276Y-125070960D01*
X55593031Y-125174826D01*
X55855199Y-125245074D01*
X56057018Y-125271643D01*
X56124291Y-125280500D01*
X56124292Y-125280500D01*
X56395709Y-125280500D01*
X56449526Y-125273414D01*
X56664801Y-125245074D01*
X56926969Y-125174826D01*
X57177724Y-125070960D01*
X57412777Y-124935252D01*
X57628105Y-124770025D01*
X57820025Y-124578105D01*
X57985252Y-124362777D01*
X58120960Y-124127724D01*
X58224826Y-123876969D01*
X58295074Y-123614801D01*
X58330500Y-123345708D01*
X58330500Y-123074292D01*
X58330500Y-123074291D01*
X72649500Y-123074291D01*
X72649500Y-123345708D01*
X72684925Y-123614797D01*
X72755175Y-123876973D01*
X72859038Y-124127720D01*
X72859043Y-124127731D01*
X72994743Y-124362769D01*
X72994754Y-124362785D01*
X73159973Y-124578103D01*
X73159979Y-124578110D01*
X73351889Y-124770020D01*
X73351895Y-124770025D01*
X73567223Y-124935252D01*
X73567230Y-124935256D01*
X73802268Y-125070956D01*
X73802273Y-125070958D01*
X73802276Y-125070960D01*
X74053031Y-125174826D01*
X74315199Y-125245074D01*
X74517018Y-125271643D01*
X74584291Y-125280500D01*
X74584292Y-125280500D01*
X74855709Y-125280500D01*
X74909526Y-125273414D01*
X75124801Y-125245074D01*
X75386969Y-125174826D01*
X75637724Y-125070960D01*
X75872777Y-124935252D01*
X76088105Y-124770025D01*
X76280025Y-124578105D01*
X76445252Y-124362777D01*
X76580960Y-124127724D01*
X76684826Y-123876969D01*
X76755074Y-123614801D01*
X76790500Y-123345708D01*
X76790500Y-123074292D01*
X76790500Y-123074291D01*
X82809500Y-123074291D01*
X82809500Y-123345708D01*
X82844925Y-123614797D01*
X82915175Y-123876973D01*
X83019038Y-124127720D01*
X83019043Y-124127731D01*
X83154743Y-124362769D01*
X83154754Y-124362785D01*
X83319973Y-124578103D01*
X83319979Y-124578110D01*
X83511889Y-124770020D01*
X83511895Y-124770025D01*
X83727223Y-124935252D01*
X83727230Y-124935256D01*
X83962268Y-125070956D01*
X83962273Y-125070958D01*
X83962276Y-125070960D01*
X84213031Y-125174826D01*
X84475199Y-125245074D01*
X84677018Y-125271643D01*
X84744291Y-125280500D01*
X84744292Y-125280500D01*
X85015709Y-125280500D01*
X85069526Y-125273414D01*
X85284801Y-125245074D01*
X85546969Y-125174826D01*
X85797724Y-125070960D01*
X86032777Y-124935252D01*
X86248105Y-124770025D01*
X86440025Y-124578105D01*
X86605252Y-124362777D01*
X86740960Y-124127724D01*
X86844826Y-123876969D01*
X86915074Y-123614801D01*
X86950500Y-123345708D01*
X86950500Y-123074292D01*
X86915074Y-122805199D01*
X86844826Y-122543031D01*
X86740960Y-122292276D01*
X86740958Y-122292273D01*
X86740956Y-122292268D01*
X86605256Y-122057230D01*
X86605252Y-122057223D01*
X86440025Y-121841895D01*
X86440020Y-121841889D01*
X86248110Y-121649979D01*
X86248103Y-121649973D01*
X86032785Y-121484754D01*
X86032783Y-121484752D01*
X86032777Y-121484748D01*
X86032772Y-121484745D01*
X86032769Y-121484743D01*
X85797731Y-121349043D01*
X85797720Y-121349038D01*
X85546973Y-121245175D01*
X85284797Y-121174925D01*
X85015709Y-121139500D01*
X85015708Y-121139500D01*
X84744292Y-121139500D01*
X84744291Y-121139500D01*
X84475202Y-121174925D01*
X84213026Y-121245175D01*
X83962279Y-121349038D01*
X83962268Y-121349043D01*
X83727230Y-121484743D01*
X83727214Y-121484754D01*
X83511896Y-121649973D01*
X83511889Y-121649979D01*
X83319979Y-121841889D01*
X83319973Y-121841896D01*
X83154754Y-122057214D01*
X83154743Y-122057230D01*
X83019043Y-122292268D01*
X83019038Y-122292279D01*
X82915175Y-122543026D01*
X82844925Y-122805202D01*
X82809500Y-123074291D01*
X76790500Y-123074291D01*
X76755074Y-122805199D01*
X76684826Y-122543031D01*
X76580960Y-122292276D01*
X76580958Y-122292273D01*
X76580956Y-122292268D01*
X76445256Y-122057230D01*
X76445252Y-122057223D01*
X76280025Y-121841895D01*
X76280020Y-121841889D01*
X76088110Y-121649979D01*
X76088103Y-121649973D01*
X75872785Y-121484754D01*
X75872783Y-121484752D01*
X75872777Y-121484748D01*
X75872772Y-121484745D01*
X75872769Y-121484743D01*
X75637731Y-121349043D01*
X75637720Y-121349038D01*
X75386973Y-121245175D01*
X75124797Y-121174925D01*
X74855709Y-121139500D01*
X74855708Y-121139500D01*
X74584292Y-121139500D01*
X74584291Y-121139500D01*
X74315202Y-121174925D01*
X74053026Y-121245175D01*
X73802279Y-121349038D01*
X73802268Y-121349043D01*
X73567230Y-121484743D01*
X73567214Y-121484754D01*
X73351896Y-121649973D01*
X73351889Y-121649979D01*
X73159979Y-121841889D01*
X73159973Y-121841896D01*
X72994754Y-122057214D01*
X72994743Y-122057230D01*
X72859043Y-122292268D01*
X72859038Y-122292279D01*
X72755175Y-122543026D01*
X72684925Y-122805202D01*
X72649500Y-123074291D01*
X58330500Y-123074291D01*
X58295074Y-122805199D01*
X58224826Y-122543031D01*
X58120960Y-122292276D01*
X58120958Y-122292273D01*
X58120956Y-122292268D01*
X57985256Y-122057230D01*
X57985252Y-122057223D01*
X57820025Y-121841895D01*
X57820020Y-121841889D01*
X57628110Y-121649979D01*
X57628103Y-121649973D01*
X57412785Y-121484754D01*
X57412783Y-121484752D01*
X57412777Y-121484748D01*
X57412772Y-121484745D01*
X57412769Y-121484743D01*
X57177731Y-121349043D01*
X57177720Y-121349038D01*
X56926973Y-121245175D01*
X56664797Y-121174925D01*
X56395709Y-121139500D01*
X56395708Y-121139500D01*
X56124292Y-121139500D01*
X56124291Y-121139500D01*
X55855202Y-121174925D01*
X55593026Y-121245175D01*
X55342279Y-121349038D01*
X55342268Y-121349043D01*
X55107230Y-121484743D01*
X55107214Y-121484754D01*
X54891896Y-121649973D01*
X54891889Y-121649979D01*
X54699979Y-121841889D01*
X54699973Y-121841896D01*
X54534754Y-122057214D01*
X54534743Y-122057230D01*
X54399043Y-122292268D01*
X54399038Y-122292279D01*
X54295175Y-122543026D01*
X54224925Y-122805202D01*
X54189500Y-123074291D01*
X48170500Y-123074291D01*
X48135074Y-122805199D01*
X48064826Y-122543031D01*
X47960960Y-122292276D01*
X47960958Y-122292273D01*
X47960956Y-122292268D01*
X47825256Y-122057230D01*
X47825252Y-122057223D01*
X47660025Y-121841895D01*
X47660020Y-121841889D01*
X47468110Y-121649979D01*
X47468103Y-121649973D01*
X47252785Y-121484754D01*
X47252783Y-121484752D01*
X47252777Y-121484748D01*
X47252772Y-121484745D01*
X47252769Y-121484743D01*
X47017731Y-121349043D01*
X47017720Y-121349038D01*
X46766973Y-121245175D01*
X46504797Y-121174925D01*
X46235709Y-121139500D01*
X46235708Y-121139500D01*
X45964292Y-121139500D01*
X45964291Y-121139500D01*
X45695202Y-121174925D01*
X45433026Y-121245175D01*
X45182279Y-121349038D01*
X45182268Y-121349043D01*
X44947230Y-121484743D01*
X44947214Y-121484754D01*
X44731896Y-121649973D01*
X44731889Y-121649979D01*
X44539979Y-121841889D01*
X44539973Y-121841896D01*
X44374754Y-122057214D01*
X44374743Y-122057230D01*
X44239043Y-122292268D01*
X44239038Y-122292279D01*
X44135175Y-122543026D01*
X44064925Y-122805202D01*
X44029500Y-123074291D01*
X40500500Y-123074291D01*
X40500500Y-117504066D01*
X40500765Y-117495956D01*
X40504819Y-117434108D01*
X40517075Y-117247102D01*
X40519190Y-117231048D01*
X40567045Y-116990462D01*
X40571243Y-116974797D01*
X40594337Y-116906762D01*
X40650093Y-116742512D01*
X40656291Y-116727547D01*
X40764790Y-116507533D01*
X40772893Y-116493498D01*
X40909182Y-116289527D01*
X40919039Y-116276681D01*
X41080786Y-116092244D01*
X41092244Y-116080786D01*
X41276681Y-115919039D01*
X41289527Y-115909182D01*
X41493498Y-115772893D01*
X41507533Y-115764790D01*
X41727547Y-115656291D01*
X41742512Y-115650093D01*
X41906762Y-115594337D01*
X41974797Y-115571243D01*
X41990464Y-115567045D01*
X42231048Y-115519190D01*
X42247102Y-115517075D01*
X42495957Y-115500765D01*
X42504067Y-115500500D01*
X42565892Y-115500500D01*
X88364108Y-115500500D01*
X88425933Y-115500500D01*
X88434043Y-115500765D01*
G37*
%TD.AperFunction*%
%TD*%
M02*
