M48
; DRILL file {KiCad 9.0.2} date 2025-07-24T16:09:36+0200
; FORMAT={-:-/ absolute / inch / decimal}
; #@! TF.CreationDate,2025-07-24T16:09:36+02:00
; #@! TF.GenerationSoftware,Kicad,Pcbnew,9.0.2
; #@! TF.FileFunction,Plated,1,2,PTH
FMAT,2
INCH
; #@! TA.AperFunction,Plated,PTH,ViaDrill
T1C0.0079
; #@! TA.AperFunction,Plated,PTH,ViaDrill
T2C0.0118
; #@! TA.AperFunction,Plated,PTH,ComponentDrill
T3C0.0382
; #@! TA.AperFunction,Plated,PTH,ComponentDrill
T4C0.0394
; #@! TA.AperFunction,Plated,PTH,ComponentDrill
T5C0.0823
; #@! TA.AperFunction,Plated,PTH,ComponentDrill
T6C0.1260
%
G90
G05
T1
X1.5945Y-4.6343
X1.5945Y-4.713
X1.5945Y-4.7917
X1.5945Y-4.8705
X1.5945Y-4.9492
X1.5945Y-5.028
X1.5945Y-5.1067
X1.5945Y-5.1854
X1.5945Y-5.2642
X1.5945Y-5.3429
X1.5945Y-5.4217
X1.5945Y-5.5004
X1.5945Y-5.5791
X1.5945Y-5.6579
X1.5945Y-5.7366
X1.5945Y-5.8154
X1.5945Y-5.8941
X1.5945Y-5.9728
X1.5945Y-6.0516
X1.5945Y-6.1303
X1.6693Y-4.5476
X1.6732Y-6.0909
X1.7492Y-4.5472
X1.752Y-6.0909
X1.828Y-4.5472
X1.8307Y-6.0909
X1.9055Y-5.1224
X1.9055Y-5.1657
X1.9055Y-5.2091
X1.9055Y-5.2524
X1.9055Y-5.2957
X1.9055Y-5.339
X1.9055Y-5.3823
X1.9055Y-5.4256
X1.9067Y-4.5472
X1.9094Y-6.0909
X1.9488Y-5.1224
X1.9488Y-5.1657
X1.9488Y-5.2091
X1.9488Y-5.2524
X1.9488Y-5.2957
X1.9488Y-5.339
X1.9488Y-5.3823
X1.9488Y-5.4256
X1.9854Y-4.5472
X1.9882Y-6.0909
X1.9921Y-5.1224
X1.9921Y-5.1657
X2.0394Y-5.1224
X2.0394Y-5.1657
X2.0642Y-4.5472
X2.0669Y-6.0909
X2.0787Y-5.1224
X2.0787Y-5.1657
X2.122Y-5.1224
X2.122Y-5.1657
X2.1429Y-4.5472
X2.1457Y-6.0909
X2.2217Y-4.5472
X2.2244Y-6.0909
X2.3004Y-4.5472
X2.3031Y-6.0909
X2.3791Y-4.5472
X2.3819Y-6.0909
X2.4449Y-5.6933
X2.4449Y-5.7366
X2.4449Y-5.7799
X2.4449Y-5.8193
X2.4579Y-4.5472
X2.4606Y-6.0909
X2.4882Y-5.6933
X2.4882Y-5.7366
X2.4882Y-5.7799
X2.4882Y-5.8626
X2.5315Y-5.6933
X2.5315Y-5.7366
X2.5315Y-5.8193
X2.5366Y-4.5472
X2.5394Y-6.0909
X2.5748Y-5.6933
X2.5748Y-5.7366
X2.5748Y-5.7799
X2.6154Y-4.5472
X2.6181Y-5.6933
X2.6181Y-5.7366
X2.6181Y-5.8626
X2.6181Y-6.0909
X2.6614Y-5.6933
X2.6614Y-5.8193
X2.6614Y-5.8626
X2.6941Y-4.5472
X2.6969Y-6.0909
X2.7047Y-5.7799
X2.7047Y-5.8193
X2.7047Y-5.8626
X2.748Y-5.6933
X2.748Y-5.7366
X2.748Y-5.7799
X2.748Y-5.8193
X2.748Y-5.8626
X2.7728Y-4.5472
X2.7756Y-6.0909
X2.8516Y-4.5472
X2.8543Y-6.0909
X2.9303Y-4.5472
X2.9331Y-6.0909
X3.0091Y-4.5472
X3.0118Y-6.0909
X3.0315Y-5.1224
X3.0315Y-5.1657
X3.0315Y-5.2091
X3.0315Y-5.2524
X3.0315Y-5.2957
X3.0315Y-5.335
X3.0315Y-5.3783
X3.0315Y-5.4217
X3.0748Y-5.1224
X3.0748Y-5.1657
X3.0748Y-5.2091
X3.0748Y-5.2524
X3.0748Y-5.2957
X3.0748Y-5.335
X3.0748Y-5.3783
X3.0748Y-5.4217
X3.0878Y-4.5472
X3.0906Y-6.0909
X3.1181Y-5.1224
X3.1181Y-5.1657
X3.1654Y-5.1224
X3.1654Y-5.1657
X3.1665Y-4.5472
X3.1693Y-6.0909
X3.2047Y-5.1224
X3.2087Y-5.1657
X3.2453Y-4.5472
X3.248Y-5.1224
X3.248Y-6.0909
X3.252Y-5.1657
X3.324Y-4.5472
X3.3268Y-6.0909
X3.4028Y-4.5472
X3.4055Y-6.0909
X3.4815Y-4.5472
X3.4843Y-6.0909
X3.5591Y-4.8626
X3.5602Y-4.626
X3.5602Y-4.7047
X3.5602Y-4.7835
X3.563Y-6.0909
X3.6417Y-6.0909
X3.6732Y-4.9886
X3.7205Y-6.0909
X3.7598Y-4.991
X3.7992Y-6.0909
X3.8386Y-4.991
X3.878Y-6.0909
X3.9173Y-4.991
X3.9567Y-6.0909
X3.9961Y-4.991
X4.0354Y-6.0909
X4.0748Y-4.991
X4.1142Y-6.0909
X4.1535Y-4.991
X4.1929Y-6.0909
X4.2323Y-4.991
X4.2717Y-6.0909
X4.311Y-4.991
X4.3504Y-6.0909
X4.3898Y-4.991
X4.4291Y-6.0909
X4.4685Y-4.991
X4.5079Y-6.0909
X4.5472Y-4.991
X4.5866Y-6.0909
X4.626Y-4.991
X4.6654Y-6.0909
X4.7047Y-4.991
X4.7441Y-6.0909
X4.7835Y-4.991
X4.8228Y-6.0909
X4.8622Y-4.991
X4.9016Y-6.0909
X4.9409Y-4.991
X4.9803Y-6.0909
X5.0197Y-4.991
X5.0472Y-6.0949
X5.0984Y-5.1028
X5.0984Y-5.1854
X5.0984Y-5.2642
X5.0984Y-5.3429
X5.0984Y-5.4217
X5.0984Y-5.5004
X5.0984Y-5.5791
X5.0984Y-5.6579
X5.0984Y-5.7366
X5.0984Y-5.8154
X5.0984Y-5.8941
X5.0984Y-5.9728
X5.0984Y-6.0516
X5.0984Y-6.1303
T2
X1.9142Y-5.7059
X2.0343Y-5.4315
X2.2106Y-5.7051
X2.4976Y-5.5555
X2.7486Y-5.3272
X2.8594Y-5.7768
X3.0306Y-5.7062
X3.1567Y-5.4311
X3.2626Y-6.0429
X3.3484Y-5.7051
X3.7217Y-5.6763
X3.8787Y-5.5476
X3.8795Y-5.4984
T3
X1.915Y-5.0508
X2.015Y-5.0508
X3.0417Y-5.0508
X3.1417Y-5.0508
T4
X2.3437Y-5.9449
X2.4437Y-5.9449
X2.5437Y-5.9449
X2.6437Y-5.9449
X2.7437Y-5.9449
X2.8437Y-5.9449
X2.9437Y-5.9449
X3.0437Y-5.9449
X3.4437Y-5.9449
X3.5437Y-5.9449
X3.6437Y-5.9449
X3.7437Y-5.9449
X3.8437Y-5.9449
X3.9437Y-5.9449
X4.0437Y-5.9449
X4.1303Y-5.278
X4.1437Y-5.9449
X4.1848Y-5.1661
X4.2394Y-5.278
X4.2437Y-5.9449
X4.2939Y-5.1661
X4.3437Y-5.9449
X4.3484Y-5.278
X4.403Y-5.1661
X4.4575Y-5.278
X4.512Y-5.1661
X4.5665Y-5.278
T5
X1.815Y-4.8508
X2.215Y-4.8508
X2.9417Y-4.8508
X3.3417Y-4.8508
T6
X3.8563Y-5.1661
X4.8406Y-5.1661
M30
